<svg xmlns="http://www.w3.org/2000/svg" viewBox="0 0 23.297 18.912">
  <defs>
    <style>
      .cls-1 {
        fill: #fff;
      }
    </style>
  </defs>
  <g id="Asset_9" data-name="Asset 9" transform="translate(0 -0.001)">
    <g id="Layer_1" data-name="Layer 1" transform="translate(0 0)">
      <path id="Path_1355" data-name="Path 1355" class="cls-1" d="M23.3,2.27a9.5,9.5,0,0,1-2.742.753,4.81,4.81,0,0,0,2.1-2.641,9.7,9.7,0,0,1-3.048,1.157A4.782,4.782,0,0,0,11.35,4.808a4.832,4.832,0,0,0,.134,1.1A13.575,13.575,0,0,1,1.625.9,4.714,4.714,0,0,0,.978,3.3,4.762,4.762,0,0,0,3.1,7.281a4.762,4.762,0,0,1-2.165-.6v.07a4.784,4.784,0,0,0,3.824,4.678,4.882,4.882,0,0,1-1.258.165,4.781,4.781,0,0,1-.894-.081,4.79,4.79,0,0,0,4.465,3.314A9.6,9.6,0,0,1,1.14,16.869,9.587,9.587,0,0,1,0,16.8a13.507,13.507,0,0,0,7.325,2.151,13.505,13.505,0,0,0,13.6-13.6l-.017-.619A9.544,9.544,0,0,0,23.3,2.27Z" transform="translate(0 -0.04)"/>
    </g>
  </g>
</svg>
