<svg xmlns="http://www.w3.org/2000/svg" viewBox="0 0 361.47 243.47"><defs><style>.cls-1{fill:#1273d3;}</style></defs><title>havea_a_good_day</title><g id="Layer_2" data-name="Layer 2"><g id="Layer_1-2" data-name="Layer 1"><path class="cls-1" d="M83.24,236.7c-1.77.43-3,.68-3.41,1.86s-1,2.25-2.43,2a2.79,2.79,0,0,1-2.28-2.43,2.76,2.76,0,0,1,1.47-3.22c2.36-1.18,4.78-2.22,7.17-3.31A24.4,24.4,0,0,0,94.07,223c3.48-5.13,3.91-10.36.78-15.85-3.54-6.24-8.39-11.27-13.62-16.12-8.8-8.16-18.5-15.2-27.52-23.07C49,163.8,44.48,159.46,41,154.17c-3.77-5.74-8.81-10.38-13.57-15.22C16.14,127.49,8.78,113.88,4.23,98.57,2.31,92.13-.12,85.77,0,79,.34,61.4,7.56,47.17,21.17,36,33.88,25.65,48.51,19.4,64.28,15.55c16.84-4.12,33.72-8,50.84-10.79A362.43,362.43,0,0,1,196,.7c17.66,1.11,35.23,3.38,52.36,8.17a169.94,169.94,0,0,1,33.25,13.39c11.08,5.82,21.94,12,32.83,18.18,15.34,8.66,25.75,21.61,33.34,37.05,7.47,15.2,11.57,31.44,13.47,48.24a35,35,0,0,1-2.75,17C354.87,152,351,161.05,346.78,170c-5.34,11.22-14.7,18.44-24.67,25.1-17.83,11.91-37.49,19.14-58.44,23.33A208.44,208.44,0,0,1,218,222.56c-7.62-.17-15.2-1-22.77-1.87a89.13,89.13,0,0,0-10.32-.69c-11.36-.06-22.72-.14-34.08.07-13.34.25-26.27,2.51-38.67,7.8-5.63,2.4-11.68,3.84-17.57,5.62a17.74,17.74,0,0,0-10,7.9,7.94,7.94,0,0,1-.92,1.34,2,2,0,0,1-2.72.34,1.75,1.75,0,0,1-.28-2.65C81.36,239.34,82.12,238.28,83.24,236.7Zm9.89-5.61c5.08-1.53,10.26-2.81,15.24-4.65,10.81-4,21.61-7.56,33.31-8.4,14.17-1,28.32-.88,42.48-.57,9.44.21,18.79,1.9,28.21,2.28a202.43,202.43,0,0,0,46.35-3.13c23.47-4.46,45.35-12.53,65-26.42,9.39-6.64,17.24-14.41,21.75-25.18,3.12-7.45,6.23-14.9,9.46-22.3a36.23,36.23,0,0,0,2.59-20.81c-2.56-15-6-29.74-12.84-43.44-7.46-14.91-17.53-27.41-32.37-35.77-11.78-6.63-23.48-13.41-35.51-19.57A158.29,158.29,0,0,0,245.08,11a244.31,244.31,0,0,0-49.75-7.38,356.81,356.81,0,0,0-73.67,3.27,558.48,558.48,0,0,0-64,14c-15.3,4.26-29,11.55-40.16,23C6.68,54.88.89,68.55,3.6,83.74,6.94,102.43,13.82,120,27.5,134.16c5.79,6,12,11.66,16.61,18.71A52.28,52.28,0,0,0,54,163.67c10.39,8.93,21.48,17,31.61,26.25a65.92,65.92,0,0,1,13,16,16.92,16.92,0,0,1,1.89,12.34C99.44,223.31,96.32,227,93.13,231.09Z"/><path class="cls-1" d="M203.85,138.6a9.68,9.68,0,0,0,4.12-5.41c4.08-12.89,12-23.43,20.51-33.64A13.91,13.91,0,0,1,230,98a1.72,1.72,0,0,1,2.25-.1c.73.48.61,1.28.43,2a4.36,4.36,0,0,1-.71,1.45c-6.67,8.84-11.62,18.77-17.94,27.83-1.55,2.23-3.26,4.36-4.67,6.67-2,3.24-1.93,6.3,2.31,7.92a10.56,10.56,0,0,1,1.24.54,1.25,1.25,0,0,1,.61,1.83c-.42.73-1.07.38-1.68.15-3.5-1.31-4.68-2.8-5.39-7.09-1.44,1.58-2.7,3.05-4.05,4.44a16.57,16.57,0,0,1-4.71,3.65c-2.78,1.33-4.72.4-5.27-2.59-.18-.94-.52-1.13-1.36-1.27a53.54,53.54,0,0,0-7.59-.48,2.22,2.22,0,0,0-2,1.13c-2.65,3.52-6.37,4.22-10.44,3.8-2.71-.27-3.36-1.43-2.43-4.08.2-.58.41-1.16.63-1.8-3.43-.17-6.77-.26-10.09-.54a11.48,11.48,0,0,0-8.53,2.52c-4.4,3.43-9.42,5.46-15.21,4.08a3.59,3.59,0,0,0-2.36.44c-4.07,1.76-8.09,3.62-12.18,5.31-1.69.7-1.66,2.26-2.07,3.54a114.9,114.9,0,0,1-7,17.6,19.18,19.18,0,0,1-4.62,6.3c-2.82,2.32-5.41,1.77-7.06-1.46a15.36,15.36,0,0,1,3.65-18.76,31.94,31.94,0,0,1,10.67-6.84,6.43,6.43,0,0,0,4.74-5.5c.31-1.87.9-3.69,1.36-5.53.3-.42.49-.84,0-1.26,0,0-.42.38-.64.58-2.07,1.6-4,3.38-6.49,4.4-1.49.62-3.06,1-4.36-.1s-.83-2.63-.45-4.05a15.13,15.13,0,0,1,6.92-9.38c2.06-1.24,4.37-1.61,6.42-.21s2.53,3.56,2,6a22.7,22.7,0,0,0-.23,3.79c-.07,1.43,1.53,3.35-1.57,3.86-.68.12-1,2.65-1.66,4.8L131.1,147c.57-.24.71-.64.81-1.25a6.89,6.89,0,0,1,6.53-6c2-.13,4,0,6,0,.76,0,1.42.06,1.79.9a1.59,1.59,0,0,1-.74,2.1c-1.89,1.19-3.86,2.24-6,3.49,4,0,6.91-2,9.89-3.84.6-.37.53-.62-.11-1.1-1.92-1.42-.93-2.82.55-3.56s3.86-1,5,0c2.9,2.57,6.3,1.38,9.42,1.84,2.59.39,5.21-.5,7.69-1.4a22.05,22.05,0,0,1,6.18-.81c1.59-.1,2,.72.95,2-1.72.8-3.49,1.51-5.14,2.43-1.38.79-3.56,1.73-3.07,3.33.41,1.37,2.71.47,4.16.54,1.74.08,3-1.07,4.25-2.12s-.68-1.62-.33-2.5l.5-1.26c3.13-.37,5.93,1.35,9.07,1.37,2.67,0,4.95.4,6.64-2.48,1.49-2.54,4.28-3,7.14-2.81,1.9.16,1.72,1.47,1.64,2.76a13.56,13.56,0,0,1-7.7,4.13c-1.37.26-1.92,1.17-1.44,2.34s1.57.66,2.3.2C199.78,143.56,202.34,141.61,203.85,138.6Zm-86.67,16.8c-6,2.42-11,5.47-14.54,10.35-3,4.17-2.26,8.76-.54,13.22.81,2.11,2.25,2,3.83.65a18.1,18.1,0,0,0,4.11-5.7A113.36,113.36,0,0,0,117.18,155.4Zm1.59-21a15,15,0,0,0-2.16,1,14.63,14.63,0,0,0-5.71,7.37c-.27.7-1.16,1.4-.61,2.06a2,2,0,0,0,2.53.08,20.38,20.38,0,0,0,8.25-7.26C122.11,135.94,121.07,134.32,118.77,134.38Zm105.62-26c-4.7,6.13-9.4,12.29-12.1,19.65A172.67,172.67,0,0,0,224.39,108.33Zm-81.95,33.86c-3.29-.59-5.59-.12-7.58,1.54-.41.34-.94.68-.69,1.31.33.83,1,.23,1.33.09C137.63,144.29,139.72,143.36,142.44,142.19Zm54.35-1.91c1.7-.4,3.14-.58,4.17-2.1A3.82,3.82,0,0,0,196.79,140.28Z"/><path class="cls-1" d="M299.75,131.91a73.86,73.86,0,0,1-9.26,7.16,11.35,11.35,0,0,1-4,1.61,2.57,2.57,0,0,1-2.81-1.19c-.47-.72.44-2.43-.69-2.18-1.71.39-3.62-.33-5.2,1.05a16.71,16.71,0,0,1-7.83,3.95c-4.64.93-7.51-1.09-7.53-5.82,0-1.71.28-3.42.48-5.72a98.76,98.76,0,0,1-10.57,9.93,67.46,67.46,0,0,1-5.8,4c-1.53.92-3.49,1.23-4.88.08s-.71-3.08-.05-4.56a26.59,26.59,0,0,1,8.48-10.44,6.59,6.59,0,0,1,5.19-1c2.46.35,2.1,2.31,2.17,4.61,3.25-3.29,6.22-6.27,8-10.12a91.45,91.45,0,0,1,18.31-26.78,7.37,7.37,0,0,1,1.41-1.27,1.72,1.72,0,0,1,1.28-.13c.67.22.54.88.44,1.39a12.19,12.19,0,0,1-1.94,3.86,280.8,280.8,0,0,1-16.69,23.46c-3.36,4.39-4,9.65-3.19,15.1,2.33-5.34,6.77-6.71,11.95-6.8,1.61,0,3,.48,3.57,2,.51,1.31,1,1.3,2.19.79a11.26,11.26,0,0,0,4.07-3,26.32,26.32,0,0,1,2.74-2.64,1.24,1.24,0,0,1,1.73-.07,1.21,1.21,0,0,1,.15,1.72,12.67,12.67,0,0,1-1.44,1.94c-.57.58-1.28,1-1.9,1.55-1.27,1.06-2.79,2.77-1.93,3.94s2.55-.59,3.72-1.32c5.87-3.67,10.33-8.78,14.22-14.41.54-.78.92-1.81,2-1.37,1.26.54.42,1.57.1,2.31-2.2,5-4.45,9.87-6.73,14.91a2.28,2.28,0,0,0,2.28-.07c5.84-3.07,11.72-6.06,17.5-9.23a31,31,0,0,0,10.48-9.34c.56-.8,1.13-2,2.3-1.1s0,1.64-.45,2.32c-3.94,5.56-9.38,9.24-15.41,12.17-5.3,2.58-10.55,5.22-15.61,8.26a12.85,12.85,0,0,0-5,5.79c-6.81,13.89-13.29,28-20.62,41.58a7.8,7.8,0,0,1-2,2.45c-1.88,1.5-3.17,1.33-3.48-1-.95-7.12-1.36-14.28.34-21.35,1.9-7.85,7.37-13.16,13.33-18,2.45-2,4.92-4.17,7.75-5.48C296.71,142.67,297.68,137,299.75,131.91Zm-6,14.36a69.85,69.85,0,0,0-16.33,13c-8,8.94-6.77,19.68-5.93,30.34,0,0,.13.09.71.49C280.06,175.84,286.39,160.83,293.71,146.27Zm-38.61-13c-.15-.8.58-1.87-.51-2.44a2.68,2.68,0,0,0-2.8.49,23.77,23.77,0,0,0-8.16,9.61c-.36.75-.84,1.63-.16,2.26s1.58,0,2.23-.41a58.92,58.92,0,0,0,7.66-5.6C254.7,136.15,255.49,135.07,255.1,133.31ZM278,134.43c-4-.27-7.27.44-9.68,3.37a1.83,1.83,0,0,0-.49,2c.43.8,1.36.57,2,.35C272.87,139,275.8,137.68,278,134.43Zm-3.85-21.66,4.42-6.44A15,15,0,0,0,274.18,112.77Z"/><path class="cls-1" d="M78.44,69.14c1.82-1.34,2.3-3,3-4.55.37-.81.59-2,1.75-1.62s.78,1.66.45,2.59a16.51,16.51,0,0,1-4.09,6.33A5.23,5.23,0,0,0,77.87,76c0,4.19.14,8.32,1.66,12.3C80.25,90.16,81,92,83,92.94a7,7,0,0,0,4.28.36c2.35-.37.67-2.19.86-3.28a19.73,19.73,0,0,1,5.36-10.45,2.77,2.77,0,0,1,3.25-.66,2.25,2.25,0,0,1,1.41,2.37c.09,2.9,1.66,4.54,4.73,4.89a15,15,0,0,0,7.21-.86c.72-.28,1.54-1.12,2.09,0s-.22,2-1.27,2.27c-3.72,1.11-7.53,1.59-11.15-.12-1.91-.91-2.39-.52-2.87,1.4-1.1,4.42-4.2,6.51-9.55,6.82s-7.65-1.08-9.54-5.74a31.69,31.69,0,0,1-2.08-14.3A105.09,105.09,0,0,1,64,81.2c-1,.4-.74,1.3-.83,2.07-.6,5.21-.7,10.49-2.14,15.58a13.22,13.22,0,0,1-.93,2.53c-1.2,2.23-2.87,2.55-4.49.65-3-3.51-5.58-7.34-9-10.54-1.76-1.67-.69-3.31,1-4.52a58.18,58.18,0,0,1,11.27-6c1.54-.67,2.23-1.37,2.16-3.11-.25-5.89.45-11.8-.64-17.66a11.38,11.38,0,0,0-1.31-3.83c-2-3.43-5.52-3.67-8-.6-1.63,2-1,3.66.51,5.28.59.64,1.68,1.24.72,2.18s-1.78,0-2.49-.69c-2.65-2.66-2.66-6.07,0-8.67,3-3,7.15-3.25,9.72-.64,3,3,3.48,6.91,3.66,10.8.2,4.36.11,8.72.07,13.08,0,1.4.35,1.87,1.71,1.17,1-.49,2-.87,3-1.33,7.75-3.62,7.68-3.63,8.4-12.1.24-2.77.54-5.62,2-8.1,1-1.73,2.46-2.7,4.53-1.63.55.28,1.11.73.9,1.49a1,1,0,0,1-1.27.79c-2.25-.56-2.55,1-2.94,2.56A27.11,27.11,0,0,0,78.44,69.14ZM61,82.57a82.36,82.36,0,0,0-11.54,5.87c-1.22.77-1.42,1.59-.21,2.53,2.92,2.26,4.77,5.42,7,8.29.41.54.59,1.57,1.44,1.42s.86-1.07,1.06-1.74C60.23,93.77,60.35,88.43,61,82.57Zm34.68-2.14c-3,3.36-5,6.46-5.33,10.63C94.16,89.25,96,85.74,95.71,80.43Z"/><path class="cls-1" d="M195.72,72.72a8.25,8.25,0,0,0-.09,5c1,2.88,2.37,4.11,5.48,4.23,1.34,0,2.71-.22,4,.37.66.29,1.06.7.91,1.44-.09.5-.54.94-.94.81-2.58-.84-5.44.18-7.94-1.28a6.19,6.19,0,0,1-3-3.05c-.71-2-1.62-1.63-3-.71-2.23,1.52-4.55,2.92-6.85,4.33a5.72,5.72,0,0,1-2.8.92c-2.42.09-3.49-1.15-2.51-3.38,2.33-5.29,6.52-8.9,11.57-11.34C193.43,68.67,195.66,70,195.72,72.72Zm-14.81,10c4.24-1.46,7.1-3.84,10.14-5.91a4.68,4.68,0,0,0,1.85-2.61c.18-.62.91-1.37.16-2a1.84,1.84,0,0,0-2.08,0C187,74.87,183.22,77.62,180.91,82.76Z"/><path class="cls-1" d="M131.92,76a2.37,2.37,0,0,1-.45.84c-4.27,3.62-6.81,8.69-10.65,12.66-2.89,3-4.81,2.65-6.4-1.21a29.49,29.49,0,0,1-1.35-4.11c-.51-2-.82-4.07-3.79-3.44a1.75,1.75,0,0,1-1.89-1.29,1.79,1.79,0,0,1,1-2.06c1.36-.95,2.15-3.19,4.13-2.62s1.29,2.76,1.68,4.25a76.26,76.26,0,0,0,2.22,8.09c.76,2,1.57,2.54,3.07.58,2.47-3.24,5-6.42,7.54-9.62a11.28,11.28,0,0,1,3.12-3C131,74.57,131.67,74.76,131.92,76Z"/><path class="cls-1" d="M133.86,83.52c-2.69-.44-2.79,1.76-2.88,3.08-.17,2.27,1.89,1.27,2.8,1.09,3.72-.76,7.13-2.47,10.57-4,.72-.32,1.39-1.13,2.05,0s-.11,1.67-.82,2c-4.19,1.86-8.3,4.11-13,4.43-3.56.23-4.77-1.59-3.7-5,.4-1.26,1.34-2.37,1-3.85-.07-.27.21-.88.42-.92,2.7-.51,4-3.31,6.56-4,.92-.26,1.75-.51,2.52.22s.61,1.56.28,2.49C138.65,82,136.67,83.52,133.86,83.52Z"/><path class="cls-1" d="M219.52,143.46c-.33.81-.32,1.86-1.57,1.85-.84,0-1-.53-1-1.23,0-1,.38-1.85,1.36-2S219.46,142.71,219.52,143.46Z"/></g></g></svg>