<svg id="Asset_9" data-name="Asset 9" xmlns="http://www.w3.org/2000/svg" viewBox="0 0 14.531 11.797">
  <defs>
    <style>
      .cls-1 {
        fill: #111;
      }
    </style>
  </defs>
  <g id="Layer_1" data-name="Layer 1" transform="translate(0 0)">
    <path id="Path_1355" data-name="Path 1355" class="cls-1" d="M14.531,1.431a5.923,5.923,0,0,1-1.71.47A3,3,0,0,0,14.131.253a6.049,6.049,0,0,1-1.9.722A2.982,2.982,0,0,0,7.08,3.014a3.014,3.014,0,0,0,.084.688A8.467,8.467,0,0,1,1.013.578a2.94,2.94,0,0,0-.4,1.5A2.97,2.97,0,0,0,1.936,4.556,2.97,2.97,0,0,1,.585,4.183v.044A2.984,2.984,0,0,0,2.97,7.144a3.045,3.045,0,0,1-.784.1A2.982,2.982,0,0,1,1.628,7.2,2.988,2.988,0,0,0,4.413,9.263a5.988,5.988,0,0,1-3.7,1.274A5.98,5.98,0,0,1,0,10.495a8.425,8.425,0,0,0,4.569,1.342,8.424,8.424,0,0,0,8.483-8.481l-.01-.386a5.953,5.953,0,0,0,1.49-1.539Z" transform="translate(0 -0.04)"/>
  </g>
</svg>
