<svg xmlns="http://www.w3.org/2000/svg" viewBox="0 0 338.53 265"><defs><style>.cls-1{fill:#1974d4;}.cls-2{fill:#fbd338;}</style></defs><title>ico_interview</title><g id="Layer_2" data-name="Layer 2"><g id="_1" data-name="1"><path class="cls-1" d="M338.45,116.19c-.41-17.94-.93-36.95-4.61-54.52-6.41-30.54-28.18-54.94-57.26-60.08C260.84-1.19,244.77.8,228.91.11c-18.37-.8-36.37,3-54.73,2.67-5.33-.1-10.67-.54-16-.09-4.67-.24-9.42,1-14.22.62-9.18-.64-17.8-1.44-27-.56-8.67.82-17.1,1.89-25.82,1.5-8-.35-16.09-1.19-24.13-.56C51.44,4.9,38,13.9,26.49,24.88,14.42,36.42,8.38,51.93,4.77,68.55.89,86.44-.25,105,0,123.29c.29,17.86,1.46,36.23,4.55,53.81,2.54,14.48,8.51,29.09,19.35,38.54l1.16,1c-.29,2.16-.42,4.34-.54,6.5a2.84,2.84,0,0,0-.11.68,37.19,37.19,0,0,1-1.22,7.57,68,68,0,0,1-4.05,11.31c-1.59,3.4-3.12,6.8-5.66,9.48-1.79,1.89-3.42,3.38-4.5,5.65A2.66,2.66,0,0,0,8.09,261a2,2,0,0,0,1.62,2C30.4,267.84,52,264.12,69,250.12a75.27,75.27,0,0,0,11.5-11.82,30,30,0,0,0,4.44-.09c11.6.37,23.25-.24,34.82-.07,18.47.26,36.64,4.22,55.08,5a113.47,113.47,0,0,0,26.44-2.35c9.37-1.78,18.76-1.61,28.23-1.47a255.28,255.28,0,0,0,53.19-5.25c13.53-2.67,22.42-12.27,30.74-23.51A121.1,121.1,0,0,0,333,170.69C337.86,153.08,338.87,134.47,338.45,116.19ZM145.09,146l3,0c2.25,0,4.5-.08,6.75-.14,0,0,0,.08,0,.12-2.16.11-4.31.21-6.47.29C147.26,146.21,146.18,146.12,145.09,146ZM57.61,170.36l.63.8.15.19c-.44-.09-.87-.18-1.3-.29C57.27,170.84,57.45,170.6,57.61,170.36Zm20.07,35,1.5,0q.6.32,1.23.6h0C79.49,205.81,78.59,205.58,77.68,205.36ZM292.49,50.79q-.09.28-.15.57c-.21-.4-.41-.79-.63-1.17ZM309.93,178l-.05-.07.28-.38Zm11.69-38.23c.27-.8.52-1.6.77-2.4-.17,1-.34,2-.52,3C321.79,140.18,321.71,140,321.62,139.8ZM283.51,21c-1.83-.92-3.68-1.77-5.56-2.5q2.35.81,4.7,1.69A8.24,8.24,0,0,0,283.51,21ZM29.92,252.25h0Zm255.81-32.34c0,.09,0,.19.09.28l-1.63.67C284.71,220.55,285.22,220.23,285.73,219.91Zm28.92-24.19h-.1c.63-1.24,1.25-2.5,1.85-3.76-.49,1.29-1,2.55-1.64,3.78Zm16-89.24c.06-.6.12-1.2.17-1.8l0,1.63ZM56.27,10.88v0l.22-.07Zm-30.11,249a2,2,0,0,0,0,.24h-.45Zm84.52-26.75h0a2.28,2.28,0,0,0,.47.23c-1.08,0-2.15,0-3.23,0C108.84,233.26,109.76,233.19,110.68,233.15Zm10.75.25c1.71.13,3.42.27,5.13.44-1.76-.09-3.53-.16-5.29-.23A1.92,1.92,0,0,0,121.43,233.4Z"/><path class="cls-2" d="M60.55,106.55c-2.22-1-5.44.15-7.51.75a18.21,18.21,0,0,0-10.29,7.43c-5.14,7.74-1.93,18.15,5,23.59,6.64,5.2,16.32,6.87,23.25,1.36,6.58-5.24,10.35-15.11,6.69-23.13C74.81,110.2,67.5,106.53,60.55,106.55Zm-4,21.21.18.44a2.41,2.41,0,0,1-.4-.58Zm8,3.8,0,0A4.34,4.34,0,0,1,62.84,133,8,8,0,0,0,64.52,131.56Zm-3.4-11.81c-.09-.11-.19-.21-.29-.31a6.74,6.74,0,0,1,.75.17c.24.07.48.16.72.25A11.49,11.49,0,0,0,61.12,119.75ZM70,125.69a10.94,10.94,0,0,0-.44-1.75,9.82,9.82,0,0,1,.62,1.9Zm4.3-2c0,.12,0,.25,0,.38l-.09-.3A.22.22,0,0,0,74.31,123.65Z"/><path class="cls-2" d="M119.91,107a9.94,9.94,0,0,0-5.28-1,15.76,15.76,0,0,0-10,3.27c-6.93,5.36-8.23,16.69-4.93,24.36A18.81,18.81,0,0,0,122,143.88a15.69,15.69,0,0,0,9.85-9.62,20.33,20.33,0,0,0,2.51-8.28,17.89,17.89,0,0,0-5-14.69A16.67,16.67,0,0,0,119.91,107Zm-17,26.8,0,.08a16,16,0,0,1-1-2.36C102.16,132.26,102.52,133,102.9,133.77Z"/><path class="cls-2" d="M188.56,113c-2.78-4-7.78-6-12.46-6.58a19,19,0,0,0-4.1-.11c-9.07-.85-17.58,7.48-18.38,16.25a19.48,19.48,0,0,0,3.6,13.36c2.89,3.78,7.84,5.75,12.39,6.63,10.42,2,20-4.12,22-14.74A19.79,19.79,0,0,0,188.56,113Zm-15.93,17.66a5,5,0,0,1-1.8.18A10.87,10.87,0,0,0,172.63,130.61Zm10.48-1.88c.1-.29.18-.59.26-.9l.14-.12C183.39,128.06,183.26,128.4,183.11,128.73Zm-10.77,11.38,0,0-.38,0Zm9.23-2.07c.41-.31.81-.64,1.18-1a16.14,16.14,0,0,0,2.58-2.23A15.59,15.59,0,0,1,181.57,138Z"/><path class="cls-2" d="M223.1,105.87c-8.39,2.7-13.15,12.13-12.58,20.52.6,8.83,8.35,14.87,16.67,16.27,8.7,1.47,18.56-3.18,20.81-12.19a18.18,18.18,0,0,0-1.44-12.61c-.95-1.93-2.28-5.09-4.5-6.06C237.39,106.65,229.76,103.73,223.1,105.87Zm6.23,23.25a2.28,2.28,0,0,1-.7.09l.45-.16ZM221,127.94a4.42,4.42,0,0,1-.11-2.23h0A8.25,8.25,0,0,0,221,127.94ZM231,119.48a7.12,7.12,0,0,1,.67.36c.22.14.43.29.63.44a3.08,3.08,0,0,0-.43,0A9.48,9.48,0,0,0,231,119.48Zm-9.73-1.8a9,9,0,0,1,1.82-.82,11,11,0,0,0-1.59.85Zm-1.19-4.43-.28.13.31-.23Z"/><path class="cls-2" d="M267.16,124.13a10,10,0,0,0-.27,5.36A15.8,15.8,0,0,0,271.5,139c6.25,6.13,17.65,5.88,24.8,1.56A18.8,18.8,0,0,0,303.44,117a15.69,15.69,0,0,0-10.86-8.45A20.57,20.57,0,0,0,284,107.2a18,18,0,0,0-13.88,6.93A16.74,16.74,0,0,0,267.16,124.13ZM296,137.32l.08,0a15.91,15.91,0,0,1-2.19,1.35C294.63,138.27,295.34,137.81,296,137.32Z"/></g></g></svg>