<svg id="Asset_10" data-name="Asset 10" xmlns="http://www.w3.org/2000/svg" viewBox="0 0 14.242 14.241">
  <defs>
    <style>
      .cls-1 {
        fill: #111;
      }
    </style>
  </defs>
  <g id="Layer_1" data-name="Layer 1">
    <path id="Path_1346" data-name="Path 1346" class="cls-1" d="M10.312,0H3.93A3.939,3.939,0,0,0,0,3.93v6.381a3.939,3.939,0,0,0,3.93,3.93h6.382a3.939,3.939,0,0,0,3.93-3.93V3.93A3.939,3.939,0,0,0,10.312,0Zm2.667,10.312a2.668,2.668,0,0,1-2.667,2.667H3.93a2.67,2.67,0,0,1-2.667-2.667V3.93A2.671,2.671,0,0,1,3.93,1.264h6.382A2.67,2.67,0,0,1,12.978,3.93Z"/>
    <path id="Path_1347" data-name="Path 1347" class="cls-1" d="M26.45,22.78a3.67,3.67,0,1,0,3.67,3.67A3.67,3.67,0,0,0,26.45,22.78Zm0,6.075a2.406,2.406,0,1,1,2.406-2.406,2.406,2.406,0,0,1-2.406,2.406Z" transform="translate(-19.329 -19.329)"/>
    <path id="Path_1348" data-name="Path 1348" class="cls-1" d="M67.257,15.71a.926.926,0,1,0,.656.271A.927.927,0,0,0,67.257,15.71Z" transform="translate(-56.312 -13.33)"/>
  </g>
</svg>
