<svg xmlns="http://www.w3.org/2000/svg" viewBox="0 0 20.695 19.598">
  <defs>
    <style>
      .cls-1 {
        fill: #fff;
      }

      .cls-2 {
        fill: #f298ce;
      }

      .cls-3 {
        fill: none;
      }

      .cls-4 {
        fill: #26bf59;
      }

      .cls-5 {
        fill: #0b71d7;
      }

      .cls-6 {
        fill: #f4564e;
      }

      .cls-7 {
        fill: #fcd41b;
      }
    </style>
  </defs>
  <g id="bird" transform="translate(0)">
    <g id="Layer_1" data-name="Layer 1" transform="translate(0 0)">
      <path id="Path_862" data-name="Path 862" class="cls-1" d="M20.836,26.1a6.091,6.091,0,0,0-2.673-4.531l-.111-.069a6.673,6.673,0,0,0-5.187-.63l-.04.017c-.9.281-1.826.7-3.951,2.925l-.252.258A25.419,25.419,0,0,0,4.974,28.9v.017c-.078.118-.151.233-.21.34-.048.076-.092.149-.136.21l-.5.755.839.329c.287.115,1.876.776,4.9,2.386a8.558,8.558,0,0,0,4.082,1.049h0a8.66,8.66,0,0,0,2.433-.349.378.378,0,0,1,.081-.017,1.826,1.826,0,0,0,.3-.067C17.585,33.28,21.656,31.69,20.836,26.1Z" transform="translate(-3.263 -16.283)"/>
      <path id="Path_863" data-name="Path 863" class="cls-2" d="M9.179,48c.206-.669.739-1.246.529-2a6.91,6.91,0,0,0-.5-.934.81.81,0,0,1,.1-.976c.12-.092.3-.189.258-.334a.29.29,0,0,0-.09-.111c-.3-.254-.606-.5-.928-.718a.667.667,0,0,0-.21-.109.273.273,0,0,0-.267.09A28.331,28.331,0,0,0,5.3,46.837l-.015.023c-.086.13-.162.252-.233.367l-.153.239a.363.363,0,0,0-.05.191c.015.071.157.132.157.132a46.046,46.046,0,0,1,4.453,2.1c-.42-.21-.4-1.419-.306-1.8Z" transform="translate(-3.832 -33.826)"/>
      <path id="Path_864" data-name="Path 864" class="cls-3" d="M65.372,82.75c-.183.078-.332.128-.432.162A4.475,4.475,0,0,0,65.372,82.75Z" transform="translate(-51.313 -65.385)"/>
      <path id="Path_865" data-name="Path 865" class="cls-3" d="M78.5,70.758a5.876,5.876,0,0,0,.688-.988h0A5.876,5.876,0,0,1,78.5,70.758Z" transform="translate(-62.027 -55.129)"/>
      <path id="Path_866" data-name="Path 866" class="cls-3" d="M4.983,68.086,4.79,68Z" transform="translate(-3.785 -53.73)"/>
      <path id="Path_867" data-name="Path 867" class="cls-3" d="M2.05,64.993h0l.334-.523Z" transform="translate(-1.62 -50.941)"/>
      <path id="Path_868" data-name="Path 868" class="cls-3" d="M18.063,21.492l-.088-.048a6.7,6.7,0,0,0-5.036-.588l-.061.025c-.907.281-1.836.705-4.065,3.034l-.281.285a27.051,27.051,0,0,0-3.886,5.137l-.015.023c-.086.13-.162.252-.233.365l-.153.241-.145.225.25.1c.329.132,2.08.86,5.4,2.623a8.711,8.711,0,0,0,4.159,1.062,8.814,8.814,0,0,0,2.485-.357,1.225,1.225,0,0,1,.17-.036,1.387,1.387,0,0,0,.225-.05,6.065,6.065,0,0,0,3.33-2.7,7.259,7.259,0,0,0,.7-4.757A6.08,6.08,0,0,0,18.063,21.492Z" transform="translate(-3.24 -16.281)"/>
      <path id="Path_869" data-name="Path 869" class="cls-1" d="M18.146,23.828a6.606,6.606,0,0,0-2.9-4.921l-.12-.076a7.239,7.239,0,0,0-5.637-.682l-.042.017c-.978.306-1.983.772-4.291,3.179l-.275.281a27.417,27.417,0,0,0-3.96,5.246v.017c-.084.128-.162.254-.235.369s-.1.162-.149.235L0,28.3l.907.357c.313.126,2.04.839,5.328,2.592a9.29,9.29,0,0,0,4.432,1.131h0A9.39,9.39,0,0,0,13.311,32l.088-.017a1.966,1.966,0,0,0,.321-.073C14.614,31.626,19.035,29.9,18.146,23.828Zm-1.259,4.839a6.065,6.065,0,0,1-3.341,2.7,1.387,1.387,0,0,1-.225.05,1.225,1.225,0,0,0-.17.036,8.814,8.814,0,0,1-2.485.357,8.711,8.711,0,0,1-4.161-1.062c-3.316-1.763-5.066-2.491-5.4-2.623l-.25-.1.145-.225.153-.241c.071-.113.147-.235.233-.365l.015-.023a27.009,27.009,0,0,1,3.878-5.137l.281-.285c2.229-2.329,3.158-2.753,4.065-3.034l.061-.025a6.694,6.694,0,0,1,5.036.588l.088.048a6.021,6.021,0,0,1,2.751,4.587,7.232,7.232,0,0,1-.69,4.757Z" transform="translate(0 -14.112)"/>
      <path id="Path_870" data-name="Path 870" class="cls-4" d="M46.515,57.069a3.3,3.3,0,0,0-.046-.539,1.42,1.42,0,0,0-.4-.919,1.2,1.2,0,0,0-.483-.178,1.544,1.544,0,0,0-.862.1,2.243,2.243,0,0,0-.585.332,1,1,0,0,0-.42.606,2.457,2.457,0,0,0,.353,1.358,9,9,0,0,0,.839,1.372c.279.395.386.527.667.894.01.017.04,0,.04-.025a1.859,1.859,0,0,1,.227-.739,8.3,8.3,0,0,0,.63-1.773A3.233,3.233,0,0,0,46.515,57.069Z" transform="translate(-34.53 -43.783)"/>
      <path id="Path_871" data-name="Path 871" class="cls-5" d="M50.64,31.52a5.6,5.6,0,0,1-3.332-5.053,6.28,6.28,0,0,1,.04-.932,6.436,6.436,0,0,1,1.2-3.045c.061-.084.126-.185.09-.281a.3.3,0,0,0-.166-.145,6.086,6.086,0,0,0-1.165-.42.252.252,0,0,0-.246.027.258.258,0,0,0-.046.2c.05,1.979-1.509,3.567-2.751,4.845a4.155,4.155,0,0,0-.737,1.026,3.593,3.593,0,0,0-.39,1.555h.015a2.193,2.193,0,0,1,1.068-.827,3.1,3.1,0,0,1,.993-.1c.722.09,1.068.821,1.127,1.547a4.7,4.7,0,0,1-.5,2.466,6.755,6.755,0,0,0-.277.718c-.042.122-.08.243-.122.365a.508.508,0,0,0-.046.336,1.068,1.068,0,0,0,.143.252l.193.287a.661.661,0,0,0,.21.246.7.7,0,0,0,.409.05,5.888,5.888,0,0,0,4.407-2.676.294.294,0,0,0-.115-.432Z" transform="translate(-34.087 -17.087)"/>
      <path id="Path_872" data-name="Path 872" class="cls-6" d="M75.074,38.33a2.2,2.2,0,0,0,1.442.86h.034a.122.122,0,0,0,.136-.111,7.4,7.4,0,0,0-.89-4.3.126.126,0,0,0-.193-.019,3.173,3.173,0,0,0-.949,2.48A2.216,2.216,0,0,0,75.074,38.33Z" transform="translate(-58.976 -27.439)"/>
      <path id="Path_873" data-name="Path 873" class="cls-7" d="M66.482,31.179a2.793,2.793,0,0,1-.434-2.464,4.421,4.421,0,0,1,1.11-1.679.122.122,0,0,0,.015-.151,5.456,5.456,0,0,0-1.406-1.4c-.21-.141-.34.08-.481.3a6.045,6.045,0,0,0-.709,5.714,5.192,5.192,0,0,0,2.575,2.732.569.569,0,0,0,.776-.279,5.817,5.817,0,0,0,.409-1.595.12.12,0,0,0-.1-.132A2.8,2.8,0,0,1,66.482,31.179Z" transform="translate(-50.689 -20.101)"/>
      <path id="Path_874" data-name="Path 874" class="cls-7" d="M25.907,32.236c-.319-.189-.264-.611-.21-.919a1.815,1.815,0,0,0-.674-1.815,1.4,1.4,0,0,0-.68-.332c-.1,0-.267.21-.338.281q-.189.176-.378.359c-.285.277-.56.562-.839.839l-.281.285c-.2.2-.348.348-.51.523s-.042.329.1.451c.187.166.382.321.579.476A14.329,14.329,0,0,0,25.1,34.064c.193.1.388.21.585.306a.613.613,0,0,0,.26.084c.141,0,.21-.12.258-.235.086-.191.145-.386.241-.573a5.456,5.456,0,0,1,.432-.692c.082-.111.166-.21.252-.325a3.335,3.335,0,0,0,.269-.292c0-.029-.159-.015-.172-.015a6.22,6.22,0,0,1-.63.046A1.469,1.469,0,0,1,25.907,32.236Z" transform="translate(-17.32 -23.049)"/>
      <path id="Path_875" data-name="Path 875" class="cls-2" d="M40.006,22.7a3.891,3.891,0,0,0,.409-1.219,2.361,2.361,0,0,0,.029-.787c-.042-.21-.231-.3-.42-.34a5.041,5.041,0,0,0-1.918.055,6.766,6.766,0,0,0-1.578.47,5.336,5.336,0,0,0-1.339.925.082.082,0,0,0,.025.136c.12.044.271.109.34.139a1.765,1.765,0,0,1,.978,1.2,1.817,1.817,0,0,1,.021.774c-.046.254-.2.489-.04.737a.5.5,0,0,0,.441.21c.271,0,.543-.01.814-.021a.673.673,0,0,0,.539-.132A10.109,10.109,0,0,0,40.006,22.7Z" transform="translate(-27.785 -16.029)"/>
      <path id="Path_876" data-name="Path 876" class="cls-6" d="M32.114,55.6c-.443-.569-.93-1.1-1.335-1.7a6.745,6.745,0,0,1-.867-1.819,4.207,4.207,0,0,1-.185-1.515.338.338,0,0,0-.013-.145.277.277,0,0,0-.088-.1,2.91,2.91,0,0,0-.581-.308A6.873,6.873,0,0,1,27.2,48.849a.246.246,0,0,0-.3-.013c-.21.143-.39.237-.386.51,0,.5.548.839.669,1.309.164.642-.392,1.314-.581,1.949a2.611,2.611,0,0,0,0,1.309,4.755,4.755,0,0,0,.21.651,1.49,1.49,0,0,0,.1.275.749.749,0,0,0,.25.18,8.925,8.925,0,0,0,3.987,1.213c.162,0,.323.015.485.015h.185C32.244,56.239,32.385,55.946,32.114,55.6Z" transform="translate(-20.955 -38.553)"/>
      <path id="Path_877" data-name="Path 877" class="cls-1" d="M16.255,31.791a5.776,5.776,0,0,0-3.148-3.926,6,6,0,0,0-4.335-.21.54.54,0,0,0-.086.04,14.377,14.377,0,0,0-3.96,2.776l-.015.015a1.123,1.123,0,0,0-.122.157c-.178.178-.35.361-.518.546A15.738,15.738,0,0,0,1.855,34.27l-.046.08c-.134.229-.25.42-.355.581L.9,35.77l.94.34c.155.061,1.586.63,4.356,2.029a10.912,10.912,0,0,0,4.755,1.167H11.1a5.217,5.217,0,0,0,.653-.042,5.387,5.387,0,0,0,.68-.128.482.482,0,0,1,.076-.015,2.729,2.729,0,0,0,.273-.061,5.844,5.844,0,0,0,2.7-1.817A5.731,5.731,0,0,0,16.255,31.791Zm-1.226,5.087a5.246,5.246,0,0,1-2.415,1.633,2,2,0,0,1-.2.044.57.57,0,0,0-.13.025,4.707,4.707,0,0,1-1.081.149h-.241a10.379,10.379,0,0,1-4.505-1.1C3.731,36.24,2.31,35.671,2.052,35.568L1.8,35.474l.136-.225c.113-.17.233-.374.371-.609l.05-.088a15.281,15.281,0,0,1,2.134-2.982c.17-.187.344-.371.523-.55l.044-.055a.594.594,0,0,1,.067-.09,13.962,13.962,0,0,1,3.792-2.663L8.95,28.2l.044-.015a5.5,5.5,0,0,1,3.888.2,5.252,5.252,0,0,1,2.827,3.567A5.185,5.185,0,0,1,15.029,36.878Z" transform="translate(-0.711 -21.609)"/>
      <path id="Path_878" data-name="Path 878" class="cls-1" d="M18.8,33.787a5.282,5.282,0,0,0-2.881-3.595,5.558,5.558,0,0,0-3.975-.21l-.092.036a13.251,13.251,0,0,0-3.63,2.545l-.013.015a.839.839,0,0,0-.111.145c-.164.162-.321.329-.476.5a14.448,14.448,0,0,0-2.025,2.846l-.042.073c-.122.21-.229.388-.323.531l-.508.76.86.315c.143.055,1.454.575,3.987,1.861a10.022,10.022,0,0,0,4.367,1.077h.132a4.745,4.745,0,0,0,.6-.038,4.9,4.9,0,0,0,.629-.117.363.363,0,0,1,.067-.015,2.225,2.225,0,0,0,.252-.057A5.353,5.353,0,0,0,18.081,38.8,5.289,5.289,0,0,0,18.8,33.787Z" transform="translate(-3.73 -23.477)"/>
      <path id="Path_879" data-name="Path 879" class="cls-4" d="M30.418,33.512a9.723,9.723,0,0,0-.764-1.427c-.149-.231-.308-.453-.476-.669a1.437,1.437,0,0,0-.25-.3c-.128-.086-.21-.015-.344.027l-.036.015a14.568,14.568,0,0,0-2.78,1.777c-.073.059.082.086.174.094.439.042.94.073,1.351.122.581.069,1.068.109,1.679.189.434.055.865.185,1.295.222C30.351,33.579,30.448,33.579,30.418,33.512Z" transform="translate(-20.346 -24.556)"/>
      <path id="Path_880" data-name="Path 880" class="cls-7" d="M46.47,32.427c.21-.042.434-.057.651-.094.18-.031.189-.136.09-.287a3.852,3.852,0,0,0-1.859-1.513,5.343,5.343,0,0,0-1.914-.46c-.178-.008-1.437-.059-1.437.187a.3.3,0,0,0,.1.183,7.2,7.2,0,0,1,1.181,1.834.923.923,0,0,0,.279.42,1.238,1.238,0,0,0,.569.1,3.778,3.778,0,0,0,.883,0c.487-.073.949-.246,1.431-.344Z" transform="translate(-33.186 -23.754)"/>
      <path id="Path_881" data-name="Path 881" class="cls-5" d="M20.479,61.786a3.579,3.579,0,0,1-.8-.5,2.1,2.1,0,0,1-.336-.724.934.934,0,0,0-1.209-.63.923.923,0,0,0-.311.086c-.262.147-.151.409-.052.63a6.062,6.062,0,0,0,.4.659,3.227,3.227,0,0,1,.42,1.5c.4.193.63.308,1.108.552a8.092,8.092,0,0,0,1.861.7,7.326,7.326,0,0,0-.39-1.286,1.975,1.975,0,0,0-.667-.965Z" transform="translate(-13.959 -47.334)"/>
      <path id="Path_882" data-name="Path 882" class="cls-7" d="M13.9,55.054a11.855,11.855,0,0,1-1.517-2.021,17.432,17.432,0,0,0-1.926-2.308C9.706,50,8.86,49.386,8.079,48.7a.168.168,0,0,0-.237.013,13.8,13.8,0,0,0-1.259,1.654c-.189.279-.361.577-.539.881-.055.1-.38.839-.489.839,0,0-.088.13-.067.193s.174.128.174.128c1.049.388,2.075.911,3.091,1.4a2.371,2.371,0,0,0-.323-1.316c-.231-.39-.919-1.131-.269-1.5a1.221,1.221,0,0,1,.386-.122,1.469,1.469,0,0,1,.854.048c.611.273.485,1.068.98,1.44a3.95,3.95,0,0,0,.512.287,1.918,1.918,0,0,1,.911,1.148,12.213,12.213,0,0,1,.39,1.446.113.113,0,0,0,.019.046.115.115,0,0,0,.063.034,9.056,9.056,0,0,0,1.049.17,6.613,6.613,0,0,0,1.135.067c.027,0-.092-.107-.1-.111C14.209,55.314,14.05,55.188,13.9,55.054Z" transform="translate(-4.334 -38.445)"/>
      <path id="Path_883" data-name="Path 883" class="cls-2" d="M52.567,44.953a2.4,2.4,0,0,1,.027.839,1.511,1.511,0,0,0,.5,1.163,1.111,1.111,0,0,0,1.523-.178,2,2,0,0,0,.4-1.4,7.29,7.29,0,0,0-.3-2,6.031,6.031,0,0,0-.5-1.316.564.564,0,0,0-.139-.174c-.21-.155-.644-.034-.879.017-.338.071-.667.18-1,.275a4.7,4.7,0,0,1-1.889.118.067.067,0,0,0-.069.09c.061.162.1.225.155.4a12.149,12.149,0,0,1,.4,1.658.069.069,0,0,0,.021.048.063.063,0,0,0,.044,0,4.25,4.25,0,0,1,1.154.01.787.787,0,0,1,.516.371.407.407,0,0,1,.031.08Z" transform="translate(-39.697 -33.034)"/>
      <path id="Path_884" data-name="Path 884" class="cls-4" d="M56.657,57.741a1.578,1.578,0,0,1-.449.34,1.308,1.308,0,0,1-1.679-.873,2.831,2.831,0,0,1-.107-1.011,1.018,1.018,0,0,0-.061-.491.726.726,0,0,0-.617-.336,2.852,2.852,0,0,0-.854.065,4.624,4.624,0,0,0-.044,1.259c.059.663.29,1.005.367,1.773a8.947,8.947,0,0,1,.013.919c0,.3.082.6.073.9,0,.1-.057.365.063.42.088.042.229-.04.313-.063a5.246,5.246,0,0,0,2.415-1.633,3.912,3.912,0,0,0,.8-1.5C56.9,57.452,56.743,57.651,56.657,57.741Z" transform="translate(-41.741 -43.744)"/>
      <path id="Path_885" data-name="Path 885" class="cls-5" d="M39.246,44.068a2.216,2.216,0,0,1-.839,1.857.191.191,0,0,0-.09.183c.021.2.191.174.376.26a2.283,2.283,0,0,1,.94.89,2.636,2.636,0,0,0,.548.726,1.228,1.228,0,0,0,1.144.248,6.69,6.69,0,0,1-.231-1.6,6.864,6.864,0,0,0-.115-1.486c-.122-.512-.178-.959-.342-1.469a.353.353,0,0,0-.327-.21c-.172-.021-.344-.038-.514-.067a3.053,3.053,0,0,0-.5-.052c-.052-.015-.055.08-.05.134A4.593,4.593,0,0,1,39.246,44.068Z" transform="translate(-30.275 -34.247)"/>
      <path id="Path_886" data-name="Path 886" class="cls-6" d="M25.55,46.835a.35.35,0,0,0-.21-.086,3.308,3.308,0,0,0-.353.021,1.2,1.2,0,0,1-.99-.56c-.455-.655-.747-1.274-1.54-1.58a.369.369,0,0,1-.264-.508,1.341,1.341,0,0,1,.311-.353,2.8,2.8,0,0,0,.64-2.136.174.174,0,0,0-.189-.21c-.967-.147-1.939-.292-2.915-.361a1.217,1.217,0,0,0-.5.04,1.194,1.194,0,0,0-.382.281c-.294.285-.575.583-.839.89a.17.17,0,0,0-.057.115.174.174,0,0,0,.052.088A16.977,16.977,0,0,0,19.662,43.6,17.036,17.036,0,0,1,23.1,47.381a6.02,6.02,0,0,0,.865,1.242c.361.329.692.592,1.049.883a.069.069,0,0,0,.048.019,4.116,4.116,0,0,0,.6-.055c.21-.031.078-.886.071-1.028l-.052-1.278A.487.487,0,0,0,25.55,46.835Z" transform="translate(-14.428 -32.437)"/>
      <path id="Path_887" data-name="Path 887" class="cls-1" d="M26.988,40.226A3.933,3.933,0,0,0,24.275,39h-.262a4.648,4.648,0,0,0-2.573,1.181,6.43,6.43,0,0,0-.764.766l-.015.019a9.193,9.193,0,0,0-1.807,3.987c-.027.136-.05.269-.073.4-.348,1.889-.554,3.194-.63,3.956l-.031.319.308-.086c.246-.065,1.53-.4,4.031-.839a9.456,9.456,0,0,0,2.98-1.1,8.348,8.348,0,0,0,1.889-1.385l.013-.013a5.062,5.062,0,0,0,1.079-2.153A4.015,4.015,0,0,0,26.988,40.226Z" transform="translate(-14.318 -30.816)"/>
      <path id="Path_888" data-name="Path 888" class="cls-1" d="M24.844,44.039a8.366,8.366,0,0,1-1.889,1.387,9.483,9.483,0,0,1-2.971,1.1c-2.5.436-3.777.772-4.029.839l-.311.088.031-.321c.071-.762.275-2.059.63-3.956.025-.13.048-.262.073-.4a11.037,11.037,0,0,1,1.807-3.987l.017-.019a5.356,5.356,0,0,1,3.337-1.947H21.8a3.91,3.91,0,0,1,2.711,1.219,4.087,4.087,0,0,1,.35,5.979Zm.065-6.419a4.341,4.341,0,0,0-3.414-1.364,5.8,5.8,0,0,0-3.746,2.166,11.593,11.593,0,0,0-1.935,4.254c-.034.18-.067.357-.1.529-.336,1.842-.535,3.114-.6,3.874L15,48.234l1.127-.317c.229-.061,1.49-.39,3.966-.823a10.146,10.146,0,0,0,3.479-1.354,8.5,8.5,0,0,0,1.679-1.3l.034-.036A4.7,4.7,0,0,0,24.909,37.62Z" transform="translate(-11.852 -28.636)"/>
      <path id="Path_889" data-name="Path 889" class="cls-7" d="M29.845,74.573a2.305,2.305,0,0,0-.867-.682,2.482,2.482,0,0,0-.98-.027c-.3.027-.59-.038-.886-.017a.067.067,0,0,0-.059.09.684.684,0,0,0,.294.3,2.638,2.638,0,0,1,.42.342,2.547,2.547,0,0,1,.724,1.735c0,.031,0,.09.034.092a3.077,3.077,0,0,0,.569-.1c.21-.029.42-.067.63-.111.26-.055.52-.12.779-.2.084-.025.648-.139.5-.292l-1.032-1.016C29.923,74.653,29.885,74.613,29.845,74.573Z" transform="translate(-21.374 -58.335)"/>
      <path id="Path_890" data-name="Path 890" class="cls-5" d="M25.213,71.374A9.216,9.216,0,0,0,22.6,69.588a4.747,4.747,0,0,0-1.874-.367c-.42-.015-.963-.042-1.431-.015h-.348a.21.21,0,0,0-.189.168c-.243,1.328-.47,2.657-.619,3.987a.082.082,0,0,0,.1.086c.961-.25,1.933-.449,2.906-.646.113-.023-.076-.615-.09-.667a2.854,2.854,0,0,0-.6-1.091c-.172-.2-.523-.353-.7-.583s-.065-.42.21-.443c.35-.023.615-.057.993-.071a2.736,2.736,0,0,1,1.207.1,2.925,2.925,0,0,1,.839.7,14.2,14.2,0,0,1,1.259,1.226A.092.092,0,0,0,24.3,72a.1.1,0,0,0,.073-.013q.434-.191.856-.42a.128.128,0,0,0,.061-.055c.015-.042-.021-.084-.055-.115Z" transform="translate(-14.332 -54.674)"/>
      <path id="Path_891" data-name="Path 891" class="cls-5" d="M56.477,58.549a6.587,6.587,0,0,0-1.068-.63,3.439,3.439,0,0,0-1.194-.42c-.023,0-.05,0-.059.021a.042.042,0,0,0,0,.031,3.467,3.467,0,0,1,.107,1c0,.47-.344,1.011-.21,1.488.076.252.355.39.552.567l.525.466c.055.048.124.1.2.08a.187.187,0,0,0,.08-.055,4.65,4.65,0,0,0,1.259-2.008A.42.42,0,0,0,56.477,58.549Z" transform="translate(-42.685 -45.434)"/>
      <path id="Path_892" data-name="Path 892" class="cls-4" d="M43.688,60.177a.839.839,0,0,1-.21-.516,2.367,2.367,0,0,1,.124-.69A3.358,3.358,0,0,0,43.744,58a2.594,2.594,0,0,0-.059-.476c-.046-.21-.084-.353-.321-.34a7.135,7.135,0,0,0-1.427.21c-.21.055-.432.126-.651.18-.134.034-.374.059-.334.254.048.239.109.541.147.785a6.318,6.318,0,0,1,0,.869c0,.248-.052.42.17.6a1.678,1.678,0,0,0,.3.176,14.791,14.791,0,0,1,1.807,1.412.653.653,0,0,0,.191.1.535.535,0,0,0,.42-.094,7.088,7.088,0,0,0,.6-.407.21.21,0,0,0,.086-.1.2.2,0,0,0-.052-.168C44.374,60.715,43.944,60.486,43.688,60.177Z" transform="translate(-32.356 -45.186)"/>
      <path id="Path_893" data-name="Path 893" class="cls-4" d="M24.377,48.116c.332-.2.64-.436.976-.63l.718-.407c.094-.055.439-.157.42-.308a.176.176,0,0,0-.034-.069c-.21-.306-.39-.768-.588-1.083-.151-.239-.17-.59-.371-.478a1.905,1.905,0,0,0-.466.5,8.778,8.778,0,0,0-.567.772,8.663,8.663,0,0,0-.965,2A1.507,1.507,0,0,0,24.377,48.116Z" transform="translate(-18.569 -35.651)"/>
      <path id="Path_894" data-name="Path 894" class="cls-2" d="M25.475,56.547a12.157,12.157,0,0,0-.388-1.744.308.308,0,0,0-.063-.132c-.21-.229-.856.35-1.037.46-.392.237-.764.5-1.156.741a1.947,1.947,0,0,1-1.028.262,8.035,8.035,0,0,0-.3,1.167c-.027.164-.031.176,0,.2a10.649,10.649,0,0,0,1.211,0,10.263,10.263,0,0,1,1.469.042,5.584,5.584,0,0,1,.722.126c.134.034.476.225.585.084a.4.4,0,0,0,.052-.256A8.312,8.312,0,0,0,25.475,56.547Z" transform="translate(-16.976 -43.156)"/>
      <path id="Path_895" data-name="Path 895" class="cls-6" d="M38.113,42.28a1.846,1.846,0,0,1-.462-1.259,2.361,2.361,0,0,1,.355-.722,1.259,1.259,0,0,0,.162-.51,1.663,1.663,0,0,0,0-.271,1.956,1.956,0,0,0-.019-.294.25.25,0,0,0-.059-.126.21.21,0,0,0-.113-.055A2.867,2.867,0,0,0,37.5,39h-.42a2.253,2.253,0,0,0-.325.04l-.162.031a.84.84,0,0,1-.155.038,4.035,4.035,0,0,0-1.156.52,5.037,5.037,0,0,0-.51.363c-.21.166.183.816.262.984.111.229.21.348.327.579a3.567,3.567,0,0,1,.277.592c.094.254.128.525.21.781.076.21.241.1.395.042.187-.067.376-.126.564-.176a6.452,6.452,0,0,1,.839-.159,3.123,3.123,0,0,1,.581-.067.05.05,0,0,0,.044-.08A2.234,2.234,0,0,1,38.113,42.28Z" transform="translate(-27.426 -30.816)"/>
      <path id="Path_896" data-name="Path 896" class="cls-2" d="M52.179,40.776a6.022,6.022,0,0,0-.873-.653,2.868,2.868,0,0,0-.5-.258c-.055-.019-.231-.09-.353-.13-.052-.015-.088.092-.078.145a1.843,1.843,0,0,1,.044.523c-.019.42-.35.789-.42,1.207-.1.59.355,1.125.718,1.547.115.136.3.111.46.136a4.812,4.812,0,0,1,.592.132,4.726,4.726,0,0,1,1.494.772c.111.084.281.317.365.113a1.379,1.379,0,0,0,.027-.483,3.548,3.548,0,0,0-.1-.995,4.636,4.636,0,0,0-1.291-1.975Z" transform="translate(-39.498 -31.396)"/>
      <g id="Path_74" data-name="Path 74" transform="translate(8.092 0.279)">
        <path id="Path_897" data-name="Path 897" class="cls-1" d="M42.779,9.608A4.653,4.653,0,0,1,39.617,8.44a3.965,3.965,0,0,1-1.049-3.123h0A3.921,3.921,0,0,1,42.8,1.33h0A1.435,1.435,0,0,1,43,1.345h.067a6.9,6.9,0,0,1,4.151,1.777c1.842,1.628,2.77,2.289,2.778,2.308l.575.4-.554.42c-.107.082-.222.174-.35.279A13.088,13.088,0,0,1,46.8,8.36h0l-.044.034a9.208,9.208,0,0,1-3.815,1.2A.949.949,0,0,1,42.779,9.608Z" transform="translate(-38.562 -1.33)"/>
      </g>
      <path id="Path_898" data-name="Path 898" class="cls-1" d="M49.609,4.149l-.052-.04c-.928-.7-1.985-1.605-2.709-2.245A7.183,7.183,0,0,0,42.508.015h-.044A1.838,1.838,0,0,0,42.254,0a6.4,6.4,0,0,0-1,.082,4.132,4.132,0,0,0-3.523,4.17,4.2,4.2,0,0,0,1.121,3.343,4.992,4.992,0,0,0,3.358,1.259h.042a1.159,1.159,0,0,0,.17-.013,9.3,9.3,0,0,0,3.939-1.259l.038-.029c.227-.107.451-.21.672-.34A13.349,13.349,0,0,0,49.284,5.7l.344-.273L50.5,4.77ZM46.042,7.11a8.933,8.933,0,0,1-3.668,1.15h-.021a.533.533,0,0,1-.115,0h-.013a4.4,4.4,0,0,1-2.961-1.085,3.662,3.662,0,0,1-.953-2.9A3.525,3.525,0,0,1,41.278.661a5.7,5.7,0,0,1,.969-.086.875.875,0,0,1,.147.013h.111a6.573,6.573,0,0,1,3.96,1.706c.734.644,1.8,1.565,2.745,2.275l.319.222-.241.183c-.109.082-.225.176-.361.285a12.723,12.723,0,0,1-2.224,1.5c-.189.1-.38.2-.573.29Z" transform="translate(-29.804 0)"/>
      <path id="Path_899" data-name="Path 899" class="cls-7" d="M43.208,17.406a.334.334,0,0,0-.275-.013,3.358,3.358,0,0,1-.783.21,1.849,1.849,0,0,1-.743-.061.978.978,0,0,1-.705-.755,5.934,5.934,0,0,1-.073-.669c0-.065-.023-.237-.04-.189a3.511,3.511,0,0,0-.128.934,3.655,3.655,0,0,0,.946,2.9c.124.124.455.514.655.42a1.347,1.347,0,0,0,.222-.21c.13-.109.287-.18.42-.3a1.049,1.049,0,0,0,.256-.407c.113-.327.1-.63.441-.812a1.412,1.412,0,0,0,.353-.212.057.057,0,0,0,.021-.038.059.059,0,0,0-.015-.04c-.086-.134-.185-.26-.273-.392S43.346,17.479,43.208,17.406Z" transform="translate(-31.964 -12.579)"/>
      <path id="Path_900" data-name="Path 900" class="cls-2" d="M46.034,6.111a1.215,1.215,0,0,0-.283-.159,2.438,2.438,0,0,1-.839-.724,1.949,1.949,0,0,1-.281-1.085l-.008-.491c0-.149-.071-.367-.267-.323a3.4,3.4,0,0,0-1.9,1.005,2.415,2.415,0,0,0-.52,2.138,1.145,1.145,0,0,0,1.049.986c.382-.01.709-.269,1.091-.281a.789.789,0,0,1,.63.382c.065.084.357.665.491.457a11.448,11.448,0,0,0,.881-1.738A.141.141,0,0,0,46.034,6.111Z" transform="translate(-33.08 -2.625)"/>
      <path id="Path_901" data-name="Path 901" class="cls-5" d="M51.9,19.962a1.838,1.838,0,0,1-.08-.51.949.949,0,0,1,.334-.753.867.867,0,0,1,.378-.17,2.883,2.883,0,0,1,.93-.019,4.019,4.019,0,0,0,.839.126.34.34,0,0,0,.092-.015c.021-.017-.023-.111-.034-.136a1.855,1.855,0,0,0-.856-.858,5.743,5.743,0,0,0-.63-.329,1.679,1.679,0,0,0-.63-.187c-.141,0-.294.577-.42.8l-.481.967a.953.953,0,0,1-.42.485c-.174.084-.4.132-.512.306-.243.357-.285.865-.625,1.221-.109.118-.592.392-.449.464a5.064,5.064,0,0,0,3.324.252.065.065,0,0,0,.044-.019c.019-.021,0-.052,0-.08A11.292,11.292,0,0,1,51.9,19.962Z" transform="translate(-38.967 -13.52)"/>
      <path id="Path_902" data-name="Path 902" class="cls-4" d="M65.651,25.95c-.162-.185-.371-.323-.537-.506s-.21-.506-.42-.7a.229.229,0,0,0-.057-.044.644.644,0,0,0-.246,0,2.054,2.054,0,0,1-.279-.017A4.063,4.063,0,0,0,62.7,24.6a.936.936,0,0,0-.447.21c-.3.3-.18.827-.021,1.165a12.86,12.86,0,0,0,.783,1.347.159.159,0,0,0,.038.046c.09.078.382-.052.485-.082.2-.057.392-.122.583-.193a7.693,7.693,0,0,0,.99-.481l.491-.285c.076-.044.174-.073.166-.18a.29.29,0,0,0-.076-.162Z" transform="translate(-49.041 -19.407)"/>
      <path id="Path_903" data-name="Path 903" class="cls-7" d="M60.869,6.649A6.143,6.143,0,0,1,59.526,5.41a2.906,2.906,0,0,1-.29-1.912.151.151,0,0,0-.084-.151A5.181,5.181,0,0,0,56.9,2.762H56.79a.892.892,0,0,0-.149-.013,5.456,5.456,0,0,0-.558.025.256.256,0,0,0-.235.252,3.566,3.566,0,0,0,.01.615A2.713,2.713,0,0,0,56,4.349a2.017,2.017,0,0,0,1.3,1.163,5.765,5.765,0,0,1,1.6.665,3.737,3.737,0,0,1,1.049,1.15,3.122,3.122,0,0,1,.134.3,2.46,2.46,0,0,0,.115.3.949.949,0,0,0,.229.248,3.891,3.891,0,0,1,.42.363c.063.071.229.361.353.294.086-.046.292-.168.42-.246s.235-.138.365-.225a.153.153,0,0,0,.055-.185c-.046-.1-.086-.21-.132-.3A3.635,3.635,0,0,0,60.869,6.649Z" transform="translate(-44.122 -2.173)"/>
      <path id="Path_904" data-name="Path 904" class="cls-6" d="M77.166,9.831h0c-.944-.718-1.838-1.557-2.566-2.2a5.979,5.979,0,0,0-1.211-.869.086.086,0,0,0-.126.069,2.243,2.243,0,0,0,.277,1.654A4.848,4.848,0,0,0,74.73,9.6a4.2,4.2,0,0,1,1.177,1.27c.048.094.1.21.157.313a.084.084,0,0,0,.126.031,9.789,9.789,0,0,0,.787-.617c.136-.109.164-.134.273-.21,0,0,.187-.134.187-.229C77.441,9.992,77.2,9.849,77.166,9.831Z" transform="translate(-57.86 -5.336)"/>
    </g>
  </g>
</svg>
