<svg xmlns="http://www.w3.org/2000/svg" viewBox="0 0 248 324.05"><defs><style>.cls-1{fill:#1974d4;}.cls-2{fill:#ee99cd;}.cls-3{fill:#61be5f;}</style></defs><title>ico_lifestyle</title><g id="Layer_2" data-name="Layer 2"><g id="clr"><path class="cls-1" d="M230.12,204.68c-.31-5.85-1.83-11.59-2-17.46-.19-6.49,0-13,0-19.51q0-8.94.2-17.86c.11-5,1-10.18.49-15.12a3.11,3.11,0,0,0-1.86-2.39l-.09,0h0a2.12,2.12,0,0,0-2.08.27c-5.72,3.91-11.75,7.4-18.51,9.26-6.09,1.67-12.22,2.35-18.4,3.54a153.79,153.79,0,0,1-22.94,2.26c-6.92.3-13.89,1.44-20.77,2.18a2.59,2.59,0,0,0-1.54.69,50.79,50.79,0,0,0-11.87-.13c-5.63-.52-11.35-.26-17-.87-6.95-.74-14.08-.55-21-1.55-7.1-1-14.06-4.08-21.1-5.61-4.25-.92-9.08-1-13-3.05-2.9-1.52-4.6-4.65-7.32-6.1a6.1,6.1,0,0,0-.8-2.65c-1.34-2.24-4.46-1.13-4.66,1.26-.5,6.15-.4,12.51-.33,18.77,0,1.53,0,3.08,0,4.62,0,2.36-.17,4.72-.33,7.07a31.28,31.28,0,0,1-.5,4.09c-.58,3-.88,2-2.92.33-9-7.58-24-6.86-31.52,2.3-4.19,5.09-6.18,9.65-7.7,16.05C1.11,191.58-.7,198.8.27,205.54c.86,5.92,4.32,10.15,7.55,15a29.41,29.41,0,0,0,5.44,6.37c2.48,2.05,5.94,3,8.8,4.4,6.54,3.23,14.88,7.26,19,13.51a29.13,29.13,0,0,1,4.09,11.24c.5,3.4,1.55,9,.8,12.31a2.45,2.45,0,0,0,1.6,2.91,58.08,58.08,0,0,0-.27,7.87,14.78,14.78,0,0,0,.32,2.06c-.07,7.72,5.74,11.53,10.22,17.34,3.36,4.36,7.86,8.38,13.06,10.25,2.84,1,5.78,1.75,8.6,2.84,3.17,1.22,6.13,2.91,9.31,4.18A147,147,0,0,0,114.46,323c8.18,1.65,16.33,1,24.61.8,4.57-.12,9.17-.41,13.73-.45,4.84,0,8.68-1.05,13.43-1.79,7.51-1.17,15-1.34,22-4.45A68.45,68.45,0,0,0,206,305.74c3.56-3.12,6.38-7,9.89-10.2,3-2.77,5.61-5.46,7.15-9.33a69.32,69.32,0,0,0,4.75-23.27c.65-3.85.12-7.89.66-11.8.65-4.76.66-9.39,1-14.17.32-5.06,1-10.06,1.29-15.11C231.08,216.14,230.43,210.39,230.12,204.68ZM60,168.67v.07h0Zm68.57,19.49c0-.21,0-.35.09-.36S128.72,187.94,128.6,188.16Zm-74.67,67.4a3.47,3.47,0,0,0-.25.29c0-.27,0-.53,0-.8C53.79,255.22,53.86,255.39,53.93,255.56ZM201.82,156h-.07l.12,0ZM48.15,232.9c0,.92,0,1.83,0,2.75a1.88,1.88,0,0,0-.18-.12C48.06,234.65,48.11,233.78,48.15,232.9Zm-33.87-34c.84-5.55,3.42-13.13,7.32-17.17,4.13-4.3,9.81-5.18,15.42-3.75,8.46,2.17,7.95,10.15,7.88,17.31-.06,6,.38,12.2,0,18.16-.16,2.07-.22,4.37-.38,6.68a2.13,2.13,0,0,0-.23,2s0,.1,0,.15a29.81,29.81,0,0,1-.94,5.09,19.28,19.28,0,0,0-2.12-1.63c-2.08-1.34-4.28-1.48-6.57-2.23-5.56-1.8-11.21-6.13-15.24-10.27C15.73,209.45,13.48,204.18,14.28,198.88Zm59.28-46.59a2.87,2.87,0,0,0-.5-.07s0,0,0,0l.57.06Zm-18.17-4.71h0Zm-4-7.93a.45.45,0,0,0,0-.11l.1.1Zm94.85,179.13v0h.67l-.54,0Z"/><path class="cls-1" d="M245.86,23.61c.52-1.73,2.95-2.2,1.86-5.1-1.19-3.18-5.14-3.12-7.93-3.61-4-.71-8.35-1.94-12.49-2.4a2.13,2.13,0,0,0-1.59-.59,2.49,2.49,0,0,0-.94.23,7.84,7.84,0,0,0-3-.86,2,2,0,0,0-2.14,1.26c-1.32.51-2.22,1.75-2.21,4.12,0,2.58.89,2.29-.94,3.95-.69.62-1.56.8-2.12,1.68-1.4,2.22.14,3.27.36,5.22.27,2.5-.11,1.25-1.81,2.22A4.08,4.08,0,0,0,211.3,31c-1.7,2.21.86,4.65-.3,6.5-.17.27-1.7.54-2.11.84A4.48,4.48,0,0,0,207.26,41c-.31,1.88,1.41,3.54,1.88,5.21a4.6,4.6,0,0,0-2.92,2,2.52,2.52,0,0,0,0,2.52c1.51,2.89,4.22,2.91,7.1,3.24a80.09,80.09,0,0,1,14,2.64c2.76.86,6.9,2.61,9.09-.35a3.33,3.33,0,0,0,.52-2.94,4.16,4.16,0,0,0-.74-1.47l-.61-.59-.05,0a10.81,10.81,0,0,0,2.46-.7,6,6,0,0,0,2.39-3.17c.31-1.42-.76-2.46-.89-3.65-.35-3.14,1.29-2.53,2.85-4.3,1.11-1.25.88-2.23.94-3.72s-.49-.88-.05-3.16c.52-2.7.72-1.26,1.46-2.85a8.66,8.66,0,0,0,.51-1.38,3.18,3.18,0,0,0,.73-.83C246.74,26.05,245.51,24.76,245.86,23.61ZM241.5,20.2a.21.21,0,0,0,0,.06l-.33-.18.47,0Zm-9.34,27,0,0h.08s0,0-.08,0Zm1.93-.63a2.43,2.43,0,0,0,.53-.58A1.32,1.32,0,0,1,234.09,46.6Z"/><path class="cls-1" d="M91.14,16.14c-1.8-1.85-3.14-4.9-4.81-6.89a41.14,41.14,0,0,0-5.94-6.08C75.84-.48,73.87-.54,68.36.8c-4.5,1.09-7.61,1-8.28,6.53-.44,3.57.18,7.2.65,10.82a17.25,17.25,0,0,0,.52,6.08,2.42,2.42,0,0,0,.89,1.26,2.46,2.46,0,0,0,4.15,1.23C67,26,68.93,25.44,69.85,25a37.76,37.76,0,0,1,6.42-2.29,41.36,41.36,0,0,1,11.31-1.85,2.5,2.5,0,0,0,1.24-.31A2.45,2.45,0,0,0,92.15,19l0-.14A2.34,2.34,0,0,0,91.14,16.14Z"/><path class="cls-2" d="M71,112.74c-3.88.26-7.91,2.36-11.23,4.27a39,39,0,0,0-4.66,3.45c-1.39,1.1-3.19,2-4.13,3.52a2.3,2.3,0,0,0,1.07,3.4,12.28,12.28,0,0,0,3.14,4.54,21,21,0,0,0,11.78,5.5s.07,0,.11,0a2.51,2.51,0,0,0,3.63-2.18c0-3.17.87-6.36,1.38-9.47.46-2.84.77-5.53,1-8.35a2.46,2.46,0,0,0,.15-1.4C73.72,114.52,73,112.61,71,112.74ZM57.66,127v.08l0,0Z"/><path class="cls-2" d="M171.08,106.79l-.15,0a2.57,2.57,0,0,0-1.45.17,1.93,1.93,0,0,0-.56-.17l-.94-.17a2.27,2.27,0,0,0-1.64-.57c-2.32,0-4.28-1-6.55-1.23-.35,0-.69-.07-1-.1-5.9-1.29-11.84-2.51-17.82-2.44a2.31,2.31,0,0,0-1.86.87,2.15,2.15,0,0,0-1.7,3,38.26,38.26,0,0,1,2.37,9.46,36.09,36.09,0,0,0,.95,6.68,42,42,0,0,0,4,8.58c2,3.54,2.44,6.42,2.45,10.5a2.26,2.26,0,0,0,1.27,2.12,2.19,2.19,0,0,0,1.21,1,2.52,2.52,0,0,0,.28.44l.1.14a2.42,2.42,0,0,0,3,.4c2.2-.39,4.47-.45,6.68-.66a2.89,2.89,0,0,0,.29,0,2,2,0,0,0,2.52-1.19c1.23-2.63,1.77-5.5,2.91-8.19a72.55,72.55,0,0,0,3.15-8.68c1.56-5.62,3.31-11.05,4.34-16.81C173,108.65,172.51,107,171.08,106.79Zm-12.56,32.92.12,0a.69.69,0,0,0,0,.13h-.13ZM147.83,126.1a16.16,16.16,0,0,1,1.19,2.1C148.63,127.5,148.23,126.8,147.83,126.1Z"/><path class="cls-2" d="M224.81,123.8a9.39,9.39,0,0,0-2.31-1.88,2.59,2.59,0,0,0-.6-.44l-.06-.08c-.34-.29-.66-.6-1-.89l-.09-.11c-1-1.26-1.52-2.94-3.27-3.31h0A28.78,28.78,0,0,0,212,113a21.21,21.21,0,0,0-11.61-3.51,2.43,2.43,0,0,0-1.34.38,2.19,2.19,0,0,0-2.21,1.78c-1.43,5.88-2.84,11.61-5.72,17-1.48,2.73-3.07,5.6-4.32,8.47a2.4,2.4,0,0,0-.51,2.48,2.66,2.66,0,0,0,3.9,2.27c7.63-1.33,15.14-3.94,22.36-6.65a35.42,35.42,0,0,0,7.36-3.49c1.48-1,4.4-2,4.85-4a2.22,2.22,0,0,0,.06-.43A2.57,2.57,0,0,0,224.81,123.8Zm-31.37,12.27-.2.05a2.72,2.72,0,0,1,.11-.25Z"/><path class="cls-3" d="M136.7,121.1c-1.53-5.44-1.49-11.09-2.76-16.56a54.11,54.11,0,0,0-4.16-11.3c-.82-4.26-1.53-8.55-2.54-12.78a125.93,125.93,0,0,0-3.81-13.2c-.92-2.54-2.2-6-4.29-7.94-1.15-2.85-2.33-5.68-3.44-8.54a63.92,63.92,0,0,0-4.78-9.45C109,38.11,108.05,35,105.6,32c-.17-.21-.35-.41-.53-.62a14.64,14.64,0,0,0-3-4.68c-2-2-4.94-2.62-8-2.56a14.55,14.55,0,0,0-5.15-.05c-4.53.74-9.19,1.16-13.45,2.95A61,61,0,0,0,69,29.82a10,10,0,0,0-2.86,1.31,16.78,16.78,0,0,0-4.9,6.65c-1.16,3.12.07,7,.46,10.17,1.71,14.28,5.85,28.24,10.45,41.82,2.73,8,4.52,15.46,4.52,24,0,4-.1,8-.28,12A31,31,0,0,1,75,132.84a2.1,2.1,0,0,0-1,2c0,.25.09.7.13,1.14-.12.5-.23,1-.32,1.52A2.81,2.81,0,0,0,77,140.69a5.16,5.16,0,0,0,2.25.83,78.84,78.84,0,0,1,7.83,1.62,60.52,60.52,0,0,0,16.86,3c6.16.1,12.24-.52,18.43,0,6.38.49,12.16,1.61,18.55.49a2.08,2.08,0,0,0,1.31-.78,2.6,2.6,0,0,0,1.59-1.5c1.62-3.9-.12-7.5-1.86-10.94A67.3,67.3,0,0,1,136.7,121.1ZM98.78,124c0-.09,0-.18,0-.28a16.28,16.28,0,0,0,1.67.69ZM97.56,69.88l-.3-2.35c.17.76.33,1.53.49,2.29Zm19.33,2.2s0-.07,0-.11a.49.49,0,0,1,0,.11ZM89.6,130.16c0-.18,0-.36,0-.54a5.77,5.77,0,0,0,.27.56Zm-8,2.61v.11l-.1,0Zm49.31-8.33-.09-.54c.18.53.35,1.06.53,1.59C131.16,125.14,131,124.79,130.86,124.44ZM79.3,136.08l0,.14-.07,0A.44.44,0,0,1,79.3,136.08Zm55.93,6.09a3.15,3.15,0,0,0,.41-.48c.09.15.17.31.27.45C135.68,142.15,135.46,142.17,135.23,142.17Z"/><path class="cls-3" d="M222.41,4.5c-4.6.06-8.64-1.71-13.35-1a2,2,0,0,0-1.74,2.65A2.51,2.51,0,0,0,207,7.93c.05.23-2,4.19-2.54,5.59a64.19,64.19,0,0,0-2.38,9.26C201,28,199.59,33.21,198.57,38.5a135.63,135.63,0,0,1-3.74,16.31c-1.88,5.89-3,11.87-4.73,17.79-3.54,12.24-10.89,23.08-13.35,35.72-.67,3.42-.45,7.23-1.88,10.45a49,49,0,0,0-2.73,6c-1.41,4.72-1.77,10.5-5,14.44a2.67,2.67,0,0,0,2.28,4.34,2.47,2.47,0,0,0,1.09.2,20.73,20.73,0,0,0,5-.93,22.61,22.61,0,0,1,4.36-.94,2.68,2.68,0,0,0,2.14-3.84,50.66,50.66,0,0,0,3.08-6.45,86,86,0,0,0,4.34-11.46c1.88-6.21,4-12.24,5.87-18.4.7-2,1.4-3.93,2.09-5.9,2.55-7.2,5.44-14.3,7.84-21.55.78-2.36,1.39-4.76,2.19-7.11.55-1.61,1.73-3.62,1.86-5.31a4.85,4.85,0,0,0-.34-2.07c.71-1.32.41-3.11-1.45-3.43-8.66-1.5-4.36-9.79-2.75-14.91a57.11,57.11,0,0,1,2.48-6c1.14-2.57,0-5.1,1.63-7.65A12.23,12.23,0,0,0,210.88,24c.28-1,.1-2.12.73-3.09s1.81-1.22,2.39-2.08c1.23-1.79.48-2.46.46-4.35-.05-4.57,4-4.93,7.95-4.93C225.62,9.46,225.63,4.51,222.41,4.5ZM191.22,84.31l-.13,0c.12-.27.23-.55.34-.83Zm17.72-68.06c.09-.26.18-.53.28-.79C209.26,16,209.32,15.87,208.94,16.25Z"/></g></g></svg>