<svg xmlns="http://www.w3.org/2000/svg" viewBox="0 0 316.58 341"><defs><style>.cls-1{fill:#ea5552;}.cls-2{fill:#61be5f;}.cls-3{fill:#1974d4;}.cls-4{fill:#fbd338;}</style></defs><title>ico_study</title><g id="Layer_2" data-name="Layer 2"><g id="clr"><path class="cls-1" d="M294.07,76.24c-.64-1.82-2.2-3.12-3.72-4.49-1.55-2-3.06-3.94-4.47-6-2.69-4-5.51-7.92-8.51-11.67-1.47-1.84-3.3-3.28-4.86-5-2.19-2.43-3.55-5.7-5.06-8.57-.86-1.64-1.72-4.11-3.14-5.75a0,0,0,0,0,0,0c-1.49-3.3-5.3-3.16-7.66-.94-4.15,3.91-7.77,10.48-10.52,15.43-1.24,2.22-2.59,4.33-4,6.46l-.06,0c-7.9,6.7-12.68,16.77-18.28,25.28-3.39,5.16-8.3,9-12.06,13.88-4.47,5.81-10.08,10.71-14.74,16.44-8,9.9-14.76,20.57-22.18,31-3.71,5.21-8.07,10-12,15s-7.9,9.91-11.09,15.52c-3.47,6.1-8.19,11.49-12.71,16.81-2.53,3-4.64,6.24-7.09,9.27-1.87,2.33-4.54,4-5.67,6.84a2.67,2.67,0,0,0,1.41,3.11,2.54,2.54,0,0,0,1.11.57c1.59.37,3,2.35,4.29,3.32,1.64,1.24,3.41,2.13,5.15,3.21a103.28,103.28,0,0,1,8.75,6.36c3.05,2.37,6.36,4.37,9.12,7.11,2.58,2.57,4.62,5.67,7.29,8.16,1.52,1.42,4.68,3.72,6.84,3.88,3.09.22,4.75-3.52,6.33-5.53,2.75-3.52,6-6.59,8.77-10.15,2.39-3.11,3.93-6.86,6.15-10.1,2.41-3.5,5.59-6.32,8.09-9.71,3.15-4.25,6.53-8.45,9.52-12.8,2.48-3.59,5.2-7.07,7.76-10.62,3.17-4.39,5.85-9.11,9-13.49,5.73-7.93,12.14-15.08,17.83-23,2.68-3.74,6.28-6.76,9-10.46a81.86,81.86,0,0,0,5.13-8.52c.31-.35.63-.69,1-1,5.73-6.35,10.11-13.93,15.72-20.42.72-.83,1.41-1.68,2.09-2.53.42-.43.83-.84,1.24-1.28,3.94-4.24,7.13-9.12,11.1-13.36,2.44-2.61,6.58-5.18,7.17-9A2.84,2.84,0,0,0,294.07,76.24Zm-33.5-19.33c-.25.06-.51.14-.78.23l.58-.58C260.44,56.68,260.5,56.8,260.57,56.91Zm-24,28c-.55.94-1.13,1.86-1.74,2.72Zm-4.25,7.15-1.21,1.33c.46-.69.91-1.38,1.36-2.07A4.62,4.62,0,0,0,232.27,92.07Z"/><path class="cls-2" d="M238.76,20.66c-3.46-1.66-6.58-4.11-9.95-6-4-2.24-8.24-4.32-12.14-6.8-4.9-3.12-11.2-6.44-17.2-7.51A5.8,5.8,0,0,0,196.53,0a2.68,2.68,0,0,0-2.35,1.69c-4.63,2.47-7.25,8.43-9.89,12.51-4.12,6.4-9.74,12.68-15,18.12-1.72,1.76-3.89,2.88-5.56,4.68-2.68,2.89-5.1,6.2-7.48,9.33s-4.09,6.41-6.53,9.32-5.33,5.68-7.64,8.8c-1.91,2.58-3.89,5-5.58,7.73-2.35,3.8-5.18,6.46-7.95,9.87-3.87,4.77-7,10.34-10.41,15.46-1.91,2.91-4,5.67-6,8.5-2.43,3.32-4.24,7.11-6.79,10.32-5,6.32-11.36,11.64-16.12,18.16-2.53,3.46-5,6.89-7.75,10.23-3,3.74-6.31,8.64-10.39,11.34-1.67,1.11-1.56,4.12.24,4.8a5.67,5.67,0,0,0,1.31,2.25c2.07,2.45,4,5,6,7.51,4.39,5.33,10.63,9.27,15.64,14,4.64,4.38,9,8.56,14,12.45.83.64,1.86,1,2.68,1.65,1.48,1.14,2.22,2.95,3.66,4a5.33,5.33,0,0,0,5.95.19c4.14-2.35,7.34-8.15,10.44-11.7a70.57,70.57,0,0,0,5.24-7.36c2.12-3.18,4.84-5.82,6.92-9,3.74-5.78,8.22-11,12.28-16.59,2.41-3.29,5-6.46,7.44-9.69s4-6.91,6.21-10.22c2.38-3.49,5.09-6.73,7.55-10.15,2.76-3.85,6.65-6.68,9.86-10.15a70.94,70.94,0,0,0,6.8-8.73c1.77-2.67,4-5.27,5.43-8.16.68-.71,1.36-1.43,2-2.17,2.51-2.79,5.39-5.37,7.79-8.24,2.59-3.09,4.58-6.7,7.23-9.84,5.31-6.31,10.07-12.92,15.28-19.28,2.7-3.3,5.21-6.88,7.58-10.42,1.12-1.68,2.16-3.71,3.33-5.58,1-1.14,1.85-2.32,2.82-3.57a2.82,2.82,0,0,0,.18-.29q1.36-1.48,2.73-2.94c2.07-2.21,5.75-5,6.12-8.25C254.55,24.4,242.81,22.61,238.76,20.66ZM175.85,80.31c-.85,1-1.7,2-2.55,3C174.12,82.31,175,81.31,175.85,80.31Zm-71.52,86.28c-.15.31-.29.64-.42,1l-.37-.26Zm-1.93,18.84-.23-.21Zm25,2c-.41.51-.83,1-1.26,1.52ZM206.7,84c.42-.64.86-1.26,1.29-1.88l.26.1c-1.15,1.59-2.31,3.16-3.54,4.65C205.38,85.9,206.05,85,206.7,84ZM94.82,136.41l-1,1.41a94.17,94.17,0,0,1-5.86,7.4l.67-.91C90.67,141.6,92.72,139,94.82,136.41Z"/><path class="cls-3" d="M162.05,240.76c-3.71-2.82-5.83-6.84-9.84-9.62s-7.45-5.84-11.72-8.19c-4.56-2.51-8.26-5.86-12.5-8.87a137.15,137.15,0,0,0-14.78-8.85c-10.12-5.39-17.47-13.85-25.39-22-3-3.08-5.55-6.49-8.37-9.71-2.55-2.91-6.5-4.34-8.29-7.94-1.51-3.06-6.07-.38-4.57,2.67a.35.35,0,0,1,0,.08,2.36,2.36,0,0,0,0,.29,33,33,0,0,0,.51,5.05,2.73,2.73,0,0,0,0,.95c.15,1.08.27,2.16.37,3.24a23.58,23.58,0,0,0,.34,5.84c.15,5.31,0,10.66,0,15.89,0,5.69,1.23,11.31,1.36,16.94A2.83,2.83,0,0,0,70.69,219a3.4,3.4,0,0,0,.3.39c5.82,6.26,14,10.49,20.63,15.84,3,2.4,5.6,5.17,8.71,7.4,3.83,2.76,8.84,5.34,11.74,9.19a3.53,3.53,0,0,0,4.53.72c1-.82,6.46-1.08,8.12-1.42,4.21-.87,8.5-1,12.77-1.49,3.17-.38,6.31-.89,9.48-1.23,4.57-.48,9-2,13.61-2.28a2.58,2.58,0,0,0,2.36-1.73A2.71,2.71,0,0,0,162.05,240.76Zm-46.76,6.78-.1-.12.64,0Zm4.59-16.35Zm2.42-14.47.26.16Z"/><path class="cls-4" d="M104.68,250.93c-6.26-2.68-10-7.45-15.11-11.73-2.55-2.15-5.14-4.16-7.74-6.26-2.28-1.85-4-4.18-6.25-6.06a2.67,2.67,0,0,0-4.51,1.87L71,230.86h0a2.66,2.66,0,0,0,.64,1.76l.11.12a2.24,2.24,0,0,0,.84.63c.06.45.11.89.14,1.34.18,3,.17,6,.25,9a64,64,0,0,0,1.84,15,2.46,2.46,0,0,0,1.2,1.56,2.78,2.78,0,0,0,2.37.57c3.89-.89,8-.85,11.94-1.63,4.14-.83,8.78-2.41,13-2.54a2.62,2.62,0,0,0,2.54-2.88A2.09,2.09,0,0,0,104.68,250.93Z"/><path class="cls-4" d="M295.36,253.51c-9.21-1.31-18.87-.91-28.16-1.54a124.77,124.77,0,0,0-33.66,2.57c-23.26,4.79-45.36,13.72-67.44,22.21-19.86,7.64-38.95,16.37-58.21,25.41-20,9.39-41,18.58-63.2,20.74-9.26.9-19.1.89-28.07-1.88-3.7-1.14-7.94-2.95-10-6.41-2.9-4.74-.37-10.26,2.81-14.13,7.33-8.9,18.86-14.33,29.5-18.06,8.45-3,20.15-3.06,26.8-9.62,2.42-2.4-1.32-6.14-3.75-3.74-3.2,3.16-8.07,3.91-12.31,4.84A104.92,104.92,0,0,0,35.71,278c-8.59,3.17-17,7.26-24.12,13.05C5.92,295.59.05,302.07,0,309.82c0,6.24,3.91,11.08,9.24,13.89,13.38,7.06,31.28,5.68,45.56,3.07,20.7-3.79,40.13-12.64,59-21.59,19.52-9.25,39.05-17.69,59.21-25.47,21.79-8.41,43.83-17,67-21,11.66-2,22.87-1.63,34.59-.74,8.91.68,19.35-1.34,27.56,3,16.24,8.58,7.13,26.35-1.91,36.38-13.12,14.57-30,23.77-48.76,29.22-11,3.18-22.17,4.64-33.37,6.64-9,1.59-20,4.46-28.82,1-3.18-1.23-4.55,3.89-1.4,5.11,7.18,2.78,15.53,1.52,22.93.42,9.39-1.39,18.89-2.88,28.19-4.73,18.24-3.65,36.39-10,51.27-21.43,10.56-8.12,22.46-19.23,25.67-32.71C319.28,266.88,308.89,255.43,295.36,253.51Z"/></g></g></svg>