<svg id="Asset_11" data-name="Asset 11" xmlns="http://www.w3.org/2000/svg" viewBox="0 0 7.769 14.365">
  <defs>
    <style>
      .cls-1 {
        fill: #111;
      }
    </style>
  </defs>
  <g id="Layer_1" data-name="Layer 1" transform="translate(0)">
    <path id="Path_1349" data-name="Path 1349" class="cls-1" d="M7.47,0H5.61A3.271,3.271,0,0,0,2.165,3.534V5.163H.3a.3.3,0,0,0-.3.3V7.817a.3.3,0,0,0,.3.3H2.165v5.95a.3.3,0,0,0,.3.3H4.9a.3.3,0,0,0,.3-.3V8.11H7.383a.3.3,0,0,0,.3-.3V5.456A.29.29,0,0,0,7.6,5.249a.3.3,0,0,0-.208-.087h-2.2V3.782c0-.665.158-1,1.023-1H7.47a.3.3,0,0,0,.3-.3V.3A.3.3,0,0,0,7.47,0Z" transform="translate(0)"/>
  </g>
</svg>
