<svg xmlns="http://www.w3.org/2000/svg" viewBox="0 0 296.35 329.42"><defs><style>.cls-1{fill:#1974d4;}.cls-2{fill:#61be5f;}.cls-3{fill:#ea5552;}.cls-4{fill:#ee99cd;}</style></defs><title>ico_hangout</title><g id="Layer_2" data-name="Layer 2"><g id="clr"><path class="cls-1" d="M194.61,111.46a4.89,4.89,0,0,1-3.64-1.78,4.65,4.65,0,0,1-1-3.81c.86-4.7,1.53-9.94,2.12-16.5a32.41,32.41,0,0,0,0-3.94c-.13-3.47-.27-7.4,1.6-10.34a4.49,4.49,0,0,1,2.82-2,4.32,4.32,0,0,1,.78-.16A13.65,13.65,0,0,1,203,71.47a9.49,9.49,0,0,1,4.42,1.07,19.18,19.18,0,0,1,6.32,5.25,4.62,4.62,0,0,1,1.81,3.26,4.12,4.12,0,0,1-1.47,3.42c-6.87,6.09-11.78,15.86-15.84,24.54a4,4,0,0,1-3.67,2.45Z"/><path class="cls-1" d="M212.38,79.25a17.26,17.26,0,0,0-5.85-4.94c-2.77-1.44-5.76-.86-8.45.43a2.26,2.26,0,0,0-.26.16A2.31,2.31,0,0,0,197,75a2.53,2.53,0,0,0-1.63,1.15c-2.25,3.53-.94,9.42-1.29,13.39-.49,5.52-1.15,11.23-2.15,16.68-.47,2.58,3.28,4.68,4.57,1.93,4.05-8.65,9.06-18.75,16.32-25.18A2.27,2.27,0,0,0,212.38,79.25ZM198.67,92.78h.13c-.06.09-.11.18-.16.27Z"/><path class="cls-2" d="M144.58,84.33a4.77,4.77,0,0,1-3.87-2.21C135.6,74,130.32,65.53,124.29,58.06a4.6,4.6,0,0,1-.05-5.78v0a12.66,12.66,0,0,1,2.54-3.45c.3-.32.6-.64.89-1s.41-.48.63-.72a4.39,4.39,0,0,1,.73-.83,40.74,40.74,0,0,1,3.1-3.09,17.11,17.11,0,0,1,11.32-4.82h0a4.72,4.72,0,0,1,1.91.38A4.71,4.71,0,0,1,149.13,41a4.18,4.18,0,0,1,.79,2.89l-.15,1.87c-.46,5.66-.9,11-1,16.57-.05,2.9.19,5.88.42,8.77.22,2.69.44,5.47.44,8.26a4.29,4.29,0,0,1-2,3.72,4.74,4.74,0,0,1-1.34.84l-.27.11A3.76,3.76,0,0,1,144.58,84.33Z"/><path class="cls-2" d="M147.47,42.16a2.64,2.64,0,0,0-2.58-1.4,2.26,2.26,0,0,0-1.39-.39c-4,.07-7,1.68-10,4.32a39.52,39.52,0,0,0-3,3,2.16,2.16,0,0,0-.53.6c-.24.26-.47.53-.7.8-1.15,1.35-2.5,2.46-3.17,4.06l-.12.2a2.66,2.66,0,0,0-.07,3.42c6.07,7.51,11.45,16.09,16.56,24.25a2.55,2.55,0,0,0,2.83,1.15l.27-.11a2.65,2.65,0,0,0,.9-.61,2.24,2.24,0,0,0,1.23-2.1c0-5.71-1-11.36-.86-17.06.11-6.25.66-12.36,1.16-18.57A2.19,2.19,0,0,0,147.47,42.16Z"/><path class="cls-2" d="M161.21,113.17a6.21,6.21,0,0,1-5.53-3.42,7.77,7.77,0,0,1,.42-7.29,5.36,5.36,0,0,1,4.6-2.68,6.07,6.07,0,0,1,1.71.26,5.42,5.42,0,0,1,1.8.93,5.69,5.69,0,0,1,2.41,2.09,6.49,6.49,0,0,1,.44,5.71,6.33,6.33,0,0,1-5.08,4.35,4.9,4.9,0,0,1-.77,0Z"/><path class="cls-2" d="M163.15,102.7a3.46,3.46,0,0,0-1.31-.75c-4-1.19-5.83,4-4.37,6.91a4.23,4.23,0,0,0,4.25,2.28,4.34,4.34,0,0,0,3.47-3.06,4.54,4.54,0,0,0-.26-3.94A3.67,3.67,0,0,0,163.15,102.7Z"/><path class="cls-3" d="M295.64,52c-5.4-5-15.18-7.86-22.41-7.53a2.4,2.4,0,0,0-1.83.91,1.51,1.51,0,0,0-.26.18,2.75,2.75,0,0,0-1.75,2.21c-.82,1.26-1.5,2.6-2.21,3.93a27.13,27.13,0,0,0-1.24,2.65c-.14.2-.27.4-.42.59a8.37,8.37,0,0,0-1.93,3,6.14,6.14,0,0,0,0,2.34,2.8,2.8,0,0,0-.48.81c-3.43,9.43-9.45,17.85-14.28,26.55-3.15,5.65-5.5,11.53-9.17,16.89s-6.8,10.67-10.4,15.89c-3.21,4.65-5.56,10.4-9.93,14.07-3.83,3.22-8.11,5.84-12,9-8.75,7.23-9.36,19.12-12.88,29.31a2.64,2.64,0,0,0-.74,1c-2.85,7-5.7,13.93-8.89,20.79-1.39,3-2.94,6-4.15,9-1.08,2.74-1.77,7.37-3.5,9.59a2.66,2.66,0,0,0-.56,1.59,2.91,2.91,0,0,0-.39,1.28,6.17,6.17,0,0,0,0,1.29,7.69,7.69,0,0,0-.17,5c1,4,1.26,6.5-.08,10.61a44.62,44.62,0,0,1-10.81,17.3c-3.83,3.62-8.34,6.86-11.7,11a2.16,2.16,0,0,0-.77,1c-.44.61-.87,1.24-1.26,1.89-3.12,5.24-4.16,11.69-6.91,17.19a2.53,2.53,0,0,0-.24,1.61c-1.05,2.25-2.11,4.51-2.94,6.83a19.22,19.22,0,0,0-.79,2.94c-1.06,2.62-1,5.36-1.15,8.16-.16,4.56,4.57,8.77,8.52,10.71,6.14,3,12.45,5.75,18.67,8.63a181.3,181.3,0,0,0,20.52,7.56c6.15,2,13.8,2.58,19.63-.8a42.56,42.56,0,0,0,8.73-6.12c2.23-2.22,3.59-5.08,5.22-7.72,2.52-4.09,5.32-9.58,6.39-14.51a2.37,2.37,0,0,0,.77-1.34,22.25,22.25,0,0,0,2.32-4.41,100.08,100.08,0,0,0,4.42-12.22c1.43-4.65,3-9.27,4.62-13.87.86-2.23,1.68-4.48,2.48-6.74q1.77-4.69,3.62-9.34c3.26-8.07,7.28-16,9.81-24.37,2.63-8.63,7.83-16.79,9.06-25.78a2.8,2.8,0,0,0,0-.71,11.83,11.83,0,0,1,.51-1.48,30.23,30.23,0,0,0,1.21-3.16,11.87,11.87,0,0,0,.71-4.41,169.21,169.21,0,0,0,3.46-18c1.81-11.21.6-22.46,1.87-33.66.73-6.45,3-13.09,5-19.26,1.84-5.73,3.23-11.59,4.91-17.39q2.38-8.23,4.69-16.49c.77-2.73,2.31-5.18,3-7.91.75-2.92.81-5.08,2.5-7.65a1.51,1.51,0,0,0,.09-.18,2.2,2.2,0,0,0,1.35-2.19c-.11-4.51,2.55-8.72,2.6-13.17a1.06,1.06,0,0,0,0-.25A2.41,2.41,0,0,0,295.64,52ZM197.2,210.17l.44-.17c-.18.25-.35.51-.53.78C197.15,210.57,197.17,210.37,197.2,210.17Zm3.54-19.5-.49.58c0-.16.07-.32.11-.49ZM226.28,179a1,1,0,0,0,0,.17,2.67,2.67,0,0,0-.25.43l-.64-.22Zm-6,2.32c0,.11,0,.22,0,.34l-.41-.18Zm-16.08,1.7a1.6,1.6,0,0,1,.37-.12c-.3.24-.6.48-.89.74s-.69.5-1,.73A3.92,3.92,0,0,1,204.24,183.05ZM191,323.56a1.72,1.72,0,0,0,.07-.21c.61.2,1.23.39,1.84.57C192.29,323.82,191.66,323.7,191,323.56ZM263.68,164c-.14,4.36-1.3,8.68-1.94,13-.58,3.94-.28,7.5-.48,11.42a32.62,32.62,0,0,1-1.39,7c-.23.56-.48,1.1-.74,1.64a2.31,2.31,0,0,0-.86,1.72,2.37,2.37,0,0,0-.26.85c-.59.19-.88,2.26-1.26,3.33-1,2.9-2.15,5.74-3.25,8.62-1.72,4.46-3.6,8.86-5.3,13.32-3.64,9.54-6.87,19.49-9.79,29.27-.19.62-.4,1.25-.6,1.87q-1.6,4.15-3,8.33c-2,5-4.2,9.86-6.19,14.77-1.52,3.73-3.23,7.33-5,11-.38.8-.83,1.57-1.21,2.35a2.57,2.57,0,0,0-.84,1.18,2.93,2.93,0,0,0-.32,1.18c-1.82,6.18-5.14,12.38-8.22,18-1.57,2.85-4.34,6.32-7.62,7.52-2.23.82-4.59.06-6.81-.37-6.73-1.31-12.52-4.43-19.08-6.24s-13-4.62-19.7-6.49c-5.31-1.5-14.87-3-12.87-10.53,1.29-4.89,4.64-9.51,6.89-14,2-4.08,4.64-7.62,6.47-11.84.92-2.14,2.19-4.36,3.39-6.62,2.84.11,7-2.41,8.86-3.39,8.6-4.46,17.63-7.66,23.1-16.1a34.17,34.17,0,0,0,4.61-10.41c1.13-4.41.78-9.32,2.07-13.6,3-9.92,17.22-11.29,25.49-14.24,5.78-2.06,11.48-10,10-16.65,1.59-1.92-.86-9.71-.39-11.42.9-3.34,5-4,7.74-5.07,7.24-2.85,4.42-11.44,7.44-17.29.95-1.85,2.33-4.15,4.19-5.38a3.45,3.45,0,0,1,2-1.4c0-.09.07-.17.1-.26a3.13,3.13,0,0,1,1.37.54C264.74,152.74,263.83,159.48,263.68,164Zm.55-81-.16,0c.27-.49.53-1,.8-1.49l.08-.17Z"/><path class="cls-4" d="M173,217.1c-1.38-4.21-3.69-8.41-5.6-12.43a63.26,63.26,0,0,0-3.34-5.91,2.47,2.47,0,0,0-.57-2.07c-4.64-5.58-7.83-12.59-11.85-18.66-4.36-6.59-8-13.65-12-20.45-3.44-5.79-6.05-11.5-10.24-16.87a82.13,82.13,0,0,1-5.47-8.63,22.54,22.54,0,0,0-2.92-4.51,36,36,0,0,0-4.8-9.47c-4.91-7.29-6.36-15.9-10.86-23.34-4.24-7-10-13.33-17.61-16.84-4-1.85-8.48-3.42-12.06-6.06l-2-1.51c-2.91-3.13-5.11-7.23-8.17-10.23a49.12,49.12,0,0,0-4.58-6.2c-1.08-1.24-2.05-2.65-3.1-4a9.86,9.86,0,0,0-3.34-3.54c-1.74-2.31-3.6-4.55-5.17-6.95-2.29-3.49-4.42-7.1-6.67-10.61s-5.25-7-7-10.7C34.78,16.6,35,14.76,34,13.31s-2.71-2-3.88-3.23c-2.44-2.51-.57-5.77-2.79-8.32-2.53-2.91-6.7-1.52-9.82-.69C11.13,2.8,2.08,6.7.52,14.15a2.48,2.48,0,0,0,0,.27A2.36,2.36,0,0,0,.08,16.5c.68,2.7,2,4.4,2.11,7.26.07,2.24-.33,4.48,1,6.45,2,3,6.31,4.07,8.26,7.22a2.31,2.31,0,0,0-.38,2,60.27,60.27,0,0,0,8.37,18.67,2.58,2.58,0,0,0,.22,1.39c3,6.49,6,13.15,9.07,19.58,3.18,6.58,3.83,13.34,4.8,20.46a49.65,49.65,0,0,1,.57,11.8,46,46,0,0,0-.14,9.24,35.32,35.32,0,0,0,4.59,13.92,2.09,2.09,0,0,0,.35.59l.24.39a115,115,0,0,0,7,14.67c1.72,3.17,4,6,5.67,9.19,1.61,3.06,2.86,6.24,4.31,9.37,2.5,5.37,6,10.25,8.73,15.51A160.89,160.89,0,0,0,73,198.59a332.07,332.07,0,0,1,17.47,31.07c2.81,5.55,4.11,11.52,6.69,17.12,1.45,3.15,3.8,5.7,5.49,8.7a25.48,25.48,0,0,0,5,6.61,3.21,3.21,0,0,0,.5.37,20.18,20.18,0,0,0,12,5.82,2.47,2.47,0,0,0,.5.19c4.57,1.25,10.36-.53,14.75-1.88,4.74-1.46,10-3.5,13.86-6.67,7.19-5.84,14-11.16,19.92-18.4,2.77-3.4,5.42-7,5.6-11.53A35.79,35.79,0,0,0,173,217.1ZM105,114.41l.26.46-.38-.14ZM37.64,91.16c-.06-.33-.11-.65-.17-1l.24,0C37.67,90.48,37.66,90.82,37.64,91.16ZM162.52,236.82c-3.6,5.3-7.47,10.58-12.91,14.06-8.51,5.45-21,14.66-31.5,11.68-7.41-2.11-10.4-9.44-13.85-15.76-.92-1.69-2-4.68-3.67-5.68-2.21-5.46-4.12-11.08-6.77-16.23s-5.66-10.28-8.44-15.5a79.32,79.32,0,0,0-4.95-8.82,75.25,75.25,0,0,1-5.11-7.76c-5.51-10.48-12.11-20.44-16.82-31.34-2.68-6.2-6.87-11.49-9.67-17.58-1.18-2.56-2.61-5-3.85-7.54a2.48,2.48,0,0,0-.33-2.88,21.19,21.19,0,0,1-1.37-3.15,27.64,27.64,0,0,1-2.09-6.14c-.75-3.76-.16-8.48.61-12.2a46.82,46.82,0,0,0,1.29-13.1c-.34-5.06-.67-9.7,1.07-14.59,1.48-4.17,4.1-8.54,8.57-9.67C61.2,72.5,65.4,80.78,63.65,88.08c-.71,3-1.61,5.3-1.88,7.9-1.12,3.5-1.45,6.92,1.06,10.81a37.09,37.09,0,0,0,14,12.27c2.58,1.24,5.54,1.38,8.27,2.15,3.31.94,5.54,1.3,8.89.59,5.1-1.08,8.73.21,11.53,4.78,1.54,2.51,1.67,5.36,2.23,8.11-.17,2.88-.93,5.76-1,8.67,0,3.43,1.14,6.29,2.67,9.32,2.7,5.32,7.84,8.63,11.84,12.91a22.43,22.43,0,0,0,6.57,5.23,43.27,43.27,0,0,1,7.95,5.63,63.72,63.72,0,0,1,10.57,10.9,2.16,2.16,0,0,0,.39,1.69c6.41,9.25,13.19,18.92,16.78,29.66C165.87,225.53,166.78,230.56,162.52,236.82Z"/></g></g></svg>