<svg xmlns="http://www.w3.org/2000/svg" viewBox="0 0 282.51 320.34"><defs><style>.cls-1{fill:#ea5552;}.cls-2{fill:#61be5f;}.cls-3{fill:#ee99cd;}</style></defs><title>ico_travel</title><g id="Layer_2" data-name="Layer 2"><g id="clr"><path class="cls-1" d="M117.44,21.63a2.58,2.58,0,0,0,2.16.3l1.06-.1a2.32,2.32,0,0,0,2.62-1.11c3.94-6.47,7.66-13.61,16.23-14,7.75-.33,11.89,6.2,13.1,13.11a2.07,2.07,0,0,0,2.64,1.74l0,0,.11.05.13.06A3.4,3.4,0,0,1,156,22a2,2,0,0,0,.94.32,2.57,2.57,0,0,0,3.26-3c-1.48-5.93-2.56-11.19-7.65-15.15a14.64,14.64,0,0,0-8.84-3,2.52,2.52,0,0,0-1.07-.59c-9-2.47-16.65,2.93-21.6,10l-.11.08c-2.22,1.78-2.75,4.5-4,6.9a2.48,2.48,0,0,0-.87,1.88A2.52,2.52,0,0,0,117.44,21.63Z"/><path class="cls-1" d="M213.1,134.32c-1.31-8.8-4.86-16.94-5.9-25.86-.94-8.07-1.25-16.21-2.32-24.27-1.9-14.33-6.14-30.78-14.34-42.87l0,0c-.18-.32-.36-.64-.56-.95-1.77-2.67-6.1-.17-4.32,2.53,3.35,5.05,1.88,14,1.79,19.8a69,69,0,0,1-4.53,24.2c-5.06,13.27-12.65,31.73-28.65,34.54a2.21,2.21,0,0,0-1.36.75,2.12,2.12,0,0,0-.78,1.39c-1.53,9.21-3.87,18.64-3.81,28,0,2.85.44,5.67.37,8.52,0,1.43,0,3.57-.82,4.82-1.55,2.25-4.44,1.15-6.67.73-4-.76-9.67-.34-11-5.14-1.13-4,.19-8.79,1.36-12.68,2-6.48,4.14-14.17,2.11-20.94a2.57,2.57,0,0,0-.54-1,2.05,2.05,0,0,0-2.27-1.44c-7.5.6-16.37-2.41-22.66-6.31-7.94-4.94-10.38-14.16-12-22.86A291.92,291.92,0,0,1,92,66.16,113,113,0,0,1,91.88,52c.31-4.26.78-8.53.73-12.76a.59.59,0,0,0,.06-.14l.77-.85c2.13-2.39-1.39-5.94-3.54-3.53-.92,1-1.88,2.09-2.83,3.18-2.7,2.59-5.09,4.82-7,8.38A54.48,54.48,0,0,0,74.93,60.2c-2.42,10.52-4.81,20.57-5.18,31.41-.39,11.17.31,22.51-1.85,33.54a96.53,96.53,0,0,1-2.62,10.37c-.63,2-1.82,4.63-1.27,6.78a2.22,2.22,0,0,0,1.43,1.63c1.61,2.45,4.23,4.08,6.24,6.24a41.62,41.62,0,0,1,6.83,10.39C83,170,82.82,179.72,82.15,189.9c-.58,8.8,1.43,17.35.49,26.11-.68,6.39-2.07,14.12-7.2,18.48a2.71,2.71,0,0,0-.3.13,2.35,2.35,0,0,0-.77.69c-.14.09-.26.2-.4.29-2.61,1.66-.38,5.73,2.23,4.46a17.07,17.07,0,0,0,2.91,1.29c1,.36,2,.66,3,1l1.28.38c.19.06,1.2.44.59.17a3.28,3.28,0,0,0,1,.27c1.06,1.14,3,1.41,3.83-.38,1.54-3.32.54-7.57,1.17-11.14,1-5.63,3.72-11.36,3.08-17.13-.35-3.11-1.77-6-1.84-9.12s1-6.07,1.29-9.12c.58-6,.84-12.63,5.7-16.91,4.58-4,13.25-5,19.1-5.38,6.7-.38,13.4-.15,20.11-.6a94.69,94.69,0,0,1,20.54.61,64.75,64.75,0,0,1,7.3,1.44,3,3,0,0,0,.68.19,34.66,34.66,0,0,1,4.2,1.45,25.31,25.31,0,0,1,9.52,10.51l.21.59a37.81,37.81,0,0,1,2.33,10.65c.13,3.83-1.19,7.38-2,11.08-1.36,6.48-1,12.54-.42,19.08.38,4.37,1.42,12.77-1.56,16.45a2.72,2.72,0,0,0,1.94,4.38c2.36.43,4.74-.48,6.84-1.52s4.2-2.47,5-4.73a2.16,2.16,0,0,0,.92-3.31c-10.74-15.46,1.84-34.35-.81-51-.81-5.1-1.66-9.43-.44-14.55a63,63,0,0,1,5.07-14,103.24,103.24,0,0,1,6.77-11.6c2.38-3.46,5.45-6.28,7.22-10.13.05-.12.09-.24.13-.36.29-.31.58-.62.86-.94a2.62,2.62,0,0,0,.56-1A2.56,2.56,0,0,0,213.1,134.32Zm-14.58-6.09a2.91,2.91,0,0,0,0,.31l-.1,0Zm-11.46,69.05a2.47,2.47,0,0,0,.35-.48q-.06,1.68-.27,3.39C187.16,199.27,187.13,198.29,187.06,197.28Zm.34-3.25h0v0Zm-2.33,47.25ZM200.25,88.2c0-.55-.06-1.1-.1-1.65.09.71.18,1.44.26,2.16C200.36,88.54,200.31,88.37,200.25,88.2ZM195.6,66.06V66l0,.08ZM151.68,167.7a2.47,2.47,0,0,0,.19.36l-.43,0Zm33.42,67.46c.06.23.13.46.2.69h-.19C185.1,235.62,185.1,235.39,185.1,235.16ZM99.88,158.41q.09,1.13.21,2.25c-.14-.73-.26-1.47-.37-2.2Zm23.94-29-.3-.24.39.06A1,1,0,0,0,123.82,129.37ZM74.39,110.63h0v0Z"/><path class="cls-2" d="M74.72,247.89a2.2,2.2,0,0,0-2.17-1.21l-.27,0c-9.05,0-18.09-.76-27.15-.85a159.1,159.1,0,0,0-16.05.35c-4.86.44-10,.24-14.61,1.84A2.42,2.42,0,0,0,13,249.22a12.3,12.3,0,0,0-2.84,3.18c-2.23,3-4.78,6.07-6.47,9.44C.87,267.54.34,274.08.25,280.36c-.11,8.17-2,25.1,6.37,30.71l.16.21c2.39,2.86,6.07,3.71,9.67,3.64,8.92-.18,17.76-4,26.68-4.47,1.69.07,3.38.13,5.06.16a2.52,2.52,0,0,0,1.35-.33,65,65,0,0,0,9.78-.38h.09l.39,0a52.12,52.12,0,0,0,11.89-.8,2.36,2.36,0,0,0,.86-.3,2.44,2.44,0,0,0,2.37-2.39c.18-5.11,1.4-10.13,1.92-15.22.58-5.65.75-11.33.82-17a108.62,108.62,0,0,0-.45-14.66C76.72,255.67,76.65,251.37,74.72,247.89ZM50.22,266.8c-.37-.34,0-.64,0,0Zm12,34.22a.13.13,0,0,0,0,.06h-.07Zm-46,4.61.24.12a7.42,7.42,0,0,1-.81,0Z"/><path class="cls-2" d="M180.12,252.92c-6.49.12-12,1.44-18.17,3.31-7.86,2.36-14.7,2-22.73,1.4-7.21-.52-14.34-1.35-21.53-2.09-1.49-.16-3-.26-4.45-.39a97.62,97.62,0,0,1-17.45-5.52,2.6,2.6,0,0,0-1.87-.1,2.28,2.28,0,0,0-2.59,2.4c.28,8.17.64,16.33.85,24.5a2.06,2.06,0,0,0-.76,1.39c-1.47,10,0,20.09-.09,30.11a2.46,2.46,0,0,0,3.25,2.31,7.14,7.14,0,0,0,1.12-.06,27,27,0,0,0,7.59-.83,111.1,111.1,0,0,1,14.51-2.15c8.64-.46,17.6-.13,26.25.13,4.21.12,8.34,1,12.52,1.42a121.26,121.26,0,0,1,12.6,1.49c3,.63,9,1.89,11.85-.11a2.54,2.54,0,0,0,.8-.91,2.18,2.18,0,0,0,.49-1.15c.47-3.43.06-7.08.25-10.58.25-4.63.56-9.25.75-13.89s.12-9.34.11-14c0-5,1-9.87.91-14.85A2.52,2.52,0,0,0,180.12,252.92Z"/><path class="cls-2" d="M280.72,263.25a102.26,102.26,0,0,0-3.83-10.55c-1.05-2.78-1.77-5.58-4.15-7.54a2.26,2.26,0,0,0-.73-.42,2,2,0,0,0-.87-.81c-4.38-2-9.61-1.41-14.27-1-3.48.31-7.06.78-10.64,1.09-5-.46-10.1-.67-15.16-.74-.51-.08-1-.14-1.55-.17a50.66,50.66,0,0,0-6.4.15q-4.87,0-9.73.11c-1.5-.13-3-.31-4.54-.48a20.34,20.34,0,0,0-6.79.72c-1.63-1.23-4.52.86-3.65,3.3a2.52,2.52,0,0,0-.15.85c0,10.86.63,21.68.17,32.56-.4,9.45-2.29,20.13,0,29.42a2.25,2.25,0,0,0,2.46,1.77,2.6,2.6,0,0,0,1.32.12,93.35,93.35,0,0,1,18.83-.69c6.56.34,12.55,2.69,18.7,4.77A61.07,61.07,0,0,0,256.27,319c4,.23,9.4,2.62,13.12.51a2.45,2.45,0,0,0,1.18-.31c2.19-1.18,3.27-3.29,4.22-5.5.16-.37.34-.74.51-1.11.42-.8.78-1.59,1.08-2.32.92-1.9,1.87-3.79,2.73-5.73a2.58,2.58,0,0,0,0-2.07,77.37,77.37,0,0,0,3-15.31A71.74,71.74,0,0,0,280.72,263.25ZM202.9,306.51v-.05l0,0ZM205,248.4a.86.86,0,0,0-.07-.1l.14,0Z"/><path class="cls-2" d="M88.64,250.32a2.56,2.56,0,0,0-2.5-2.5c.4.05,0,0-.16,0l-.53-.15a5.24,5.24,0,0,1-1-.41,4.49,4.49,0,0,1-1.79-1.3,2.51,2.51,0,0,0-3.53,0,2.46,2.46,0,0,0-.31,3.08,2.38,2.38,0,0,0,.3,1.59c.1.18.2.37.29.56s.19.51.22.58a10.48,10.48,0,0,1,.37,1.66,1.6,1.6,0,0,0,.11.39c.48,5.6,1.47,11.11,1.43,16.79,0,6.62-.78,13.21-1,19.82-.17,6.12-1.14,12.07-1.59,18.15-.19,2.65-.14,6.41,3.44,6.38,3.24,0,4.12-3.24,4.34-5.91.5-6.13.58-12.34.9-18.49.33-6.38.63-12.77.64-19.17s-.85-12.84-.43-19.2A2.66,2.66,0,0,0,88.64,250.32Z"/><path class="cls-2" d="M195.7,262.87c.29-3.83,1.73-10,0-13.61a2.08,2.08,0,0,0-2.57-1.17,3.56,3.56,0,0,0-1,.28,8.5,8.5,0,0,0-1.86,1.24l-.57.46-.09.05q-.24.16-.48.3a2.53,2.53,0,0,0-.9,3.42,2.88,2.88,0,0,0,.54.61h0a2.28,2.28,0,0,0,0,1.16c-1,4.81-.76,9.66-.59,14.6.22,6.09.31,12.21.2,18.3A90.62,90.62,0,0,1,186.85,304c-.58,3-1.72,6.7.06,9.52a2.57,2.57,0,0,0,3.42.9c3.55-1.54,3.9-5.91,4-9.29.28-6.51-.49-13-.27-19.47C194.36,278.05,195.12,270.48,195.7,262.87Z"/><path class="cls-3" d="M180.07,31.88a2.76,2.76,0,0,0-3.85-1.34c-1.51-1.49-3.88-2.19-7.23-2.84-7.39-1.43-14.72-1.7-22.18-2.49a111.82,111.82,0,0,0-23.42.36c-5.26.59-10.71.69-15.67,2.36a2.47,2.47,0,0,0-2.71-.29,11.74,11.74,0,0,0-2.54,1.7,5.62,5.62,0,0,0-1.51,1.6c-3.47,4.37-4.12,11-4.15,16.29a257.87,257.87,0,0,0,2.72,36.6c1.39,10.11,1.43,22,9.35,29.65,3.36,3.23,7.6,4.71,12,6,3.65,1,8,2.54,11.53.71a2.33,2.33,0,0,0,1-.93,2.25,2.25,0,0,0,.65-2.38c-.63-2.25-.07-7.69.88-10.12,1.1-2.85,4.23-3.39,6.94-3.72,2.19-.27,5.08-.35,7,1,3,2.22,2.71,7.81,2.76,11a2.52,2.52,0,0,0,3.58,2.21,2.55,2.55,0,0,0,1.49-.6,66.86,66.86,0,0,0,6.11-5.39,31.17,31.17,0,0,0,7.09-6.77,1.9,1.9,0,0,0,.71-1,31.76,31.76,0,0,0,3.09-5.13,97.24,97.24,0,0,0,6.87-21.24,100.84,100.84,0,0,0,2.34-23.55C182.67,46.51,182.8,38.6,180.07,31.88ZM124.68,68.53l.07.08-.11,0A.36.36,0,0,0,124.68,68.53Z"/><path class="cls-3" d="M63.41,148.65v0a2.54,2.54,0,0,0-3.76-2.16c-2.4,1.13-4.58,4.51-5.58,6.85-1.54,3.62-1.07,7.94-1,11.78a2.59,2.59,0,0,0,.08.63,2.17,2.17,0,0,0,.44,1.52c2.58,3.62,5.12,7.14,8.94,9.54,4,2.5,9,2.81,12.49,6a2.59,2.59,0,0,0,4.26-2.34C78.88,169,72.75,155.78,63.41,148.65Z"/><path class="cls-3" d="M76.73,188.55c-4.12-2.64-8.39-6.45-13.22-7.61a2.55,2.55,0,0,0-1,0c-1.81-1.43-3.58-2.91-5.42-4.3a2,2,0,0,0-1.86-.4,2.77,2.77,0,0,0-2.53,3.12c.11.76.18,1.52.26,2.28a1.75,1.75,0,0,0,0,.32,12.83,12.83,0,0,0,.1,2.4c0,.18.14.63.24,1.05.34,6.8-.16,13.7,0,20.46A89.17,89.17,0,0,0,54.43,217c.55,3.53.35,7.24,1.11,10.7a2.11,2.11,0,0,0,1.93,1.77c6.35,5.3,16.4,3.46,19.66-4.47,4.2-10.23.42-22.31.37-32.9A2.67,2.67,0,0,0,76.73,188.55ZM59.22,214.84l0,.64-.09-.66Z"/><path class="cls-3" d="M167.4,181.39c-10.22-4.25-22.41-4.13-33.28-4.4-11.21-.27-21.66.78-32.2,4.7-2.72,1-5.2,2.57-5.75,5.63-.36,2.05.42,4.1.59,6.12.27,3.26-1.23,5.55-1.94,8.6a2.54,2.54,0,0,0,.05,1.35,2.77,2.77,0,0,0,2.37,3c6.53.87,12.78,2.59,19.39,3.17,7.18.62,14.39,1.38,21.61,1.52,6.87.13,13.68-1.13,20.48-2,5.93-.73,11.18-3.51,17-4.48a2,2,0,0,0,1.8-1.9,2.53,2.53,0,0,0,.37-1.17C178.43,193.62,175.07,184.57,167.4,181.39ZM121.82,205c1.5.08,3,.16,4.49.22l-.19.13Zm12.9.51a24.43,24.43,0,0,1-4.19-.12Z"/><path class="cls-3" d="M176,230.3c-.21-2.87-.89-5.68-1.11-8.55a38.32,38.32,0,0,1,.55-7.85,2.49,2.49,0,0,0,.61-1.05,2.52,2.52,0,0,0-1.75-3.08h-.05a2.89,2.89,0,0,0-2.74.51c-.5.23-1,.49-1.49.7a18.42,18.42,0,0,1-3.53,1.45l-.15.06c-3.83.66-7.76.79-11.65,1.13-6,.53-12.14,1.61-18.17,1.5a149.92,149.92,0,0,1-18.28-2c-5.88-.84-12.21-.62-17.79-2.73a2,2,0,0,0-2.62.87,2,2,0,0,0-.88,2c.93,7.34-2.19,12.72-3.54,19.61-.76,3.91-.5,8.46,2.28,11.56,3.16,3.52,8.42,4.52,12.81,5.58,6.23,1.52,12.47,2,18.83,2.67,6.63.67,13.31,1.55,20,1.45,1,0,2-.08,3-.17,6.83.24,14.45-.54,19.68-4.8a8.41,8.41,0,0,0,4.53-4.23,8.85,8.85,0,0,0,.68-3.64A30.15,30.15,0,0,0,176,230.3Zm-12-7.66,0,.11-.58.07,0,0Zm-7-4.21-.36.08h-.62l.51,0Z"/><path class="cls-3" d="M198,182c4.15-1.32,7.76-5.22,10.61-8.32a128.06,128.06,0,0,0,10.46-12.33,2.28,2.28,0,0,0,.64-2.39,9.38,9.38,0,0,1-.48-2.14,2.29,2.29,0,0,0,.31-2c-1.07-3.86-.68-7.95-1.83-11.81-.75-2.54-4.15-2.09-4.81-.12-3.06,5.79-8.12,10.88-11.74,16.41a30.88,30.88,0,0,0-3.83,7.39c-1.14,3.49-.21,7.79-2,11a2.6,2.6,0,0,0-.33,1.21C194.63,180.55,195.9,182.66,198,182Z"/><path class="cls-3" d="M220.78,186.38c-.2-3.8-1-7.48-.53-11.3a2.68,2.68,0,0,0,0-.75c.08-.16.18-.31.26-.48,1.39-2.88-2.92-5.42-4.32-2.52-.06.13-.13.24-.2.37a2.47,2.47,0,0,0-1.24.62c-2.37,2.14-4,4.85-6.21,7.15a21.34,21.34,0,0,1-8.82,5.35,2.4,2.4,0,0,0-1.58,1.5,2.26,2.26,0,0,0-1.5,2.9c2.55,8.4-2.21,18.38-3.11,26.93-.67,6.27-1.55,14.31,2,19.95a2.34,2.34,0,0,0,3,2.45c4.28-1.38,7.15-5,9.7-8.51,3.36-4.67,7.95-10,10-15.41,2-5.14,2.09-11.3,2.39-16.73A108,108,0,0,0,220.78,186.38Zm-22,27.33c.1-.58.2-1.14.3-1.69C199,212.59,198.85,213.15,198.74,213.71Z"/><path class="cls-3" d="M145.1,158.68c-2.36-7.7.06-16.14,1.34-24.18.65-2.46,1.43-5,2-7.61a2.45,2.45,0,0,0,.15-.77,20.2,20.2,0,0,0-.07-9.47,10.89,10.89,0,0,0,.07-1.42,22.44,22.44,0,0,0-.34-5c-.75-3.13-4.33-6.15-7.62-4.52a5.14,5.14,0,0,0-2.6,4.06c-.34,1.92-.53,3.82-1,5.69a6.36,6.36,0,0,0-.48,1.21,2.49,2.49,0,0,0-.39.92c0,.23-.05.45-.08.67h0v0c-.49,3.71.84,7.23,1,11a2.58,2.58,0,0,0,.19.9c-.09,5.94-1.3,11.25-2.34,17.26-.77,4.42-1.68,9.18.27,13.36a2.24,2.24,0,0,0,1,1.08,2.39,2.39,0,0,0,1.49.47h5.22a2.42,2.42,0,0,0,2.36-3A2.39,2.39,0,0,0,145.1,158.68Z"/></g></g></svg>