<svg xmlns="http://www.w3.org/2000/svg" viewBox="0 0 837.48 667.26"><defs><style>.cls-1{fill:#fbd338;}.cls-2{fill:#ee99cd;}.cls-3{fill:#61be5f;}</style></defs><title>lifestyle_normal</title><g id="Layer_2" data-name="Layer 2"><g id="trial"><path class="cls-1" d="M134.9,243.21c-2.11-2.11-5.35-3.08-6.88-5.77-1.44-2.54-.24-5.36-.78-8.08a3.61,3.61,0,0,0-2.56-3c-1.58-1.58-3.79-2-5.84-2.75a3.77,3.77,0,0,0-2.46,0c-3.6-.83-7.5,1.62-10.44,3.49a80.54,80.54,0,0,0-13.53,10.65,4.44,4.44,0,0,0-.94,1.39,4.31,4.31,0,0,0-.89,1.6c-.68,2.47.85,4.44,3,5.32l.14.07c2.2,2.22,4.29,4.54,6.39,6.85a3.89,3.89,0,0,0,3.75,2.37c8,0,16-.24,24-.72a4.28,4.28,0,0,0,2.54-.95,5.51,5.51,0,0,0,.7-.49,2.63,2.63,0,0,0,.24-.21,2.11,2.11,0,0,0,.27-.18c.6-.43,1.19-.88,1.76-1.34a13.26,13.26,0,0,0,2.35-2.55,3.69,3.69,0,0,0,.38-3.43A4.17,4.17,0,0,0,134.9,243.21Zm-17.43,2.42c0,.38-.16.64,0,0ZM109,241.84v0a4.09,4.09,0,0,1-1.88-.66A4.36,4.36,0,0,0,109,241.84Zm.5,0h0Z"/><path class="cls-1" d="M166.11,217.36c-1.15-4-.71-7.82-3-11.57-2-3.33-5.11-6.19-9-7-8.62-1.91-11.74,6.37-12.49,13.32,0,.17,0,.33,0,.5-1.39,2.52-.18,6.58,3.62,6.69a16,16,0,0,1,10,3.93,4.3,4.3,0,0,0,2.83,1.1,3.72,3.72,0,0,0,3.32-.42,27,27,0,0,1,2.5-1.44,4.07,4.07,0,0,0,1.14-1A3.84,3.84,0,0,0,166.11,217.36Z"/><path class="cls-1" d="M100.9,200.85c.1-.08.22-.15.32-.24a14.12,14.12,0,0,0,2.49-3.16c.24-.38.48-.76.74-1.13.06-.07.15-.19.25-.3l.06-.07.06,0a4.18,4.18,0,0,0,.82-.68,4.77,4.77,0,0,0,1.53-4.57c-.61-4.2-4.5-9.25-8.75-10.19A4.89,4.89,0,0,0,95,181a18.13,18.13,0,0,0-4.08.55,4.29,4.29,0,0,0-1.76,1,4.34,4.34,0,0,0-2.7,5c.57,2.77-2.56,6.3-3.9,8.54a88,88,0,0,0-5.67,10.29c-3.4,2.71.69,8.91,5.36,6.87,2.93-1.28,5-3.8,7.21-6a16.94,16.94,0,0,1,9.14-5.17A3.78,3.78,0,0,0,100.9,200.85Z"/><path class="cls-1" d="M112.88,160.5c2.66,4.62,8.47,9.27,13.21,11.7,6.19,3.17,12.94,1.13,19.53.81,3.66-.18,5.83-4.66,3.06-7.39-3.49-3.47-9.26-4.88-13.7-6.75s-11-4-16.15-4.3C115.55,152.64,110.5,156.38,112.88,160.5Z"/><path class="cls-1" d="M67.37,233.63c-1.94-.9-4.89-.74-5.92,1.55-1.93,4.29-3.75,8.63-5.8,12.86-1.07,2.2-.41,6,2.58,6.36a13.63,13.63,0,0,0,4.18,0,3.09,3.09,0,0,0,1-.38,10.74,10.74,0,0,0,5.13-.49c2.86-1.15,3.65-3.94,3.66-6.79C72.24,242.77,71.55,235.56,67.37,233.63Z"/><path class="cls-1" d="M47.68,204.56a4,4,0,0,0-3.41-.38,4.32,4.32,0,0,0-3.59,2.11c-1.86,3.22-3.52,8.4.39,10.86,3,1.89,6.66.37,9.82-.26,2.41-.48,3.44-3.16,3-5.32C53.31,208.46,50.16,206.17,47.68,204.56Zm0,7.09c-.14.39-.09.22,0,0Z"/><path class="cls-1" d="M25.69,179.34c-1.52-3.76-8.27-3.19-8.35,1.73-.18,9.84-2.41,19.53-2.82,29.28a3.9,3.9,0,0,0,0,1.89,3.7,3.7,0,0,0,1.41,2.39,4.38,4.38,0,0,0,5,.81c6.57-3.15,13.25-6.64,14.74-14.44,1.68-8.8-3.18-13.36-7.81-20A4.35,4.35,0,0,0,25.69,179.34Z"/><path class="cls-1" d="M57.16,177.83c-1.14,0,.36,0,.61.09.7.1,1.39.21,2.09.26a10.36,10.36,0,0,0,3.64-.26,6.3,6.3,0,0,0,4.64-6.9,17.67,17.67,0,0,0-1.09-3.59c-.25-.79-.36-1.6-.56-2.4-.66-2.68-2.33-5.11-5.36-5.17-4-.08-7,3.81-9.56,6.32a4.09,4.09,0,0,0-1.25,2.27c-.11.15-.34.61-.57,1A5.69,5.69,0,0,0,49,171a5,5,0,0,0,1.37,4.9C52.24,177.72,54.74,177.75,57.16,177.83ZM59.53,172c0,.13.08.24.1.24S59.52,172.09,59.53,172Zm1.59-2.4c.12-.07.22-.1.23,0A.7.7,0,0,1,61.12,169.57Zm-10.83-.81v0l0,0Z"/><path class="cls-1" d="M34.92,160.08a20.87,20.87,0,0,0,4.62,3.75,4.35,4.35,0,0,0,5.25-.67c1.48-1.76,3.41-3.59,3.41-6.06,0-1.15-.74-1.95-1-3-.14-.62-.18-.64.29-1.36,2-3.06-.72-6.13-3.74-6.52a8.51,8.51,0,0,0-4.64,1.11c-.57.27-1.1.58-1.65.89l-.55.3a4.84,4.84,0,0,0-.54.17,4.12,4.12,0,0,0-3,.47c-1.9,1.11-2.88,4-1.55,5.92C33,156.75,33.62,158.55,34.92,160.08Zm2.87-11.65c-.23,0-.46.06-.68.1A4.61,4.61,0,0,1,37.79,148.43Z"/><path class="cls-1" d="M85.83,124c-6.78.57-11.55,5.1-15.1,10.59a4.72,4.72,0,0,0-2,7.31c1.8,2.2,4.06,4.4,7,4.78a32.24,32.24,0,0,0,9.15-.14c3.52-.64,5.45-2.85,7.27-5.81,1.69-2.75,4-5.69,4.32-9C97.11,125.5,90.91,123.52,85.83,124Z"/><path class="cls-1" d="M117.49,107.47c-1.22.62-2.33,1.42-3.49,2.14-.41.26-1.22.73-1.42.81a3,3,0,0,1-1.16.21c-5.57,0-5.58,8.69,0,8.66.34,0,.66-.05,1-.08,5.72,1.73,11.61-1.7,11.61-8A4.38,4.38,0,0,0,117.49,107.47Z"/><path class="cls-1" d="M57,112.35a3.89,3.89,0,0,0,3.49.51c5.3-1.55,10.66-3.46,15.18-6.7a6.07,6.07,0,0,0,.84-.75,4.28,4.28,0,0,0,2.05-4.68,14.12,14.12,0,0,0-2.72-5.15c-1.34-1.93-2.44-4-3.93-5.82a20.49,20.49,0,0,0-11.6-7.28,4.3,4.3,0,0,0-3.52.8,4.4,4.4,0,0,0-2.88,5.06c.2,1-.84,3.28-1,4.46-.22,2.18-.25,4.38-.31,6.57-.1,3.44-.07,7.07,1.27,10.29A4.45,4.45,0,0,0,57,112.35Z"/><path class="cls-1" d="M95.5,81.14c1.27,2.24,3.28,3.36,5.4,4.7,2.37,1.49,4.63,3.23,7.3,4.18,5.62,2,10.44-.72,13.77-5.27,1.33-1.82.37-4.93-1.56-5.92-6-3.08-11.78-5.69-18.67-4.92a4.47,4.47,0,0,0-2.06.76C96.7,74.56,93.56,77.71,95.5,81.14Z"/><path class="cls-1" d="M64,61.15c0,.16.1.32.14.48.14.54.24,1.08.4,1.6a8.16,8.16,0,0,0,1.91,3.39,3.59,3.59,0,0,0,3.75,2.15c6.54-.45,12.62-1.06,19.16-.26,2.67.33,5.69,1,8.33.28,3.56-.94,3.75-4.9,1.92-7.07h0a4,4,0,0,0-.35-.37,4.51,4.51,0,0,0-1.06-.82c-2.61-1.41-4-4.9-5-7.62a5.06,5.06,0,0,0-2.31-2.7,4.1,4.1,0,0,0-2.4-.66c-6,.12-14.74.77-19.64,5.2a4.32,4.32,0,0,0-3.33.41A4.38,4.38,0,0,0,64,61.07Zm0,.07Z"/><path class="cls-2" d="M153,230.62a5.37,5.37,0,0,0-1-2.24c-3.81-4.87-13.53-4.62-17.51-.21a4.31,4.31,0,0,0,.07,6l.12.17c3.6,4.64,13.61,6.18,17.59,1.36A4.63,4.63,0,0,0,153,230.62Z"/><path class="cls-2" d="M135.68,219.16c.56-2.13.19-4.22.12-6.38-.05-1.66-.58-4.21.42-5.61,1.66-2.33.49-4.6-1.48-5.66-.11-.15-.18-.32-.3-.46-.15-.69-.05-.23,0-.05v0a0,0,0,0,0,0,0c0,.09,0,.11-.07-.08h0c-.2-.21-.12-.17,0,0a9.54,9.54,0,0,1-.37-1.49c0-.16-.05-.87-.05-1.06a7.28,7.28,0,0,0,0-.93v0a4.49,4.49,0,0,0-2.37-4.95,3.82,3.82,0,0,0-3-1.07c-8.53.37-23.89,7-19.48,18,2.63,6.54,12.84,12.84,20.36,12.36C131.7,222.82,134.87,222.3,135.68,219.16Z"/><path class="cls-2" d="M134.38,201l0,.05h0a.64.64,0,0,0-.08-.14.09.09,0,0,0,0,0S134.35,200.93,134.38,201Z"/><path class="cls-2" d="M86.76,246.67c-2.51-1.59-3.31-4-1.27-6.36,2.26-2.63,1.2-6-1.91-7.23l-1.46-.58a4.43,4.43,0,0,0-.87-.25,15.93,15.93,0,0,0-3.34-7.18c1.49-3.93-3.68-8.36-7-4.68A10.63,10.63,0,0,0,68.5,224c-.86,2-.77,4.82,1.55,5.92,4.49,2.14,4.11,13,4.64,17.1.7,5.58,3.89,6.11,8.73,7.6S90.81,249.24,86.76,246.67Z"/><path class="cls-2" d="M68.25,214.41a4.19,4.19,0,0,0-.65-1.89c-.16-.25-.28-.55-.43-.82a23,23,0,0,0-2.5-7c-1.12-5.34-1.13-11.25-1.15-16,0-3.17-2.8-4.53-5.21-4.1-2.07-.8-4.33-1.32-6.07-2.17a4.61,4.61,0,0,0-4.87.39,4,4,0,0,0-3,3c-.65,3.88-2.87,7.85.74,11a16.19,16.19,0,0,0,4.3,2.35l.7.32a53.52,53.52,0,0,1,6.55,8.66,33.22,33.22,0,0,0,2,5.9,7.43,7.43,0,0,1-.21,1.9c-1.3,1.88-2.75,3.68-4.15,5.52a15.54,15.54,0,0,1-5,2.26c-.35-.28-.68-.59-1.06-.84-4.64-3.12-9,4.38-4.37,7.47,2.86,1.93,3.49,5.32,2.66,8.48-1.18,5.41,6.92,7.72,8.35,2.3a39,39,0,0,1,4.81-12.4c.19-.31.42-.6.63-.9a18.86,18.86,0,0,0,6.53-9c.35-.55.72-1.09,1-1.67A4.26,4.26,0,0,0,68.25,214.41Z"/><path class="cls-2" d="M24.29,219.4a21.15,21.15,0,0,0-6,4.61,4,4,0,0,0-3.48,4.11,28.71,28.71,0,0,0,.77,7.95c.81,2.83,5.14,4.6,7.23,1.91,1.74-2.23,2.45-4.55,3.54-7.1.89-2.08,2.61-3.7,3.85-5.56a4.39,4.39,0,0,0-.67-5.25A4.51,4.51,0,0,0,24.29,219.4Z"/><path class="cls-2" d="M104.86,156.68c-2.13-.48-4.87.65-5.32,3h0c-.5.75-1,1.51-1.49,2.27-.74.79-1.45,1.6-2.13,2.45l-.07.06h0c-.22.29-.47.56-.68.87A4.29,4.29,0,0,0,96.28,171a4.43,4.43,0,0,0,5.69-.34,15.69,15.69,0,0,0,3-3.4l.21-.23a11.26,11.26,0,0,0,2.73-5C108.31,159.79,107.27,157.23,104.86,156.68Z"/><path class="cls-2" d="M91.61,150.88c-2.85-.22-5.5.6-8.31.79a4.24,4.24,0,0,0-3.64,2.39,5.24,5.24,0,0,1-2.34-.63c-4.8-2.86-9.16,4.63-4.37,7.47,6.55,3.89,13.32.13,19.81-1.52C97.72,158.12,96.29,151.25,91.61,150.88Z"/><path class="cls-2" d="M54.93,145.39c-.13.23-.3.45-.42.68v0l-.06.06c-2.81,3.15-.13,8.39,4.21,7.24a22.78,22.78,0,0,0,5.42-2.06,4.41,4.41,0,0,0,1.56-5.92,8.59,8.59,0,0,0-.76-1.13l-.34-.47c-.26-.43-.26-.45,0,0a4.38,4.38,0,0,0-5.32-3,4.54,4.54,0,0,0-1.05.47,4.34,4.34,0,0,0-3.08,3.89l0,.05,0,0h0Zm.16-.31c.06-.22.13-.26,0,0Zm0,0c.16-.27.1-.18,0,0Z"/><path class="cls-2" d="M101.3,139.81a4.39,4.39,0,0,0,4.17,5.48c5.53.42,8.91-6.43,11.27-10.39,1.44-2.42,3.4-5.27,1.83-8.11-1.47-2.66-4.5-2.94-7.1-3.74a4.11,4.11,0,0,0-2.6,0c-3.45.08-6.44,4.38-3.17,7.23.67.58-.45,2.68-.85,3.27C103.49,135.6,101.93,137.38,101.3,139.81Z"/><path class="cls-2" d="M62.69,117.07a4.2,4.2,0,0,0-.51.05c-3.48-.25-6.72,4.24-3.52,7.34.75.72,1,2,1.44,2.91,1.23,2.64,4.93,2.61,6.8.88,2.07-1.93,4-4.09,6.41-5.57,2.67-1.62,5.63-2.75,8.43-4.13,4.44-2.18,1.32-9.24-3.34-7.91A26.21,26.21,0,0,0,73,113.1a37.07,37.07,0,0,0-4.48,2.41A14.15,14.15,0,0,1,62.69,117.07Z"/><path class="cls-2" d="M99.72,103.13c4.35,3.67,9.24,3.55,14.2,1,4.53-2.3,1.29-9-3.34-7.92-3,.69-5.13-.62-7.31-2.8a3.92,3.92,0,0,0-4-1.11,6.3,6.3,0,0,1-2.5-2.49c-2.44-5-9.91-.62-7.48,4.37C91.35,98.49,96.26,100.22,99.72,103.13Z"/><path class="cls-2" d="M104.83,63.08a14.07,14.07,0,0,0,5.77,3A28.06,28.06,0,0,1,118.22,70c2.87,1.87,6.41-.62,6.52-3.74.22-6.21-.29-14-7.26-16.31-3.25-1.07-8.61-2.2-12.34-.8-2.24-1-5.17-.44-5.8,2.64C98.44,56.24,101.67,60.31,104.83,63.08Zm10.39-4.51-.87-.28a2.13,2.13,0,0,0,.07-.27,2.89,2.89,0,0,1,.39.15A2.21,2.21,0,0,1,115.22,58.57Z"/><path class="cls-2" d="M54.56,80.57c1.26-2.77,2.48-6.42,5.17-8.13a4.4,4.4,0,0,0,1.55-5.92c-.46-.76-.87-1.53-1.26-2.33-1.55-3.08-5-2.57-6.81-.56a5.12,5.12,0,0,0-2.86,3c-1.65,4-4,7.29-3.85,11.8C46.62,82.33,52.68,84.73,54.56,80.57Z"/><path class="cls-3" d="M32.9,231.69c-3.27,3.13-3.67,7.63-6.07,11.26a4.28,4.28,0,0,0-.61,1.41,4.77,4.77,0,0,0-1.52,3.27c0,2.58,2,4.05,4.33,4.33s4.83,2.42,7.12,3.21a4.38,4.38,0,0,0,5.33-3,29.72,29.72,0,0,0-1.78-19.57C38.49,230,34.74,229.93,32.9,231.69Z"/><path class="cls-3" d="M101.1,209.59a4.42,4.42,0,0,0-6.12,0,3.45,3.45,0,0,0-.54.67A22.87,22.87,0,0,0,89,214.84c-3,3.07-5.69,5.64-6.27,10.08-.31,2.38,2.24,4.26,4.33,4.33.9,0,1.77-.12,2.67-.11,2.6.47,4.56-1.09,6.73-3.11s5-3.59,7.35-5.52a3.26,3.26,0,0,0,.89-1.17,4.46,4.46,0,0,0,.55-5A18.05,18.05,0,0,0,101.1,209.59Z"/><path class="cls-3" d="M156.91,235.14a21.57,21.57,0,0,1-4.75,8.16,13.33,13.33,0,0,1-4.13,2.88,3.88,3.88,0,0,0-5.77.12c-.41.46-.84.91-1.27,1.36-2.15,2.23-1.37,6.52,1.91,7.23,11.16,2.42,19.1-8.32,22.36-17.45C167.14,232.19,158.78,229.92,156.91,235.14Z"/><path class="cls-3" d="M145.15,193.46c1.95-2.11,3.26-2.13,5.87-1.21,2.44.86,4.73,2,7.2,2.79a4.39,4.39,0,0,0,5.33-3c1.08-4.37-2.12-9.18-5.06-12.17-3.69-3.76-9.08-3-13.74-1.75a4.62,4.62,0,0,0-.79.3,4.06,4.06,0,0,0-3.23,1.2c-2.92,2.77-3.15,7-3,10.8C137.92,194,142.48,196.34,145.15,193.46Zm9.95-3.27c0,.31-.07.44,0,0Z"/><path class="cls-3" d="M128.44,177.41c-3.93-2-8.3-3.49-11.77-6.27a4.46,4.46,0,0,0-3.35-1,4.23,4.23,0,0,0-6.33,1.1,11,11,0,0,1-.81,1.24c-1.47,1.88-1.76,4.25,0,6.12,1.21,1.28,2.74,2,4.08,3.06s1.95,2.43,3.4,3.19c3.76,2,7.56-.85,11.44.46C129.72,186.87,132.82,179.64,128.44,177.41Z"/><path class="cls-3" d="M83.63,176.71c.52-.09,1-.18,1.58-.26,4.92-.69,3.59-8.47-1.15-8.5a10.73,10.73,0,0,0-2.47.28c-.92.11-1.84.24-2.78.26-4.31-1.2-6.63,3.94-4.61,6.79a4.46,4.46,0,0,0-.48,1.61c-.38,3.52-3.49,6.53-4.72,9.77-1.44,3.82-1,7.87-1.88,11.82-1,4.57,5.54,7.92,7.92,3.34,2.72-5.25,6.36-10.19,7.18-16.18C82.46,183.9,81.9,177.57,83.63,176.71Z"/><path class="cls-3" d="M31.78,176.86c1.38,2.75,6.15,2.91,7.48,0,1.89-4.14.61-7.18-2.56-10.13-3-2.79-5.26-5.86-9.12-7.6-1.7-3.68-8.35-3.09-8.27,1.81,0,1.41-.32,2.78-.35,4.2,0,1.69,1.36,3.91,3.18,4.17C26.85,170,29.69,172.7,31.78,176.86Zm-.4-3.23a.4.4,0,0,0,.15.09C32.3,174,31.1,174.9,31.38,173.63Z"/><path class="cls-3" d="M88.72,108.7a2,2,0,0,1,0,.29c-.08.32-.17.63-.24,1a11.91,11.91,0,0,0-.39,2.52A6.65,6.65,0,0,0,89.81,117a16.42,16.42,0,0,0,4.87,4.34c3.57,1.76,7-1.13,6.36-4.89a32.07,32.07,0,0,0-2.1-6.62,5.3,5.3,0,0,0-1.8-2.37,4.51,4.51,0,0,0-4.1-2.93,4.41,4.41,0,0,0-4.33,4.33C88.71,108.76,88.72,108.74,88.72,108.7Z"/><path class="cls-3" d="M88.72,108.7c0-.1,0-.12,0,0Z"/><path class="cls-3" d="M69.29,81.79a4.81,4.81,0,0,0,.5.51c3.41,2.8,6.79,5.48,8.91,9.42,2.47,4.61,8.68,1.23,7.91-3.33-.36-2.12-.09-4.8,1.56-6.31,2.28-2.08,1.28-6.65-1.91-7.23a42.25,42.25,0,0,0-8-.28c-2.67,0-5.3-.87-8-1.2C68,73.08,66.05,75.57,66,77.7A4.15,4.15,0,0,0,69.29,81.79Z"/><path class="cls-3" d="M50.52,109.33a3.45,3.45,0,0,0-.46-1.13c-.26-.42-.55-.8-.83-1.19a5.56,5.56,0,0,1-.36-1c-.48-2-.6-3.81-1.5-5.71a4,4,0,0,0-3.57-2.1A4.11,4.11,0,0,0,42.48,98a4.38,4.38,0,0,0-4.33,4.33,13,13,0,0,0,1.64,6.28,32.75,32.75,0,0,0,2,2.84c.38.68.77,1.34,1.17,2a3.81,3.81,0,0,0,4.16,4l.55,0a4.39,4.39,0,0,0,3.74-6.51A15.43,15.43,0,0,0,50.52,109.33Z"/><path class="cls-3" d="M181.33,162.5c0-18.51-.14-37-1-55.51-.37-8.39-.69-16.8-1.43-25.17-.64-7.28-2.51-14.86-2.3-22.24.07-4.49,0-6.24.08-9.74C175.34,38.6,179.12,27,174.54,16.2c-3.88-9.13-12.06-13-21.44-14.45-14.27-2.13-29.27-.08-43.59.54C94.24,3,79.63,1.06,64.47.2,46.53-.81,24.38,1.6,13.54,18,6.45,28.74,7.45,40.46,8.22,52.69c1.1,17.43-.72,34.85,0,52.32,1.45,34-5.21,68-7.69,101.74-1.47,20-1.37,45.34,18.46,56.53,9.38,5.3,19.61,5.36,30.05,5,17-.58,33.09-1.34,50,.69,14.81,1.77,31.67.21,46.53-1.28,10.8-1.09,20.37-4.77,26.92-13.83,7.1-9.81,8.34-23,9.09-34.71C182.77,200.36,181.36,181.33,181.33,162.5ZM171.08,234c-3.71,17.08-13.68,24.19-30.81,25.39-11.85.82-24.59,2.16-36.42,1.45-12.67-.77-24.24-2.37-37.07-1.89-11.28.42-24.43,2.6-35.47-.17C14.56,254.6,9.85,240.62,9,225.05c-1.38-24.57,4.64-49.35,5.62-73.94.51-12.71,2.38-25.31,2.44-38,.06-13.37-.82-26.46-.11-39.86.62-11.81-1.61-23.64-.83-35.35,1-15.25,11.5-24.6,25.72-27.74,10.85-2.4,22.1-1.51,33-.27,14.39,1.64,28.45,1.42,42.89.67,13.88-.73,37.62-5.38,46.4,7.34,6.87,10,3.88,23.63,4,35.52-.26,8.37.83,15.41,1.75,23.41,1.46,12.58,1.75,25.41,2.2,38.06.92,25.7.38,51.41,1,77.12C173.33,205.85,174.05,220.34,171.08,234Z"/><path class="cls-3" d="M166,364.94c0-1.41-1-2.75-3.59-3.12-21-3-43.28-1.31-64.51-.77-23.26.59-46.91-1.05-70-.15-3.7.14-6.37,2.92-4.33,5.34l1.25,1.48A21.52,21.52,0,0,0,36.57,387.5C50.78,395,71.32,391,87.52,391.27c18.64.36,41.36,1.89,59.25-2.7,15.28-3.91,18.41-12,19.36-22.7A2.54,2.54,0,0,0,166,364.94Z"/><path class="cls-2" d="M142.64,483.53c-.93-8.11-1.8-16.47-3-24.56-1.23-8.52-8.18-18.63-20.05-13.39-4.62,2-5.88,6-6.92,10.11-1.32,5.21-1.4,23.68-15.26,8.2-3.33-3.72-1.92-13.23-1.77-17.91.5-15.57,6-32.34,3.53-47.75-.47-2.84-3.73-3.13-5.89-1.82-2-1.7-5.91-1.64-6.78,1.41-1.75,6.14-.18,12.73-.36,19C86,424.92,86,433,86.19,441c.31,10.3-2.59,28.63,7.5,36.19,7.44,5.57,17.74,1.79,22.88-4.53,1-1.28,2.22-5.49,3.29-6.26,9.88-7.14,10.21,2.74,10.88,6.56,1.18,6.7,0,13.69,1.68,20.23.71,2.82,4.56,3.16,6.74,1.57C143.2,491.83,143.14,487.93,142.64,483.53Z"/><path class="cls-3" d="M178,339.54c-1.62-1.93-4.29-2.64-6.13-4.31-7-6.3-5.18-11.38-4.76-18.68.69-12,4.39-27-12.25-32.48-8.92-3-19.44-2.28-28.85-2.38-15-.15-29.92-.68-44.89-.84-18.47-1.54-40.54-3.63-51.81,7.34C16.14,301,13.7,320.64,14.56,336.56c.87,16.2,11.32,18.81,29.62,18.74,29.45-.11,59.51-3.94,88.88-2.22,12.32.73,38.41,8.38,46-4.27C181.15,345.3,180.61,342.64,178,339.54ZM100.87,324h-.1c.56-3.21,1.09-6.62,1.85-9.85C102.11,317.43,101.25,320.78,100.87,324Zm27.75-27.63,2,0Zm-47.23,50c1.46-.07,2.9-.13,4.24-.15l2.84-.05-7.11.44Z"/><path class="cls-1" d="M113.64,297.16c-1.24-11-12.94-7.6-20.41-7.41a3.54,3.54,0,0,0-.58.07,3.29,3.29,0,0,0-3.7,2.84c-.71,3.7.34,7.11,4.2,8.4a14.29,14.29,0,0,0,5.4.4c-.61,4.56,0,9.32-.52,13.87-.2,1.76,1.38,3.33,2.92,3.82,4.41,1.42,9,1,10.73-3.92.85-2.48.68-5.43,1-8C113.2,303.93,114,300.51,113.64,297.16Z"/><path class="cls-3" d="M549.94,362.31c19.49.66,38.82.67,58.38,0a4.94,4.94,0,0,0,4.72-3.56c23.07,1.43,46.35,1.09,69.37.57,11.28-.26,23.48,1.05,34.61-.73a31.39,31.39,0,0,0,3.33-.74,4.59,4.59,0,0,0,2.37,1.44c5.27,1.35,11.46-.06,16.89.1,6.12.17,12.23.52,18.35.65,1.3.45,2.35.78,3,.94a5.22,5.22,0,0,0,4.27-.9c14.09-.17,28.41.7,42.48-1,13.25-1.61,22.69-10.15,24.77-23.59,2.14-13.82,2.15-32.48-1.49-46.16-3.78-14.18-19.59-11.55-31.12-11.23-16.85.47-33.49-2.12-50.35-2.18-19.87-.07-39.73-3.37-59.61-3.07-7.57.11-15.09-.64-22.67-.36-10.62.4-21.18,2.24-31.76,3.16-17.86,1.56-35.73,3.41-53.6,4.24-9.43.44-19,1.26-28.42.65-5.45-.36-10.48-1-15.71-.72a6,6,0,0,0-2.17-1.22l.19-.15c-4.19-.77-10.83-1.59-14.36,1.37C517,283.54,518.08,292,518.08,297c0,17.16-4.13,35.54-1.68,52.57C518.69,365.48,538.19,361.92,549.94,362.31Zm149.43-55.63c5.48,13,1.26,29.81-12.32,35.93-12.47,5.63-35.65,2.55-40.68-11.73-4.72-13.4,2.3-34.7,17.93-37.47a4.36,4.36,0,0,0,2.9-1.7C680.48,290,693.76,293.34,699.37,306.68ZM569.6,301.76c6.48-.59,13.47-.9,20-1.12,4.3-.15,14.2-1.4,18,1.23,4.19,2.94,4,10.7,3.33,15.31-1.27,8.55-5,10.41-12.83,11.26a278,278,0,0,1-32.66,1.89,5.39,5.39,0,0,0-2.56-.09c-4-2.49-5-6.51-5.42-11.82C556.56,308.28,559.44,302.68,569.6,301.76Zm79.17,47.45.61.37h-.6C648.78,349.46,648.78,349.33,648.77,349.21ZM698,347.94a5.74,5.74,0,0,0,.34.9l-1.61,0C697.16,348.56,697.59,348.26,698,347.94Zm100.66-58.88c-.07,0-.12.09-.18.13-1.25-.15-2.49-.28-3.73-.44q2.38,0,4.77-.18C799.23,288.73,798.94,288.88,798.66,289.06Zm-34.76-2.12-.11,0,.15,0Zm-60.17-3.07c5.52.29,11,.67,16.55,1.05A126.15,126.15,0,0,1,703.73,283.87ZM544.8,290.59a3.92,3.92,0,0,0-.13-.49l.62,0C545.12,290.28,545,290.44,544.8,290.59Z"/><path class="cls-1" d="M832.59,505.89c1.57-6.23-.57-14.88-1.06-20.24-1.3-14.21-.39-28.86-.41-43.13,0-12.55.89-25.18,1.21-37.73.26-10.63,1.71-22-2-32.29-3.14-8.68-8.91-10.3-17.64-9.79-11.2.67-22.33,4.37-33.62,4.09-11.59-.29-22.86-2.52-34.58-1.69-8.16.57-14.28.94-22.43-.09a54.87,54.87,0,0,0-10.33,0,91.16,91.16,0,0,0-23.17-.2c-14.79,1.93-30,.59-44.89,1.73-28.95,2.22-58.08-1-86.94,1.78a6.85,6.85,0,0,0-3.06-1c-.34,0-.68-.05-1-.07-3.79-1.8-9.55-.79-13.42-.3-1,.12-2.11.26-3.29.45-6.91-1.74-13.73.24-15.53,7.45-2.62,10.53-.81,24.78.4,35.41,1.45,12.87,1.36,25.52,1.36,38.47,0,3.48.06,7,.12,10.42-.84,4.75-1.78,9.39-2.27,13.58-1.78,15.23,1.82,30.27-1,45.41a5.41,5.41,0,0,0-.06,1.49,5.63,5.63,0,0,0-.13,1.19V522c0,.07,0,.13,0,.2.11,12.61,1.47,25.13,1.47,37.77,0,14-1.63,27.83-.58,41.84,1,13.35-.09,26.7.87,40.07.6,8.42,1.17,17.93,10.76,20.07,4.95,1.1,9.91.26,14.83-.38,9-1.17,18.5-.87,27.52-.15,14.11,1.12,28.15,1.33,42.32,1.33s28.47.94,42.7,1.2c7.74.14,19.1,1.2,27.42-2a88.2,88.2,0,0,0,30.27.38c13-2,25.45,0,38.42.52,11.75.48,23.2,1.29,35,2.36,10.64,1,23.65,4.15,33.82-.33,9.91-4.37,7.53-15,8.05-24.07.88-15.22,4.46-30.3,5.34-45.61C838.73,565.61,835.28,535.45,832.59,505.89ZM634.69,384.22a4.55,4.55,0,0,0,3.74-1.43,34.57,34.57,0,0,0,4-.5c5.71-1.09,11.34-2.37,17.18-2.58,13.21-.46,24.91-.45,38,2.19a70.28,70.28,0,0,1,20.26,7.2c4.45,2.38,8.54,5.92,13.5,7.15a4.91,4.91,0,0,0,1.14.12A4,4,0,0,0,735,398.1c16.09,2.27,32.09-3.53,48.1-3.17,4.37.1,8.61-.13,12.19,2.33s5.19,6.87,5.73,11.28c1.14,9.3,1.31,19.2,1.54,28.58.5,20,.25,39-1.93,59a112.55,112.55,0,0,0-.38,23.92c1,10.23-1.17,20-1,30.24a4.8,4.8,0,0,0,3.31,4.67c-.6,4.94-1.62,9.87-1.82,14.84-.21,5.16-.25,10.29-.55,15.45-.12,2.12.48,6.54.09,9.4-10.45,1.44-20.67,3.68-31.23,3.56-6.17-.07-12.33-.64-18.51-.73-3.37-.05-11.44.78-13.07.18a4.33,4.33,0,0,0-5.73,2.36c-7.29,4.62-14.47,9.49-23,11.51a235.9,235.9,0,0,1-25.59,4.41,127.06,127.06,0,0,1-23.23.85,93.68,93.68,0,0,0-10.32-.48c-.35,0-.69.06-1,.11-3.84-.94-7.73-2-11.77-3.14-9.59-2.73-19.58-5.3-28.09-10.57-6.44-4-12.57-8.37-19-12.3-11.07-6.74-23.58-17.16-28.87-29-7.65-17-12.17-32.34-13.34-51-1.1-17.42-2.53-33.19,3.92-50a146,146,0,0,1,14.89-29.13c4.8-7.13,10.7-12.93,17-18.44a4.48,4.48,0,0,0,3.89-2.56,11,11,0,0,1,1.23-1.82q3-2.56,6.11-5.17c3.47-2.28,7.28-4.26,9.89-6.12a63.94,63.94,0,0,0,6.47-5.62C618.52,387.11,626.9,383.87,634.69,384.22ZM541.9,397.58c-1.19.78-1,.38,0,0ZM808.62,625.7c.11-.09.19-.18.29-.27.05.36.11.71.16,1.09a5.1,5.1,0,0,0-.73-.59ZM811.16,526l-.29.05v-.14Zm-2.72-129.52v.12l-.06-.17Zm2.07,104.77c-.06,1.6-.15,3.18-.29,4.75C810.29,504.45,810.38,502.86,810.51,501.28ZM575.05,405.87l-1.38,1.07a60.2,60.2,0,0,0-6.69,6A54,54,0,0,1,575.05,405.87Z"/><path class="cls-2" d="M563.05,319.06c.09,2.11,1.53,4.59,3.8,5,5.63,1,11.6-.44,17.24-1,5.06-.48,10.32-.25,15.31-.88,2.94-.38,5-2.08,5.19-5.19.51-7.27-5.76-9.25-11.92-8.54-7.61.88-15.14,2.73-22.84,2.51a7.3,7.3,0,0,0-.84-.41c-4.49-1.74-7.12,3-5.94,6.65A14.28,14.28,0,0,1,563.05,319.06Z"/><path class="cls-2" d="M665.62,336.61a4.84,4.84,0,0,0,5.81.87,10.84,10.84,0,0,0,4.47.29c.5,0,1,.07,1.45.08,5.28,0,10.18-3.13,13.72-6.87,6-6.35,8.85-17.72,2.71-24.89a22.66,22.66,0,0,0-19.13-7.82c-10-3-18.46,7.36-20.56,16.33a18.49,18.49,0,0,0,1.64,13.75C658.12,332.52,662.39,333.52,665.62,336.61Z"/><path class="cls-2" d="M794.53,413.57c-.52-5.09-1.72-7.81-6.93-8.92a24.26,24.26,0,0,0-5-.48,18.7,18.7,0,0,0-2.15-.58c-10-2.07-21.26.61-31.16,2.16a4.81,4.81,0,0,0-2,.78c-5.17.54-10.41.83-14-.55-3.33-1.27-6.35-4.85-9.29-6.89a124.61,124.61,0,0,0-12.66-7.71c-16.62-8.79-36.33-9.12-54.66-7-16.57,1.88-32.84,6.44-46.63,16.13-13.16,9.25-24.49,20.92-35.27,32.69-4.35,4.74-7.2,10.68-9.51,16.64-3.53,9.13-8,18.66-10.83,28-2.42,8-2.29,16.7-1.6,24.92.89,10.7,1.74,21.77,5.08,32a139.46,139.46,0,0,0,9.65,23.51c4.71,8.69,11.48,12.39,19,18.47,13,10.57,24.94,23.69,42.33,27,19.92,3.83,38.68,4.83,58.78,1.68,9.13-1.43,18.68-1.85,27.18-5.77,4.42-2,8-5,12.12-7.41a39.26,39.26,0,0,1,4.36-1.88c11.92-.77,23.78-.84,35.7-.9,8.67,0,24.08,2.69,26.06-9.29.83-5.06-.53-11.38-.39-16.58.17-6.33-.2-12.59-.22-18.91-.05-13.71.82-27.41,1.13-41.12.54-23.91,1.42-47.48.64-71.35C794.54,426,795.16,419.74,794.53,413.57ZM598.21,548.48c-6.87-7.57-11.06-13.45-14.83-23-6.69-17-8.39-34.31-3.6-52,5.21-19.23,21.82-40.75,39.64-50,8.13-4.24,18.32-6.27,27.08-8.85,9.21-2.71,17.58-.4,26.8-1.37a5.47,5.47,0,0,0,1.68-.46c3.31,1.09,6.55,2.53,9.57,3.42,8.66,2.58,17,4.28,25.18,8.28,17.11,8.36,31.18,21.25,36.59,40.27,5.14,18.08,8.11,38.73,2.31,56.84S732.46,561,714,568.94c-7,3-14,5.6-21.26,7.92-9,2.87-18.57,3.49-27.89,5.18-17.12,3.1-37.06-7.07-50.75-16.64C607.49,560.76,603.55,554.36,598.21,548.48ZM775,534.43c0-.5.11-1,.16-1.51l0,1.6Zm-21.47,38.75,0,.06-.31,0ZM730.18,415.89l-1-.53c.38.16.77.3,1.17.44Zm-36,178.39h0Zm32.83-180-1.58-.71c-.87-.75-1.76-1.5-2.67-2.23A35.06,35.06,0,0,0,727,414.31ZM721,410c-1.94-1.5-4-3-6-4.34.53.34,1.07.66,1.61,1C718.21,407.76,719.65,408.89,721,410ZM628.29,592.15c3.94,1.13,7.88,2.13,11.68,3.13A87.66,87.66,0,0,1,628.29,592.15Z"/><path class="cls-3" d="M694.39,524.11c-2.69,2-4.27,4.75-6.14,7.44A101.61,101.61,0,0,1,679,542.48c-4.2,4.45-10.08,10-16,12.47a5.63,5.63,0,0,0-4.38.4,34.87,34.87,0,0,1-13.75,3.87,5.4,5.4,0,0,0-5,3.85,5.05,5.05,0,0,0,.92,6.23c6.14,6.17,22.26,4.57,29.81,3.65,8-1,20.45-.5,27.1-5.69,2.9-2.27,2.15-5.45,0-7.38a7.18,7.18,0,0,0-.85-.92c.71.64,0,0-.08-1.19,0-.77-.19-1.52-.2-2.3a35.74,35.74,0,0,1,1.13-8.46c1.29-5.45,4.34-10,5.15-15.66a5.74,5.74,0,0,0-.61-3.59C701.51,524.29,698,521.48,694.39,524.11Z"/><path class="cls-3" d="M742.14,476.52l-.11-.22c-1.11-2.31-4.31-3.27-6.67-2.4h-.69c-.58-.19-1.24-.38-1.83-.51-.39-.14-.55-.18-.53-.15l-.39-.22c-4-2.07-7.84.58-8.29,4.75a7.87,7.87,0,0,0,3.48,7,8.14,8.14,0,0,0,2,.89c.72.2,2.54.37,1.13.16.79.12,1.58.27,2.38.34,3.1.3,6.8-.26,8.44-2.79A5.81,5.81,0,0,0,742.14,476.52Z"/><path class="cls-3" d="M711,465.91c-2.54-1.05-5.44-1-8-1.92-3.6-1.23-6.39-3.6-9.47-5.72-2.07-1.43-4.14-2.87-6.78-2.71a6.07,6.07,0,0,0-5.81,6.34c.21,5.19,5.79,10,9.43,13,2.77,2.25,5.82,3.81,9.45,3.74,3-.05,5.62-1.48,8.52-1.89a10,10,0,0,0,1.23,0C715.89,476.07,716.8,468.31,711,465.91Z"/><path class="cls-3" d="M614.25,447.28c6.44-3,13.45-6.89,20.71-7.19,5.39-.22,10.14,2.17,15,4.12,9.76,3.9,18.89,5.83,29.26,4.53,4.92,3.38,11.51-3.79,6.86-8.57a77.19,77.19,0,0,0-11.5-9.62c-2.48-1.71-4-4.32-6.26-6.18-2-1.57-4-2-6.25-2.78H662a5.26,5.26,0,0,0-2.32-1.18c-8.21-1.95-16.52,2.67-24.13,5.06-9.37,3-18.86,6.47-26.9,12.31A5.51,5.51,0,0,0,614.25,447.28Z"/><path class="cls-3" d="M639.27,497.27c2.13,4.23,6,8.5,7.94,12a5,5,0,0,0,4.51,2.66,5.35,5.35,0,0,0,.59.06c2.76,0,5.78-2.52,5.5-5.5-.24-2.59-1.48-4.19-1.52-6.68a18.48,18.48,0,0,1,.27-4.34,3.89,3.89,0,0,0,.38-1.12,7.62,7.62,0,0,0-.1-2.7,5.71,5.71,0,0,0-.46-3.41c-.56-1.23-1.59-2.07-2.23-3.24-1-1.82-1.24-4-1.68-6-.91-4.14-1.46-8.34-.29-12.48a5.12,5.12,0,0,0-.31-3.79c-1-4-7.3-6.19-10.27-1.64-4.8,7.36-9.91,18.69-7.51,27.64a5,5,0,0,0,3,3.39A37,37,0,0,0,639.27,497.27Z"/><path class="cls-3" d="M620.08,505.76c-4.48-3.3-8.84-11.82-10.93-16.9-2.91-7.1-4.74-15.3-3.71-22.94.9-6.6-8.68-9.62-10.4-3.81a4.56,4.56,0,0,0-1.41,2.42c-.19.93-.59,1.79-.84,2.7s-.5,2-.69,3.07a6.73,6.73,0,0,0,.57,4.16,45.94,45.94,0,0,0-2.1,7.91,76.17,76.17,0,0,0-1,15.23,5.32,5.32,0,0,0,5.51,5.31c2.8,1.84,5.44,4.35,8.13,6.36,1.85,1.38,3.76,2.51,5.66,3.8,1.51,1,2.72,2.49,4.33,3.39a5.14,5.14,0,0,0,6.16-.63C622.53,514.19,624,508.67,620.08,505.76Z"/><path class="cls-2" d="M742.08,488.16c-7.1,2.47-13.4,7.29-16.75,14.11-3.72,7.59-3.16,25.87-13.38,28.25a4.79,4.79,0,0,0-3.9,4.34,5.41,5.41,0,0,0-.44,2.46c.13,2.75-.82,5.86-1.13,8.6-.22,2-1.52,7.25-.18,5.74-4.68,5.26,2.72,12.84,7.79,7.79,16.36-16.33,30.76-37.5,32.76-61.17,0-.13,0-.24,0-.36C751.71,495.09,747.76,486.18,742.08,488.16Z"/><path class="cls-2" d="M670.12,515.77c.06.05.1.12.16.17l.14.13a5.71,5.71,0,0,0,6.67.86,9.54,9.54,0,0,0,4.1-4.7c.83-2.06.52-4.61.63-6.24.19-2.67,1.49-4.65-.05-7.3a9,9,0,0,0-7.44-3.9,11.1,11.1,0,0,0-10.86,9.36C662.8,509.41,665.27,514.2,670.12,515.77Z"/><path class="cls-2" d="M631.25,465.4c2.34-4.4,3.85-6,8.2-8.51,4.69-2.66,2.7-10.42-2.78-10.26-7.85.21-14.35,2.92-21.65,6.83a6.56,6.56,0,0,0-.94.5l-.21.12a4.91,4.91,0,0,0-2.28,6.49,22.28,22.28,0,0,0-.13,5.46c.2,2.06.89,4.88.87,6.33a5,5,0,0,0,4.38,5.23l.5.33c.16.09.32.16.47.25,2.69,3.05,8.43,3.2,9.33-1.82A36.53,36.53,0,0,1,631.25,465.4Z"/><path class="cls-2" d="M676.87,524.73c-13.3,3.39-26.22,2.62-39.34-.39a13.14,13.14,0,0,0-4-1.69,6.31,6.31,0,0,0-4.21.58,5.55,5.55,0,0,0-3.75,6.49l0,.12a5.46,5.46,0,0,0,3.85,3.85c1,.28,2.09.55,3.13.81,0,.08.06.17.1.26,1.22,2.71,5.42,5.24,8.13,6.23a33.09,33.09,0,0,0,9.19,1.57,76.78,76.78,0,0,0,9.74,1.49,6.11,6.11,0,0,0,1.16.1l.16,0h.22a5.85,5.85,0,0,0,1.62-.2,28,28,0,0,0,10.2-3.52c2-1.15,4.35-4.3,6.52-4.79a4.73,4.73,0,0,0,3.8-3.62C684.59,528.41,681.73,523.49,676.87,524.73Z"/><path class="cls-1" d="M720,487.36a5.52,5.52,0,0,0-3.3-3.27c-6.93-2.65-14.63.92-19.34,6a24.42,24.42,0,0,0-6.35,16.13,7.16,7.16,0,0,0-1.61,3.32c-.53,3,.77,5.88,3.84,6.78,2.74.79,5.11-.5,7.43-1.62.49.07,1,0,1.53,0l.37,0a4.85,4.85,0,0,0,3.5,2.38c2.31,1.13,5.14.79,6.53-2.25,1.77-3.85.58-7,1-11a16.59,16.59,0,0,1,4.23-9.33,4.81,4.81,0,0,0,1.87-2A4.66,4.66,0,0,0,720,487.36ZM703,514.8a2,2,0,0,0,.5,0h0C703.4,515,703.21,515,703,514.8Z"/><path class="cls-1" d="M740.92,464.19c-2-11-14.75-22.39-23.58-28.24s-18.89-13.31-29.2-16c-5.66-1.46-8.63,5.5-5.65,9a5,5,0,0,0,2.3,2.27c1.84,1,3.39,4.68,4.81,6.34,1.56,1.84,3.45,3.23,4.72,5.32,1,1.68,1.18,3.57,2.2,5.25a16.9,16.9,0,0,0,2.71,3.22,6.44,6.44,0,0,0,.17,1.26A5.61,5.61,0,0,0,702,456c.6.38,6.3,2.26,1.92.62,2.72,1,5.31,2,8.1,2.84a36.31,36.31,0,0,1,9.5,4.76c3.22,2.08,7,3.57,10,5.85a4.51,4.51,0,0,0,3.7,1A5.9,5.9,0,0,0,740.92,464.19Z"/><path class="cls-1" d="M685.3,477.43a19.46,19.46,0,0,1-7.66-5.72c-1.4-1.75-4.25-4.9-4.36-7.25a6,6,0,0,0-.62-3.51,5.84,5.84,0,0,0-5.43-3c-.35,0-.68.1-1,.15a5.54,5.54,0,0,0-1.41,0,5.29,5.29,0,0,0-3.11,1,5.5,5.5,0,0,0-2.69,4.65c0,.34,0,.67,0,1,0,.53.11,2.51.18,1.49l.12.91.09.71a25.16,25.16,0,0,0,.5,8.23,18.78,18.78,0,0,0,1.56,4.62,17.58,17.58,0,0,0,2.69,3.43,4.51,4.51,0,0,0,5,3.3h.11a6.33,6.33,0,0,0,1.35-.27v.08c2.85-1,8.49-.29,11.77.82C689.14,490.34,691.87,479.84,685.3,477.43Z"/><path class="cls-1" d="M642.72,510.31c-.23,0-.51-.06-.8-.09-3.7-5.74-8-11.2-12-16.85-2.55-3.68-8.86-3.58-10.06,1.32l0,.1a5.21,5.21,0,0,0,.61,4.14h0l.11.15.06.09c2.75,3.94,5.7,7.74,8.4,11.73,1.4,2.06,3,3.8,4.25,6,1.6,2.78,3.08,3.41,5.83,3.95a5.62,5.62,0,0,0,1.75.32h.4C647.31,521.25,648.94,511.43,642.72,510.31Z"/><path class="cls-1" d="M636.85,547.41c-8.38-1.3-12.71-7.23-18.54-13.09-3.58-3.59-6.32-7.79-10-11.3a53,53,0,0,0-4.31-3.78,23,23,0,0,1-3.13-2.13,5.48,5.48,0,0,0-1.25-1.29c-3.68-4.13-11.45,1-8.62,6.86a7.77,7.77,0,0,0,1.12,1.61c.14.38.43,1.33.21.43a10.26,10.26,0,0,0,1.39,3.45,36.05,36.05,0,0,0,2.41,3.09c.26.29.53.59.81.87a5.47,5.47,0,0,0,1.27,1c.57.43.47.37-.28-.19a5.56,5.56,0,0,0,2.62,1.41c.57.77,1.15,1.53,1.78,2.26,2.28,2.61,4.64,5.11,6.89,7.73,2.39,2.8,4.46,5.82,7.24,8.29a70.44,70.44,0,0,0,9.48,6.6,4.78,4.78,0,0,0,5.42,0l.14,0,.06,0h0c.42-.12.84-.27,1.27-.38l.28-.06s.9-.1,1.06-.1a5.85,5.85,0,0,0,3.46-1.31C641.65,555.1,642.39,548.27,636.85,547.41Z"/><path class="cls-2" d="M409.61,357c0-2.84-2.93-3.78-4.89-2.82a3.56,3.56,0,0,0-1.49,0C390,356.93,379,363.53,365,362.67c-12.77-.8-24-6.18-37-6.11-10.08.06-32.7,2.21-39.71,12.74a2.92,2.92,0,0,0-2.78,3.13c.67,18.33,1.69,36.65,4,54.92,1.2,9.42,3.76,18.48,6.21,27.63,2.36,8.79,3.32,17.9,6.3,26.52a3.48,3.48,0,0,0,.33.7c.09,16.23,2.54,33,3.64,49.28,1.24,18.23,7.17,35.78,8.17,54,.56,10.12-5,24.73,4.36,32.35,7.06,5.76,19.34,6.92,26.66,1.35a3.5,3.5,0,0,0,1-1.29c8.79-7.1,6.57-18.75,5.71-28.91-1.63-19.15-4.77-38-5.53-57.23-.82-20.62-4-40.77-3-61.47.42-8.12,2.76-15.75,2.51-23.9-.14-4.35,1.66-18.07,6.54-9.54,1.2,2.1,1.35,5.71,1.62,8.08,1.12,9.92-.16,19.77,1.78,29.66,1.65,8.41,4.16,16.58,5.56,25.06,1.9,11.52,1.61,21.93.77,33.45-.73,10.09,1.36,19.91,1.42,30,.05,8.34-1.5,16.8-.32,25.11.79,5.66,2.15,11,2.59,16.78.22,2.85-.19,7,.88,9.85,4.12,10.92,19.43,7.65,26.5,2a2.71,2.71,0,0,0,1.13-2.17,2.92,2.92,0,0,0,1.18-1.84c1.92-8.66,5.58-16.68,6.38-25.58,1-11.44.26-23.17.34-34.65.08-11.89.52-23.73.94-35.6s-1.69-23.54-2.07-35.48c-.35-11.14,3.44-21.16,5-32,1.56-10.56.74-21.14,1.37-31.76.64-10.81,4.4-21.24,4.81-32C412.8,376.09,409.54,366.58,409.61,357Zm-9.53,89.24-.16-.18c.18-1.07.35-2.15.5-3.23-.08,1-.16,2-.28,3C400.13,446,400.1,446.08,400.08,446.22Zm-84,40.42c.33,2.61.63,5.22.8,7.84.12,1.71.2,3.41.31,5.12-.06-.66-.15-1.32-.2-2C316.68,493.94,316.39,490.28,316.06,486.64ZM341.2,391.2a1,1,0,0,0,0-.17l.15.13Zm-25.61,43.46c0,.17-.07.33-.1.49,0-.13-.06-.26-.08-.39Zm67,41.25.25,0c-.1,1.93-.17,3.85-.24,5.78C382.61,479.84,382.6,477.91,382.61,475.91Zm-2.68-30.51c0-.55.06-1.1.08-1.66.39-.61.75-1.23,1.09-1.85,0,.07,0,.14,0,.2A34.39,34.39,0,0,0,379.93,445.4ZM377.45,393c-.18.93-.39,1.86-.63,2.81C377,394.83,377.22,393.89,377.45,393Zm-9.7,47.24c.05.27.09.54.14.81l-.47,0C367.54,440.78,367.64,440.49,367.75,440.21Zm-31.21,39.16c.07-1,.14-1.92.23-2.88,0,1,0,1.95,0,2.92Zm39.69,14.11,0,.49-.09-.39Zm-74.93-81.2c.06.83.13,1.65.2,2.48l-.05,0c-.14-.84-.27-1.69-.41-2.53ZM295,416.35c.06.31.11.61.17.92h-.07C295.05,417,295,416.66,295,416.35ZM336.57,615.6l.07.07-.16,0Zm8.28-30.41c-.06-.75-.11-1.48-.18-2.24q-.26-3-.52-5.92.47,4,.86,8.12Zm56.48-171.47a.37.37,0,0,1,0,.11l-.28-.16.45-1.23C401.44,412.87,401.37,413.29,401.33,413.72Z"/><path class="cls-1" d="M447,209.27c-3.17-8.69-8.18-16.27-12.38-24.55-5-9.77-6.91-21.22-13-30.42-5.9-8.9-17.28-12.47-28.09-14A27.46,27.46,0,0,0,380.93,136c-9.13-1.12-16.87-6.74-26.25-7.13-15.18-.64-29.64,2.41-41.58,11.23a3.22,3.22,0,0,0-2,.91c-2.83,2.67-7.14,4.27-11.51,5.76a16.79,16.79,0,0,0-3.79.79,3.39,3.39,0,0,0-1.5,1.07,36,36,0,0,0-4.72,2.08c-7.82,4.31-14.34,9.52-19.49,16.85-11.92,16.94-10.16,39.67-24.07,55.68a3.3,3.3,0,0,0-.84,1.95,3.18,3.18,0,0,0-.13.78c-.36,6.32,6.18,8.13,11,9.71,3.75,1.22,6.31,3.54,9.71,5.42,4.77,2.65,9.25,2.31,14.52,2.2a3.09,3.09,0,0,0,2.41-1.11,2.73,2.73,0,0,0,1.17-3.46c-.62-1.7-2.08-3.43.4-4.06,1.61-.42,2.73.63,3.69,1.79a23.3,23.3,0,0,1,4.34,9.48,3.27,3.27,0,0,0,.56,1.25c.87,10.91.53,19.6-3.44,30.51a117,117,0,0,0-6.07,27.23c-1.23,10.7-2.16,21.39-3.58,32.08-.88,6.6-1.67,13,.4,19.42a3.69,3.69,0,0,0,4.12,4.06c11.14-1.61,22-6.85,33.22-9,13.87-2.6,26.19.4,39.84,2.35a55,55,0,0,0,24.68-2.15c9.33-3,25-10.08,35-6,2.47,1,4.06-1.13,3.95-3.26a3,3,0,0,0,.5-2.75c-2.26-8.3-2.28-18-3.5-26.5-1.44-10.12-4.85-19-7.6-28.79-3.13-11.13-3.82-23.67-4-35.22-.08-4.94,0-9.93.14-14.86q0-3.65.32-7.28-1.74-7.2,4.71-7.4c-1.74,2.46.62,4.82,3,4.78,8.84,6.79,23.07-2.83,31.26-8.27a3.37,3.37,0,0,0,1.8-1.25A3.49,3.49,0,0,0,447,209.27ZM318.61,336.38l.48-.11-.07,0Zm46.17-47c.11-.2.22-.4.32-.6-.06.23-.14.46-.21.69Zm-29.26-49.09c0-.07,0-.14-.07-.2l.28-.27Zm-9.86,44.88c2.69-5.1,5.32-10.21,7.85-15.36-1.44,3.23-2.95,6.42-4.56,9.57C327.94,281.35,326.82,283.27,325.66,285.16Zm-15,22.64-.56,1c0-.11,0-.22,0-.33C310.26,308.26,310.43,308,310.63,307.8Zm26.43-91-.44.48c-.32-.75-.66-1.49-1-2.23C336.09,215.64,336.57,216.22,337.06,216.8Zm30.31,96.86c.34-.42.68-.86,1-1.3l-.58,1.39ZM349,206c0,.18-.09.36-.13.54-.2-.47-.41-.94-.62-1.42Zm30.93,58.94L380,262l.15-.81Q380.08,263.06,379.94,264.91Zm-18.77-109.7c-1.42,0-2.84.09-4.25.18,1.42-.12,2.84-.19,4.26-.2Zm-36,13.66c0,.22.09.44.13.66l-.39-.53Zm-8.25,5.25.21.39c-.08-.12-.18-.23-.27-.34Zm80.73,16.12.09.82-.23.12C397.54,190.87,397.59,190.55,397.63,190.24Zm-53.74-39.19-.16,0h0Zm-48.46,18.59a21.35,21.35,0,0,1,5.26-5.34Q297.91,166.93,295.43,169.64Zm8.93,69.52v0Zm95.3,68.26c0-.38-.07-.77-.11-1.15.12.3.24.6.35.91A1.81,1.81,0,0,0,399.66,307.42Zm-129.32-81.2,0,.1-.18-.28Zm129.21,22.87c.05-.4.1-.8.14-1.22,0,3.89.08,7.79.29,11.69A62.33,62.33,0,0,1,399.55,249.09ZM411,330.72h0c.1-.78.16-1.56.21-2.35.12,1,.21,1.82.23,2.55A3.17,3.17,0,0,0,411,330.72Zm-7.81-117.65c.11-.13.26-.23.38-.35-.14.27-.26.56-.39.84C403.21,213.4,403.21,213.23,403.21,213.07ZM276.39,235.85c0,.3.05.59.1.89h-.95A3.56,3.56,0,0,0,276.39,235.85Zm23.76,113.64c.11,0,.21.08.32.1l-1.9.59ZM405.38,150.41a2.91,2.91,0,0,0-.59.36l-.6-.37a12,12,0,0,0-1-.73c.45.14.92.26,1.37.42ZM268.21,234.77l.37.21h0a2.12,2.12,0,0,1-.21-.11ZM391.87,341.29c1.75-.52,3.51-1,5.28-1.33-1.42.33-2.79.67-4,1C392.69,341.05,392.28,341.17,391.87,341.29ZM406.2,209.38a1.69,1.69,0,0,0,0-.23,9,9,0,0,1,2-1.06A8.19,8.19,0,0,0,406.2,209.38Zm5.09-2,.39,0,0,0Z"/><path class="cls-3" d="M454.26,226.62a3,3,0,0,0-1-1.3c-.74-1.55-1.73-3-2.48-4.55a3.34,3.34,0,0,0-4.52-1.18,3.39,3.39,0,0,0-1.19,4.52c.48,1,1.07,1.9,1.63,2.84a7,7,0,0,1,1.05,2.56,2.87,2.87,0,0,0,1.45,1.91c4.44,10.47,9.6,24.2-2,31.91-9.11,6.06-18.57,4.71-28.88,4.78a3.61,3.61,0,0,0-1.14.21h-3.25a3.31,3.31,0,1,0,0,6.61h5.31a3.09,3.09,0,0,0,1.08-.21c12.71,0,26.22.83,35.56-9.88C465.59,253.72,459.2,238.19,454.26,226.62Z"/><path class="cls-3" d="M352.87,52.06c-13.81-17.53-31.76-10.94-49.15-3-5.56,2.54-13,6.36-14.16,13.12-.45,2.59.31,4.68,1.17,7.07,1.54,4.28,3.6,7.71,4.78,12.15.36,1.36.51,2.66.93,4a11,11,0,0,0,.77,3.71c.92,3,.43,9.36.29,11.83A26.08,26.08,0,0,0,299,111.45a97.79,97.79,0,0,0,4.45,10.86c-1.86,1.34-3.32,4-4.2,5.51-2.52,4.29-2.66,9-4.42,13.57-1.53,4,4.85,5.69,6.37,1.75,1.25-3.23,1.21-6.88,2.66-10a29.89,29.89,0,0,1,1.66-2.91c.29-.46.7-1,1-1.48,1.13,2.33,2.24,4.66,3.27,7,1.69,3.89,7.39.53,5.7-3.34-4.81-11-11.19-20.75-11.07-33.13a53.4,53.4,0,0,0-.26-9.49l.06-.15a.71.71,0,0,1,.29.11c.31.16,1.06,0,1.43,0a5.93,5.93,0,0,1,4.14,3.48c1.67,3.47.7,7.29-.67,10.67-1.49,3.67,3.95,5.41,6,2.48,7,3.8,14.65,7.58,22.5,6,5.15-1,10.9-1,16-2.23l.2-.06a67.44,67.44,0,0,1,1.94,7.36c.67,2.93.74,6,1.6,8.89,1.23,4.06,7.61,2.33,6.38-1.75-.85-2.8-.95-6-1.61-8.9a53.88,53.88,0,0,0-2.42-8.65c.22-.2.45-.36.66-.58C374.5,91.87,363,65,352.87,52.06Zm-47.76,76.05a3.26,3.26,0,0,0,1.21.23l0,.07A4,4,0,0,1,305.11,128.11Zm-1-38.44v0h0Zm.14-.18a3.52,3.52,0,0,0,.17-.39A1.91,1.91,0,0,1,304.26,89.49Zm13.47,10.67a3.45,3.45,0,0,0-.46-.19c.72-5.39-.52-11-5.16-14.45a12.93,12.93,0,0,0-9.39-2.21C301.54,79.9,301,75.89,300,72.47s-3.51-8.76-1.5-12.69c.86-1.69,5.76-3.72,7.6-4.6,5.85-2.77,12.28-6,18.56-7.47,10.87-2.5,19.25,2.64,25.18,11.34,3.47,5.1,7.05,11.14,8.62,17.09s2.69,19.23-1.76,24.56c-3.6,4.32-10.93,3-15.83,3.51C331.69,105.16,326.07,104.75,317.73,100.16Z"/><path class="cls-3" d="M272.4,248.22c-2.76,5.43-5.38,10.72-10.38,14.44-3.8,2.82-10.1,7.52-14.79,5.6-8.37-3.42-7.23-23.15-1.58-28.77,3-3-1.65-7.67-4.67-4.67-8.58,8.52-9,31.26,1.42,38.72,5.77,4.15,13.23.83,18.63-2.35,8.27-4.86,12.79-11.2,17.08-19.64C280,247.77,274.34,244.42,272.4,248.22Z"/><path class="cls-3" d="M414,250.27c-.16.12-.15.14,0,0Z"/><path class="cls-3" d="M414.61,249.48h0a6.81,6.81,0,0,1-.66.79,3.4,3.4,0,0,1,.43-.27h0c.21-.05.43-.16.63-.23l.27-.08a2.45,2.45,0,0,0,1.36-.13c.71-.28,1.39-.61,2.07-.94a27,27,0,0,0,1.36,6.5c1.55,3.9,7.94,2.2,6.37-1.76-1.21-3.06-1.12-6.34-1.88-9.5a85.29,85.29,0,0,0-2.69-9.69c-1.46-4-7.85-2.25-6.37,1.76a59.36,59.36,0,0,1,1.82,6.13l-.09,0c-.53.22-1.05.45-1.56.7-2.47.37-5.27,1.28-6.72,3.28a3.3,3.3,0,0,0,5.65,3.41Z"/><path class="cls-3" d="M342.84,628.51c1.53,2.59,4.75,10.77,3.47,13.11-2.74,5-9.67,4.62-13.81,2.68-1.69-.79-3.8-2.67-5.47-3.41-2.56-1.13-5-1.22-7.64-1.8-3.68-.8-6.36-2.62-9.15-4.54,1.73-.56,3.77-.81,5.14-1.35,2.92-1.14,6.17-2.81,6.3-6.36.17-4.25-6.44-4.24-6.61,0,.05-1.27.29-.86-.81-.32a13.31,13.31,0,0,1-1.46.62c-1.13.41-2.29.67-3.45,1-3.15.8-6.1,2.06-7.71,5.06a3.13,3.13,0,0,0,.19,3.41,3.23,3.23,0,0,0,1.15,1.11c3.12,1.84,5.4,4.92,8.61,6.53,3.42,1.71,7.15.69,10.63,1.79,4.09,1.3,6.84,5,11.21,6a22.16,22.16,0,0,0,9.69.14c13.09-3,10.74-18,5.43-27C346.38,621.52,340.67,624.84,342.84,628.51Z"/><path class="cls-3" d="M406.2,631.52a8.45,8.45,0,0,0-3.21-2.31c-3.71-1.76-5.87-2.46-7.33-6.87-1.33-4-7.72-2.29-6.37,1.76s3.47,7.91,7.52,9.94c2.56,1.27,4.53,1.2,1.48,3.2-1.5,1-4.24,1.28-5.94,1.85-4.76,1.6-15.37,6.66-20,2.65-3.31-2.89-.07-10.2.14-13.84.24-4.25-6.37-4.23-6.61,0-.36,6.13-3.87,14,2,18.68,6.25,5.06,16.21,2.35,22.93.06,4.9-1.67,14-2.86,16.44-8.14A6.54,6.54,0,0,0,406.2,631.52Z"/></g></g></svg>