<svg xmlns="http://www.w3.org/2000/svg" viewBox="0 0 128.339 106.525">
  <defs>
    <style>
      .cls-1 {
        fill: #fff;
      }

      .cls-2 {
        fill: #f298ce;
      }

      .cls-3 {
        fill: none;
      }

      .cls-4 {
        fill: #26bf59;
      }

      .cls-5 {
        fill: #0b71d7;
      }

      .cls-6 {
        fill: #f4564e;
      }

      .cls-7 {
        fill: #fcd41b;
      }

      .cls-8 {
        fill: #111;
      }
    </style>
  </defs>
  <g id="new_logo" transform="translate(0 0.025)">
    <g id="Layer_1" data-name="Layer 1" transform="translate(0 -0.025)">
      <path id="Path_433" data-name="Path 433" class="cls-1" d="M110.385,59.285c-.97-6.712-3.878-11.627-8.637-14.637l-.353-.231a21.574,21.574,0,0,0-16.766-2.034l-.129.054c-2.908.908-5.9,2.278-12.759,9.458l-.82.834C65.552,58,61.694,64.22,59.138,68.288v.047c-.251.386-.481.759-.678,1.105l-.447.678L56.46,72.546l2.712,1.064a175.069,175.069,0,0,1,15.851,7.7A27.647,27.647,0,0,0,88.2,84.7h0a27.8,27.8,0,0,0,7.864-1.132l.264-.054a6.037,6.037,0,0,0,.956-.21C99.877,82.485,113.029,77.339,110.385,59.285Z" transform="translate(-18.182 -13.356)"/>
      <path id="Path_434" data-name="Path 434" class="cls-2" d="M71.093,80.522c.678-2.169,2.407-4.027,1.688-6.454a22.272,22.272,0,0,0-1.614-3.017c-.488-1.03-.576-2.447.319-3.153.386-.305.99-.617.834-1.078a.848.848,0,0,0-.292-.366,35.154,35.154,0,0,0-2.99-2.312,2.1,2.1,0,0,0-.678-.353.9.9,0,0,0-.868.285A91.364,91.364,0,0,0,58.564,76.78l-.047.075c-.278.42-.522.814-.759,1.18s-.332.536-.488.78a1.126,1.126,0,0,0-.169.61c.054.23.508.434.508.434A145.557,145.557,0,0,1,72,86.637c-1.356-.678-1.308-4.59-.99-5.824C71.032,80.719,71.066,80.617,71.093,80.522Z" transform="translate(-18.388 -20.519)"/>
      <path id="Path_435" data-name="Path 435" class="cls-3" d="M118.626,103.68c-.583.244-1.064.414-1.356.515C117.562,104.094,118.043,103.9,118.626,103.68Z" transform="translate(-37.765 -33.372)"/>
      <path id="Path_436" data-name="Path 436" class="cls-3" d="M130.76,93.893a19.245,19.245,0,0,0,2.2-3.193h0a19.244,19.244,0,0,1-2.2,3.193Z" transform="translate(-42.109 -29.192)"/>
      <path id="Path_437" data-name="Path 437" class="cls-3" d="M57.694,89.231,57.05,89Z" transform="translate(-18.372 -28.644)"/>
      <path id="Path_438" data-name="Path 438" class="cls-3" d="M54.31,87.081h0L55.388,85.4Z" transform="translate(-17.49 -27.485)"/>
      <path id="Path_439" data-name="Path 439" class="cls-3" d="M101.485,44.4l-.285-.156c-5.681-3.3-12.881-3.119-16.271-1.905l-.2.081c-2.929.915-5.939,2.278-13.139,9.81l-.9.922c-5.708,5.58-9.817,12.21-12.529,16.59l-.047.075c-.278.427-.529.82-.759,1.186s-.332.536-.488.773l-.468.732.807.319c1.064.427,6.719,2.78,17.437,8.468a28.231,28.231,0,0,0,13.437,3.437,28.677,28.677,0,0,0,8.02-1.153,3.959,3.959,0,0,1,.549-.115,4.483,4.483,0,0,0,.725-.163,19.613,19.613,0,0,0,10.766-8.712c2.034-3.6,3.254-8.569,2.258-15.369S106.386,47.341,101.485,44.4Z" transform="translate(-18.163 -13.358)"/>
      <path id="Path_440" data-name="Path 440" class="cls-1" d="M110.877,58.069c-1.051-7.288-4.21-12.63-9.383-15.9l-.386-.251a23.4,23.4,0,0,0-18.2-2.2l-.142.061c-3.159.99-6.407,2.475-13.864,10.271l-.881.9C62.192,56.68,58,63.419,55.223,67.9l-.034.054c-.271.414-.529.814-.766,1.193-.163.264-.325.522-.481.759L52.26,72.544,55.189,73.7c1.01.407,6.583,2.712,17.214,8.373A30.088,30.088,0,0,0,86.714,85.71h0a30.314,30.314,0,0,0,8.533-1.226,2.134,2.134,0,0,1,.287-.062,6.033,6.033,0,0,0,1.037-.231C99.473,83.263,113.778,77.676,110.877,58.069ZM106.809,73.7a19.614,19.614,0,0,1-10.766,8.712,4.48,4.48,0,0,1-.725.163,3.964,3.964,0,0,0-.549.115,28.677,28.677,0,0,1-8.02,1.153,28.23,28.23,0,0,1-13.437-3.437c-10.746-5.688-16.4-8.041-17.464-8.468l-.807-.319.468-.732c.156-.237.319-.5.488-.773s.481-.759.759-1.186l.047-.075c2.712-4.38,6.847-11.01,12.529-16.59l.9-.922c7.2-7.532,10.21-8.895,13.139-9.81l.2-.081c3.39-1.214,10.617-1.4,16.271,1.905l.285.156c4.9,2.942,7.892,7.932,8.888,14.82s-.19,11.783-2.231,15.369Z" transform="translate(-16.83 -12.473)"/>
      <path id="Path_441" data-name="Path 441" class="cls-4" d="M105.035,81.7a10.041,10.041,0,0,0-.149-1.749c-.17-.983-.42-2.353-1.295-2.969a4.129,4.129,0,0,0-1.559-.576,5.085,5.085,0,0,0-2.793.346,7.017,7.017,0,0,0-1.905,1.071,3.234,3.234,0,0,0-1.356,1.959c-.244,1.485.515,3.058,1.132,4.386a29.034,29.034,0,0,0,2.712,4.427c.9,1.281,1.241,1.708,2.149,2.895.041.047.136,0,.136-.088a5.966,5.966,0,0,1,.773-2.407,27.146,27.146,0,0,0,2.034-5.722,10.516,10.516,0,0,0,.122-1.573Z" transform="translate(-30.893 -24.567)"/>
      <path id="Path_442" data-name="Path 442" class="cls-5" d="M119.608,74.527c-6.583-2.712-10.549-9.322-10.759-16.325a20.3,20.3,0,0,1,.136-3.01,20.813,20.813,0,0,1,3.878-9.844c.2-.264.413-.59.3-.9a.976.976,0,0,0-.542-.468,19.458,19.458,0,0,0-3.756-1.356c-.271-.068-.6-.115-.793.081a.861.861,0,0,0-.149.637c.163,6.393-4.881,11.525-8.888,15.654a13.423,13.423,0,0,0-2.42,3.329,11.606,11.606,0,0,0-1.261,5.024s0,.034.041,0a7.105,7.105,0,0,1,3.451-2.671,10.049,10.049,0,0,1,3.207-.346c2.339.3,3.451,2.651,3.647,5a15.261,15.261,0,0,1-1.586,7.953,20.005,20.005,0,0,0-.9,2.319l-.386,1.18a1.593,1.593,0,0,0-.149,1.085,3.227,3.227,0,0,0,.461.814l.624.922a2.034,2.034,0,0,0,.678.793,2.237,2.237,0,0,0,1.356.17,19.034,19.034,0,0,0,14.237-8.644.942.942,0,0,0-.42-1.4Z" transform="translate(-30.706 -13.69)"/>
      <path id="Path_443" data-name="Path 443" class="cls-6" d="M128.323,67.323a7.064,7.064,0,0,0,4.637,2.827h.1a.393.393,0,0,0,.447-.359c.366-4.508-.447-9.98-2.881-13.878a.393.393,0,0,0-.617-.061,10.232,10.232,0,0,0-3.064,8.014A7.186,7.186,0,0,0,128.323,67.323Z" transform="translate(-40.866 -17.93)"/>
      <path id="Path_444" data-name="Path 444" class="cls-7" d="M123.942,64.911a8.97,8.97,0,0,1-1.4-7.939,14.082,14.082,0,0,1,3.586-5.424.38.38,0,0,0,.041-.488,17.484,17.484,0,0,0-4.542-4.529c-.678-.454-1.092.251-1.546.969-3.681,5.756-4.861,12.027-2.3,18.461a16.807,16.807,0,0,0,8.319,8.807,1.837,1.837,0,0,0,2.508-.929,18.535,18.535,0,0,0,1.322-5.125.386.386,0,0,0-.325-.427A9,9,0,0,1,123.942,64.911Z" transform="translate(-37.488 -14.922)"/>
      <path id="Path_445" data-name="Path 445" class="cls-7" d="M87.059,60.005c-1.031-.61-.847-1.973-.678-2.976a5.959,5.959,0,0,0-.59-3.993,5.851,5.851,0,0,0-1.559-1.864,4.468,4.468,0,0,0-2.19-1.071c-.319,0-.861.678-1.092.9l-1.22,1.159c-.922.895-1.81,1.824-2.712,2.712l-.922.956c-.678.631-1.132,1.125-1.654,1.688s-.129,1.064.312,1.458c.61.536,1.241,1.037,1.878,1.539a46.14,46.14,0,0,0,7.824,5.424c.624.339,1.254.678,1.885.983a1.837,1.837,0,0,0,.847.271c.454,0,.678-.386.834-.753.271-.617.468-1.247.78-1.851a16.27,16.27,0,0,1,1.4-2.237c.258-.359.536-.678.814-1.058a11.576,11.576,0,0,0,.827-.983c.041-.1-.508-.054-.549-.047-.678.047-1.356.156-2.034.149a4.908,4.908,0,0,1-2.2-.407Z" transform="translate(-23.893 -16.117)"/>
      <path id="Path_446" data-name="Path 446" class="cls-2" d="M103.08,49.028a12.454,12.454,0,0,0,1.356-3.939,7.851,7.851,0,0,0,.1-2.549,1.561,1.561,0,0,0-1.356-1.1,16.388,16.388,0,0,0-6.19.183,21.993,21.993,0,0,0-5.105,1.512,17.227,17.227,0,0,0-4.319,3,.258.258,0,0,0,.075.434c.386.149.881.353,1.105.447A5.729,5.729,0,0,1,91.907,50.9a6.1,6.1,0,0,1,.068,2.508c-.149.82-.678,1.573-.129,2.38a1.6,1.6,0,0,0,1.417.678c.881,0,1.756-.041,2.637-.068a2.159,2.159,0,0,0,1.736-.427A33.351,33.351,0,0,0,103.08,49.028Z" transform="translate(-28.172 -13.255)"/>
      <path id="Path_447" data-name="Path 447" class="cls-6" d="M96.845,91.717c-1.437-1.837-3-3.573-4.312-5.505a21.973,21.973,0,0,1-2.807-5.871,13.743,13.743,0,0,1-.6-4.895.989.989,0,0,0-.041-.468.894.894,0,0,0-.278-.319,10.217,10.217,0,0,0-1.885-1,22.394,22.394,0,0,1-5.973-3.749A.807.807,0,0,0,80,69.866c-.678.468-1.261.773-1.247,1.647,0,1.6,1.763,2.712,2.163,4.237.529,2.068-1.275,4.244-1.885,6.292a8.434,8.434,0,0,0,0,4.231,15.453,15.453,0,0,0,.678,2.108,4.548,4.548,0,0,0,.346.888,2.461,2.461,0,0,0,.8.583,28.861,28.861,0,0,0,12.881,3.919c.522,0,1.044.047,1.566.047h.57C97.258,93.785,97.719,92.836,96.845,91.717Z" transform="translate(-25.36 -22.439)"/>
      <path id="Path_448" data-name="Path 448" class="cls-1" d="M102.767,62.624C100.99,56.461,97.573,52.19,92.6,49.946a19.34,19.34,0,0,0-14-.678,3.131,3.131,0,0,0-.325.122c-.237.1-5.878,2.454-12.793,8.976l-.047.047a3.18,3.18,0,0,0-.393.508c-.576.569-1.132,1.159-1.681,1.763a51.1,51.1,0,0,0-7.112,9.953l-.156.258c-.427.732-.8,1.356-1.139,1.871l-1.79,2.712L56.2,76.563c.495.19,5.125,2.034,14.068,6.556a35.383,35.383,0,0,0,15.363,3.77H86.1A16.853,16.853,0,0,0,88.2,86.76a16.4,16.4,0,0,0,2.2-.42l.237-.041a8.623,8.623,0,0,0,.888-.2,18.881,18.881,0,0,0,8.712-5.871C102.787,77.078,105.3,71.458,102.767,62.624ZM98.807,79.065a17.017,17.017,0,0,1-7.79,5.275c-.217.061-.441.108-.631.142s-.285.047-.427.081a15.144,15.144,0,0,1-3.485.481H85.7A33.4,33.4,0,0,1,71.14,81.471C62.326,77,57.729,75.166,56.9,74.827l-.895-.3.488-.739c.366-.542.753-1.2,1.193-1.959l.169-.285a49.328,49.328,0,0,1,6.888-9.634c.549-.6,1.105-1.193,1.688-1.77l.142-.183a2.162,2.162,0,0,1,.217-.292c6.658-6.264,12.142-8.556,12.251-8.6l.115-.041.136-.047a17.715,17.715,0,0,1,12.549.678c4.447,2.034,7.519,5.885,9.132,11.525C103.289,71.2,101.065,76.258,98.807,79.065Z" transform="translate(-17.119 -15.529)"/>
      <path id="Path_449" data-name="Path 449" class="cls-1" d="M102.464,63.8c-1.627-5.654-4.746-9.566-9.308-11.627a17.863,17.863,0,0,0-12.841-.637,1.621,1.621,0,0,0-.3.115c-.217.088-5.424,2.244-11.729,8.224l-.047.041a4.747,4.747,0,0,0-.359.468c-.529.529-1.037,1.071-1.539,1.62a46.645,46.645,0,0,0-6.536,9.146l-.142.237c-.393.678-.732,1.254-1.044,1.715L57,75.575l2.786,1.017c.454.183,4.7,1.864,12.881,6.014a32.386,32.386,0,0,0,14.081,3.458h.434a16.792,16.792,0,0,0,1.932-.115,15.743,15.743,0,0,0,2.034-.386l.224-.041c.258-.047.515-.1.807-.183a17.3,17.3,0,0,0,7.986-5.383C102.485,77.053,104.783,71.9,102.464,63.8Z" transform="translate(-18.356 -16.29)"/>
      <path id="Path_450" data-name="Path 450" class="cls-4" d="M93.074,59.866a31,31,0,0,0-2.461-4.6c-.481-.746-1-1.471-1.546-2.169a4.373,4.373,0,0,0-.807-.956c-.407-.278-.678-.054-1.105.088l-.115.041a47.254,47.254,0,0,0-8.99,5.749c-.237.19.264.271.569.3,1.41.136,3.037.237,4.366.4,1.871.224,3.444.353,5.424.6,1.4.183,2.786.6,4.176.719C92.864,60.062,93.183,60.137,93.074,59.866Z" transform="translate(-25.115 -16.731)"/>
      <path id="Path_451" data-name="Path 451" class="cls-7" d="M108.681,58.617c.678-.129,1.41-.176,2.108-.3.583-.1.61-.441.292-.929a12.509,12.509,0,0,0-6.014-4.888,17.186,17.186,0,0,0-6.176-1.512c-.583,0-4.671-.2-4.671.6a.9.9,0,0,0,.312.583,23.464,23.464,0,0,1,3.817,5.932,2.963,2.963,0,0,0,.895,1.315,3.959,3.959,0,0,0,1.844.339,11.769,11.769,0,0,0,2.847-.041c1.573-.23,3.071-.793,4.624-1.105Z" transform="translate(-30.342 -16.397)"/>
      <path id="Path_452" data-name="Path 452" class="cls-5" d="M79.007,86.919a11.98,11.98,0,0,1-2.569-1.607,6.779,6.779,0,0,1-1.078-2.325c-.678-1.9-2.034-2.366-3.912-2.034a2.956,2.956,0,0,0-1,.285c-.847.475-.488,1.356-.17,2.034A17.423,17.423,0,0,0,71.569,85.4a10.475,10.475,0,0,1,1.356,4.854c1.288.631,2.034,1,3.58,1.783a25.925,25.925,0,0,0,6.007,2.271,23.151,23.151,0,0,0-1.254-4.163,6.373,6.373,0,0,0-2.156-3.1Z" transform="translate(-22.519 -26.021)"/>
      <path id="Path_453" data-name="Path 453" class="cls-7" d="M84.924,90.241c-2.034-1.817-3.315-4.346-4.895-6.536a56.743,56.743,0,0,0-6.23-7.458c-2.414-2.332-5.153-4.366-7.668-6.583a.549.549,0,0,0-.766.041A45.168,45.168,0,0,0,61.3,75.048q-.915,1.41-1.742,2.875c-.17.312-1.227,2.712-1.573,2.712,0,0-.285.427-.217.631s.556.407.556.407c3.39,1.261,6.705,2.942,9.986,4.515a7.593,7.593,0,0,0-1.037-4.251c-.746-1.268-2.969-3.654-.868-4.847a3.791,3.791,0,0,1,1.241-.393,4.793,4.793,0,0,1,2.766.149c1.966.881,1.566,3.458,3.166,4.658a13.026,13.026,0,0,0,1.647.929,6.2,6.2,0,0,1,2.936,3.688,39.322,39.322,0,0,1,1.261,4.658.393.393,0,0,0,.061.156.42.42,0,0,0,.21.108,28.92,28.92,0,0,0,3.39.549,22.154,22.154,0,0,0,3.668.217c.095,0-.3-.346-.312-.359C85.934,91.082,85.412,90.675,84.924,90.241Z" transform="translate(-18.599 -22.374)"/>
      <path id="Path_454" data-name="Path 454" class="cls-2" d="M110.019,72.887A7.749,7.749,0,0,1,110.1,75.6a4.915,4.915,0,0,0,1.627,3.749,3.6,3.6,0,0,0,4.929-.576c1.125-1.18,1.288-2.963,1.288-4.515a23.3,23.3,0,0,0-.976-6.475,19.071,19.071,0,0,0-1.62-4.264,1.783,1.783,0,0,0-.447-.556c-.678-.508-2.075-.108-2.834.054-1.092.23-2.156.576-3.227.881a15.091,15.091,0,0,1-6.1.38.21.21,0,0,0-.217.3c.19.522.305.719.495,1.3a39.252,39.252,0,0,1,1.295,5.356.244.244,0,0,0,.075.149.231.231,0,0,0,.136,0,14.919,14.919,0,0,1,3.729,0,2.515,2.515,0,0,1,1.668,1.193A1.674,1.674,0,0,0,110.019,72.887Z" transform="translate(-33.009 -20.179)"/>
      <path id="Path_455" data-name="Path 455" class="cls-4" d="M117.447,83.971a4.949,4.949,0,0,1-1.444,1.1c-2.034,1.044-4.637-.583-5.424-2.814a9.017,9.017,0,0,1-.353-3.275,3.186,3.186,0,0,0-.21-1.6,2.312,2.312,0,0,0-1.986-1.064,8.962,8.962,0,0,0-2.759.21c-.332.088-.176,3.661-.142,4.068.183,2.149.929,3.254,1.186,5.736.1.983,0,1.973.041,2.963s.264,1.939.237,2.922c0,.339-.19,1.186.2,1.356.278.129.739-.129,1-.2a17.017,17.017,0,0,0,7.81-5.275,12.637,12.637,0,0,0,2.576-4.834C118.234,83.042,117.732,83.679,117.447,83.971Z" transform="translate(-33.834 -24.551)"/>
      <path id="Path_456" data-name="Path 456" class="cls-5" d="M93.572,66.6c-.129,2.305-.678,4.685-2.712,6a.637.637,0,0,0-.292.6c.075.637.617.556,1.22.834A7.4,7.4,0,0,1,94.853,76.9a8.475,8.475,0,0,0,1.776,2.353c1.193,1.03,2.068.97,3.688.793a21.925,21.925,0,0,1-.739-5.18,22.67,22.67,0,0,0-.359-4.8c-.393-1.654-.583-3.092-1.112-4.705a1.112,1.112,0,0,0-1.051-.678c-.556-.068-1.112-.129-1.661-.217a10.053,10.053,0,0,0-1.614-.231c-.169-.054-.169.258-.163.434A13.607,13.607,0,0,1,93.572,66.6Z" transform="translate(-29.165 -20.668)"/>
      <path id="Path_457" data-name="Path 457" class="cls-6" d="M94.069,80.661a1.058,1.058,0,0,0-.712-.278,10.847,10.847,0,0,0-1.146.061,3.837,3.837,0,0,1-3.193-1.8c-1.478-2.115-2.414-4.122-4.976-5.105a1.193,1.193,0,0,1-.807-1.641,4.448,4.448,0,0,1,.983-1.132c1.756-1.742,2.183-4.427,2.075-6.895a.773.773,0,0,0-.142-.495.814.814,0,0,0-.468-.183c-3.132-.468-6.264-.936-9.424-1.159A2.881,2.881,0,0,0,73.4,63.068q-1.417,1.356-2.712,2.868a.536.536,0,0,0-.183.373.5.5,0,0,0,.169.285,52.206,52.206,0,0,0,4.353,3.641,55.038,55.038,0,0,1,11.1,12.2,19.477,19.477,0,0,0,2.8,4.014c1.173,1.064,2.231,1.912,3.39,2.861a.217.217,0,0,0,.156.061,14.236,14.236,0,0,0,1.932-.183c.678-.095.251-2.861.23-3.315l-.169-4.129A1.539,1.539,0,0,0,94.069,80.661Z" transform="translate(-22.707 -19.94)"/>
      <path id="Path_458" data-name="Path 458" class="cls-1" d="M99.021,63.892a12.59,12.59,0,0,0-8.759-3.932h-.847A14.948,14.948,0,0,0,81.1,63.777a20.256,20.256,0,0,0-2.468,2.475l-.054.061a29.79,29.79,0,0,0-5.837,12.881c-.088.434-.156.868-.237,1.281-1.125,6.1-1.783,10.325-2.034,12.786l-.1,1.03,1-.278c.793-.217,4.942-1.295,13.024-2.712a30.509,30.509,0,0,0,9.62-3.519,27.038,27.038,0,0,0,6.1-4.475l.041-.041a16.393,16.393,0,0,0,3.458-7.01C104.343,72.733,103.692,68.326,99.021,63.892Z" transform="translate(-22.662 -19.292)"/>
      <path id="Path_459" data-name="Path 459" class="cls-1" d="M99.057,82.364a27.193,27.193,0,0,1-6.1,4.475A30.549,30.549,0,0,1,83.348,90.4c-8.081,1.41-12.2,2.488-13.024,2.712l-1,.278.1-1.031c.224-2.461.888-6.651,2.034-12.786.075-.414.156-.841.237-1.281,1.241-6.739,5.8-12.82,5.837-12.881l.054-.061c.807-.969,5.078-5.851,10.78-6.264h.847c3.078,0,6.02,1.322,8.766,3.932,8.949,8.495,3.153,16.949,1.112,19.356Zm.21-20.739c-3.39-3.234-7.105-4.746-11.037-4.407-6.278.475-10.847,5.424-12.095,7-.047.054-4.929,6.536-6.258,13.736l-.312,1.708c-1.092,5.959-1.729,10.068-1.959,12.522l-.366,3.736,3.641-1.024c.732-.2,4.814-1.261,12.807-2.658a32.915,32.915,0,0,0,11.241-4.373,27.471,27.471,0,0,0,5.424-4.19l.115-.115C102.115,81.631,109.694,71.523,99.267,61.625Z" transform="translate(-21.654 -18.394)"/>
      <path id="Path_460" data-name="Path 460" class="cls-7" d="M88.341,97.157a7.5,7.5,0,0,0-2.8-2.2,8.021,8.021,0,0,0-3.166-.095c-.956.081-1.905-.122-2.861-.054a.217.217,0,0,0-.19.291,2.183,2.183,0,0,0,.942.963,8.963,8.963,0,0,1,1.356,1.105c1.878,1.878,2.088,3.634,2.332,5.607,0,.1,0,.3.108.305a10,10,0,0,0,1.844-.325c.678-.1,1.356-.217,2.034-.359.847-.176,1.688-.393,2.515-.63.278-.081,2.1-.454,1.607-.949l-3.336-3.275A5.187,5.187,0,0,1,88.341,97.157Z" transform="translate(-25.541 -30.497)"/>
      <path id="Path_461" data-name="Path 461" class="cls-5" d="M93.246,97.157a29.567,29.567,0,0,0-8.441-5.763A15.349,15.349,0,0,0,78.751,90.2c-1.356-.041-3.105-.136-4.624-.041H73.009a.678.678,0,0,0-.617.542c-.786,4.285-1.512,8.576-1.993,12.881a.251.251,0,0,0,.319.278c3.105-.8,6.251-1.444,9.4-2.081.366-.075-.244-1.986-.292-2.156a9.187,9.187,0,0,0-1.953-3.553c-.556-.637-1.688-1.139-2.251-1.885s-.21-1.356.678-1.431c1.139-.075,1.993-.19,3.214-.23a8.939,8.939,0,0,1,3.9.305,9.662,9.662,0,0,1,2.712,2.251,46.905,46.905,0,0,1,4.068,3.966.393.393,0,0,0,.129.108.312.312,0,0,0,.244,0q1.4-.624,2.759-1.356a.373.373,0,0,0,.2-.169c.054-.136-.068-.278-.176-.373Z" transform="translate(-22.67 -29.005)"/>
      <path id="Path_462" data-name="Path 462" class="cls-5" d="M114.236,81.82a21.017,21.017,0,0,0-3.451-2.034,11.051,11.051,0,0,0-3.858-1.356c-.068,0-.163,0-.19.061a.2.2,0,0,0,0,.108,11.207,11.207,0,0,1,.353,3.227c0,1.519-1.112,3.268-.678,4.8.237.82,1.146,1.268,1.783,1.837l1.688,1.505c.183.156.407.325.631.258a.861.861,0,0,0,.264-.176,15.01,15.01,0,0,0,4.068-6.488A1.356,1.356,0,0,0,114.236,81.82Z" transform="translate(-34.236 -25.24)"/>
      <path id="Path_463" data-name="Path 463" class="cls-4" d="M102.024,87.777a2.712,2.712,0,0,1-.678-1.668,7.458,7.458,0,0,1,.4-2.23,11.1,11.1,0,0,0,.454-3.125,8.38,8.38,0,0,0-.19-1.539c-.149-.678-.271-1.139-1.037-1.105a24.122,24.122,0,0,0-4.61.678c-.678.176-1.4.407-2.1.59-.427.108-1.207.19-1.078.814.163.773.353,1.756.475,2.536a20.5,20.5,0,0,1,0,2.814c0,.8-.176,1.356.542,1.953a5.953,5.953,0,0,0,.99.569c2.237,1.146,3.824,3.105,5.83,4.556a1.973,1.973,0,0,0,.617.339,1.7,1.7,0,0,0,1.356-.305,22.715,22.715,0,0,0,1.919-1.308.513.513,0,0,0,.115-.868C104.261,89.513,102.871,88.774,102.024,87.777Z" transform="translate(-30.004 -25.137)"/>
      <path id="Path_464" data-name="Path 464" class="cls-4" d="M78.568,75.735c1.071-.637,2.075-1.417,3.153-2.034l2.319-1.3c.305-.176,1.417-.508,1.356-1a.677.677,0,0,0-.115-.224c-.678-.99-1.261-2.481-1.892-3.492-.488-.78-.549-1.905-1.2-1.553a6.1,6.1,0,0,0-1.539,1.607,26.547,26.547,0,0,0-1.837,2.495A27.83,27.83,0,0,0,75.7,76.691,4.847,4.847,0,0,0,78.568,75.735Z" transform="translate(-24.378 -21.257)"/>
      <path id="Path_465" data-name="Path 465" class="cls-2" d="M86.621,81.779a37.963,37.963,0,0,0-1.247-5.634,1.044,1.044,0,0,0-.2-.427c-.678-.746-2.773,1.132-3.349,1.478-1.268.773-2.468,1.634-3.736,2.393a6.271,6.271,0,0,1-3.336.854,26.086,26.086,0,0,0-.956,3.763c-.095.536-.108.576,0,.637a34.787,34.787,0,0,0,3.905,0,34.135,34.135,0,0,1,4.746.136,18.155,18.155,0,0,1,2.339.414c.434.108,1.539.725,1.892.264a1.213,1.213,0,0,0,.115-.834A23.976,23.976,0,0,0,86.621,81.779Z" transform="translate(-23.74 -24.311)"/>
      <path id="Path_466" data-name="Path 466" class="cls-6" d="M97.982,70.517c-.82-1.1-1.729-2.712-1.485-4.068a7.457,7.457,0,0,1,1.146-2.325,4.265,4.265,0,0,0,.522-1.647,5.463,5.463,0,0,0,0-.881,7.515,7.515,0,0,0-.061-.949.807.807,0,0,0-.19-.407.827.827,0,0,0-.373-.176,8.483,8.483,0,0,0-1.553-.142H94.633a6.648,6.648,0,0,0-1.058.136,2.368,2.368,0,0,0-.522.1,2.494,2.494,0,0,1-.495.115,13.166,13.166,0,0,0-3.695,1.634,13.959,13.959,0,0,0-1.627,1.173c-.678.536.59,2.644.847,3.18.353.739.678,1.132,1.051,1.871a12.007,12.007,0,0,1,.847,2.014c.312.827.42,1.7.719,2.522.237.678.773.319,1.275.136s1.207-.434,1.817-.624a22.17,22.17,0,0,1,2.712-.522,11,11,0,0,1,1.81-.2.163.163,0,0,0,.142-.264C98.314,70.991,98.165,70.761,97.982,70.517Z" transform="translate(-28.03 -19.28)"/>
      <path id="Path_467" data-name="Path 467" class="cls-2" d="M109.317,64.023a19.352,19.352,0,0,0-2.814-2.1,8.273,8.273,0,0,0-1.614-.834c-.176-.061-.746-.3-1.139-.42-.163-.054-.285.3-.244.468a5.945,5.945,0,0,1,.136,1.688c-.061,1.356-1.125,2.542-1.356,3.9-.339,1.9,1.153,3.627,2.319,4.99.38.441.963.366,1.492.447a13.108,13.108,0,0,1,1.905.427,15.356,15.356,0,0,1,4.847,2.481c.353.278.908,1.031,1.18.366a4.576,4.576,0,0,0,.088-1.553,11.722,11.722,0,0,0-.325-3.207,15.011,15.011,0,0,0-4.19-6.393Z" transform="translate(-32.924 -19.518)"/>
      <g id="Path_74" data-name="Path 74" transform="translate(61.601 15.108)">
        <path id="Path_468" data-name="Path 468" class="cls-1" d="M104.454,49c-1.634,0-6.712-.3-10.217-3.769C91.8,42.8,90.671,39.406,90.888,35.141h0c.2-3.831,1.919-12.759,13.688-12.881h0a3.782,3.782,0,0,1,.617.047h.217c2.563,0,8.271,1.241,13.41,5.742,5.946,5.254,8.942,7.39,8.969,7.458l1.858,1.295-1.79,1.356c-.346.264-.719.563-1.132.895a42.408,42.408,0,0,1-9.247,5.919h0l-.142.108c-4.956,3.281-12.02,3.864-12.325,3.892a3.023,3.023,0,0,1-.556.027Z" transform="translate(-90.861 -22.26)"/>
      </g>
      <path id="Path_469" data-name="Path 469" class="cls-1" d="M128.38,34.333l-.169-.129c-3-2.258-6.407-5.186-8.746-7.254-5.376-4.712-11.342-5.973-14.02-5.973H105.3a4.644,4.644,0,0,0-.678-.047,20.833,20.833,0,0,0-3.241.264c-9.634,1.573-11.186,9.756-11.39,13.471-.23,4.542.99,8.169,3.627,10.793,3.763,3.736,9.234,4.068,10.847,4.068h.136a3.585,3.585,0,0,0,.542-.041c.929-.081,7.776-.759,12.732-4.068l.122-.088c.732-.346,1.451-.719,2.163-1.105a42.711,42.711,0,0,0,7.173-4.881c.407-.332.773-.624,1.112-.881l2.807-2.129ZM116.855,43.9C112.15,47,105.289,47.594,105,47.615H104.9a1.722,1.722,0,0,1-.373,0h-.041c-1.41,0-6.285-.251-9.559-3.5-2.244-2.237-3.281-5.424-3.078-9.383s1.8-10.3,9.62-11.695a18.366,18.366,0,0,1,3.132-.278,3.743,3.743,0,0,1,.481,0h.359a21.215,21.215,0,0,1,12.793,5.505c2.359,2.088,5.817,5.058,8.854,7.349l1.01.678-.773.59c-.353.271-.732.576-1.166.922a40.937,40.937,0,0,1-7.193,4.854c-.61.325-1.22.637-1.851.936Z" transform="translate(-28.97 -6.723)"/>
      <path id="Path_470" data-name="Path 470" class="cls-7" d="M101.606,41.65a1.078,1.078,0,0,0-.888-.034,11.22,11.22,0,0,1-2.522.678,5.878,5.878,0,0,1-2.407-.176,3.153,3.153,0,0,1-2.271-2.447,17.893,17.893,0,0,1-.244-2.163c0-.21-.075-.766-.129-.61a11.262,11.262,0,0,0-.407,3.01c-.2,3.993.834,7.146,3.078,9.383.4.4,1.464,1.661,2.108,1.356a3.563,3.563,0,0,0,.719-.678c.42-.359.936-.583,1.356-.963a3.335,3.335,0,0,0,.827-1.322c.373-1.058.346-2.034,1.424-2.617a4.624,4.624,0,0,0,1.153-.732.25.25,0,0,0,.068-.115.3.3,0,0,0-.047-.129c-.285-.434-.6-.841-.888-1.268S102.06,41.887,101.606,41.65Z" transform="translate(-29.857 -11.857)"/>
      <path id="Path_471" data-name="Path 471" class="cls-2" d="M107.578,33.261a3.857,3.857,0,0,0-.922-.515,8.081,8.081,0,0,1-2.712-2.339,6.319,6.319,0,0,1-.908-3.512l-.068-1.586c0-.475-.237-1.18-.868-1.037a11.047,11.047,0,0,0-6.149,3.241,7.844,7.844,0,0,0-1.681,6.915c.38,1.6,1.573,3.234,3.39,3.186,1.227-.034,2.292-.875,3.525-.908a2.556,2.556,0,0,1,2.034,1.227c.2.278,1.146,2.156,1.586,1.485a38.346,38.346,0,0,0,2.847-5.62A.454.454,0,0,0,107.578,33.261Z" transform="translate(-30.29 -7.793)"/>
      <path id="Path_472" data-name="Path 472" class="cls-5" d="M109.917,47.254a5.979,5.979,0,0,1-.264-1.647,3.078,3.078,0,0,1,1.085-2.434,2.9,2.9,0,0,1,1.22-.556,9.125,9.125,0,0,1,3-.054,13.368,13.368,0,0,0,2.712.407,1.057,1.057,0,0,0,.3-.047c.068-.061-.075-.366-.1-.447a5.962,5.962,0,0,0-2.773-2.766,17.382,17.382,0,0,0-2.034-1.064,5.335,5.335,0,0,0-2.034-.6c-.461,0-.956,1.858-1.356,2.583l-1.634,3.119a3.037,3.037,0,0,1-1.356,1.573c-.563.264-1.288.427-1.647.983-.759,1.166-.895,2.793-1.986,3.953-.359.373-1.919,1.261-1.451,1.5,3.39,1.715,7.119,1.519,10.739.814a.251.251,0,0,0,.136-.061c.061-.068,0-.176,0-.258C111.694,50.535,110.453,49.03,109.917,47.254Z" transform="translate(-32.69 -12.233)"/>
      <path id="Path_473" data-name="Path 473" class="cls-4" d="M125.908,49.977c-.529-.6-1.207-1.044-1.736-1.641s-.678-1.627-1.356-2.258a.678.678,0,0,0-.19-.142,1.838,1.838,0,0,0-.793,0,8.048,8.048,0,0,1-.9-.054c-1.559-.163-2.983-.624-4.563-.258a2.976,2.976,0,0,0-1.444.678c-.976.956-.583,2.671-.075,3.756a40.44,40.44,0,0,0,2.536,4.353.678.678,0,0,0,.115.156c.3.251,1.241-.176,1.566-.271.637-.176,1.268-.386,1.885-.624a23.178,23.178,0,0,0,3.2-1.546c.529-.3,1.044-.61,1.566-.915.244-.142.556-.231.536-.576a.969.969,0,0,0-.251-.522Z" transform="translate(-36.817 -14.632)"/>
      <path id="Path_474" data-name="Path 474" class="cls-7" d="M124.332,36.285a19.519,19.519,0,0,1-4.339-4c-1.166-1.722-1.146-4.068-.929-6.176a.5.5,0,0,0-.271-.488,16.807,16.807,0,0,0-7.281-1.885h-.359a3.742,3.742,0,0,0-.481,0,17.83,17.83,0,0,0-1.837.081.82.82,0,0,0-.753.773,10.916,10.916,0,0,0,.068,1.993,8.4,8.4,0,0,0,.461,2.278,6.515,6.515,0,0,0,4.21,3.763c1.763.617,3.668,1.017,5.173,2.142a12.258,12.258,0,0,1,3.39,3.722,9.321,9.321,0,0,1,.461.942,6.948,6.948,0,0,0,.366.969,3.187,3.187,0,0,0,.725.8,10.847,10.847,0,0,1,1.356,1.173c.2.231.746,1.166,1.146.949.271-.149.942-.549,1.356-.8s.759-.441,1.18-.719a.488.488,0,0,0,.176-.6c-.142-.332-.271-.678-.42-.969A11.857,11.857,0,0,0,124.332,36.285Z" transform="translate(-34.8 -7.625)"/>
      <path id="Path_475" data-name="Path 475" class="cls-6" d="M138.222,37.636h0c-3.037-2.292-5.919-5-8.278-7.092a18.794,18.794,0,0,0-3.925-2.8.285.285,0,0,0-.414.217c-.21,2.034-.251,3.647.9,5.349a15.636,15.636,0,0,0,3.844,3.586,13.56,13.56,0,0,1,3.817,4.1c.163.305.339.678.508,1.017a.285.285,0,0,0,.414.1,27.1,27.1,0,0,0,2.542-2.034c.434-.346.529-.427.881-.678,0,0,.6-.434.6-.739C139.1,38.152,138.337,37.7,138.222,37.636Z" transform="translate(-40.412 -8.908)"/>
      <path id="Path_476" data-name="Path 476" class="cls-8" d="M18.983,105.642c-.895,0-3.505-.678-3.505-2.569,0-.224.075-.414.339-.414a7.811,7.811,0,0,0,1.153.224c3.1,0,8.875-3.241,8.875-6.895,0-1.681-1.458-2.034-3.058-2.034C14.915,93.934,6.1,105.608,6.1,112.761c0,3.173,1.715,5.485,6.1,5.485,4.251,0,6.637-2.461,8.651-2.461,1.268,0,3.431,1.3,3.431,2.536,0,1.356-6.339,4.325-12.495,4.325-8.285,0-11.79-4.176-11.79-9.512C0,103.853,10.59,91.1,24.685,91.1c5.512,0,7.641,1.458,7.641,4.142C32.325,99.527,25.647,105.534,18.983,105.642Z" transform="translate(0 -29.321)"/>
      <path id="Path_477" data-name="Path 477" class="cls-8" d="M53.088,128.3a2.888,2.888,0,0,1-2.854-1.79.231.231,0,0,0-.224-.183c-.6,0-3.729,2.793-9.024,2.793-3.539,0-5-1.417-5-3.356,0-4.21,6.936-10.956,13.837-10.956,1.356,0,1.864.6,1.864,1.356a3.516,3.516,0,0,1-2.983,3.058c-2.983,0-7.607,3.356-7.607,5,0,.522.481.895,1.675.895,2.2,0,6.19-2.2,9.322-5.105a2.156,2.156,0,0,1,1.308-.637c.447,0,.78.3.78,1.085,0,.929-.3,2.034-.3,2.868,0,.678.224,1.193.969,1.193s1.824-.481,2.712-.522a.888.888,0,0,1,1,.97C58.607,126.139,55.59,128.3,53.088,128.3Z" transform="translate(-11.59 -36.956)"/>
      <path id="Path_478" data-name="Path 478" class="cls-8" d="M79.483,129.213c-2.312,0-2.427-1.417-2.427-4.176,0-.522-.108-.895-.78-.895-.786,0-5.295,4.176-5.817,4.624a2.353,2.353,0,0,1-1.458.522c-.746,0-1.749-.373-1.749-1.268,0-1.159,1.675-4.176,1.675-5.817a1.356,1.356,0,0,0-1.505-1.417c-.861,0-1.715.6-2.312.6s-1.01-.678-1.01-1.356c0,0,0-3.207,5.369-3.207,2.312,0,2.949.936,2.949,2.034a17.727,17.727,0,0,1-.786,3.207.305.305,0,0,0,.3.339c.6,0,4.888-3.43,7.647-3.43,1.3,0,2.569.332,2.569,1.79s-.678,2.122-.678,3.39c0,.407.075,1.193.969,1.193,1.566,0,3.953-1.532,4.7-1.532.488,0,.746.414.746.936C87.869,126.488,83.015,129.213,79.483,129.213Z" transform="translate(-20.642 -37.603)"/>
      <path id="Path_479" data-name="Path 479" class="cls-8" d="M113.328,128.3a2.888,2.888,0,0,1-2.834-1.79.244.244,0,0,0-.224-.183c-.6,0-3.729,2.793-9.024,2.793-3.546,0-5-1.417-5-3.356,0-4.21,6.936-10.956,13.83-10.956,1.356,0,1.864.6,1.864,1.356a3.516,3.516,0,0,1-2.983,3.058c-2.983,0-7.607,3.356-7.607,5,0,.522.488.895,1.681.895,2.2,0,6.19-2.2,9.322-5.105a2.142,2.142,0,0,1,1.3-.637c.447,0,.78.3.78,1.085,0,.929-.292,2.034-.292,2.868,0,.678.224,1.193.97,1.193s1.824-.481,2.712-.522a.888.888,0,0,1,1,.97C118.84,126.139,115.823,128.3,113.328,128.3Z" transform="translate(-30.996 -36.956)"/>
      <path id="Path_480" data-name="Path 480" class="cls-8" d="M140.411,121.815c-1.01,0-1.417-.78-2.163-.78-1.715,0-4.746,4.434-5.634,5.966-.82.969-.895,2.034-2.644,2.034-1.532,0-3.024-.332-3.024-1.268,0-.678,1.681-5.146,1.681-6.78a1.01,1.01,0,0,0-1.085-1.153c-.969,0-1.824.522-2.644.522a.793.793,0,0,1-.82-.854,4.59,4.59,0,0,1,1.193-2.427,12.678,12.678,0,0,1,5.295-1.566c1.749,0,2.237.637,2.237,1.492,0,1.044-.678,2.42-.678,3.39,0,.115.041.19.115.19h.034c.488,0,4.142-4.746,7.458-4.746,3.207,0,1.234,2.346,3.878,2.346,1.152,0,1.864-.814,2.536-.854.224,0,.332.339.332.678C146.445,120.066,142.642,121.815,140.411,121.815Z" transform="translate(-39.957 -37.182)"/>
      <path id="Path_481" data-name="Path 481" class="cls-8" d="M156.085,125.455c-2.2,0-4.285-1.119-4.285-4.027,0-1.98.678-6.339,1.79-7.98a12.672,12.672,0,0,1,3.837-1.044.678.678,0,0,1,.786.678c0,.6-1.566,3.953-1.566,5.478,0,1.356.631,2.61,2.163,2.61s1.227-.78,2.312-.78a1.132,1.132,0,0,1,1.227.854C162.349,123.5,158.993,125.455,156.085,125.455Zm-.258-16.664s-1.356,0-1.356-.861a18.824,18.824,0,0,1,1.308-3.729,2.034,2.034,0,0,1,1.973-.929c.786,0,2.353.108,2.353,1.119a4.373,4.373,0,0,1-4.278,4.386Z" transform="translate(-48.885 -33.235)"/>
      <path id="Path_482" data-name="Path 482" class="cls-8" d="M171.351,124.814s0,.895,3.241.895c2.712,0,3.58-1.607,4.956-1.607.746,0,1.159.373,1.159.936,0,2.495-4.4,4.4-8.5,4.4-4.881,0-6.936-2.237-6.936-4.922,0-4.176,4.922-9.546,11.6-9.546,3.39,0,4.692,1.085,4.692,2.5C181.562,120.15,176.755,124.143,171.351,124.814Zm3.905-6.976c-1.532,0-4.549,1.98-4.549,3.729,0,.224.075.373.373.373,1.824,0,5.22-2.2,5.22-3.539C176.273,117.953,175.751,117.838,175.256,117.838Z" transform="translate(-53.223 -37.008)"/>
      <path id="Path_483" data-name="Path 483" class="cls-8" d="M40.824,24.369a.251.251,0,0,1,0-.359l2.163-2.142a2.983,2.983,0,1,1,4.21,4.224l-1.356,1.356,2.21,2.23a.264.264,0,0,1,0,.359l-.617.61a.258.258,0,0,1-.359,0Zm5.424.861a1.708,1.708,0,0,0,0-2.414,1.654,1.654,0,0,0-2.339.054l-1.308,1.3,2.339,2.353Z" transform="translate(-13.122 -6.725)"/>
      <path id="Path_484" data-name="Path 484" class="cls-8" d="M54.02,20.478a2.407,2.407,0,0,1,3.464.42,2.312,2.312,0,0,1,.2.3.244.244,0,0,1-.047.325L54.786,23.78a1.553,1.553,0,0,0,2.095.169,2.244,2.244,0,0,0,.678-1.044c.068-.176.108-.271.278-.237l.61.169c.136,0,.237.081.2.292A3.125,3.125,0,0,1,57.5,24.878a2.671,2.671,0,0,1-3.817-.536,2.712,2.712,0,0,1,.332-3.864Zm2.332.99a1.261,1.261,0,0,0-1.7-.136,1.356,1.356,0,0,0-.332,1.776Z" transform="translate(-17.078 -6.4)"/>
      <path id="Path_485" data-name="Path 485" class="cls-8" d="M59.364,16.872a.271.271,0,0,1,.081-.353l.339-.224a.251.251,0,0,1,.292.034l.366.305a1.919,1.919,0,0,1,.895-1.505c.427-.271,1.017-.495,1.092-.108l.068.739a.224.224,0,0,1-.2.271,1.356,1.356,0,0,0-.434.169,1.424,1.424,0,0,0-.678,1.2l1.844,2.854c.122.19,0,.292-.169.407l-.536.353a.271.271,0,0,1-.353-.075Z" transform="translate(-19.106 -4.754)"/>
      <path id="Path_486" data-name="Path 486" class="cls-8" d="M66.911,12.171a2.353,2.353,0,0,1,2.156-.061.258.258,0,0,1,.129.353l-.2.563c-.075.2-.21.156-.346.122a1.458,1.458,0,0,0-1.186.047,1.593,1.593,0,0,0-.61,2.176A1.553,1.553,0,0,0,69.8,15a.244.244,0,0,1,.305-.2l.461.095c.169.034.278.129.258.292a2.386,2.386,0,0,1-1.315,1.953,2.786,2.786,0,0,1-3.776-1.18,2.841,2.841,0,0,1,1.18-3.8Z" transform="translate(-21.067 -3.808)"/>
      <path id="Path_487" data-name="Path 487" class="cls-8" d="M70.342,4.7a.264.264,0,0,1,.142-.332l.725-.278a.264.264,0,0,1,.332.149l1.5,3.919a2.773,2.773,0,0,1,1.295-1.112c1.41-.542,2.475.21,3,1.573l.963,2.508a.264.264,0,0,1-.149.332l-.678.264a.251.251,0,0,1-.325-.142l-.976-2.536c-.305-.814-.895-1.105-1.546-.854a1.647,1.647,0,0,0-1.044,1.3l1.153,3.01a.237.237,0,0,1-.156.332l-.678.271a.264.264,0,0,1-.325-.142Z" transform="translate(-22.648 -1.296)"/>
      <path id="Path_488" data-name="Path 488" class="cls-8" d="M80.393,2.215a.766.766,0,0,1,.515-.969.782.782,0,1,1,.427,1.505.766.766,0,0,1-.942-.536ZM81.41,5.259a.258.258,0,0,1,.176-.312l.732-.21a.264.264,0,0,1,.312.176l1.356,4.651a.271.271,0,0,1-.176.319l-.732.2a.251.251,0,0,1-.312-.176Z" transform="translate(-25.877 -0.375)"/>
      <path id="Path_489" data-name="Path 489" class="cls-8" d="M86.168,5.523a.251.251,0,0,1,.2-.292l.359-.108a.21.21,0,0,1,.237.115l.244.42a2.712,2.712,0,0,1,1.7-1.085c1.6-.305,2.407.712,2.664,2.081l.5,2.637a.264.264,0,0,1-.2.3l-.746.142a.258.258,0,0,1-.3-.2l-.508-2.712c-.163-.841-.678-1.227-1.356-1.1a1.79,1.79,0,0,0-1.275,1.092l.61,3.2c.034.176,0,.264-.251.312l-.678.129a.271.271,0,0,1-.3-.2Z" transform="translate(-27.748 -1.439)"/>
      <path id="Path_490" data-name="Path 490" class="cls-8" d="M96.813,7.142a2.122,2.122,0,0,1-.5-1.261,2.291,2.291,0,0,1,2.136-2.488l2.339-.163a.258.258,0,0,1,.271.237V3.8c0,.095-.041.217-.136.237l-.719.251a1.783,1.783,0,0,1,.678,1.39A2.183,2.183,0,0,1,98.759,8a3.857,3.857,0,0,1-1.173-.136.739.739,0,0,0-.5.678.569.569,0,0,0,.678.5l1.81-.122a1.862,1.862,0,0,1,2.217,1.647c.081,1.159-.915,2.285-2.712,2.407-1.878.122-2.712-.786-2.766-1.654a1.458,1.458,0,0,1,.678-1.3V9.982A1.356,1.356,0,0,1,96,8.715a1.844,1.844,0,0,1,.814-1.573ZM99.756,5.67a1.119,1.119,0,0,0-1.2-1.146,1.153,1.153,0,0,0-1.092,1.261,1.159,1.159,0,0,0,1.247,1.173,1.125,1.125,0,0,0,1.044-1.3Zm-.732,6.217c.814-.054,1.492-.515,1.451-1.153,0-.21-.183-.753-1.051-.678a9.78,9.78,0,0,0-1.173.1c-.081.034-.719.292-.678.895S98.21,11.942,99.023,11.887Z" transform="translate(-30.915 -1.023)"/>
      <path id="Path_491" data-name="Path 491" class="cls-8" d="M109.2,3.7c-.061-.183.034-.305.224-.285l.678.088a.258.258,0,0,1,.224.183l.542,3.037h0L112.7,3.812a.258.258,0,0,1,.244-.1h.081a.237.237,0,0,1,.21.163l1.037,3.268h0l1.22-2.841c.088-.149.285-.129.434-.108l.515.061a.2.2,0,0,1,.163.325L114.483,9.4a.237.237,0,0,1-.258.108h-.054a.244.244,0,0,1-.21-.149l-1.214-3.736h0l-2.034,3.349a.217.217,0,0,1-.23.095h-.068a.217.217,0,0,1-.2-.163Z" transform="translate(-35.161 -1.084)"/>
      <path id="Path_492" data-name="Path 492" class="cls-8" d="M121.4,3.775a.258.258,0,0,1,.3-.19l.746.163a.264.264,0,0,1,.19.305L121.579,8.8a.264.264,0,0,1-.305.19l-.739-.183a.271.271,0,0,1-.2-.305Zm.549-3.159a.766.766,0,0,1,.915-.624.773.773,0,0,1,.6.942A.775.775,0,1,1,121.945.6Z" transform="translate(-38.752 0.025)"/>
      <path id="Path_493" data-name="Path 493" class="cls-8" d="M125.795,6.653l-.542-.163a.251.251,0,0,1-.169-.312l.169-.576a.244.244,0,0,1,.319-.169l.536.156.42-1.424A.264.264,0,0,1,126.846,4l.732.2a.258.258,0,0,1,.163.312l-.427,1.437,1.308.386a.244.244,0,0,1,.17.312l-.17.576a.258.258,0,0,1-.319.176l-1.308-.386-.746,2.536c-.129.434,0,.563.258.631a2.23,2.23,0,0,0,.847,0,.2.2,0,0,1,.264.2l.061.637a.224.224,0,0,1-.2.271,4.068,4.068,0,0,1-1.614-.061c-1.017-.3-1.125-1-.861-1.912Z" transform="translate(-40.215 -1.267)"/>
      <path id="Path_494" data-name="Path 494" class="cls-8" d="M133.248,2.987a.258.258,0,0,1,.332-.136l.719.292a.271.271,0,0,1,.136.332l-1.6,3.885a2.712,2.712,0,0,1,1.7.075c1.4.583,1.647,1.858,1.092,3.207L134.6,13.115a.258.258,0,0,1-.332.136l-.678-.285a.251.251,0,0,1-.136-.332l1.037-2.508c.325-.8.1-1.417-.536-1.681a1.661,1.661,0,0,0-1.661.231l-1.227,2.976a.244.244,0,0,1-.346.136l-.678-.292a.264.264,0,0,1-.136-.332Z" transform="translate(-41.831 -0.895)"/>
      <path id="Path_495" data-name="Path 495" class="cls-8" d="M142.716,14.117a.237.237,0,0,1,.38-.169l.746.468a.292.292,0,0,1,.108.251l-.5,3.885h0L146.7,16.4a.292.292,0,0,1,.319,0l.678.407a.237.237,0,0,1,0,.42l-8.217,5.322a.285.285,0,0,1-.278,0l-.678-.434a.237.237,0,0,1,0-.427l3.566-2.278Z" transform="translate(-44.567 -4.459)"/>
      <path id="Path_496" data-name="Path 496" class="cls-8" d="M154.307,21.138a2.814,2.814,0,1,1-3.858.481A2.766,2.766,0,0,1,154.307,21.138ZM151.5,24.616a1.586,1.586,0,0,0,2.224-.353,1.512,1.512,0,1,0-2.346-1.9,1.593,1.593,0,0,0,.122,2.251Z" transform="translate(-48.246 -6.606)"/>
      <path id="Path_497" data-name="Path 497" class="cls-8" d="M159.181,25.568a.271.271,0,0,1,.359,0l.536.542a.264.264,0,0,1,0,.359l-1.925,1.925c-.624.61-.678,1.234-.19,1.715a1.417,1.417,0,0,0,1.553.332L161.8,28.2c.149-.149.258-.1.386.034l.488.495a.271.271,0,0,1,0,.359l-3.458,3.39a.264.264,0,0,1-.359,0l-.258-.264a.264.264,0,0,1,0-.325l.183-.366a2.434,2.434,0,0,1-1.756-.746c-1.125-1.146-.678-2.339.292-3.315Z" transform="translate(-50.354 -8.195)"/>
      <path id="Path_498" data-name="Path 498" class="cls-8" d="M30.981,147.689c-.115.081-.122.095-.122.115v3.315H29.93V147.4l.936.081c.061,0,.2,0,.2.081S31.015,147.655,30.981,147.689Zm3.268-.061c-.1.1-.1.122-.1.346v.5a8.671,8.671,0,0,1-.264,2.915,4.068,4.068,0,0,1-2.3,2.393l-.678-.759c1.614-.637,2.285-1.39,2.278-3.763,0-.19,0-1.281-.054-1.912l1,.054c.041,0,.2,0,.2.1S34.323,147.56,34.249,147.628Z" transform="translate(-9.639 -47.435)"/>
      <path id="Path_499" data-name="Path 499" class="cls-8" d="M42.8,151.259l-.732-.624a7.281,7.281,0,0,0,1.424-1.7H38.57v-.847h5.295c.1,0,.224-.122.271-.176l.725.739A18.708,18.708,0,0,1,42.8,151.259Zm-.678-1.919s-.108.1-.115.136-.047.563-.061.678a4.854,4.854,0,0,1-2.034,3.539l-.847-.488a4.129,4.129,0,0,0,1.959-4.068l.922.047c.163,0,.19,0,.19.068s-.007.075-.034.075Z" transform="translate(-12.421 -47.615)"/>
      <path id="Path_500" data-name="Path 500" class="cls-8" d="M50.834,148.406c-.054.047-.054.061-.054.1a15.019,15.019,0,0,1,0,1.932,4.007,4.007,0,0,1-1.695,2.861l-.875-.637a3.085,3.085,0,0,0,1.681-3.071,12.278,12.278,0,0,0-.088-1.485l.949.061c.142,0,.231.034.231.115S50.929,148.325,50.834,148.406ZM52.3,153.3l-.678-.515V148.04l.915.108c.068,0,.217,0,.217.1s0,.054-.081.115-.095.088-.095.095V151.9a7.031,7.031,0,0,0,2.068-2.034l.536.793A10.373,10.373,0,0,1,52.3,153.3Z" transform="translate(-15.525 -47.657)"/>
      <path id="Path_501" data-name="Path 501" class="cls-8" d="M64.066,150.786v1.553h-.895a10.482,10.482,0,0,1,.041-1.18c-.3.149-1.119.556-1.119,1.112s.61.61,1.18.61a9.146,9.146,0,0,0,2.034-.258v.888a12.574,12.574,0,0,1-1.871.122,2.556,2.556,0,0,1-1.844-.522,1.064,1.064,0,0,1-.332-.746c0-.969.725-1.356,1.9-1.953a.542.542,0,0,0-.6-.515c-.773,0-1.241.719-1.675,1.424l-.766-.475a10.6,10.6,0,0,0,1.546-2.169H60.642l-.095-.814a11.433,11.433,0,0,0,1.5,0,6.215,6.215,0,0,0,.393-1.044l.983.17s.156,0,.156.081,0,.068-.075.081l-.183.081s-.2.447-.244.536a6.611,6.611,0,0,0,1.539-.407l-.054.881a16.643,16.643,0,0,1-1.878.305c-.251.461-.312.569-.441.78a1.471,1.471,0,0,1,.678-.169,1.051,1.051,0,0,1,1.071.793l1.39-.678.271.9C65.022,150.434,64.649,150.569,64.066,150.786Z" transform="translate(-19.361 -47.264)"/>
      <path id="Path_502" data-name="Path 502" class="cls-8" d="M75.428,148.324v.346h1.193v.725h-3.2v-.725h1.037v-.346H72.994v.576H70.35v-.78h2.563v-.542h1.546V146.9l.908.041c.108,0,.264,0,.264.088a.136.136,0,0,1-.054.1c-.136.108-.142.108-.142.149v.285H76.98v.759Zm-.624,2.624a.076.076,0,0,0-.081.068c-.007.034-.047.325-.054.38a4.068,4.068,0,0,1-1.295,2.353l-.522-.427H71.313v.393h-.841v-2.569h2.4v1.81a2.169,2.169,0,0,0,.624-.678,3.037,3.037,0,0,0,.4-1.675l.9.163c.075,0,.122,0,.129.095s-.068.054-.122.075Zm-4.149-.169V150.1h1.973v.678Zm0-.949v-.678h1.953v.678Zm.095-1.946v-.759h1.81v.753ZM72,151.849h-.678v.678H72Zm4.122-.881v-.61H73.753v.624h-.834v-1.356h4.068v1.356Zm.271,2.712h-.78a.678.678,0,0,1-.5-.183c-.129-.1-.142-.278-.142-.508v-2.393l.773.034c.163,0,.258,0,.258.088a.163.163,0,0,1-.068.129c-.061.047-.081.081-.081.115v1.546c0,.264.041.359.2.359s.176-.068.217-.21a2.967,2.967,0,0,0,.088-.529l.841.441c-.041.359-.095,1.071-.78,1.071Z" transform="translate(-22.655 -47.29)"/>
      <path id="Path_503" data-name="Path 503" class="cls-8" d="M85.926,153.477a.963.963,0,0,1-1.112-.969c0-.2.156-1.105.156-1.234a.38.38,0,0,0-.414-.414,1.546,1.546,0,0,0-1.044.59,6.732,6.732,0,0,0-.983,1.966l-.97-.271c1.885-3.668,2.081-4.068,2.434-4.807.271-.576.38-.827.481-1.078l.888.468c.047,0,.19.095.19.176a.088.088,0,0,1-.061.068,1.358,1.358,0,0,0-.176.047,8.775,8.775,0,0,0-1.153,2.108,2.314,2.314,0,0,1,.786-.163.9.9,0,0,1,.983.949c0,.176-.176,1.044-.176,1.241a.341.341,0,0,0,.319.373c.542,0,1.105-.773,1.356-1.2l.515.753A2.549,2.549,0,0,1,85.926,153.477Z" transform="translate(-26.265 -47.406)"/>
      <path id="Path_504" data-name="Path 504" class="cls-8" d="M95.383,149.41a2.922,2.922,0,0,0-.956,1.892A1.227,1.227,0,0,0,95,152.318a2.474,2.474,0,0,0,1.356.4l-.292.963a3.566,3.566,0,0,1-1.932-.875,1.98,1.98,0,0,1-.59-1.41,2.847,2.847,0,0,1,.536-1.566,5.83,5.83,0,0,1,1.037-1.2c-1.058.088-2.21.19-3,.3l-.136-.881a21.62,21.62,0,0,0,5.62-.637v.908A3.22,3.22,0,0,0,95.383,149.41Zm1.647,1.356a3.782,3.782,0,0,0-.678-.6l.319-.38a3.721,3.721,0,0,1,.678.6Zm.637-.719a3.961,3.961,0,0,0-.678-.6l.332-.373a3.228,3.228,0,0,1,.678.6Z" transform="translate(-29.621 -47.454)"/>
      <path id="Path_505" data-name="Path 505" class="cls-8" d="M102.37,153.51a4.542,4.542,0,0,1,1.749,1.7l-.814.678a6.583,6.583,0,0,0-1.525-1.742Z" transform="translate(-32.777 -49.419)"/>
      <path id="Path_506" data-name="Path 506" class="cls-8" d="M114.554,147.875v.319h1.356v1.7h-5.553V148.2h1.3v-.312H109.7v-.678h1.946v-.42l.847.041s.183,0,.183.108-.047.081-.068.095a.285.285,0,0,0-.081.176h1.132v-.441l.888.061c.075,0,.163,0,.163.095s0,.061-.081.115-.068.061-.068.163h1.946v.678Zm1.01,3.492v-.583h-2.712a1.579,1.579,0,0,1-.258.319h2.468l.224.237A5.037,5.037,0,0,1,111,153.773l-.475-.82a3.784,3.784,0,0,0,.536,0,4.068,4.068,0,0,0,1.22-.169,3.627,3.627,0,0,0-.719-.793,4.324,4.324,0,0,1-.99.624l-.678-.556a4.827,4.827,0,0,0,1.1-.576,2.712,2.712,0,0,0,.78-.732h-1.139v.6h-.841v-1.227h6.624v1.214Zm-3.627-2.6H111.2v.556h.739Zm.366,2.949a4.385,4.385,0,0,1,.725.793,3.227,3.227,0,0,0,.915-.8Zm1.356-3.831h-1.132v.312h1.132Zm-.183.875h-.746v.556h.753Zm1.553,0h-.773v.563h.773Z" transform="translate(-35.327 -47.248)"/>
      <path id="Path_507" data-name="Path 507" class="cls-8" d="M125.619,150.689v1.553H124.7a10.486,10.486,0,0,1,.041-1.18c-.3.149-1.119.563-1.119,1.112s.61.61,1.186.61a9.081,9.081,0,0,0,2.034-.258v.888a12.626,12.626,0,0,1-1.871.122,2.576,2.576,0,0,1-1.851-.522,1.071,1.071,0,0,1-.3-.773c0-.969.719-1.356,1.9-1.953a.542.542,0,0,0-.6-.515c-.773,0-1.241.719-1.675,1.424l-.773-.475a10.1,10.1,0,0,0,1.546-2.169c-.447,0-.678.034-1.024.034l-.095-.814a11.526,11.526,0,0,0,1.505,0A5.6,5.6,0,0,0,124,146.73l.983.17s.163,0,.163.081,0,.068-.081.081l-.183.081s-.2.447-.237.536a6.78,6.78,0,0,0,1.539-.407l-.054.881a16.9,16.9,0,0,1-1.878.305c-.251.461-.312.569-.447.78a1.505,1.505,0,0,1,.678-.169,1.051,1.051,0,0,1,1.071.793c.915-.434,1.017-.481,1.39-.644l.264.895C126.582,150.337,126.2,150.472,125.619,150.689Z" transform="translate(-39.185 -47.235)"/>
      <path id="Path_508" data-name="Path 508" class="cls-8" d="M132.626,151.477v.963h-.786V147.5h2.136v3.986Zm.59-3.18h-.6v2.386h.6Zm2.414,4.237a5.872,5.872,0,0,1-1.478,1.2l-.847-.617a3.2,3.2,0,0,0,1.654-1.356l.759.495c.075.041.163.1.163.17s-.2.1-.285.108Zm-1.3-.908V147.05h3.81v4.576Zm2.908-3.824H135.2v.57h2.034Zm0,1.254H135.2v.536h2.034Zm0,1.261H135.2v.542h2.034Zm.563,3.39a8.489,8.489,0,0,1-1.4-1.356l.631-.563a9.225,9.225,0,0,0,1.464,1.295Z" transform="translate(-42.457 -47.339)"/>
      <path id="Path_509" data-name="Path 509" class="cls-8" d="M142.93,151.585a22.77,22.77,0,0,1,1.966-1.207v-1.017a6.556,6.556,0,0,1-1.2.041l-.115-.881a7.24,7.24,0,0,0,.766.034,5.2,5.2,0,0,0,.542,0V147.09l.875.115c.217,0,.217.088.217.122s-.115.129-.136.149-.054.82-.061.969a4.746,4.746,0,0,0,1.214-.414v.9a7.154,7.154,0,0,1-1.227.339v.78a4.169,4.169,0,0,1,1.214-.183,1.756,1.756,0,0,1,1.9,1.79,1.593,1.593,0,0,1-1.471,1.729c-.861,0-.976-.542-1.085-1.112l.732-.292c.095.319.156.522.4.522s.6-.285.6-.834a1.03,1.03,0,0,0-1.092-1.044,3.559,3.559,0,0,0-1.2.278v2.353l-.834.332c-.339-.366-.536-.576-1.254-1.356a2.5,2.5,0,0,0-.237.23Zm1.966-.278a8.338,8.338,0,0,0-.712.481,7.031,7.031,0,0,0,.712.739Zm4.068-1.417a4.617,4.617,0,0,0-1.553-.895l.508-.678a5.784,5.784,0,0,1,1.553.888Z" transform="translate(-46.029 -47.351)"/>
      <path id="Path_510" data-name="Path 510" class="cls-8" d="M157.455,152.321a4.427,4.427,0,0,1-2.034,1.309l-.61-.753a3.722,3.722,0,0,0,1.966-1.18,2.454,2.454,0,0,0,.569-1.505.732.732,0,0,0-.712-.834,8.069,8.069,0,0,0-2.488.922l-.366-.915a10.5,10.5,0,0,1,3.092-.834,1.4,1.4,0,0,1,1.044.434,1.688,1.688,0,0,1,.339,1.119A3.5,3.5,0,0,1,157.455,152.321Zm-.332-4.481a21.193,21.193,0,0,1-2.176-.19l-.075-.97a9.113,9.113,0,0,0,2.359.271Z" transform="translate(-49.523 -47.219)"/>
    </g>
  </g>
</svg>
