<svg xmlns="http://www.w3.org/2000/svg" viewBox="0 0 292.512 355.953">
  <defs>
    <style>
      .cls-1 {
        fill: #16c155;
      }

      .cls-2 {
        fill: #121313;
      }

      .cls-3 {
        fill: #fcd607;
      }

      .cls-4 {
        fill: #f3564b;
      }

      .cls-5 {
        fill: #006ed8;
      }

      .cls-6 {
        fill: #fefefe;
      }
    </style>
  </defs>
  <g id="Layer_1" data-name="Layer 1" transform="translate(0 0)">
    <path id="Path_2067" data-name="Path 2067" class="cls-1" d="M5.005,302.007a1.039,1.039,0,0,1-.253,0c-2.024-.274-5.231-5.014-4.648-6.9a61.742,61.742,0,0,1,8.351-16.742c.454-.677,1.8-1.461-.16-2.148-.826-.294-.677-1.327-.367-2.066a25.125,25.125,0,0,1,1.188-2.277c1.549-2.789,1.549-2.737-1.684-3.2-1.6-.232-2.009-1.291-1.141-2.613a27.21,27.21,0,0,0,2.68-5.531,6.425,6.425,0,0,0,.578-3.538c-.341-2.143,1.105-3.935,2.463-5.464,2.675-3.021,5.541-5.882,8.263-8.846.609-.661,1.477-1.2,1.549-2.288a4.385,4.385,0,0,0-2.5.1c-1.172.207-2.7.961-3.331-.227a4.782,4.782,0,0,1-.418-4.364c1.033-2.159,1.854-4.359,4.131-5.681,2.427-1.4,4-3.853,6.59-5.242,1.188-.635,1.033-3.346,3.212-4.849-2.732.362-4.782-1.079-6.8.516a1.4,1.4,0,0,1-2-.589c-.6-1.033,0-1.875.594-2.551a84.585,84.585,0,0,1,8.087-7.943c2.226-1.869,4.508-3.672,6.879-5.6a1.306,1.306,0,0,0-1.425,0c-1.105.454-2.246.728-2.9-.594-.568-1.152.227-1.957,1.033-2.623s1.673-1.208,2.468-1.864c1.234-1.033,2.463-1.89,2.582-3.852a3.068,3.068,0,0,1,2.582-2.975c2.066-.516,3.5-2.381,4.911-4.007.238-.248.48-.516.723-.738l.2-.516-.584.129-.852.707c-1.2.227-2.618.563-3.238-.728a3.637,3.637,0,0,1,.811-3.775,37.864,37.864,0,0,1,2.732-2.732c.888-.935,2.882-1.585.955-3.45-.449-.439.176-1.322.646-1.818,1.126-1.183,2.272-2.345,3.47-3.45.924-.852,1.7-1.668,1.3-3.1a2.074,2.074,0,0,1,1.167-2.36c1-.656,2-1.3,3.047-1.968-2.582-1.869-2.773-2.68-.811-5.138a51.746,51.746,0,0,1,4.576-4.885c1.549-1.487,3.222-2.835,5.035-4.41-.847-.723-2.52-.635-2.468-2.133.046-1.327,1.095-2.066,1.926-2.938,1.141-1.172,2.339-2.293,3.414-3.517.816-.935,1.782-1.823,1.152-3.377-.558-1.389.914-2.066,1.467-3.155-1.353-.186-2.923-.124-3.4-1.663s.837-2.355,1.776-3.171c3.3-2.851,6.662-5.629,10.6-8.934-1.549.516-2.174-.6-3.16,0a1.224,1.224,0,0,1-1.818-.3c-.516-.754.124-1.286.568-1.787q3.615-4.044,7.23-8.061c.6-.666,1.694-1.059.377-2.277a2.044,2.044,0,0,1,.243-2.949,105.211,105.211,0,0,0,9.337-10.618c-2.536-.759-2.024-2.179-.749-3.615,3.847-4.333,6.244-9.781,11.134-13.757-1.394-.516-2.8-.331-3.011-1.73s.847-1.962,1.658-2.706l11.361-10.406c1.033-.893,2.153-1.746,1.549-3.408a1.152,1.152,0,0,1,.547-1.549c3.615-1.549,6.615-4.26,10.4-5.515,1.1-.367,2.417-.382,2.753-2.143.232-1.245,1.549-1.281,2.8-.9.553.17,1.25,1.007,1.818.119,1.869-2.918,3.868-1.389,5.567,0a2.728,2.728,0,0,0,3.253.331c2.066-.862,4.131-1.673,6.2-2.453.775-.294,1.678-.8,2.376.057s.32,1.709-.367,2.5c-.609.713-.516,1.911.516,1.456,3.052-1.379,6.2-.181,9.239-.764a4.606,4.606,0,0,1,3.191.553c1.224.651,2.536,1.585,4.033,1.2,1.193-.3,2.365-1.549,3.522-.3.914.976,2.1,2.267,2.1,3.419,0,2.82,1.947,3.961,3.672,5.412.8.966,1.606,1.926,2.412,2.892.883,1.064,1.885,2.159,1.332,3.672-.594,1.632-2.143,1-3.46,1.162.387,1.684,1.787,2.515,2.83,3.584a54.547,54.547,0,0,0,8.361,7.266c.713.485,1.487,1,1.317,2.024-.232,1.374-1.456.831-2.3,1.09.119,1.183,1.234,1.379,1.931,1.859a51.4,51.4,0,0,1,7.932,6.569c.831.873,1.477,1.787.966,2.969s-1.745,1.188-2.887,1.059a.893.893,0,0,0-.253-.041c-1.121.248-2.582-1.389-3.238,0-.516,1.167,1.09,2.066,1.926,2.918a5.226,5.226,0,0,1,1.709,3.222c.217,1.549,2.066,2.365,3.186,3.553,1.224,1.322,2.83,2.546,1.09,4.565-.444.516,0,.785.294,1.033,3.037,2.623,4.39,6.574,7.473,9.228,2.308,1.988,2.066,2.3-.821,3.336-.9.325-1.523,1.348-2.711,1.126a2.882,2.882,0,0,0,1.549,2.019c3.873,2.665,5.257,7.405,8.779,10.416,1.3,1.11.868,2.882-1.338,3.615,1.518,1.281,2.913,2.536,4.395,3.672.919.707,1.518,1.492,1.033,2.613s-1.585.749-2.494.723c-1.064-.031-2.014-.924-3.553-.279l4.648,2.954c1.033.646,2.066,1.745,1.312,2.722-1.482,1.952.274,2.107,1.172,2.846,1.219,1,2.866,1.5,3.233,3.434.217,1.11-1.978,1.467-.708,2.53,2.019,1.694,3.1,4.39,5.789,5.355,4,1.425,4.131,2.443.656,5.515,2.355,1.234,4.648,2.463,6.982,3.641,1.25.635,2.758,1.172,2.1,2.959-.7,1.88-2.283.945-3.563.78-.578-.077-1.115-.516-1.869-.16,1.415,1.436,2.99,2.727,2.8,5.076-.036.434,1.033,1.033,1.678,1.441a55.994,55.994,0,0,1,7.6,5.794c1.714,1.637,1.477,2.3-1.085,3.14a30.764,30.764,0,0,0,4.131,2.4c3.93,1.58,7.039,4.544,10.881,6.249.516.232,1.312.63,1.095,1.276-1.219,3.672,1.492,4.8,3.868,6.161.217.129.47.191.7.3,3.982,1.937,4.131,2.066,1.425,5.417-1.074,1.327-.769,1.756.222,2.541a11.451,11.451,0,0,1,1.343,1.2c.6.661,1.792,1.229,1.167,2.293s-1.508-.367-2.629.041c1.632,1.7,3.166,3.29,4.684,4.9,1,1.064,2.107,2.1,1.327,3.816-.429.945.449,1.064.976,1.461,1.307.992,3.537,1.322,2.582,3.971-.3.831,1.11.692,1.689,1.074,1.7,1.121,4.168,1.358,4.488,4.044.361,3.052-.222,3.713-3.326,3.672-.516,0-1.033.052-1.849.093,1.622,1.265,3.481,1.291,4.968,2.112,1.1.6,1.492,1.74,2.066,2.8,1.3,2.288.475,4.6,1.312,6.579a13.267,13.267,0,0,0,2.391,3.166c1.431,1.575,3.026,3.021,1.761,5.681-.217.454-.785,3.341,1.813,3.739.568.083,1.5,1.549,1.332,2.014-.826,2.293.96,3.847,1.312,5.768.47,2.556,1.549,4.983-.806,7.462-1.033,1.074-.062,3.238.94,4.446,1.549,1.869,1.27,3.166-.573,4.467a2.582,2.582,0,0,0-1.245,2.83c.516,2.835-2.117,4.441-2.918,6.822a10.035,10.035,0,0,0-1,3.517c.047,3.155-.155,6.342,1.312,9.3.2.4.212,1.033-.279,1.033-2.84-.119-1.725,2.066-2.107,3.414a68.9,68.9,0,0,0-2.184,8.888,9.567,9.567,0,0,0,.119,4.7c.341,1,1.188,2.432-.036,2.944s-1.549-1.239-2.148-2.066c-.253-.331-.465-.692-1.059-1.6-.3,3.94-2.169,6.951-2.1,10.452.031,1.715-.052,3.4-1.4,4.8-.9.945-.429,2.293-.444,3.465s0,2.742-.976,3.1c-1.369.516-2.226-.93-2.98-1.962a10.994,10.994,0,0,1-1.431-3c-.444-1.3-1.152-1.394-1.844-.093-3.052,5.753-6.853,11.036-10.509,16.412-.449.661-.64,1.875-1.751,1.5-.986-.336-.754-1.441-.713-2.272.088-1.715.294-3.419.351-5.128,0-.589.4-1.42-.625-1.7-.945-.258-1.4.3-1.864.971a116.719,116.719,0,0,0-7.292,11.506c-.356.682-.32,1.962-1.518,1.735s-1.549-1.208-1.549-2.35c-.945-1.162-2.515-.785-3.651-1.477a15.041,15.041,0,0,1,3.15-8.536c.676-.806,1.983-2.1,1.441-2.809-2.014-2.639.1-4.7.516-6.992-3.073-1.239-3.305-1.813-2.04-5a7.908,7.908,0,0,1,.7-1.658c1.136-1.6.31-2.69-1.084-3.171-2.443-.837-2.463-2.551-2.066-4.539a25.738,25.738,0,0,1,.785-2.975c.516-1.487-.475-1.916-1.549-1.993-3.563-.253-3.574-.351-3.062-3.863.207-1.451,1.591-3.1-.191-4.5.227-3.135-.356-5.867-3.615-7.292-.114-.052-.134-.3-.2-.465l1.642-2.329c1.379-.372,3.021-.124,4.007-1.7-1.177-1.085-2.685-1.157-3.982-1.7,0-.589-.2-1.3.057-1.751,2.143-3.915,2.639-8.413,4.524-12.425,1.343-2.845.516-6.109,1.446-9.151a16.526,16.526,0,0,0-5.164,5.076c-.315.46-.584,1.307-1.265,1.059s-.775-1.033-.821-1.751c-.2-3.331,1.281-6.347,1.8-9.543.738-4.612.413-5.092-4.069-4.049-2.2.516-2.747-.046-2.159-2.2.062-.227.3-.589.248-.635-2.964-2.437.129-4.684.2-7.261-1.358.413-2.675.821-4,1.219-1.007.3-2.345.682-2.825-.367-.981-2.143-2.1-1-3.228-.418s-2.3,1.208-3.584.243c-1.033-.78-1.549.232-2.143.738-1.033.862-1.885,1.265-2.99-.129s-5.381-1.673-6.713-.615a3.335,3.335,0,0,1-3.615.3,20.7,20.7,0,0,0-2.7-.687,14.643,14.643,0,0,0-9.419.387c-1.27.516-3.135-.062-4.736.067-1.338.1-2.582,0-3.584,1.389-.831,1.146-2.231.9-3.1-.248-1.033-1.441-2.722-.418-3.909-1.152-.713,1.5-2.479,1.379-3.548,2.293-1.177,1.033-2,.769-3.1-.238-1.281-1.188-2.727-1.911-4.575-.6-1.4.992-2.861.955-4.421-.4a3.853,3.853,0,0,0-4.054-.707c-2.67,1.255-3.1,1.11-4.286-1.885-2.3,2.727-5.34,1.864-8.149,1.591a3.8,3.8,0,0,0-2.722,1.033c-1.3.857-2.277,1.033-3.589-.253-1.508-1.5-3.434-1.446-5.335-.325-3.135,1.849-6.2,2.437-8.877-.862-.243-.3-.718-.4-1.1-.609-1.074,1.978-.516,4.26-1.689,6.4-1.183-1.885-.64-3.79-.6-5.577.031-1.6-.351-1.673-1.9-1.363-3.816.764-7.7,2.066-11.6.315-.718-.325-.857.16-1.193.516a6.28,6.28,0,0,1-1.312,1.2c-1.864,1.095-3.512-1.25-4.472-.914-1.549.516-2.644,1.658-4.364.547s-3.383-1.327-5.025.289c-1.394,1.363-3.372,2.066-4.3,3.982a1.4,1.4,0,0,1-1.771.692c-.79-.253-1.5-.821-1.322-1.684.491-2.381-1.121-1.89-2.51-2.04.387,1.549.733,2.938,1.09,4.333.114.439.666.966-.108,1.265-.609.232-.878-.367-1.162-.738-1.265-1.658-1.658-3.739-2.675-5.644-.976,1.007-1.549,2.634-3.419,2.091-.847-.238-.821.516-1.09,1.064-.516.971-.325,2.024-.578,3.016-.646,2.536.31,5.319-1.549,7.69-.878-.2-.986-1.327-1.394-2.205s-.723-1.73-1.183-2.84c-2.267,4.193-5.2,7.834-5.092,12.838.052,2.536-1.968,4.844-1.095,7.591a.966.966,0,0,1-.93,1.26c-.687-.057-.888-.713-.961-1.332-.1-.924.077-1.921-.754-2.67a2.249,2.249,0,0,0-1.167,3.155c1.033,2.582-.888,4.534-2.024,6.156-.976,1.394-2.876-.15-4.353-2.164a92.852,92.852,0,0,1-.6,14.248c-1.642-.651-3.424-1.632-3.512,1.456-.139.1-.269.268-.418.289-3.615.516-2.407,2.835-1.952,4.994s.852,4.472-2.515,4.606c-.992.041-.63.826-.78,1.322-.32,1.059-.48,2.252-1.859,2.479-.7.114-.811.589-.738,1.105.341,2.422-.775,4.906.356,7.312a2.283,2.283,0,0,1-.217,2.216c-1.1,1.74-2.582,3.269-1.647,5.732.341.9-.837,1.6-1.859,1.694-1.8.176-2.112.991-1.415,2.582a6.107,6.107,0,0,1,.093,3.3c-2.267.15-1.064,2.907-2.665,3.558-.945-.17-1.074.615-1.41,1.188a1.7,1.7,0,0,1-1.926.945c-.893-.2-1.735-.687-1.7-1.663.052-1.219-.8-1.374-1.508-1.962-1.885-1.549-2.727-3.889-3.682-6.089-.269-.615-.589-1.709-.919-1.725-3.212-.108-3.1-2.582-3.341-5.345-1.441,1.973-2.525,3.4-2.913,5.226-.17.806-.377,1.632-1.4,1.456-.924-.16-.547-1.074-.744-1.678-.981-3.057-.439-6.636-3.2-9.084-.7-.625-.444-1.637-.413-2.474.16-3.775.387-7.55.558-11.33.026-.553.325-1.286-.336-1.637-.785-.418-1,.423-1.353.831a1.818,1.818,0,0,1-2.3.578c-.909-.413-.62-1.27-.738-2.009-.4-2.443,1.033-4.235,2.019-6.2s2.742-3.868.47-6.2c-.64-.656,0-1.7.423-2.4a14.166,14.166,0,0,0,1.88-7.359c.434-.165.387-.465.222-.8Zm114.439-179.3c-4.813-.361-7.194.584-7.958,3.76-.883,3.656-.992,7.431,1.947,10.406a26.346,26.346,0,0,0,14.434,7.922c4.715.8,9.559.749,14.31,1.363,8.9,1.157,16.386-1.807,22.945-7.56a11.95,11.95,0,0,0,3.765-6.646c.935-4.415-2.112-8.263-6.151-7.7a22.615,22.615,0,0,0-6.409,1.818c-3.734,1.7-7.178,3.692-11.625,4.162-4.007.418-7.932.227-11.878.367-3,.1-5.164-1.363-7.1-3.475a40.566,40.566,0,0,0-3.692-3.2c.026-.893,1.844-1.549.46-2.582-1.126-.811-2.066-.1-2.773.893a4.017,4.017,0,0,0-.274.454Zm10.1-39.413c-7.054-.217-12.828,2.143-18.075,6.021a20.263,20.263,0,0,0-5.923,6.362c-1.7,3.073-.862,7.411,1.838,7.979,2.907.6,5.681,1.8,8.707,1.916,9.166.377,16.35-3.672,22.284-10.266,2.82-3.135,2.169-7.013-1.4-9.543-2.339-1.684-4.746-3.2-7.426-2.484Zm53.021,12.146c-.253-2.262-1.616-4.214-3.155-6.094-4.622-5.681-10.793-8.216-17.847-9.208-3.832-.516-7.55-.516-11.062,1.224-3.062,1.549-3.976,3.651-3.1,6.76.909,3.228,2.458,5.918,5.6,7.555a60.124,60.124,0,0,0,8.113,3.863,30.423,30.423,0,0,0,17.388.785C180.8,99.787,182.546,98.439,182.561,95.439ZM266.738,272.99c-.372-.878.749-2.4-.971-2.706s-1.74,1.363-2.066,2.4a80.982,80.982,0,0,0-2.67,12.022,14,14,0,0,0-.036,3.832,1.919,1.919,0,0,0,2.066,1.885c1.157-.046,1.281-1.064,1.4-1.859.79-5.144,1.508-10.308,2.283-15.549ZM57,250.685c-.088-.6.181-1.219-.418-1.482a1.4,1.4,0,0,0-1.653.367,5.454,5.454,0,0,0-1.033,1.446,88.257,88.257,0,0,0-4.24,11.026,7.747,7.747,0,0,0-.31,2.277A1.906,1.906,0,0,0,51,266.328a1.782,1.782,0,0,0,2.1-1.131A82.379,82.379,0,0,0,57,250.685Zm84.316-39.274a78.252,78.252,0,0,0-2.267-13.515c-.258-.981-.625-1.952-1.8-1.756-1.084.176-1.441,1.146-1.348,2.19.418,4.534.609,9.1,1.869,13.51.387,1.343.842,3.352,2.582,3.037S140.845,212.537,141.32,211.412Zm11.558,15.3c.563,4.038.806,7.917,1.926,11.64.382,1.281,1.167,2.417,2.8,2.04s1.095-1.761,1.033-2.773c-.408-4.457-1.663-8.779-2.541-13.138a1.348,1.348,0,0,0-1.369-1.265,1.446,1.446,0,0,0-1.518,1.157,18.433,18.433,0,0,0-.336,2.339ZM35.727,297.736v-2.83c0-.811.341-1.8-1.033-1.916a1.652,1.652,0,0,0-1.854,1.43c-.935,4.534-1.921,9.068-1.8,13.737.031,1.172.263,2.319,1.72,2.448s1.838-.986,2.066-2.128A60.446,60.446,0,0,0,35.727,297.736ZM273.72,309.573a8.177,8.177,0,0,0-.047,1.281c.093.826-.036,1.952.955,2.19,1.245.294,1.451-.971,1.777-1.771a57.974,57.974,0,0,0,2.319-6.233,14.964,14.964,0,0,0,.542-7.839c-.2-.78-.573-1.549-1.518-1.456a1.415,1.415,0,0,0-1.353,1.332C275.956,301.341,274.262,305.333,273.72,309.573ZM61.662,197.51c-.036,1.229-.083,2.623,1.327,3.016,1.549.423,1.735-1.126,2.117-2.066,1.276-3.181,3.026-6.166,3.822-9.554.248-1.033.775-2-.516-2.613a2.069,2.069,0,0,0-2.871.945,24.716,24.716,0,0,0-3.894,10.277Zm110.969,60.876c-.491-4.426-.738-8.779-1.988-13.009-.227-.764.072-1.983-1.214-1.792-1,.145-1.162,1.255-1.146,2.066.077,4.281.16,8.567.429,12.838.088,1.441.145,3.615,2.2,3.475S172.253,259.661,172.631,258.385ZM46.066,239.278c-.052,1.549.119,2.468,1.188,2.582,1.327.155,1.7-.9,1.962-1.931a133.846,133.846,0,0,1,5-16.365c.222-.558.516-1.255-.052-1.637s-1.146.217-1.472.682c-3.62,5.216-5.371,11.175-6.631,16.66ZM96.2,198.542c-.072-1.033.341-2.257-.94-2.484-1.1-.191-1.627.862-1.993,1.7-1.033,2.35-1.988,4.736-2.928,7.121a10.766,10.766,0,0,0-.351,5.092,1.518,1.518,0,0,0,1.467,1.513,1.323,1.323,0,0,0,1.616-.94c1.007-4.08,2.928-7.9,3.129-12.017Zm15.229,51.72h-.176c0-.857-.031-1.72,0-2.582s.15-1.668-.837-1.89a1.72,1.72,0,0,0-2.03,1.224c-1.3,3.4-2.2,6.879-1.642,10.556.165,1.1.444,2.345,1.885,2.4,1.715.072,1.782-1.436,1.957-2.541.392-2.386.573-4.787.842-7.178Zm24.535-1.141h-.217c.165,2.21.274,4.431.516,6.636.145,1.25.651,2.453,2.226,2.272,1.756-.207,1.379-1.663,1.353-2.809a64.549,64.549,0,0,0-1.3-11.7c-.145-.723.692-1.921-.651-2.066-1.219-.124-1.844.93-1.911,2-.108,1.88-.021,3.77-.021,5.65Zm126.007,67.9a15.124,15.124,0,0,0,.269,1.973,1.291,1.291,0,0,0,1.337.986A1.229,1.229,0,0,0,264.91,319a62.539,62.539,0,0,0,1.694-13.169,1.431,1.431,0,0,0-1.363-1.549,1.415,1.415,0,0,0-1.6,1.332c-.584,3.589-1.591,7.142-1.673,11.392ZM243.8,312.739c0,1.379.15,2.489,1.694,2.582,1.343.083,1.828-.516,2.112-1.906a19.489,19.489,0,0,1,2.066-4.684,19.583,19.583,0,0,0,1.818-5.071c.15-.759.429-1.585-.516-2.009-1.033-.46-1.6.217-2.066,1-1.43,2.448-2.871,4.885-4.26,7.354a5.123,5.123,0,0,0-.852,2.727Zm-220-33.247v1.384a2.364,2.364,0,0,0,2.252,2.649c1.472.108,1.823-.919,2.066-2.314.429-2.525,1.255-4.983,1.926-7.462.222-.826,1.172-1.756-.263-2.345a2.19,2.19,0,0,0-2.784.651,16.51,16.51,0,0,0-3.191,7.426ZM9.416,300.066c-.052,1.647.186,2.876,1.606,3.486,1.172.516,1.864-.258,2.67-.95,1.239-1.033-.811-1.425-.367-2.556.775-1.968.857-4.193,1.5-6.228.387-1.214.31-2.066-.831-2.515s-1.787.362-2.241,1.219a23.838,23.838,0,0,0-2.339,7.545ZM70.457,225.1c.072,1.276.238,2.36,1.415,2.706s1.585-.728,2.1-1.492c1.508-2.257,2.066-4.865,2.778-7.426.222-.826,1.746-1.72.17-2.582a2.41,2.41,0,0,0-3.16.981A20.581,20.581,0,0,0,70.457,225.1Zm137.755-55.629c1.42-.392,1.4-1.441.914-2.391-1.684-3.279-3.357-6.579-6.063-9.182a3.451,3.451,0,0,0-2.184-1.245c-1.307-.067-2.04.826-1.3,1.7,2.706,3.222,4.059,7.4,7.292,10.215A12.507,12.507,0,0,0,208.212,169.473Zm50.015,87.017a25.573,25.573,0,0,0-5.164-11.454,1.214,1.214,0,0,0-1.6-.429c-.64.351-.578,1.033-.367,1.6.759,2,1.616,3.956,2.37,5.954s1.255,4.131,2.67,5.8c.356.423.749,1.09,1.461.713C258.145,258.37,258.408,257.807,258.227,256.49Zm-1.265,66.938c-.212-.976.145-2.143-.914-2.381-1.2-.269-1.456.919-1.823,1.766-.516,1.183-1.059,2.35-1.513,3.548-.79,2.066-1.869,4.064-2.148,6.311a1.735,1.735,0,0,0,1.079,2.1,1.549,1.549,0,0,0,2.066-.961,57.74,57.74,0,0,0,3.274-10.385ZM85.707,236.365c-1.508-.47-2.148.331-2.68,1.255a43.426,43.426,0,0,0-4.813,12.342c-.181.821-.315,1.869.744,2.195,1.2.367,1.549-.516,1.859-1.549C82.386,245.883,84.049,241.168,85.707,236.365Zm98.8-39.248c1.332,3.94,2.489,8.423,5.655,11.981.444.516,1.146,1.095,1.782.671.8-.516,0-1.214-.212-1.8-1.549-3.878-3.1-7.746-4.57-11.63-.3-.8.139-2.133-1.363-1.906-1.162.186-1.229,1.255-1.291,2.691ZM38.356,216.09c.083.392-.227,1.105.449,1.425a.738.738,0,0,0,1.084-.289c2.009-4.353,5.366-7.9,7.39-12.239.418-.9.516-1.72-.444-2.205s-1.415.217-1.849.9c-1.957,3.1-4.235,6-5.815,9.332a5.846,5.846,0,0,0-.837,3.088ZM18.644,323.976h.093c0,1.451-.1,2.913.031,4.353.1,1.105,1.033,1.549,2.04,1.549.692,0,1.374-.181,1.549-1.033a21.839,21.839,0,0,0-.315-10.153c-.232-.78-.573-1.461-1.549-1.389s-1.234.764-1.317,1.591Q18.9,321.43,18.644,323.976ZM166,157.409c.563,3.388,1.033,6.775,2.639,9.853.47.9,1.183,1.973,2.334,1.549,1.3-.48.728-1.782.516-2.706a67.815,67.815,0,0,0-2.835-9.27c-.284-.744-.1-1.926-1.389-1.673C166.093,155.4,166.237,156.557,166,157.409Zm-37.079,20.078c-.057-1.193-.077-2.391-.191-3.574a1.327,1.327,0,0,0-1.369-1.26,1.224,1.224,0,0,0-1.4.883c-.718,3.491-1.658,6.977-1.167,10.6a1.647,1.647,0,0,0,1.709,1.585,1.612,1.612,0,0,0,1.642-1.637c.284-2.184.976-4.338.775-6.59Zm-26.508-2.949V176c.026,1.25.516,2.324,1.864,2.267,1.229-.046,1.214-1.121,1.2-2.138a10.328,10.328,0,0,1,.47-2.246c.516-2.252,1.033-4.493,1.467-6.76.15-.821.155-1.823-.893-2.143s-1.591.516-1.885,1.327a33.1,33.1,0,0,0-2.221,8.237ZM72.5,154.4c-.093,1.157,0,1.952.888,2.231A1.268,1.268,0,0,0,75,155.741c1.43-3.274,3.2-6.4,4.26-9.838.227-.738.738-1.446-.238-1.973a1.5,1.5,0,0,0-2,.63,26.007,26.007,0,0,0-4.519,9.827Zm82.627,36.444c-.072-4.514.036-9.4-1.074-14.181-.165-.7.516-1.978-1-1.844-1.146.1-1.105,1.141-1.069,2,.165,4.106.315,8.216.578,12.317a3.222,3.222,0,0,0,1.25,2.7c.351.227.707.491,1.162.17.3-.222.553-.423.155-1.167Zm56.935,63.293c-.733-3.367-1.115-6.61-2.747-9.492-.516-.909-1.079-2.014-2.283-1.622-1.338.439-.837,1.637-.594,2.629.47,1.9.893,3.816,1.41,5.706a8.1,8.1,0,0,0,1.622,3.439,1.761,1.761,0,0,0,1.859.547.992.992,0,0,0,.733-1.208Zm-145.7-85.783c-.186-.873.47-2.339-.857-2.582-1.467-.274-1.3,1.291-1.549,2.195a33.608,33.608,0,0,1-1.968,5.536,45.553,45.553,0,0,0-1.725,4.271c-.346,1.033-.114,1.942,1.11,2.154a1.343,1.343,0,0,0,1.766-1.348c.036-1.193.79-2.066,1.234-3.057A18.1,18.1,0,0,0,66.361,168.352Zm56.491,59.528c.1,2.066-.052,4.131.93,6.047a2.066,2.066,0,0,0,2.03,1.307,1.276,1.276,0,0,0,1.281-1.338,19.8,19.8,0,0,0-1.7-9.755,1.358,1.358,0,0,0-1.7-.8c-.754.212-.775.883-.811,1.451C122.806,225.82,122.853,226.853,122.853,227.88Zm112.234,1.787c-.62-3.439-2.665-6.574-4.9-9.611a.992.992,0,0,0-1.146-.336.935.935,0,0,0-.6,1.245,51.462,51.462,0,0,0,3.971,10.189,1.451,1.451,0,0,0,1.988.651c.759-.377.744-1.064.682-2.138ZM99.3,230.834c.16,1.611.072,3.563,1.709,4.922.676.563,2.21.78,2.066.083-.646-3.372.62-6.636.212-9.946a1.511,1.511,0,0,0-2.99-.3A14.78,14.78,0,0,0,99.3,230.834Zm-2.536-79.012a6.2,6.2,0,0,0,.48,3.021,1.5,1.5,0,0,0,1.709.837c.465-.057.764-.2.857-.733.491-2.778,1.064-5.541,1.5-8.325.16-1.033.067-2.164-1.332-2.37-1.322-.181-1.838.764-2.143,1.8a21.457,21.457,0,0,0-1.069,5.784ZM280.609,272.907c-1.033-3.238-1.549-6.858-3.894-9.74a11.156,11.156,0,0,0-2.582-2.04,1,1,0,0,0-1.394.191.816.816,0,0,0,.289,1.126c2.36,1.746,2.629,4.5,3.388,7a13.493,13.493,0,0,0,2.066,4.379,1.415,1.415,0,0,0,1.591.547c.7-.176.408-.806.532-1.456Zm-21.772-32.08c.749-.253.7-.986.449-1.549-1.157-2.582-1.245-5.49-2.215-8.144a7.92,7.92,0,0,0-1.456-2.964,1.4,1.4,0,0,0-1.611-.491c-.516.217-.961.661-.744,1.2,1.363,3.4,1.286,7.271,3.341,10.447a3.729,3.729,0,0,0,2.231,1.513ZM219.16,239.52c.831,2.975,1.684,6.553,3.765,9.657.382.578,1.033,1.327,1.911.671a1.606,1.606,0,0,0,.454-2.04c-1.245-3.16-2.174-6.45-3.832-9.44-.3-.553-.356-1.487-1.3-1.265S219.083,238.074,219.16,239.52Zm16.954-31.305c-.139-.32-.274-.63-.4-.945a43.014,43.014,0,0,0-6.445-10.984c-.516-.609-1.033-1.322-1.885-.687-.744.553-.232,1.312.072,1.854,1.875,3.346,3.8,6.667,5.732,9.982a2.537,2.537,0,0,0,1.647,1.5c.62.088,1.214.145,1.281-.744Zm32.535,122.273a1.472,1.472,0,0,0-.971-1.627c-.79-.3-1.338.212-1.746.764a29.323,29.323,0,0,0-4.317,8.717,1.515,1.515,0,0,0,.682,2c.893.423,1.5-.186,1.869-.9,1.374-2.66,2.7-5.35,4.038-8.036.186-.361.351-.749.449-.945Zm-23.58-68.245a35.308,35.308,0,0,0-1.689-8.779c-.2-.733-.594-1.255-1.4-1.245a1.084,1.084,0,0,0-1.188,1.1,26.354,26.354,0,0,0,2.205,11.232,1.2,1.2,0,0,0,1.3.63c.713-.067.723-.64.764-1.131C245.105,263.436,245.069,262.832,245.069,262.243Zm5.226,17.992c-.227-1.549-.516-3.248-.707-4.942a1.307,1.307,0,0,0-1.033-1.3,1.343,1.343,0,0,0-1.632.935,12.767,12.767,0,0,0-.676,7.524,1.807,1.807,0,0,0,1.864,1.472,1.936,1.936,0,0,0,1.839-1.549,13.385,13.385,0,0,0,.346-2.159ZM81.059,176.445c.041.248-.294,1.183.707,1.467s1.332-.465,1.637-1.229c1.095-2.763,2.613-5.355,3.2-8.335.145-.738.434-1.338-.367-1.7a1.537,1.537,0,0,0-2.19.656C82.794,170.1,81.229,172.794,81.059,176.445ZM203.172,214.83a20.363,20.363,0,0,0,2.856,6.967,3.615,3.615,0,0,0,1.947,1.6,1.446,1.446,0,0,0,1.446-.2c.387-.367.145-.785-.036-1.167-1.281-2.789-2.541-5.583-3.868-8.351-.289-.609-.78-1.239-1.606-.94S203.048,213.73,203.172,214.83ZM188.645,229.5c.155-3.052-1.229-5.448-2.422-7.917-.341-.7-.15-1.952-1.467-1.523-1.085.356-.862,1.451-.7,2.231.516,2.515,1.146,5.009,1.807,7.488.284,1.033.578,2.489,2.014,2.195S188.407,230.225,188.645,229.5Zm6.223-50.4c1.131-.072,1.492-.821,1.177-1.921a17.089,17.089,0,0,0-3.827-6.3,1.338,1.338,0,0,0-1.833-.382,1.528,1.528,0,0,0-.516,2.04A16.086,16.086,0,0,0,193,178.066,2.623,2.623,0,0,0,194.868,179.1ZM49.753,280.834a13.544,13.544,0,0,0-.248-1.818c-.129-.568-.408-1.2-1.146-1.177a1.229,1.229,0,0,0-1.162.873c-.8,2.422-1.89,4.782-1.663,7.442.077.94.413,1.663,1.477,1.776a1.585,1.585,0,0,0,1.875-1.353,18.865,18.865,0,0,0,.847-5.774ZM206.694,189.5a20.815,20.815,0,0,0,2.634,6.027c.48.816,1.126,1.653,2.262,1.177s.95-1.549.785-2.469c-.429-2.37-2.112-4.059-3.408-5.96-.361-.516-.738-.992-1.436-.78-.842.222-.878.94-.857,1.973Zm-31.9-82.266a2.084,2.084,0,0,0-1.7,2.639c.367,2.882,2.329,4.834,4.2,6.812a1.343,1.343,0,0,0,1.668.217c.744-.47.341-1.177.129-1.818-.806-2.417-2.582-4.384-3.1-6.946A1.275,1.275,0,0,0,174.789,107.234ZM187.7,142.95c-.17-2.582-1.968-4.529-3.279-6.713-.372-.625-.671-1.549-1.689-1.224-1.146.361-.9,1.41-.739,2.179a22.885,22.885,0,0,0,3.021,6.775c.377.64.775,1.518,1.72,1.276,1.095-.274.924-1.26.976-2.293Zm-19.108,63.329a14.684,14.684,0,0,0-1.11-6.46c-.279-.769-.15-1.926-1.379-1.735s-1.338,1.245-1.2,2.215c.372,2.53.785,5.056,1.265,7.56.2,1.079.578,2.582,1.828,2.381s.315-1.74.578-2.639a5.836,5.836,0,0,0,.026-1.322Zm-24.835-53.563a14.415,14.415,0,0,0,.961,4.648c.289.64.78,1.3,1.472,1.234.78-.067.909-.955,1.033-1.591.392-2.066-.238-4.075-.584-6.063-.16-.924.516-2.918-1.363-2.716-1.523.165-1.369,1.9-1.513,3.14C143.732,151.61,143.757,151.868,143.757,152.715ZM112.22,202.436v-1.8c-.041-.8.356-1.869-.9-2.066s-1.549.692-1.787,1.7a19.727,19.727,0,0,0-.491,5.355c0,1.183-.139,2.443.749,3.424a1.663,1.663,0,0,0,1.6.6c.4-.088.439-.516.382-.831-.392-2.252.785-4.41.449-6.378ZM96.965,132.5c.821-3.362,1.575-6.579,2.4-9.781.191-.723.79-1.441-.32-1.885-.93-.372-1.456.238-1.833.935a15.364,15.364,0,0,0-1.957,8.118A2.625,2.625,0,0,0,96.965,132.5ZM73.349,203.175c.181,1.095-.377,2.582,1.079,2.887,1.307.263,1.492-1.162,1.833-2.066.692-1.838,1.27-3.713,1.942-5.557.2-.516.738-.986.026-1.549a1.489,1.489,0,0,0-2.066.217A8.831,8.831,0,0,0,73.349,203.175Zm67.135-93.312a23.124,23.124,0,0,0,.263,2.815c.1.516.413,1.234,1.157,1.214.883,0,.661-.79.769-1.348.429-2.179.769-4.39,1.41-6.507.284-.95,1.368-1.813-.067-2.53-1.338-.671-2.277.072-2.907,1.291-.676,1.363-.558,2.835-.594,5.066ZM155.15,258.075a13.691,13.691,0,0,0-.976-5.014c-.2-.516-.48-.914-1.11-.842a1.064,1.064,0,0,0-1.059.945c-.041,2.825-.047,5.65.031,8.474,0,.651.64.976,1.317.986s1.033-.325,1.25-1.033a10.457,10.457,0,0,0,.578-3.481Zm-127.2-1.9c.067,1.033-.114,2.03,1.09,2.215s1.27-.692,1.6-1.549c.744-1.906,1.673-3.734,2.515-5.6.258-.568,1-1.115.207-1.787s-1.42-.418-2.04.186A11.082,11.082,0,0,0,27.945,256.18Zm164.423-7.09a16.123,16.123,0,0,0-2.283-6.414,1.152,1.152,0,0,0-1.523-.573,1.353,1.353,0,0,0-.914,1.41,12.843,12.843,0,0,0,2.5,6.615,1.477,1.477,0,0,0,1.611.516c.821-.227.5-.955.609-1.554Zm-71.338-94.2c0,1.177.212,2.019,1.2,2.3s1.492-.248,1.942-1.162a15.493,15.493,0,0,0,1.436-5.428c.062-.62.057-1.239-.62-1.549a1.239,1.239,0,0,0-1.6.47,15.141,15.141,0,0,0-2.365,5.371Zm-6.14-76.146c1.5-.418,4.317.217,4.3-1.425-.036-2.215-2.825-1.115-4.395-1.549a.382.382,0,0,0-.253,0c-1.033.615-3.31-.64-3.238,1.348C111.367,78.991,113.49,78.454,114.889,78.748Zm-2.67,33.263c.052-.64,0-1.291-.707-1.456a1.131,1.131,0,0,0-1.281.666c-.821,1.776-1.9,3.476-1.7,5.572.062.64.165,1.214.94,1.286.682.067,1.033-.232,1.327-.909a25.159,25.159,0,0,0,1.42-5.159ZM191.335,119a1.13,1.13,0,0,0-1.033,1.782,11.4,11.4,0,0,0,2.892,4.173c.516.418,1.2,1.033,1.828.589.914-.646.062-1.363-.238-2-.516-1.079-1.033-2.143-1.627-3.176A2.51,2.51,0,0,0,191.335,119Zm-28.527-47.48v-.031h-1.787c-.775,0-1.637-.046-1.766.992-.139,1.141.744,1.472,1.606,1.549a17.042,17.042,0,0,0,3.806-.041c.847-.129,2.195-.351,2.153-1.394s-1.343-.981-2.231-1.033A12.812,12.812,0,0,0,162.808,71.518Zm88.757,284.414a12.762,12.762,0,0,0,.155,1.782c.062.289.372.692.6.718a.95.95,0,0,0,.738-.568c.516-2.066,1.611-3.94,1.777-6.1.046-.594.258-1.234-.615-1.4-.754-.15-1.095.372-1.327.935C252.288,352.787,251.436,354.217,251.565,355.932ZM143.484,62.331a22.762,22.762,0,0,0,.367,3.042,1.337,1.337,0,0,0,1.833.914c1-.279.31-.868.248-1.389-.176-1.43-.17-2.892-.418-4.3-.119-.671,1.033-1.916-.465-1.942-.971,0-1.286,1.177-1.384,2.153C143.618,61.314,143.551,61.82,143.484,62.331Zm-18.684,1.9c-.728,0-1.193.191-1.09,1.033.2,1.549,3.9,3.713,5.3,3.1.516-.232,1-.728.382-1.095C127.81,66.3,126.592,64.789,124.8,64.232ZM140.685,74.4c.17-1.916-1.11-2.753-2.582-3.377-.387-.165-.806-.831-1.332-.253a1.214,1.214,0,0,0,.041,1.637c.651.888,1.358,1.73,1.993,2.623.367.516.351,1.591,1.2,1.369S140.618,75.128,140.685,74.4ZM159.3,63.23c.878-.775,2.277-1.255,2.474-2.83.119-.966-.64-.945-1.183-.79-1.461.423-2,1.7-2.35,3.006C158.1,63.142,158.656,63.245,159.3,63.23Zm77.4,250.557c-.3,1.074-3.491,1.782-.062,3.408C236.45,315.951,237.627,315.011,236.7,313.787ZM66.077,276.253a25.822,25.822,0,0,1,.516-4.581c-1.136,1.415-.992,2.964-.516,4.581ZM185.324,82.528c.155-.263.594-.258.325-.594a3.758,3.758,0,0,0-.7-.568c-.108.181-.356.449-.3.516A3.305,3.305,0,0,0,185.324,82.528Zm24.747,63.52c.108.093.2.232.3.248a1.033,1.033,0,0,0,.4-.124c-.083-.093-.16-.258-.253-.269S210.236,146.012,210.071,146.048Z" transform="translate(-0.035 -22.625)"/>
    <path id="Path_2068" data-name="Path 2068" class="cls-2" d="M277.6,51.342c-1.725-1.451-3.667-2.582-3.672-5.412,0-1.152-1.188-2.443-2.1-3.419-1.157-1.239-2.329,0-3.522.3-1.5.382-2.809-.553-4.033-1.2a4.606,4.606,0,0,0-3.191-.553c-3.037.584-6.187-.615-9.234.764-1,.454-1.115-.744-.516-1.456.687-.8,1.105-1.611.367-2.5s-1.6-.351-2.376-.057c-2.066.78-4.157,1.591-6.2,2.453a2.7,2.7,0,0,1-3.253-.331c-1.7-1.389-3.7-2.918-5.567,0-.568.888-1.265.052-1.818-.119-1.224-.377-2.582-.341-2.8.9-.336,1.761-1.653,1.776-2.753,2.143-3.785,1.255-6.781,3.951-10.4,5.5a1.152,1.152,0,0,0-.547,1.549c.62,1.663-.485,2.515-1.549,3.408-3.785-3.47-4.25-6.925-1.916-11.423a22.015,22.015,0,0,1,9.688-9.75l7.09-2.923c2.99-.191,5.794-1.25,8.7-1.844h2.159l12.833.083c2.608,1.141,5.448.914,8.17,1.363,4.038.671,7.746,2.37,11.48,3.873,1.735,1.632,3.465,3.279,5.216,4.9,2.975,2.758,3.615,6.311,3.2,10.091C280.844,49.612,280.291,51.585,277.6,51.342Z" transform="translate(-102.098 -13.237)"/>
    <path id="Path_2069" data-name="Path 2069" class="cls-3" d="M54,619.61c1.6-.651.4-3.408,2.665-3.558a19.314,19.314,0,0,1,3.248,4.927c4.369,7.746,11.661,10.809,19.882,12.3,2.112.382,2.99-.852,2.9-2.882a12.258,12.258,0,0,0-1.766-5.071c-.713-1.384-.816-2.82.718-3.574,1.637-.806,1.033-1.653.4-2.629a4.788,4.788,0,0,0-.687-.764c-3.93-3.894-3.785-4.648,1.4-6.791,1.152-.48,1.033-.991.222-1.622a18.323,18.323,0,0,0-1.7-1.167,3.13,3.13,0,0,1-1.74-3.186,3.25,3.25,0,0,1,2.582-2.582c1.286-.413,2.747-.842,4.183-1.281-.47-1.4-1.684-1.6-2.582-2.107-3.1-1.709-6.285-3.212-9.3-5.071-3.1-1.926-3.692-5.319-1.7-8.01.971-1.317,2.262-1.962,3.8-1.177,1.146.583,1.751,1.549.331,2.551-1.962,1.343-1.224,2.365.367,3.14,2.629,1.281,5.324,2.412,7.989,3.615a27.659,27.659,0,0,1,6.662,3.883c3.305,2.794,2.892,6.2-1.064,7.85-1.518.646-2.195.961-1.157,2.747a4.6,4.6,0,0,1-1.146,6.073,2.264,2.264,0,0,0-.785,3.006c.893,2.448,1.415,5.03-.759,7.23-.63.64-.222,1.25-.057,1.906a21.427,21.427,0,0,1,.744,3.517c.351,4.488-2.355,8.149-6.781,7.974-8.846-.346-17.238-2.308-23.187-9.776A16.257,16.257,0,0,1,54,619.61Z" transform="translate(-26.131 -282.905)"/>
    <path id="Path_2070" data-name="Path 2070" class="cls-3" d="M440.217,621.4c1.136.692,2.706.315,3.651,1.477-.63,1.854-2.19,2.582-3.811,3.346-4.772,2.288-9.507,3.331-14.532.661-3.914-2.066-4.968-4.493-3.408-8.619.294-.77.78-1.353-.227-2.19-3.181-2.629-3.388-4.519-.966-7.87.759-1.033,1.11-1.58-.212-2.582-1.844-1.368-1.673-3.253-.294-4.963a14.507,14.507,0,0,1,1.983-1.709c-4.844-3.037-4.978-4.441-1.167-9.926-.486-.847-1.456-.78-2.2-1.115-3.269-1.487-4.131-4.25-1.921-7.07,2.582-3.248,6.027-5.247,10.241-4.963,2.19.145,3.532-1.033,5.045-1.993,1.141-.713.945-1.678-.108-2.722-1.792-1.761-1.482-2.815.749-3.579.062.16.083.413.2.465,3.243,1.425,3.827,4.131,3.615,7.292a3.3,3.3,0,0,1-1.756,2.432c-2.345.95-4.395,2.623-7.08,2.763a8.707,8.707,0,0,0-5.546,2.458,33.977,33.977,0,0,0,7.1,1.689c1.611.176,3.011.9,3.1,2.84s-1.115,2.773-2.778,3.1a8.2,8.2,0,0,0-4.7,2.7c1.828,1.131,4.235,1.245,5.164,3.29,1.095,2.4-.63,3.909-2.215,5.283,6.275,4.57.067,6.409-2.066,9.022,5.293,2.267,5.722,3.785,2.314,7.695-1.3,1.487-.852,2.066.842,2.582C432.9,622.331,436.566,621.629,440.217,621.4Z" transform="translate(-201.132 -274.471)"/>
    <path id="Path_2071" data-name="Path 2071" class="cls-2" d="M235.36,12.592c.553-3.945,3.579-5.908,6.569-7.643,9.771-5.67,20.177-6.28,30.686-2.773,4.839,1.611,9.538,4.131,10.447,10.189.129.847.516,1.627.093,2.474a4.994,4.994,0,0,1-2.721-1.136,23.5,23.5,0,0,0-9.657-4.5,61.788,61.788,0,0,0-13.618-.584c-3.615.176-7.2.609-10.819.718A19.326,19.326,0,0,0,235.36,12.592Z" transform="translate(-113.833 -0.003)"/>
    <path id="Path_2072" data-name="Path 2072" class="cls-4" d="M233.069,20.544a19.326,19.326,0,0,1,10.979-3.259c3.615-.108,7.23-.542,10.819-.718a61.788,61.788,0,0,1,13.618.584,23.478,23.478,0,0,1,9.657,4.5,4.994,4.994,0,0,0,2.722,1.136c.516,1.513,1.942,2.778,1.214,4.612-3.754-1.5-7.442-3.2-11.48-3.873-2.722-.449-5.562-.222-8.17-1.363a1.245,1.245,0,0,0-1.27-.671c-3.837.553-7.746-.16-11.563.589h-2.159a14.8,14.8,0,0,0-8.7,1.844l-7.09,2.928c-1.26-1.095-1.384-2.407-.238-3.522C232.258,22.512,232.3,21.34,233.069,20.544Z" transform="translate(-111.542 -7.956)"/>
    <path id="Path_2073" data-name="Path 2073" class="cls-3" d="M448.409,556.486c1.3.542,2.8.614,3.982,1.7-.986,1.575-2.629,1.327-4.007,1.7-.77-.062-1.549-.108-2.308-.181-1.033-.088-1.911-.408-1.885-1.647.031-1.4,1.033-1.606,2.164-1.606C447.04,556.45,447.706,556.476,448.409,556.486Z" transform="translate(-214.818 -269.089)"/>
    <path id="Path_2074" data-name="Path 2074" class="cls-3" d="M84.25,570.176c.088-3.1,1.869-2.107,3.512-1.456L91,570.233c.434.2,1.121.181.976.919-.114.578-.62.718-1.162.811C88.345,572.392,86.347,571.116,84.25,570.176Z" transform="translate(-40.759 -274.692)"/>
    <path id="Path_2075" data-name="Path 2075" class="cls-5" d="M225.848,194.933a40.582,40.582,0,0,1,3.692,3.2c1.937,2.112,4.1,3.579,7.1,3.475,3.956-.139,7.881.052,11.878-.367,4.446-.47,7.891-2.458,11.625-4.162a22.616,22.616,0,0,1,6.409-1.818c4.038-.547,7.085,3.284,6.151,7.7a11.95,11.95,0,0,1-3.749,6.631c-6.559,5.753-14.041,8.717-22.945,7.56-4.751-.615-9.6-.568-14.31-1.363a26.417,26.417,0,0,1-14.434-7.922c-2.938-2.975-2.83-6.75-1.947-10.406.764-3.176,3.145-4.131,7.958-3.76Z" transform="translate(-103.877 -93.634)"/>
    <path id="Path_2077" data-name="Path 2077" class="cls-6" d="M227.513,117.282c2.685-.713,5.087.816,7.426,2.468,3.574,2.53,4.224,6.409,1.4,9.543-5.934,6.595-13.117,10.643-22.284,10.266-3-.119-5.8-1.312-8.707-1.916-2.7-.568-3.538-4.906-1.838-7.979a20.431,20.431,0,0,1,5.923-6.362C214.7,119.425,220.459,117.049,227.513,117.282Zm-6.992,13.825c0,3.037,1.9,3.878,4.792,3.042,3-.868,4.054-2.964,5.056-5.4.713-1.74-1.033-5.614-2.8-6.13a2.623,2.623,0,0,0-1.492.067C223.888,123.469,220.505,128.648,220.521,131.106Z" transform="translate(-98.008 -56.63)"/>
    <path id="Path_2078" data-name="Path 2078" class="cls-6" d="M320.254,126.41c0,2.98-1.761,4.328-4.064,4.885a30.422,30.422,0,0,1-17.388-.754,60.123,60.123,0,0,1-8.113-3.863c-3.145-1.637-4.694-4.328-5.6-7.555-.873-3.1.041-5.237,3.1-6.76,3.512-1.746,7.23-1.761,11.062-1.224,7.054.992,13.226,3.553,17.848,9.208C318.637,122.217,320.006,124.169,320.254,126.41Zm-21.06,2.345c1.141-.331,2.277-.315,2.122-2.623-.258-3.966-2.133-6.373-5.288-8.4-1.906-1.229-2.892-.9-3.837.94-1.88,3.656,2.246,9.833,7,10.106Z" transform="translate(-137.727 -53.596)"/>
    <path id="Path_2079" data-name="Path 2079" class="cls-6" d="M511,482.28c-.775,5.242-1.492,10.406-2.288,15.57-.124.8-.248,1.813-1.4,1.859a1.93,1.93,0,0,1-2.066-1.885,14,14,0,0,1,.036-3.832,80.993,80.993,0,0,1,2.67-12.022c.331-1.033.315-2.711,2.066-2.4S510.629,481.4,511,482.28Z" transform="translate(-244.287 -231.895)"/>
    <path id="Path_2080" data-name="Path 2080" class="cls-6" d="M103.169,440.1a82.381,82.381,0,0,1-3.92,14.511,1.782,1.782,0,0,1-2.1,1.131,1.906,1.906,0,0,1-1.647-2.019,7.746,7.746,0,0,1,.31-2.277,84.579,84.579,0,0,1,4.24-11.026,5.452,5.452,0,0,1,1.033-1.446,1.4,1.4,0,0,1,1.653-.367C103.35,438.884,103.082,439.5,103.169,440.1Z" transform="translate(-46.2 -212.042)"/>
    <path id="Path_2081" data-name="Path 2081" class="cls-6" d="M268.524,351.247c-.475,1.126.78,3.14-.976,3.465s-2.184-1.694-2.582-3.037c-1.26-4.405-1.451-8.975-1.869-13.51-.093-1.033.263-2.014,1.348-2.19,1.177-.2,1.549.775,1.8,1.756A78.249,78.249,0,0,1,268.524,351.247Z" transform="translate(-127.239 -162.46)"/>
    <path id="Path_2082" data-name="Path 2082" class="cls-6" d="M296,391.913a18.427,18.427,0,0,1,.31-2.339,1.446,1.446,0,0,1,1.518-1.157,1.348,1.348,0,0,1,1.368,1.265c.878,4.374,2.133,8.681,2.541,13.138.088,1.033.63,2.391-1.033,2.773s-2.422-.759-2.8-2.04C296.8,399.829,296.558,395.946,296,391.913Z" transform="translate(-143.157 -187.83)"/>
    <path id="Path_2083" data-name="Path 2083" class="cls-6" d="M64.773,528.273a62.42,62.42,0,0,1-.878,10.742c-.243,1.141-.609,2.257-2.066,2.128s-1.689-1.275-1.72-2.448c-.124-4.648.862-9.2,1.8-13.737a1.653,1.653,0,0,1,1.854-1.431c1.369.114,1.033,1.105,1.033,1.916C64.784,526.383,64.773,527.328,64.773,528.273Z" transform="translate(-29.081 -253.162)"/>
    <path id="Path_2084" data-name="Path 2084" class="cls-6" d="M529.95,542.7c.558-4.24,2.252-8.232,2.675-12.5a1.415,1.415,0,0,1,1.353-1.332c.945-.067,1.322.676,1.518,1.456a14.974,14.974,0,0,1-.542,7.839,58,58,0,0,1-2.319,6.233c-.325.8-.516,2.066-1.776,1.771-.992-.237-.862-1.363-.955-2.19A8.161,8.161,0,0,1,529.95,542.7Z" transform="translate(-256.264 -255.748)"/>
    <path id="Path_2085" data-name="Path 2085" class="cls-6" d="M119.337,327.915a24.637,24.637,0,0,1,3.889-10.277,2.069,2.069,0,0,1,2.871-.945c1.276.609.749,1.549.516,2.613-.8,3.388-2.546,6.373-3.822,9.554-.382.945-.578,2.494-2.117,2.066C119.249,330.538,119.3,329.123,119.337,327.915Z" transform="translate(-57.72 -153.026)"/>
    <path id="Path_2086" data-name="Path 2086" class="cls-6" d="M330.178,442.686c-.377,1.27.413,3.47-1.72,3.615s-2.112-2.035-2.2-3.475c-.269-4.271-.351-8.557-.429-12.838,0-.826.15-1.937,1.146-2.066,1.286-.191.986,1.033,1.214,1.792C329.44,433.9,329.688,438.281,330.178,442.686Z" transform="translate(-157.583 -206.926)"/>
    <path id="Path_2087" data-name="Path 2087" class="cls-6" d="M89.162,403.141c1.26-5.484,3-11.444,6.631-16.665.325-.465.837-1.095,1.472-.682s.274,1.079.052,1.637a134.679,134.679,0,0,0-5,16.365c-.263,1.033-.635,2.066-1.962,1.931C89.281,405.609,89.111,404.706,89.162,403.141Z" transform="translate(-43.131 -186.499)"/>
    <path id="Path_2088" data-name="Path 2088" class="cls-6" d="M180.315,338.283c-.2,4.131-2.123,7.948-3.13,12.007a1.311,1.311,0,0,1-1.616.94,1.518,1.518,0,0,1-1.467-1.513,11.106,11.106,0,0,1,.351-5.092c.94-2.386,1.9-4.772,2.928-7.121.367-.842.893-1.9,1.993-1.7C180.656,336.026,180.243,337.245,180.315,338.283Z" transform="translate(-84.15 -162.376)"/>
    <path id="Path_2089" data-name="Path 2089" class="cls-6" d="M211.206,436.549c-.269,2.391-.449,4.792-.831,7.163-.176,1.105-.243,2.613-1.957,2.541-1.441-.057-1.72-1.3-1.885-2.4-.558-3.677.346-7.158,1.642-10.556a1.72,1.72,0,0,1,2.03-1.224c.986.222.873,1.095.837,1.89s0,1.72,0,2.582Z" transform="translate(-99.812 -208.923)"/>
    <path id="Path_2090" data-name="Path 2090" class="cls-6" d="M263.057,431.4c0-1.88-.088-3.77.031-5.644.067-1.074.692-2.128,1.911-2,1.343.139.516,1.337.651,2.066a64.553,64.553,0,0,1,1.3,11.7c.026,1.146.4,2.582-1.353,2.809-1.575.181-2.066-1.033-2.226-2.272-.253-2.205-.361-4.426-.516-6.636Z" transform="translate(-127.127 -204.914)"/>
    <path id="Path_2091" data-name="Path 2091" class="cls-6" d="M507.24,558.1c.083-4.25,1.09-7.8,1.668-11.418a1.415,1.415,0,0,1,1.6-1.332,1.43,1.43,0,0,1,1.363,1.549,62.535,62.535,0,0,1-1.694,13.169,1.229,1.229,0,0,1-1.332.976,1.291,1.291,0,0,1-1.337-.986A15.122,15.122,0,0,1,507.24,558.1Z" transform="translate(-245.308 -263.715)"/>
    <path id="Path_2092" data-name="Path 2092" class="cls-6" d="M472.05,551.233a5.122,5.122,0,0,1,.857-2.742c1.389-2.469,2.83-4.906,4.26-7.354.454-.78,1.033-1.456,2.066-1,.95.423.671,1.25.516,2.009a19.586,19.586,0,0,1-1.818,5.071,19.85,19.85,0,0,0-2.066,4.684c-.284,1.415-.77,1.988-2.112,1.906C472.2,553.722,472.06,552.612,472.05,551.233Z" transform="translate(-228.291 -261.13)"/>
    <path id="Path_2093" data-name="Path 2093" class="cls-6" d="M46.065,489.58a16.388,16.388,0,0,1,3.191-7.411,2.19,2.19,0,0,1,2.783-.677c1.436.589.485,1.518.263,2.345-.671,2.479-1.5,4.937-1.926,7.462-.238,1.394-.563,2.427-2.066,2.314a2.354,2.354,0,0,1-2.252-2.649Z" transform="translate(-22.292 -232.725)"/>
    <path id="Path_2094" data-name="Path 2094" class="cls-6" d="M18.194,528.912a23.839,23.839,0,0,1,2.339-7.545c.454-.857,1.131-1.673,2.241-1.219s1.219,1.3.831,2.515c-.646,2.035-.728,4.26-1.5,6.228-.444,1.131,1.606,1.5.367,2.556-.806.692-1.5,1.461-2.67.95C18.38,531.788,18.142,530.559,18.194,528.912Z" transform="translate(-8.813 -251.472)"/>
    <path id="Path_2095" data-name="Path 2095" class="cls-6" d="M136.4,383.59a20.631,20.631,0,0,1,3.305-7.8,2.4,2.4,0,0,1,3.16-.981c1.575.852.052,1.746-.17,2.582-.687,2.582-1.27,5.164-2.778,7.426-.516.764-.9,1.844-2.1,1.492S136.472,384.865,136.4,383.59Z" transform="translate(-65.978 -181.113)"/>
    <path id="Path_2096" data-name="Path 2096" class="cls-6" d="M394.793,272.354a12.512,12.512,0,0,1-1.338-.9c-3.233-2.82-4.586-6.992-7.292-10.215-.744-.878,0-1.771,1.3-1.7a3.5,3.5,0,0,1,2.184,1.245c2.706,2.582,4.379,5.9,6.063,9.182C396.192,270.913,396.213,271.962,394.793,272.354Z" transform="translate(-186.615 -125.507)"/>
    <path id="Path_2097" data-name="Path 2097" class="cls-6" d="M493.155,441.6c.16,1.317-.1,1.88-.661,2.179-.713.377-1.105-.289-1.462-.713-1.415-1.684-1.911-3.8-2.67-5.8s-1.611-3.956-2.37-5.954c-.212-.558-.274-1.245.367-1.6a1.214,1.214,0,0,1,1.6.429,25.574,25.574,0,0,1,5.2,11.454Z" transform="translate(-234.963 -207.734)"/>
    <path id="Path_2098" data-name="Path 2098" class="cls-6" d="M491.6,580.214A57.744,57.744,0,0,1,488.37,590.6a1.549,1.549,0,0,1-2.066.961,1.735,1.735,0,0,1-1.079-2.1c.279-2.246,1.358-4.235,2.148-6.311.455-1.2,1-2.365,1.513-3.548.367-.847.62-2.035,1.823-1.766C491.743,578.071,491.386,579.238,491.6,580.214Z" transform="translate(-234.65 -279.411)"/>
    <path id="Path_2099" data-name="Path 2099" class="cls-6" d="M158.8,413.764c-1.658,4.8-3.321,9.518-4.891,14.269-.33,1.033-.656,1.89-1.859,1.549-1.059-.325-.924-1.374-.744-2.195a43.426,43.426,0,0,1,4.813-12.342C156.649,414.094,157.284,413.3,158.8,413.764Z" transform="translate(-73.126 -200.024)"/>
    <path id="Path_2100" data-name="Path 2100" class="cls-6" d="M357.24,335.376c.062-1.436.129-2.5,1.291-2.68,1.5-.227,1.059,1.105,1.363,1.906,1.477,3.894,3.047,7.746,4.57,11.63.227.584,1.033,1.265.212,1.8-.635.423-1.337-.17-1.782-.671C359.729,343.8,358.572,339.316,357.24,335.376Z" transform="translate(-172.772 -160.874)"/>
    <path id="Path_2101" data-name="Path 2101" class="cls-6" d="M74.2,362.032a5.846,5.846,0,0,1,.816-3.1c1.58-3.331,3.858-6.233,5.815-9.332.434-.682.976-1.348,1.849-.9s.862,1.307.444,2.205c-2.024,4.343-5.381,7.886-7.39,12.239a.738.738,0,0,1-1.084.289C73.971,363.137,74.281,362.424,74.2,362.032Z" transform="translate(-35.898 -168.556)"/>
    <path id="Path_2102" data-name="Path 2102" class="cls-6" d="M36.07,577.268q.248-2.546.516-5.1c.083-.826.325-1.523,1.317-1.59s1.327.609,1.549,1.389a21.839,21.839,0,0,1,.315,10.153c-.16.873-.842,1.033-1.549,1.033-1.033,0-1.937-.434-2.04-1.549-.134-1.441-.031-2.9-.031-4.354Z" transform="translate(-17.461 -275.918)"/>
    <path id="Path_2103" data-name="Path 2103" class="cls-6" d="M321.41,258.859c.238-.857.093-2.019,1.27-2.252,1.291-.253,1.105.93,1.389,1.673a67.825,67.825,0,0,1,2.835,9.27c.207.924.78,2.226-.516,2.706-1.152.429-1.864-.64-2.334-1.549C322.448,265.64,321.973,262.252,321.41,258.859Z" transform="translate(-155.445 -124.075)"/>
    <path id="Path_2104" data-name="Path 2104" class="cls-6" d="M245.61,295.345c.181,2.252-.516,4.405-.775,6.595a1.625,1.625,0,0,1-1.642,1.637,1.647,1.647,0,0,1-1.709-1.585c-.516-3.615.449-7.106,1.167-10.6a1.224,1.224,0,0,1,1.4-.883,1.327,1.327,0,0,1,1.369,1.26C245.532,292.954,245.553,294.152,245.61,295.345Z" transform="translate(-116.724 -140.477)"/>
    <path id="Path_2105" data-name="Path 2105" class="cls-6" d="M198.278,285.16a33.121,33.121,0,0,1,2.221-8.232c.294-.806.8-1.658,1.885-1.327s1.033,1.322.893,2.143c-.429,2.267-.971,4.508-1.467,6.76a10.33,10.33,0,0,0-.47,2.246c0,1.033.031,2.092-1.2,2.138-1.363.057-1.838-1.033-1.864-2.267C198.273,286.276,198.278,285.935,198.278,285.16Z" transform="translate(-95.9 -133.242)"/>
    <path id="Path_2106" data-name="Path 2106" class="cls-6" d="M140.331,245.175a26.007,26.007,0,0,1,4.519-9.838,1.5,1.5,0,0,1,2-.63c.976.516.465,1.234.238,1.973-1.064,3.439-2.83,6.564-4.26,9.838a1.268,1.268,0,0,1-1.611.888C140.311,247.127,140.238,246.331,140.331,245.175Z" transform="translate(-67.864 -113.412)"/>
    <path id="Path_2107" data-name="Path 2107" class="cls-6" d="M297.418,310.705c.4.744.15.945-.15,1.157-.454.32-.811.057-1.162-.17a3.228,3.228,0,0,1-1.25-2.7c-.263-4.1-.413-8.211-.578-12.317-.036-.857-.077-1.9,1.069-2,1.508-.134.831,1.146,1,1.844C297.454,301.3,297.345,306.2,297.418,310.705Z" transform="translate(-142.318 -142.498)"/>
    <path id="Path_2108" data-name="Path 2108" class="cls-6" d="M405.066,437.817a.992.992,0,0,1-.733,1.208,1.761,1.761,0,0,1-1.859-.547,8.1,8.1,0,0,1-1.622-3.439c-.516-1.89-.94-3.806-1.41-5.706-.243-.992-.744-2.19.594-2.629,1.2-.392,1.766.713,2.283,1.622C403.951,431.207,404.333,434.45,405.066,437.817Z" transform="translate(-193.037 -206.307)"/>
    <path id="Path_2109" data-name="Path 2109" class="cls-6" d="M122.613,279.738a17.938,17.938,0,0,1-2,7.168c-.444,1-1.2,1.864-1.234,3.057a1.343,1.343,0,0,1-1.766,1.348c-1.224-.212-1.456-1.141-1.11-2.153a45.546,45.546,0,0,1,1.725-4.271,33.608,33.608,0,0,0,1.993-5.541c.232-.9.067-2.468,1.549-2.195C123.083,277.4,122.427,278.865,122.613,279.738Z" transform="translate(-56.286 -134.01)"/>
    <path id="Path_2110" data-name="Path 2110" class="cls-6" d="M237.841,393.131c0-1.033-.046-2.066,0-3.1.036-.568.057-1.239.811-1.451a1.358,1.358,0,0,1,1.7.8,19.8,19.8,0,0,1,1.7,9.755,1.276,1.276,0,0,1-1.281,1.338,2.066,2.066,0,0,1-2.029-1.307C237.789,397.268,237.944,395.187,237.841,393.131Z" transform="translate(-115.023 -187.877)"/>
    <path id="Path_2111" data-name="Path 2111" class="cls-6" d="M448.9,391.546c.062,1.074.077,1.761-.682,2.138a1.451,1.451,0,0,1-2-.651,51.955,51.955,0,0,1-3.971-10.189.935.935,0,0,1,.6-1.245.992.992,0,0,1,1.146.336C446.218,384.972,448.284,388.107,448.9,391.546Z" transform="translate(-213.846 -184.504)"/>
    <path id="Path_2112" data-name="Path 2112" class="cls-6" d="M192.25,397.132a14.78,14.78,0,0,1,1.007-5.257,1.511,1.511,0,0,1,2.99.3c.408,3.31-.857,6.574-.212,9.946.134.7-1.4.48-2.066-.083C192.322,400.695,192.41,398.743,192.25,397.132Z" transform="translate(-92.986 -188.923)"/>
    <path id="Path_2113" data-name="Path 2113" class="cls-6" d="M187.315,243.1a21.458,21.458,0,0,1,1.069-5.784c.32-1.033.831-1.968,2.143-1.776,1.4.207,1.492,1.343,1.332,2.37-.434,2.783-1.007,5.546-1.5,8.325-.093.516-.392.676-.857.733a1.5,1.5,0,0,1-1.709-.837,6.2,6.2,0,0,1-.48-3.031Z" transform="translate(-90.586 -113.89)"/>
    <path id="Path_2114" data-name="Path 2114" class="cls-6" d="M535.836,473.452c-.124.651.17,1.281-.553,1.467a1.415,1.415,0,0,1-1.591-.547,13.494,13.494,0,0,1-2.066-4.379c-.759-2.5-1.033-5.257-3.388-7a.816.816,0,0,1-.289-1.126,1,1,0,0,1,1.394-.191,11.156,11.156,0,0,1,2.582,2.04C534.267,466.594,534.793,470.214,535.836,473.452Z" transform="translate(-255.267 -223.16)"/>
    <path id="Path_2115" data-name="Path 2115" class="cls-6" d="M495.9,410.144a3.728,3.728,0,0,1-2.236-1.518c-2.066-3.176-1.978-7.044-3.341-10.447-.217-.516.248-.981.744-1.2a1.4,1.4,0,0,1,1.611.491,7.845,7.845,0,0,1,1.456,2.964c.971,2.654,1.059,5.536,2.216,8.144C496.6,409.158,496.645,409.891,495.9,410.144Z" transform="translate(-237.099 -191.932)"/>
    <path id="Path_2116" data-name="Path 2116" class="cls-6" d="M424.334,417.708c-.078-1.42.093-2.205,1-2.417s1,.713,1.3,1.265c1.658,2.99,2.582,6.28,3.832,9.44a1.606,1.606,0,0,1-.454,2.04c-.873.656-1.549-.093-1.911-.671C426.018,424.235,425.186,420.657,424.334,417.708Z" transform="translate(-205.209 -200.813)"/>
    <path id="Path_2117" data-name="Path 2117" class="cls-6" d="M448.643,347.283c-.067.888-.661.831-1.281.718a2.537,2.537,0,0,1-1.647-1.5c-1.937-3.315-3.858-6.636-5.732-9.982-.3-.542-.816-1.3-.072-1.854.857-.635,1.379.077,1.885.687a43.013,43.013,0,0,1,6.445,10.984C448.369,346.653,448.5,346.963,448.643,347.283Z" transform="translate(-212.563 -161.72)"/>
    <path id="Path_2118" data-name="Path 2118" class="cls-6" d="M513.488,594.528c-.093.2-.263.583-.449.955-1.343,2.685-2.665,5.376-4.038,8.036-.372.718-.976,1.327-1.869.9a1.515,1.515,0,0,1-.682-2,29.32,29.32,0,0,1,4.317-8.717c.408-.553.955-1.064,1.746-.764a1.472,1.472,0,0,1,.976,1.591Z" transform="translate(-244.869 -286.691)"/>
    <path id="Path_2119" data-name="Path 2119" class="cls-6" d="M470.521,454.6c0,.6.036,1.2,0,1.8-.041.516-.052,1.064-.764,1.131a1.2,1.2,0,0,1-1.3-.63,26.668,26.668,0,0,1-2.205-11.232,1.085,1.085,0,0,1,1.188-1.1c.811,0,1.2.516,1.4,1.245A35.663,35.663,0,0,1,470.521,454.6Z" transform="translate(-225.486 -214.982)"/>
    <path id="Path_2120" data-name="Path 2120" class="cls-6" d="M480.566,492.946a13.387,13.387,0,0,1-.33,2.164,1.937,1.937,0,0,1-1.838,1.549,1.807,1.807,0,0,1-1.864-1.472,12.763,12.763,0,0,1,.677-7.524,1.343,1.343,0,0,1,1.632-.935,1.307,1.307,0,0,1,1.033,1.3C480.07,489.7,480.339,491.382,480.566,492.946Z" transform="translate(-230.306 -235.352)"/>
    <path id="Path_2121" data-name="Path 2121" class="cls-6" d="M156.919,288.491c.17-3.651,1.735-6.347,2.985-9.141a1.514,1.514,0,0,1,2.19-.656c.857.377.516.961.367,1.7-.584,2.98-2.1,5.572-3.2,8.335-.3.764-.687,1.5-1.637,1.229S156.955,288.739,156.919,288.491Z" transform="translate(-75.895 -134.672)"/>
    <path id="Path_2122" data-name="Path 2122" class="cls-6" d="M393.348,370.165c-.124-1.1-.026-1.807.738-2.092s1.317.331,1.606.94c1.327,2.768,2.582,5.562,3.868,8.35.181.382.424.8.036,1.167a1.446,1.446,0,0,1-1.446.2,3.615,3.615,0,0,1-1.947-1.6A20.364,20.364,0,0,1,393.348,370.165Z" transform="translate(-190.211 -177.96)"/>
    <path id="Path_2123" data-name="Path 2123" class="cls-6" d="M360.836,391.678c-.237.738.651,2.19-.764,2.474s-1.73-1.146-2.014-2.195c-.661-2.479-1.286-4.973-1.808-7.488-.165-.78-.387-1.875.7-2.231,1.317-.429,1.126.821,1.467,1.523C359.607,386.23,360.991,388.626,360.836,391.678Z" transform="translate(-172.226 -184.802)"/>
    <path id="Path_2124" data-name="Path 2124" class="cls-6" d="M372.468,294.726a2.623,2.623,0,0,1-1.869-1.033,16.086,16.086,0,0,1-3.135-5.552,1.539,1.539,0,0,1,.516-2.04,1.337,1.337,0,0,1,1.833.382,17.088,17.088,0,0,1,3.827,6.3C373.96,293.884,373.6,294.633,372.468,294.726Z" transform="translate(-177.635 -138.252)"/>
    <path id="Path_2125" data-name="Path 2125" class="cls-6" d="M92.291,497.134a18.866,18.866,0,0,1-.868,5.743,1.608,1.608,0,0,1-1.875,1.353c-1.023-.108-1.4-.837-1.477-1.777-.227-2.659.868-5.02,1.663-7.442a1.229,1.229,0,0,1,1.162-.873c.738-.026,1.033.609,1.146,1.177A13.544,13.544,0,0,1,92.291,497.134Z" transform="translate(-42.593 -238.957)"/>
    <path id="Path_2126" data-name="Path 2126" class="cls-6" d="M400.17,321.154c0-1.033,0-1.751.837-2,.7-.212,1.074.243,1.436.78,1.3,1.9,2.98,3.615,3.408,5.96.165.9.351,2-.785,2.468s-1.782-.362-2.262-1.177A20.539,20.539,0,0,1,400.17,321.154Z" transform="translate(-193.532 -154.31)"/>
    <path id="Path_2127" data-name="Path 2127" class="cls-6" d="M336.806,163.84a1.314,1.314,0,0,1,1.2.9c.516,2.582,2.288,4.529,3.1,6.946.212.64.615,1.348-.129,1.818a1.343,1.343,0,0,1-1.668-.217c-1.869-1.978-3.832-3.93-4.2-6.812A2.077,2.077,0,0,1,336.806,163.84Z" transform="translate(-162.051 -79.231)"/>
    <path id="Path_2128" data-name="Path 2128" class="cls-6" d="M357.974,225.511c-.052,1.007.119,2.019-.966,2.3-.945.243-1.343-.635-1.72-1.276a23.612,23.612,0,0,1-3.021-6.775c-.165-.769-.408-1.818.738-2.179,1.033-.32,1.317.6,1.689,1.224C356.006,220.982,357.8,222.928,357.974,225.511Z" transform="translate(-170.298 -105.186)"/>
    <path id="Path_2129" data-name="Path 2129" class="cls-6" d="M322.973,347.938a5.836,5.836,0,0,1,0,1.322c-.263.9.718,2.422-.578,2.639s-1.627-1.3-1.828-2.381c-.48-2.5-.893-5.03-1.265-7.56-.139-.971.031-2.035,1.2-2.215s1.1.966,1.379,1.735A14.913,14.913,0,0,1,322.973,347.938Z" transform="translate(-154.405 -164.285)"/>
    <path id="Path_2130" data-name="Path 2130" class="cls-6" d="M278.34,247.685v-1.358c.145-1.239,0-2.975,1.513-3.14,1.859-.2,1.2,1.792,1.363,2.716.346,1.988.976,4,.584,6.063-.119.635-.248,1.523-1.033,1.591-.692.062-1.183-.594-1.472-1.234A14.423,14.423,0,0,1,278.34,247.685Z" transform="translate(-134.617 -117.595)"/>
    <path id="Path_2131" data-name="Path 2131" class="cls-6" d="M214.272,344.543c.336,1.983-.842,4.131-.454,6.378.057.331,0,.744-.382.831a1.663,1.663,0,0,1-1.6-.6c-.888-.981-.728-2.241-.749-3.424a19.726,19.726,0,0,1,.491-5.355c.258-1.007.563-1.89,1.787-1.7s.857,1.265.9,2.066C214.293,343.252,214.272,343.769,214.272,344.543Z" transform="translate(-102.087 -164.733)"/>
    <path id="Path_2132" data-name="Path 2132" class="cls-6" d="M186.114,201.74a2.611,2.611,0,0,1-1.714-2.613,15.364,15.364,0,0,1,1.957-8.108c.377-.7.9-1.307,1.833-.935,1.11.444.516,1.162.32,1.885C187.689,195.151,186.935,198.378,186.114,201.74Z" transform="translate(-89.184 -91.868)"/>
    <path id="Path_2133" data-name="Path 2133" class="cls-6" d="M142,343.4a8.831,8.831,0,0,1,2.809-6.073,1.424,1.424,0,0,1,2.066-.217c.78.63.17,1.033-.026,1.549-.671,1.844-1.25,3.718-1.942,5.557-.341.909-.516,2.334-1.833,2.066C141.633,345.99,142.191,344.492,142,343.4Z" transform="translate(-68.686 -162.848)"/>
    <path id="Path_2134" data-name="Path 2134" class="cls-6" d="M272.06,162.74c.036-2.231-.083-3.7.625-5.066.63-1.219,1.549-1.962,2.907-1.291,1.436.718.351,1.58.067,2.53-.64,2.117-.981,4.328-1.41,6.507-.108.558.114,1.322-.769,1.348-.744,0-1.059-.7-1.157-1.214A23.121,23.121,0,0,1,272.06,162.74Z" transform="translate(-131.58 -75.503)"/>
    <path id="Path_2135" data-name="Path 2135" class="cls-6" d="M297.492,450.523a10.593,10.593,0,0,1-.553,3.532c-.222.692-.558,1.033-1.25,1.033s-1.3-.336-1.317-.986c-.077-2.825-.072-5.65-.031-8.474a1.064,1.064,0,0,1,1.059-.945c.63-.072.909.32,1.11.842a13.8,13.8,0,0,1,.981,5Z" transform="translate(-142.341 -215.036)"/>
    <path id="Path_2136" data-name="Path 2136" class="cls-6" d="M54.08,445.628a11.083,11.083,0,0,1,3.367-6.517,1.365,1.365,0,0,1,2.04-.186c.723.625.052,1.219-.207,1.787-.842,1.864-1.771,3.692-2.515,5.6-.325.842-.429,1.715-1.6,1.549S54.147,446.676,54.08,445.628Z" transform="translate(-26.17 -212.073)"/>
    <path id="Path_2137" data-name="Path 2137" class="cls-6" d="M368.045,431.894c-.108.6.212,1.327-.609,1.549a1.477,1.477,0,0,1-1.611-.516,12.843,12.843,0,0,1-2.5-6.615,1.353,1.353,0,0,1,.914-1.4,1.152,1.152,0,0,1,1.523.594A16.123,16.123,0,0,1,368.045,431.894Z" transform="translate(-175.711 -205.43)"/>
    <path id="Path_2138" data-name="Path 2138" class="cls-6" d="M234.33,250.56A15.141,15.141,0,0,1,236.7,245.2a1.239,1.239,0,0,1,1.6-.47c.677.294.682.914.62,1.549a15.493,15.493,0,0,1-1.436,5.428c-.449.914-.945,1.441-1.942,1.162S234.335,251.737,234.33,250.56Z" transform="translate(-113.335 -118.291)"/>
    <path id="Path_2139" data-name="Path 2139" class="cls-6" d="M219.077,105.894c-1.4-.294-3.522.243-3.589-1.606-.072-1.988,2.179-.733,3.238-1.348a.382.382,0,0,1,.253,0c1.549.429,4.359-.671,4.395,1.549C223.395,106.111,220.575,105.475,219.077,105.894Z" transform="translate(-104.223 -49.771)"/>
    <path id="Path_2140" data-name="Path 2140" class="cls-6" d="M213.794,171.707a25.163,25.163,0,0,1-1.42,5.164c-.279.676-.646.976-1.327.909-.775-.072-.878-.646-.94-1.286-.2-2.1.878-3.8,1.7-5.572a1.131,1.131,0,0,1,1.281-.666C213.815,170.416,213.846,171.067,213.794,171.707Z" transform="translate(-101.609 -82.322)"/>
    <path id="Path_2141" data-name="Path 2141" class="cls-6" d="M369.324,186.62a2.51,2.51,0,0,1,1.813,1.368c.589,1.033,1.121,2.1,1.627,3.176.3.635,1.152,1.353.238,2-.63.444-1.317-.17-1.828-.589a11.652,11.652,0,0,1-2.892-4.173A1.137,1.137,0,0,1,369.324,186.62Z" transform="translate(-178.023 -90.247)"/>
    <path id="Path_2142" data-name="Path 2142" class="cls-6" d="M311.889,94.612c.594,0,1.193-.041,1.782,0,.888.072,2.184-.041,2.231,1.033s-1.307,1.265-2.153,1.394a17.043,17.043,0,0,1-3.806.041c-.862-.067-1.745-.4-1.606-1.549.129-1.033.992-.992,1.766-.992h1.787Z" transform="translate(-149.116 -45.719)"/>
    <path id="Path_2143" data-name="Path 2143" class="cls-6" d="M487.088,640.168c-.129-1.715.723-3.145,1.332-4.648.232-.563.573-1.085,1.327-.935.873.171.661.811.615,1.4-.165,2.159-1.265,4.043-1.777,6.1a.95.95,0,0,1-.738.568c-.232,0-.542-.429-.6-.718A12.766,12.766,0,0,1,487.088,640.168Z" transform="translate(-235.557 -306.861)"/>
    <path id="Path_2144" data-name="Path 2144" class="cls-6" d="M277.82,73.422c.062-.516.129-1.033.176-1.549.1-.976.413-2.174,1.384-2.153,1.5,0,.346,1.27.465,1.942.248,1.41.243,2.871.418,4.3.062.516.754,1.11-.248,1.389a1.337,1.337,0,0,1-1.833-.914A21.94,21.94,0,0,1,277.82,73.422Z" transform="translate(-134.366 -33.717)"/>
    <path id="Path_2145" data-name="Path 2145" class="cls-6" d="M240.6,80.569c1.792.558,3.011,2.066,4.591,3.011.615.367.124.862-.382,1.095-1.394.625-5.1-1.549-5.3-3.1C239.4,80.76,239.868,80.554,240.6,80.569Z" transform="translate(-115.831 -38.963)"/>
    <path id="Path_2146" data-name="Path 2146" class="cls-6" d="M268.451,96.643c-.067.728.217,1.761-.676,2s-.831-.852-1.2-1.369c-.635-.893-1.343-1.735-1.993-2.623a1.214,1.214,0,0,1-.041-1.637c.516-.578.945.088,1.332.253C267.34,93.891,268.621,94.727,268.451,96.643Z" transform="translate(-127.801 -44.869)"/>
    <path id="Path_2147" data-name="Path 2147" class="cls-6" d="M307.428,75.165c-.646,0-1.2-.088-1.059-.615.346-1.307.888-2.582,2.35-3.006.542-.155,1.3-.176,1.183.79C309.706,73.91,308.306,74.39,307.428,75.165Z" transform="translate(-148.161 -34.561)"/>
    <path id="Path_2148" data-name="Path 2148" class="cls-6" d="M233.8,193.427l-2.582-1.234a4.029,4.029,0,0,1,.248-.439c.708-.992,1.647-1.7,2.773-.893C235.646,191.852,233.828,192.534,233.8,193.427Z" transform="translate(-111.831 -92.128)"/>
    <path id="Path_2149" data-name="Path 2149" class="cls-6" d="M456.785,563.81c.924,1.224-.253,2.184-.062,3.408C453.294,565.592,456.481,564.884,456.785,563.81Z" transform="translate(-220.117 -272.648)"/>
    <path id="Path_2150" data-name="Path 2150" class="cls-6" d="M127.588,486.841c-.475-1.606-.62-3.176.516-4.581a25.821,25.821,0,0,0-.516,4.581Z" transform="translate(-61.546 -233.213)"/>
    <path id="Path_2151" data-name="Path 2151" class="cls-6" d="M358.193,114.931a3.3,3.3,0,0,1-.671-.625c-.057-.088.191-.356.3-.516a3.763,3.763,0,0,1,.7.568C358.8,114.673,358.348,114.668,358.193,114.931Z" transform="translate(-172.904 -55.028)"/>
    <path id="Path_2152" data-name="Path 2152" class="cls-6" d="M9.66,540.608l.6-.418c.165.336.212.635-.222.8Z" transform="translate(-4.689 -261.226)"/>
    <path id="Path_2153" data-name="Path 2153" class="cls-6" d="M88.4,318.533c-.243.243-.485.491-.723.738l-.516-.434.852-.708Z" transform="translate(-42.167 -153.843)"/>
    <path id="Path_2154" data-name="Path 2154" class="cls-6" d="M406.75,238.863c.165-.057.31-.16.444-.145s.17.176.253.269a1.033,1.033,0,0,1-.4.124C406.946,239.116,406.879,238.977,406.75,238.863Z" transform="translate(-196.714 -115.44)"/>
    <path id="Path_2155" data-name="Path 2155" class="cls-6" d="M88.82,318.009l.584-.129-.2.516Z" transform="translate(-42.969 -153.722)"/>
    <path id="Path_2156" data-name="Path 2156" class="cls-6" d="M267.36,26.8c3.827-.749,7.746-.036,11.563-.589a1.245,1.245,0,0,1,1.27.671Z" transform="translate(-129.308 -12.671)"/>
    <path id="Path_2157" data-name="Path 2157" class="cls-6" d="M246.34,29.15a14.8,14.8,0,0,1,8.7-1.844C252.134,27.9,249.33,28.959,246.34,29.15Z" transform="translate(-119.143 -13.173)"/>
    <path id="Path_2158" data-name="Path 2158" class="cls-2" d="M237.27,136.2c0-2.458,3.367-7.638,5.557-8.423a2.623,2.623,0,0,1,1.492-.067c1.782.516,3.512,4.39,2.8,6.13-1,2.438-2.066,4.534-5.056,5.4C239.2,140.076,237.285,139.234,237.27,136.2Z" transform="translate(-114.757 -61.721)"/>
    <path id="Path_2159" data-name="Path 2159" class="cls-2" d="M305.708,134.572c-4.756-.274-8.882-6.45-7-10.086.945-1.838,1.931-2.169,3.837-.94,3.155,2.03,5.03,4.436,5.288,8.4C307.985,134.273,306.849,134.242,305.708,134.572Z" transform="translate(-144.241 -59.394)"/>
    <path id="Path_2160" data-name="Path 2160" class="cls-6" d="M463.79,116.9c.718-.429.821-.134.609.516Z" transform="translate(-224.297 -56.435)"/>
  </g>
</svg>
