<svg xmlns="http://www.w3.org/2000/svg" viewBox="0 0 452.34 41.61"><defs><style>.cls-1{fill:#016ed9;}.cls-2{fill:#fcd502;}.cls-3{fill:#f397cf;}.cls-4{fill:#17c056;}.cls-5{fill:#f5564b;}</style></defs><title>new</title><g id="Layer_2" data-name="Layer 2"><g id="Layer_1-2" data-name="Layer 1"><path class="cls-1" d="M247.06,1c6.53-.33,11.47,0,16.41-.06.89,0,1.81-.29,2.64.35a2.54,2.54,0,0,1,1.11,1.61,19.19,19.19,0,0,1-.14,6.05A108.3,108.3,0,0,1,264.24,23c-1.08,4.29-2.08,8.69-4.36,12.59a13.31,13.31,0,0,1-2,2.55,2.59,2.59,0,0,1-1.29.76,14.34,14.34,0,0,1-7.3,0,9,9,0,0,1-5.22-4.67,56.52,56.52,0,0,1-5-12.12c-1.44-5-1.69-10.19-2.64-15.27a14.89,14.89,0,0,1-.08-3.34c.07-1.45.66-1.95,2.1-2.25C241.82.5,245.25,1.13,247.06,1Z"/><path class="cls-2" d="M153.4,31.53c-.08-3.38,0-6.77-.1-10.14-.09-4.39.29-8.78,0-13.16a32.84,32.84,0,0,1,0-4.86,5.64,5.64,0,0,1,.53-1.93,1.72,1.72,0,0,1,1.6-1,9,9,0,0,1,5.76,1.52c2.17,1.55,4.72,2.56,6.92,4.11a20.33,20.33,0,0,1,5.3,5.13,73.49,73.49,0,0,1,5.23,9.2A30.15,30.15,0,0,1,181.11,28c.66,3.34,1.2,6.68,1.54,10.06.18,1.71-.61,2.55-2.34,2.64-2.94.16-5.83-.45-8.74-.68a42.1,42.1,0,0,0-7.78-.25,16.64,16.64,0,0,1-6-.19c-.87-.23-1.82,0-2.65-.49a2,2,0,0,1-.93-1,9.14,9.14,0,0,1-.76-3.21C153.41,33.76,153.4,32.64,153.4,31.53Z"/><path class="cls-3" d="M268,10a43.55,43.55,0,0,0-.39-6.66A2.27,2.27,0,0,1,270.4.66a12.44,12.44,0,0,0,3.11,0c3.18-.11,6.36.1,9.53.25,3.83.18,7.7.09,11.49.9A3,3,0,0,1,297,5.51c-1.31,4.94-1.47,10.07-2.59,15-.5,2.21-1.26,4.34-1.81,6.53-.86,3.41-3,6.1-4.87,8.92s-5.84,3.94-9.12,3.38c-.63-.1-1.25-.26-1.88-.35A3.7,3.7,0,0,1,274,37.2,27.28,27.28,0,0,1,270.79,28c-.52-2.61-1.26-5.18-1.81-7.78-.35-1.68-.52-3.4-.78-5.1A28.61,28.61,0,0,1,268,10Z"/><path class="cls-1" d="M191.2,13.27c.05,2.74,0,5.48-.13,8.22-.12,2.5.3,5,.08,7.5-.28,3.1-.56,6.2-.91,9.29a2.16,2.16,0,0,1-2.78,2,11.44,11.44,0,0,0-1.85-.49c-.32,0-.28-.3-.32-.53-.51-2.83-.87-5.68-1.23-8.53a29.43,29.43,0,0,0-2.92-10.27A10.44,10.44,0,0,1,180,15.15c.07-4,.06-8,.09-12.08,0-1.25.39-1.51,1.7-1.49,2.57,0,5.15,0,7.72.06,1.67,0,1.74.11,1.74,1.78C191.19,6.7,191.2,10,191.2,13.27Z"/><path class="cls-3" d="M227.75,4.63a27.31,27.31,0,0,1-.4,5.82c-.18,1.13-.67,1.61-1.81,1.59-3.37,0-6.73-.42-10.1-.56a42.82,42.82,0,0,0-10.9.47c-1.61.35-2.17-.09-2.06-1.74a38.65,38.65,0,0,0-.32-7.37c-.2-1.61.29-2.16,2-2.19,3.24-.07,6.48.35,9.72.18q4.4-.24,8.76-.73a23.47,23.47,0,0,1,3.75,0,1.33,1.33,0,0,1,1.31,1.41C227.77,2.54,227.75,3.62,227.75,4.63Z"/><path class="cls-4" d="M219.69,26.77l-13.29-.36a8.27,8.27,0,0,1-1.21-.12c-2.31-.4-2.84-1-2.8-3.39a21,21,0,0,0-.42-4.33c-.27-1.4.1-2.07,1.4-2,5.47.14,10.82-1.24,16.29-1.12a24.35,24.35,0,0,1,7.46,1.23,1.79,1.79,0,0,1,1.43,2.23c-.16,1.69-.32,3.37-.4,5.06a2.87,2.87,0,0,1-3.28,2.8c-.87-.05-1.76,0-2.64,0H219.7Z"/><path class="cls-5" d="M212.38,30.9c2.86,0,5.66.07,8.47-.17,2-.17,3.91.2,5.88.2,1.32,0,2.77,1.72,2.8,3.17a27.28,27.28,0,0,1-.59,5.33c-.21,1.22-1.28,1.78-2.94,1.57a117,117,0,0,0-16.31-.72c-1.73,0-3.42.39-5.15.43-1.58,0-1.82-.19-1.84-1.77,0-1.38,0-2.77-.09-4.15-.24-2.54.69-3.61,3.24-3.67C208,31.06,210.24,31,212.38,30.9Z"/><path class="cls-1" d="M402.3,1.52c6.53-.32,11.47,0,16.4-.06.9,0,1.82-.28,2.65.35a2.59,2.59,0,0,1,1.11,1.61,19.25,19.25,0,0,1-.14,6.06,108.64,108.64,0,0,1-2.84,14.1c-1.08,4.29-2.08,8.68-4.36,12.59a14.08,14.08,0,0,1-2,2.54,2.61,2.61,0,0,1-1.29.77,14.49,14.49,0,0,1-7.31,0,9.09,9.09,0,0,1-5.22-4.68,57,57,0,0,1-5-12.12c-1.44-5-1.7-10.19-2.64-15.26A14.41,14.41,0,0,1,391.57,4c.06-1.44.66-1.95,2.1-2.25C397.06,1.06,400.49,1.69,402.3,1.52Z"/><path class="cls-2" d="M308.64,32.09c-.08-3.38,0-6.76-.11-10.14-.08-4.39.3-8.77,0-13.16a31.55,31.55,0,0,1,0-4.86A5.64,5.64,0,0,1,309.12,2a1.71,1.71,0,0,1,1.59-1,9,9,0,0,1,5.77,1.52c2.17,1.55,4.72,2.56,6.91,4.1a20.41,20.41,0,0,1,5.31,5.14,72.09,72.09,0,0,1,5.23,9.2,30.49,30.49,0,0,1,2.42,7.58c.66,3.34,1.2,6.69,1.54,10.07.18,1.71-.61,2.54-2.34,2.64-2.94.16-5.83-.45-8.74-.69A44,44,0,0,0,319,40.3a16.88,16.88,0,0,1-6-.18c-.86-.23-1.82,0-2.64-.5a2,2,0,0,1-.94-1,9.29,9.29,0,0,1-.75-3.2Z"/><path class="cls-3" d="M423.23,10.51a43.62,43.62,0,0,0-.39-6.66,2.27,2.27,0,0,1,2.8-2.63,11.56,11.56,0,0,0,3.11,0c3.18-.11,6.36.11,9.53.26,3.83.18,7.69.08,11.48.89a3,3,0,0,1,2.47,3.72c-1.32,4.93-1.47,10.06-2.59,15-.5,2.2-1.26,4.34-1.81,6.53-.86,3.41-3,6.09-4.87,8.91s-5.84,3.94-9.12,3.39c-.63-.11-1.25-.26-1.88-.36a3.72,3.72,0,0,1-2.78-1.81A27.46,27.46,0,0,1,426,28.54c-.52-2.61-1.27-5.17-1.81-7.78-.35-1.68-.52-3.39-.78-5.09A27.83,27.83,0,0,1,423.23,10.51Z"/><path class="cls-1" d="M346.43,13.83c.05,2.74,0,5.48-.12,8.22-.12,2.51.3,5,.08,7.51-.28,3.09-.56,6.19-.92,9.28a2.15,2.15,0,0,1-2.77,2,11.42,11.42,0,0,0-1.85-.48c-.32,0-.28-.3-.32-.54-.51-2.83-.87-5.67-1.23-8.52A29.48,29.48,0,0,0,336.38,21a10.41,10.41,0,0,1-1.19-5.31c.06-4,.05-8.06.09-12.08,0-1.26.39-1.52,1.7-1.5,2.57,0,5.14,0,7.72.06,1.67,0,1.74.12,1.74,1.78Q346.43,8.91,346.43,13.83Z"/><path class="cls-3" d="M383,5.2a27.4,27.4,0,0,1-.39,5.82c-.18,1.13-.67,1.6-1.81,1.59-3.37,0-6.73-.42-10.1-.56a42.37,42.37,0,0,0-10.9.47c-1.61.35-2.17-.09-2.06-1.74a38.61,38.61,0,0,0-.32-7.37c-.21-1.62.29-2.16,2-2.2,3.25-.06,6.48.36,9.73.18q4.39-.24,8.76-.72a23.47,23.47,0,0,1,3.75-.06A1.33,1.33,0,0,1,383,2C383,3.11,383,4.19,383,5.2Z"/><path class="cls-4" d="M374.93,27.34,361.64,27a8.13,8.13,0,0,1-1.21-.12c-2.32-.4-2.85-1-2.8-3.38a21,21,0,0,0-.42-4.34c-.27-1.4.1-2.07,1.4-2,5.47.14,10.82-1.25,16.29-1.13a24.7,24.7,0,0,1,7.46,1.23,1.8,1.8,0,0,1,1.43,2.24c-.17,1.68-.32,3.36-.4,5a2.87,2.87,0,0,1-3.28,2.8c-.88,0-1.76,0-2.64,0h-2.54Z"/><path class="cls-5" d="M367.62,31.46c2.86,0,5.66.08,8.47-.16,1.94-.17,3.91.19,5.87.2,1.33,0,2.77,1.71,2.81,3.16a28.06,28.06,0,0,1-.59,5.33c-.21,1.22-1.28,1.79-2.94,1.57a118.5,118.5,0,0,0-16.31-.71c-1.74,0-3.43.38-5.15.43s-1.83-.2-1.84-1.77c0-1.39,0-2.77-.09-4.16-.24-2.54.68-3.6,3.23-3.67C363.28,31.63,365.48,31.61,367.62,31.46Z"/><path class="cls-1" d="M93.82,1.52c6.53-.32,11.47,0,16.41-.06.89,0,1.81-.28,2.64.35A2.56,2.56,0,0,1,114,3.42a19.55,19.55,0,0,1-.13,6.06A110.37,110.37,0,0,1,111,23.58c-1.08,4.29-2.07,8.68-4.36,12.59a13.25,13.25,0,0,1-2,2.54,2.61,2.61,0,0,1-1.29.77,14.45,14.45,0,0,1-7.3,0,9.06,9.06,0,0,1-5.22-4.68,56.52,56.52,0,0,1-5-12.12c-1.44-5-1.69-10.19-2.64-15.26A15,15,0,0,1,83.09,4c.07-1.44.66-1.95,2.1-2.25C88.58,1.06,92,1.69,93.82,1.52Z"/><path class="cls-2" d="M.17,32.09C.08,28.71.12,25.33.06,22,0,17.56.35,13.18.07,8.79a32.86,32.86,0,0,1,0-4.86A5.64,5.64,0,0,1,.64,2a1.72,1.72,0,0,1,1.6-1A9,9,0,0,1,8,2.51c2.17,1.55,4.72,2.56,6.92,4.1a20.38,20.38,0,0,1,5.3,5.14A72.16,72.16,0,0,1,25.46,21a30.91,30.91,0,0,1,2.42,7.58c.65,3.34,1.19,6.69,1.54,10.07.17,1.71-.62,2.54-2.34,2.64-2.95.16-5.84-.45-8.75-.69a43.86,43.86,0,0,0-7.78-.25,16.87,16.87,0,0,1-6.05-.18c-.87-.23-1.82,0-2.65-.5a1.93,1.93,0,0,1-.93-1,8.86,8.86,0,0,1-.75-3.2Z"/><path class="cls-3" d="M114.75,10.51a43.62,43.62,0,0,0-.39-6.66,2.27,2.27,0,0,1,2.8-2.63,11.56,11.56,0,0,0,3.11,0c3.18-.11,6.36.11,9.53.26,3.83.18,7.7.08,11.49.89a3,3,0,0,1,2.46,3.72c-1.31,4.93-1.47,10.06-2.59,15-.5,2.2-1.26,4.34-1.81,6.53-.85,3.41-3,6.09-4.87,8.91s-5.84,3.94-9.11,3.39c-.63-.11-1.25-.26-1.89-.36a3.72,3.72,0,0,1-2.77-1.81,27.26,27.26,0,0,1-3.16-9.23c-.52-2.61-1.26-5.17-1.81-7.78-.35-1.68-.52-3.39-.77-5.09A27.83,27.83,0,0,1,114.75,10.51Z"/><path class="cls-1" d="M38,13.83c0,2.74,0,5.48-.13,8.22-.12,2.51.3,5,.08,7.51-.27,3.09-.56,6.19-.91,9.28a2.16,2.16,0,0,1-2.78,2,11.42,11.42,0,0,0-1.85-.48c-.32,0-.28-.3-.32-.54-.51-2.83-.87-5.67-1.22-8.52A29.49,29.49,0,0,0,27.9,21a10.41,10.41,0,0,1-1.19-5.31c.07-4,.06-8.06.09-12.08,0-1.26.39-1.52,1.7-1.5,2.58,0,5.15,0,7.72.06C37.89,2.22,38,2.32,38,4,38,7.27,38,10.55,38,13.83Z"/><path class="cls-3" d="M74.51,5.2A27.4,27.4,0,0,1,74.12,11c-.19,1.13-.67,1.6-1.82,1.59-3.37,0-6.73-.42-10.1-.56a42.39,42.39,0,0,0-10.9.47c-1.61.35-2.17-.09-2.06-1.74a37.81,37.81,0,0,0-.32-7.37c-.2-1.62.29-2.16,2-2.2,3.24-.06,6.48.36,9.72.18q4.4-.24,8.76-.72A23.48,23.48,0,0,1,73.19.61,1.33,1.33,0,0,1,74.5,2C74.53,3.11,74.51,4.19,74.51,5.2Z"/><path class="cls-4" d="M66.46,27.34,53.16,27A8.27,8.27,0,0,1,52,26.85c-2.31-.4-2.84-1-2.8-3.38a21,21,0,0,0-.42-4.34c-.26-1.4.1-2.07,1.41-2C55.6,17.24,61,15.85,66.43,16a24.64,24.64,0,0,1,7.45,1.23,1.8,1.8,0,0,1,1.43,2.24c-.16,1.68-.32,3.36-.4,5a2.85,2.85,0,0,1-3.27,2.8c-.88,0-1.76,0-2.64,0H66.46Z"/><path class="cls-5" d="M59.14,31.46c2.87,0,5.67.08,8.47-.16,2-.17,3.91.19,5.88.2,1.32,0,2.77,1.71,2.8,3.16A27.28,27.28,0,0,1,75.7,40c-.21,1.22-1.28,1.79-2.94,1.57a118.5,118.5,0,0,0-16.31-.71c-1.73,0-3.42.38-5.14.43s-1.83-.2-1.85-1.77c0-1.39,0-2.77-.09-4.16-.24-2.54.69-3.6,3.24-3.67C54.81,31.63,57,31.61,59.14,31.46Z"/></g></g></svg>