<svg xmlns="http://www.w3.org/2000/svg" viewBox="0 0 312.337 118.883">
  <defs>
    <style>
      .cls-1, .cls-2 {
        fill: #fcd41b;
      }

      .cls-1 {
        stroke: #fcd41b;
        stroke-miterlimit: 10;
        stroke-width: 0.15px;
      }
    </style>
  </defs>
  <g id="Asset_17" data-name="Asset 17" transform="translate(0.075 0.032)">
    <g id="Layer_1" data-name="Layer 1" transform="translate(0 0)">
      <path id="Path_1929" data-name="Path 1929" class="cls-1" d="M10.034,170.095a15.864,15.864,0,0,1-3.722,1.692C3.14,172.8.63,171.08.125,167.625a14.547,14.547,0,0,1,.222-4.278C2.8,152.8,7.731,144.073,16,137.587a10.743,10.743,0,0,1,4.041-2.02c3.611-.894,5.051,1.975,5.293,4.733a1.965,1.965,0,0,1-.975,1.3c-.273.111-.975-.349-1.263-.732-1.571-2.379-1.9-2.561-4.041-.833a36.713,36.713,0,0,0-5.167,5.117,47.892,47.892,0,0,0-8.768,17.067c-.505,1.8-1.066,3.622-.47,5.647,1.44.409,2.525-.308,3.536-.919,3.323-2.02,6.521-4.212,9.743-6.334,1.01-.672,1.738-1.434,2.672-2.081,1.1-.844,1.97-.894,2.652-.167s.6,1.581-.253,2.7A43.437,43.437,0,0,0,15.873,173.9c-.727,2.02-1.157,4.162-1.677,6.218a21.442,21.442,0,0,0-.237,2.445,8,8,0,0,0,1.561-.657,74.387,74.387,0,0,0,5.955-5.111c3.142-3.359,6.112-6.829,9.162-10.263a7.8,7.8,0,0,1,1.091-1.167,1.48,1.48,0,0,1,2.142,1.95,6.264,6.264,0,0,1-.843,1.3,93.118,93.118,0,0,1-15,15.2,11,11,0,0,1-2.667,1.631c-2.551,1.01-4.475-.394-4.6-3.384a11.708,11.708,0,0,1,.323-2.985c.975-3.389,2.051-6.692,3.182-10.021A11.971,11.971,0,0,1,14.9,167.4l-.308-.126C13.065,168.115,11.58,169.246,10.034,170.095Z" transform="translate(-0.058 -67.011)"/>
      <path id="Path_1930" data-name="Path 1930" class="cls-1" d="M71.976,148.776c-.1-3.465-.308-7.021-.47-10.46.081-.283.061-.652.116-1.01A1.657,1.657,0,0,1,73.1,135.79a1.551,1.551,0,0,1,1.722.889,8.278,8.278,0,0,1,.823,2.248c1.152,5.187,2.288,10.314,3.465,15.557.4,1.975.95,4.01,1.445,6.061a7.252,7.252,0,0,1,.167,1.061,1.839,1.839,0,0,1-1.313,2.172,1.687,1.687,0,0,1-2.192-.955A19.385,19.385,0,0,1,75.87,159.4a13.437,13.437,0,0,0-.955-2.445,4.193,4.193,0,0,0-.3,1.01c-.47,1.687-.859,3.4-1.4,5.051a6.985,6.985,0,0,1-1.258,2.056,2.634,2.634,0,0,1-4.268-.328,3.85,3.85,0,0,1-.4-.778c-1.222-3.591-1.01-7.112,1.389-10.193.748-.98,2.02-1.546,3.344-2.5C72.021,150.645,72.027,149.7,71.976,148.776Zm-.177,5.793c-2.253,1.136-3.071,5.278-1.551,8.193C71.658,160.433,72.441,156.68,71.8,154.569Z" transform="translate(-32.967 -67.189)"/>
      <path id="Path_1931" data-name="Path 1931" class="cls-1" d="M99.448,154.651a1.934,1.934,0,0,1-.712,1.268,2.231,2.231,0,0,1-2.5-1.182,1.227,1.227,0,0,1,.879-1.429C97.857,153.091,99.438,153.995,99.448,154.651Zm5.788,3.308a1.045,1.045,0,0,1,1.985.626,5.554,5.554,0,0,1-.283,1.227c-.849,2.066-1.515,4.2-2.44,6.278a5.95,5.95,0,0,1-1.086,1.6c-1.662,1.869-3.975,1.682-5.223-.465a15.211,15.211,0,0,1-1.576-7.829,1.626,1.626,0,0,1,1.576-1.773,1.663,1.663,0,0,1,1.793,1.445c.379,1.167.748,3.147,1.01,4.359.1.581.4,1.4.667,2.424.939.359,2.374-5.606,3.576-7.869Z" transform="translate(-47.645 -75.857)"/>
      <path id="Path_1932" data-name="Path 1932" class="cls-1" d="M115.029,125.58a8.878,8.878,0,0,1,1.465-.9,1.076,1.076,0,0,1,1.515.384,1.167,1.167,0,0,1-.232,1.576c-.687.505-1.374,1.01-2.02,1.419-1.364.869-3.207,2.1-4.642,2.935a1.515,1.515,0,0,0-.833,1.849,73.021,73.021,0,0,0,5.283,17.754,5.025,5.025,0,0,0,1.737,2.222c1.354.813,1.546,2.359-.025,2.99a3.111,3.111,0,0,1-3.773-.8,14.455,14.455,0,0,1-2.323-3.5c-2.091-4.2-3.1-8.682-4.238-13.173-.217-1.1-.505-2.293-.8-3.536-.505.308-.869.505-1.268.773-.722.571-1.48,1.222-2.238,1.869-1.172,1.046-1.94,1.328-2.419.7-.545-.505-.253-1.217,1.066-2.374a22.732,22.732,0,0,1,3.061-2.667,2.8,2.8,0,0,0,1.3-3.081c-.177-1.677-.308-5.293,2.02-5.339,1.01,0,1.283.965,1.576,2.283.167.621.258,1.212.424,2.02C111.453,127.873,113.337,126.57,115.029,125.58Z" transform="translate(-49.498 -61.621)"/>
      <path id="Path_1933" data-name="Path 1933" class="cls-1" d="M146.226,142.439c.343-.237.652-.6.95-.636a1.515,1.515,0,0,1,1.3.535,1.157,1.157,0,0,1,.111,1.2,4.294,4.294,0,0,1-1.237,1.419,17.989,17.989,0,0,1-3.152,1.773,1.971,1.971,0,0,0-1.414,1.793,7.389,7.389,0,0,1-3.435,5.051c-3.167,2.091-6.723.056-7.294-4.071-.374-2.839,0-5.263,1.95-7.172a4.31,4.31,0,0,0,.813-1.394c.742-1.929,2.339-2.672,4.217-1.722a6.733,6.733,0,0,1,3.081,3.505c.131.384.359.864.626,1.45A7.672,7.672,0,0,0,146.226,142.439Zm-10.43,6.975c.3,1.2.929,1.6,1.884,1.136a3.647,3.647,0,0,0,2.152-2.854c-1.455-.111-2.733-.217-3.96-1.955a6.132,6.132,0,0,0-.076,3.682Zm3.8-5.4c-.7-1.49-.7-1.49-1.909-1.929.333,1.813.505,2,1.909,1.94Z" transform="translate(-65.32 -68.696)"/>
      <path id="Path_1934" data-name="Path 1934" class="cls-1" d="M166.067,131.61a18.951,18.951,0,0,1,1.985-2.93A2.642,2.642,0,0,1,171.4,128a3.172,3.172,0,0,1,1.445,3.086,1.258,1.258,0,0,1-1.035,1.333c-.505.106-.869-.207-1.01-.778a2.778,2.778,0,0,0-.237-.909c-.354-.682-.849-.7-1.48,0a7.069,7.069,0,0,0-1.01,1.621c-1.515,3.081-2.414,6.642-1.389,9.738a2.409,2.409,0,0,1-.95,2.9,1.571,1.571,0,0,1-2.359-.818c-.934-1.9-3.031-9.385-2.313-13.314a2.3,2.3,0,0,1,1.626-1.768c.813-.141,1.419.207,1.647,1.243.253.96.4,1.955.652,3.283A18.23,18.23,0,0,1,166.067,131.61Z" transform="translate(-79.665 -63.185)"/>
      <path id="Path_1935" data-name="Path 1935" class="cls-1" d="M179.226,98.676c-.293-.152-.566-.434-.879-.636-1.041-1.142-.95-.864-1.929-2.02-.692-.823-.722-1.3-.162-1.849a1.091,1.091,0,0,1,1.581.167c1.313,1.419,1.278,1.515,2.44,2.834a1.116,1.116,0,0,1,.141.439.9.9,0,0,1-1.192,1.066Z" transform="translate(-87.067 -46.475)"/>
      <path id="Path_1936" data-name="Path 1936" class="cls-1" d="M209.081,131.147c1.737,3.435,2.394,7.748.061,10.844a6,6,0,0,1-4.667,2.485,4.434,4.434,0,0,1-4.672-3.869,13.637,13.637,0,0,1,2.243-9.723,14.085,14.085,0,0,1,1.01-1.414,4.391,4.391,0,0,0-2.2-1.581,28.617,28.617,0,0,1-2.919-1.359c-3.854-2.409-.9-7.652,2.3-8.763a2.492,2.492,0,0,1,3.187,1.01c.3.576.505,1.192,0,1.712-.475.636-.95.48-1.515.172-2.525-1.349-4.667,1.869-.985,3.723C204.874,125.8,207.5,127.98,209.081,131.147Zm-5.955,7.157c.677,2.783,2.106,2.278,2.773.667,1.126-2.48-.4-5.854-1.839-7.733A12,12,0,0,0,203.126,138.3Z" transform="translate(-97.087 -58.181)"/>
      <path id="Path_1937" data-name="Path 1937" class="cls-1" d="M246.073,75.041a1.839,1.839,0,0,0,.283,1.788,1.029,1.029,0,0,1,.045,1.561,1.616,1.616,0,0,1-1.4.419,2.091,2.091,0,0,1-1.717-2.207,7.865,7.865,0,0,1,.348-2.859,35.524,35.524,0,0,1,3.111-6.106c5.733-8.349,13.3-13.562,22.8-15.481a20.335,20.335,0,0,1,8.081-.035,10.986,10.986,0,0,1,3.536,1.126,6.646,6.646,0,0,1,3.566,8.657,18.289,18.289,0,0,1-2.632,4.712,42.472,42.472,0,0,1-4.43,4.546,84.242,84.242,0,0,1-15.612,10.9c-2.419,1.349-2.48,1.364-2.056,4.389.571,3.824,1.283,7.738,1.909,11.556.187,1.207-.03,2.02-.874,2.455a1.793,1.793,0,0,1-2.424-.505,8.144,8.144,0,0,1-1.268-2.561c-.505-2.7-1.046-5.45-1.323-8.152a165.783,165.783,0,0,1-1.682-20.466c-.076-1.667,0-3.253-.056-4.864-.141-.086-.268-.116-.338-.157A30.126,30.126,0,0,0,246.073,75.041Zm21.522-.874a60.906,60.906,0,0,0,10.465-8.43,14.38,14.38,0,0,0,3.369-4.909c.859-2.273.2-4.091-1.94-4.92a13.768,13.768,0,0,0-4.617-1.091c-5.081-.313-9.662,1.293-14.082,3.763-4.005,2.243-2.253,11.784-2.02,14.92.157,1.773.323,3.6.505,5.9,3.051-1.879,5.758-3.485,8.319-5.233Z" transform="translate(-120.426 -25.602)"/>
      <path id="Path_1938" data-name="Path 1938" class="cls-1" d="M334.133,89.189a1.042,1.042,0,0,1,1.874.894,5.594,5.594,0,0,1-.45,1.177c-1.116,1.929-2.1,3.945-3.273,5.889a5.92,5.92,0,0,1-1.293,1.429c-1.9,1.626-4.172,1.126-5.112-1.172a15.43,15.43,0,0,1-.505-7.97,1.621,1.621,0,0,1,1.8-1.515,1.651,1.651,0,0,1,1.576,1.677c.217,1.2.313,3.217.414,4.45,0,.6.212,1.45.328,2.525C330.37,96.982,332.617,91.265,334.133,89.189Zm-5.293-4.041a1.934,1.934,0,0,1-.874,1.152,2.222,2.222,0,0,1-2.318-1.515,1.237,1.237,0,0,1,1.076-1.323c.737-.121,2.182.985,2.1,1.667Z" transform="translate(-160.917 -41.301)"/>
      <path id="Path_1939" data-name="Path 1939" class="cls-1" d="M354.839,85.469c.773-1.419,2.47-.167,1.894,1.328-2.2,3.389-6.864,9.238-11.041,9.743-2.091.273-3.829-1.147-4-3.914-.273-3.536.874-7.642,3.965-9.369a2.96,2.96,0,0,1,4.5,2.076,1.531,1.531,0,0,1-.636,2.02,1.352,1.352,0,0,1-1.818-.687c-.722-1.455-1.354.051-1.793.8C342.227,100.147,352.607,89.525,354.839,85.469Z" transform="translate(-169.117 -40.981)"/>
      <path id="Path_1940" data-name="Path 1940" class="cls-1" d="M373.43,67.747c1.01-1.914,1.934-3.818,2.869-5.723a6.025,6.025,0,0,1,1.3-1.859,1.318,1.318,0,0,1,1.9-.313c.778.621.3,1.192-.051,1.859-1.2,2.071-2.344,4.137-3.334,6.112.571,1.081,1.01,1.94,1.515,2.8,2.44,3.985,5.682-3.182,6.713-5.228.626-1.071,2.339-.505,1.864.712-1.419,4.041-6.177,11.657-10.4,6.42a8.656,8.656,0,0,0-.874-1.141c-.172.626-.455,1.04-.591,1.546-.207.753-.4,1.616-.551,2.364a2.525,2.525,0,0,1-2.126,1.9,2.353,2.353,0,0,1-2.419-1.434,5.709,5.709,0,0,1-.712-2.116,70.75,70.75,0,0,1,.056-23.906,5.651,5.651,0,0,1,.546-1.773,1.985,1.985,0,0,1,2.177-1.136c.8.136,1.288.813,1.283,2.02-.076,3.581-.217,9.6-.349,13.2,0,1.788,0,3.632-.03,5.359,0,.6.121,1.222.172,1.808.126.035.242,0,.369.045a12.364,12.364,0,0,0,.677-1.51Z" transform="translate(-181.929 -23.158)"/>
      <path id="Path_1941" data-name="Path 1941" class="cls-1" d="M427.474,50.279a9.755,9.755,0,0,0,.4,2.889c.692,2.379,2.248,3.394,4.324,2.631a21.217,21.217,0,0,0,4.167-2.182A35.2,35.2,0,0,0,447.986,40.53c2.253-4.1,4.111-8.48,6.061-12.764,1.333-3.076,2.424-6.177,3.763-9.253a9.592,9.592,0,0,1,1.379-2.318,1.1,1.1,0,0,1,1.717-.359,2.743,2.743,0,0,1,.934,1.581,10.735,10.735,0,0,1-.1,2.662,191.552,191.552,0,0,0-.222,30.977,17.963,17.963,0,0,0,1.515,6.733,2.076,2.076,0,0,1-.374,2.768,1.768,1.768,0,0,1-2.45-.652,10.755,10.755,0,0,1-2.091-5.192,66.752,66.752,0,0,1-.8-13.208c0-3.061.712-10.41-.237-12.122-.242.742-.505,1.429-.763,2.116a68.734,68.734,0,0,1-7.314,14.94,44.646,44.646,0,0,1-10.637,11.521,16.451,16.451,0,0,1-6.041,2.834c-4.187.823-8.248-1.253-9.5-7.975a24.157,24.157,0,0,1,0-8.48,50.546,50.546,0,0,1,8.243-20.911c1.172-1.758,3.712-5.005,6.061-4.217a3.116,3.116,0,0,1,1.369,4.283c-.621,1.01-1.465.45-2.525.126C430.813,31.535,427.575,40.182,427.474,50.279Z" transform="translate(-209.108 -7.699)"/>
      <path id="Path_1942" data-name="Path 1942" class="cls-1" d="M523.253,58.018c.783.141,1.748,1.379.586,1.515a17.851,17.851,0,0,0-4.349,1.01c-.1,4.652-6.167,7.071-11.046,6.061a17.8,17.8,0,0,0-.652,6.566c0,2.056-.283,4.086.652,6.031a1.429,1.429,0,0,1-.793,1.8,1.611,1.611,0,0,1-2.02-.232,4.611,4.611,0,0,1-1.541-3.111,43.22,43.22,0,0,1-.283-5.435,68.781,68.781,0,0,1,1.3-13.021,32.215,32.215,0,0,1,1.323-4.334,6.378,6.378,0,0,1,1.035-1.707,1.515,1.515,0,0,1,2.02-.354c.7.45.657,1.1.505,1.823l-.864,3.682c3.915-3.687,9.092-3.647,10.061.121C519.192,58.487,521.986,57.75,523.253,58.018Zm-13.794,4.313a20.711,20.711,0,0,1,6.92-3.106C514.8,56.123,510.591,60.316,509.459,62.331Zm2.975.818c-3.677,1.727-2.051,2.126,1.839.667,1.238-.505,2.328-1.207,2.3-2.44-1.495.591-2.839,1.162-4.116,1.773Z" transform="translate(-249.368 -26.015)"/>
      <path id="Path_1943" data-name="Path 1943" class="cls-1" d="M563.751,42.735c0,.384-.651.813-1.515.778a4.04,4.04,0,0,1-1.965-.535c-1.01-.505-1.136-2.712-.328-3.394a4.091,4.091,0,0,1,2.227-.556c1.106.111,1.97.47,2.02,1.061a2.748,2.748,0,0,1-.111,1.419,5.935,5.935,0,0,1-.328,1.227Zm1.748-8.7c-.429,1.48-1.01,2.172-2.424,2.243a2.326,2.326,0,0,1-2.485-2.051,8.8,8.8,0,0,1,0-3.253c1.722-6.889,3.45-13.774,5.253-20.653.258-.838.505-1.611.758-2.379a2.126,2.126,0,0,1,2.328-1.4,1.854,1.854,0,0,1,1.783,1.636c.2,5.556-1.884,10.97-3.031,16.39C566.817,27.709,566.2,30.866,565.5,34.038Z" transform="translate(-276.89 -3.227)"/>
      <path id="Path_1944" data-name="Path 1944" class="cls-2" d="M563.1,33.01c-1.061-8.218-.424-16.85,4.606-23.739.5-.692-.621-1.556-1.192-.919a19.283,19.283,0,0,0-5.051,10.1c-.626,4.576,2.768,9.9.03,14.006l1.187-.152c-2.874-3.323-1.833-9.536-.919-13.41a29.162,29.162,0,0,1,2.323-6.541c.5-1.01,3.313-5.627,4.606-4.041.621.773-.631,1.48-1.237,2.222q-.707.874-1.349,1.788a28.068,28.068,0,0,0-2.778,5,29.508,29.508,0,0,0-2.369,10.289h1.515a38.867,38.867,0,0,1,.581-7.728.758.758,0,0,0-1.46-.4A37.381,37.381,0,0,0,560,33.167l1.49-.2a28.476,28.476,0,0,1,4.92-23.123c.581-.788-.732-1.515-1.308-.763a29.936,29.936,0,0,0-5.051,24.29.759.759,0,0,0,1.485-.2,36.284,36.284,0,0,1,1.515-13.284l-1.46-.4a40.636,40.636,0,0,0-.636,8.132.758.758,0,0,0,1.515,0,28.032,28.032,0,0,1,7.122-17.234c.793-.9,2.263-2.293,1.157-3.536-.848-.965-2.667-.505-3.652-.071-4.218,1.9-6,8.081-6.9,12.157-1.01,4.505-1.864,10.662,1.409,14.445a.768.768,0,0,0,1.192-.157c2.071-3.106,1.01-6.41.379-9.789-1.01-5.3.874-10.021,4.4-13.991L566.4,8.524c-5.167,7.071-5.9,16.047-4.813,24.5.126.95,1.641.965,1.515,0Z" transform="translate(-276.829 -3.104)"/>
      <path id="Path_1945" data-name="Path 1945" class="cls-2" d="M578.54,9.072l.056,3.268a.758.758,0,0,0,1.515,0l-.056-3.268a.758.758,0,0,0-1.515,0Z" transform="translate(-286.355 -4.127)"/>
      <path id="Path_1946" data-name="Path 1946" class="cls-1" d="M594.167,35.881c-.035.389-.712.768-1.576.667a4.071,4.071,0,0,1-1.919-.687c-.98-.571-.924-2.793-.066-3.409a4.1,4.1,0,0,1,2.263-.384c1.1.2,1.929.616,1.95,1.212a3.033,3.033,0,0,1-.217,1.409A5.733,5.733,0,0,1,594.167,35.881Zm2.424-8.541c-.54,1.445-1.162,2.091-2.591,2.056a2.331,2.331,0,0,1-2.323-2.238,8.839,8.839,0,0,1,.242-3.243c2.243-6.738,4.49-13.471,6.809-20.2.323-.818.631-1.566.939-2.313A2.137,2.137,0,0,1,602.1.187a1.854,1.854,0,0,1,1.652,1.768c-.222,5.556-2.717,10.794-4.268,16.112C598.385,21.138,597.552,24.239,596.592,27.34Z" transform="translate(-292.002 -0.065)"/>
      <path id="Path_1947" data-name="Path 1947" class="cls-2" d="M595.3,26.143c-.424-8.172.828-16.744,6.313-23.148.627-.737-.358-1.758-1.071-1.071a19.217,19.217,0,0,0-5.778,9.662c-.939,4.4,2.02,10.031-.939,13.824l1.192.157c-2.7-3.642-1.217-9.667.04-13.607a29.113,29.113,0,0,1,2.829-6.339c.359-.586,5.051-6.233,5.192-3.147,0,.429-3.344,3.5-3.743,4.041a28.84,28.84,0,0,0-2.652,4.091,29.927,29.927,0,0,0-3.116,10.1h1.515a38.485,38.485,0,0,1,1.192-7.657.76.76,0,0,0-1.465-.4,37.281,37.281,0,0,0-2.616,13.526l1.49-.2a28.36,28.36,0,0,1,6.6-22.507c.631-.737-.434-1.813-1.076-1.071a30.028,30.028,0,0,0-6.985,23.992c.126.864,1.485.626,1.515-.2A36.061,36.061,0,0,1,596.3,13.051l-1.465-.4a41.049,41.049,0,0,0-1.242,8.081c-.05,1.01,1.394.939,1.515,0A27.633,27.633,0,0,1,603,4.616c.914-.894,2.879-2.192,2.02-3.717-.647-1.167-2.349-.975-3.435-.657-4.46,1.308-6.738,7.359-8,11.314-1.389,4.359-2.854,10.763.116,14.774.253.343.859.576,1.187.152,2.525-3.253,1.419-6.864,1.121-10.637-.394-5.051,2.051-9.445,5.6-12.849l-1.066-1.071c-5.753,6.718-7.208,15.617-6.758,24.219.05.97,1.571.975,1.515,0Z" transform="translate(-292.967 0.001)"/>
      <path id="Path_1948" data-name="Path 1948" class="cls-2" d="M613.865,2.9l-.2,3.263c-.056.975,1.46.97,1.515,0l.2-3.263c.055-.975-1.46-.97-1.516,0Z" transform="translate(-303.74 -1.072)"/>
    </g>
  </g>
</svg>
