<svg xmlns="http://www.w3.org/2000/svg" viewBox="0 0 915.98 115.81"><defs><style>.cls-1{fill:#fcd502;}.cls-2{fill:#f5564b;}.cls-3{fill:#026ed9;}.cls-4{fill:#18c057;}.cls-5{fill:#f398d0;}.cls-6{fill:#fdfdfc;}</style></defs><title>pop</title><g id="Layer_2" data-name="Layer 2"><g id="Layer_1-2" data-name="Layer 1"><path class="cls-1" d="M413.07,68.77c-.87-7.47.58-14.83,1.25-22.22a8.65,8.65,0,0,1,3-6.09c2.78-2.24,3.71-5.77,5.85-8.51,5-6.44,11.28-11.31,17.88-15.92A40,40,0,0,1,460,9.28c2.76-.31,5.36-1.86,8.32-.88,1.07.35,2.66-.42,2.72,1.65a1.91,1.91,0,0,0,1.45.33c2.67-1.27,4.88.48,7.27,1a1.88,1.88,0,0,0,.79.12c5.93-1.81,9.6,2.38,13.39,5.45a104.78,104.78,0,0,1,13.74,13c2.63,3,3.14,6.67,4.51,10.08,3.26,8.1,4.88,16.42,3.29,25.12-.85,4.59-2.72,8.89-4.21,13.3-2.49,7.41-7.12,13.46-12.51,18.69a115.68,115.68,0,0,1-18,14.19,3.91,3.91,0,0,1-2.55.68,6.37,6.37,0,0,0-4.8,1.37,4.08,4.08,0,0,1-2.51.74,46.31,46.31,0,0,1-16.11-1.37c-3.78-1-7.8-2.22-11-4.81C439,104,433.25,101.22,429,96.55c.39-1-.22-1.7-.88-2.35L417.42,83.55A19.87,19.87,0,0,1,415.08,73c.05-.79.95-2.23-.83-2.57C414.35,69.57,413.46,69.35,413.07,68.77Zm34.6,33.35c-.66-1-1.14-2.17-2.88-1.89C445.56,101.37,446.23,102.25,447.67,102.12Z"/><path class="cls-1" d="M795.6,13.66c8.74,4.1,15.06,11.15,21.69,17.82,2.35,2.37,2.31,5.78,3.55,8.63a44.37,44.37,0,0,1,3.48,21.62c-.45,5.27-2.74,10-4.5,14.83a44.17,44.17,0,0,1-13.09,18.21c-5.53,4.8-10.92,10.26-17.8,12.88-5.12,1.94-10.59,3.43-16.61,2.49s-12.07-1.57-17.16-4.8c-5.72-3.63-12.08-6.63-16.45-12-3-3.69-6.83-6.54-9.75-10.08-2.2-2.66-5-6-4-10.49a5.48,5.48,0,0,0-1-4.8c-1.77-2.36-1.44-5.48-.82-8.17,1-4.45.53-9,1.71-13.45.36-1.32.45-2.92,1.36-3.74,3.23-2.92,4.88-7,7.57-10.26,4.34-5.31,9.7-9.3,15.18-13.26a41.52,41.52,0,0,1,20.47-7.81c3.23-.34,6.37-1.4,9.69-.76.62.12,1.29,0,1.65.69-.32.38-.47,1.08,0,1.08,3.21,0,6.24,2.1,9.38,1.21A10.15,10.15,0,0,1,795.6,13.66Z"/><path class="cls-1" d="M171.74,13.52c9.18,4.15,15.79,11.37,22.41,18.61C195.72,33.84,196,36,196.71,38c1.45,4.3,2.9,8.6,4,13.05A27.25,27.25,0,0,1,201,61.54a63.2,63.2,0,0,1-6.83,19.67A50.1,50.1,0,0,1,181.25,96.6c-4.05,3.34-8.32,6.42-12.53,9.57-2,1.52-4.22,2.79-6.9,2.41-1.69-.24-2.66,1.21-4.21,1.48-4.66.84-9.21,0-13.75-.52a27.34,27.34,0,0,1-12-4.09c-5.58-3.76-12-6.56-16.2-12-2.41-3.14-5.58-5.4-8.07-8.4a44.75,44.75,0,0,1-4-4.79,9.9,9.9,0,0,1-1.61-6.08c.11-2.16.93-4.58-1.65-6.09-.31-.19-.33-1-.36-1.53A82.29,82.29,0,0,1,102.11,44a4.72,4.72,0,0,1,.71-1.44c7.87-11.77,17.48-21.66,30.37-28,3.42-1.68,7.12-2.34,10.83-3,4.29-.77,8.55-1.47,12.92-1-.36.89-.7,2,.78,1.88a17.78,17.78,0,0,1,6.48,1.2C166.74,14.41,169.21,12,171.74,13.52Zm-41,83.41c1.34,1.77,1.34,1.77,3.23,1.76C133,97.89,132.4,96.9,130.76,96.93Z"/><path class="cls-2" d="M525.28,42.86c.33-7.16,2.12-13.36,5.79-18.56C535,18.72,539,12.81,544.94,9.2c6.57-4,13.43-7.33,21.72-6,4.46.7,9.15.45,13.32,2.36,8,3.64,15,8.56,20.51,15.55a14.24,14.24,0,0,0,2.23,2.36c6,4.92,7.31,11.26,5.94,18.6-.58,3.11-2.38,5.94-2,9.24a1,1,0,0,1-.19.78c-3.58,3.32-3.69,8-5,12.24a17.68,17.68,0,0,1-10,10.88c-4.68,2.13-9.24,4.57-14.42,5.4a7.82,7.82,0,0,1-5.26-.83,3.82,3.82,0,0,0-2.86-.63c-4.14,1.18-8.1.26-12.08-.75a1.14,1.14,0,0,0-1.2.4c-1.77,1.77-3.68,1.17-5.51.2-2.09-1.09-4.25-2.26-5.54-4.28-3.53-5.51-8.58-9.75-12.35-15S525.76,48.76,525.28,42.86Zm78.33,1.8c2.2-3.93,2.13-8,.68-12.21C604,36.49,604.34,40.56,603.61,44.66Z"/><path class="cls-2" d="M833.86,42.3a34.08,34.08,0,0,1,7.61-19.68c2.1-2.59,4.43-5,6.71-7.45a25,25,0,0,1,11.09-7.1c2.34-.72,4.59-1.7,6.9-2.5A7.08,7.08,0,0,1,868.8,5c7.32.42,15,.1,21.5,3.71,6.34,3.52,12.76,7.33,17.2,13.47a12.34,12.34,0,0,0,2.44,2.51c5.9,4.58,6.79,10.77,5.57,17.61-.52,2.92-1.94,5.57-2.07,8.68-.09,2.18-3,3.28-3.48,5.63-.12.61-.64,1.16-.68,1.75-.4,7.84-5.09,12.48-11.73,15.55a59.31,59.31,0,0,1-12.44,4.59,8.56,8.56,0,0,1-6.32-.78,3.1,3.1,0,0,0-2.57-.58c-4,1.62-7.87-.22-11.78-.5a1.25,1.25,0,0,0-.78.08c-4.32,3.31-7.7.1-9.88-2.49-5.12-6-11.08-11.41-15.27-18.16C836,51.92,833.67,47.49,833.86,42.3Zm76.79,2.46A15.27,15.27,0,0,0,911.27,33,76.93,76.93,0,0,1,910.65,44.76Z"/><path class="cls-2" d="M292.5,37.79a23.16,23.16,0,0,1-1.27,7.47c-.52,1.79-1.66,3.46-1.19,5.48a1,1,0,0,1-.19.78c-3.57,3.25-3.65,8-5.2,12.08-2.65,7-8.78,10.08-15.37,12.28-2.23.75-4.23,2-6.62,2.41-2.79.49-5.37.69-7.88-.88a2.42,2.42,0,0,0-1.82-.3c-4.11,1.52-8.06-.14-12.06-.49a1.18,1.18,0,0,0-.78.1C235.63,80,232.28,76.6,230,74c-4.77-5.64-10.18-10.77-14.37-16.87-7.25-10.54-6.61-23.4,1.56-33.49,2.61-3.23,5.45-6.28,8.33-9.29,3.62-3.77,8.54-5.17,13.11-7.36,5.75-2.75,11.36-1.78,17.05-1.2,12,1.22,20.82,8,28.54,16.69a18.13,18.13,0,0,0,1.9,1.92C290.83,28.21,292.51,31.74,292.5,37.79ZM287.55,33v10h.72C288.8,39.74,289,36.41,287.55,33Z"/><path class="cls-3" d="M319,38.13c-.11-14.34,6.5-24.4,17.83-31.83C341.26,3.39,346.16,1,351.22.4a40.46,40.46,0,0,1,16.7,1c4.8,1.45,9.09,3.18,12.85,6.42,7.64,6.59,11.43,15.12,12.54,24.91a43.65,43.65,0,0,1-2,18.82c-.47,1.43-1,2.87-.22,4.48a2.4,2.4,0,0,1-.79,2.71c-4.95,4.85-10.17,9.31-16.69,12a16.72,16.72,0,0,0-3.7,2.27,16.15,16.15,0,0,1-9.49,3.64,5.45,5.45,0,0,0-2.12.46c-9.52,4.71-21.42.45-26.47-9.32a3.84,3.84,0,0,0-.91-1.34c-6.71-5.17-8.66-12.94-11.16-20.4C318.84,43.37,319.25,40.47,319,38.13ZM356.21,75c-7.22,1.2-13.28-2.06-19.86-5.15C339.74,76,351,78.91,356.21,75Z"/><path class="cls-3" d="M81,38.41c.3,3.63-.89,7.76-2,11.88-.48,1.83-1.37,3.51-.52,5.51.37.86-.25,1.77-1,2.4C72.47,62.75,67.22,67,60.72,69.51A21.73,21.73,0,0,0,56.82,72a14.57,14.57,0,0,1-8.35,2.88c-2.66,0-4.91,1.47-7.55,1.85-8.21,1.2-14.46-1.64-19.23-8.07-1.46-2-3.17-3.66-4.72-5.5a39.32,39.32,0,0,1-8.75-19.3,35.64,35.64,0,0,1,3.47-21.7C14.57,16.18,19.75,12.37,25,8.79c7.4-5.06,16-7.68,24.69-6.79C59.33,3,68.05,7,74,15.49A37.94,37.94,0,0,1,81,38.41ZM25,69.32C30.68,75,40.36,77,44.27,73.37c-3.43-.38-6.68.33-9.84-.7S28.8,69.45,25,69.32Z"/><path class="cls-3" d="M671.34,2.2c7.72-.21,15,2.69,21.35,8.14,7,6.05,10.53,14,11.56,23a40.87,40.87,0,0,1-2.18,18.23,4.56,4.56,0,0,0-.16,3.68,2.47,2.47,0,0,1-.89,2.92c-5,4.61-10.33,8.83-16.8,11.32a14.18,14.18,0,0,0-3,1.86c-2.88,2-5.91,3.54-9.54,3.52a5.63,5.63,0,0,0-2.09.47c-10.12,4.09-19.93.86-25.64-8.47a7.15,7.15,0,0,0-1.27-1.74c-7.42-6.6-10.68-15.22-11.31-24.79-.93-14.17,5.65-24.52,17.46-31.83C655.5,4.38,662.64,1.81,671.34,2.2ZM649,69.33c4.73,5.57,13.77,7.56,18.62,4C660.71,74.84,655,71.28,649,69.33Z"/><path class="cls-4" d="M311.42,96.8c0-4.1.61-8.15.81-12.21.29-5.87-.17-11.78-.33-17.67,0-1.72-.31-3.45-.22-5.16a4.29,4.29,0,0,1,4.07-4.31c2.68,0,3.37,1.72,3.83,4,.61,3,1.22,6.17,4.9,7.43a6.93,6.93,0,0,1,3.13,2.9c2.34,3.76,6.4,5.29,9.67,7.81s6.74,2.25,10.34,1.18a4.13,4.13,0,0,1,2.64.24,10.72,10.72,0,0,0,8.4-.36c3-1.52,6.1.35,7.31,4.69a28.32,28.32,0,0,1-1.2,18.9,4.86,4.86,0,0,0-.52,2.59c.69,5.61-2.07,8.82-7.63,7.62-8.69-1.88-17.49-1.66-26.23-2.45-1.72-.16-3.32-.34-4.92.83a2.82,2.82,0,0,1-3.77-.45c-1.38-1.72-3.29-2.13-5.16-2.72-3.87-1.22-5.14-2.88-5.12-6.89C311.43,100.79,311.42,98.79,311.42,96.8Z"/><path class="cls-4" d="M.05,95C-.14,89.82,1.24,84.7,1.1,79.55.94,74.1,1,68.65.66,63.21A11.45,11.45,0,0,1,.74,60,3.76,3.76,0,0,1,4.9,56.81C7,56.93,8,58.2,8.29,60.34c.42,3,1,6,4.62,7.15a6.89,6.89,0,0,1,3.38,3.05c2.16,3.42,6,4.68,8.94,7.06s6.33,2,9.65,1.5a10.61,10.61,0,0,1,4.24.24,10.14,10.14,0,0,0,7.41-.62c2.25-1.19,4-.51,5.45,1.39,3.06,4,2.63,8.56,2.36,13.07-.17,2.88-.56,5.78-2.24,8.31-.53.8-.22,1.77-.14,2.68.36,4.08-.56,5.32-4.56,6.34a9.47,9.47,0,0,1-5.12,0c-5.2-1.57-10.53-1.8-15.9-1.81a46.86,46.86,0,0,1-9.24-.51,2.89,2.89,0,0,0-2.57.49c-1.82,1.48-3.58,1.17-5-.52a6,6,0,0,0-3.06-1.62c-6.16-2-6.68-2.69-6.45-9.08C.07,96.66.05,95.84.05,95Z"/><path class="cls-4" d="M623.48,94.73c.8-9.68,1.51-19.36.8-29.08a35.57,35.57,0,0,1-.21-4.61c.14-2.6,1.82-4.32,4-4.24,2.47.08,3.18,1.6,3.64,3.88.55,2.71,1,5.72,4.49,6.75a5.78,5.78,0,0,1,3.24,2.81c1.82,3.38,5.49,4.47,8.19,6.75a9.7,9.7,0,0,0,8.63,2.26c3.4-.84,6.6.55,9.9.39a9,9,0,0,0,3.44-.68c3-1.37,4.42-1,6.19,1.7,2.69,4.07,2.45,8.67,2,13.18-.28,2.56-.59,5.25-2.14,7.52a3.27,3.27,0,0,0-.24,2.62c.67,3.61-.54,5.43-4.07,6.4a10,10,0,0,1-5.64.14c-5.37-1.62-10.89-1.75-16.43-1.8a43,43,0,0,1-8.41-.48c-.61-.13-1.46-.28-1.86,0-2.75,2.12-4.85,1.21-7.13-.93-1-.9-2.69-1-4-1.48-3.54-1.33-4.37-2.54-4.36-6.23C623.48,98,623.48,96.36,623.48,94.73Z"/><path class="cls-5" d="M529.79,78.7a42,42,0,0,1,0-4.89c.23-1.83.81-3.81,2.91-4.15a4.46,4.46,0,0,1,4.88,2.75c1.53,4,4.33,6.56,7.86,8.62,1.66,1,3.28,2,5.34,1.09a1.67,1.67,0,0,1,1.33,0c4.56,2.61,9.7,1.83,14.58,2.51,8,1.1,10.86,7.74,9.68,14.24-.74,4.08-2,8.06-2.13,12.28-.13,3.6-1.66,4.67-5.32,4.69a14,14,0,0,1-5.63-.71,2.47,2.47,0,0,0-2.33.08,4.7,4.7,0,0,1-2.89.58c-5.15-.57-10.29.12-15.43,0s-10.72-3.46-10.85-10.36C531.67,96.5,530.81,87.58,529.79,78.7Z"/><path class="cls-5" d="M214.33,77.41c.1-1.81.06-3.64.33-5.43s.78-3.48,3-3.66A4.33,4.33,0,0,1,222.28,71a14.81,14.81,0,0,0,7,7.65c2,1,3.72,2,6.12,1.42,1.64-.43,3.08.88,4.62,1.35,3.54,1.07,7.22.31,10.8,1,6.85,1.37,10.52,6.09,9.35,12.89-.75,4.36-1.95,8.64-2.53,13-.33,2.49-1.87,3.61-4.31,3.59-2.08,0-4.23.27-6.18-.65-1.69-.81-2.87.71-4.43.68-5.45-.14-10.91,0-16.36-.07-5.63-.08-9.23-3.48-9.74-9.09C215.83,94.37,215.55,85.85,214.33,77.41Z"/><path class="cls-5" d="M837.79,77.38a33,33,0,0,1,.46-5.68c.38-1.55.44-3.2,2.47-3.35s4.13.52,5,2.57a14.77,14.77,0,0,0,7.1,7.81c1.9,1,3.57,2,5.83,1.37,1.9-.52,3.41,1,5.16,1.36,3.74.85,7.59.3,11.32,1.14,6.09,1.37,9.38,6,8.57,12.16-.63,4.84-2.51,9.43-2.77,14.37a3,3,0,0,1-3.21,2.79c-2.25.07-4.62.47-6.72-.53-1.71-.83-2.93.55-4.42.54-5.81,0-11.68.53-17.41-.15-6-.71-9.23-2.45-9.4-10.61C839.57,93.18,838.41,85.31,837.79,77.38Z"/><path class="cls-5" d="M417.42,83.55,428.08,94.2c.66.65,1.27,1.31.88,2.35-4.88-2.58-8.22-6.72-11.2-11.19A4.71,4.71,0,0,1,417.42,83.55Z"/><path class="cls-5" d="M171.74,13.52c-2.53-1.48-5,.89-7.54.12a17.78,17.78,0,0,0-6.48-1.2c-1.48.11-1.14-1-.78-1.88a12.69,12.69,0,0,1,4.67.86c2.27.84,4.66,1.84,7.3,1.34C169.79,12.59,171.11,12.16,171.74,13.52Z"/><path class="cls-5" d="M795.6,13.66a10.15,10.15,0,0,0-5.4-.16c-3.14.89-6.17-1.21-9.38-1.21-.49,0-.34-.7,0-1.08,1.28-1.06,2.39-.45,3.73.1,2.38,1,4.83,1.84,7.57,1.47C793.21,12.62,794.8,12,795.6,13.66Z"/><path class="cls-5" d="M413.07,68.77c.39.58,1.28.8,1.18,1.7C412.9,70.56,413.06,69.62,413.07,68.77Z"/><path class="cls-5" d="M414,71.46c0,1.92.26,3-.23,4.15A7,7,0,0,1,414,71.46Z"/><path class="cls-5" d="M447.67,102.12c-1.44.13-2.11-.75-2.88-1.89C446.53,100,447,101.17,447.67,102.12Z"/><path class="cls-5" d="M130.76,96.93c1.64,0,2.23,1,3.23,1.76C132.1,98.7,132.1,98.7,130.76,96.93Z"/><path class="cls-5" d="M603.61,44.66c.73-4.1.4-8.17.68-12.21C605.74,36.62,605.81,40.73,603.61,44.66Z"/><path class="cls-5" d="M910.65,44.76A76.93,76.93,0,0,0,911.27,33,15.27,15.27,0,0,1,910.65,44.76Z"/><path class="cls-5" d="M287.55,33c1.43,3.38,1.25,6.71.72,10h-.72Z"/><path class="cls-6" d="M356.21,75c-5.26,3.89-16.47,1-19.86-5.15C342.93,73,349,76.22,356.21,75Z"/><path class="cls-6" d="M25,69.32c3.85.13,6.45,2.36,9.48,3.35s6.41.32,9.84.7C40.36,77,30.68,75,25,69.32Z"/><path class="cls-6" d="M649,69.33c6.07,2,11.75,5.51,18.62,4C662.73,76.89,653.69,74.9,649,69.33Z"/></g></g></svg>