<svg xmlns="http://www.w3.org/2000/svg" viewBox="0 0 140.23 391.7"><defs><style>.cls-1{fill:#7d8cd1;}.cls-2{fill:#fff;}</style></defs><title>rakugaki_chair</title><g id="Layer_2" data-name="Layer 2"><g id="fr"><path class="cls-1" d="M139.48,49.39a61.5,61.5,0,0,0-5.13-18.28A46.31,46.31,0,0,0,122.67,15.4,59.14,59.14,0,0,0,92.29.6C80-1.58,66,2.51,55,7.87c-11.9,5.75-19.73,16.62-25.74,28S18.57,62.16,20.4,75.19s8.15,28.6,18.89,37A34.38,34.38,0,0,0,47.6,117c3.78,1.54,7.25,3.71,11,5.21a70.09,70.09,0,0,0,17,4.32,1.74,1.74,0,0,0,.56.21c13.47,2.39,26.34-3,37.44-10.06,9.33-6,19.38-14.37,22.67-25.38C140.22,78.24,141.06,62.83,139.48,49.39Zm-32.43,1.66c0-.13,0-.27,0-.4l.09.39ZM66,30.12l0,.05-.24.18ZM103.3,14.8l-.22-.13.24.11ZM64.5,118.94h0l-.06,0Zm10.85,2.44v.06q-1.16-.15-2.31-.36Q74.19,121.25,75.35,121.38Z"/><path class="cls-1" d="M93.1,136.64a2,2,0,0,0-.34-1.24,26.88,26.88,0,0,0-7.19-6.83,2.52,2.52,0,0,0-3.76,2.16c0,.11,0,.23,0,.34a2.47,2.47,0,0,0-.2,2.6c-.4-.82-.1.63-.08.84,0,.74.07,1.48.11,2.22.08,1.3.08,2.63.26,3.92a1.84,1.84,0,0,0,.36.82A3.31,3.31,0,0,0,83.8,144a3.54,3.54,0,0,0,3.12-.13l.31-.07c2-.52,5.64-1.14,6.75-3C94.84,139.31,94.15,137.89,93.1,136.64Z"/><path class="cls-1" d="M77.43,155.66c.41-8.19,2-16.46,2.18-24.61.06-3.22-4.94-3.22-5,0-.13,8.13-1.77,16.44-2.18,24.61-.44,8.66.18,17.25.41,25.9.45,16.78-.77,33.45-.76,50.17,0,3.21,5,3.22,5,0,0-16.72,1.21-33.39.76-50.17C77.61,172.91,77,164.32,77.43,155.66Z"/><path class="cls-2" d="M93.73,233c-3-1.74-7.39.28-10.5.86-6.17,1.15-12.59.74-18.81.49-5.54-.22-10.88-1.43-16.42-1.58s-11.86-3.31-17.43-1.89C21,233.28,23.3,244,26.36,250.94a2,2,0,0,0,2.37,1.24,3,3,0,0,0,.6,0,20.29,20.29,0,0,1,4.92.13,11.84,11.84,0,0,1,.09,1.23c0,1.42-.06,2.74-.15,4.16-.22,3.65,0,7.32-.23,11-.46,7.12.08,14.16.09,21.25a2.84,2.84,0,0,0-.29.92c0,.3,0,.6-.08.9-1.95.56-3.82,1.44-5.83,2-3.2.85-6.5,1.41-9.74,2.11-2.88.62-5.79,1.24-8.7,1.77-2.54.46-4.73,1.58-7.2,2.15a2.16,2.16,0,0,0-1.78,2.15A2,2,0,0,0,.17,304c0,.13.08.27.12.39A2.13,2.13,0,0,0,.67,306c.35,2.37.22,5.26.43,7.34.32,3.16.93,6.23,1.32,9.37.69,5.66,1.09,11.55,1.47,17.24.9,13.46,1.4,27.19-1.1,40.5-.59,3.15,4.22,4.49,4.82,1.33C10.2,368,9.82,353.9,8.89,340c-.41-6.21-.76-12.64-1.67-18.8-.49-3.29-1-6.54-1.33-9.86-.13-1.28-.12-2.69-.17-4.08,9.62,1.12,19.28,1.51,28.93,2.63,0,.48.09,1,.13,1.45.52,6.53.14,13.19.14,19.74,0,12,.93,24,.27,36a2.5,2.5,0,0,0,.47,2.52l.22.27c1.5,1.79,4.14.2,4.27-1.77.77-12.33-.23-24.64-.23-37,0-6.53.47-13.24-.14-19.74,0-.22-.05-.44-.07-.67,3,.55,5.93,1.2,8.9,1.76a73,73,0,0,0,15.5,1.12c0,2.48-.45,5.24-.45,7.3v11.33c0,7.18.07,14.37,0,21.56,0,6.17.5,12.35.82,18.52.29,5.79.1,12,1.31,17.7.67,3.14,5.49,1.81,4.82-1.33-1.36-6.34-1.22-13.78-1.36-20.24-.14-6.08-.59-12.13-.59-18.23q0-10.87,0-21.77c0-3.77,0-7.54,0-11.31,0-1.54.23-3.19.27-4.81,2.21-1.06,4.27-2.37,6.6-3.24q1.84-.69,3.66-1.41c-.11,1.45-.22,2.89-.3,4.33a100.49,100.49,0,0,0,1,20.94c1.1,7.08,2.6,14,4,21,.89,4.53,1.6,9,2.15,13.58.29,2.33,1.24,4.53,1.56,6.77.45,3.17,5.27,1.82,4.82-1.33C92,370,91.12,367,90.75,364c-.4-3.22-1.1-6.42-1.72-9.61-1.35-7.07-3-14-4.06-21.17a99.24,99.24,0,0,1-1-22.12c.15-2.1.3-4.21.43-6.33a3,3,0,0,0,.12-2.15c0-.43,0-.86.07-1.29s.05-.79.09-1.2a2.86,2.86,0,0,0,.37-3.19,19,19,0,0,0,.11-4.18,41.1,41.1,0,0,0,.54-5c.36-3.27.82-6.53,1.24-9.79,1-7.55,4.08-14.95,4.09-22.58a2.27,2.27,0,0,0,1.73-1.19l.11-.18a2.41,2.41,0,0,0,.34-1.23c1.9-3.18,2-8.21,2.48-11.71C96.05,238.33,96.68,234.65,93.73,233ZM31.42,301.38c.1.12.21.25.32.36l-.78-.15Zm50.82-26c-.42,3.19-1,6.35-1.25,9.55-.14,1.57,0,4.37-.45,6.15a2.84,2.84,0,0,0-.55,2,2.35,2.35,0,0,0,.24,1c0,.23,0,.45,0,.68-2.63-.44-5.39-.43-8-.7-3.69-.37-7.4-.52-11.1-.71s-7.64-.51-11.46-.93c-3.55-.38-7.2-1.36-10.79-1.58a2.38,2.38,0,0,0,.17-.91c0-8.41,0-16.85,0-25.26,0-3.82.31-7.61.31-11.43a45,45,0,0,0,5.15.86c2.3.22,4.66.16,7,.26,2.49.11,4.94.66,7.43.68,9.08.09,18.11,1.56,27.14.83C85.85,262.52,83.09,268.86,82.24,275.42Z"/><path class="cls-1" d="M72,231.57c-.43,6.58,0,13.18-.17,19.79-.08,4.52-.51,9.27,5.2,9.41l-2.41-1.84,0,.14c.44,3.17,5.26,1.82,4.82-1.33l0-.14a2.5,2.5,0,0,0-2.41-1.83c-1.86-.05-.19-.43-.25-.82a31.75,31.75,0,0,1,0-4.57c0-2.36.26-4.72.17-7.08a111.94,111.94,0,0,1,0-11.73c.21-3.21-4.79-3.2-5,0Z"/></g></g></svg>