<svg xmlns="http://www.w3.org/2000/svg" viewBox="0 0 220.809 220.139">
  <defs>
    <style>
      .cls-1 {
        fill: #fffcfc;
      }
    </style>
  </defs>
  <g id="rakugaki_01" transform="translate(-0.048 41.463) rotate(-13)">
    <g id="Layer_1" data-name="Layer 1" transform="translate(0.049 0.003)">
      <path id="Path_2196" data-name="Path 2196" class="cls-1" d="M138.1,175.1a51.461,51.461,0,0,1-5.054,1c-2.18.218-4.393.194-6.592.242-1.7.046-3.371.082-5.059.087-.751,0-1.5-.085-2.255-.14-.16,0-.312-.109-.47-.111-2.022-.036-4.044-.14-6.055-.075a22.689,22.689,0,0,1-7.944-1.242c-.567-.186-1.162-.281-1.744-.429-1.279-.327-2.543-.712-3.834-.969a70.952,70.952,0,0,0-7.387-1.337c-1.288-.126-2.64.446-3.972.661-.746.119-1.518.094-2.26.242-2.676.518-5.328,1.143-8.021,1.611-2.32.4-4.664.7-7.009.949-2.993.325-6,.545-8.995.836-2.3.223-4.6.5-6.907.727-.429.041-.877-.131-1.308-.109a28.1,28.1,0,0,0-2.829.24q-2.361.373-4.706.862c-1.753.366-3.509.727-5.241,1.2-2.323.618-4.626,1.313-6.931,2-1.489.441-2.947,1.024-4.459,1.363a33.826,33.826,0,0,1-4.885.685c-.346.027-.937-.543-1.078-.952-.647-1.872-1.434-3.669-1.305-5.786.208-3.446.075-6.914.133-10.37.015-.831.264-1.654.32-2.487.189-2.918.124-5.873.572-8.748a59.552,59.552,0,0,1,2.071-7.529c.262-.886.463-1.591-.727-1.986-2.18-.727-4.359-1.511-6.51-2.376-2.008-.811-3.95-1.787-5.946-2.635-1.729-.727-3.543-1.293-5.224-2.122a38.1,38.1,0,0,1-4.037-2.528c-.2-.128-.3-.412-.484-.523-2.64-1.47-2.005-3.691-1.349-5.895a29.833,29.833,0,0,1,1.211-3.524c1.223-2.785,2.507-5.544,3.807-8.295a24.218,24.218,0,0,1,1.673-3.076c1.9-2.86,3.919-5.645,5.8-8.52,1.511-2.32,2.882-4.73,4.323-7.1.688-1.133,1.419-2.243,2.076-3.391.434-.76.693-1.627,1.165-2.359.62-.969,1.414-1.812,2.063-2.756.969-1.39,1.8-2.863,2.788-4.229,1.9-2.625,3.875-5.209,5.812-7.8.988-1.31,1.983-2.62,3.032-3.875a21.226,21.226,0,0,1,2.579-2.792c3.391-2.826,6.842-5.582,10.293-8.336,2.313-1.848,4.628-3.7,7.023-5.444,1.087-.8,2.393-1.291,3.536-2.022,2.158-1.383,4.27-2.838,6.4-4.262a4.143,4.143,0,0,1,.627-.358c1.606-.7,1.509-.681,1.245-2.485a34.34,34.34,0,0,1-.746-7.542c.361-4.432.6-8.98,2.478-13.1a89.119,89.119,0,0,1,4.858-8.808c1.284-2.143,2.783-4.156,4.2-6.217a5.065,5.065,0,0,1,.681-.666c.647-.627,1.293-1.252,1.937-1.887a8.822,8.822,0,0,1,1.092-1.1,14.843,14.843,0,0,0,3.432-2.773c.71-.874,2.129-1.17,3.228-1.727.642-.325,1.276-.661,1.918-.986a28.732,28.732,0,0,1,3.531-1.739A48.312,48.312,0,0,1,98.339.765a26.429,26.429,0,0,1,3.233-.2c1.436-.119,2.87-.293,4.3-.426a8.381,8.381,0,0,1,1.913-.109c2.381.334,4.764.676,7.118,1.15,1.812.366,3.572.969,5.374,1.4,1.669.392,3.374.637,5.042,1.029A43.347,43.347,0,0,1,129.6,4.821c1.937.644,3.841,1.347,5.735,2.09.894.354,1.715.886,2.589,1.3q2.826,1.339,5.667,2.628c.322.148.71.148,1.044.279.894.346,1.782.707,2.664,1.1,1.005.453,2.005.92,2.976,1.439,1.192.639,2.393,1.274,3.514,2.022,3.005,2.008,6.055,3.962,8.929,6.149,2.906,2.221,5.507,4.875,8.476,7,2.306,1.649,3.558,4.146,5.636,5.97,1.746,1.528,2.979,3.633,4.488,5.454a1.9,1.9,0,0,0,1.1.526c.86.138,1.744.179,1.891,1.3a2.366,2.366,0,0,1-1.586,2.5,26.077,26.077,0,0,0-2.279,1.475q-4.081,2.446-8.183,4.844c-1.729,1.012-3.478,1.991-5.221,2.976-.315.177-.664.472-.969.443-1.85-.165-2.877,1.211-4.163,2.117-.293.206-.6.513-.92.545-1.937.194-3.231,1.724-4.926,2.4-1.029.407-2.1.71-3.129,1.107-.39.15-.93.371-1.027.676a1.435,1.435,0,0,0,.443,1.143c1.538,1.475,2.165,3.437,3.054,5.28,1.339,2.778,2.867,5.466,4.3,8.2.3.567.545,1.162.8,1.753,1.782,4.168,3.671,8.295,5.3,12.523A25.6,25.6,0,0,1,167.555,99c.022,2.022.661,4.028.809,6.055.177,2.422.116,4.844.17,7.28.048,2.313.116,4.628.167,6.941a8.09,8.09,0,0,1-.044.837c-.153,1.958-.3,3.912-.463,5.866-.044.518-.157,1.029-.2,1.545q-.131,1.417-.213,2.838a7.62,7.62,0,0,1,.019.969c-.448,2.2-.889,4.4-1.4,6.58-.681,2.906-1.284,5.858-2.18,8.719-1.034,3.33-2.339,6.575-3.521,9.862-.16.448-.259.918-.424,1.366-.138.368-.242.908-.516,1.039-1.853.886-2.2,2.906-3.378,4.3-1.01,1.192-2.02,2.383-3.059,3.548a16.076,16.076,0,0,1-2.243,2.308,46.457,46.457,0,0,1-5.517,3.613,55.384,55.384,0,0,1-6,2.5,5.467,5.467,0,0,1-1.424.153C138.125,175.238,138.115,175.168,138.1,175.1Zm-35.037-11.14.051.17a18.685,18.685,0,0,0,4.311-.848,27.584,27.584,0,0,0,5.858-3.458c2.829-2.26,5.449-4.781,8.091-7.266a18.216,18.216,0,0,0,2.18-2.727c1.024-1.417,1.937-2.906,3-4.306a25.153,25.153,0,0,0,4.117-7.992c1.073-3.567,1.874-7.215,2.821-10.818a25.619,25.619,0,0,0,.71-7.75c-.022-.441-.044-.882-.041-1.325a33.705,33.705,0,0,0,0-4.945c-.46-2.928-1.2-5.812-1.853-8.7a7.314,7.314,0,0,0-.635-1.555c-.969-1.974-1.908-3.972-2.976-5.892a27.851,27.851,0,0,0-2.664-4.006,54.915,54.915,0,0,0-3.764-4.008c-1.579-1.594-3.044-3.352-5.384-3.923a4.041,4.041,0,0,1-.942-.526c-1.143-.651-2.262-1.349-3.434-1.937-1.066-.54-2.269-.845-3.267-1.477-1.063-.673-1.974-1.526-3.391-1.153-.281.073-.625-.109-.942-.157-2.981-.443-5.963-.9-8.946-1.313a8.285,8.285,0,0,0-2.267-.065c-2.373.344-4.749.7-7.089,1.211-2.277.484-4.524,1.131-6.762,1.782a16.7,16.7,0,0,0-2.281,1.053c-1.4.676-2.817,1.327-4.195,2.044-1.339.7-2.642,1.453-3.96,2.2-.31.177-.6.385-.911.567-.71.417-1.426.826-2.136,1.24a3.633,3.633,0,0,0-.8.484q-3.875,3.875-7.706,7.75c-1.661,1.681-3.391,3.3-4.931,5.086s-2.93,3.807-4.338,5.757c-1.874,2.6-3.751,5.192-5.536,7.852-1.3,1.937-2.436,3.967-3.659,5.948-.9,1.468-1.9,2.882-2.727,4.391-1.015,1.85-1.937,3.751-2.821,5.67-.838,1.821-1.625,3.669-2.342,5.541s-1.211,3.843-2.027,5.667c-.484,1.092.017,1.393.775,1.7,1.635.664,3.282,1.3,4.926,1.937,4.178,1.627,8.341,3.294,12.545,4.861,2.214.826,4.531,1.378,6.74,2.223,2.095.8,4.059,1.962,6.171,2.712,2.8,1,5.682,1.765,8.537,2.6,1.967.576,3.935,1.167,5.931,1.63,2.952.683,5.936,1.233,8.893,1.9.647.145,1.211.678,1.86.782,1.7.269,3.391.4,5.108.586,2.381.259,4.756.581,7.144.753,1.654.136,3.311.041,4.96.041ZM180.9,41.689c-2.24-2.153-4.158-4.015-6.105-5.849-.642-.605-1.395-1.092-2.039-1.7-2.332-2.18-4.449-4.638-7.023-6.478-2.025-1.453-3.737-3.325-6.115-4.381a56.41,56.41,0,0,1-6.355-3.836c-.242-.145-.4-.4-.625-.564a21,21,0,0,0-2.141-1.453c-1.022-.552-2.107-.991-3.148-1.48-1.707-.792-3.391-1.613-5.125-2.366-1.068-.467-2.18-.819-3.272-1.245C135.306,10.91,131.69,9.394,128,8.064a40.984,40.984,0,0,0-5.03-1.158c-3.984-.882-7.944-1.894-11.957-2.589-2.252-.392-4.5-.94-6.909-.426-3.843.819-7.793.942-11.545,2.436a36.059,36.059,0,0,0-12.376,8.5c-1.315,1.332-2.146,3.134-3.839,4.161-.266.162-.363.61-.53.932-.262.5-.484,1.015-.782,1.5-1.024,1.724-2.136,3.391-3.09,5.166A28.832,28.832,0,0,0,69,36.194a44.17,44.17,0,0,0-.286,6.728,29.125,29.125,0,0,0,.484,4.526,1.2,1.2,0,0,0,.988.627,21.01,21.01,0,0,0,2.758-1.129c2.54-1.16,5.064-2.361,7.617-3.5,1.865-.831,3.756-1.6,5.648-2.366,1.606-.654,3-1.937,4.96-1.574.337.065.739-.262,1.121-.378,1.753-.542,3.495-1.143,5.272-1.581a28.951,28.951,0,0,1,3.349-.414c4.422-.557,8.825-1.7,13.32-.438.109.031.242-.024.358-.015a17.181,17.181,0,0,1,2.611.242c2.792.712,5.57,1.511,8.341,2.293a3.064,3.064,0,0,1,.727.407c.78.484,1.567.969,2.33,1.475,1.937,1.293,3.875,2.582,5.793,3.911,1.7,1.192,3.391,2.422,5.064,3.662a47.4,47.4,0,0,1,4.093,3.148c1.506,1.4,3.265,2.611,4.117,4.618.15.354.523.61.765.93a1.332,1.332,0,0,0,1.9.39c1.063-.542,2.18-1,3.243-1.518,1.15-.552,2.291-1.124,3.429-1.7.61-.308,1.211-.622,1.816-.969.828-.467,1.635-.969,2.465-1.439a22.741,22.741,0,0,1,2.117-1.1c.92-.392,2.124-.453,2.768-1.095,1.676-1.673,3.928-2.163,5.863-3.277,2.889-1.644,5.812-3.272,8.866-4.994ZM86.589,75.762l.092-.526c-.773-.378-1.56-.727-2.315-1.138a25.447,25.447,0,0,1-4.052-2.3,40.416,40.416,0,0,1-4.994-4.71,61.445,61.445,0,0,1-4.384-5.812c-.4-.579-.589-.969-1.361-.557-1.47.8-2.986,1.506-4.476,2.264-.823.419-1.647.838-2.444,1.3a39.476,39.476,0,0,1-4.669,2.727c-3.277,1.344-5.544,4.064-8.476,5.861a36.274,36.274,0,0,0-4.669,3.8c-2.565,2.284-5.168,4.488-7.58,6.885-2.783,2.775-5.386,5.728-8.053,8.617-2.446,2.664-4.887,5.316-7.295,8.007-.77.86-1.388,1.858-2.141,2.734-1.383,1.611-2.906,3.107-4.2,4.786s-2.371,3.519-3.55,5.282a2.518,2.518,0,0,1-.421.429c-1.225,1.1-2.478,2.18-2.877,3.889a2.526,2.526,0,0,1-.429.71,43.5,43.5,0,0,0-2.633,4.006c-1.073,2.1-1.925,4.318-2.889,6.481-.753,1.7-.639,1.727,1.073,2.541,2.342,1.114,4.58,2.444,6.873,3.662.969.516,1.954,1.012,2.959,1.465.579.259,1.247.339,1.812.622,3.148,1.591,6.277,3.233,9.426,4.827,1.322.671,1.368.613,1.916-.727,1.426-3.487,2.778-7.023,4.342-10.438,1.366-2.993,2.989-5.868,4.49-8.8.746-1.453,1.385-2.972,2.231-4.359.937-1.548,2.073-2.972,3.085-4.473,1.211-1.795,2.349-3.633,3.572-5.418,1.114-1.623,2.291-3.2,3.458-4.79.332-.45.727-.857,1.09-1.284.7-.823,1.395-1.652,2.1-2.468,1.894-2.18,3.7-4.454,5.72-6.517,2.158-2.206,4.517-4.216,6.8-6.3a5.4,5.4,0,0,1,1.078-.758c2-1.092,4.037-2.124,6.016-3.255,1.347-.77,2.6-1.707,3.935-2.492a14.243,14.243,0,0,1,2.315-1c1.618-.6,3.228-1.211,4.88-1.7C83.469,76.387,85.043,76.11,86.589,75.762Zm53.929-8.719.564.668a40.061,40.061,0,0,1,3.025,3.567c1.136,1.681,2.085,3.49,3.064,5.27a40.414,40.414,0,0,1,2.269,4.476c.937,2.371,1.719,4.807,2.5,7.239a18.378,18.378,0,0,1,.521,2.712c.373,2.352.78,4.7,1.073,7.062.206,1.674.274,3.364.358,5.05a59.155,59.155,0,0,1,.242,6.859,83.537,83.537,0,0,1-1.17,8.719,73.26,73.26,0,0,1-1.732,7.915c-1.2,4.117-2.543,8.212-3.96,12.271-1.315,3.778-2.708,7.537-4.245,11.228-1.468,3.521-4.192,6.219-6.759,8.908a27.945,27.945,0,0,1-6,4.144,12,12,0,0,1-3.359,1.184q-3.391.814-6.842,1.434c-1.8.327-3.633.579-5.447.758a61.5,61.5,0,0,0-6.474.509,74.515,74.515,0,0,0-7.44,2.279,8.771,8.771,0,0,0-1.228.69,24.567,24.567,0,0,0,2.349.782c1.41.3,2.838.521,4.255.792a65.382,65.382,0,0,0,6.464,1.211c2.783.242,5.594.172,8.394.242.845.022,1.7.09,2.536.073q4.028-.087,8.055-.23a14.85,14.85,0,0,0,2.24-.271,21.036,21.036,0,0,1,4.006-.775,6.46,6.46,0,0,0,3.817-1.172,2.284,2.284,0,0,1,.879-.38c2.969-.4,5.02-2.422,7.2-4.149,2.664-2.1,4.359-5.018,6.273-7.764,1.189-1.719,2.516-3.32,2.906-5.485A22.76,22.76,0,0,1,160,149.2c.465-1.267,1.138-2.465,1.492-3.754s.312-2.618.615-3.892c.281-1.182.879-2.286,1.172-3.466.506-2.022.937-4.066,1.288-6.118.153-.884-.046-1.824.046-2.725.157-1.586.506-3.148.615-4.744.225-3.265.366-6.539.484-9.8a15.265,15.265,0,0,1-.143-2.63c.7-3.032-.065-5.987-.3-8.961a42.189,42.189,0,0,0-.652-4.173c-.438-2.436-.763-4.9-1.419-7.282a29.322,29.322,0,0,0-2.015-4.185c-1.068-2.327-2.088-4.677-3.122-7.023a1.694,1.694,0,0,1-.194-.572c-.094-1.836-1.3-3.173-2.09-4.691-.186-.356-.429-.683-.61-1.041-1.548-3.081-3.061-6.178-4.652-9.237A4.485,4.485,0,0,0,149,63.091c-.341-.2-1.141.291-1.7.559-2.214,1.085-4.417,2.2-6.786,3.391ZM110.126,77.128l-.165.4c.569.3,1.124.639,1.717.891a22.317,22.317,0,0,1,2.1.768,33.165,33.165,0,0,0,3.8,2.272c3.391,1.3,5.776,3.851,8.263,6.246a42.036,42.036,0,0,1,3.8,4.829,18.871,18.871,0,0,1,1.666,2.342c.855,1.589,1.611,3.233,2.369,4.873a23.028,23.028,0,0,1,1.584,3.773c.63,2.439,1.131,4.919,1.528,7.406a34.653,34.653,0,0,1,.555,6.113c-.061,2.744-.4,5.483-.712,8.215a38.748,38.748,0,0,1-.838,4.861c-.346,1.41-.928,2.758-1.39,4.139-.128.383-.194.782-.3,1.172a34.957,34.957,0,0,1-1.506,5.161,35.584,35.584,0,0,1-3.538,6.127c-2.482,3.405-4.321,7.338-7.854,9.913-.184.136-.259.409-.421.584a26.958,26.958,0,0,1-2.252,2.33c-1.291,1.087-2.679,2.061-4.018,3.1a6.3,6.3,0,0,0-.635.758,16.586,16.586,0,0,0,1.879,0c2.226-.346,4.463-.644,6.658-1.138a30.88,30.88,0,0,0,6.217-1.845c1.724-.806,3.759-1.138,5.037-2.882.969-1.313,2.238-2.383,3.318-3.611a17.558,17.558,0,0,0,2.54-3.209c1.16-2.206,2.073-4.541,3.093-6.82a15.988,15.988,0,0,0,.838-1.841c.308-1.037.417-2.136.756-3.148,1.162-3.5,2.393-6.98,3.584-10.47a6.668,6.668,0,0,0,.128-.831,8.1,8.1,0,0,1,.436-1.981c1.414-2.887,1.5-6.086,2.08-9.142a46.8,46.8,0,0,0,.484-8.38c0-2.2-.271-4.4-.414-6.595-.058-.923-.1-1.845-.138-2.766-.077-1.778-.148-3.555-.223-5.328a.422.422,0,0,0-.039-.114,62.074,62.074,0,0,1-2.211-7.29c-.681-3.78-2.894-6.83-4.461-10.172-1-2.126-2.763-3.909-4.267-5.781-1.238-1.543-1.937-1.623-3.73-.865-1.351.567-2.732,1.068-4.1,1.586-2.291.867-4.57,1.78-6.885,2.572-2.771.949-5.551,1.879-8.372,2.652C114.137,76.508,112.115,76.755,110.126,77.128ZM86.392,169.55c-1.644-.751-3.044-1.509-4.524-2.039-2.577-.923-5.255-1.569-7.793-2.574-4.146-1.64-8.21-3.487-12.32-5.219a15.632,15.632,0,0,0-1.86-.484,15.957,15.957,0,0,1-1.594-.5c-.969-.38-1.9-.852-2.88-1.2-2.989-1.056-6.018-2-8.98-3.124-2.705-1.024-5.343-2.231-8.016-3.337S33,148.85,30.288,147.751a7.2,7.2,0,0,0-1.719-.557,1.1,1.1,0,0,0-.937.46c-.681,2.233-1.305,4.485-1.891,6.745a12.51,12.51,0,0,0-.288,2.153c-.194,2.465-.363,4.936-.552,7.4-.058.763-.191,1.523-.216,2.289-.092,2.921-.206,5.844-.211,8.767,0,1.9.165,3.8.257,5.713,1.25-.31,2.337-.545,3.405-.853,3.148-.9,6.3-1.86,9.445-2.749,1.162-.325,2.371-.484,3.538-.78.8-.206,1.55-.613,2.352-.8.857-.2,1.751-.213,2.625-.346,3.483-.526,6.948-1.2,10.448-1.567,3.265-.346,6.573-.262,9.837-.588,2.906-.293,5.776-.853,8.651-1.361,3.715-.659,7.408-1.385,11.37-2.131Zm47.814-103.8a18.9,18.9,0,0,0-2.877-3.221,67.448,67.448,0,0,0-7.66-4.681,30,30,0,0,0-5.994-2.18,82.929,82.929,0,0,0-9.147-2.008,42.7,42.7,0,0,0-7.045-.242,58,58,0,0,0-8.033.463c-3.405.533-6.75,1.453-10.118,2.209-1.453.329-2.94.6-4.374,1.024-1.112.329-2.138.949-3.253,1.264-1.785.5-2.216,1.3-1.053,2.686,1.867,2.226,3.834,4.374,5.866,6.452.831.848,2.017,1.334,2.906,2.136,2.059,1.858,4.616,2.555,7.183,3.173a47.743,47.743,0,0,0,6.3,1.066c2.092.216,4.2.668,6.323.065a5.382,5.382,0,0,1,1.666.046,8.227,8.227,0,0,0,1.431.08,27.854,27.854,0,0,0,3.756-.615c3.323-.894,6.817-1.17,9.956-2.744a12.434,12.434,0,0,1,1.937-.639c2.79-.865,5.582-1.722,8.37-2.6.22-.068.392-.283.605-.39.727-.349,1.429-.7,2.16-1.005A9.447,9.447,0,0,1,134.207,65.752Zm12.448-6.028c-1.862-2.008-3.441-3.933-5.253-5.607a56,56,0,0,0-6.6-5.369c-3.424-2.3-6.679-4.88-10.54-6.522-3.2-1.359-6.386-2.55-9.93-2.422a4.986,4.986,0,0,1-1.264-.279,3.735,3.735,0,0,0-1.029-.242c-4.873.242-9.726.421-14.512,1.7a81.863,81.863,0,0,0-9.9,3.008c-2.625,1.07-5.284,2.051-7.888,3.17-2.272.969-4.485,2.09-6.725,3.148a12.237,12.237,0,0,0-1.836.889c-.3.206-.637.753-.559,1.039.332,1.24.814,2.439,1.235,3.655.281.814.7.676,1.388.39,2.18-.891,4.376-1.744,6.621-2.422,1.756-.533,3.6-.768,5.393-1.187,1.005-.242,1.967-.7,2.979-.85,2.729-.412,5.507-.562,8.208-1.1,2.817-.567,5.6-.167,8.4-.167,1.235,0,2.468.063,3.7.111a5.914,5.914,0,0,1,1.192.109c2.565.639,5.154,1.2,7.672,1.986,3.236,1.012,6.65,1.577,9.513,3.613.969.685,2.1,1.131,3.076,1.812,2.095,1.472,4.117,3.059,6.21,4.522.714.5,1.683,1.184,2.373,1.034a12.19,12.19,0,0,0,3.633-1.727c1.024-.627,1.918-1.431,3.221-1.477C145.754,60.5,146.074,60.117,146.655,59.724ZM22.56,94.291l.332.3c.635-.678,1.257-1.366,1.9-2.034q1.836-1.9,3.688-3.788,2.02-2.056,4.057-4.093c1.293-1.3,2.611-2.574,3.875-3.9,1.356-1.422,2.557-3.01,4.018-4.308a87.516,87.516,0,0,1,7.919-6.478c2.688-1.867,5.028-4.277,8.21-5.43a9.8,9.8,0,0,0,3.112-1.683c2.478-2.18,5.7-2.933,8.4-4.645a1.523,1.523,0,0,0,.63-1.211,13.451,13.451,0,0,0-.915-2.729c-.107-.242-.538-.6-.727-.555a7.522,7.522,0,0,0-2.25.833q-4.153,2.664-8.215,5.488c-2.957,2.051-5.856,4.185-8.8,6.263-3.17,2.24-5.713,5.258-9.041,7.3a.361.361,0,0,0-.087.085c-1.342,1.6-2.729,3.16-4.013,4.8-1.841,2.356-3.969,4.461-5.556,7.055s-3.56,4.861-5.369,7.265C23.35,93.325,22.95,93.8,22.56,94.291Zm66.956,72.042c3.279,2.625,5.207,2.337,6.718.622Z" transform="translate(-0.049 -0.003)"/>
    </g>
  </g>
</svg>
