<svg xmlns="http://www.w3.org/2000/svg" viewBox="0 0 216.844 77.447">
  <defs>
    <style>
      .cls-1 {
        fill: #111;
      }

      .cls-2 {
        fill: #f4564e;
      }

      .cls-3 {
        fill: #f299d0;
      }

      .cls-4 {
        fill: #0b71d7;
      }

      .cls-5 {
        fill: #fcd41b;
      }

      .cls-6 {
        fill: #fff;
      }
    </style>
  </defs>
  <g id="cool" transform="translate(0.01 0.021)">
    <g id="Layer_1" data-name="Layer 1" transform="translate(-0.01 -0.021)">
      <path id="Path_2161" data-name="Path 2161" class="cls-1" d="M-.007,84.892c.059-2.2.3-4.786.151-7.373C.061,76.068-.04,74.616,0,73.161A45.142,45.142,0,0,1,1.837,60.434a30.259,30.259,0,0,1,4.19-8.875,27.3,27.3,0,0,1,3.982-4.115,30.732,30.732,0,0,1,7.269-4.751,31.78,31.78,0,0,1,8.361-2.868,25.323,25.323,0,0,1,5.71,0c2.934.2,5.247,1.782,7.6,3.3a6.378,6.378,0,0,1,1.808,2.132,32.068,32.068,0,0,1,2.393,4.751,11.092,11.092,0,0,1,.567,6.191,14.953,14.953,0,0,1-3.085,6.933c-1.782,2.251-4.193,2.672-6.829,2.3a23.392,23.392,0,0,1-2.571-.214,4.679,4.679,0,0,1-3.014-2.3c-1.292-2.23-3.023-2.453-5.324-1.621-2.533.918-3.908,2.907-4.938,5.241a27.219,27.219,0,0,0-2.429,12.082,9.594,9.594,0,0,0,1.716,5.2,1.932,1.932,0,0,0,2.078.846,9.635,9.635,0,0,0,4.988-2.42,10.966,10.966,0,0,1,10.128-2.322A6.322,6.322,0,0,1,38.3,82.68c2.753,4.175,2.426,8.358-.137,12.444a22.842,22.842,0,0,1-7.254,7.583,16.168,16.168,0,0,1-8.213,2.6,17.237,17.237,0,0,1-4.8-.46c-1.586-.428-3.266-.208-4.87-.624A14.312,14.312,0,0,1,5.394,99.24a43.312,43.312,0,0,1-2.868-3.89C.521,92.271-.058,88.859-.007,84.892Zm2.916-4.968c0,2.289-.1,4.585.03,6.865a13.389,13.389,0,0,0,1.722,6.235A27.168,27.168,0,0,0,8,97.479a11.375,11.375,0,0,0,5.939,3.516c1.425.339,2.9.143,4.32.463a12.641,12.641,0,0,0,7.9-.481,15.33,15.33,0,0,0,3.287-1.514,29.9,29.9,0,0,0,4.926-4.751c2.286-2.672,3.486-6.191,1.4-9.564a3.525,3.525,0,0,0-2.393-1.88c-2.426-.392-4.751-.22-6.654,1.571A11.618,11.618,0,0,1,20.338,88.2c-1.859.261-3.584.211-5-1.283a12.006,12.006,0,0,1-3.174-7.738,29.216,29.216,0,0,1,2.283-13.011c1.419-3.486,3.379-6.488,7.126-7.91,3.6-1.366,6.776-.983,9.181,2.025a4.059,4.059,0,0,0,2.58,1.606,13.5,13.5,0,0,0,1.583.3c1.238.068,2.524.362,3.432-.935,2.126-3.043,3.3-6.3,2.26-10.021a10.615,10.615,0,0,0-1.292-2.779c-.686-1.081-1.1-2.432-2.263-3.1a16.2,16.2,0,0,0-5.888-2.524,17.311,17.311,0,0,0-7.5.57,41.545,41.545,0,0,0-8.531,3.789c-1.277.733-2.277,1.808-3.486,2.607a14.568,14.568,0,0,0-3.076,3.07c-2.15,2.637-3.236,5.835-4.166,9.03A44.693,44.693,0,0,0,2.879,73.766a47.228,47.228,0,0,1,.033,6.149Z" transform="translate(0.01 -27.876)"/>
      <path id="Path_2162" data-name="Path 2162" class="cls-1" d="M544.958,49.11c-.178,2.842-.46,6.06-.552,9.285a67.468,67.468,0,0,1-1.015,8.29,13.21,13.21,0,0,0,.341,4.157c.431,2.462.683,4.947,1.042,7.423a1.455,1.455,0,0,0,1.259,1.333,14.03,14.03,0,0,0,5.08.362,51.3,51.3,0,0,1,10.238-.208,13.955,13.955,0,0,1,5.187,1.669c.514.3,1.108.434,1.615.733,1.892,1.111,3.584,2.4,4.065,4.736a6.685,6.685,0,0,1-.927,4.481c-1.707,3.332-4.587,4.926-8.156,5.5a10.988,10.988,0,0,1-1.767.172,14.547,14.547,0,0,0-3.771.3c-1.781.457-3.584-.03-5.366-.2a18.245,18.245,0,0,0-2.984-.059c-3.768.273-7.539.347-11.313.264a11.488,11.488,0,0,1-4.617-1.033,6.111,6.111,0,0,1-2.818-2.672A21.778,21.778,0,0,1,527.829,82.8c0-5.345.155-10.689-.056-16.034-.16-4.038-.386-8.079-.229-12.115a33.444,33.444,0,0,1,2.565-12.572c.947-2.1,1.811-4.246,2.913-6.277a4.768,4.768,0,0,1,6.978-1.1,13.678,13.678,0,0,1,2.3,2,8.912,8.912,0,0,1,1.621,3.646,14.939,14.939,0,0,1,.392,2.055C544.427,44.522,545.059,46.589,544.958,49.11ZM531.2,76.783c.107,2.842-.137,5.754.157,8.664a16.115,16.115,0,0,0,1.615,5.939,4.275,4.275,0,0,0,4.124,2.432c2.779.021,5.559,0,8.338-.021.24,0,.481-.065.721-.068,1.992-.033,3.979-.324,5.971-.2,1.339.08,2.672.27,4.017.3a16.623,16.623,0,0,0,2.375-.377c1.556-.184,3.127.033,4.67-.279a6.877,6.877,0,0,0,5.315-3.744c1.1-2.274.261-3.159-1.458-4.178a14.06,14.06,0,0,0-5.143-1.8,43.827,43.827,0,0,0-10,.1,16.806,16.806,0,0,1-6.764-.5c-2-.644-3.438-1.74-3.721-3.973-.4-3.225-.855-6.44-1.232-9.668a13.288,13.288,0,0,1,.047-3.86,32.992,32.992,0,0,0,.811-4.926c.1-3.664.166-7.322.531-10.968.184-1.85-.422-3.634-.46-5.458a15.732,15.732,0,0,0-1.838-6.194,2.375,2.375,0,0,0-.481-.641,2.322,2.322,0,0,0-4.038.627c-.529,1.146-.855,2.4-1.485,3.495a20.6,20.6,0,0,0-1.9,5.974,39.145,39.145,0,0,0-.695,7.456c-.083,4.775.252,9.528.475,14.288C531.288,71.694,531.2,74.206,531.2,76.783Z" transform="translate(-370.862 -23.654)"/>
      <path id="Path_2163" data-name="Path 2163" class="cls-1" d="M229.68,68.172a52.561,52.561,0,0,1-2.948,18.561,69.674,69.674,0,0,1-2.767,7.491,15.326,15.326,0,0,1-4.029,4.956c-3.02,2.7-6.788,3.3-10.488,4.234a22.379,22.379,0,0,1-9.368-.1c-2.871-.484-4.6-2.6-6.072-4.944a17.464,17.464,0,0,1-2.334-8.059c-.27-3.242-.386-6.5-.671-9.739-.193-2.165-.573-4.311-.864-6.47a38.772,38.772,0,0,1,.8-16.064,29.176,29.176,0,0,1,4.6-9.531,9.641,9.641,0,0,1,2.194-1.888c1.381-1.027,2.767-2.052,4.157-3.049a10.967,10.967,0,0,1,8.085-1.663c1.547.2,3.088.472,4.638.57a8.976,8.976,0,0,1,5.582,2.438,22.83,22.83,0,0,1,5.606,8.569c1.03,2.515,1.963,5.066,2.9,7.616A20.013,20.013,0,0,1,229.68,68.172Zm-36.6-.891a91.339,91.339,0,0,0,1.048,11.58c.442,3.688.508,7.4.915,11.087a15.282,15.282,0,0,0,2.013,6.743c.873,1.378,1.865,2.672,3.6,3.052.523.113,1.063.146,1.594.214a18.125,18.125,0,0,0,5.79.024c1.292-.249,2.574-.558,3.86-.745a10.563,10.563,0,0,0,5.113-2,14,14,0,0,0,4.273-4.855A65,65,0,0,0,225.363,80.4,45.137,45.137,0,0,0,226.61,65.52a9.5,9.5,0,0,0-.543-2.922c-1.066-2.672-2.138-5.345-3.162-8.044a18.129,18.129,0,0,0-5.006-7.423,5.939,5.939,0,0,0-3.7-1.592,9.7,9.7,0,0,1-3.522-.79c-2.375-1.048-4.617-.383-6.6.891a46.811,46.811,0,0,0-4.941,4.026,13.4,13.4,0,0,0-3.385,5.235,32.265,32.265,0,0,0-2.663,12.382Z" transform="translate(-133.349 -29.36)"/>
      <path id="Path_2164" data-name="Path 2164" class="cls-1" d="M380.451,96.739a15.506,15.506,0,0,1-8.439-2.334,3.756,3.756,0,0,1-.721-.517c-1.446-1.369-2.919-2.714-4.308-4.157a11.652,11.652,0,0,1-3.008-6.633c-.594-3.86-.594-7.771-1.033-11.645A30.728,30.728,0,0,1,363,63.4c.238-1.592.062-3.225.181-4.843.178-2.417.632-4.8.917-7.195.508-4.225,2.735-7.69,4.98-11.1a17.518,17.518,0,0,1,4.751-4.8,3.946,3.946,0,0,1,1.5-.57,6.214,6.214,0,0,0,2.2-.891c1.47-.95,3.183-.793,4.867-.7a21.062,21.062,0,0,1,6.1,1.485c2.821,1.007,5.048,2.7,5.882,5.8.345,1.265,1.019,2.435,1.449,3.679a37.216,37.216,0,0,1,1.351,6.283c.2,1.217.428,2.435.594,3.661a8.633,8.633,0,0,1,.089,1.188,64.364,64.364,0,0,0,.629,9.009,24.932,24.932,0,0,1-.163,6.025,49.785,49.785,0,0,1-1.241,7.874A51.92,51.92,0,0,1,391.942,91a22.577,22.577,0,0,1-2.078,3.07,2.974,2.974,0,0,1-2.179,1.223,8.561,8.561,0,0,0-2.482.665A13.878,13.878,0,0,1,380.451,96.739ZM366.575,76.774c-.1,1.55.3,3.462.377,5.4a8.173,8.173,0,0,0,2.693,6.09c.763.677,1.485,1.407,2.191,2.147a12.119,12.119,0,0,0,8.768,3.631c2.459.1,4.683-.917,7.049-1.188a.683.683,0,0,0,.333-.214,9.028,9.028,0,0,0,1.591-1.82,48.506,48.506,0,0,0,3.127-6.188,45.371,45.371,0,0,0,2.75-10.847c.211-1.485.169-3.011.392-4.5a19.627,19.627,0,0,0,0-4.573c-.178-2.141-.65-4.243-.775-6.4a27.452,27.452,0,0,0-.279-4.184c-.2-.941-.368-1.894-.517-2.85a36.089,36.089,0,0,0-1.416-6.351c-.368-1.063-.959-2.078-1.22-3.15a6.241,6.241,0,0,0-4.311-4.49,15.064,15.064,0,0,0-5.158-1.188,5.751,5.751,0,0,0-2.417.333,29.273,29.273,0,0,1-3.358,1.152,3.834,3.834,0,0,0-1.909,1.134c-.641.724-1.292,1.443-1.918,2.182-.451.534-1.164.811-1.467,1.485-.956,2.111-1.978,4.2-2.824,6.348a29.549,29.549,0,0,0-1.336,6.708,111.983,111.983,0,0,0-.8,13.605C366.083,71.5,366.653,73.921,366.575,76.774Z" transform="translate(-255.005 -23.357)"/>
      <path id="Path_2165" data-name="Path 2165" class="cls-2" d="M9.745,86.986a46.062,46.062,0,0,0-.033-6.14,44.646,44.646,0,0,1,1.529-11.877c.929-3.2,2.016-6.4,4.166-9.038a14.006,14.006,0,0,1,3.073-3.067c1.244-.82,2.209-1.874,3.489-2.61A41.547,41.547,0,0,1,30.5,50.461a17.311,17.311,0,0,1,7.5-.57,16.052,16.052,0,0,1,5.888,2.524c1.161.671,1.577,2.022,2.263,3.1A10.616,10.616,0,0,1,47.446,58.3c1.036,3.72-.134,6.978-2.26,10.021-.909,1.3-2.194,1-3.432.935a13.5,13.5,0,0,1-1.583-.3,4.059,4.059,0,0,1-2.58-1.606c-2.405-3-5.585-3.4-9.181-2.031-3.756,1.422-5.716,4.424-7.126,7.91A29.253,29.253,0,0,0,19,86.24a11.93,11.93,0,0,0,3.174,7.738c1.416,1.485,3.141,1.544,5,1.283A11.568,11.568,0,0,0,33.561,91.9c1.9-1.782,4.228-1.963,6.654-1.571a3.525,3.525,0,0,1,2.393,1.88c2.078,3.373.891,6.895-1.4,9.564a29.894,29.894,0,0,1-4.926,4.751,15.329,15.329,0,0,1-3.287,1.514,12.594,12.594,0,0,1-7.9.481c-1.419-.321-2.9-.125-4.32-.463a11.375,11.375,0,0,1-5.939-3.516,27.17,27.17,0,0,1-3.337-4.454,13.389,13.389,0,0,1-1.722-6.235C9.647,91.57,9.745,89.29,9.745,86.986Z" transform="translate(-6.823 -34.946)"/>
      <path id="Path_2166" data-name="Path 2166" class="cls-2" d="M538.8,83.376c0-2.577.1-5.089-.021-7.6-.223-4.751-.558-9.5-.475-14.288a39.155,39.155,0,0,1,.695-7.456,20.591,20.591,0,0,1,1.9-5.974c.615-1.1.941-2.349,1.485-3.495a2.321,2.321,0,0,1,4.038-.627,2.374,2.374,0,0,1,.481.641,16.034,16.034,0,0,1,1.838,6.194c.039,1.823.644,3.608.46,5.458-.365,3.646-.434,7.3-.531,10.968a38.349,38.349,0,0,1-.84,4.917,13.282,13.282,0,0,0-.048,3.86c.377,3.228.828,6.443,1.232,9.668.3,2.233,1.719,3.329,3.72,3.973a16.819,16.819,0,0,0,6.764.5,43.66,43.66,0,0,1,10-.1,14.059,14.059,0,0,1,5.143,1.8c1.719,1.018,2.563,1.882,1.458,4.178s-2.993,3.266-5.315,3.744c-1.544.312-3.115.1-4.671.279a17.043,17.043,0,0,1-2.375.377c-1.345-.027-2.672-.217-4.017-.3-1.992-.122-3.979.169-5.971.2-.24,0-.481.068-.722.068-2.779.015-5.558.042-8.338.021a4.252,4.252,0,0,1-4.124-2.432,16.132,16.132,0,0,1-1.615-5.939C538.644,89.131,538.887,86.218,538.8,83.376ZM556.156,98.49c.018.478.246.769.742.754a.707.707,0,0,0,.763-.674.689.689,0,0,0-.816-.763c-.478.027-.728.2-.7.683Z" transform="translate(-378.452 -30.247)"/>
      <path id="Path_2167" data-name="Path 2167" class="cls-2" d="M201.163,73.114a32.167,32.167,0,0,1,2.672-12.376,13.3,13.3,0,0,1,3.4-5.244,46.863,46.863,0,0,1,4.941-4.026c1.983-1.271,4.234-1.936,6.6-.891a9.694,9.694,0,0,0,3.522.79,5.938,5.938,0,0,1,3.7,1.592,18,18,0,0,1,5.006,7.423c1.024,2.69,2.1,5.365,3.162,8.044a9.5,9.5,0,0,1,.543,2.922,45.136,45.136,0,0,1-1.247,14.882A64.777,64.777,0,0,1,229.389,98.2a13.913,13.913,0,0,1-4.273,4.855,10.477,10.477,0,0,1-5.113,2c-1.3.187-2.583.5-3.86.745a18.125,18.125,0,0,1-5.79-.024c-.532-.068-1.072-.1-1.594-.214-1.731-.38-2.723-1.675-3.6-3.052a15.271,15.271,0,0,1-2.013-6.743c-.407-3.688-.472-7.4-.915-11.087A84.089,84.089,0,0,1,201.163,73.114ZM226,76.5a13.4,13.4,0,0,0-.5-3.94,40,40,0,0,0-1.63-6.4,11.067,11.067,0,0,0-4.531-4.905,6.1,6.1,0,0,0-4.362-.632,6.562,6.562,0,0,0-5.642,4.454,43.123,43.123,0,0,0-1.357,7.934c-.1,1.58-.341,3.153-.425,4.733a18.864,18.864,0,0,0-.051,4.908,38.068,38.068,0,0,1,1.188,8.848c-.059,2.257.983,3.364,3.2,3.759a13.6,13.6,0,0,0,2.8.312,5.587,5.587,0,0,0,3.756-1.161,22.982,22.982,0,0,0,4.24-5.048,15.379,15.379,0,0,0,2.162-4.038A33.1,33.1,0,0,0,226,76.5Z" transform="translate(-141.428 -35.19)"/>
      <path id="Path_2168" data-name="Path 2168" class="cls-2" d="M374.7,83.547c.074-2.853-.493-5.276-.437-7.72a111.952,111.952,0,0,1,.8-13.605,29.556,29.556,0,0,1,1.336-6.708c.843-2.138,1.868-4.237,2.827-6.348.3-.668,1.016-.944,1.467-1.485.627-.739,1.277-1.458,1.918-2.182a3.833,3.833,0,0,1,1.909-1.134,29.282,29.282,0,0,0,3.358-1.152,5.751,5.751,0,0,1,2.417-.333,14.794,14.794,0,0,1,5.158,1.188,6.227,6.227,0,0,1,4.308,4.478c.261,1.084.852,2.078,1.22,3.15a36.089,36.089,0,0,1,1.416,6.351c.148.956.315,1.909.517,2.85a27.452,27.452,0,0,1,.279,4.184c.125,2.156.594,4.258.775,6.4a19.627,19.627,0,0,1,0,4.573c-.223,1.485-.181,3-.392,4.5a45.381,45.381,0,0,1-2.75,10.832,48.528,48.528,0,0,1-3.127,6.188,9.029,9.029,0,0,1-1.591,1.82.683.683,0,0,1-.333.214c-2.375.3-4.59,1.3-7.049,1.188a12.119,12.119,0,0,1-8.768-3.631c-.707-.739-1.428-1.47-2.191-2.147a8.168,8.168,0,0,1-2.693-6.09C375,87.009,374.593,85.1,374.7,83.547Zm21.379-13.362c0-1.164.056-2.3,0-3.427a17.859,17.859,0,0,0-.425-3.106,15.461,15.461,0,0,0-2.714-5.1,3.213,3.213,0,0,0-1.9-1.306,7.43,7.43,0,0,0-7.667,2.94A22.843,22.843,0,0,0,380.9,67.4a17.238,17.238,0,0,0,0,5.066c.249,3.382.828,6.651,2.791,9.552.65.962,1.5,1.782,2.058,2.779,1.2,2.162,5.683,2.105,6.978-.083a22.9,22.9,0,0,0,2.079-4.528,27.427,27.427,0,0,0,1.283-10Z" transform="translate(-263.127 -30.13)"/>
      <path id="Path_2169" data-name="Path 2169" class="cls-3" d="M598.416,228.162c-.024-.487.226-.656.689-.683a.689.689,0,0,1,.816.763.707.707,0,0,1-.763.674C598.663,228.931,598.434,228.64,598.416,228.162Z" transform="translate(-420.727 -159.92)"/>
      <path id="Path_2170" data-name="Path 2170" class="cls-1" d="M240.651,101.229a33.338,33.338,0,0,1-1.137,8.819,15.379,15.379,0,0,1-2.162,4.038,22.982,22.982,0,0,1-4.24,5.048,5.587,5.587,0,0,1-3.756,1.161,13.6,13.6,0,0,1-2.8-.312c-2.221-.395-3.266-1.5-3.2-3.759a38.006,38.006,0,0,0-1.188-8.848,18.86,18.86,0,0,1,.05-4.908c.083-1.58.321-3.153.425-4.733A43.128,43.128,0,0,1,224,89.8c.594-2.352,3.04-4.136,5.642-4.454a6.058,6.058,0,0,1,4.362.632c1.88,1.274,3.64,2.672,4.531,4.905a40.317,40.317,0,0,1,1.63,6.4A13.754,13.754,0,0,1,240.651,101.229Zm-11.4,15.906a2.924,2.924,0,0,0,2.628-.941,26.09,26.09,0,0,0,2.53-2.818,12.646,12.646,0,0,0,2.619-5.389,23.592,23.592,0,0,0,.187-8.658,45.593,45.593,0,0,0-1.244-4.751c-.855-3.026-2.417-5.345-5.7-6.129a1.978,1.978,0,0,0-1.868.347,4.109,4.109,0,0,0-1.648,2.512,46.655,46.655,0,0,0-.891,7.031c-.044,1.556-.318,3.1-.395,4.659a17.917,17.917,0,0,0,.027,4.9,36.144,36.144,0,0,1,1.024,6.767C226.586,117.126,226.553,117.126,229.255,117.135Z" transform="translate(-156.084 -59.915)"/>
      <path id="Path_2171" data-name="Path 2171" class="cls-1" d="M411.334,103.838a27.427,27.427,0,0,1-1.283,10,22.912,22.912,0,0,1-2.079,4.528c-1.295,2.188-5.775,2.245-6.978.083-.555-1-1.408-1.817-2.058-2.779-1.963-2.9-2.542-6.17-2.791-9.552a17.039,17.039,0,0,1,0-5.066,22.845,22.845,0,0,1,2.476-7.212,7.425,7.425,0,0,1,7.667-2.94,3.212,3.212,0,0,1,1.9,1.306,15.459,15.459,0,0,1,2.714,5.1,17.856,17.856,0,0,1,.425,3.106C411.4,101.539,411.334,102.686,411.334,103.838Zm-3.388.594v-3.058a10.941,10.941,0,0,0-2.182-6.948,1.313,1.313,0,0,0-.867-.653,4.252,4.252,0,0,0-4.216,2.274,20.64,20.64,0,0,0-1.6,11.83,18.451,18.451,0,0,0,4.041,9.187c.1.134.172.413.413.3.656-.339,1.449-.416,1.894-1.146a17.181,17.181,0,0,0,1.853-4.712,22.428,22.428,0,0,0,.665-7.082Z" transform="translate(-278.376 -63.782)"/>
      <path id="Path_2172" data-name="Path 2172" class="cls-1" d="M22.994,70.367c.059-2.2.3-4.783.151-7.37-.083-1.452-.184-2.9-.143-4.359a45.126,45.126,0,0,1,1.835-12.726,30.35,30.35,0,0,1,4.19-8.878,27.285,27.285,0,0,1,3.991-4.112,30.551,30.551,0,0,1,7.269-4.751A31.673,31.673,0,0,1,48.649,25.3a25.15,25.15,0,0,1,5.71,0c2.934.2,5.247,1.782,7.6,3.3a6.368,6.368,0,0,1,1.808,2.129,32.086,32.086,0,0,1,2.393,4.751,11.081,11.081,0,0,1,.567,6.188,14.962,14.962,0,0,1-3.085,6.936c-1.782,2.251-4.193,2.672-6.829,2.3a23.4,23.4,0,0,1-2.571-.214,4.68,4.68,0,0,1-3.014-2.254c-1.292-2.233-3.023-2.456-5.324-1.621-2.533.917-3.908,2.907-4.938,5.241a27.21,27.21,0,0,0-2.429,12.082,9.606,9.606,0,0,0,1.716,5.2,1.928,1.928,0,0,0,2.078.846,9.635,9.635,0,0,0,4.988-2.42,10.956,10.956,0,0,1,10.128-2.319,6.319,6.319,0,0,1,3.86,2.753c2.753,4.175,2.426,8.358-.137,12.447a22.89,22.89,0,0,1-7.251,7.583,16.185,16.185,0,0,1-8.216,2.6,17.127,17.127,0,0,1-4.8-.46c-1.586-.428-3.266-.208-4.87-.621A14.312,14.312,0,0,1,28.4,84.759a43.351,43.351,0,0,1-2.868-3.893C23.529,77.758,22.95,74.346,22.994,70.367ZM25.91,65.4c0,2.289-.1,4.585.03,6.868A13.408,13.408,0,0,0,27.662,78.5,27.424,27.424,0,0,0,31,82.957a11.372,11.372,0,0,0,5.939,3.513c1.425.338,2.9.145,4.32.463a12.62,12.62,0,0,0,7.9-.481,15.32,15.32,0,0,0,3.287-1.511,29.9,29.9,0,0,0,4.926-4.751c2.286-2.672,3.486-6.191,1.4-9.567a3.513,3.513,0,0,0-2.393-1.877c-2.426-.395-4.751-.22-6.654,1.568a11.62,11.62,0,0,1-6.384,3.361c-1.859.264-3.587.214-5-1.28a11.862,11.862,0,0,1-3.174-7.741,29.157,29.157,0,0,1,2.286-13.008c1.419-3.489,3.379-6.488,7.126-7.913,3.6-1.363,6.776-.983,9.181,2.025a4.077,4.077,0,0,0,2.58,1.609,14.193,14.193,0,0,0,1.586.3c1.235.068,2.521.359,3.429-.938,2.126-3.041,3.3-6.3,2.26-10.021a10.594,10.594,0,0,0-1.292-2.776c-.686-1.081-1.1-2.435-2.263-3.106A16.248,16.248,0,0,0,54.172,28.3a17.355,17.355,0,0,0-7.5.567,41.57,41.57,0,0,0-8.534,3.8c-1.277.73-2.277,1.805-3.486,2.6a14.388,14.388,0,0,0-3.07,3.067,24.857,24.857,0,0,0-4.166,9.021,44.708,44.708,0,0,0-1.529,11.877,47.381,47.381,0,0,1,.033,6.158Z" transform="translate(-16.162 -17.666)"/>
      <path id="Path_2173" data-name="Path 2173" class="cls-1" d="M567.93,34.613c-.178,2.845-.46,6.06-.552,9.285a68.12,68.12,0,0,1-1.013,8.293,13.141,13.141,0,0,0,.339,4.157c.431,2.464.683,4.947,1.042,7.423a1.455,1.455,0,0,0,1.259,1.333,14.1,14.1,0,0,0,5.08.362,51.3,51.3,0,0,1,10.238-.208,13.849,13.849,0,0,1,5.181,1.657c.514.3,1.107.434,1.615.73,1.891,1.111,3.587,2.4,4.065,4.751a6.686,6.686,0,0,1-.926,4.481c-1.707,3.332-4.587,4.926-8.156,5.5a10.987,10.987,0,0,1-1.767.175,14.545,14.545,0,0,0-3.771.3c-1.782.454-3.584-.03-5.366-.2a17.923,17.923,0,0,0-2.984-.059c-3.768.273-7.539.344-11.31.264a11.539,11.539,0,0,1-4.62-1.033,6.1,6.1,0,0,1-2.815-2.672,21.782,21.782,0,0,1-2.69-10.844c0-5.345.154-10.689-.056-16.034-.157-4.041-.386-8.079-.229-12.118a33.456,33.456,0,0,1,2.566-12.572c.947-2.1,1.811-4.243,2.913-6.277a4.771,4.771,0,0,1,6.978-1.1,13.81,13.81,0,0,1,2.3,2,8.928,8.928,0,0,1,1.627,3.64,15.049,15.049,0,0,1,.392,2.058C567.4,30.028,568.034,32.092,567.93,34.613Zm-13.76,27.676c.107,2.842-.137,5.751.157,8.661a16.117,16.117,0,0,0,1.615,5.939,4.259,4.259,0,0,0,4.124,2.429c2.779.021,5.559,0,8.338-.018.241,0,.481-.065.721-.068,1.992-.033,3.979-.324,5.971-.2,1.339.08,2.672.273,4.017.3a17.061,17.061,0,0,0,2.375-.374c1.556-.184,3.127.033,4.671-.3a6.874,6.874,0,0,0,5.315-3.741c1.1-2.274.261-3.162-1.458-4.178a14.065,14.065,0,0,0-5.143-1.805,44,44,0,0,0-10,.1,16.755,16.755,0,0,1-6.764-.5c-2-.641-3.438-1.737-3.72-3.973-.4-3.222-.855-6.44-1.232-9.665a13.406,13.406,0,0,1,.048-3.86,32.969,32.969,0,0,0,.811-4.926c.1-3.661.166-7.319.531-10.968.184-1.847-.422-3.631-.46-5.455a15.733,15.733,0,0,0-1.838-6.194,2.452,2.452,0,0,0-.481-.644,2.324,2.324,0,0,0-4.038.627c-.529,1.149-.855,2.4-1.485,3.495a20.556,20.556,0,0,0-1.9,5.974,38.944,38.944,0,0,0-.7,7.459c-.08,4.772.252,9.525.475,14.288C554.26,57.2,554.171,59.712,554.171,62.289Z" transform="translate(-386.998 -13.463)"/>
      <path id="Path_2174" data-name="Path 2174" class="cls-1" d="M252.7,53.693a52.581,52.581,0,0,1-2.949,18.561,69.882,69.882,0,0,1-2.767,7.491,15.387,15.387,0,0,1-4.029,4.956c-3.02,2.7-6.788,3.3-10.487,4.234a22.38,22.38,0,0,1-9.368-.1c-2.871-.484-4.6-2.6-6.072-4.944a17.488,17.488,0,0,1-2.334-8.056c-.27-3.242-.383-6.5-.671-9.739-.193-2.165-.573-4.314-.864-6.47a38.736,38.736,0,0,1,.811-16.067,29.161,29.161,0,0,1,4.593-9.522,9.64,9.64,0,0,1,2.194-1.888c1.381-1.027,2.767-2.052,4.157-3.049A10.982,10.982,0,0,1,233,27.433c1.547.2,3.088.475,4.638.573a8.958,8.958,0,0,1,5.582,2.438,22.726,22.726,0,0,1,5.606,8.566c1.03,2.518,1.963,5.069,2.9,7.619A19.751,19.751,0,0,1,252.7,53.693Zm-36.6-.891a91.345,91.345,0,0,0,1.048,11.58c.442,3.688.508,7.4.915,11.087a15.282,15.282,0,0,0,2.013,6.743c.873,1.375,1.865,2.672,3.6,3.049.523.116,1.063.148,1.594.217a18.125,18.125,0,0,0,5.79.021c1.292-.249,2.574-.558,3.878-.745a10.52,10.52,0,0,0,5.11-2,14,14,0,0,0,4.273-4.855A65.074,65.074,0,0,0,248.4,65.923a45.141,45.141,0,0,0,1.247-14.882,9.434,9.434,0,0,0-.543-2.925c-1.066-2.672-2.138-5.345-3.162-8.044a18.147,18.147,0,0,0-5.006-7.423,5.909,5.909,0,0,0-3.7-1.583,9.7,9.7,0,0,1-3.521-.79c-2.375-1.051-4.617-.383-6.6.891a46.08,46.08,0,0,0-4.938,4.023,13.452,13.452,0,0,0-3.4,5.247,32.122,32.122,0,0,0-2.663,12.367Z" transform="translate(-149.536 -19.184)"/>
      <path id="Path_2175" data-name="Path 2175" class="cls-1" d="M403.471,82.279a15.456,15.456,0,0,1-8.439-2.334,3.748,3.748,0,0,1-.722-.514c-1.446-1.372-2.919-2.717-4.308-4.142a11.669,11.669,0,0,1-3.008-6.633c-.594-3.86-.594-7.771-1.033-11.645a30.748,30.748,0,0,1,.059-8.056c.237-1.589.062-3.225.181-4.84.178-2.42.632-4.8.92-7.195.5-4.228,2.732-7.693,4.976-11.1a17.519,17.519,0,0,1,4.751-4.8,4,4,0,0,1,1.5-.57,6.084,6.084,0,0,0,2.2-.891c1.485-.947,3.183-.79,4.867-.7a21.159,21.159,0,0,1,6.1,1.485c2.824,1.007,5.033,2.7,5.882,5.808.344,1.262,1.018,2.432,1.449,3.676a37.632,37.632,0,0,1,1.351,6.286c.2,1.217.431,2.432.594,3.658a8.689,8.689,0,0,1,.089,1.206,64.388,64.388,0,0,0,.629,9.009A24.8,24.8,0,0,1,421.34,56a49.688,49.688,0,0,1-1.241,7.872,51.826,51.826,0,0,1-5.137,12.691,22.606,22.606,0,0,1-2.078,3.073,2.971,2.971,0,0,1-2.179,1.22,8.567,8.567,0,0,0-2.482.668A13.8,13.8,0,0,1,403.471,82.279ZM389.6,62.314c-.1,1.55.3,3.465.377,5.4a8.173,8.173,0,0,0,2.693,6.09c.763.68,1.485,1.41,2.191,2.15a12.094,12.094,0,0,0,8.768,3.631c2.462.1,4.683-.918,7.049-1.206a.684.684,0,0,0,.333-.214A8.936,8.936,0,0,0,412.6,76.35a48.7,48.7,0,0,0,3.127-6.188,45.41,45.41,0,0,0,2.744-10.832c.211-1.485.169-3.011.392-4.5a19.652,19.652,0,0,0,0-4.576c-.178-2.141-.65-4.24-.775-6.4a27.392,27.392,0,0,0-.279-4.181c-.2-.944-.368-1.894-.517-2.85a36.224,36.224,0,0,0-1.413-6.351c-.371-1.066-.962-2.078-1.223-3.153a6.246,6.246,0,0,0-4.311-4.49,15.2,15.2,0,0,0-5.158-1.188,5.752,5.752,0,0,0-2.417.333,29.857,29.857,0,0,1-3.358,1.152,3.81,3.81,0,0,0-1.909,1.134c-.641.724-1.292,1.443-1.918,2.182-.451.534-1.164.808-1.467,1.485-.956,2.111-1.977,4.193-2.824,6.345a29.555,29.555,0,0,0-1.336,6.711,111.9,111.9,0,0,0-.8,13.6C389.1,57.041,389.667,59.464,389.6,62.314Z" transform="translate(-271.19 -13.202)"/>
      <path id="Path_2176" data-name="Path 2176" class="cls-4" d="M32.762,72.493a46.014,46.014,0,0,0-.033-6.137,44.646,44.646,0,0,1,1.529-11.877,24.859,24.859,0,0,1,4.157-9.03,14.07,14.07,0,0,1,3.073-3.067c1.244-.822,2.218-1.88,3.492-2.616a41.57,41.57,0,0,1,8.537-3.8,17.355,17.355,0,0,1,7.5-.567A16.1,16.1,0,0,1,66.9,37.922c1.161.671,1.577,2.025,2.263,3.106A10.594,10.594,0,0,1,70.456,43.8c1.036,3.723-.134,6.981-2.26,10.021-.909,1.3-2.194,1.007-3.429.938a14.193,14.193,0,0,1-1.586-.3,4.077,4.077,0,0,1-2.58-1.609c-2.405-3.008-5.585-3.388-9.181-2.025-3.753,1.425-5.713,4.424-7.126,7.913a29.149,29.149,0,0,0-2.283,13,11.937,11.937,0,0,0,3.174,7.741c1.416,1.485,3.144,1.544,5,1.28a11.57,11.57,0,0,0,6.384-3.361c1.9-1.782,4.228-1.963,6.654-1.568a3.513,3.513,0,0,1,2.393,1.877c2.078,3.376.891,6.895-1.4,9.567a29.9,29.9,0,0,1-4.926,4.751,15.32,15.32,0,0,1-3.287,1.511,12.553,12.553,0,0,1-7.9.481c-1.419-.318-2.9-.125-4.32-.463a11.372,11.372,0,0,1-5.939-3.513A27.424,27.424,0,0,1,34.508,85.6a13.408,13.408,0,0,1-1.722-6.235C32.664,77.078,32.762,74.783,32.762,72.493Z" transform="translate(-23.005 -24.759)"/>
      <path id="Path_2177" data-name="Path 2177" class="cls-4" d="M561.8,68.882c0-2.577.1-5.092-.021-7.6-.223-4.751-.555-9.5-.475-14.288a38.959,38.959,0,0,1,.7-7.459,20.556,20.556,0,0,1,1.9-5.974c.615-1.093.941-2.346,1.485-3.495a2.323,2.323,0,0,1,4.038-.627,2.452,2.452,0,0,1,.481.644,16.034,16.034,0,0,1,1.838,6.194c.039,1.823.644,3.608.46,5.455-.365,3.649-.433,7.307-.531,10.968a34.469,34.469,0,0,1-.81,4.926,13.411,13.411,0,0,0-.048,3.86c.377,3.225.828,6.443,1.232,9.665.3,2.236,1.719,3.332,3.721,3.973a16.765,16.765,0,0,0,6.764.5,43.659,43.659,0,0,1,10-.1,14.066,14.066,0,0,1,5.143,1.805c1.719,1.015,2.562,1.883,1.458,4.178s-2.993,3.266-5.315,3.741c-1.544.315-3.115.1-4.671.3a17.487,17.487,0,0,1-2.376.374c-1.345-.024-2.672-.217-4.017-.3-1.992-.119-3.979.172-5.971.2-.241,0-.481.065-.721.068-2.779,0-5.558.039-8.338.018a4.254,4.254,0,0,1-4.124-2.429,16.148,16.148,0,0,1-1.615-5.939C561.651,74.634,561.895,71.727,561.8,68.882ZM579.158,84c.018.475.246.769.742.751a.7.7,0,0,0,.763-.674.686.686,0,0,0-.816-.76c-.472.027-.721.193-.7.683Z" transform="translate(-394.625 -20.056)"/>
      <path id="Path_2178" data-name="Path 2178" class="cls-4" d="M224.186,58.621a32.155,32.155,0,0,1,2.672-12.376,13.315,13.315,0,0,1,3.4-5.247,46.066,46.066,0,0,1,4.938-4.023c1.983-1.271,4.234-1.939,6.6-.891a9.694,9.694,0,0,0,3.513.8,5.909,5.909,0,0,1,3.7,1.592,17.983,17.983,0,0,1,5.006,7.423c1.024,2.693,2.1,5.368,3.162,8.044a9.433,9.433,0,0,1,.543,2.925,45.141,45.141,0,0,1-1.247,14.882A64.853,64.853,0,0,1,252.4,83.723a13.914,13.914,0,0,1-4.273,4.855,10.434,10.434,0,0,1-5.11,2c-1.3.187-2.586.5-3.878.745a18.124,18.124,0,0,1-5.79-.021c-.531-.068-1.072-.1-1.594-.217-1.731-.377-2.723-1.675-3.6-3.049a15.282,15.282,0,0,1-2.013-6.743c-.407-3.688-.472-7.4-.915-11.087A90.41,90.41,0,0,1,224.186,58.621Zm24.832,3.388a13.419,13.419,0,0,0-.5-3.94,40.159,40.159,0,0,0-1.63-6.4c-.891-2.23-2.652-3.628-4.531-4.905A6.1,6.1,0,0,0,238,46.135a6.611,6.611,0,0,0-5.642,4.454A43.214,43.214,0,0,0,231,58.523c-.1,1.583-.341,3.153-.425,4.751a18.837,18.837,0,0,0-.05,4.905,38.091,38.091,0,0,1,1.188,8.851c-.059,2.257.983,3.364,3.2,3.759a13.6,13.6,0,0,0,2.8.3,5.618,5.618,0,0,0,3.756-1.161,22.832,22.832,0,0,0,4.24-5.048,15.361,15.361,0,0,0,2.162-4.035A33.177,33.177,0,0,0,249.018,62.009Z" transform="translate(-157.615 -25)"/>
      <path id="Path_2179" data-name="Path 2179" class="cls-4" d="M397.717,69.054c.074-2.85-.493-5.273-.436-7.72a111.856,111.856,0,0,1,.8-13.6,29.584,29.584,0,0,1,1.336-6.711c.843-2.141,1.868-4.234,2.821-6.345.3-.671,1.016-.944,1.467-1.485.626-.739,1.277-1.458,1.918-2.182a3.81,3.81,0,0,1,1.909-1.134,29.857,29.857,0,0,0,3.358-1.152,5.752,5.752,0,0,1,2.417-.333,14.793,14.793,0,0,1,5.157,1.188,6.251,6.251,0,0,1,4.311,4.49c.261,1.087.852,2.078,1.223,3.153a36.22,36.22,0,0,1,1.413,6.351c.148.956.315,1.906.517,2.85a27.419,27.419,0,0,1,.279,4.181c.125,2.159.594,4.258.775,6.4a19.652,19.652,0,0,1,0,4.576c-.223,1.485-.181,3-.392,4.5a45.409,45.409,0,0,1-2.75,10.832,48.686,48.686,0,0,1-3.127,6.188,8.93,8.93,0,0,1-1.591,1.817.683.683,0,0,1-.333.214c-2.375.3-4.588,1.3-7.049,1.206a12.119,12.119,0,0,1-8.768-3.631c-.707-.739-1.428-1.47-2.191-2.15a8.163,8.163,0,0,1-2.693-6.09C398.023,72.519,397.613,70.6,397.717,69.054ZM419.1,55.692c0-1.161.056-2.3-.015-3.427a17.913,17.913,0,0,0-.425-3.106,15.445,15.445,0,0,0-2.714-5.1,3.2,3.2,0,0,0-1.9-1.306,7.43,7.43,0,0,0-7.667,2.94,22.848,22.848,0,0,0-2.476,7.212,17.24,17.24,0,0,0,0,5.066c.249,3.379.828,6.651,2.791,9.549.65.962,1.5,1.782,2.058,2.779,1.2,2.162,5.683,2.108,6.981-.08a23.012,23.012,0,0,0,2.078-4.531,27.354,27.354,0,0,0,1.294-10Z" transform="translate(-279.312 -19.942)"/>
      <path id="Path_2180" data-name="Path 2180" class="cls-3" d="M621.436,213.671c-.024-.49.226-.656.689-.683a.686.686,0,0,1,.817.76.7.7,0,0,1-.763.674C621.683,214.44,621.454,214.146,621.436,213.671Z" transform="translate(-436.912 -149.73)"/>
      <path id="Path_2181" data-name="Path 2181" class="cls-1" d="M263.671,86.724a33.364,33.364,0,0,1-1.137,8.822,15.365,15.365,0,0,1-2.162,4.035,22.833,22.833,0,0,1-4.24,5.048,5.619,5.619,0,0,1-3.756,1.161,13.6,13.6,0,0,1-2.8-.3c-2.221-.395-3.266-1.5-3.2-3.759a38.05,38.05,0,0,0-1.188-8.851,18.841,18.841,0,0,1,.05-4.905c.083-1.583.321-3.153.425-4.751a43.216,43.216,0,0,1,1.357-7.934c.594-2.349,3.041-4.133,5.642-4.454a6.074,6.074,0,0,1,4.362.632c1.879,1.277,3.64,2.672,4.531,4.905a40.4,40.4,0,0,1,1.63,6.4A13.817,13.817,0,0,1,263.671,86.724Zm-11.4,15.909a2.926,2.926,0,0,0,2.628-.944,25.785,25.785,0,0,0,2.53-2.815,12.647,12.647,0,0,0,2.619-5.389,23.607,23.607,0,0,0,.187-8.661,45.786,45.786,0,0,0-1.244-4.751c-.852-3.029-2.417-5.345-5.7-6.132a1.978,1.978,0,0,0-1.868.35,4.109,4.109,0,0,0-1.654,2.5,46.983,46.983,0,0,0-.891,7.031c-.047,1.556-.321,3.1-.4,4.659a17.918,17.918,0,0,0,.027,4.9,36.1,36.1,0,0,1,1.024,6.767C249.606,102.621,249.573,102.624,252.275,102.633Z" transform="translate(-172.269 -49.715)"/>
      <path id="Path_2182" data-name="Path 2182" class="cls-1" d="M434.347,89.342a27.352,27.352,0,0,1-1.283,10,23.006,23.006,0,0,1-2.078,4.531c-1.3,2.188-5.778,2.242-6.981.08-.555-.995-1.407-1.817-2.058-2.779-1.963-2.9-2.542-6.17-2.791-9.549a17.038,17.038,0,0,1,0-5.066,22.847,22.847,0,0,1,2.476-7.212A7.42,7.42,0,0,1,429.3,76.4a3.2,3.2,0,0,1,1.9,1.307,15.446,15.446,0,0,1,2.714,5.1,17.923,17.923,0,0,1,.425,3.106C434.409,87.044,434.347,88.181,434.347,89.342Zm-3.388.594V86.88a10.93,10.93,0,0,0-2.182-6.948,1.326,1.326,0,0,0-.867-.656,4.258,4.258,0,0,0-4.216,2.277,20.629,20.629,0,0,0-1.6,11.827,18.567,18.567,0,0,0,4.041,9.2c.1.134.172.413.413.3.656-.336,1.449-.413,1.894-1.143a17.181,17.181,0,0,0,1.853-4.712,22.438,22.438,0,0,0,.665-7.1Z" transform="translate(-294.554 -53.592)"/>
      <path id="Path_2183" data-name="Path 2183" class="cls-1" d="M51.812,51.522c.062-2.2.3-4.783.151-7.37-.083-1.452-.181-2.9-.143-4.359a45.127,45.127,0,0,1,1.835-12.726,30.461,30.461,0,0,1,4.19-8.878,27.43,27.43,0,0,1,3.982-4.112,30.732,30.732,0,0,1,7.26-4.766,31.656,31.656,0,0,1,8.364-2.868,25.15,25.15,0,0,1,5.71,0c2.931.2,5.247,1.782,7.6,3.3a6.283,6.283,0,0,1,1.808,2.132,32.066,32.066,0,0,1,2.4,4.751,11.115,11.115,0,0,1,.564,6.191,14.962,14.962,0,0,1-3.082,6.933c-1.782,2.251-4.2,2.672-6.829,2.3a23.339,23.339,0,0,1-2.568-.214,4.685,4.685,0,0,1-3.017-2.254c-1.292-2.233-3.023-2.453-5.324-1.621-2.533.918-3.908,2.907-4.938,5.241a27.217,27.217,0,0,0-2.426,12.082,9.588,9.588,0,0,0,1.713,5.2,1.934,1.934,0,0,0,2.078.846,9.66,9.66,0,0,0,4.985-2.42,10.966,10.966,0,0,1,10.128-2.322,6.313,6.313,0,0,1,3.86,2.755c2.753,4.175,2.426,8.358-.137,12.444a22.879,22.879,0,0,1-7.224,7.578,16.2,16.2,0,0,1-8.213,2.6,17.15,17.15,0,0,1-4.807-.463c-1.586-.425-3.266-.208-4.87-.621a14.323,14.323,0,0,1-7.625-4.982,43.311,43.311,0,0,1-2.88-3.878C52.338,58.912,51.759,55.5,51.812,51.522Zm2.916-4.968c0,2.289-.1,4.585.03,6.868a13.4,13.4,0,0,0,1.725,6.235,27.151,27.151,0,0,0,3.334,4.454,11.372,11.372,0,0,0,5.939,3.513c1.425.338,2.9.145,4.323.463a12.631,12.631,0,0,0,7.9-.478A15.477,15.477,0,0,0,81.264,66.1a30.038,30.038,0,0,0,4.929-4.751c2.283-2.672,3.483-6.191,1.4-9.567A3.528,3.528,0,0,0,85.216,49.9c-2.429-.392-4.751-.22-6.657,1.571a11.589,11.589,0,0,1-6.384,3.361c-1.859.261-3.587.211-5-1.283A11.913,11.913,0,0,1,64,45.809,29.2,29.2,0,0,1,66.284,32.8c1.419-3.489,3.379-6.488,7.126-7.913,3.6-1.363,6.776-.98,9.181,2.025a4.059,4.059,0,0,0,2.583,1.609,14.017,14.017,0,0,0,1.583.3c1.235.068,2.521.362,3.429-.935,2.129-3.043,3.3-6.3,2.26-10.021A10.616,10.616,0,0,0,91.137,15.1c-.686-1.081-1.1-2.435-2.263-3.1a15.869,15.869,0,0,0-5.885-2.539,17.326,17.326,0,0,0-7.5.57,41.689,41.689,0,0,0-8.537,3.8c-1.274.73-2.277,1.808-3.486,2.6A14.2,14.2,0,0,0,60.39,19.5a24.616,24.616,0,0,0-4.157,9.03A44.709,44.709,0,0,0,54.7,40.405a48.845,48.845,0,0,1,.024,6.149Z" transform="translate(-36.422 -4.406)"/>
      <path id="Path_2184" data-name="Path 2184" class="cls-1" d="M596.773,15.8c-.175,2.845-.46,6.063-.552,9.285a68.108,68.108,0,0,1-1.012,8.293,13.045,13.045,0,0,0,.341,4.157c.427,2.462.68,4.944,1.039,7.423a1.458,1.458,0,0,0,1.259,1.333,14.111,14.111,0,0,0,5.083.362,51.278,51.278,0,0,1,10.235-.208,13.956,13.956,0,0,1,5.187,1.666c.517.3,1.107.434,1.615.733,1.891,1.11,3.587,2.4,4.065,4.751a6.651,6.651,0,0,1-.926,4.481c-1.707,3.332-4.588,4.926-8.156,5.5a10.629,10.629,0,0,1-1.764.175,14.569,14.569,0,0,0-3.774.3c-1.782.457-3.584-.03-5.366-.2a17.925,17.925,0,0,0-2.969-.059c-3.768.273-7.539.347-11.31.264a11.527,11.527,0,0,1-4.617-1.033,6.1,6.1,0,0,1-2.818-2.672,21.8,21.8,0,0,1-2.69-10.841c.015-5.345.157-10.689-.053-16.034-.16-4.041-.389-8.079-.229-12.118a33.425,33.425,0,0,1,2.562-12.569c.947-2.1,1.811-4.246,2.916-6.28A4.745,4.745,0,0,1,591.8,1.39a13.711,13.711,0,0,1,2.3,2,8.853,8.853,0,0,1,1.621,3.646,14.871,14.871,0,0,1,.395,2.055C596.241,11.227,596.877,13.282,596.773,15.8ZM583.007,43.476c.1,2.842-.14,5.754.157,8.661a16.005,16.005,0,0,0,1.615,5.939,4.262,4.262,0,0,0,4.121,2.432c2.779.018,5.558,0,8.341-.021.241,0,.478-.065.719-.068,1.992-.033,3.979-.324,5.971-.2,1.339.08,2.672.273,4.017.3a16.991,16.991,0,0,0,2.375-.377c1.553-.184,3.124.033,4.668-.279a6.9,6.9,0,0,0,5.315-3.744c1.1-2.26.261-3.162-1.458-4.178a14.006,14.006,0,0,0-5.143-1.8,43.8,43.8,0,0,0-10,.092,16.818,16.818,0,0,1-6.767-.5c-2-.644-3.438-1.74-3.72-3.973-.4-3.225-.855-6.44-1.229-9.668a13.421,13.421,0,0,1,.044-3.86,32.945,32.945,0,0,0,.811-4.926c.1-3.661.169-7.319.531-10.965.184-1.85-.422-3.634-.46-5.457a15.705,15.705,0,0,0-1.826-6.182,2.371,2.371,0,0,0-.478-.641,2.325,2.325,0,0,0-4.041.624c-.529,1.137-.855,2.393-1.47,3.483a20.633,20.633,0,0,0-1.9,5.977,39.147,39.147,0,0,0-.7,7.456c-.08,4.778.27,9.528.478,14.279C583.1,38.384,583.007,40.9,583.007,43.476Z" transform="translate(-407.292 -0.235)"/>
      <path id="Path_2185" data-name="Path 2185" class="cls-1" d="M281.5,34.872a52.629,52.629,0,0,1-2.952,18.561,69.853,69.853,0,0,1-2.764,7.491,15.4,15.4,0,0,1-4.029,4.956c-3.023,2.7-6.791,3.3-10.487,4.234a22.428,22.428,0,0,1-9.368-.1c-2.874-.487-4.605-2.6-6.075-4.947a17.524,17.524,0,0,1-2.334-8.056c-.27-3.242-.383-6.5-.671-9.739-.193-2.165-.573-4.314-.864-6.47a38.822,38.822,0,0,1,.8-16.064,29.175,29.175,0,0,1,4.6-9.531,9.639,9.639,0,0,1,2.194-1.888c1.384-1.027,2.767-2.052,4.172-3.049a10.964,10.964,0,0,1,8.085-1.663c1.544.2,3.085.472,4.638.57a8.967,8.967,0,0,1,5.579,2.438,22.841,22.841,0,0,1,5.606,8.566c1.033,2.518,1.963,5.072,2.9,7.619A20,20,0,0,1,281.5,34.872ZM244.9,33.984a91.411,91.411,0,0,0,1.048,11.565c.442,3.688.511,7.4.915,11.087a15.321,15.321,0,0,0,2.013,6.743c.876,1.378,1.868,2.672,3.6,3.052.523.113,1.063.146,1.595.214a18.124,18.124,0,0,0,5.79.021c1.292-.249,2.577-.555,3.878-.742a10.6,10.6,0,0,0,5.11-2,14,14,0,0,0,4.273-4.855A65,65,0,0,0,277.2,47.09a45.133,45.133,0,0,0,1.247-14.882,9.364,9.364,0,0,0-.543-2.925c-1.063-2.672-2.135-5.345-3.162-8.044a18,18,0,0,0-5.006-7.408,5.938,5.938,0,0,0-3.7-1.592,9.694,9.694,0,0,1-3.522-.79c-2.375-1.051-4.617-.383-6.6.891a46.483,46.483,0,0,0-4.938,4.026,13.268,13.268,0,0,0-3.394,5.241A32.046,32.046,0,0,0,244.9,33.984Z" transform="translate(-169.777 -5.948)"/>
      <path id="Path_2186" data-name="Path 2186" class="cls-1" d="M432.268,63.474a15.492,15.492,0,0,1-8.439-2.334,3.674,3.674,0,0,1-.721-.517c-1.446-1.372-2.922-2.714-4.311-4.142a11.638,11.638,0,0,1-3-6.633c-.594-3.86-.594-7.771-1.033-11.645a30.6,30.6,0,0,1,.059-8.053c.234-1.592.059-3.225.178-4.843.178-2.42.632-4.8.92-7.195.5-4.228,2.732-7.69,4.977-11.1a17.588,17.588,0,0,1,4.757-4.8,3.973,3.973,0,0,1,1.485-.573,6.084,6.084,0,0,0,2.2-.891c1.484-.947,3.186-.79,4.867-.7a21.482,21.482,0,0,1,6.1,1.47c2.824,1.01,5.048,2.7,5.882,5.808.344,1.262,1.018,2.432,1.449,3.676a37.336,37.336,0,0,1,1.351,6.286c.2,1.217.431,2.435.594,3.658a8.669,8.669,0,0,1,.086,1.206,64.342,64.342,0,0,0,.638,9.012,24.775,24.775,0,0,1-.163,6.025,49.44,49.44,0,0,1-1.241,7.874,51.727,51.727,0,0,1-5.137,12.688,22.572,22.572,0,0,1-2.078,3.073,3,3,0,0,1-2.179,1.22,8.611,8.611,0,0,0-2.485.668A13.873,13.873,0,0,1,432.268,63.474ZM418.39,43.509c-.1,1.547.3,3.462.377,5.4a8.166,8.166,0,0,0,2.7,6.09c.763.68,1.485,1.41,2.188,2.15a12.119,12.119,0,0,0,8.768,3.631c2.461.1,4.682-.917,7.049-1.2a.692.692,0,0,0,.333-.214,9.029,9.029,0,0,0,1.591-1.82,48.746,48.746,0,0,0,3.13-6.188,45.618,45.618,0,0,0,2.75-10.832c.208-1.485.166-3.011.389-4.5a19.461,19.461,0,0,0,0-4.573c-.181-2.141-.653-4.243-.778-6.4a27.039,27.039,0,0,0-.276-4.184c-.2-.944-.371-1.894-.52-2.85a36.346,36.346,0,0,0-1.413-6.351c-.371-1.063-.959-2.078-1.223-3.15a6.241,6.241,0,0,0-4.311-4.49,15.047,15.047,0,0,0-5.158-1.188,5.757,5.757,0,0,0-2.417.333,28.9,28.9,0,0,1-3.358,1.152A3.81,3.81,0,0,0,426.3,5.461c-.644.724-1.295,1.443-1.921,2.182-.451.534-1.164.808-1.467,1.485-.953,2.111-1.978,4.2-2.824,6.348a29.561,29.561,0,0,0-1.336,6.708,111.989,111.989,0,0,0-.8,13.605C417.9,38.233,418.467,40.664,418.39,43.509Z" transform="translate(-291.436 0.021)"/>
      <path id="Path_2187" data-name="Path 2187" class="cls-5" d="M61.545,53.685a46.016,46.016,0,0,0-.033-6.137A44.768,44.768,0,0,1,63.041,35.67a24.909,24.909,0,0,1,4.157-9.03,14.136,14.136,0,0,1,3.073-3.067c1.244-.822,2.212-1.874,3.486-2.6a41.688,41.688,0,0,1,8.537-3.795,17.326,17.326,0,0,1,7.512-.585,16.038,16.038,0,0,1,5.885,2.524c1.161.668,1.577,2.022,2.263,3.1A10.615,10.615,0,0,1,99.245,25c1.036,3.72-.131,6.978-2.26,10.021-.909,1.3-2.194,1-3.43.935a14.016,14.016,0,0,1-1.583-.3,4.059,4.059,0,0,1-2.583-1.609c-2.405-3-5.585-3.388-9.181-2.025-3.753,1.425-5.713,4.424-7.126,7.913A29.14,29.14,0,0,0,70.8,52.943a11.913,11.913,0,0,0,3.171,7.741c1.416,1.485,3.144,1.544,5,1.283a11.589,11.589,0,0,0,6.384-3.361c1.9-1.782,4.228-1.963,6.657-1.571a3.465,3.465,0,0,1,2.375,1.877c2.078,3.376.891,6.9-1.4,9.567a30.036,30.036,0,0,1-4.929,4.751,15.475,15.475,0,0,1-3.287,1.514,12.564,12.564,0,0,1-7.9.478c-1.422-.318-2.9-.125-4.323-.463a11.372,11.372,0,0,1-5.939-3.513,27.149,27.149,0,0,1-3.334-4.454,13.4,13.4,0,0,1-1.725-6.235C61.447,58.27,61.545,55.974,61.545,53.685Z" transform="translate(-43.239 -11.536)"/>
      <path id="Path_2188" data-name="Path 2188" class="cls-5" d="M590.56,50.074c0-2.577.095-5.092-.021-7.6-.223-4.751-.558-9.5-.478-14.288a39.161,39.161,0,0,1,.7-7.456,20.638,20.638,0,0,1,1.9-5.977c.615-1.093.941-2.346,1.47-3.495a2.324,2.324,0,0,1,4.041-.624,2.377,2.377,0,0,1,.478.653,16.033,16.033,0,0,1,1.838,6.194c.039,1.823.644,3.608.46,5.457-.362,3.646-.434,7.3-.531,10.965a34.444,34.444,0,0,1-.811,4.926,13.415,13.415,0,0,0-.045,3.86c.374,3.228.826,6.443,1.229,9.668.282,2.233,1.719,3.329,3.72,3.973a16.829,16.829,0,0,0,6.767.5,43.463,43.463,0,0,1,10-.092,14.006,14.006,0,0,1,5.143,1.8c1.719,1.015,2.562,1.883,1.458,4.178s-2.99,3.266-5.315,3.744c-1.544.3-3.115.1-4.668.279a17.566,17.566,0,0,1-2.375.377c-1.345-.027-2.672-.22-4.017-.3-1.992-.119-3.979.172-5.971.2-.24,0-.478.068-.719.068-2.782,0-5.561.039-8.341.021a4.276,4.276,0,0,1-4.121-2.432,16.036,16.036,0,0,1-1.615-5.939C590.421,55.831,590.664,52.915,590.56,50.074Zm17.361,15.114a.664.664,0,0,0,.739.754.706.706,0,0,0,.763-.674.689.689,0,0,0-.816-.763c-.46.027-.713.193-.686.683Z" transform="translate(-414.845 -6.832)"/>
      <path id="Path_2189" data-name="Path 2189" class="cls-5" d="M253,39.811a32.155,32.155,0,0,1,2.672-12.376,13.305,13.305,0,0,1,3.4-5.244,48.119,48.119,0,0,1,4.911-4.026c1.983-1.271,4.234-1.939,6.6-.891a9.694,9.694,0,0,0,3.522.79,5.938,5.938,0,0,1,3.7,1.592,18,18,0,0,1,5.006,7.408c1.027,2.693,2.1,5.368,3.162,8.044a9.358,9.358,0,0,1,.543,2.925,45.132,45.132,0,0,1-1.247,14.882A64.13,64.13,0,0,1,281.2,64.892a13.915,13.915,0,0,1-4.273,4.855,10.455,10.455,0,0,1-5.11,2c-1.3.187-2.586.493-3.878.742a18.124,18.124,0,0,1-5.79-.021c-.531-.068-1.072-.1-1.594-.214-1.728-.38-2.72-1.675-3.6-3.052a15.321,15.321,0,0,1-2.013-6.743c-.4-3.688-.472-7.4-.915-11.087A91.849,91.849,0,0,1,253,39.811ZM277.827,43.2a13.2,13.2,0,0,0-.5-3.94,40.384,40.384,0,0,0-1.636-6.4,11.045,11.045,0,0,0-4.528-4.905,6.13,6.13,0,0,0-4.365-.635,6.615,6.615,0,0,0-5.642,4.454,43.143,43.143,0,0,0-1.333,7.931c-.1,1.583-.341,3.156-.422,4.751a18.6,18.6,0,0,0-.05,4.908,38.074,38.074,0,0,1,1.188,8.848c-.059,2.257.983,3.364,3.207,3.759a13.57,13.57,0,0,0,2.8.3,5.615,5.615,0,0,0,3.759-1.161,22.9,22.9,0,0,0,4.237-5.048,15.457,15.457,0,0,0,2.165-4.035,34.329,34.329,0,0,0,1.116-8.825Z" transform="translate(-177.87 -11.775)"/>
      <path id="Path_2190" data-name="Path 2190" class="cls-5" d="M426.507,50.247c.077-2.853-.493-5.276-.436-7.72a111.977,111.977,0,0,1,.8-13.605,29.527,29.527,0,0,1,1.336-6.708c.843-2.138,1.871-4.237,2.824-6.348.3-.671,1.015-.944,1.467-1.485.626-.739,1.277-1.458,1.921-2.182a3.81,3.81,0,0,1,1.906-1.134,28.894,28.894,0,0,0,3.358-1.152A5.757,5.757,0,0,1,442.1,9.58a14.778,14.778,0,0,1,5.158,1.188,6.29,6.29,0,0,1,4.32,4.49c.264,1.084.852,2.078,1.223,3.15a36.34,36.34,0,0,1,1.413,6.351c.148.956.315,1.906.52,2.85a27.039,27.039,0,0,1,.276,4.184c.125,2.156.594,4.258.778,6.4a19.468,19.468,0,0,1,0,4.573c-.223,1.485-.181,3-.389,4.5a45.544,45.544,0,0,1-2.75,10.832,48.721,48.721,0,0,1-3.15,6.188,9.027,9.027,0,0,1-1.592,1.82.692.692,0,0,1-.333.214c-2.375.3-4.587,1.3-7.049,1.2a12.118,12.118,0,0,1-8.768-3.631c-.707-.739-1.425-1.47-2.188-2.15a8.156,8.156,0,0,1-2.7-6.09C426.813,53.709,426.4,51.794,426.507,50.247Zm21.379-13.362c0-1.161.056-2.3-.015-3.427a17.864,17.864,0,0,0-.425-3.1,15.478,15.478,0,0,0-2.711-5.1,3.216,3.216,0,0,0-1.9-1.306,7.428,7.428,0,0,0-7.667,2.94A22.7,22.7,0,0,0,432.7,34.1a17.044,17.044,0,0,0,0,5.066c.249,3.382.828,6.651,2.791,9.549.653.965,1.505,1.782,2.058,2.782,1.2,2.162,5.683,2.105,6.981-.083a23.007,23.007,0,0,0,2.078-4.531,27.283,27.283,0,0,0,1.292-10Z" transform="translate(-299.553 -6.717)"/>
      <path id="Path_2191" data-name="Path 2191" class="cls-3" d="M650.235,194.862c-.027-.49.223-.656.686-.683a.689.689,0,0,1,.817.763.707.707,0,0,1-.763.674C650.479,195.631,650.25,195.337,650.235,194.862Z" transform="translate(-457.159 -136.507)"/>
      <path id="Path_2192" data-name="Path 2192" class="cls-1" d="M292.456,67.927a33.481,33.481,0,0,1-1.134,8.819,15.454,15.454,0,0,1-2.165,4.035,22.9,22.9,0,0,1-4.237,5.048,5.615,5.615,0,0,1-3.759,1.161,13.568,13.568,0,0,1-2.8-.3c-2.224-.395-3.266-1.5-3.207-3.759a37.691,37.691,0,0,0-1.188-8.848,18.607,18.607,0,0,1,.051-4.908c.08-1.58.321-3.153.422-4.751A43.13,43.13,0,0,1,275.8,56.5c.594-2.352,3.044-4.136,5.642-4.454a6.085,6.085,0,0,1,4.365.635c1.88,1.274,3.637,2.672,4.528,4.905a39.694,39.694,0,0,1,1.63,6.4A13.263,13.263,0,0,1,292.456,67.927ZM281.063,83.833a2.924,2.924,0,0,0,2.628-.941,26.076,26.076,0,0,0,2.527-2.818,12.613,12.613,0,0,0,2.619-5.389,23.54,23.54,0,0,0,.187-8.661,45.758,45.758,0,0,0-1.241-4.751c-.855-3.026-2.42-5.345-5.707-6.132a1.987,1.987,0,0,0-1.868.35A4.109,4.109,0,0,0,278.56,58a46.985,46.985,0,0,0-.891,7.031c-.047,1.556-.318,3.1-.4,4.659a17.8,17.8,0,0,0,.03,4.9,36.394,36.394,0,0,1,1.022,6.767C278.394,83.825,278.358,83.825,281.063,83.833Z" transform="translate(-192.505 -36.5)"/>
      <path id="Path_2193" data-name="Path 2193" class="cls-6" d="M296.768,69.167c-.855-3.026-2.42-5.345-5.7-6.129a1.989,1.989,0,0,0-1.871.347,4.107,4.107,0,0,0-1.63,2.515,46.948,46.948,0,0,0-.891,7.031c-.048,1.553-.318,3.1-.395,4.656a17.8,17.8,0,0,0,.027,4.9,36.419,36.419,0,0,1,1.024,6.767c.071,2.476.039,2.476,2.741,2.488a2.934,2.934,0,0,0,2.628-.944,25.836,25.836,0,0,0,2.53-2.818,12.589,12.589,0,0,0,2.616-5.389,23.527,23.527,0,0,0,.187-8.658A45.947,45.947,0,0,0,296.768,69.167Z" transform="translate(-201.155 -44.246)"/>
      <path id="Path_2194" data-name="Path 2194" class="cls-1" d="M463.137,70.535a27.283,27.283,0,0,1-1.283,10,23,23,0,0,1-2.078,4.531c-1.3,2.188-5.778,2.245-6.981.083-.552-1-1.4-1.817-2.058-2.782-1.963-2.9-2.542-6.167-2.791-9.549a17.039,17.039,0,0,1,0-5.066,22.7,22.7,0,0,1,2.476-7.212,7.423,7.423,0,0,1,7.667-2.94A3.216,3.216,0,0,1,460,58.9a15.479,15.479,0,0,1,2.711,5.1,17.84,17.84,0,0,1,.416,3.094C463.193,68.236,463.137,69.374,463.137,70.535Zm-3.388.594V68.082a10.936,10.936,0,0,0-2.182-6.948,1.313,1.313,0,0,0-.867-.653,4.252,4.252,0,0,0-4.216,2.274,20.63,20.63,0,0,0-1.6,11.827,18.594,18.594,0,0,0,4.041,9.2c.107.134.172.413.413.3.656-.336,1.449-.413,1.894-1.143a17.179,17.179,0,0,0,1.853-4.712,22.435,22.435,0,0,0,.665-7.108Z" transform="translate(-314.795 -40.37)"/>
      <path id="Path_2195" data-name="Path 2195" class="cls-6" d="M467.613,75.731a10.93,10.93,0,0,0-2.182-6.948,1.327,1.327,0,0,0-.867-.656,4.258,4.258,0,0,0-4.216,2.277,20.6,20.6,0,0,0-1.6,11.827,18.458,18.458,0,0,0,4.038,9.19c.107.134.175.413.413.3.656-.336,1.449-.413,1.894-1.143a17.087,17.087,0,0,0,1.853-4.712,22.433,22.433,0,0,0,.665-7.076C467.613,77.673,467.617,76.7,467.613,75.731Z" transform="translate(-322.372 -47.876)"/>
    </g>
  </g>
</svg>
