<svg xmlns="http://www.w3.org/2000/svg" viewBox="0 0 108.53 214.52"><defs><style>.cls-1{fill:#fcd41b;}.cls-2{fill:#fff;}</style></defs><title>rank-1</title><g id="Layer_2" data-name="Layer 2"><g id="Layer_1-2" data-name="Layer 1"><path class="cls-1" d="M53.23,137.77c-7-1.57-13.74-2.58-20.13-4.68-5.28-1.73-10.2-4.62-15.14-7.27-3.88-2.07-5-6.32-6.84-9.93a50.89,50.89,0,0,1-5.41-29c.71-6.21,4.21-11.27,8-16,2.5-3.12,5.18-6.08,7.82-9.07a14.12,14.12,0,0,1,7.85-4.57c4.15-.9,8.16-2.5,12.33-3.3,13.23-2.52,25.58-.52,36.67,7.62,4.24,3.11,9.33,5.53,11.47,10.56s3.24,10.28,4.67,15.48c.46,1.64.37,3.43.74,5.1,2,9-.16,17.32-4.89,25a90.09,90.09,0,0,1-6.06,8,22.83,22.83,0,0,1-13.18,8.11c-6.79,1.61-12.11,7-12.1,14.61,0,2.8-.45,5.61-.58,8.42A7.58,7.58,0,0,0,59,159a6.5,6.5,0,0,0,2.08-.94c3.09-3.08,6-6.31,9.14-9.36,8.88-8.72,17.9-17.31,26.71-26.1A63.89,63.89,0,0,0,102.9,115c1.15-1.57,2.58-2.13,4.22-1.08a2.8,2.8,0,0,1,.71,4.3,56.91,56.91,0,0,1-5.27,6.23c-9.39,9.62-18.89,19.13-28.25,28.78a93.39,93.39,0,0,0-6.57,8c-2.35,3-4.67,6.06-8.55,7.32-.44.14-1.1.68-1.09,1,.11,3.21.33,6.41.57,9.62.09,1.12.66,2.3.46,3.35-1.14,6.08-.05,11.45,4.32,16.07,2.18,2.31,4.94,2.85,7.83,3.35,5.32.92,9.63,3.36,11.71,8.6.39,1,.17,2.94-.53,3.52-1.44,1.19-2.69,0-3.42-1.41-1.79-3.45-4.81-5.08-8.44-5.8-3.48-.7-6.93-1.3-9.75-3.82-1.32-1.18-6.76-.06-8,1.26-2.08,2.15-4.17,4.3-6.34,6.36-1.52,1.43-3.38,2.22-5,.41s-.39-3.24.89-4.73c2.61-3,5.06-6.19,7.56-9.3.4-.49.65-1.22,1.16-1.49,4.16-2.21,2.8-5.87,2.37-9.2a2.67,2.67,0,0,0-1.82-1.71c-3.9-.42-7.59-1.32-9-5.43-1.51-4.39.34-8.18,3.13-11.54a10.31,10.31,0,0,1,3-2.8c2.78-1.41,3.14-3.57,3.17-6.44C51.93,151.35,50.49,144.19,53.23,137.77ZM44.28,85.85v2.89q0,13.35,0,26.69c0,2,.46,3.84,2.92,3.68s2.28-2,2.32-3.86c.17-9.06.34-18.13.73-27.18.17-3.89,1.11-7.74,1.19-11.63a5.12,5.12,0,0,0-2.34-4c-1-.47-2.93.58-4.19,1.37S42.76,76,41.61,77c-1.71,1.51-3.14,3.14-2.49,5.62S41.83,85.56,44.28,85.85Zm7.73,87-.77-.33a25.07,25.07,0,0,0-1.54,3.77c-.05.19,1.39.77,2.6,1.42Z"/><path class="cls-1" d="M9.2,24.32a12.69,12.69,0,0,1,1.89,1.56c4.34,6.13,8.65,12.3,13,18.43,1.35,1.92,2.79,3.78,4.17,5.67,1.49,2.05.21,2.92-1.55,3.53A28.76,28.76,0,0,0,12.48,64.56a62.42,62.42,0,0,1-4.62,5.87c-1,1.11-2.09.63-2.34-.8a23.21,23.21,0,0,1-.43-5.12q1-18.59,2.21-37.16C7.36,26.4,8.42,25.52,9.2,24.32Z"/><path class="cls-1" d="M63.5,48.5c.44,2.3-.83,2.44-2.56,2.16C56.85,50,52.78,49,48.67,48.86A46.43,46.43,0,0,0,38.48,50c-2.15.39-3-.42-2.33-2.22,3.69-10,5.13-20.79,10.83-30a14.43,14.43,0,0,1,2.54-2.52,21.69,21.69,0,0,1,2.36,3,43.51,43.51,0,0,1,1.85,4.51c3.11,7.7,6.24,15.39,9.32,23.1A12.58,12.58,0,0,1,63.5,48.5Z"/><path class="cls-1" d="M98.55,29.12c-2.4,9.84-4.65,19.14-7,28.42A39.14,39.14,0,0,1,90,62.7c-.8,2-2,2.28-3.32.58A29.85,29.85,0,0,0,72.26,53a2.22,2.22,0,0,1-.92-2A16.28,16.28,0,0,1,74,46.7c5.61-6.26,11.33-12.43,17-18.62a6.9,6.9,0,0,1,1.64-1.42c1-.55,2.53-1.59,3-1.26C96.81,26.28,97.56,27.79,98.55,29.12Z"/><path class="cls-1" d="M96,18.1a22.94,22.94,0,0,1,1-4.44c.78-1.77,2-3.26,4.35-3s3.94,1.3,4.27,4c.39,3.16.62,6.25-2.2,8.38-1.11.84-3.29,1.79-4,1.29-1.43-1-2.23-2.92-3.18-4.54-.24-.4,0-1.06,0-1.61Z"/><path class="cls-1" d="M43.23,6.21C43.24,2.87,45.44,0,48,0c2,0,6.11,3.45,6.1,5.08,0,2.7-3.27,5.91-5.93,5.88C45,10.93,43.22,9.2,43.23,6.21Z"/><path class="cls-1" d="M3.87,9.21C8.19,9.23,9.5,10.67,8.8,14A13,13,0,0,1,7,18.69c-2.1,3.07-4.39,2.87-6.27-.32-1.09-1.87-.86-6.08.65-7.57A10.4,10.4,0,0,1,3.87,9.21Z"/><path class="cls-1" d="M44.28,85.85c-2.45-.29-4.52-.79-5.16-3.23s.78-4.11,2.49-5.62c1.15-1,2.06-2.37,3.33-3.17s3.21-1.84,4.19-1.37a5.12,5.12,0,0,1,2.34,4c-.08,3.89-1,7.74-1.19,11.63-.39,9.05-.56,18.12-.73,27.18,0,1.85,0,3.7-2.32,3.86s-2.92-1.69-2.92-3.68q0-13.35,0-26.69Z"/><path class="cls-2" d="M50.14,84.37c-2.45-.29-4.53-.79-5.17-3.23s.79-4.11,2.49-5.62c1.16-1,2.06-2.37,3.34-3.17S54,70.51,55,71a5.13,5.13,0,0,1,2.34,4c-.08,3.89-1,7.75-1.18,11.63-.39,9-.57,18.12-.74,27.18,0,1.85,0,3.7-2.32,3.86s-2.92-1.69-2.92-3.68q0-13.35,0-26.69C50.13,86.36,50.14,85.47,50.14,84.37Z"/></g></g></svg>