<svg xmlns="http://www.w3.org/2000/svg" viewBox="0 0 171.14 183.09"><defs><style>.cls-1{fill:#26bf59;}.cls-2{fill:#fff;}</style></defs><title>ranking-3</title><g id="Layer_2" data-name="Layer 2"><g id="Layer_1-2" data-name="Layer 1"><path class="cls-1" d="M58.27,158.39l19-9.42-9.17-14.54a1.67,1.67,0,0,0-.63,0c-17.88,5.79-33.93.79-49.25-8.37-4.56-2.72-6-7.7-8-12.07A49.7,49.7,0,0,1,5.66,87.25c.7-6.45,4.26-11.63,8.19-16.53,2.44-3,5.07-5.93,7.65-8.86a14.26,14.26,0,0,1,8.09-4.67c4.07-.86,8-2.46,12.07-3.24,13.33-2.56,25.76-.5,36.91,7.72,4.17,3.07,9.17,5.46,11.27,10.39s3.26,10.28,4.7,15.48c.45,1.64.35,3.43.72,5.1a31.12,31.12,0,0,1-4.63,24.51c-3.08,4.73-7.32,8.71-11,13.09a2.68,2.68,0,0,0-.56,2.26c2.37,4.34,4.91,8.59,7.39,12.86,8-4.59,14.93-1.44,21.76,1.1a4.32,4.32,0,0,1,2.4,5.71,4.62,4.62,0,0,1-5.63,2.65c-2.39-.56-4.73-1.27-7.1-1.89-.11,0-.27.15-.8.45,1.33.62,2.41,1.2,3.54,1.64,3.63,1.44,7.32,2.74,10.9,4.29,1.69.74,2.56.36,3.55-1.09,4.42-6.49,10.74-10.75,17.43-14.53a14.63,14.63,0,0,1,3.83-1.39c4.05-.92,7.59,1,8.17,5.1.81,5.77,3.33,10.71,6.33,15.5a5.72,5.72,0,0,1,0,6.72c1.38.4,2.56.7,3.72,1.07,4.33,1.38,8.71,2.62,12.93,4.27a6.94,6.94,0,0,1,3.51,3.43,4.06,4.06,0,0,1-1,3.78,6.08,6.08,0,0,1-4.47.79c-10.49-2.55-20.89-5.46-31.4-7.92-5-1.18-10.11-2.12-15.38-1-2.61.55-4.52-.93-5.46-3.5-.23-.63-.49-1.53-1-1.73-3.75-1.57-7.62-2.85-11.33-4.49q-7.44-3.3-14.67-7c-1.59-.83-2.72-1.24-4.45-.28-4.85,2.68-9.75,5.3-14.8,7.57a27.86,27.86,0,0,1-8.83,2.4c-4.73.39-8.12-2.85-8.87-7.8-.89-5.92.88-11.55,2.18-17.18.61-2.62,3.53-3.72,5.94-2.84s3.43,3.29,2.77,6.07c-.8,3.33-1.53,6.69-2.21,10A15.47,15.47,0,0,0,58.27,158.39Zm4.24-62.94a88,88,0,0,0,4.5-8c3.92-9.11-1-19.5-10.22-21.6a30.61,30.61,0,0,0-8.4-.26,25.33,25.33,0,0,0-17.5,7.77c-2,2.09-3,4.58-2.07,7.48a5.33,5.33,0,0,0,5.37,3.85c2.24,0,4.24-1,4.52-3.18.49-3.83,3.28-4.79,6.13-5.59a29.41,29.41,0,0,1,7-.92c5.45-.15,8.35,4,6,8.91-2.5,5.17-5.89,9.61-12.15,10.74a14.83,14.83,0,0,0-4.05,1.56c-3,1.57-4.21,4.25-3.3,7,.81,2.43,3.57,3.88,6.79,3.1a40.5,40.5,0,0,0,6.57-2.54,8.22,8.22,0,0,1,10.08,3.64c1.38,2.65-.1,5.33-4.15,7.37a14.89,14.89,0,0,1-3.3,1.23q-4.25,1-8.54,1.79c-3.08.56-4.81,2.26-4.57,4.71s2.45,4.08,5.68,3.65a48.35,48.35,0,0,0,9.1-1.66,38,38,0,0,0,10.27-4.74c7.31-5.3,7.42-15,.61-21C65.5,97.59,64,96.57,62.51,95.45Zm72.9,57.83c-4.37,2.79-9,5.33-11.88,10.23l19,3.89Z"/><path class="cls-1" d="M5.74,43.73c.49-5.5.93-11,1.54-16.48a2.87,2.87,0,0,1,1.64-2,2.76,2.76,0,0,1,2.33,1C16.67,33.58,22,41,27.37,48.42c2.42,3.31,2,3.93-1.83,5.29a22.29,22.29,0,0,0-7.28,4.56c-2.37,2.15-4.21,4.9-6.29,7.38a62.94,62.94,0,0,1-4.2,4.85c-1.13,1.08-2.17.39-2.28-1a59.64,59.64,0,0,1-.29-8.12c.31-5.88.82-11.75,1.25-17.62Z"/><path class="cls-1" d="M63.3,48.23c.69,2.44-.5,2.75-2.45,2.42C56.77,50,52.69,49,48.59,48.85A47.71,47.71,0,0,0,38.4,50c-2.22.4-2.9-.56-2.25-2.3,3.72-10.07,5.2-21,11-30.27a11.7,11.7,0,0,1,2.47-2.2,12.39,12.39,0,0,1,2.13,2.55c2,4.35,4,8.73,5.76,13.18,2.05,5.1,3.91,10.28,5.8,15.44A5.45,5.45,0,0,1,63.3,48.23Z"/><path class="cls-1" d="M98.54,29.12c-2.4,9.84-4.65,19.14-7,28.42A42.37,42.37,0,0,1,90,62.7c-.8,2-2,2.28-3.32.58A29.85,29.85,0,0,0,72.25,53a2.22,2.22,0,0,1-.92-2,16.15,16.15,0,0,1,2.6-4.34c5.62-6.26,11.33-12.43,17-18.62a7.05,7.05,0,0,1,1.63-1.42c1-.55,2.54-1.59,3-1.26C96.8,26.28,97.55,27.79,98.54,29.12Z"/><path class="cls-1" d="M96,18.3a25.59,25.59,0,0,1,.81-4.22c.7-1.95,1.93-3.57,4.32-3.44,2.55.14,4.14,1.26,4.48,4.07.38,3.18.56,6.26-2.29,8.36-1.11.82-3.22,1.7-4,1.2-1.39-.88-2.17-2.78-3.09-4.32-.24-.4,0-1.07,0-1.61Z"/><path class="cls-1" d="M48.24,11c-3.14,0-5-1.72-5-4.64C43.21,3,45.34.07,47.85,0,49.77-.06,54,3.33,54.06,5,54.15,7.56,50.86,10.94,48.24,11Z"/><path class="cls-1" d="M9.26,13c-.7,1.8-1.15,3.88-2.24,5.56-2.12,3.28-4.88,3-6.58-.51-.92-1.88-.33-6,1.07-7.61S6.8,8.7,8.17,10.27A10.28,10.28,0,0,1,9.26,13Z"/><path class="cls-2" d="M62.51,95.45c1.48,1.12,3,2.14,4.35,3.32,6.81,6,6.7,15.66-.61,21A38,38,0,0,1,56,124.47a48.35,48.35,0,0,1-9.1,1.66c-3.23.43-5.43-1.07-5.68-3.65s1.49-4.15,4.57-4.71q4.29-.78,8.54-1.79a14.89,14.89,0,0,0,3.3-1.23c4-2,5.53-4.72,4.15-7.37a8.22,8.22,0,0,0-10.08-3.64,40.5,40.5,0,0,1-6.57,2.54c-3.22.78-6-.67-6.79-3.1-.91-2.72.3-5.4,3.3-7a14.83,14.83,0,0,1,4.05-1.56c6.26-1.13,9.65-5.57,12.15-10.74,2.37-4.89-.53-9.06-6-8.91a29.41,29.41,0,0,0-7,.92c-2.85.8-5.64,1.76-6.13,5.59-.28,2.15-2.28,3.22-4.52,3.18a5.33,5.33,0,0,1-5.37-3.85c-1-2.9.07-5.39,2.07-7.48a25.33,25.33,0,0,1,17.5-7.77,30.61,30.61,0,0,1,8.4.26C66.06,68,70.93,78.34,67,87.45A88,88,0,0,1,62.51,95.45Z"/></g></g></svg>