<svg id="ranking_1" xmlns="http://www.w3.org/2000/svg" viewBox="0 0 34.795 37.229">
  <defs>
    <style>
      .cls-1 {
        fill: #fdd600;
      }

      .cls-2 {
        fill: #fff;
      }
    </style>
  </defs>
  <g id="Layer_1" data-name="Layer 1" transform="translate(0 0)">
    <path id="Path_2198" data-name="Path 2198" class="cls-1" d="M17.229,37.148A70.554,70.554,0,0,1,9.984,37.1,9.756,9.756,0,0,1,1.249,27.3a10.19,10.19,0,0,0-.674-4.145C-.172,21.4.011,19.489.108,17.632a12.445,12.445,0,0,1,2.552-7.52A3.285,3.285,0,0,1,3,9.727C5.154,7.81,7.254,5.832,9.483,4.007A16.881,16.881,0,0,1,16.762.323c2.587-.528,5.172-.555,7.506,1.043a1.323,1.323,0,0,1,.294.218A9.586,9.586,0,0,0,28.225,4.01a8.393,8.393,0,0,1,4.148,4.312c.862,1.986,1.474,4.086,2.183,6.14a2.267,2.267,0,0,1,.094.65c.054,1.787.1,3.571.154,5.355a11.552,11.552,0,0,1-1.536,6.121c-1,1.765-2.04,3.5-3.2,5.178A10.718,10.718,0,0,1,23.8,35.989a4.553,4.553,0,0,0-.844.248A10.6,10.6,0,0,1,17.229,37.148ZM15.585,14.88c-.04.3-.057.515-.1.725a42.294,42.294,0,0,0-1.121,11.212,6.592,6.592,0,0,1-.315,1.922,1.322,1.322,0,0,0,.582,1.641,1.175,1.175,0,0,0,1.631-.539,5.39,5.39,0,0,0,.585-2c.1-1.709-.078-3.442.116-5.134a55.4,55.4,0,0,1,2.919-12.7,1.451,1.451,0,0,0-2.186-1.765,2.978,2.978,0,0,0-.612.523q-1.437,1.561-2.87,3.14a1.832,1.832,0,0,0-.539,2.07c.353.814,1.027.965,1.914.9Z" transform="translate(-0.016 0.001)"/>
    <path id="Path_2199" data-name="Path 2199" class="cls-2" d="M52.2,36.442c-.887.065-1.588-.1-1.924-.9a1.862,1.862,0,0,1,.539-2.07q1.445-1.577,2.881-3.14a2.978,2.978,0,0,1,.612-.523,1.451,1.451,0,0,1,2.186,1.765,55.4,55.4,0,0,0-2.919,12.692c-.194,1.693-.016,3.426-.116,5.134a5.39,5.39,0,0,1-.585,2,1.175,1.175,0,0,1-1.631.539A1.318,1.318,0,0,1,50.66,50.3a6.592,6.592,0,0,0,.315-1.922A42.406,42.406,0,0,1,52.1,37.162C52.142,36.957,52.158,36.744,52.2,36.442Z" transform="translate(-36.63 -21.562)"/>
  </g>
</svg>
