<svg xmlns="http://www.w3.org/2000/svg" viewBox="0 0 105.82 218.62"><defs><style>.cls-1{fill:#f298ce;}.cls-2{fill:#fff;}</style></defs><title>ranking-2</title><g id="Layer_2" data-name="Layer 2"><g id="Layer_1-2" data-name="Layer 1"><path class="cls-1" d="M66,146.77c1.78-.51,3.16-1,4.56-1.31C80,143,87.72,146.25,93.92,153c4.59,5,5.14,11.45,2.89,17.7S89.6,180.83,83,182.22a4.31,4.31,0,0,1-5.25-2.82c-.66-2.14.35-4.13,2.68-5.34a29.51,29.51,0,0,0,4.29-2.33c5.32-4,5.06-10.86-.34-14.69a13.64,13.64,0,0,0-13.67-1.68c-1.71.67-2.44,1.35-2,3.38A66.09,66.09,0,0,1,70.24,179c-.18,2.09,1.44,4.36,2.34,6.51,3.59,8.52,3.57,17.32,2.07,26.23a8.57,8.57,0,0,1-.39,1.31c-1.32,3.94-3.41,5.55-6.11,4.71s-2.7-2.89-2.12-7.15c.6-4.47.13-9.1-.45-13.79a5.22,5.22,0,0,0-.7,1C61.42,206.05,55.2,212,48.5,217.53c-2,1.64-4.44,1.39-5.79-.42s-.78-4.41,1.61-6C55.5,203.53,59.46,192.14,61.41,179c-4.41,3.4-8.29,1.72-12-.23a14.89,14.89,0,0,1-8.15-10.7c-.74-4.12,1.23-7.53,4.4-10a83.78,83.78,0,0,1,9.52-6.29c1.56-.91,2.16-1.62,1.3-3.35s-1.33-3.81-2.37-5.49a19.13,19.13,0,0,0-3.47-3.56c-5.12-4.77-12.35-3.5-18.15-6.31-5-2.44-10.41-4.5-14.88-7.76-2.85-2.09-4.66-5.89-6.37-9.22A50.47,50.47,0,0,1,5.71,86.87c.71-6.21,4.22-11.27,8-16,2.5-3.11,5.19-6.08,7.83-9.07a14.07,14.07,0,0,1,7.85-4.55c4.16-.9,8.16-2.51,12.33-3.3,13.24-2.52,25.59-.51,36.67,7.64,4.24,3.11,9.33,5.53,11.47,10.56s3.22,10.29,4.65,15.49c.43,1.55.32,3.25.68,4.83,2.1,9.15,0,17.5-4.85,25.26A84.06,84.06,0,0,1,84.13,126a22.35,22.35,0,0,1-13,7.89c-3,.67-5.81,1.89-9,3Q64,141.55,66,146.77Zm-9.09-35.06c1.23-2,2.24-3.55,3.22-5.16,5.41-8.88,8-18.46,6.79-28.87-.82-7-5.61-11.49-12.61-12.16a29.77,29.77,0,0,0-6.26,0c-8.17.94-15,4.21-19.18,11.7a9.66,9.66,0,0,0,7.36,14.39,4.37,4.37,0,0,0,5-2.45,4.26,4.26,0,0,0-1.32-5.38C39,83,38.08,82.37,37,81.51c3.37-4.83,8.16-6.33,13.51-6.48,5.12-.15,6.9,1.46,6.73,6.59-.44,13.11-5.28,24.1-16.23,31.91-2.51,1.79-3.48,4.74-2.23,7.12s3.85,2.95,6.91,2a24.43,24.43,0,0,1,7.09-1.3,108.8,108.8,0,0,1,11.08.89c2.33.25,4.23-.33,5.08-2.65a4.14,4.14,0,0,0-2-5.36,18.19,18.19,0,0,0-4.55-1.7C60.76,112.14,59.11,112,56.91,111.71ZM62,174,60.09,160.2c-3.44,2.16-6.13,3.73-8.67,5.52-.51.36-.9,2-.62,2.22a26.56,26.56,0,0,0,5.15,4C57.64,172.83,59.64,173.2,62,174Z"/><path class="cls-1" d="M5,65.72c.77-13.33,1.47-25.9,2.29-38.46a2.8,2.8,0,0,1,1.63-2,2.75,2.75,0,0,1,2.33,1C16.68,33.57,22,41,27.37,48.41c2.42,3.31,2,4-1.81,5.3a22.26,22.26,0,0,0-7.28,4.55c-2.37,2.15-4.21,4.9-6.29,7.38a60.87,60.87,0,0,1-4.24,4.82,2.49,2.49,0,0,1-2.12-.68A23.76,23.76,0,0,1,5,65.72Z"/><path class="cls-1" d="M63.5,48.51c.43,2.31-.86,2.43-2.57,2.15C56.84,50,52.77,49,48.66,48.86A47.21,47.21,0,0,0,38.46,50c-2.15.39-3-.44-2.31-2.23,3.69-10,5.13-20.79,10.83-30a15.17,15.17,0,0,1,2.55-2.51,21.7,21.7,0,0,1,2.35,3,43.51,43.51,0,0,1,1.85,4.51c3.11,7.7,6.25,15.39,9.32,23.1A12.58,12.58,0,0,1,63.5,48.51Z"/><path class="cls-1" d="M98.46,29.62c-2.32,9.37-4.61,18.75-7,28.12a35.41,35.41,0,0,1-1.66,5.14c-.72,1.67-1.81,2.28-3.19.46A29.18,29.18,0,0,0,72.32,53a2.19,2.19,0,0,1-1-1.92,17.66,17.66,0,0,1,2.77-4.54c5.55-6.2,11.2-12.31,16.85-18.43a25,25,0,0,1,3-2.71c1-.82,3.43.54,3.85,2.17a9.85,9.85,0,0,1,.11,1.89Z"/><path class="cls-1" d="M95.91,18.18A22.38,22.38,0,0,1,97,13.5c.81-1.74,2-3.13,4.43-2.81s3.73,1.34,4.08,3.85c.43,3.15.7,6.27-2.12,8.41-1.16.87-3.4,1.8-4.24,1.27-1.45-.91-3.4-2.2-3.06-4.62a10.29,10.29,0,0,0,0-1.36Z"/><path class="cls-1" d="M48.14,11c-3.23,0-5-1.8-4.91-5S45.52,0,48,0c2,0,6.11,3.45,6.1,5.08C54.05,7.77,50.8,11,48.14,11Z"/><path class="cls-1" d="M9.27,13.06c-.7,1.78-1.16,3.86-2.25,5.53C4.89,21.86,2.1,21.53.43,18c-.91-1.91-.3-6,1.12-7.61S6.86,8.71,8.2,10.3A9.91,9.91,0,0,1,9.27,13.06Z"/><path class="cls-2" d="M56.91,111.71c2.2.32,3.85.43,5.42.83a18.19,18.19,0,0,1,4.55,1.7,4.14,4.14,0,0,1,2,5.36c-.85,2.32-2.75,2.9-5.08,2.65a108.8,108.8,0,0,0-11.08-.89,24.43,24.43,0,0,0-7.09,1.3c-3.06.94-5.68.33-6.91-2s-.28-5.33,2.23-7.12c11-7.81,15.79-18.8,16.23-31.91.17-5.13-1.61-6.74-6.73-6.59-5.35.15-10.14,1.65-13.51,6.48,1.12.86,2.07,1.52,2.95,2.28a4.26,4.26,0,0,1,1.32,5.38,4.37,4.37,0,0,1-5,2.45,9.66,9.66,0,0,1-7.36-14.39c4.13-7.49,11-10.76,19.18-11.7a29.77,29.77,0,0,1,6.26,0c7,.67,11.79,5.21,12.61,12.16,1.22,10.41-1.38,20-6.79,28.87C59.15,108.16,58.14,109.74,56.91,111.71Z"/></g></g></svg>