<svg id="ranking_2" xmlns="http://www.w3.org/2000/svg" viewBox="0 0 34.796 37.212">
  <defs>
    <style>
      .cls-1 {
        fill: #f397d0;
      }

      .cls-2 {
        fill: #fff;
      }
    </style>
  </defs>
  <g id="Layer_1" data-name="Layer 1" transform="translate(0 0)">
    <path id="Path_2200" data-name="Path 2200" class="cls-1" d="M17.222,37.134A71.215,71.215,0,0,1,9.9,37.091a9.758,9.758,0,0,1-8.655-9.73A18.139,18.139,0,0,0,.608,23.14c-1.1-4.541-.852-9,2.021-12.969A11.61,11.61,0,0,1,4.2,8.632c1-.93,2.016-1.846,3.024-2.765A22.142,22.142,0,0,1,16.7.323,11.169,11.169,0,0,1,22.3.4a6.735,6.735,0,0,1,3.275,2.156,2.8,2.8,0,0,0,1.051.725,10.233,10.233,0,0,1,6.547,7.029c.42,1.377.914,2.73,1.361,4.1a2.622,2.622,0,0,1,.108.725c.057,1.784.1,3.568.154,5.355a11.562,11.562,0,0,1-1.571,6.183c-.995,1.741-2.019,3.471-3.164,5.121a10.74,10.74,0,0,1-6.267,4.2,10.108,10.108,0,0,0-1.383.48A10.434,10.434,0,0,1,17.222,37.134Zm-2.237-9.67-.127-.27c.229-.178.472-.345.682-.539a54.174,54.174,0,0,0,7.752-9.1,4.973,4.973,0,0,0,.876-2.28,4.361,4.361,0,0,0-4.377-4.765,20.947,20.947,0,0,0-2.79.022,8.605,8.605,0,0,0-4.488,1.2,3.234,3.234,0,0,0-1.226,1.544,4.349,4.349,0,0,0,2.191,4.439,1.732,1.732,0,0,0,2.315-.625,1.65,1.65,0,0,0-.679-2.218c-.27-.2-.539-.453-.83-.712a10.9,10.9,0,0,1,5.878-.574,1.4,1.4,0,0,1,.792,2.272A31.933,31.933,0,0,1,18.6,19.138c-1.749,2.011-3.612,3.927-5.391,5.913a11.948,11.948,0,0,0-1.757,2.323,1.679,1.679,0,0,0,1.234,2.536,6.4,6.4,0,0,0,.72.14c1.431.208,2.857.439,4.291.6a9.9,9.9,0,0,0,2.189.024A1.116,1.116,0,0,0,20.89,29.5a1.216,1.216,0,0,0-.981-1.288,5.849,5.849,0,0,0-.725-.084Z" transform="translate(-0.002 -0.002)"/>
    <path id="Path_2201" data-name="Path 2201" class="cls-2" d="M45.308,55.855c1.4.221,2.792.445,4.188.663a5.848,5.848,0,0,1,.725.084A1.216,1.216,0,0,1,51.2,57.89,1.11,1.11,0,0,1,50.2,59.065a9.9,9.9,0,0,1-2.189-.024c-1.434-.162-2.86-.394-4.291-.6a6.4,6.4,0,0,1-.725-.129,1.679,1.679,0,0,1-1.234-2.536,11.948,11.948,0,0,1,1.773-2.334c1.768-1.986,3.631-3.9,5.391-5.911a31.933,31.933,0,0,0,2.366-3.269,1.4,1.4,0,0,0-.792-2.272,10.887,10.887,0,0,0-5.886.571,9.085,9.085,0,0,0,.83.712,1.654,1.654,0,0,1,.679,2.218,1.748,1.748,0,0,1-2.318.625,4.347,4.347,0,0,1-2.191-4.436,3.234,3.234,0,0,1,1.226-1.544,8.84,8.84,0,0,1,4.488-1.2,20.948,20.948,0,0,1,2.79-.024,4.359,4.359,0,0,1,4.377,4.762,4.973,4.973,0,0,1-.876,2.28,54.174,54.174,0,0,1-7.752,9.1c-.21.2-.453.364-.682.539Z" transform="translate(-30.326 -28.394)"/>
  </g>
</svg>
