<svg id="ranking_3" xmlns="http://www.w3.org/2000/svg" viewBox="0 0 34.785 37.225">
  <defs>
    <style>
      .cls-1 {
        fill: #15c055;
      }

      .cls-2 {
        fill: #fff;
      }
    </style>
  </defs>
  <g id="Layer_1" data-name="Layer 1" transform="translate(0 0)">
    <path id="Path_2202" data-name="Path 2202" class="cls-1" d="M17.215,37.149a69.8,69.8,0,0,1-7.245-.043,9.757,9.757,0,0,1-8.708-9.757,17.891,17.891,0,0,0-.65-4.221C-.466,18.546-.226,14.086,2.687,10.1a2.577,2.577,0,0,1,.34-.391c2.11-1.865,4.14-3.8,6.312-5.579A17.329,17.329,0,0,1,16.8.321c2.558-.52,5.121-.539,7.428,1.021a2.054,2.054,0,0,1,.52.4,7.458,7.458,0,0,0,3.175,2.108,8.684,8.684,0,0,1,4.463,4.5c.857,1.965,1.458,4.043,2.156,6.072a2.49,2.49,0,0,1,.105.722c.057,1.784.1,3.571.154,5.355a11.436,11.436,0,0,1-1.515,6.053c-1.024,1.806-2.083,3.6-3.277,5.3a10.582,10.582,0,0,1-6.156,4.132,11.449,11.449,0,0,0-1.455.5A10.59,10.59,0,0,1,17.215,37.149Zm5.577-19.322c.784-1.164,1.593-2.191,2.207-3.321a4.434,4.434,0,0,0-.221-4.878,6.882,6.882,0,0,0-5.334-2.965,8.373,8.373,0,0,0-6.18,2.251,3.17,3.17,0,0,0-.995,3.811c.439,1.113,1.38,1.574,2.984,1.469a1.715,1.715,0,0,0,1.652-1.127,1.61,1.61,0,0,0-.612-1.887c-.086-.073-.156-.162-.237-.245a4.122,4.122,0,0,1,5.315-.216,1.793,1.793,0,0,1,.6,2.728,37.79,37.79,0,0,1-2.536,3.234,2.65,2.65,0,0,1-.809.455,12.317,12.317,0,0,0-1.865.995,1.655,1.655,0,0,0-.307,2.3,1.676,1.676,0,0,0,2.218.517,8.356,8.356,0,0,0,.865-.539c.712-.461,1.078-.472,1.563.221a6.8,6.8,0,0,1,1.057,2.062c.749,2.666.226,3.722-2.339,4.827a4.009,4.009,0,0,1-3.612.105,1.451,1.451,0,0,0-2.14.561,1.478,1.478,0,0,0,.9,2.038,8.356,8.356,0,0,0,2.531.641,9.1,9.1,0,0,0,5.868-1.989A4.779,4.779,0,0,0,25.5,24.813,8.7,8.7,0,0,0,22.792,17.827Z" transform="translate(-0.023 -0.004)"/>
    <path id="Path_2203" data-name="Path 2203" class="cls-2" d="M55.25,35.758a8.7,8.7,0,0,1,2.709,6.986,4.779,4.779,0,0,1-2.129,4.064A9.1,9.1,0,0,1,49.962,48.8a8.355,8.355,0,0,1-2.531-.641,1.49,1.49,0,0,1-.9-2.038,1.462,1.462,0,0,1,2.14-.561,4.01,4.01,0,0,0,3.612-.105c2.555-1.094,3.089-2.156,2.329-4.838a6.8,6.8,0,0,0-1.057-2.062c-.5-.693-.862-.674-1.563-.221a8.356,8.356,0,0,1-.865.539,1.676,1.676,0,0,1-2.207-.507,1.655,1.655,0,0,1,.31-2.31,11.823,11.823,0,0,1,1.865-.995c.27-.146.631-.232.809-.455a37.791,37.791,0,0,0,2.536-3.234,1.792,1.792,0,0,0-.6-2.728,4.121,4.121,0,0,0-5.315.216c.081.084.151.172.237.245a1.628,1.628,0,0,1,.612,1.887,1.7,1.7,0,0,1-1.652,1.127c-1.617.105-2.544-.356-2.984-1.469a3.17,3.17,0,0,1,.992-3.819,8.4,8.4,0,0,1,6.18-2.251,6.943,6.943,0,0,1,5.334,2.965,4.433,4.433,0,0,1,.221,4.878C56.843,33.567,56.034,34.594,55.25,35.758Z" transform="translate(-32.481 -17.936)"/>
  </g>
</svg>
