<svg id="_" data-name="１" xmlns="http://www.w3.org/2000/svg" viewBox="0 0 858 612.69"><defs><style>.cls-1{fill:#ea5552;}.cls-2{fill:#1974d4;}.cls-3{fill:#61be5f;}.cls-4{fill:#ee99cd;}.cls-5{fill:#fbd338;}</style></defs><title>search-img</title><path class="cls-1" d="M448.89,401.24a56.75,56.75,0,0,0-3-8.59c-1.64-3.43-.83-6.48-.21-10A21.12,21.12,0,0,0,443.79,369c-2.65-5.77-4.4-11.23-4.18-17.61.18-5.13,1.25-9.86-2.08-14.36-2.4-3.23-4.63-5.54-6.3-9.25a22.4,22.4,0,0,0-14.72-13.48,14.77,14.77,0,0,0-7.47-.16c-3.16.79-4.79,2.37-8.32,2.12-5.42-.38-9.59-.31-13.74,3.42a21.79,21.79,0,0,0-7.35,14.24,2.64,2.64,0,0,0,0,.4,47.47,47.47,0,0,0-.72,8.6,2.22,2.22,0,0,0,1.15,2,2.55,2.55,0,0,0,2.67.8,59.16,59.16,0,0,0,16.83-7.61c2.24-1.41,9.77-7.45,11.79-3,1.8,4-12.39,7.65-15.19,9-4.13,2-9.44,3.49-13.14,6.12-2.72,1.2-1.31,5.52,1.86,4.66,2.65-.72,4.95-2.18,7.57-2.94a73.64,73.64,0,0,1,10.3-1.63,62.51,62.51,0,0,0,6.57-.9c3.3-.78,5.92-3.26,9.08-4,2.75-.66,5.19.4,1.73,4.12a9.81,9.81,0,0,1-4,1.93c-2.7.82-5.67,1.44-8.44,2.11-5.59,1.36-11.55,1.54-17.12,3.17a2.42,2.42,0,0,0-1.8,1.83,2.37,2.37,0,0,0-.36,2.94,14.27,14.27,0,0,0,3.45,3c1.12.84,2.2,1.75,3.24,2.69a2.76,2.76,0,0,0,4,1.84c1.44-.73,4.76-.92,6.67-1.12,3-.32,7.9-1.21,10.66,0q3.12,0,2.06,3.38a.73.73,0,0,1-.84.22c-.71.39-2.59.16-3.42.18-3,.09-6.37-.48-9.33.23h-.06c-2.46-.42-4.28,3.14-1.73,4.69s4.43,3.94,7,5.54l.4.28a11.28,11.28,0,0,0,2.22,2.37c.74.51,1.52,1,2.28,1.48a2.39,2.39,0,0,0,2.78,1.36,3.07,3.07,0,0,0,2.69-1.38,23.78,23.78,0,0,1,7.76-2c1.48-.06,3.37.59,2.19,2.25-.73,1-3.73,1.73-4.88,2.08a2.59,2.59,0,0,0-1.87,1.75l0,.11a.28.28,0,0,1,0,.09,2.74,2.74,0,0,0,2.45,3.47c-.84-.08.19.16.48.33.62.37,1.24.64,1.89,1,1.2.6,2.27,1.31,3.42,2s2.68,1.09,3.8,1.89,3,3.68,1.09,4.54c-1.7.78-6-2.51-7.41-3.16a23.49,23.49,0,0,0-4.59-1.68l-.19-.14-.68-.42-.27-.2a2.51,2.51,0,0,0-3.12-.67,2.16,2.16,0,0,0-1.57,2.89s0,0,0,.06a2.07,2.07,0,0,0,.24.53,10.45,10.45,0,0,1,.63,5.44c-.36,1.48-.58,1.55-1.89.51a6.26,6.26,0,0,1-1.47-2.08,18,18,0,0,1-1.91-9,2.31,2.31,0,0,0,.06-1.45l0,0,0-.08a2.31,2.31,0,0,0-1.28-2.73h0c-2.67-1.27-4.17-3.35-6.16-5.3-1.59-1.55-4.23-3.84-4.74-6-.71-2.92-5.21-2-5.24.69a2.27,2.27,0,0,0,.07,1.17c1.86,5.92,3.06,12,4.83,17.92.67,2.24,2.62,6.61,1.9,9-1.54,5.17-5.12-4.7-5.53-5.87a92.41,92.41,0,0,1-5.23-30.15,2.57,2.57,0,0,0-.05-.4,2.69,2.69,0,0,0-.64-2.45,10,10,0,0,0-2-1.3,13.45,13.45,0,0,1-1.58-1.62c-.48-.49-1-1-1.46-1.43-.31-.29-.9-1.19-1.5-1.73a2.8,2.8,0,0,0-4.53.07c-5.07,7.77-3.35,19-3.37,27.67a2.27,2.27,0,0,0,.46,1.43,2.5,2.5,0,0,0,1.15,1.8c1.51,1,3.44,1.36,5,2.32a8.54,8.54,0,0,1,3.06,4.88c.4,1.77-.92,4.5-2.4,2.15a16,16,0,0,0-2.81-3.94l-.06,0c-1.44-1.38-4.66-.83-4.66,1.67a12.88,12.88,0,0,1-.5,4.7c0,1.64-.78,2.2-2.3,1.69q-2.47.63-1.48-1.69c-.23-2.13,1.12-4.74,1.06-7.05-.16-5.7-.32-11.46.06-17.16a70.7,70.7,0,0,1,1.2-10.36c.91-4.26,3-8.26,3.79-12.55a2.48,2.48,0,0,0-.07-1.25,2.33,2.33,0,0,0-.49-1.61c-.58-2.21-4-2.4-5-.56a2.33,2.33,0,0,0-.41.89c-.32.46-.63.93-.91,1.41a28.46,28.46,0,0,0-1.34,3c-1.46,3.36-3,6.69-4.42,10.07-.56,1.36-5.16,16.67-8,15.62-.5-.19,3.75-13.78,4.58-15.73,2.33-5.48,5.21-11.08,7.16-16.63A2.3,2.3,0,0,0,371,354c.32-2.28-3.43-3.91-5-1.52.43-.64-.56.33-.72.46-.33.27-.64.56-.95.85-.77.71-1.55,1.42-2.3,2.15a18.77,18.77,0,0,0-2.32,3,3,3,0,0,0-.47.47l-.12.13h0a2,2,0,0,0-.48.89c-.81,1.42-1.83,2.75-2.53,4.25-1.57,3.37-3,6.79-4.73,10.13-2,4-5.42,7.73-6.84,11.93-1.81.48-3.08,2.62-1.28,4.09,4.72,3.85,8.44,8.54,13.2,12.33a129.61,129.61,0,0,0,15.12,10.27,64.73,64.73,0,0,0,22.33,7.67c6.55,1,13.52-.19,20,1a3,3,0,0,0,4.17.56c4.48-3.53,8.69-6.77,14.26-8.73,3.11-1.1,7-1.88,10.07-3.51,2.89-.6,5.39-.94,6.25-4,.06-.22.1-.44.14-.66A6.16,6.16,0,0,0,448.89,401.24Zm-34.74,9.44v-.07a.73.73,0,0,1,.09.08Zm-32-1.8s0-.08,0-.12l.07.07Zm50.17-17.39a1.21,1.21,0,0,0,.08.25l-.29-.15Zm-62.84-11-.1,0,.12-.31C369.53,380.26,369.53,380.37,369.52,380.48Zm-12.65-4.93c-.07.19-.13.39-.2.6a.27.27,0,0,0-.08-.07l.18-.34A1.14,1.14,0,0,1,356.87,375.55Z" transform="translate(-65 -62.98)"/><path class="cls-1" d="M350.75,320.39c1.91-.87,1.57-3.37,0-4.32s-2.74-.78-4.2-2c-1.24-1-2.42-2.17-3.63-3.21,0-.11,0-.22-.06-.3-.53-2.8-5.19-2.11-5.25.6a2.32,2.32,0,0,0-.05,1.86c-.15,3.9-.86,8.51-2.69,11.76-1.6,2.84,2.85,5.29,4.63,2.52,1.54-2.39,3.82-3.78,6.44-5C348,321.35,349.1,321.14,350.75,320.39Zm-2.12.34c.08,0,.09.06,0,0Z" transform="translate(-65 -62.98)"/><path class="cls-1" d="M484.25,385.76a2.61,2.61,0,0,0-1.95.83,2.75,2.75,0,0,0-.8.57,28.84,28.84,0,0,1-4.71,4c-3.51,2.36-5.59,2.27-9.55,1.19a18.65,18.65,0,0,0-10.29,0,3,3,0,0,0-.36.15l-.5,0c-3.42.23-3.45,5.23,0,5a54.78,54.78,0,0,1,7.79-.18c2.47.2,7.28,1.75,8.62,3.88a2.52,2.52,0,0,0,1.75,1.17,2.44,2.44,0,0,0,2.49-.14,18.94,18.94,0,0,1,2.23-.91,14.69,14.69,0,0,0,1.88-1.21c.72-.46,1.32-1,2-1.48.35-.26.68-.47,1-.71l.18-.09a2.54,2.54,0,0,0,.89-.67,2.25,2.25,0,0,0,1.44-2.16c0-2.3.36-4.52.57-6.8C487.06,386.91,485.61,385.76,484.25,385.76Z" transform="translate(-65 -62.98)"/><path class="cls-1" d="M507.52,340.63c-.07-1.13.22-2.38-.18-3.48-.83-2.29-3.39-2.33-5.42-1.54a22.07,22.07,0,0,1-6.74,1.71c-.39,0-.75,0-1.11,0-.06,0-.11-.12-.18-.17-1.77-1.29-4.51-.56-4.57,1.77a3.23,3.23,0,0,0,.16,1.1,2.4,2.4,0,0,0,.62,1.28,5.09,5.09,0,0,1,.26.57c.41,1.05.15,2.26.23,3.36a2.76,2.76,0,0,0,4.58,1.77c1.13-.95,1.71-1.87,3.23-2.35a6.81,6.81,0,0,1,5.1.23,2.78,2.78,0,0,0,3.94-1.49A5.81,5.81,0,0,0,507.52,340.63Z" transform="translate(-65 -62.98)"/><path class="cls-1" d="M416.81,267.94c0,.89-.05,1.78,0,2.67a2.72,2.72,0,0,0,4,2.16,19.48,19.48,0,0,1,3.91-2,3.14,3.14,0,0,1,1.69-.19q.82,0,.21.57c-.05.55-.78,1.31-1.13,1.76-1.77,2.25-4.63,3.37-6.36,5.51a2.09,2.09,0,0,0-.51,1.22,2.4,2.4,0,0,0-.29,1.11c0,.9-.15,1.8-.14,2.7a6.75,6.75,0,0,1-.19,2.1c0,.07,0,.14,0,.21-.24.5-.47,1-.68,1.53-1.22,3,4,4.31,5.17,1.33,1.41-3.46,3.89-6.55,6-9.66s4-6.8,6.75-9.38a2.19,2.19,0,0,0,.27-3.11,2.52,2.52,0,0,0-2.31-1.43c-1.09,0-2.15.23-3.23.17-1.25-.06-2.44-.3-3.7-.3-2.58,0-5.07-.64-7.65-.18a2.15,2.15,0,0,0-1.79,2.94A2.23,2.23,0,0,0,416.81,267.94Z" transform="translate(-65 -62.98)"/><path class="cls-1" d="M388.14,273.45c.5.48,2.05,2.75,3.16,3.74a18,18,0,0,0,5.33,3.2c4.17,1.67,9.92,1.51,13.24,4.66a2.8,2.8,0,0,0,1,.61c1.67.93,4.27.28,4-2,0-.16-.14-.76-.22-1.13a5.25,5.25,0,0,0-.43-1.63c-.77-1.48-2.77-2.53-4-3.67-3.07-2.86-6.47-5.1-8.45-8.84a2.26,2.26,0,0,0-1.7-1.23,2.93,2.93,0,0,0-.76-.14c-.91,0-1.81-.48-2.75-.51a14.66,14.66,0,0,0-3,.41,15.47,15.47,0,0,0-2.52.53c-.81.29-1.61.85-2.27,1.12a2.26,2.26,0,0,0-1.28,2.39A2.22,2.22,0,0,0,388.14,273.45Z" transform="translate(-65 -62.98)"/><path class="cls-1" d="M406.44,270a21.45,21.45,0,0,1,1.93,1.75,4.25,4.25,0,0,0,2.46,1.68,3,3,0,0,0,2.61-.64,2.49,2.49,0,0,0,.69-2.43,6.45,6.45,0,0,0-.48-1.22s0-.16-.07-.23-.13-.36-.2-.54-.07-.21-.08-.24a1.85,1.85,0,0,1,0-.23,4,4,0,0,0-.29-1.41,3.06,3.06,0,0,0-2.52-1.77,3.22,3.22,0,0,0-.93,0l-.48.06c-.39.05-.74.18-1.11.23a3.35,3.35,0,0,0-1.52,5Z" transform="translate(-65 -62.98)"/><path class="cls-2" d="M445,342.3l-.13-.09C444.81,342.18,444.82,342.19,445,342.3Z" transform="translate(-65 -62.98)"/><path class="cls-2" d="M376.85,326.16l.19-.25c-.08.08-.14.16-.21.24Z" transform="translate(-65 -62.98)"/><path class="cls-2" d="M489.14,377c0-2.94-.11-5.83-.29-8.72a.5.5,0,0,0,0-.12c0-6.55,0-12.91-1.08-19.38-.56-3.35-.48-11.15-4.37-13a3.37,3.37,0,0,0-.7-.23c-1.66-1-3.8-.73-5.73-.52-3.63.38-7.21.68-10.88.8-7.6.23-13-4.36-19.15-7.76a2.49,2.49,0,0,0-1.81-1.64,2.76,2.76,0,0,0-3.3,1.75c.14-.47,0,0-.08.16l-.3.52c-.26.44-.51.9-.79,1.34a5.17,5.17,0,0,0-1.12,2.74,2.58,2.58,0,0,0,1.3,2.14,20.74,20.74,0,0,1,2.26,2.61,2.41,2.41,0,0,1,.18.36,3.59,3.59,0,0,0,0,.42c.07.65.09,1.23.21,1.91a1.89,1.89,0,0,0,.49.92,2.42,2.42,0,0,0,.86.89c.22.09,1.19.59,1.32.66-.55-.29.84.59.84.59a12.82,12.82,0,0,1,2.49,2.39c1.3,1.55,2.88,3.88,4.82,4.78a3,3,0,0,0,.72.22,2.79,2.79,0,0,0,3.77-.74c1.11-1.63,9.47-7.84,11.07-3.69.75,1.93-2.48,2.91-3.83,3.83-1.53,1.05-3,2.47-4.59,3.36a2.36,2.36,0,0,0-.51,3.86,2.13,2.13,0,0,0,1.33,1.48c.71.32,4.34,3.46,5.73,4.52,2.07,1.58,4.17,3.06,6.37,4.47a54.45,54.45,0,0,0,5.24,2.77c.68.34,2.75,1,3.15,1.58,1.18,1.73-2.11,2.29-3.34,2.25a2.67,2.67,0,0,0-1.44.34A2.48,2.48,0,0,0,476,377.3c0,.07.1.78.18,1.31a2.05,2.05,0,0,1-2.16,0c-1.26-1.07-.86-3.91-1-5.29a3.13,3.13,0,0,0-.56-1.44s0-.06,0-.09a2.57,2.57,0,0,0-2.36-2.45l-.07-.06-.66-.41c-.34-.23-.86-.53-1.12-.71a17.28,17.28,0,0,1-2.48-2.11,2.66,2.66,0,0,0-4.42,2.53,2.07,2.07,0,0,0,.35,1.78c.87,1.29.85,3.34,1.22,4.8.22.89,1.14,1.86.28,2.41-1.13.72-3.1-1.93-3.54-2.61-1.41-2.21-1.57-5-2-7.48-.25-1.6-.92-3.79-.69-5.49a2.21,2.21,0,0,0,.11-2.61,16.89,16.89,0,0,0-1.08-1.52l-.11-.12-.05-.08a2.72,2.72,0,0,0-3-1.8,2,2,0,0,0-1.88,1.19,2.51,2.51,0,0,0-.37,1.53,4.13,4.13,0,0,1-.36.9c-.12.22-.51.61-.75,1a8.56,8.56,0,0,0-1.07-.89,16.43,16.43,0,0,1-.47-3,20.69,20.69,0,0,0,.69-3.94,2.09,2.09,0,0,0-.45-1.54c-.78-2-4.43-2.5-5.09.1a18.37,18.37,0,0,0-.51,4.92,8.1,8.1,0,0,0-.1,3.07,6.24,6.24,0,0,0,1,2.58A18.87,18.87,0,0,0,446.2,367c4,5.4,4.78,13.18,3.62,19.73,0,.13,0,.25,0,.37a2.77,2.77,0,0,0,4,3c5.55-2.63,11,0,16.78-1.15,6.17-1.19,10.11-6.36,15.61-8.81a2.36,2.36,0,0,0,1.93-.81l.23-.24a2.46,2.46,0,0,0,.47-.77A2.32,2.32,0,0,0,489.14,377ZM451.7,365.51c0,.13,0,.26.05.38a3.46,3.46,0,0,1-.22-.31Zm15.62-9.23-.38-.32.26-.21A2.12,2.12,0,0,0,467.32,356.28Zm6.81,5.25c-.95-.66-1.89-1.33-2.81-2C472.27,360.17,473.18,360.86,474.13,361.53Zm.27.19c1.2.82,2.51,1.58,3.77,2.38-.91-.51-1.82-1.05-2.71-1.65Z" transform="translate(-65 -62.98)"/><path class="cls-2" d="M464.07,400.83a32.39,32.39,0,0,0-7.58-1c-1.7-.38-3.95.92-3.47,3.06V403a2,2,0,0,0,.4.79s0,0,0,0c.07,10.2-15.54,9.14-22.17,13.56a2.53,2.53,0,0,0,2.07,4.57,130.77,130.77,0,0,0,34-13.83,2.51,2.51,0,0,0,1.1-1.25,2.44,2.44,0,0,0,1.35-2C470,402.15,466.15,401.42,464.07,400.83Z" transform="translate(-65 -62.98)"/><path class="cls-2" d="M421,312.68c2.52,1.6,4.63,3.35,7.45,4.61,2.45,2,4.5,4.32,4.55,6.42a2.32,2.32,0,0,0,1.15,2,2.85,2.85,0,0,0,3,1.11l.09,0a2.57,2.57,0,0,0,1.88-1.75c0-.17.11-.34.15-.51h0a5.08,5.08,0,0,1,.49-.85,4.5,4.5,0,0,0,.94-1.64,2,2,0,0,0,0-.34,2.22,2.22,0,0,0-.62-2.43,30.1,30.1,0,0,0-8-5.93l-1.32-.56a44.62,44.62,0,0,0-4.92-3.28l-.46-.25a2.62,2.62,0,0,0-1-1.24,68.83,68.83,0,0,0-6.19-4c-1.59-.87-4.26-1.79-4.67-3.62a2.73,2.73,0,0,0-3.1-3.73,58.85,58.85,0,0,0-6.07,1.46c-2.29.65-5.17,1.49-6.89,3.11a2.24,2.24,0,0,0,0,3.38,2.39,2.39,0,0,0,2.28,1.22,4.67,4.67,0,0,1,2.48,1.23,6.7,6.7,0,0,1,2.14,2.65,2.79,2.79,0,0,0,3.3,1.75,2.67,2.67,0,0,0,1.09-.6C412.46,309.89,417.41,311.16,421,312.68Z" transform="translate(-65 -62.98)"/><path class="cls-2" d="M376.57,322.43a2.84,2.84,0,0,0-2.49-.38,3,3,0,0,0-1.16.29c-3.8,1.78-6.68-.18-10.07-1.24a2.67,2.67,0,0,0-2.08-.33,2.17,2.17,0,0,0-2.9,1.72c.27-1.76-2-.06-2.93.19-1.16.3-2.3.48-3.46.84a27.52,27.52,0,0,0-6.94,3.79,117,117,0,0,1-10.43,6.46,2.31,2.31,0,0,0-1.28,1.74l0,.06c-1.94,3-2.89,8.38-3.1,11.84-.05.76-.06,1.56-.05,2.37a6.33,6.33,0,0,0-.38,1.05,5.57,5.57,0,0,0,.86,4,20.38,20.38,0,0,0,.82,3.19,2.87,2.87,0,0,0,1.17,2.33c2.19,1.5,4.91,1.75,7.56,1.74a6.88,6.88,0,0,0,3.91,1.08,7.25,7.25,0,0,0,5.39-2,8.92,8.92,0,0,1,2.11-.28,2.45,2.45,0,0,0,2.29-1.29,2.8,2.8,0,0,0,.27-.4c1.64-3.12,4.61-5.39,7.69-7.2,2.64-1.56,6.74-4,9.94-4.34a3,3,0,0,0,1.28-.46,2.83,2.83,0,0,0,1.78-1.71c.41-1.08.51-2.3.92-3.47s.64-2.1,1-2.92c.55-1.25-.6-2.75-1.88-3.08a2.9,2.9,0,0,0-.64-.09,2.52,2.52,0,0,0-2.56.62c-2.75,2.61-5.7,5-8.63,7.45s-7.12,6.07-11.11,6.39a3,3,0,0,0-.94.24,2.51,2.51,0,0,0-2.15.72c-1.51,1.45-1.64,3.46-2.5,5.23-1.05.2-2.12.41-3.18.56,0-.07,0-.13.06-.22a.09.09,0,0,0,0-.05c1.35-1.49.74-4.32-1.87-4.12a10.8,10.8,0,0,0-2.57.54c-.75.23-1.62.87-2.38.51a1.51,1.51,0,0,1-.6-.55q-.15-1.14-.21-2.28a1,1,0,0,1,.26-.18,2.18,2.18,0,0,0,1.32-1.6,2.43,2.43,0,0,0-.72-3.61c.76.46,0,.11.14-.28a5.55,5.55,0,0,1,2.29-1c1.43-.09,2.49,1.25,3.34,2.09l.06.05h0l.08.11a2.72,2.72,0,0,0,2.32,1.24,19.59,19.59,0,0,0,3.54-1.17,11.64,11.64,0,0,0,2.58-.84A12.65,12.65,0,0,0,356,345a2.44,2.44,0,0,0,.28-.14,2.49,2.49,0,0,0,.64-4.91c-2.31-.64-4.8-1-7.16-1.59-1.91-.5-7.3-.83-3.91-3.39,1.8-1.37,7.06.62,9.24,1.09,1.94.42,4.84.23,6.54,1.29a2.41,2.41,0,0,0,3.22-.45,2.06,2.06,0,0,0,.44-.23,36.72,36.72,0,0,0,3.39-2.82c.56-.49,1.12-1,1.7-1.46a7.46,7.46,0,0,1,.8-.54c.1-.06,1.05-.49.57-.44a3.66,3.66,0,0,0,1.62-.58,3.44,3.44,0,0,0,1.29-1,15.22,15.22,0,0,0,1.29-2.25c.19-.35.43-.66.61-1,0-.07.07-.14.09-.18l.18-.2h0a3.33,3.33,0,0,0,.25-.28l0,0,.23-.25A2.37,2.37,0,0,0,376.57,322.43Z" transform="translate(-65 -62.98)"/><path class="cls-3" d="M506.72,351.57c-1.2-2-3.73-4.18-6.42-3.44a6.39,6.39,0,0,0-2.86,2,22.18,22.18,0,0,0-2.3,2.35,2.45,2.45,0,0,0-.28.49,2.31,2.31,0,0,0-1.48,2.18c0,4.77.95,9.54.75,14.36-.1,2.24-.55,4.45-.69,6.69-.17,2.67-.27,3.52-2.48,5.4a6.38,6.38,0,0,0-.88,2.39,12.49,12.49,0,0,1-.44,2.91c-.74,2.65,3.56,4.57,4.9,1.93,2.76-5.45,6.22-10.33,8.52-16a54.27,54.27,0,0,0,3.73-18.92A2.17,2.17,0,0,0,506.72,351.57Z" transform="translate(-65 -62.98)"/><path class="cls-3" d="M504.82,329.83a2.08,2.08,0,0,0,1.37-2,2.4,2.4,0,0,0,.05-1.2c-.8-4-2.77-7.51-4.52-11.21s-4.81-7.32-6.17-11.3a2.77,2.77,0,0,0-5.13-.08,2.71,2.71,0,0,0-.89.59v0A45.37,45.37,0,0,1,468,315.66c-.9.17-8.17,1.6-8-1.08.12-1.61,5.36-2.06,6.7-2.45A29.51,29.51,0,0,0,473.9,309l.42-.16c1.18-.45,2.28-1.06,3.42-1.6s3.05-2.05,4.36-2.31a2.24,2.24,0,0,0,1.71-1.2,2.63,2.63,0,0,0-1.95-4.32c-10.83-.7-21.64-1.12-32.52-1.14a2.41,2.41,0,0,0-2.44,1.65,2.93,2.93,0,0,0-.77.49c-1.76,1.58-2.41,4.08-5.05,5-1.64.57-2.54,0-3.61-1.14-.42-.44-.53-.77-.64-.76a4.69,4.69,0,0,1,1.27-1.28,3.79,3.79,0,0,0,.43-.34,2.49,2.49,0,0,0-1.31-4.67c-1.51,0-4-.16-2.2-1.91,1.05-1,3-.76,4.39-.72,2.33.07,4.77-.06,7.1.06a3.15,3.15,0,0,0,3.12-1.07,2.33,2.33,0,0,0-.53-3.82c-2.45-1.33-6.46-1.68-8.17-3.8-3.52-4.36,4.92-2.85,7.33-1.71a57,57,0,0,1,9.33,6.11c2,1.46,4.51,2.61,6.18,4.33A2.7,2.7,0,0,0,466,295.8a3.31,3.31,0,0,0,1-.12,2.41,2.41,0,0,0,1.07-.05c2.34.55,4.48-2.43,2.51-4.22l-.07-.06a2.9,2.9,0,0,0-.6-.41c-3.41-2-6.21-4.54-9.41-6.84-1.67-1.2-3.75-2.27-5.31-3.57-.37-.31-1.41-.66-1.62-1.09-1.83-3.65,2-2.2,3.16-1.69,2,.86,3.57,2.46,5.46,3.5a37.7,37.7,0,0,1,6.59,4.41c3.1,2.64,6.88,4.72,9.46,7.85a3.11,3.11,0,0,0,.45.44,2.82,2.82,0,0,0,2.33,1.32c-.33,0-.34-.06,0,0a7.46,7.46,0,0,0,.95.1h.91c.1,0,.62,0,.61,0,.38,0,.75.09,1.13.1a3.07,3.07,0,0,0,.6-.07,2.3,2.3,0,0,0,2.19-1.26l.05-.11a2.46,2.46,0,0,0-.41-3c-2.65-2.52-5.93-4.4-8.87-6.61-3.89-2.92-7.66-6.12-11.82-8.7-5.95-3.7-13.55-7.49-20.83-7.93a2.64,2.64,0,0,0-1.3.23,2.78,2.78,0,0,0-1.37.29c-5.52,2.64-9.54,8.52-12.17,13.57-3,5.79-5.2,10.67-10.46,15.57a2.38,2.38,0,0,0-.76,1.37,1.91,1.91,0,0,0,.58,2.7c4.36,3.28,9.43,5.4,13.69,8.93s8.17,7.2,12.43,10.61c4,3.2,7.54,6.46,12.4,8.48,3.58,1.5,6.61,1.48,10.2,1.3a2.57,2.57,0,0,0,1.38.25c7.07-.49,13.63.51,20.54,1.59C496.55,333.55,499.67,332.16,504.82,329.83Zm-9.05-13.77c-.44-.74-.9-1.49-1.28-2.24l1.32,2.23ZM467.1,295.63Z" transform="translate(-65 -62.98)"/><path class="cls-3" d="M409.19,288.26H409s-.24-.08-.63-.26-.91-.29-1.34-.45c-1.14-.43-2.13-1.15-3.3-1.51a20.93,20.93,0,0,0-5.27-.57,2.16,2.16,0,0,0-1.31-.79l-.07,0a2.78,2.78,0,0,0-3.3,1.75,2.43,2.43,0,0,0-.08.54c0,.09-.1.18-.14.27-.27.5-.54,1-.76,1.51l-.16.45c.07-.2.13-.33,0-.05,0,.08-.05.12-.06.14l-.17.21s-.59.66-.27.33a2.65,2.65,0,0,0-.7,1.29,2.53,2.53,0,0,0-.07,2.58,1.92,1.92,0,0,0,.25.38,2.79,2.79,0,0,0,.54.65c.09.17.19.32.29.48s.14.27.23.39a3.82,3.82,0,0,0,.9,1.52,2.82,2.82,0,0,0,3.66.11,2.78,2.78,0,0,0,.48-.44,11.71,11.71,0,0,1,3.95-3.25c2.12-1,5.17-.31,7.49-.26v0a5.83,5.83,0,0,0,.72-.06C413,292.71,412.1,288.33,409.19,288.26Z" transform="translate(-65 -62.98)"/><path class="cls-3" d="M373.23,279.22c4.85,1.33,8.09,5.21,11.88,8,1,.76,2.82,1.16,3.79,0a17,17,0,0,0,2.17-3.73,2.46,2.46,0,0,0-1.57-3.62,3.29,3.29,0,0,0-.7-.64c-.86-.59-1.77-2.12-2.63-3a13.93,13.93,0,0,1-2.58-3.84c-.57-1.24-2.53-1.52-3.67-.89l-.08,0a25.17,25.17,0,0,0-2.93,1.49,11.94,11.94,0,0,1-1.57.76c-.26.09.23-.11-.22,0-.29.09-1.63.5-.47.41a4.34,4.34,0,0,0-.52.08C371.2,274,370.1,278.36,373.23,279.22Z" transform="translate(-65 -62.98)"/><path class="cls-3" d="M354.64,290.83c5,0,10,1.32,15,1.5,2.75.1,10.13,1.18,11-2.46a2.52,2.52,0,0,0-1.23-2.83c-2.21-1.27-4.65-2.14-6.8-3.49a52.15,52.15,0,0,0-4.67-2.88,2.45,2.45,0,0,0-1-1.1,3.25,3.25,0,0,0-3.5.27c-1.31.73-2.71,1.37-4,2.16-2.36,1.42-4.81,2.83-7.1,4.33C349.59,288.1,352,292.15,354.64,290.83Z" transform="translate(-65 -62.98)"/><path class="cls-3" d="M396.81,307.6c-4.23-1.05-7.5,1.07-11.37,2.19a31.2,31.2,0,0,1-6.94.82c-3.42.23-6.62,1.11-10,1.62l-.54.08A43.17,43.17,0,0,1,362.1,311a3.87,3.87,0,0,1,.25-.92c.14-2.68,1.42-2.72,3.88-3,3-.32,6-.2,9.06-.5,4.42-.43,9-.33,13.06-2.29a2.62,2.62,0,0,0,.8-.58h0c2-1.22,1.67-3.9.44-5.54l-.3-.37c0,.06,0,0,0-.05a4.7,4.7,0,0,0-.6-.75,5.07,5.07,0,0,0-1.46-1,4.08,4.08,0,0,0-2.23-.47c-2.85-.55-6.34.46-9.19.78a97.4,97.4,0,0,1-11.33.35c-6.09,0-11.64-3.73-17.8-2.91a2,2,0,0,0-1.86,1.42,1.37,1.37,0,0,0-.19.23,6.34,6.34,0,0,0-.51,1.16c-.16.4-.53,1.06-.74,1.58-.27.69-.53,1.39-.8,2.08a2.25,2.25,0,0,0-1.08,3.38c1.69,2.6,5.07,4.28,7.55,6.19a34.56,34.56,0,0,0,7.73,4.71c2.24,2.36,5.09,3.06,8.12,3.05,4.5.62,11,2.07,15.29,0a2.31,2.31,0,0,0,2.9.13c4.21-2.75,7.8-4.76,13-5.1C399,312.32,399.88,308.35,396.81,307.6Zm-41.2.4,0,.05-.08-.06Z" transform="translate(-65 -62.98)"/><path class="cls-3" d="M347.2,366.23a20.06,20.06,0,0,0-4.53.71c-1.46-.21-2.92-.44-4.38-.59-.57-.07-1.12-.17-1.65-.23-1.91-2-5.39-.12-4.51,2.44a2.27,2.27,0,0,0,.73,1.54c.07.16.16.32.23.47a1.86,1.86,0,0,0,.6,1.35,40,40,0,0,1,1.53,4.19,17.9,17.9,0,0,0,3,6.26,2.25,2.25,0,0,0,1.52.84,3,3,0,0,0,1.2,0l.08,0a2.56,2.56,0,0,0,1.87-1.74,28.14,28.14,0,0,1,6.23-10.95A2.52,2.52,0,0,0,347.2,366.23Z" transform="translate(-65 -62.98)"/><path class="cls-4" d="M635.33,293.44l0,0h0Z" transform="translate(-65 -62.98)"/><path class="cls-3" d="M600.62,572.49c-.19,0-.14,0,0,0Z" transform="translate(-65 -62.98)"/><path class="cls-5" d="M644,432c-.12-.44-.07-.2,0,0Z" transform="translate(-65 -62.98)"/><path class="cls-3" d="M612.65,586.2c-1.34,1.92-.77,4.46-1,6.65-.28,3.3-.78,6.59-1.05,9.89-.51,6.12-2.24,12.08-1.9,18.25.32,5.78,1.45,11.65,2.15,17.41a71.44,71.44,0,0,1,.53,7.31c0,2.11.65,5.69.18,8.11a1.93,1.93,0,0,0-.3,2.11l.06.14a2.76,2.76,0,0,0,5.16,0c1.51-4,.38-10.24,0-14.37-.46-5.43-1.19-10.84-1.86-16.26-.79-6.35-.12-11.85.75-18.14.43-3.1.64-6.21,1-9.32.23-2,.65-4,.75-6.06a13.3,13.3,0,0,0-.09-1.34,4.62,4.62,0,0,0,.54-3.12A2.74,2.74,0,0,0,612.65,586.2Z" transform="translate(-65 -62.98)"/><path class="cls-3" d="M181.65,357.1a12.65,12.65,0,0,0-2.68,0h-.16c-8.27.68-16.27,4.63-19.34,12.16s1.17,16.19,8.06,20.56c12.87,12.86,33.55-3.09,29.08-18.71C194.4,363.41,190,357.55,181.65,357.1Z" transform="translate(-65 -62.98)"/><path class="cls-3" d="M167.75,322.53c-.43-4-2.05-7.49-3.05-11.32-1.31-5-1.09-10.17-1-15.26.16-9.89,2.67-19.46,6.19-28.76,1.66-4.38,3.47-8.71,5.18-13.07,1.6-4.11,1.5-8.37,2-12.67,1.9-15.68-4.89-34.89-18.86-44.62-7.91-5.51-17.46-9.49-27.51-8.83a150.55,150.55,0,0,0-15.38,2.32c-5,.86-10.24,1.79-14.93,3.72s-9.13,4.32-13.53,6.53a57.46,57.46,0,0,0-8.79,4.92,3,3,0,0,0-.74.36c-5.3,3.75-10.79,8.85-12.08,15.18s1.92,11.72,8.61,13.66c2.69.78,4.64.06,6.66-1.65a59.06,59.06,0,0,1,11.79-8.15c3.19-1.58,6.54-2.49,9.84-3.82,5.11-2.06,9.53-4,15.22-4.19,4.4-.11,10.31.06,13.92,2.74,3.76,2.79,7.06,7.68,9.34,11.56,5.4,9.18.06,19-2.74,28.16a107.34,107.34,0,0,0-3,49.68c1.29,7.37,2.5,15.29,7.23,21.59,3.71,4.95,10.43,8.17,16.62,5.7S168.43,328.78,167.75,322.53Zm-37.58-112.7s0,.06.05.08l-.38-.12Zm14.11,55.25-.09-.05.24-.65Zm22.19-50,.1-.17c.35.7.7,1.4,1,2.11C167.22,216.37,166.86,215.72,166.47,215.08ZM86.72,206.6c-.57.19-1.13.39-1.69.6.59-.31,1.19-.62,1.8-.92C86.79,206.39,86.75,206.49,86.72,206.6Zm-10,22.9a3.21,3.21,0,0,1-1.1.18,15.67,15.67,0,0,0,2.49-1.55l.76-.33A7.8,7.8,0,0,1,76.76,229.5Z" transform="translate(-65 -62.98)"/><path class="cls-3" d="M849.41,408.73a15.81,15.81,0,0,0-13.4,4.14c-5.92,5.73-7.2,13.81-1.36,20,4.85,5.11,15.55,7.57,21.24,2.12,5.47-5.22,7.91-15.65,2.68-21.65A12.86,12.86,0,0,0,849.41,408.73Z" transform="translate(-65 -62.98)"/><path class="cls-3" d="M922.84,314.43c-1.4-13.51-8.19-23.09-21.19-29-7-3.2-15.41-4.31-23-6.17a23,23,0,0,0-10.23.09,37.47,37.47,0,0,0-5.92.17c-3.15.31-5.7,1-7.5,3a8.93,8.93,0,0,0-5.08,5.49c-1.29,3.43-1,8.56,2.28,11,4.26,3.21,12.55,1,17.56,1,6.66.05,14.68,1.83,19.67,6.23,14.12,12.44-2.54,29.59-13.63,37.42-4.24,3-9.26,4.77-13.42,7.92s-7.32,7.6-9.91,12.08c-5.27,9.08-12,23.66,2.69,28.32,5.6,1.77,9,0,12.27-4.35,4.54-6,6.62-13.19,12-18.7,4.29-4.36,9-8.78,14.75-11.5,6.43-3.06,12.35-5.16,17.17-10.5C919.1,338.51,924,325.44,922.84,314.43Zm-41.58-24.76c.76.19,1.53.41,2.29.67-.6-.17-1.21-.3-1.82-.44Zm25.73,18-.06-.19c0,.06.09.12.13.19Zm1.66,9.46v-.06h0S908.65,317.09,908.65,317.11ZM874,353.64a2.8,2.8,0,0,0,.34.21,4.22,4.22,0,0,0,1.61.33l-.34.31a2.6,2.6,0,0,0-2.24-.38l-.19.07Zm36.74-14.27a3,3,0,0,0-.22-1.24,14.7,14.7,0,0,0,2.45-2.6A40.79,40.79,0,0,1,910.73,339.37Z" transform="translate(-65 -62.98)"/><path class="cls-5" d="M642.87,404.49c3.8,3.46,8.61,1.72,13.07,3.13,4.84,1.53,8.41.91,12.25-2.39a2.07,2.07,0,0,0,.68-2.45,2.51,2.51,0,0,0,0-1.06c-1.83-9.41-1.45-19-3-28.41s-3.23-18.86-5.38-28.14c0,0,0-.05,0-.08a3.38,3.38,0,0,0,.17-3.32,2.79,2.79,0,0,0-3-1.15c-3.47,1-6.4,4.35-8.36,7.05-1.63,2.24-5,5.94-6.54,9.23s-3.21,6.33-3.21,10a12.32,12.32,0,0,1-1.66,7.05c-1.05,1.9-2.51,3.48-3.25,5.51-1.61,4.45-.56,8.61,2,12.54S639.38,401.31,642.87,404.49Zm5.41-3a4.36,4.36,0,0,1-2.17-1.6A22.36,22.36,0,0,0,648.28,401.5Z" transform="translate(-65 -62.98)"/><path class="cls-5" d="M606.13,302.93s-.13,0-.44,0a11.6,11.6,0,0,0-1.56,0,1.86,1.86,0,0,1-1-.23l-.44-.17A2.68,2.68,0,0,0,597.9,304a3,3,0,0,0,.73,1.77,3.83,3.83,0,0,0,.58.76l.06.06a2.14,2.14,0,0,0,.15.94c.08,2.19-.08,4.06,1.44,6.05a14.41,14.41,0,0,1,3.07,6.15,2.16,2.16,0,0,0,1,1.47,2.23,2.23,0,0,0,2.59.58,7.58,7.58,0,0,1,2.56-.39,2.75,2.75,0,0,0,2.58-1.84,13,13,0,0,1,1.53-3.08,2.45,2.45,0,0,0-1-3.42c-1.08-.59-1.3-2-1.71-3.08s-.93-2.38-1.3-3.56a2.87,2.87,0,0,0-.25-.56,2.57,2.57,0,0,0-3.21-3.18A4,4,0,0,0,606.13,302.93Zm2.44,12.83a.3.3,0,0,0,0,.08l-.09-.22Z" transform="translate(-65 -62.98)"/><path class="cls-5" d="M601,277.72c.2,3.19,5.36,3.25,5.36,0,0-2.39-.13-4.82,0-7.21s.91-4.36.42-6.63a28,28,0,0,0-3.59-8.75,2.52,2.52,0,0,0-.21-.25c-.3-.77-.67-1.52-1-2.21-.89-1.91-4.53-1.45-4.9.6-.46,2.62,1,5.59,1.71,8.1A86,86,0,0,1,601,277.72Z" transform="translate(-65 -62.98)"/><path class="cls-5" d="M589.55,346.72a2.45,2.45,0,0,0-2.11-1.21,2.71,2.71,0,0,0-2.21.16c-7,3.52-16.22,2.1-23.46.06a61.74,61.74,0,0,1-10.08-4c-2.47-1.19-4.4-3.14-6.83-4.26-.18-.35-.35-.69-.51-1.05-1.06-2.41-5.34-2.39-5.26.67a18.21,18.21,0,0,0,1.72,7.52,6.61,6.61,0,0,1,1.23,2.58c.12,1.38-.81,3-1.36,4.25a1.85,1.85,0,0,0,.24,2.08,2.85,2.85,0,0,0,4.23.66c4.14-3.53,7-.23,10.93.91,3.51,1,5.59-.51,9-.64,6.45-.26,11.25,9.26,14.22,13.67a2.67,2.67,0,0,0,3,1c1.56.11,3.16-.84,2.88-2.4,0-.09.12-.2.22-.35s.3-.47.44-.71c.5-.9,1-1.77,1.55-2.65a15,15,0,0,0,2.49-6.34,2.19,2.19,0,0,0-.06-.78,2.08,2.08,0,0,0-.38-1.32,10.07,10.07,0,0,1,.08-3.92C589.9,349.37,590.35,348,589.55,346.72Zm-29.88,3.88a2.6,2.6,0,0,0,.1-.25l.62.18Z" transform="translate(-65 -62.98)"/><path class="cls-5" d="M525.57,396a24.09,24.09,0,0,1,3.58,6,1.83,1.83,0,0,0,.13.24,2.48,2.48,0,0,0,.56,1.17c1.81,2.19,6.09,2.93,8.43,4.65,4,2.93,6.61,7.5,10.46,10.71.51.42,1,.83,1.56,1.23,1.67,1.21,2.27.73.94,2.75-1.77,2.68-3.77.4-5.69-1.15a30.2,30.2,0,0,1-7.54-9.23c-1.65-2.83-6.28-.31-4.63,2.52.28.49.57,1,.86,1.44a2.66,2.66,0,0,0,.29.71,14,14,0,0,1,1.87,3.75c.35,1.42.07,2.88.3,4.3a47.25,47.25,0,0,0,2.5,7.95,2.53,2.53,0,0,0,1.09,1.33,3,3,0,0,0,3.51.94l.48-.28.92-.42c1.58-.66,3.21-1.21,4.82-1.81,2.79-1,5.86-2.6,8.79-3.24a2.62,2.62,0,0,0,.8-.31,2,2,0,0,0,1.49-2.25c-.5-4.87-.23-9.89-.82-14.73-.36-2.92-1.79-7.35-4.7-8.82-4-2-9.06-.49-13.3-1-7-.92-7.2-7.9-12.6-10.13a18,18,0,0,0-5.39-4.15c-2.23-1.17-5.2,1.26-3.66,3.42C521.9,393.33,524.11,394.3,525.57,396Z" transform="translate(-65 -62.98)"/><path class="cls-5" d="M572.38,405.8s1-.72.84-.63a2.85,2.85,0,0,0,.88-1.46,2.52,2.52,0,0,0-1.87-3.08,4,4,0,0,0-2.74.4c-.1.05-.52.35-.7.48l-.24.16-.7.51c-.5.37-1,.76-1.49,1.12s-1.12,1-1.72,1.38a3.49,3.49,0,0,0-.47.37,2.3,2.3,0,0,0-.85,2.77v.08a2.63,2.63,0,0,0,2.68,2.5,7.94,7.94,0,0,0,3-1,7.84,7.84,0,0,0,2.14-1.59C571.68,407.19,572,406.29,572.38,405.8Z" transform="translate(-65 -62.98)"/><path class="cls-5" d="M667.08,410.79c-3.86.45-8,1.14-11.84.71a13.1,13.1,0,0,1-1.43-.52c-3.4-1.45-6.37-1.41-10-1.91-4.83-.68-12.23-1.64-16.6,1.3a2.46,2.46,0,0,0-1.15,1.87,11.08,11.08,0,0,0-3.24,3.19c-1.11,1.72-1.65,3.57-3,5.2a43.78,43.78,0,0,0-3.65,4.31,15.7,15.7,0,0,0-1.05,2c-2.3,1.37-3.84,3.37-3.15,6.17-2.81,3.28-8.2,2.13-12.23,2.13a2.7,2.7,0,0,0-1.49.41,2.56,2.56,0,0,0-2,2.1l-.23.37c-.08.13-.15.26-.24.39h0a2.6,2.6,0,0,0-.52.57A2.4,2.4,0,0,0,595,441c0,.06.05.1.07.15a2.41,2.41,0,0,0,1.8,1.75c1.79.51,2.75,3.15,4.13,4.21,2,1.5,3.87,1.48,6.19,2,5.18,1.09,8.75,4.51,14.55,4.36,4.13-.1,9.64-1.14,13.19-3.15,4.21-2.4,7.55-8,10.21-11.77a2.3,2.3,0,0,0,0-2.52l-.11-.15a3.64,3.64,0,0,0-.36-.41,5.92,5.92,0,0,0-.16-1.65.29.29,0,0,0,0-.09,7.24,7.24,0,0,0-.15-.87,4.65,4.65,0,0,0-.33-.8l0-.07v0a1.94,1.94,0,0,0-.17-.42,2.84,2.84,0,0,0-1.91-3.13l-.12,0a2.43,2.43,0,0,0-2.47.51c-3.21,1.35-6.07,3.09-9.58,3.71-1.85.32-3.74.66-5.61.86-2,.21-4.3.7-5.41-1.2,0-.08-.08-.16-.12-.23l.8-1.77c.67-.22,1.58-.34,2.47-.56,3-.75,6.2-.79,9.16-1.78,2.74-.91,5.5-2.1,8.11-3.27a2.67,2.67,0,0,0,.55-.33,2.82,2.82,0,0,0,1-.52c1.21-1,.92-1.86,1.11-3.19.74-5.09,3-5.83,8.47-4.95.93.15,1.83.26,2.72.36a15,15,0,0,0,5,1.56c3.38.26,6.61-1.22,9.83-1.9C670.67,415.09,670.11,410.44,667.08,410.79Zm-71,27.51a1.83,1.83,0,0,1,.78-.37A4,4,0,0,0,596.12,438.3Zm6.18,2.37-.43-.43h.54A3.25,3.25,0,0,0,602.3,440.67Zm23.79,7.2a22.05,22.05,0,0,1-4.42.47A31.9,31.9,0,0,0,626.09,447.87Zm-2.69-23.54.42-.43a2.61,2.61,0,0,0,.2.3Z" transform="translate(-65 -62.98)"/><path class="cls-5" d="M657.29,475.43c-1.37-.39-2-3.73-2.56-4.86-.41-.81-.72-1.68-1.18-2.45a12.62,12.62,0,0,1-1-2.6.52.52,0,0,0-.06-.13,21.09,21.09,0,0,0-1.12-9c-1.6-4.8-.77-8.48,1.22-13.06,1.29-3-3.89-4.28-5.17-1.33-1.55,3.58-2.9,6.9-2.42,10.84.62,5.16,2.87,8.89,1.92,14.21a2.58,2.58,0,0,0,1.55,2.8c.1.2.19.4.3.61a26.74,26.74,0,0,1,1.91,3.87c.7,2,1.44,3.77,3.05,4.92-.16,4.11-1.53,7.87-2.94,11.67a2.25,2.25,0,0,0-1.45,1.2c-2,3.82-5.3,6.73-8.27,9.85a2.58,2.58,0,0,0,3.25,3.93,30.22,30.22,0,0,1,4.79-1.9,6.43,6.43,0,0,0,2.67-1c1.51-1.35,1.86-4.08,2.45-5.84,2.09-6.21,4.88-12,4.88-18.65,0,0,0,0,0-.06A2.38,2.38,0,0,0,657.29,475.43Z" transform="translate(-65 -62.98)"/><path class="cls-5" d="M635.39,540.58c-3.21-.58-6.26-3.15-6.77-6.23-.44-2.68-.1-4.28-2.22-6.46s-5.12-2.3-4.72-6.06a10.46,10.46,0,0,1,1.73-3.49c1.68-2.44,3.82-4.63,5.54-7.08,1.93-2.77-2.59-5-4.63-2.53a111.69,111.69,0,0,1-11.81,11.82,3.09,3.09,0,0,0-2.45.68c-6,4.69,6,13.68,6.88,18,.56,2.64.69,5,2.12,7.41,1.17,2,2.93,3.47,3.85,5.59s.85,4.39.85,6.76c0,3.17,5.21,3.21,5.35.12,0-.08.06-.15.08-.23a28.81,28.81,0,0,1,3.4-7c1.18-2,2.26-4.49,3.81-6.29a2.44,2.44,0,0,0,.63-1.63A2.19,2.19,0,0,0,635.39,540.58Z" transform="translate(-65 -62.98)"/><path class="cls-5" d="M620.76,565.38c-.57,0-1.14,0-1.72.11-.39,0-.78.09-1.17.16s0,0-.49.05a2.87,2.87,0,0,0-2.48,1.52,2.21,2.21,0,0,0-1.09,1.39,2.67,2.67,0,0,0,.08,1.48v0c0,.17,0,.33,0,.49a2.73,2.73,0,0,0,.26,1.43,3.06,3.06,0,0,0,4.3,1.1,9.5,9.5,0,0,0,2-1.64c.32-.31.63-.63,1-.93l.34-.28s.4-.27.42-.27A2.5,2.5,0,0,0,620.76,565.38Z" transform="translate(-65 -62.98)"/><path class="cls-5" d="M582.12,489c-1.94-.18-3.56-1.32-5.27.28a4.41,4.41,0,0,0-.62.75,2.57,2.57,0,0,0-2.38,2.37,8.92,8.92,0,0,1-1.2,3.61c-.51.92-1.42,1.76-1.62,2.78a2.57,2.57,0,0,0,2.58,3.16c2.15.08,4.33-.41,6.47.2a2.69,2.69,0,0,0,3.39-2.41c.15-1.25-.32-2.55-.31-3.83,0-1.53,1-2.39,1.55-3.74C585.42,490.54,583.65,489.18,582.12,489Zm-6,11.28c-.14.23-.37.43,0,0Z" transform="translate(-65 -62.98)"/><path class="cls-5" d="M563.41,514.46c0,.14,0,.27.07.41a2.63,2.63,0,0,0-.4.72c-.47,1.34-2.24,2.87-3.3,3.82a9.55,9.55,0,0,1-4.22,2.42,2.35,2.35,0,0,0-1.82,1.69,23.07,23.07,0,0,0-3.35,6.78,25,25,0,0,1-3.45,7.56,2.5,2.5,0,0,0-1,2.72,2.58,2.58,0,0,0,1.92,2.83c1.23.43,2.69.23,3.95.64A19.47,19.47,0,0,1,555,545.5c1,1.83,4.84,1.4,5.11-1.28.71-6.89.3-15,5-20.67,3.1-3.76,4.71-5.64,3.47-10.42C567.76,510,562.59,511.33,563.41,514.46Z" transform="translate(-65 -62.98)"/><path class="cls-5" d="M530.21,556.84c4.36,2.22,7.81,5.75,12,8.14.15.08.3.14.44.2-.12,2.19,3.47,3.69,5,1.36,1.16-1.74.72-3.86,1-5.8a9.67,9.67,0,0,1,4.13-6.52,2.67,2.67,0,0,0-.57-4.66c-3.95-4.24-11.69-3.61-17-4.43-4-.63-7.45-3.13-11.68-2.77-3.3.27-6.59,1.8-9.7,2.83a2.54,2.54,0,0,0-1.68,1.58,2.24,2.24,0,0,0-.25,2.71c.67,1.17,1.21,2.41,1.9,3.56a2.39,2.39,0,0,0,1.39,1.07s0,0,0,.08c.82,3.68,5,5.39,7.8,7.59,1.62,1.25,3.13,2.48,4.59,3.75a2.83,2.83,0,0,0,.2.28,11.37,11.37,0,0,1,.94,1.5,24.2,24.2,0,0,1,3.56,9.61c.43,2.37.92,4.71,1.41,7.07.3,1.46.07,3.7.92,5,1.37,2.1,5.07,2.35,6.43.12.86-1.4.24-3.51.19-5-.1-3.21.73-5.89,1.64-8.92,2.44-.63,3.15-4.32.2-4.76-5.13-.78-7.18-4.9-10.78-7.87-2.11-1.74-4.29-3.47-6.45-5.14-.4-.3-4.91-3.18-5.06-4.64a6.55,6.55,0,0,1,1.74.37A55.8,55.8,0,0,1,530.21,556.84Zm13.27,2.91-.56-.36a2.67,2.67,0,0,0,.66-.26C543.54,559.34,543.51,559.54,543.48,559.75Zm-.55-9.23-.18.2a2.43,2.43,0,0,0-.29-.26Zm-20.25-2.8s0,.06,0,.09l-.07-.07Z" transform="translate(-65 -62.98)"/><path class="cls-5" d="M560.91,616c-1.48-2-1.89-4.66-2.09-7-.29-3.34.06-6.95-1.55-10a2.25,2.25,0,0,0-2.47-1.24h0c-5,.1-4,4.31-5.77,7.51a14.45,14.45,0,0,0-2.09,4.53c-.4,2.28.11,4.76.22,7.09a2.3,2.3,0,0,0,.52,3.82c.16.08.56,2,1.05,2.62a3.4,3.4,0,0,0,3.13,1.19A31.19,31.19,0,0,0,562.4,622a2.44,2.44,0,0,0,1-3.42C562.73,617.54,561.64,617,560.91,616Z" transform="translate(-65 -62.98)"/><path class="cls-5" d="M479.14,575.17a2.14,2.14,0,0,0-3.24.15,37.1,37.1,0,0,1-8.47,7.42,2.43,2.43,0,0,0-.3.24,2,2,0,0,0-1.22,2.77c.26.62.91,1.28,1.1,1.8a6.33,6.33,0,0,1,.1,3.24l-1.19,1.09.06,0a2.47,2.47,0,0,0-.84,1.65v.1a2.07,2.07,0,0,0,.07.71,2.46,2.46,0,0,0,0,.93,13.83,13.83,0,0,0,1.51,3.5c0,.18,0,.35.05.53.73,4.91,2.58,9.24,6.81,11.9,2.19,1.37,4.22-1.12,3.57-3a2.25,2.25,0,0,0-.33-1.2,31.92,31.92,0,0,1-2.09-4.63c-1-4.86-.23-11.68,4-12.38a2.11,2.11,0,0,0,1.87-1.58,1.93,1.93,0,0,0,.16-2,6.54,6.54,0,0,1-.3-4.38c.33-1.37,1.3-2.45,1.61-3.78A2.6,2.6,0,0,0,479.14,575.17Z" transform="translate(-65 -62.98)"/><path class="cls-5" d="M509.93,553.17c-.49-1.76-1.4-3.51-2-5.23a24.51,24.51,0,0,0-3.82-7.54c-3-4-6.65-9.41-11.59-11.55a2.85,2.85,0,0,0-2.75.21,2.49,2.49,0,0,0-2.34,1.74c-.88,2.71-.34,3.38,1.5,5.53,1.18,1.39,1.71,3.07,2.88,4.46a51.69,51.69,0,0,0,4.14,4.1c.66.61,4.25,3.82,3.22,4.83-1.53,1.51-5.5-2.59-6.32-3.42-2.28-2.29-4.4-4.52-6.54-6.92a2.36,2.36,0,0,0-1.44-.81,2.68,2.68,0,0,0-1.72-1.37,2.8,2.8,0,0,0-2.44.56l-.27.11c-.26.13-.5.28-.75.43-.46.28-.92.58-1.4.84a2.5,2.5,0,0,0-1.16,3.05v0c0,.22,0,.43,0,.64a7.25,7.25,0,0,0,3.25,7.27c1.31.89,2.44,1.3,3.47,2.57,1.15,1.43,1.54,3.17,2.65,4.61,3,4,7.55,2.09,12,2.65,4,.5,7.41,0,10.71-2.45a1.91,1.91,0,0,0,.86-2.1A2.33,2.33,0,0,0,509.93,553.17Z" transform="translate(-65 -62.98)"/><path class="cls-5" d="M484.84,476.43c.71,3.32,2.48,4.84,5.47,6.52,4.79,2.7,11.07,5.85,14.41,10.18,4.3,5.59,8.29,6.77,15.81,6.26a2.63,2.63,0,0,0,2.31-1.52,2.33,2.33,0,0,0,.6-1.08c-.4,1.57.2.58,1.75-.25.65-.35,1.31-.63,1.94-1,2.22-1.34,3.84-3.41,5.7-5.14,2.75-2.56,4.43-3.44,8.42-2.95,2.42.3,4.78.49,7.19.64a2.78,2.78,0,0,0,2.27.16,2.4,2.4,0,0,0,2.38-1.76c1.92-6.54-10-7.43-14.47-8.93-7.21-2.41-13.7-6.27-20.53-9.41-1.65-.76-3.86-1.61-4.74-3.2-1-1.87.64-1.14,2.57-1.13,4.32,0,9.14,3.71,13.22,5.24,4.81,1.81,9.47,3.48,14.12,5.65a51.36,51.36,0,0,0,9.72,3,2.39,2.39,0,0,0,2.19.26l.12,0a2.87,2.87,0,0,0,1.16-.7,2.18,2.18,0,0,0,.73-1.17c.64-3,3.28-4.71,3.75-7.7a10.57,10.57,0,0,0-2.87-8.77c-1.6-1.77-3.37-2.94-4.09-5.27-.58-1.91-.28-3.8-1.42-5.58-2.09-3.26-5.8-4.28-9.62-4.42a2.44,2.44,0,0,0-2,.74l-.22.07c-4.8,1.93-7.19,6.69-12.21,8.37-2.48.83-5,.8-7.39,1.95-1.16.56-2,1.51-3.35,1.88a26.41,26.41,0,0,1-6.54.39c-3.31,0-6.08-1.63-9.37-1.17-3,.42-5.34,1.78-8.45,1.24-4.63-.8-9-4.78-11.12-8.54a2.5,2.5,0,0,0-3.51-.88l-.33,0-.14,0a2.59,2.59,0,0,0-1.87,1.75c-1.87,6.64.94,11.91,5.09,17.24C484,470.55,484.08,472.88,484.84,476.43Zm33.89,18.09h0Zm30.37-23c0,.07-.05.13-.06.19a8,8,0,0,1-.89-.33l-.46-.21C548.16,471.29,548.63,471.4,549.1,471.51Zm-26-11c0,.11,0,.23,0,.34l-.33-.17ZM514,494.37A6.27,6.27,0,0,1,511.1,493a6.15,6.15,0,0,1-.61-.64A11.2,11.2,0,0,0,514,494.37Zm-10.22-28.69.1.19-.3-.15Z" transform="translate(-65 -62.98)"/><path class="cls-5" d="M460.5,530.76c-1.7-1.21-3.76-1.81-5.47-3.1-2.62-2-3.48-4.52-4.67-7.39-1.33-3.21-2.9-7.08-5.77-9.38a2.8,2.8,0,0,0-1.28-.59c-3.28-1.38-6.92-.82-10.29-1.88-1.68-.54-3.22-1.42-4.94-1.93a25.25,25.25,0,0,0-7.5-.7,15.12,15.12,0,0,0-3.72-.54,2.53,2.53,0,0,0-1.79.63l-.21,0c-6.71-.5-11.62,3.19-16.43,7.35-2.54,2.19-4.84,4.74-7.71,6.5-1.56,1-3,1.37-4.15,2.9a2.08,2.08,0,0,0-.41,1.76,2.51,2.51,0,0,0,2.38,2.94c3.21.13,6.87,5.63,9.14,7.74a52.34,52.34,0,0,0,5.85,5c4.48,3,10.05,3.79,15.34,4.19,6.13.47,12.44.68,18.5-.56a50.67,50.67,0,0,0,7.32-1.87c2-.77,3.89-2.67,5.76-3.33,3-1.08,1.71-5.91-1.33-4.83l-.09,0c-2.17-.83-4.65-.84-6.94-1.07a41.65,41.65,0,0,1-11.26-2.83c-3.15-1.23-6.34-3-9.7-3.51-3.77-.58-7.76-.37-11.57-.58-1.92-.11-6.17-1.77-3.65-4.36,1-1.07,4.61-.82,6-.89,5-.24,9.26,2.22,14,3.63,3.93,1.18,7.72,2.81,11.7,3.8,3.07.77,6.58.78,9.67,1.46.87.74,1.73,1.5,2.55,2.32,1.32,1.31,3,4,5,4.43,1.49.36,2.84-.59,4.3-.63C462,535.36,462.52,532.2,460.5,530.76Zm-60.06-5.51a1.78,1.78,0,0,1,.1-.43c0,.18.09.36.14.54C400.54,525.23,400.45,525.18,400.44,525.25Zm1.05,6.49-.24-.22.27.05A.86.86,0,0,0,401.49,531.74Zm25.62,7.91a89.59,89.59,0,0,1-9.77-.61,38.43,38.43,0,0,1-6.58-1.17C416.32,539,423.05,539.3,427.11,539.65Z" transform="translate(-65 -62.98)"/><path class="cls-5" d="M481,487.58a1.81,1.81,0,0,1,0-.23S481,487.41,481,487.58Z" transform="translate(-65 -62.98)"/><path class="cls-5" d="M466.19,483.06l0-.07,0,.06Z" transform="translate(-65 -62.98)"/><path class="cls-5" d="M405.81,507.18h0C405.51,507.17,405.66,507.18,405.81,507.18Z" transform="translate(-65 -62.98)"/><path class="cls-5" d="M396.66,486.74c8.07,3.16,14.14,7.56,23.16,7.59H420c5.66,0,10.22-.47,15.49-2.71,4.31-1.83,10.2-4.55,13.36-8a3.41,3.41,0,0,0-2.08-4.7,3.59,3.59,0,0,1-2.4-1.13,3,3,0,0,1-1-1.8,2.58,2.58,0,0,0-3.16-2.38,3.14,3.14,0,0,0-1.11,0l-.5.06c-2.75-.6-5.51-.29-8.3-.67-1.95-.27-10.26-1.76-4.69-3.65,2.42-.82,6.06-.22,8.6-.13a35.73,35.73,0,0,0,6.46-.18,2,2,0,0,0,1.87-1.53,2.16,2.16,0,0,0,.44-1c.34-2.11,1.52-3.6,2.74-5.31.51-.71.95-1.45,1.43-2.16s1.38-1.45,2-2.29a2,2,0,0,0,0-2.48,2.46,2.46,0,0,0-.59-1.23c-4-4.55-12-1-15.49-6.16a2.62,2.62,0,0,0-2.83-1.1c-2.67.09-5.44-.27-8,.2a2.91,2.91,0,0,0-2.58,3.18,4.45,4.45,0,0,0,.09.66c-2,.29-3.52,1.89-5.26,3.18a37.3,37.3,0,0,1-12.69,6.11c-7.28,2-13.67,6.31-13.85,14.49C387.74,479.84,390.84,484.46,396.66,486.74Zm4.91-12.56c.66-2.34,5.36-3,7.25-3.39a45.73,45.73,0,0,0,8.11-2.45c-.09,1-.13,2-.12,3.05,0,.23,0,.47,0,.7-3.63,0-7.3,1.83-10.61,3C404.85,475.55,400.88,476.6,401.57,474.18Zm-7.93,3.13-.18.18a6,6,0,0,1-.34-1A8.16,8.16,0,0,0,393.64,477.31Z" transform="translate(-65 -62.98)"/><path class="cls-5" d="M443.24,455.55l0,0s0,0,0-.05Z" transform="translate(-65 -62.98)"/><path class="cls-5" d="M426.1,599.53a2.22,2.22,0,0,0-2.34.59,2.45,2.45,0,0,0-1.48,1.53c-.11.31-1,1.22-1.28,1.74a34.33,34.33,0,0,0-1.46,3.21c-.72,1.71-1.79,3.74-1.62,5.63a2.83,2.83,0,0,0,3.07,2.51.67.67,0,0,0,.06.12c1.07,1.65,3.69,2.41,5.5,3,2.41.8,5,1.93,7.5,2.12a2.47,2.47,0,0,0,1.12-.17,2.14,2.14,0,0,0,1.27-1.09c1.55-3-.39-8-1.72-10.86C433,604.23,430.08,600.69,426.1,599.53Z" transform="translate(-65 -62.98)"/><path class="cls-5" d="M346,447.47a9.51,9.51,0,0,0-1.27-1.83,6.26,6.26,0,0,0-3.68-1.76,2.64,2.64,0,0,0-3.65,1.31,2.23,2.23,0,0,0-1.44,1.63,8.68,8.68,0,0,1-1.12,1.26,18.67,18.67,0,0,1-2.16,1.91,13.87,13.87,0,0,0-3,3c-1.83-.18-3.79,1.68-2.5,3.66.5.77.12,3.64.24,4.59.33,2.56.67,5.1,1.11,7.64.68,3.91,1.25,7.89,2.06,11.76a2.11,2.11,0,0,0,1.26,1.61c1.35.82,3.4.54,3.71-1.36a78.13,78.13,0,0,1,5-16.36c1.81-4.43,4.47-8.38,6.37-12.69a2.6,2.6,0,0,0-.19-2.65A5.09,5.09,0,0,0,346,447.47Z" transform="translate(-65 -62.98)"/><path class="cls-3" d="M512.5,284.21a20,20,0,0,1,4.14,5c.69,1.25,1.19,2.58,1.87,3.84.78,1.44,2.09,3.17,2.56,4.73a2.39,2.39,0,0,0,1.66,1.62,2.67,2.67,0,0,0,2.81.1,3.92,3.92,0,0,0,1.3-1.38,42.36,42.36,0,0,1,3.61-3.34c.3-.27.62-.49.89-.78s.49-.53.43-.51c.22-.15.45-.3.67-.47a3.5,3.5,0,0,0,1.77-2.12,2.57,2.57,0,0,0-1.45-2.92,2.6,2.6,0,0,1-.27-.36c-.26-.41-.65-.74-.92-1.15-.59-.89-1.09-1.86-1.62-2.78-1.36-2.35-3-4.54-4.35-6.89a2.63,2.63,0,0,0-4.13-.44c-1.91.59-3.73,1.57-5.8,1.57a2.52,2.52,0,0,0-2,.88,2.61,2.61,0,0,0-1.36.59,2.56,2.56,0,0,0-1.38,2.71C511.08,283.11,511.78,283.55,512.5,284.21Z" transform="translate(-65 -62.98)"/><path class="cls-3" d="M594.73,292.75a6.55,6.55,0,0,1,1.58,3.19c.17,1.1,1.52,1.8,2.59,1.84,1.73.06,3.4.51,5.15.6a2.51,2.51,0,0,0,1.9-4.27,7.41,7.41,0,0,1-1.78-2.92c-.42-1-.29-2.23-.89-3.14-1.39-2.11-4.59-1.48-6.76-1.34a5,5,0,0,0-4,3.05C592.71,291.1,593.9,291.78,594.73,292.75Z" transform="translate(-65 -62.98)"/><path class="cls-3" d="M617.65,324.63l.92.37q-.37-.15,0,.06a3.53,3.53,0,0,0,4.06-.32c.86-.7,1.7-1.3,2.63-1.93,1.25-.83,2.12-2,1.77-3.48a18.18,18.18,0,0,0-.88-3,3.31,3.31,0,0,0-.61-.94,2.5,2.5,0,0,0-1.82-1.63l-.17,0a2.78,2.78,0,0,0-3.28,1.71,35.09,35.09,0,0,0-3.33,4.35c-.72,1.1-1.36,2.45-.57,3.7A3.37,3.37,0,0,0,617.65,324.63Z" transform="translate(-65 -62.98)"/><path class="cls-3" d="M644.9,321.38a96.94,96.94,0,0,0,10.45,9.48c1.87,1.43,5.45.16,4.48-2.43-2.33-6.26-2.15-13.71-3.67-20.22-1-4.3-1.72-10.23-3.95-14.55a2.48,2.48,0,0,0-2-4.07c-2,0-3.83-.73-5.8-.85a2.63,2.63,0,0,0-2.68,2.5s0,.06,0,.09a13.73,13.73,0,0,0-3.22,6.68c-.85,4.3,1,8.88,1.77,13.09S641.78,318.15,644.9,321.38Zm2.28-5.44a9.64,9.64,0,0,1-1.07-2.42c0-.14-.08-.3-.13-.47Z" transform="translate(-65 -62.98)"/><path class="cls-3" d="M592.76,344.24c.31,1.94,1,3.5,1,5.5a20.16,20.16,0,0,0,0,4.11c.57,2.64,2.81,4.38,4.3,6.51s2.83,4.61,5.43,6a66.57,66.57,0,0,0,8.65,3.44,2.63,2.63,0,0,0,.57.14,2.25,2.25,0,0,0,2.76-.61,40,40,0,0,1,4.62-4.28c2.92-2.4,5.12-5.35,7.75-8,2.08-2.12,3.85-3.83,4.58-6.73s1-5.45,2.54-8.18c2.4-4.11,4.74-11.68-.05-15.24-3-2.23-8.18-.85-10.6,1.83a2.36,2.36,0,0,0-1.9,3c-.34-1.14.1-.73-.5,1-.38,1.12-.81,2.22-1.13,3.37a41.49,41.49,0,0,1-2.09,6.17,49.85,49.85,0,0,0-2.3,6.9c-.59,2.08-.87,5-2,6.84-2.23,3.47-2.43-.88-2.23-3a58.12,58.12,0,0,1,1.21-7.77c1.1-4.65,3.78-9.16,4.37-13.84a1.91,1.91,0,0,0-1.13-2.12C609.15,317.11,591.21,334.59,592.76,344.24Zm34.51-10.41.27.08-.27-.06Zm-.52,16.06a8.91,8.91,0,0,1-1.23,2.15l0,0C625.9,351.34,626.33,350.61,626.75,349.89ZM619.43,358l.3.1-.63.59C619.21,358.43,619.33,358.2,619.43,358Zm-7.27-25.89,0,0v.05a3,3,0,0,0-.57-.62c0-.1,0-.19-.07-.29A4.51,4.51,0,0,1,612.16,332.08Zm-4.24,13.06c-.39,1.82-.7,3.66-.95,5.5A26.87,26.87,0,0,1,607.92,345.14Z" transform="translate(-65 -62.98)"/><path class="cls-3" d="M528.86,328.1c.17,1.08.4,2.07.62,3,0,.19,0,.37,0,.55v.47l-.09.36a2.51,2.51,0,0,0,.76,2.47,13.21,13.21,0,0,1,0,2.09,26.43,26.43,0,0,0-.13,3.43c-.62,2.46-.19,5.36-.19,7.8a48.88,48.88,0,0,1-.81,9.75c-.56,2.83,3.56,4.2,4.85,2.14a2.87,2.87,0,0,0,1.26-.55c4-3,3.67-9.93,2.15-14a27.3,27.3,0,0,1-1.67-5.52,1.59,1.59,0,0,0-.07-.5,14,14,0,0,1,0-2.52,19.59,19.59,0,0,0-.68-6.38c0-.14,0-.55,0-.5a8.89,8.89,0,0,0,.27-1.4,2.82,2.82,0,0,0-1.1-2.19C533.33,323.66,528.38,325,528.86,328.1Z" transform="translate(-65 -62.98)"/><path class="cls-3" d="M629.75,404.4c.89,1,2,1,3.23,1.13s2.35.3,3.34-.61a3.23,3.23,0,0,0,.7-3.57,33.39,33.39,0,0,0-1.45-3.24,21.7,21.7,0,0,0-1.56-3.43l0-.05a5.85,5.85,0,0,0-1.05-2.27c-1.54-1.9-4.91-1.4-5,1.26a13.63,13.63,0,0,0,.76,3.67A14.83,14.83,0,0,1,629,401C629,402.2,628.86,403.39,629.75,404.4Z" transform="translate(-65 -62.98)"/><path class="cls-3" d="M566.79,442.24a2.69,2.69,0,0,0,1.42-.34,2.58,2.58,0,0,0,1.44-1.06,28.41,28.41,0,0,1,2.9-1.39,31,31,0,0,0,4.19-3.06c1.41-1.27,2.55-2.72,3.92-4a14.17,14.17,0,0,1,1.64-1.45c1.41-1,1.64-1.41,2.09-.2,1.26,3.36-4.13,7.76-6.53,9.3-3.09,2-6.2,3.9-9.16,6.08a2.22,2.22,0,0,0-.78,1,2.48,2.48,0,0,0-.54.73c-1.56,3.19-.69,8.27,2.55,10.38,4.54,2.95,8.17-.82,10.27-4.33,1.46-2.44,2.36-5.28,4-7.63s4.32-3.42,6.13-5.66c4-4.88,4.37-11.58,8-16.46a1.94,1.94,0,0,0-.09-2.66,1.76,1.76,0,0,0-.09-.2c-2.8-4.82-8.9-7.19-13.36-10.1-2.42-1.58-5.27-1.26-7.9-.22-3.39,1.33-7.15.91-10,3.39a2.31,2.31,0,0,0-.68,1,4.43,4.43,0,0,0-.83.72,8.76,8.76,0,0,0-1.63,1.87,2.38,2.38,0,0,0,.79,3.3,19.78,19.78,0,0,1,1.2,5.36c.19,1.72.16,2.49-1.3,3.68a16,16,0,0,0-1.59,1.23,2.44,2.44,0,0,0-2.54,2.4,7.35,7.35,0,0,0,1.9,5.56C563.48,440.78,564.63,442.21,566.79,442.24Zm11.67,3.57h0ZM584.79,422l.07.06h-.09Zm-13.57,7.12.24.07-.29.27C571.19,429.29,571.21,429.18,571.22,429.07Z" transform="translate(-65 -62.98)"/><path class="cls-3" d="M583.36,399.49c2.44-.88,3.14-1,5.47.13a12.15,12.15,0,0,0,6.11,1.65c3.27-.23,6.77-3.92,8.07-6.61a2.38,2.38,0,0,0,.15-1.74,2.08,2.08,0,0,0-1.3-2.35c-4-2-8.29-3.16-12.47-4.83-1-2.23-5.15-1.93-5.15.94.08,4.11-1.46,6-3.91,9.13C579,397.52,581.23,400.25,583.36,399.49Z" transform="translate(-65 -62.98)"/><path class="cls-3" d="M664.49,445.94a27.29,27.29,0,0,0-2.35-2.08c-1.32-1.15-3.09-2.09-4.73-1.51a2.48,2.48,0,0,0-2.64.58c-3.37,3.54-3,8.13-.82,12.1a13.87,13.87,0,0,1,1.89,7.89,17.8,17.8,0,0,0,.3,3.72c.17.77.58,3.06.89,2.38a1.87,1.87,0,0,0,.82,2.56,2.56,2.56,0,0,0,4.07-.47c1.93-3.5,1.84-8.08,2.68-11.9.75-3.41,1.54-6.82,2.49-10.18C667.61,447.21,666.05,446,664.49,445.94Z" transform="translate(-65 -62.98)"/><path class="cls-3" d="M645.69,472.52a20,20,0,0,0-3.09-.66,14,14,0,0,1-5.48-3c-2-1.54-3.59-2.28-6.19-1.59-3.18.86-5.49,3-9,2.51-3.21-.41-5.64-2.34-9-1.42-6.56,1.83-9.65,10.23-14.65,14.06-4.63,3.56-8.08,6.77-10,12.25-1.06,3-.38,5.27-.07,8.31.27,2.65-1,5.49.89,7.83,1.56,2,4.81,3,7.21,3.69a45.07,45.07,0,0,0,4.76.68c2.22.37,3.56,1.48,5.56,2.1,7.41,2.31,10.87-7.17,15.12-10.61a5.4,5.4,0,0,0,.29-4.24,39,39,0,0,0-2.65-3.58c-1.84-2.51-2.45-5.27-3.24-8.17-.55-2-1.31-4-1.9-6-.74-2.53-1.32-4,1-6s1.72-1.56,2.58,1.16c.29.93.4,1.91.68,2.84a64,64,0,0,0,2.86,7.11c1.47,3.36,3.09,6.64,4.76,9.89a2.12,2.12,0,0,0,1.68,3.17c4.59.72,8.36.62,10.83-3.22a76.23,76.23,0,0,1,6.38-8.95c1.5-1.73,4.23-3.91,4.43-6.31s-1.29-4.93-1.33-7.54C648.07,474.83,647.74,473.42,645.69,472.52ZM605.47,489.3s0,0,0-.05l0,.08Z" transform="translate(-65 -62.98)"/><path class="cls-3" d="M562.68,492.92a25.46,25.46,0,0,0,2.94,3.35,2.91,2.91,0,0,0,3.79,0c1.08-1,1.17-2.16,1.33-3.46.09-.69.24-1.39.31-2.09a4.17,4.17,0,0,0,.05-.61l0-.15c0-.21.06-.42.08-.64,1.24-.6,2-1.93,1-3.31-2.28-3.1-4.26-6.68-3-10.44.92-2.7,3.21-5.24,3.49-8.08a2.06,2.06,0,0,0-.77-1.77,2.39,2.39,0,0,0-1.92-2.31l-.16,0a2.87,2.87,0,0,0-3.35,2.49c-.61,1.74-1.87,3-2.76,4.64-.13.24-.22.49-.33.74a38,38,0,0,1-3.42,4.11,2.12,2.12,0,0,0-.71,2.27,21.11,21.11,0,0,0-1.74,4.18c-.26.92.09,1.91-.14,2.78a4.33,4.33,0,0,1-.36.62c-.22.41-.87.88-.13.41a2.55,2.55,0,0,0-.14,4.23,3.39,3.39,0,0,0,2.07.91A6.47,6.47,0,0,1,562.68,492.92Z" transform="translate(-65 -62.98)"/><path class="cls-3" d="M544,524.78c-6.66,2.23-13.42-1.88-19.17-4.41-2.86-1.26-6-2-8.69-3.65s-2.66-2.67-1.19-5c.82-1.33,2-2.48,2.89-3.73a2.14,2.14,0,0,0,.26-.43h0l0-.09a2.67,2.67,0,0,0-2.26-3.91c-4.27-.32-8.93-1.68-11.48-5.14-1.72-2.35-5.52-.91-4.89,1.92a22.72,22.72,0,0,0,.89,2.91,25.35,25.35,0,0,1,1.09,2.38,2.56,2.56,0,0,0,.17,1.31c-.07,5.32-1.76,10.14-6.57,13.6a2.49,2.49,0,0,0,0,4.84c3.6,1,6,4.31,7.82,7.07,1.69,2.59,2.35,6.12,5.13,7.9h0a2.52,2.52,0,0,0,3.8,1.46c5.29-3.17,16-5.21,21.92-2.32a2.7,2.7,0,0,0,1.25.3,15,15,0,0,1,1.65.89,2.41,2.41,0,0,0,3.56-1c1.66-1.41,2.57-3.66,3.48-5.5,1-2.12,2.93-4,3.6-6.2a2.14,2.14,0,0,0-.24-1.86A2.3,2.3,0,0,0,544,524.78Zm-4.3,5.74-.09-.07h.13Z" transform="translate(-65 -62.98)"/><path class="cls-3" d="M472.49,473.7a11.73,11.73,0,0,1-3.7,3.29,2.46,2.46,0,0,0,.07,4.36,2.63,2.63,0,0,0,3,1.29c2.83-.61,5.18-2.42,7.4-4.06a4.21,4.21,0,0,0,2.06-3.21c0-1.25-.82-2.23-1.31-3.33a2.81,2.81,0,0,0-3.94-1.5C474.63,471.13,473.46,472.61,472.49,473.7Z" transform="translate(-65 -62.98)"/><path class="cls-3" d="M445.34,447.49a2.38,2.38,0,0,0,2.59.81l.46.1a4.16,4.16,0,0,1,1.05.47c.72.31,1.43.66,2.11,1,1.64.9,3,2.19,4.84,2.77,2.79.87,7.2.14,8.55-2.63a2.49,2.49,0,0,0-.42-3,13,13,0,0,0-4.66-2.78c-1.38-.57-2.76-1.15-4.11-1.78-.19-.09-2.38-1.19-1.52-.54a3.21,3.21,0,0,0-.46-.29,2.92,2.92,0,0,0-3.37-.51,9.51,9.51,0,0,1-2.75.93c-1.16.16-2.21.22-3.48.49a2.54,2.54,0,0,0-1.87,1.74l0,.11C441.82,446.35,443.71,447.61,445.34,447.49Z" transform="translate(-65 -62.98)"/><path class="cls-3" d="M462.64,441.42c1.42.34,2.8,1.9,3.85,2.81,1.22,1.08,2.12,2.31,3.7,2.95,1.37.56,3.68.29,3.94-1.49s-.58-2.82-1-4.46a32.79,32.79,0,0,1-.66-5.74,2.72,2.72,0,0,0-4-2.16,51.39,51.39,0,0,0-5.39,3.21C460.47,436.82,459.65,440.72,462.64,441.42Z" transform="translate(-65 -62.98)"/><path class="cls-3" d="M499,601a30,30,0,0,1,6.75,1c2.36.75,4.22,1.92,6.7,2.37,5.19.94,16.17,2.33,16.85-4.63a2.06,2.06,0,0,0,0-.71,15.14,15.14,0,0,0,.75-3.5,39.48,39.48,0,0,0-.5-14.13c-1.88-8-4.77-15.76-12.07-20.69a2.77,2.77,0,0,0-4.3-.79,8.24,8.24,0,0,1-6.89,3c-1.88.25-2.22,2.39-1.6,3.67a6,6,0,0,0,1.56,1.7c.59,3.29,3.7,6.34,5.37,9.12,1.11,1.85,2.27,3.66,3.29,5.55.83,1.52,3.14,5,2.95,6.69l-2.67,3.52a18.12,18.12,0,0,1-2-3c-.58-1-1.12-1.94-1.6-3-1.15-2.44-1.89-4.81-3.28-7.16-1.21-2-2.37-4.13-3.61-6.16-1.44-2.37-4.11-4.7-4.84-7.4a2.62,2.62,0,0,0,0-.92l0-.11a2.54,2.54,0,0,0-1.87-1.75,4.74,4.74,0,0,0-1.8,0l-.23,0c-.58,0-1.19,0-1.77,0a2.84,2.84,0,0,0-2,.82c-1.71,1.31-2.58,4.87-3.42,6.21-1.86,3-3.32,6.06-3.26,9.57a36.42,36.42,0,0,0,.6,4c.28,2.2-.47,4.38-.18,6.58.38,2.9,2.14,4.47,4.39,6.32A14.37,14.37,0,0,0,499,601Zm10.26-37c-.08-.12-.09-.22,0,0Zm-8.08,29.71c.2.31.25.4,0,0Z" transform="translate(-65 -62.98)"/><path class="cls-3" d="M611.66,576.27c-.13-1.46.42-3.26-.54-4.52a3.27,3.27,0,0,0-1.19-1,3.05,3.05,0,0,0-2.62-.67c-1.22.22-2.29,1-3.5,1.29a13.31,13.31,0,0,0-1.93.57c-.32.14-.65.27-1,.42a.88.88,0,0,1-.3.1l.3,0a3,3,0,0,0-1.28.37,2.91,2.91,0,0,0-.6.22c-3.51,1.72-6,7.17-8,10.29-2.74,4.37-5.24,8.85-8.27,13.06-.84,1.16-3.76,5.38-4.37,1.16-.12-.84,1.79-2.31,2.21-3,1.39-2.14,2.33-4.56,3.67-6.72,2.74-4.44,4.59-9.14,8-13.19a2.64,2.64,0,0,0-2.87-4.18c-3-.2-6.33.29-8.86-.93a19.76,19.76,0,0,1-7.79-6.54,2.66,2.66,0,0,0-1.49-1,2.62,2.62,0,0,0-2.53-2.2c-5.28-.35-6,7.49-5.77,10.68.17,2.74.34,4.5-.8,7-.38.86-.9,1.66-1.24,2.53a20,20,0,0,0-1.27,8.27c.28,5.72,3.2,10.73,3.61,16.34s1.72,8.43,6.88,11.32a2.61,2.61,0,0,0,2,.28,2.93,2.93,0,0,0,2-.15c3.37-1.52,6-3.83,8.76-6.16s6.14-4,9.05-6.3c4.2-3.3,6.84-7.67,10.21-11.65,2.74-3.22,6-5.93,8.75-9a2.91,2.91,0,0,0,.66-2.4,2.13,2.13,0,0,0,0-.56A15.38,15.38,0,0,0,611.66,576.27Zm-26.29-.91-.06.09,0-.09Zm-20.06,9.87c.09-.51.2-1,.33-1.49h0ZM582.16,604v0l.15-.09v0Z" transform="translate(-65 -62.98)"/><path class="cls-3" d="M544.08,622.4a1,1,0,0,1-.1-.39,4.67,4.67,0,0,0-.74-1.29,14.17,14.17,0,0,0-2-2.21c-2.06-1.91-4.29-1.23-6.51-2.61-2.62-1.62-4.17-4.31-7.51-5.08l-.4-.06a2.87,2.87,0,0,0-2.37-.56,6.83,6.83,0,0,0-2.77,1,8,8,0,0,0-3.54,2.8,2.14,2.14,0,0,0,.19,2.7c0,.07,0,.13.07.2a13,13,0,0,1,.39,3.63c0,1-.49,1.53-1.54,2a2.17,2.17,0,0,1-3-.62c-.53-.73-1.33-3.2-.6-3.88,1.93-1.81,0-4.4-2.17-4.26-7.75-5.25-18.13,2.32-20.94,9.39,0,.09,0,.17-.07.26-1.83.64-2.74,3.32-.54,4.53,2,1.11,6.29,0,8.58,0,5.93,0,12.2-.54,18.06.38a44.49,44.49,0,0,0,14,.43c2.88-.43,5.8-1.29,8.73-1.42,1.55-.07,3,.29,4.52-.09a2.43,2.43,0,0,0,1-4.29A2,2,0,0,0,544.08,622.4Zm-.8-.3a3,3,0,0,1,.54.16A3.46,3.46,0,0,0,543.28,622.1Z" transform="translate(-65 -62.98)"/><path class="cls-3" d="M482.13,617.77a11,11,0,0,1-2.75-1.42,2.8,2.8,0,0,0-.81-.34,3.55,3.55,0,0,0-.54-.34,2.75,2.75,0,0,0-2.8.12,28.51,28.51,0,0,0-2.57-1.75,4.92,4.92,0,0,0-1.43-.76,2.4,2.4,0,0,0-1.38,0,15.79,15.79,0,0,1-6.3-12.64,2.23,2.23,0,0,0-1.92-2.36,1.92,1.92,0,0,0-2.3.2c-3,2.31-4.22,6.51-4.8,10.13a39.38,39.38,0,0,0-.31,6,20.29,20.29,0,0,1-.51,5.05c-.16.64-1.5,2.92-.7,2.17-2.3,2.14,1,5.53,3.35,3.68h0a44,44,0,0,1,4.7.48,14,14,0,0,0,5.32.14,2.32,2.32,0,0,0,1.06-.49h.07c3.48.15,7.24,1,10.75.86a2.39,2.39,0,0,0,1.77.66l.56-.08a7.15,7.15,0,0,0,1.24.11,2.7,2.7,0,0,0,2.58-1.84c.46-2.11,2.37-4.4.38-6.37A5.83,5.83,0,0,0,482.13,617.77Z" transform="translate(-65 -62.98)"/><path class="cls-3" d="M444,504.33c1.58-1.39,2-3.7,2.9-5.46a20.27,20.27,0,0,1,2.71-4.17,28.48,28.48,0,0,0,2-2.07c2.16-2.47-1.17-5.71-3.79-3.53a18.31,18.31,0,0,0-2.21,2.19,25.21,25.21,0,0,1-12.85,6,2.85,2.85,0,0,0-2.31.25,35.83,35.83,0,0,1-7.33-.33c-1.89-.28-3.77-.93-5.66-.38a2.8,2.8,0,0,0-1,.57c-3.5-.72-7.29-1.62-10.3-3.56a2.33,2.33,0,0,0-1.22-.39,2.25,2.25,0,0,0-1.61-.06,72,72,0,0,0-13.63,6.15,45.74,45.74,0,0,1-8.25,4,16.42,16.42,0,0,1-5.48.44l-.84-.36-.23-.08-.24-.09h0a2.7,2.7,0,0,0-.6-.09H374c-2.58-.09-3.17,3.22-1.41,4.53a2.9,2.9,0,0,0,1,.82.69.69,0,0,0,.13.11,29.13,29.13,0,0,1,5.12,5.51c1.32,1.71,2.5,3.44,4.42,4.54a2.5,2.5,0,0,0,.89.31,2,2,0,0,0,2-.31c5.26-3.8,8.67-9.25,13.83-13.07,4.94-3.66,12.68-4,18.59-2.76a2.31,2.31,0,0,0,2.68,0,30.46,30.46,0,0,0,7.76,1.13c.6,0,1.22,0,1.84,0a3,3,0,0,0,1.59.5C435.91,504.64,441.27,506.74,444,504.33Zm-3.42-4a2.18,2.18,0,0,1-.35.51.2.2,0,0,0-.08-.19A2.83,2.83,0,0,0,440.61,500.32Zm-41.62.14-.06,0,1.15-.51C399.71,500.07,399.34,500.26,399,500.46Z" transform="translate(-65 -62.98)"/><path class="cls-3" d="M404.12,498.37l.05,0c-.46.12-.92.26-1.37.41C403.23,498.65,403.67,498.51,404.12,498.37Z" transform="translate(-65 -62.98)"/><path class="cls-3" d="M474.16,572.89l.07-.08.48-.22a6.83,6.83,0,0,0,3-2c1-1.31-.07-3.29-1.49-3.67-1.21-.32-2.3-1-3.48-1.4a6.49,6.49,0,0,0-2.76-.23,14,14,0,0,0-4.6-.37,22.13,22.13,0,0,0-16.7,1.58c-4.67,2.3-8.21,6.37-13.08,8.28a2.49,2.49,0,0,0-1.48,1.45,2.39,2.39,0,0,0-.38,2l0,.1a2.51,2.51,0,0,0,2.41,1.83c3.11,0,6.3,1.88,9.47,2.22a32.58,32.58,0,0,0,9.76-.14C462.08,580.82,469.32,577.78,474.16,572.89Z" transform="translate(-65 -62.98)"/><path class="cls-3" d="M420.73,549.38a2.27,2.27,0,0,0-2.29-1.71,44.58,44.58,0,0,1-8.77-.86,28,28,0,0,1-5.22-2,3.46,3.46,0,0,0-1.75-1.15,2.55,2.55,0,0,0-3.08,1.75,2.76,2.76,0,0,0,0,1.11,2.22,2.22,0,0,0,.38,1.61c3.12,4.82,4.07,9.83,4.82,15.51a68.09,68.09,0,0,1,.65,8.91c0,3.71-.87,7.12-1.14,10.78a2.07,2.07,0,0,0,.65,1.81,2.48,2.48,0,0,0,3.45,1.15c2.42-1.3,2.78-5,3.23-7.37.78-4.15,1-8.24,3.36-11.86,3.4-5.14,6.5-9,7.18-15.4A2,2,0,0,0,420.73,549.38ZM409.18,555c-.49.11-.34-.14,0,0Z" transform="translate(-65 -62.98)"/><path class="cls-3" d="M334.6,435c.51-1.84,1-3.89-.29-5.57a4.84,4.84,0,0,0-5.48-1.52,2.52,2.52,0,0,0-1.66,2.91,2.35,2.35,0,0,0-.07.6c0,4.2-.06,8.43,0,12.61a2.34,2.34,0,0,0,0,1.12,2.51,2.51,0,0,0,1.8,2H329a2.52,2.52,0,0,0,3-1.73c.54-.47,1.49-.9,1.89-1.32a7.15,7.15,0,0,0,1.7-2.75C336.17,439,334,437.26,334.6,435Z" transform="translate(-65 -62.98)"/><path class="cls-4" d="M498.26,269.17a2.18,2.18,0,0,0,.07.8,4.17,4.17,0,0,0,.86,1.5c.59.72.57.7,1,1.28a11.43,11.43,0,0,0,1.57,1.62l.38.3c.06.1,1,1.06.59.55a2.88,2.88,0,0,0,3.67.89,1.1,1.1,0,0,0,.14-.09c4.85.55,10.56-2,13.55-5.21l0-.06c2-.19,3.57-2.56,1.76-4.25-3.39-3.14-3.64-11.3-4.49-15.45-1-4.92-2.43-9.79-3.76-14.65-2.41-8.8-6.57-17.4-10.45-25.73a2.24,2.24,0,0,0-1.1-1.13c-1.64-1.22-4.9.13-4.35,2.67,1,4.61,2.26,9.19,2.26,13.94a2.24,2.24,0,0,0,1.42,2.14c.07,6,.26,12,.24,18s-.7,14.63-3.79,20.09A2.29,2.29,0,0,0,498.26,269.17Zm11.42-8.2c0,.13.07.26.1.39l-.21.06C509.6,261.27,509.64,261.12,509.68,261Z" transform="translate(-65 -62.98)"/><path class="cls-4" d="M525.33,308.17a30.71,30.71,0,0,1,1.61,4.11c.47,1.44.46,2.72,1.16,3.9a3,3,0,0,0,.4.51,1.13,1.13,0,0,0,0,.18l0,.11a2.52,2.52,0,0,0,1.87,1.74c5,.92,7.77,8.1,10.68,11.43,4,4.55,10,6.1,15.28,9,5.88,3.2,10.13,5,17,4.79,5.69-.19,9.57-1.76,14.28-4.65a2.47,2.47,0,0,0,.84-3.6c1-3.86,5.31-8.12,9.21-9.65a2.62,2.62,0,0,0,.38-.09,2.23,2.23,0,0,0,1.9-.84l.09-.11a2.54,2.54,0,0,0-2.6-4.18l-.67.2c-1.4-.12-2.81-.07-4.21-.29a54.57,54.57,0,0,1-7.28-2.12,77.72,77.72,0,0,0-12-2.29c-8.18-1.21-16.11-2.76-24.4-3.6-1.76-.18-7.66-.35-6.65-3.4.76-2.28,5.07-.77,7.16-.3,4.51,1,9,1.61,13.58,2.23,4.83.65,9.65,1.26,14.47,1.89,4.56.61,10.45.81,14.67,2.67,2.77,1.23,5.23-2.1,3.48-3.79-.84-4.35-1-8.22-3.07-12.32a2.14,2.14,0,0,0-.08-1.31c-1.08-3.06-3.37-8.05-6.7-9.51a2.89,2.89,0,0,0-3.14.39c-5.83-1-13.28.73-18.51,2.49a27.18,27.18,0,0,1-10.88,1.69c-2.53-.12-5.07-.32-7.59-.62-.87-.1-1.73-.27-2.59-.42s-1.34-.68-.16.22a3.24,3.24,0,0,0-1-.49,2.66,2.66,0,0,0-3.53.11c-1.9,1.74-3.45,3.87-5.32,5.68a43.75,43.75,0,0,1-7,5.68,2.4,2.4,0,0,0-1.1,2.83A2.89,2.89,0,0,0,525.33,308.17ZM583.1,336v0l-.11.06Zm-1.75-31.59.17.26c-.69,0-1.37-.1-2.06-.17C580.09,304.49,580.72,304.45,581.35,304.41Zm-41.7-.55.14.1c-.24.15-.47.3-.69.47Z" transform="translate(-65 -62.98)"/><path class="cls-4" d="M609.37,294.59c1.53,2.84,4,4.5,5,7.67.67,2.31.59,4.89,1.58,7.12a2.87,2.87,0,0,0,2.89,1.64,2.6,2.6,0,0,0,1.23-.15c2.11-.77,1.91-1.51,4-2.51,3.38-1.6,4.21,1.17,4.69,3.69.66,3.46,2,7.48,5.57,9.29a2.74,2.74,0,0,0,3.74-1.22,2.38,2.38,0,0,0-.22-3.1c-.87-.93-1-4.46-1.2-6-.44-2.7-1.74-5.53-1.75-8.22a2.88,2.88,0,0,0-2.68-2.76c-2.7,0-7.14-2.25-9.22-3.91-1.14-.92-2-2.13-3.16-3s-2.8-1.18-3.5-2.33c-.54-.88-1-.28,0-1.23s1.93-.57,3,0a28.58,28.58,0,0,1,4,3c2.78,2.09,5.13,3.56,8.8,3.47a2.88,2.88,0,0,0,2.38-1.33,2.47,2.47,0,0,0,.87-1.13h0l0-.1.27-.59.1-.08c.18-.15.36-.33.54-.49a4.14,4.14,0,0,0,1.7-2.89,2.63,2.63,0,0,0-2.51-2.49c-3.23-1.35-7.33-1.89-10.67-2.71-4.19-1-8.71-1.21-10.94-5.24A6.94,6.94,0,0,0,614,278a2.62,2.62,0,0,0-2.68-2.5,2.65,2.65,0,0,0-2.68,2.5,1.55,1.55,0,0,1,0,.21,3,3,0,0,0-.12.45c-.06.2-.14.41-.18.61-.1.48-.11,1-.17,1.45a6.61,6.61,0,0,0-.19,1.26v.1a2.29,2.29,0,0,0-.55,1.48,2.41,2.41,0,0,0,.3,1.09A17.51,17.51,0,0,0,609.37,294.59Zm26.22-1.79h0l0,.08A.24.24,0,0,1,635.59,292.8Zm-.5.94v.05C634.73,294.18,634.74,294.15,635.09,293.74Zm-22.19-8.27.06,0-.07.05A.28.28,0,0,1,612.9,285.47Z" transform="translate(-65 -62.98)"/><path class="cls-4" d="M640.14,340.79a1.86,1.86,0,0,0,0,2.53c0,.05,0,.11,0,.17a6,6,0,0,0,.86,1.62,2.83,2.83,0,0,0,4.2.51c1.19-1.24,1.81-2.77,3.16-3.92a32.73,32.73,0,0,1,5.13-3.3,2.43,2.43,0,0,0,1-3.42c-1.11-1.54-3.13-2.61-4.67-3.75-1.78-1.31-2.88-3.42-4.6-4.71a3,3,0,0,0-1.64-2.22,2.7,2.7,0,0,0-4,2.15C639.6,330.68,643.35,336.82,640.14,340.79Z" transform="translate(-65 -62.98)"/><path class="cls-4" d="M598.38,372c1.73-.76,1.51-2.78.55-3.92a29.66,29.66,0,0,1-1.94-2.7,2.55,2.55,0,0,0-1.22-1,2.84,2.84,0,0,0-.71-1.17l-.15-.14a2.73,2.73,0,0,0-4.55,1.71,22.16,22.16,0,0,1-5.33,7.21,2,2,0,0,0-.55,2.72,2.36,2.36,0,0,0,.27,1.21c1.63,3.24,4.32,5.24,7.65,6.92,3.51,1.76,7.05,3.94,10.82,5.23A53.66,53.66,0,0,0,614.74,391c4.34.43,8.58-1.64,12.76-2.45a2.54,2.54,0,0,0,1.87-1.75h0a2.61,2.61,0,0,0,.17-.28c1.15-2.51.26-5.15,1.08-7.77s3.9-5.4,3.07-8.2a2.74,2.74,0,0,0-2.59-1.84c-2.68-.14-6.51-.35-9,.72-3.07,1.3-5,4.8-8.66,5.19-2.53.27-4-1.79-6.5-1.85-1.68-.05-3.85.74-5.64.9-1.14.06-2.27.15-3.4.3C596.45,374.28,596.62,373.62,598.38,372Zm-6.48,4.48.07-.07a2.27,2.27,0,0,0,.18.25C592.07,376.56,592,376.51,591.9,376.44Zm35.63-2.83,0,0,0,0Z" transform="translate(-65 -62.98)"/><path class="cls-4" d="M636.11,350.15a29.37,29.37,0,0,1-7.65,10.22c-2.48,1-1,5.06,2.11,4.64,1.35-.19,3.46-.68,4.43-1.66s1.7-2.8,2.61-4c1.76-2.39,3.58-4.88,3.49-7.9C641,349.15,637.21,347.71,636.11,350.15Z" transform="translate(-65 -62.98)"/><path class="cls-4" d="M525.4,385.83a20.36,20.36,0,0,1,12.77,7.86c4.35,5.55,8.32,2.92,15.06,4.46,3.17.72,6.41,2.31,9.77,2,2.43-.25,4.56-1.64,6.68-2.65,2.55-1.23,5.31-1.87,7.33-3.85,1.86-1.83,2.72-4.29,3.68-6.59a2,2,0,0,0,0-1.6,2.85,2.85,0,0,0,0-.41l0-.1c-.34-1.63-2.53-2.23-3.94-1.49-3,1.54-7.21.88-10.47.88a104.67,104.67,0,0,1-12.15-.45c-3-.34-5.75-1.48-8.73-1.82-1.26-.14-7.58.16-8.09-.92-1.1-2.31,5.89-2,7.47-1.87,3,.25,6-.12,9.09-.07,3.54.07,6.95.71,10.45,1.12,4.2.49,7.83-1.74,11.88-1.22,1.7.23,3.37-.62,3.39-2.41a10.23,10.23,0,0,0-.42-3.43,2.53,2.53,0,0,0-1.81-1.69c-3.23-2.77-4.41-7.32-7.18-10.52a9.15,9.15,0,0,0-4.92-3.38,7.81,7.81,0,0,0-2.81.05c-3.09.49-4.19,1.25-7.76-.06-4.89-1.8-8-1.19-12,2.19-2.55,2.18-7.7,5.91-11.49,6a2.51,2.51,0,0,0-2.39,1.6,2.21,2.21,0,0,0-.44,1,33.2,33.2,0,0,1-4.67,12.79,2.17,2.17,0,0,0-.17,2.1A2,2,0,0,0,525.4,385.83Z" transform="translate(-65 -62.98)"/><path class="cls-4" d="M600.51,427.54a2.35,2.35,0,0,0-.21,1.77,2.66,2.66,0,0,0,2.62,2.09,29.65,29.65,0,0,0,4-.11,2.54,2.54,0,0,0,1.78-1.46c4.4-4.29,6.12-10.15,10.23-14.66a24.1,24.1,0,0,0,4.69-7.3c1.28-3.35.38-6.78,1.37-10a2.18,2.18,0,0,0-1.15-2.69,2.42,2.42,0,0,0-3.08-.32c-2.94,1.79-6.17-.16-9-1a2.44,2.44,0,0,0-2.44.49,2.22,2.22,0,0,0-1.61,1.32c-2,1.71-4.22,3.52-5.14,5.91a1.88,1.88,0,0,0,0,1.28,2.14,2.14,0,0,0,1.25,2.57c1.05.52,1.82,2.67,2.36,3.62a16.22,16.22,0,0,1,1.79,4.59c.31,1.28,1,2.86.31,4.14a2.17,2.17,0,0,1-.33.47,22.83,22.83,0,0,0-3-3.42c-1.39-1.61-2.4-3.51-3.88-5.06a8.09,8.09,0,0,0-.88-.77,2.48,2.48,0,0,0-2.84-3.76c-3.35,1.13-7.18-1.91-10.15-2.87a11.9,11.9,0,0,0-4.43-.62,27.31,27.31,0,0,0-3.5,1c-2.54.51-2.36,3.36-.69,4.45a2.47,2.47,0,0,0,2.81.93c1.94-.53,4.31.36,6,1.06,3,1.2,7.51,2.09,9.81,4.13,1.68,1.49,3.34,4.12,4.72,5.89,1.53,2,1.08,2.31.18,4.61A36.57,36.57,0,0,1,600.51,427.54Z" transform="translate(-65 -62.98)"/><path class="cls-4" d="M671.07,420.11a2.8,2.8,0,0,0-3.94-1.49l-1.26.5a2.62,2.62,0,0,0-1.64,1.61,2.23,2.23,0,0,0-.05,3.46A21.71,21.71,0,0,1,665,429c.1,1.52.56,5.38-2.27,3.66-2.53-1.55-2.86-6.62-2.53-9a1.94,1.94,0,0,0-1.53-2.26,3.1,3.1,0,0,0-.4-.27c-2.74-1.48-5.61-4.23-9.07-2.37-3.18,1.72-4.43,6.41-3.4,9.49.55,1.64,1.83,2.61,2.61,4.07,1,1.81,1.36,3,3.41,4.19,2.3,1.31,4.76,1.77,7.28,2.54.95.29,1.85.65,2.78,1,.74.27,2.73,1.42,2.32.83a2.65,2.65,0,0,0,2.38,1.13c1.38,1,3.73.88,4.21-1.17a43.46,43.46,0,0,0,1.3-10.57C672,427.14,672.22,423,671.07,420.11Z" transform="translate(-65 -62.98)"/><path class="cls-4" d="M633,463.12a11.41,11.41,0,0,1,5.13,2.77,2.49,2.49,0,0,0,1.06.95l.16.08c1.19.58,3,.37,3.67-.9,1.75-3.54.46-8.5.45-12.3,0-3.15-5.14-3.22-5.34-.19a2.62,2.62,0,0,0-.85.56h0a17.68,17.68,0,0,1-8.5,3.65c-3.05.5-5.52-.57-8.51-.75a2.65,2.65,0,0,0-1.92.76h-.07a20.9,20.9,0,0,0-5.56,2,29.33,29.33,0,0,0-9.54,4.79c-4.49,2.21-8.19,5.21-12.48,7.78a20.82,20.82,0,0,1-2.85,1.73c-5.2,2-1.86-1.79-.68-2.92a69.7,69.7,0,0,1,7.63-6.25c4-2.91,8.88-4.5,13.43-6.41,2-.82,1.64-2.81.36-3.87a2.6,2.6,0,0,0-2.2-1.24,12.71,12.71,0,0,1-8.12-3.29c-.82-.79-1.29-1.73-2.19-2.47a9.29,9.29,0,0,0-3.32-1.75,2.37,2.37,0,0,0-2.85,1c-1.83,2.06-3.34,3.52-4.41,6.09s-2.88,6.56-5.95,7.66a2.61,2.61,0,0,0-1.68,1.69,2,2,0,0,0,.08,2.44c-.53-.73-.18.4-.36,1s-.42,1.29-.68,1.93c-.5,1.25-1.05,2.49-1.58,3.73-1.14,2.7-2.3,5.72-1.39,8.62,1.69,5.43,7,4.6,11.73,5.56l.1,0a2.73,2.73,0,0,0,3.38.68c3.35-1.65,6-7.1,8.57-9.76a60.32,60.32,0,0,1,9.17-8c1-.42,1.93-.83,2.89-1.28,1.46-.67,2.89-1.54,4.36-2.36,3.79-.7,7.1.87,11.35-.14C628.06,464.08,630.3,462.67,633,463.12Zm5.31-3.56c0,.09,0,.18,0,.27l-.24-.13Z" transform="translate(-65 -62.98)"/><path class="cls-4" d="M649.75,514.66a2.21,2.21,0,0,0-.52-1.53c.16-.17.33-.35.48-.53,1.07-1.33-.1-3.28-1.6-3.68l-.08,0a2.5,2.5,0,0,0-2.95,1.18h0c-1.53,1.89-6.06-1.35-8.17-1.14a8.1,8.1,0,0,0-5.2,3.32c-1.21,1.54-2.14,3.19-3.38,4.68a7.12,7.12,0,0,0-1.35,1.68,4.26,4.26,0,0,0,.94,4.85c2.8,2.74,7.3.32,10.28-.8a15.06,15.06,0,0,1,3.66-1.24c1.17-.08,1.84.24,2.11.75-.05.6-.12,1.19-.18,1.78a4.44,4.44,0,0,1-1,1.25c-2.49,2.13-6,2.75-9.25,3.2a2,2,0,0,0-1.93,2.27,3.09,3.09,0,0,0-.07,1.39c.19,1.06,1.24,1.87,2,2.61a10.55,10.55,0,0,0,2.86,1.94,15.51,15.51,0,0,0,2.72,1.32,3.23,3.23,0,0,0,2.76-.64,3,3,0,0,0,.8-.44c1.35-1.06,2.33-2.93,3.39-4.24A12.58,12.58,0,0,0,648.6,528a20.32,20.32,0,0,0,.5-2.3,11,11,0,0,0,.55-1.08,5.41,5.41,0,0,0,0-4.91C649.71,518,649.72,516.24,649.75,514.66Zm-15.9,4.21.24-.36.13.09.1.09Z" transform="translate(-65 -62.98)"/><path class="cls-4" d="M613.59,540.28c-.75-2.71-2.53-4.29-4.09-6.63a57.09,57.09,0,0,1-3.53-5.93c-1.07-2.12-1.12-5.06-2.88-6.75a2.54,2.54,0,0,0-1.54-.73,3.09,3.09,0,0,0-.8-.38h0l-.12,0-.29-.07c-1.84-.41-3.76-.17-5.54-.68a26.18,26.18,0,0,1-4.66-2.22A19.57,19.57,0,0,1,587,514.8a7,7,0,0,1-2.53-4.27c1.48-1.42.7-4-1.86-4.23l-.33,0a2.47,2.47,0,0,0-1.57.34c-2.68.17-5.4-1.62-7.44,1.22-1.57,2.19-.3,5.39,1.19,7.31,2.24,2.9,5.44,5.08,8,7.69,3,3,5.25,6.55,8,9.75s5.5,6.81,8.54,9.92c1.36,1.4,3.12,2.55,4.4,4s3.52,4.68,0,5c-1.55.14-4.47-2.55-5.6-3.53-8.61-7.37-12.39-18.87-21.4-26a2.88,2.88,0,0,0-3.23-.24,2.49,2.49,0,0,0-2.22,1.21c-1.47,2.33-3.8,3.51-5,6.2-1.26,2.93-1.45,6.24-1.58,9.36s-.74,6.82,0,10c.79,3.42,3.23,5,6.16,6.75,4.4,2.72,5.4,9.31,10.88,10.59a12.5,12.5,0,0,0,3.71.23,10.54,10.54,0,0,1,6.33,1.23,14.62,14.62,0,0,0,9.11.64c3.33-.72,6.33-2.4,9.71-3.05,2.9-.56,5.46-.51,7.86-2.35,5-3.82,1.85-8.8-1.53-12.39C613.86,547.15,614.62,544,613.59,540.28ZM574.42,527Zm19.79,24.72,0-.05.33.29Zm8.84,10.2v-.06h.15Zm7.8-9.95a.29.29,0,0,0,0-.09l.08.08Z" transform="translate(-65 -62.98)"/><path class="cls-4" d="M563.78,554c-.71-1.43-3.12-1.61-4.21-.5a6.63,6.63,0,0,0-.57.68,2.62,2.62,0,0,0-1.13.69c-2.47,2.54-4.57,5.38-5.28,8.8-.4,1.91-.23,3.92-.79,5.81-.81,2.7-2.95,4.67-4.18,7.2-2.25,4.59-2.8,13.41,3.51,15.46,0,0,0,.05.06.07,2.35,2.23,6-1,4-3.31l-.06-.16c.4,0-.08-3.06.17-4.45a17.86,17.86,0,0,1,1.55-4.75c1-2.12,2.51-4,2.83-6.4.38-2.85-.55-5.49.57-8.32a26.82,26.82,0,0,1,4.28-6.81,2.34,2.34,0,0,0,0-2.52C564.27,555,564,554.52,563.78,554Zm-.45,3Z" transform="translate(-65 -62.98)"/><path class="cls-4" d="M545.16,594.42a2.57,2.57,0,0,0-.86-.81,2.77,2.77,0,0,0-2.68,0c-.11,0-.31.09-.39.09a10.14,10.14,0,0,1-1.35,0c-.88,0-1.73-.12-2.63-.11a2.71,2.71,0,0,0-1.54.47c-1.34,0-2.58.78-2.37,2.38.35,2.68.5,6.45-1.94,8.38-1.52,1.21-.89,2.88.42,3.69a2.53,2.53,0,0,0,1.26.61c.34.06,1.59,1.62,2.09,1.9,1.25.71,2.93,1.13,4,2a2.69,2.69,0,0,0,4.48-2.43,12.9,12.9,0,0,1,.73-7c.79-2,2.17-4.13,2.6-6.24A2.55,2.55,0,0,0,545.16,594.42Z" transform="translate(-65 -62.98)"/><path class="cls-4" d="M503.28,605.37c-.83-.14-1.64-.27-2.44-.36a43.45,43.45,0,0,1-10.25-2.54c-2.68-1.09-3.88-2.78-5.56-4.94a6.3,6.3,0,0,0-1.77-1.69l-.06-.23c-.88-2.76-5.1-2.13-5.27.66,0,.6-.07,1.21-.12,1.81a2,2,0,0,0,1,2c.56,2.62,1.09,5.33,2.78,7.49,2.37,3,5.53,3.85,9.22,4.34a2.45,2.45,0,0,0,2.14.23c3.35-1.08,5.2-2.58,8.91-2C505.2,610.66,506.71,605.93,503.28,605.37Z" transform="translate(-65 -62.98)"/><path class="cls-4" d="M480,565c1,.8,2,2.07,3.19,2.57a2.87,2.87,0,0,0,3.66-.9,4.41,4.41,0,0,0,1-2.68c-.07-1.51-1.08-1.85-2.12-2.7-1.51-1.24-1.52-3.43-3-4.62a2.73,2.73,0,0,0-1.66-1.32l-.08,0a2.58,2.58,0,0,0-2.94,1.18h0c-.81,1-2.12,1.87-2.57,3.15a3,3,0,0,0,1.6,3.6c.39.22,1.08.38,1.34.53A13.84,13.84,0,0,1,480,565Z" transform="translate(-65 -62.98)"/><path class="cls-4" d="M545.45,520.25a14.17,14.17,0,0,0,10.15-3.64,25.52,25.52,0,0,0,3.79-4.31c.88-1.1,2.39-2,3.07-3.26,1.12-2-.71-4.13-3-3.67-3.43.68-6.83,2-10.2,3-3.14.89-9.92,4.53-13.19,3.3-1.18.17-1.57-.62-1.16-2.37-1.39-1.93-.91-3,1.46-3.26a36.56,36.56,0,0,1,4.15-.92c2.17-.43,4.37-.6,6.57-.91,4.38-.62,9.51-1.2,13.38-3.39a2.5,2.5,0,0,0,1.24-2.83l-.09-.26a2.53,2.53,0,0,0-1.24-1.45,2.38,2.38,0,0,0-1-.44,10.75,10.75,0,0,0-3.77-1.87,6.67,6.67,0,0,0-1.3-.6,4.5,4.5,0,0,0-1.62-.23c-2.28-.67-4.34-1.33-6.73-1-2-1.14-4.38-2.38-6.8-1.12-2.1,1.1-2.94,3.84-4.52,5.35-2.09,2-5.28,2.34-7.62,4-4.07,2.88-2.69,8.25-7,10.92a2.53,2.53,0,0,0-1.11,1.42,2.48,2.48,0,0,0,2.34,3.59c5,0,8.38,1.65,12.69,3.7C537.81,521.87,541.48,520.3,545.45,520.25Z" transform="translate(-65 -62.98)"/><path class="cls-4" d="M556.32,436.61a2.76,2.76,0,0,0-3.3-1.75,29.56,29.56,0,0,0-5.39,1.6c-1.71.64-3.16.91-4,2.66a2.37,2.37,0,0,0,1.26,2.82,2.23,2.23,0,0,0,1.93.58c4.35-.51,8.55,3.83,10.8,6.88,2.13,2.89,1.54,7,4,9.65,2.24,2.45,6-1.1,3.79-3.54-.85-.92-1.11-4.46-1.54-5.7a4.71,4.71,0,0,0-.21-.52,2.36,2.36,0,0,0,.11-1.48,8.38,8.38,0,0,0-3.71-5.12c-1.59-1.11-3.7-2.53-3.89-4.51A2.38,2.38,0,0,0,556.32,436.61Z" transform="translate(-65 -62.98)"/><path class="cls-4" d="M534.87,444.46a2.53,2.53,0,0,0,1.09-1.73,2.21,2.21,0,0,0,.6-1.57c0-4.33-2-7.63-3.56-11.53-1.87-4.61-.93-9.31-2.1-13.95s-4-9.3-5.74-13.82c-.9-2.33-2-6.73-5.24-6.88a2.9,2.9,0,0,0-3.33,1.61c-1.57,3.75-5,6.25-7.91,9.07-1.42,1.39-2.8,2.63-4.35,3.88-.55.44-1.08.94-1.59,1.41s-2.61,1.77-1.06,1.27a2.5,2.5,0,0,0-1.83,2.73,2.05,2.05,0,0,0,.08,1.49c1.66,4.2,5.83,8.37,9.36,11.3,1.62,1.36,16.06,10.18,13.34,12.59s-11.87-6.41-13.4-7.67c-4.15-3.42-7-8.25-11.2-11.45a1.94,1.94,0,0,0-.24-.15,2.67,2.67,0,0,0-.2-.42l-.12-.18c-1.27-2.07-4.14-1.22-4.84.49a31,31,0,0,1-7.24,5.13,49.68,49.68,0,0,1-5.17,2.56c-1.42.59-3.34.92-3.8,2.54a2.06,2.06,0,0,0-.36,2.89c1.76,2.58.5,6.15,2.8,8.63.84.9,2.14,1.29,3.15,2a14.26,14.26,0,0,1,4.64,5c2.82,4.44,7.66,4.87,12.58,3.42,4.55-1.34,6.81.94,11.1,1.75,3,.57,4.77-1,7.23-2.33,3.83-2.13,8.21-1.62,12.24-3.42C532.25,447.94,532.87,445.89,534.87,444.46Zm-20.29,3.82v-.1l.15,0Z" transform="translate(-65 -62.98)"/><path class="cls-4" d="M449.6,476c3.69,2.27,9.12,1.68,13.09.34,4.41-1.49,6.4-6.71,11-8a2.36,2.36,0,0,0,1.86-2.09,2.47,2.47,0,0,0-3-3.42c-2.72.9-5.31,2.89-7.9,4.17-2.36,1.17-4.48,3.18-6.89,4.15a5,5,0,0,1-2.5.51l-2.12-1.48.79-.83c.91-1.58,4.12-3.65,5.64-4.62,3.2-2.06,6.88-3.36,10.22-5.17a2.35,2.35,0,0,0,2.11-2.36,18.82,18.82,0,0,1,.2-2.24c.18-1.56-1.87-2.92-3.39-2.41a23.92,23.92,0,0,0-5.54,3,8.9,8.9,0,0,1-2.56,1.59,16,16,0,0,1-3.65-.11,2.41,2.41,0,0,0-2.06.91,2.85,2.85,0,0,0-.39.11C448.11,460.67,442.53,471.68,449.6,476Z" transform="translate(-65 -62.98)"/><path class="cls-4" d="M483.06,531.2a2.27,2.27,0,0,0,.61-1c2.33-2.76,3.3-6.57,5.46-9.47,2.79-3.78,6.75-6.17,8.14-10.84,1.45-4.87-1.7-9.61-.38-14.32a4.32,4.32,0,0,0-2.12-4.1,9.47,9.47,0,0,1-2-1c-.77-.39-1.68-.7-2.41-1.15s-1.46-1.2-2.19-1.75c-.45-.33-.78-.65-1.19-1-.24-.2-1-1.15-.66-.49a2.39,2.39,0,0,0-3.51-.86,2.57,2.57,0,0,0-1.82,2.12.59.59,0,0,1,0,.2c0,.26-.08.53-.11.79l0,.08a3.71,3.71,0,0,0-.16.47,4.11,4.11,0,0,0-.12.61c0,.07,0,.15,0,.22a1,1,0,0,0-.09.32,2.46,2.46,0,0,0-.07.8s0,.05,0,.08a31.42,31.42,0,0,0-2.64,14.38c.28,3.57.92,7,.95,10.58,0,2.15,1.36,7.13-3,6.15-2.36-.53-2.15-9.16-2.47-12.33-.58-5.95-.56-13.8,2.23-19.26a2.39,2.39,0,0,0,.27-1.29,2.49,2.49,0,0,0-2.33-3.61,13.58,13.58,0,0,1-4.42-.44,6.13,6.13,0,0,1-1.92-1.23c-.25-.23-.48-.51-.74-.74l-.08-.07a1.67,1.67,0,0,1,.06.2c0-.08-.05-.14-.07-.21-.34-.34-.17-.4,0-.06a2.14,2.14,0,0,0-.51-.87,2.33,2.33,0,0,0-3.58-1c-3.35,2.29-4.27,5.42-5.39,8.94-1.44,4.48-5.2,7.59-6.94,11.87-1.53,3.75-.35,6.8,1.42,9.76.59,1.32,1.24,2.62,1.67,3.87a25.49,25.49,0,0,0,3.54,6.61,7.86,7.86,0,0,0,3.36,4.42c2.69,1.71,5.73,2.48,8.59,3.78a19,19,0,0,0,6.56,4C478.22,535.25,480.8,533.35,483.06,531.2Zm-28.32-26.34v0a1.48,1.48,0,0,0-.16-.27,1.39,1.39,0,0,0,.19.15S454.75,504.81,454.74,504.86Zm5.87,2.67-.06-.11a.75.75,0,0,0,.07-.12C460.62,507.38,460.61,507.46,460.61,507.53Zm2.25-19.76c.06-.13.13-.26.2-.39l.21.16A2.71,2.71,0,0,0,462.86,487.77Z" transform="translate(-65 -62.98)"/><path class="cls-4" d="M461.53,585.74c-2.78-1.61-5.45-.24-8.34.28-2.29.41-4.81-.27-7,.27a2.21,2.21,0,0,0-1.44,1,1.09,1.09,0,0,0-.17.13c-1.68,1.59-3.08,3.41-4.71,5a8.31,8.31,0,0,1-1.1.6,20.54,20.54,0,0,0-3.36,1.57c-1.79,0-3.6,2-2.29,3.72,4.33,5.63,8.57,14,6.93,21.48-.26,1.21.36,2.85,1.75,3.07h0a2.56,2.56,0,0,0,.73,0,3.44,3.44,0,0,0,1,0c.26,0,.24,0,0,0,.31,0,.35,0,.13,0l.78.21c.35.1.69.2,1,.32l.09.07a2.41,2.41,0,0,0,2.46,0,2.46,2.46,0,0,0,1.43-1.52c1.68-4.73.13-9.75.57-14.64a18.1,18.1,0,0,1,10.59-14.78,2.66,2.66,0,0,0,1-.69,2.53,2.53,0,0,0,1.29-2.15,7.14,7.14,0,0,0-.13-1.74A2.27,2.27,0,0,0,461.53,585.74Zm-7.68,5.06.38-.11-.36.27A.88.88,0,0,0,453.85,590.8Z" transform="translate(-65 -62.98)"/><path class="cls-4" d="M438.71,587a2.54,2.54,0,0,0,.12-1.24v-.12a2.53,2.53,0,0,0-2.41-1.83c-2.19-.18-7.36-.87-8.5-3.19-.78-1.58,1.4-4.39,2.38-5.55a16.65,16.65,0,0,1,2.63-2.84c2.07-1.27,1.14-4-.63-4.6-.86-.51-1.9-.75-2.82-1.19-.76-.37-1.47-.79-2.26-1.1-.41-.16-.84-.29-1.26-.43-.08,0-.82-.31-.53-.13a3.34,3.34,0,0,0-3.57.39,24.94,24.94,0,0,0-4.89,7.7c-1.57,3.77-1.48,7.16-2.47,11-1.08,4.23-4.7,7.27-8.78,8.62-1.83.6-4.92.42-5.49,2.78,0,0,0,.09,0,.14h0c-.22.27-.42.55-.62.82,0-.05-.16.19-.22.26-.62.69-1.37,1.25-2,1.89a2.53,2.53,0,0,0,0,3.54,2.64,2.64,0,0,0,1.37.67,2.25,2.25,0,0,0,1.9.88c-.39,0,.18,0,.4.17.42.22.79.5,1.22.7.9.42,1.87.58,2.74,1.06a23.07,23.07,0,0,0,2.61,1.36,10.94,10.94,0,0,1,2.53,1,1.49,1.49,0,0,0,.24.14A2.44,2.44,0,0,0,413,609l.11,0a2.46,2.46,0,0,0,1.75-1.74,19.77,19.77,0,0,1,9.78-11.92c4.23-1.95,9.33-3,13.07-5.91A2.6,2.6,0,0,0,438.71,587Z" transform="translate(-65 -62.98)"/><path class="cls-4" d="M471.57,545.84a10.84,10.84,0,0,1-.16-4.54,1.15,1.15,0,0,0,.06-.17,2.37,2.37,0,0,0,0-.75,2.51,2.51,0,0,0,0-.27,2,2,0,0,0-1.76-2.35l-.87-.87a4.48,4.48,0,0,0-3.66-.93c-.68.4-1.34.84-2,1.28a2.23,2.23,0,0,0-1.38.09c-1.65.61-3.23,1.37-4.86,2-.8.32-1.71.85-2.6,1.27a4.36,4.36,0,0,0-2.24.85,3.15,3.15,0,0,0-.69.73c-2.78.95-5.55,2-8.32,3a6.23,6.23,0,0,0-1.44.53c-3.6,1.33-7.21,2.64-10.86,3.78-1.36-1.4-4.38-.86-4.36,1.65,0,1.86,0,4.09-.92,5.7a2.32,2.32,0,0,0,.09,2.53,2.5,2.5,0,0,0,2.16,1.59,13,13,0,0,1,5.06,2c1.33.8,2.93,1.35,4,2.49a2.22,2.22,0,0,0,1.63.76,2.06,2.06,0,0,0,2.06.25c3.75-1.39,6.58-4.3,10.76-5.24,1.22-.28,2.41-.47,3.58-.62,5.74.56,11.25.51,13.35.7,2.79.26,3.44-4.4.67-4.91a49.06,49.06,0,0,0-12.69-.91c-1.26-.12-2.51-.27-3.75-.46-2.23-.36-8.76-.54-8.88-3.48-.12-3.13,11.57,1.42,13.73,1.63,3.69.37,9.47-1.54,12.61,1.26a2.59,2.59,0,0,0,1,.55,2.63,2.63,0,0,0,3.3-3.58A40.43,40.43,0,0,1,471.57,545.84Zm-18.39,1c0,.06,0,.12,0,.18L453,547Z" transform="translate(-65 -62.98)"/><path class="cls-4" d="M411.8,445.57a2.38,2.38,0,0,0-1.27-.38h-.26c-2.64-.37-5.7.24-8.24.3-.55,0-1.09,0-1.61,0a16.25,16.25,0,0,0-2.19-.68,1,1,0,0,1-.67.25,45.21,45.21,0,0,0-4.66.33c-5.07,3.42-8.27,13-10,17.37-.49,1.18-.95,2.37-1.42,3.56-1.12,3.11-2.27,6.2-3.59,9.22-1.09,2.82-2.18,5.65-3.31,8.45-1.21,3-2.55,5.91-3.66,8.91s-1.6,5.88,1.84,6.46c3.84-1.29,8.85-.73,12.46-1.7a39.92,39.92,0,0,0,10.3-4.67,2.55,2.55,0,0,0,.9-3.42c-1.23-2.12-4.58-3-6.38-4.83a3.27,3.27,0,0,0-4.8,1.31,21.6,21.6,0,0,1-2.91,5.1,2.8,2.8,0,0,1-1.89,1.31c.27-.18.17-.36-.31-.55-1.12-.59-1.05-1-1-2.07.17-2.1,1.92-4.37,2.83-6.21.77-1.53,1.28-3.54,2.42-4.81a2,2,0,0,0,1-2.66c-2.38-6.34,1.59-13.13,6.62-17.1,3.13-2.48,6.76-3.88,10.45-5.28,1.42-.54,2.92-.93,4.29-1.57.9-.41,2.27-1.68,3.36-2l.23.05C413.29,451.25,414.61,446.67,411.8,445.57Z" transform="translate(-65 -62.98)"/><path class="cls-4" d="M392.43,492.61c.3.2.22.23,0,0Z" transform="translate(-65 -62.98)"/><path class="cls-4" d="M353.47,427.61c-3.07-2.29-6.55-3.73-9.51-6.25-3.54-3-7.32-5.67-10.8-8.75,0-.12,0-.22,0-.34-.13-3-4.61-3.2-5-.48a2.48,2.48,0,0,0-.13.8c0,2.89.06,5.77-.21,8.64a2,2,0,0,0,1.62,2.31,2.09,2.09,0,0,0,2.86-.44c-.65.75.18.47,1,.67a11.76,11.76,0,0,1,2.65.87,7.17,7.17,0,0,1,3.44,3.93c.73,2.75-1.45,5.58-.63,8.53a3.21,3.21,0,0,0,.26.62,2.55,2.55,0,0,0,2.63,1.36.11.11,0,0,0,0,.07,3,3,0,0,0,.68.46,14.91,14.91,0,0,1,1.47,1.11c.85.66,1.88,1.26,2.69,2a2.39,2.39,0,0,0,2.62.95,2.6,2.6,0,0,0,1.26-.86,2.57,2.57,0,0,0,1-1.76,35.39,35.39,0,0,1,1.52-5.48c.48-1.54,1.39-3,1.73-4.58a4.24,4.24,0,0,0-1.15-3.35Zm-8,5.23c0-.07-.13,0-.05-.06Zm-.1-.12h0l-.06.08A.17.17,0,0,1,345.4,432.72Z" transform="translate(-65 -62.98)"/><path class="cls-3" d="M524.87,329.67a38.29,38.29,0,0,1-.08-5.28A2.51,2.51,0,0,0,525,323a82.89,82.89,0,0,0-10.2-28.13c-4.85-8.17-11.7-14-18.14-21-3.17-3.46-7.46-5.85-11.17-8.75A60.57,60.57,0,0,0,474,258c-8.54-4.08-16.94-9.67-26.61-11.19a2.09,2.09,0,0,0-1.63-1.11l-.71-.08h0l-.29,0a106.43,106.43,0,0,0-11.14-.27,21.85,21.85,0,0,0-3.15-.12,1.45,1.45,0,0,0-.29,0c-5.55-.29-10.95-.67-16.49,0-3.64.45-7.15.89-10.65,1.66l-.13-.05c-4.61-1-9.6,1.38-14.1,2.13s-8.76,1.23-13.13,2.18c-9.15,2-17.7,4.62-25.77,9.11s-15.46,10-20.24,17.58c-5.24,8.33-8.18,17.19-10.42,26.51a2.23,2.23,0,0,0,.42,2A199,199,0,0,0,313.48,330c-1.44,7.94-1.87,16-2.54,24s-1.71,17.15,1.78,24.79c2,4.38,5.18,8.16,8.1,12,3.09,4.07,5.62,8.29,9.09,12.14a2.29,2.29,0,0,0,2.91.52c2.92,5.71,8.93,11.12,14,14.86,3.92,2.93,8.68,4.75,13.09,6.89,2.67,1.29,5.11,3,7.71,4.45a44.85,44.85,0,0,0,9.86,3.75c2.73.78,5.17,2.19,7.89,3s5.39,1.29,8.08,2c6.4,1.67,13.73,3.51,20.56,2.85,6.26,1.36,12.91.23,19.2-.58s12.69-3.23,18.81-4.85c7.28-1.92,14.44-4.14,20.67-8.29,5.55-3.7,11.93-6.18,17.57-9.84,9.14-5.93,16.34-15.21,22.26-23.9,3.22-4.73,6-8.94,7.65-14.47,1.82-6,3.58-12.41,4.82-18.56a72.8,72.8,0,0,0,1.17-21.63C525.76,336,525.29,332.81,524.87,329.67Zm-5.62-5.81q-.07-.69-.18-1.38a1.56,1.56,0,0,0,.2.16C519.28,323,519.28,323.45,519.25,323.86Zm-196.48,46c-.19-.84-.38-1.67-.53-2.51.18.84.36,1.68.57,2.51Zm11.39-76.55a1.46,1.46,0,0,0-.16-.19l.47-.85A2.92,2.92,0,0,0,334.16,293.31Zm1.41,103.86c.26.33.51.66.77,1,.09.2.18.4.28.6l-.56-.7a2.59,2.59,0,0,0-.63-.57A1.73,1.73,0,0,0,335.57,397.17Zm36.74,20.49c-3.81-1.61-7.63-2.49-11.17-4.69a65.74,65.74,0,0,1-9.7-7.51,69.25,69.25,0,0,1-6.92-7.72,18.43,18.43,0,0,0-3.66-4.06,3.88,3.88,0,0,0-.23-.33,42.59,42.59,0,0,1-2.95-3.66c-.67-1.31-1.25-2.66-1.83-3.72a93.28,93.28,0,0,1-5.9-12.21,79.45,79.45,0,0,1-3-10.15c-.51-3.1-.64-6.27-1-9.4a40,40,0,0,1,.5-11.92c1.56-7.45,3.24-15,5.25-22.33,1.08-4,2.12-7.92,3.19-11.87,1.14-4.19,3-8.23,4.19-12.39,1.85-2.57,4-5,6-7.62,1.54-2,3.2-4,4.92-5.87a111.29,111.29,0,0,1,10.9-6.06c8.51-4.29,17.28-9.41,26.69-11.65a2.39,2.39,0,0,0,1.65-1.18c4.75-.61,9.49-1.19,14.25-1.68,8.62-.9,17-2,25.71-1.92a3.13,3.13,0,0,0,.44,0c.43.06.86.12,1.29.16a81.71,81.71,0,0,1,14.84,3c3.37,1,6.93,1.71,10.23,3,2.38.9,4.39,2.13,6.6,2.89a2.25,2.25,0,0,0,.45.35c10.77,6.87,21.1,14.37,28.88,24.26,3.32,4.22,6.83,8.42,9.95,12.76,3.81,5.34,5.4,11.76,7.26,17.9a1.77,1.77,0,0,0-.05.52v.33a2.28,2.28,0,0,0,.62,1.54c.68,1.88.81,5.27,1,6.94.4,3.21.7,6.53.95,9.75.47,5.91-.71,11.86-1.52,17.7a50.34,50.34,0,0,1-6.91,20.32c-3,5-5.41,10.47-9.6,14.8a58.35,58.35,0,0,1-12.81,10c-6.16,3.48-12.19,7.41-19.05,9.56-7,2.2-13.92,4.57-21,6.6s-13.18,4.87-20.75,5.48a3.39,3.39,0,0,0-.57.09c-6.24-1.55-13-1-19.38-1.45-1.72-.28-3.43-.58-5.14-.94A121.6,121.6,0,0,1,372.31,417.66ZM513.17,382.6l-.19-.06c.25-.45.49-.9.73-1.36C513.54,381.66,513.36,382.13,513.17,382.6Zm7.52-44.84a39.51,39.51,0,0,1,.37,4C520.94,340.45,520.82,339.11,520.69,337.76Z" transform="translate(-65 -62.98)"/><path class="cls-3" d="M385,440.68c-1.31-.93-3.15-1.08-4.65-1.6-2.31-.81-4.59-1.77-6.85-2.67a66.3,66.3,0,0,0-9.14-3.07c-.66-.34-1.31-.67-1.94-1l-.3-.13a2.14,2.14,0,0,0-1.62-.12,3,3,0,0,0-1.35,1,2.38,2.38,0,0,0-1.27,2.88,2.15,2.15,0,0,0-.15.38,2.41,2.41,0,0,0-.08.25c-6.24,13.13-10.54,27.16-16.17,40.57-1.7,3.21-3.91,6.69-4.62,10a2.5,2.5,0,0,0,.64,3.75c5.13,2.57,11,3.69,16.24,6.13a2.49,2.49,0,0,0,2.45-.12,19.26,19.26,0,0,1,5.4,2.81,2.64,2.64,0,0,0,3.24.07c3.06-1.24,4.6-9.53,5.48-12,1.75-5,3.69-9.91,5.44-14.92s3.64-9.62,5.48-14.42c1-2.63,1.68-5.31,2.5-8,.67-2.2,1.93-4.4,2.42-6.62a2.57,2.57,0,0,0-.07-1.39A2.52,2.52,0,0,0,385,440.68Zm-10.35,9,.14-.07-.33.68C374.56,450.07,374.63,449.87,374.69,449.67Z" transform="translate(-65 -62.98)"/><path class="cls-3" d="M401.8,572.4a153.67,153.67,0,0,0-4.38-18.15c-1.88-6.37-5.07-11.59-8-17.46-1.32-2.69-2.47-5.43-3.77-8.13a74.73,74.73,0,0,0-4.27-6.88,41.92,41.92,0,0,0-12.51-13.16c-5.65-3.72-12.18-6.53-18.37-9.23A130,130,0,0,0,330.1,492c-2.88-.73-6.11-.82-8.85-1.85-3.28-1.25-6.07-2.9-9.59-3.58-7-1.35-14.32-.51-21.36.09-5.7.49-11.48,1-16.81,3.31-3,1.3-5.66,2.76-8.86,3.41-4,.8-7.94.64-11.85,1.72-13.4,3.69-26.75,6.35-40.39,8.85A57.08,57.08,0,0,0,202,506.48c-3.19,1.25-5.94,3.24-8.91,4.88A108.39,108.39,0,0,0,179,521c-5.31,4.06-10,8-12.94,14.08a45.52,45.52,0,0,0-2.5,8.16,64.71,64.71,0,0,1-3.55,8.94,26.7,26.7,0,0,0-2.5,9.46c-.26,4.06-1.29,8-1.21,12.07s-.23,8.58-2.22,12.43c-1.66,3.2-4.93,5.64-5.48,9.32-.46,3.15,4.35,4.5,4.82,1.33.43-2.9,3.64-5.63,5-8.12a29.15,29.15,0,0,0,2.68-8.55,32.72,32.72,0,0,0,.22-6.41c0-3.76.87-7.43,1.19-11.16.51-5.87,3.52-10.3,5.32-15.76,1.66-5,2.48-9.82,5.65-14.29s8.78-8.08,13-11.27A100.33,100.33,0,0,1,201.81,512c5.28-2.61,11.31-3,17-3.91,6.5-1,13-2.65,19.44-4,6.83-1.38,13.54-4.32,20.44-5.09a60.25,60.25,0,0,0,8.86-1.19c3.1-.82,5.71-2.45,8.66-3.64,4.62-1.86,9.87-2.13,14.79-2.6,7.48-.72,16.07-1.79,23.31.84,2.24.81,4.24,2.29,6.53,3,2.78.84,5.82.82,8.66,1.6a121.3,121.3,0,0,1,19.94,7.34c5.38,2.56,11.28,4.82,16.24,8.12,6,4,9.65,9.26,13.61,15.12,3.07,4.53,4.62,9.88,7.19,14.7,1.94,3.65,4.11,6.94,5.46,10.95,1,2.87,1.73,5.83,2.45,8.76,1.62,6.59,3.55,13.15,1.63,19.87-1.83,6.43-7.54,10.78-11.57,15.77a2.58,2.58,0,0,0-.58,1.62,24.16,24.16,0,0,0,.58,4.41c0,.14,1.58,10.55,1.67,11.61.29,3.46.89,6.95,1,10.41.33,8.21-2.15,19.15-8.31,24.82-3.09,2.84-6.93,6-11,7.1-3,.81-6.3,1.47-9,3.11a49.62,49.62,0,0,0-7.16,5.76c-1.78,1.59-3.91,3.54-4.37,6-.59,3.14,4.23,4.49,4.82,1.33.53-2.88,6-6.57,8.41-8.14,3.73-2.47,8.11-2.65,12.1-4.44,7.17-3.22,14.22-10.53,16.58-18A75.31,75.31,0,0,0,392,631c.65-4.65-.29-9.06-.66-13.66a87.15,87.15,0,0,0-1.59-11.47,19.22,19.22,0,0,0-1.33-5.06c3.53-4.28,7.73-8,10.64-12.83A24.72,24.72,0,0,0,401.8,572.4Z" transform="translate(-65 -62.98)"/><path class="cls-3" d="M519,83.89l.47,0c2.49.2,3.38-3.52,1.26-4.66C516.39,77,511.82,74,507,72.9c-5.07-1.16-9.92-2.14-14.88-3.69-9-2.8-18.74-5.82-28.25-6.07a135.15,135.15,0,0,0-16.84.2c-2.19.22-4.34.69-6.52,1-2.92.4-5.75,0-8.65.3-5,.58-10,1.94-15,2.56s-10.09-.38-15,.75c-8.92,2-17.76,7.7-25,13.1-3.45,2.57-7.48,5-10.6,8-1.37,1.31-2.24,2.77-3.86,3.85-2.26,1.49-4.77,2.75-7.08,4.18-7.69,4.75-13.93,9.24-19.26,16.59-2.82,3.9-5.88,7.3-8.19,11.55a133.79,133.79,0,0,1-8.5,13.3,161,161,0,0,0-15.29,27c-4.56,10.19-6.91,20.33-8.73,31.3-.85,5.15-2.26,10.16-3.14,15.3-1,6-1.29,12-2.21,18-1.7,11-6.47,21.32-11,31.37-4.07,9-8,18.11-13.13,26.56-2.36,3.94-3.58,8.46-5.79,12.52-2.3,4.23-4.45,8.31-6.33,12.75-1.62,3.84-3.92,7.15-5.51,11.06-2.1,5.15-4.14,10.34-4.85,15.89-1.35,10.49.75,20.88.35,31.35-.24,6.34,1.43,12.6,1.56,19,.13,6.16.21,12.43-1.31,18.45s-4,11.76-5.53,17.78c-1.36,5.27-3,10.4-4.67,15.6-3.15,9.88-10.93,18.73-12,29.26-.61,6.06-1,12.19-1.5,18.27-.21,2.44-1,4.72-1.27,7.14-.06.66,0,1.31,0,2,0,1.06-.73,3.12.37,2.33-2.59,1.86-.1,6.2,2.52,4.32,2.13-1.53,2.05-3.7,2.12-6.14.13-4.13,1-8.38,1.52-12.52.63-5.34.44-11,1.4-16.24.82-4.48,3.36-8.31,5.06-12.44,1.85-4.46,4.6-8.49,6.16-13.09s2.9-9.29,4.25-13.94c1.4-4.83,2.46-9.71,4.21-14.44A55.09,55.09,0,0,0,250,403.11a108.14,108.14,0,0,0,.15-16.2c-.31-5.72-1.69-11.23-1.34-17,.65-10.91-2.45-21.71.16-32.59,2.27-9.42,7.25-17.73,11.18-26.46,3.74-8.31,8.38-16.32,12.34-24.5,8.56-17.69,19.58-36,22.46-55.79,3.19-21.88,5.15-44.69,14.57-65A143,143,0,0,1,325.19,139a85.19,85.19,0,0,0,6.95-11.28c2.53-4.66,6-8.54,9.08-12.82,5.45-7.59,14.26-12.5,22.28-17.06,3.41-2,5.13-4.51,8.26-6.82,4.23-3.12,8.4-6.31,12.81-9.16s9.2-5.93,14.12-7.71c5.87-2.13,11.22-1.25,17.25-1.85,5.31-.53,10.35-1.82,15.6-2.6,2.61-.4,5.16.07,7.77-.2,3.15-.32,6.24-1.15,9.41-1.33,12.24-.71,23.84.88,35.67,3.71,5.49,1.31,10.46,3.81,16,4.9a43.46,43.46,0,0,1,7.91,1.83,100.56,100.56,0,0,1,9.84,5l1.26-4.66-.47,0c-3.21-.26-3.19,4.74,0,5Z" transform="translate(-65 -62.98)"/><path class="cls-3" d="M519.41,85c10-.43,19.8-5,29.94-4.23,6,.44,11.88,2.67,17.71,4.15,2,.5,3.93.88,6,1.2,3.49.55,6.7,1.91,10.09,2.89a95.09,95.09,0,0,1,16.54,6.32c4.73,2.4,8.66,6,13.5,8.2s8.94,5.67,13.36,8.85a29.9,29.9,0,0,1,5.85,5.15,11.53,11.53,0,0,0,4,3.27c4.73,2.43,8.27,6.58,12.1,10.2s8.88,5.71,13,9.18c8.19,6.95,16,14.27,23.63,21.86,3.79,3.78,6.71,6.93,8.78,12,2.24,5.46,4.86,10.81,7.3,16.19,2.28,5.05,4.89,9.9,6.32,15.29.74,2.79,1.21,5.64,2,8.42.9,3.32,2.49,6.16,3.65,9.36a233.18,233.18,0,0,1,8.9,33.15c2.4,11.84,2.36,24,4.29,35.91.93,5.7,2.08,11.38,2.8,17.11.65,5.11,1.54,9.66,3.9,14.27,2.77,5.41,4.43,11.18,6.56,16.85,2.29,6.1,5.07,12,7.27,18.15a282.6,282.6,0,0,1,10.5,36.05A99.27,99.27,0,0,1,760,413.6a54.86,54.86,0,0,1-2.74,18.47c-1.68,5.41-3.76,10.83-4.77,16.42s-1.58,11.08-2.39,16.6a44.91,44.91,0,0,0-.08,14.45c.9,5,.88,10.08,1.63,15.12,1,6.46,1.16,12.71,3,19.06,2,6.73,4.55,13.27,7,19.83s2.42,13.19,3.86,19.88,3.61,13.32,3.74,20.32c.26,13.56-6.65,24.69-9.47,37.58a75.15,75.15,0,0,0-2,18.12c.07,3.46,0,6.93.07,10.39,0,3.17.66,6.54-.09,9.64l3.67-1.5-.85-.42c-2.87-1.43-5.41,2.88-2.52,4.32l.85.42a2.53,2.53,0,0,0,3.67-1.49c1.11-4.57.27-9.65.27-14.32,0-6.94-.44-13.67,1-20.5,2.41-11.43,8.26-22,9.84-33.52,1.69-12.31-2.64-22.88-4.1-34.85-.68-5.62-1.47-10.93-3.5-16.26-2.4-6.26-4.79-12.54-6.69-19-3.17-10.71-2.57-21.9-4.37-32.79-1-6.27-.37-11.79.6-18s1.42-12.27,3.26-18.26c1.68-5.47,3.68-10.88,5.11-16.42,1.55-6,1.22-12.8.58-18.9-1.25-12-4.55-23.88-8.09-35.38-3.85-12.53-9.09-24.38-13.42-36.71a141.66,141.66,0,0,0-6.26-15.44c-2.62-5.38-2.62-11.3-3.63-17.09s-2.06-11.76-3-17.66c-1.11-6.89-.93-13.77-1.78-20.67-1.45-11.82-4-24.43-8.19-35.57-1.86-5-3.88-10.15-5.52-15.16-1.8-5.52-2.44-11.22-4.67-16.62-2.06-5-4.48-9.78-6.63-14.7-2.37-5.44-4.48-11.69-7.75-16.64-2.55-3.87-6.24-6.85-9.39-10.2a130.83,130.83,0,0,0-12.53-11.25c-4-3.32-7.38-7.34-11.61-10.46-4.52-3.34-9-5.8-13-9.8-4.28-4.24-9.42-7.34-13.69-11.33-3.92-3.68-8.46-6.66-12.73-10-4.67-3.61-10.35-5.51-15.23-8.89a74.61,74.61,0,0,0-15.13-7.58c-5.74-2.3-12.47-4.9-18.61-5.64-6.59-.8-12.7-3.55-19.18-4.71-6.24-1.12-11.61,0-17.75.43-5.93.45-11.52,2.85-17.43,3.1-3.21.14-3.22,5.14,0,5Z" transform="translate(-65 -62.98)"/><path class="cls-3" d="M361.43,440.2H361l1.75,1.75c-.23-.64.43-3.1.53-3.61.26-1.3.54-2.6.85-3.89.58-2.46,1.47-4.85,1.94-7.33.6-3.15-4.22-4.5-4.82-1.33-.81,4.28-2.33,8.41-3.11,12.72-.55,3.1-.94,6.84,3.29,6.69,3.21-.12,3.23-5.12,0-5Z" transform="translate(-65 -62.98)"/><path class="cls-3" d="M365.43,425.32l-.24-.29c-1.18-1.46-3.79-.62-4.18,1.1a54.07,54.07,0,0,1-2.72,9.51l4.57,1.92c.4-2.49,1.8-6,3.88-7.7l-3.92-.5c.44,1-.38,3.15-.18,4.37a2.52,2.52,0,0,0,3.68,1.49,5.65,5.65,0,0,0,2.31-2.81l-4.57-1.92c-.1.75-.2,1.47-.24,2.24-.08,1.79,2.23,3.25,3.76,2.16.66-.47,1.19-1.24,1.81-1.66l-3.42-.9a5.12,5.12,0,0,0,1.89,2.52,2.53,2.53,0,0,0,3-.39,8.24,8.24,0,0,1,1.83-1.66L368.46,431l-.18,1.8c-.35,1.94,1.7,4.15,3.67,2.82,1-.68,1.52-1.52,2.44-2.26l-4.18-1.11c.24,1.44-.33,2.2.33,3.71a2.47,2.47,0,0,0,2.16,1.24c2.44-.07,2.12-1.69,3.74-2.76L372.77,433a20.22,20.22,0,0,1-.11,3.11,2.52,2.52,0,0,0,3.16,2.41c1.49-.33,1.65-.88,2.83-1.79L375,435.22c.19.56-.09,2.54,0,3.3a2.53,2.53,0,0,0,4.26,1.77,9.09,9.09,0,0,0,1.91-2.1L377,437.08a6.55,6.55,0,0,1,.32,1.36c.3,1.76,2.34,2.07,3.67,1.5,1.55-.67,2.36-1.92,3.55-3.05l-4.18-1.1v1.74c-.16,2.11,2.88,3.36,4.27,1.77.5-.61,1-1.2,1.59-1.76l-4.27-1.77a7.71,7.71,0,0,1,0,1.36c-.12,2.39,2.72,3,4.27,1.77a9.93,9.93,0,0,0,2.24-2.42l-4.66-1.26a11.61,11.61,0,0,1-1.53,4.94c-1.66,2.77,2.66,5.29,4.32,2.53a16.7,16.7,0,0,0,2.21-7.47c.15-2.72-3.32-3.07-4.66-1.27l-1.45,1.42,4.26,1.76a7.71,7.71,0,0,0,0-1.36,2.53,2.53,0,0,0-4.27-1.77c-.55.57-1.08,1.15-1.59,1.76l4.27,1.77a11.7,11.7,0,0,0-.18-3.07c-.3-2-2.95-2.28-4.18-1.11a9.58,9.58,0,0,1-2.53,2.27l3.67,1.49a7,7,0,0,0-.31-1.35c-.48-1.63-3-2.66-4.18-1.11a9.32,9.32,0,0,1-1.91,2.1l4.27,1.77c-.17-1.7.41-2.95-.17-4.63-.46-1.35-2.3-2.55-3.67-1.49a10.23,10.23,0,0,1-1.64,1.28l3.17,2.41a20.53,20.53,0,0,0-.07-4.44,2.52,2.52,0,0,0-3.67-1.5c-.47.31-2.78,2.12-1.22,2.08l2.16,1.24c.45,1,.25-2,.17-2.52-.34-2.05-2.88-2.14-4.18-1.1-.47.38-.94,1.15-1.43,1.48l3.68,2.82a23.28,23.28,0,0,0,.36-3.12c.1-2.4-2.71-3-4.27-1.76a7.78,7.78,0,0,0-1.83,1.65l3-.39c.92.66.22,0-.1-.72a2.52,2.52,0,0,0-3.42-.9c-.71.48-1.15,1.19-1.81,1.66l3.76,2.16.06-.91c.36-2.55-3.17-4.71-4.57-1.93-.16.34-.33.68-.52,1l3.68,1.5c-.34-2,.59-3.51-.34-5.57-.72-1.61-2.8-1.4-3.92-.5-2.69,2.15-4.64,6.59-5.17,9.91-.41,2.52,3.36,4.75,4.56,1.92a59.44,59.44,0,0,0,3.23-10.7l-4.17,1.1.23.3c2,2.49,5.55-1.06,3.54-3.54Z" transform="translate(-65 -62.98)"/><path class="cls-3" d="M362.12,495.27c0,2.83-1.72,5.73-2.15,8.5l4.91.67c0-2.17.76-4.47.11-6.56-.43-1.38-2.33-2.51-3.67-1.49-1.79,1.35-1.89,2.53-3,4.49l4.57,1.93a14.29,14.29,0,0,0,.39-3.5c-.21-2.38-3.31-3.51-4.66-1.26-.4.66-.7,1.58-1.16,2.19l4.65,1.27c0-.77-.06-1.54-.11-2.31a2.53,2.53,0,0,0-3.76-2.16l-.61.35,3.42.9-.1-.4a2.51,2.51,0,0,0-3.67-1.49l-.59.41,3,.39-.46-.4a2.56,2.56,0,0,0-3-.4,7.12,7.12,0,0,0-1.17.76l3.42.9,0,.33c-.11-1.21-1.07-2.69-2.5-2.5-2.11.28-2.8,1-4,2.8l4.66,1.26v-.49l-3.17,2.41,1.53.56c2.43,1.21,5.19-1.87,3-3.93-3.37-3.19-6.73-4.57-11.16-5.76-1.09-.29-2.17-.61-3.26-.88-.84-.22-1.7-.42-2.56-.59l1,1.54a8.07,8.07,0,0,0,1.09-3.47,2.52,2.52,0,0,0-4.27-1.76,13.49,13.49,0,0,0-2.48,3.67l4.57,1.93a10.48,10.48,0,0,1,1.27-2.55l-4.32-2.52a12.31,12.31,0,0,1-1.45,2.38l4.26,1.77a9.24,9.24,0,0,1,.78-1.76,2.52,2.52,0,0,0-3.42-3.42c-1.91.85-2.75,3.28-3.65,5-1.47,2.85,2.84,5.38,4.32,2.52.41-.79,1-2.85,1.86-3.23L337.18,488a9.73,9.73,0,0,0-1.47,4.29A2.53,2.53,0,0,0,340,494a14.11,14.11,0,0,0,2.24-3.4c1.48-2.85-2.65-5.29-4.32-2.52a10.84,10.84,0,0,0-1.78,3.74c-.53,2.6,3.3,4.64,4.57,1.93a6.6,6.6,0,0,1,1.7-2.67l-4.26-1.77c-.11,2.62-2.83,4.27.39,6.36,1.73,1.12,5,1.33,7,1.86,3.52.95,6.2,1.87,8.95,4.48l3-3.93a13.45,13.45,0,0,0-2.72-1.06,2.51,2.51,0,0,0-3.16,2.41V500a2.52,2.52,0,0,0,4.66,1.26l-.34-.32-2.5-2.5a4,4,0,0,0,.66,2.19,2.54,2.54,0,0,0,3.42.9,8.08,8.08,0,0,1,1.17-.76l-3-.39.46.41a2.54,2.54,0,0,0,3,.39l.58-.42-3.67-1.49a4.6,4.6,0,0,0,.61,1.59,2.53,2.53,0,0,0,3.42.9l.6-.35L357,499.2c0,.77.09,1.54.11,2.31.11,2.64,3.21,3.18,4.66,1.26a21.88,21.88,0,0,0,1.17-2.2l-4.66-1.26a9.92,9.92,0,0,1-.21,2.17c-.43,2.64,3,4.54,4.56,1.92.14-.23,1.12-2.6,1.24-2.7l-3.67-1.49c.38,1.24-.3,3.94-.29,5.23,0,2.7,4.47,3.53,4.91.66.52-3.36,2.37-6.4,2.33-9.83,0-3.21-5-3.22-5,0Z" transform="translate(-65 -62.98)"/></svg>