<svg xmlns="http://www.w3.org/2000/svg" viewBox="0 0 519.19 461.46"><defs><style>.cls-1{fill:#1a1a1a;}.cls-2{fill:#181818;}</style></defs><title>share</title><g id="Layer_2" data-name="Layer 2"><g id="Layer_1-2" data-name="Layer 1"><path class="cls-1" d="M157.8,308.41c1.34-2.85.91-5,.88-7.05-.16-12.34.2-24.62,3.13-36.72a65,65,0,0,1,9.3-20.86c5.12-7.69,11.58-8,17.35-.7,7.93,10.07,15.51,20.42,23.34,30.58,1.55,2,2.66,4.57,5.94,4.81,2.92.21,4,2.39,3.23,5-.8,2.83-3,3.82-5.86,3.23-3.77-.77-5.85-3.74-8-6.46-7.47-9.6-14.82-19.28-22.17-29-5.18-6.83-5.25-6.79-9.61.8-7.14,12.45-8.32,26.17-8.63,40.06-.19,8.82,0,17.66,0,26.49,0,2.33-.16,4.66-.36,7-.19,2.12-1,4-3.3,4.47-2.48.55-4.29-.71-5.26-2.85-8.3-18.1-19.54-34.73-25.37-54.12-8.58-28.57-15.47-57.5-21.56-86.66-3.23-15.47-6.73-30.87-10.92-46.11-.89-3.23-1.37-6.48,2.71-7.9,2.74-.94,7.22,2.42,7.27,6.06.19,14.51,5.48,28,8.22,42,6.66,34,14.12,67.77,25.79,100.46A134.88,134.88,0,0,0,157.8,308.41Z"/><path class="cls-2" d="M75.35,345.38c-6.83,0-13.66.18-20.48,0-11.36-.36-19-7.7-19.86-19-1.1-14.67,2.71-27.66,13.5-38.2A156.17,156.17,0,0,1,68,271.74c5.1-3.57,10.43-6.09,17.1-5.78,10.33.49,16.38,5.82,16.91,16.3.22,4.48,0,8.89,2.21,13.1,1.33,2.6.75,5.51-2.31,6.68s-4.23-1-5.6-3.45c-2.36-4.15-2.6-8.49-2.52-13,.21-11.85-7.23-14.34-16.66-9.57-11.33,5.74-20.77,14.37-28.42,24.69-6.07,8.21-6.4,17.7-5.37,27.25.57,5.29,4.81,8.73,10.81,9.39,13.95,1.52,28,.21,41.93.47,5.61.1,10.93.93,15.89,3.58,6.79,3.62,9,7.9,8.27,15.5a11.87,11.87,0,0,1-2.57,6.38,52.43,52.43,0,0,1-16.42,13.6c-2.72,1.46-6.09,2.52-7.75-1.23s1.55-4.56,4.23-5.85a37,37,0,0,0,13.38-11c2.8-3.67,2.23-6.72-1.54-9.36-4.1-2.87-8.8-3.88-13.71-3.92-6.83-.05-13.66,0-20.49,0Z"/><path class="cls-2" d="M487.82,167c.2-22.4,4.66-44.29,8.42-66.23,4.13-24.09,8.42-48.15,11.69-72.38.42-3.14,1.08-6.26,3.11-8.84,1.46-1.85,3.33-2.84,5.69-1.74S519.49,21,519,23.3c-8.2,39-14.09,78.5-20.59,117.84a178.94,178.94,0,0,0-2.33,30.34c0,6,1.2,11.57,5.45,16.14,1.92,2.06,2.61,4.54.4,6.65-2.36,2.25-5,1.51-7.08-.65a24.82,24.82,0,0,1-7-16.13C487.66,174,487.82,170.49,487.82,167Z"/><path class="cls-1" d="M226.53,251.92c.13-11,1.12-21.9,4.28-32.5,1.38-4.64,3.15-9.15,6.43-12.82,4.3-4.81,10.27-4.47,13.95.82a52.16,52.16,0,0,1,3.85,7c.74,1.51,1.44,3.64.16,4.74-4.25,3.66-.75,5.6,1.53,7.57a110.83,110.83,0,0,0,17.16,11.94c3.21,1.86,6.81,2.77,10.37.57,2.37-1.47,4.56-1.35,6.06,1s.57,4.46-1.17,6.32-4.06,2.07-6.43,2.14c-7,.23-12.91-2.53-18.44-6.52-3.49-2.53-8-7.37-10.56-6.56-3.6,1.11-1.58,7.45-2.66,11.45-2,7.39-3.68,14.84-7.12,21.74-2.05,4.1-4.83,7.37-10.05,6.45s-7-4.72-7.31-9.38S226.53,256.57,226.53,251.92Zm8.41,13.59a1.46,1.46,0,0,0,1.82-1.11c5.67-12.63,8.37-25.81,7.13-39.66-.27-3-1.42-5.86,1.2-8.39,1.24-1.19.11-2.24-.71-2.86-1.25-.94-1.62.5-2.13,1.21a10.5,10.5,0,0,0-1.18,2.19C234.7,232.59,234.53,249,234.94,265.51Z"/><path class="cls-2" d="M42.34,461.37c-12.67.2-25.34.55-37.39-4.53C2.2,455.68-.76,454.66.18,451c1-4,4.53-3.75,7.4-2.71,20.44,7.36,41.48,5.23,62.3,3.41,18.57-1.63,37.2-2.59,55.72-4.61,14.19-1.55,28.55-2.41,41.85-8.45,2.39-1.08,4.74-.81,6.06,1.67s.27,4.54-1.89,6c-5.38,3.75-11.74,4.62-17.93,5.7-17.07,3-34.32,4.27-51.61,5.33-12,.74-23.89,1.9-35.79,3.29C58.3,461.63,50.32,461.07,42.34,461.37Z"/><path class="cls-1" d="M368.43,192.69c-10.17,0-17.27-5.51-18.27-14.65-.42-3.81-7-5-3.76-9.06a19.44,19.44,0,0,0,4.58-9.36c1.4-8,3.39-16,8-22.89,1.86-2.77,3.86-5.52,7.25-6.58,8.12-2.53,14.09,3,12.48,11.9-2,10.91-7.64,19.77-16.13,26.82-4.83,4-5.92,7.88-3.23,12.1s8.09,5.5,13.29,2.88c6.15-3.1,11.1-7.88,16.32-12.27,2.15-1.81,4.18-3.87,7-4.62,1.94-.51,3.8-.2,4.78,1.68s.82,4.18-1.15,5.33c-7.94,4.63-14.25,11.5-22.28,16C374.27,191.71,371,192.83,368.43,192.69Zm-9.18-32.42c6.34-5.25,9.37-11.53,11.27-18.47.31-1.13,1.07-2.81-.55-3.5s-2.33.87-3.11,1.9C362.5,145.9,361,152.66,359.25,160.27Z"/><path class="cls-1" d="M401.6,0c3.67,0,6.28,3.4,4.15,5.89-6.54,7.67-4,16.18-2.1,24.11a368.94,368.94,0,0,0,17.89,54.39,180.25,180.25,0,0,1,8.88,25.9,25.22,25.22,0,0,1,.82,4.38,3.64,3.64,0,0,1-2.48,3.91,3.94,3.94,0,0,1-4.86-1.44,7.76,7.76,0,0,1-1.32-2.65c-7.45-26.74-19.12-52.06-26.5-78.83-2.34-8.51-2.64-17.07-2.14-25.71C394.32,3.46,397.28,0,401.6,0Z"/><path class="cls-2" d="M301.45,181.05c2.33-10,6.85-17.25,17.15-19.87,2.18-.56,4.08-2.17,6.14-3.24a3.78,3.78,0,0,1,5.29,1.19c1.44,2,.76,3.89-.86,5.35A22.05,22.05,0,0,1,320.9,169c-7.4,2.32-10.93,6.78-10.76,14.65a252.4,252.4,0,0,0,3.38,34.24,33.07,33.07,0,0,1,.42,6c-.05,2.5-1,4.76-3.73,5.21s-4.41-1.59-4.86-4c-2.68-14.12-9.5-27-12.28-41.08a7.72,7.72,0,0,0-2.46-4.64c-3.48-3.17-2.54-7.3-1.3-11.13.53-1.67,2.3-2.26,4.15-2.16a4.94,4.94,0,0,1,4.73,3.78C299.37,173.53,300.37,177.3,301.45,181.05Z"/><path class="cls-1" d="M428.75,148.32c.3-3.26,2.12-6,4.47-8.35a4,4,0,0,1,5-.39c1.81,1.08,2,2.89,1.66,4.8-.35,1.74-2,3-1.66,5.06.47,3-.7,5-3.94,4.83C430.88,154.09,429,152.07,428.75,148.32Z"/></g></g></svg>