<svg xmlns="http://www.w3.org/2000/svg" viewBox="0 0 286.11 53.14"><defs><style>.cls-1{isolation:isolate;}.cls-2{fill:#333;}</style></defs><title>slogan</title><g id="Layer_2" data-name="Layer 2"><g id="Layer_1-2" data-name="Layer 1"><g id="Perching_with_you" data-name="Perching with you" class="cls-1"><g class="cls-1"><path class="cls-2" d="M3.21,16.52A1.85,1.85,0,0,0,3,18.35c.29.65.17,1.3-.36,1.53a1.59,1.59,0,0,1-1.47.06A2.09,2.09,0,0,1,.09,17.35a7.81,7.81,0,0,1,1.06-2.72,35.07,35.07,0,0,1,4.6-5.19C13.48,2.71,22.21-.47,32,.06a20.49,20.49,0,0,1,7.91,2,11,11,0,0,1,3.18,2,6.73,6.73,0,0,1,1.3,9.38,18.2,18.2,0,0,1-3.78,3.95,42.18,42.18,0,0,1-5.48,3.31,85.66,85.66,0,0,1-18.06,6.73c-2.71.7-2.77.7-3.13,3.77-.41,3.9-.7,7.91-1.06,11.8-.12,1.24-.53,2-1.47,2.19a1.82,1.82,0,0,1-2.25-1.12,8.25,8.25,0,0,1-.59-2.84c.18-2.77.36-5.6.77-8.32a170,170,0,0,1,3.54-20.47c.36-1.65.83-3.19,1.18-4.78-.12-.12-.23-.18-.29-.24A31.18,31.18,0,0,0,3.21,16.52Zm21.31,4.6a61.46,61.46,0,0,0,12.39-5.6,14.62,14.62,0,0,0,4.54-4c1.42-2,1.24-3.95-.65-5.31A14,14,0,0,0,36.55,4c-4.89-1.59-9.79-1.18-14.75.12-4.48,1.18-5.19,11-5.78,14.1-.3,1.77-.59,3.6-1,5.9C18.5,23.07,21.57,22.18,24.52,21.12Z"/><path class="cls-2" d="M48.05,31.33c3.19-1.06,5-2.6,7.32-4.66,2-1.89,3.07-.06,1.77,1.59-2.24,2.83-8.14,6.79-12,6.61-3.66-.35-5.54-3.13-4.54-6.61a9.27,9.27,0,0,1,2-3.54c1.65-1.95,5.9-5.07,8.14-2.71,2.71,2.71-3.48,8.73-6.73,7.43C43.57,32.51,46,32,48.05,31.33Zm-2.77-4.25A4.49,4.49,0,0,0,48.64,24,5.57,5.57,0,0,0,45.28,27.08Z"/><path class="cls-2" d="M61.68,23.13A18.86,18.86,0,0,1,64.52,21a2.65,2.65,0,0,1,3.42.41,3.21,3.21,0,0,1,.41,3.42,1.27,1.27,0,0,1-1.42.94c-.53,0-.76-.47-.7-1.06a2.71,2.71,0,0,0,.06-.94c-.12-.77-.59-.95-1.42-.47a7,7,0,0,0-1.48,1.24C61,27,59,30.09,59,33.4a2.42,2.42,0,0,1-1.83,2.47,1.59,1.59,0,0,1-2-1.53c-.29-2.12.06-10,2-13.51a2.3,2.3,0,0,1,2.12-1.18c.83.12,1.3.65,1.18,1.71s-.23,2-.41,3.36A18.07,18.07,0,0,1,61.68,23.13Z"/><path class="cls-2" d="M83.4,25.84c1.06-1.24,2.47.36,1.59,1.71-2.89,2.89-8.73,7.67-13,7.32-2.13-.18-3.54-1.95-3.13-4.72.47-3.54,2.48-7.38,5.9-8.44a3,3,0,0,1,4,3,1.59,1.59,0,0,1-1.06,1.89,1.35,1.35,0,0,1-1.65-1.06c-.41-1.6-1.36-.24-2,.41C67.82,37.7,80.33,29.38,83.4,25.84Z"/><path class="cls-2" d="M102,26.79c.3-.36.53-.65.77-.95.47-.47.94-.71,1.53-.35a1,1,0,0,1,.24,1.53,38.5,38.5,0,0,1-2.19,3.25,34.39,34.39,0,0,1-3.24,3.95c-1.77,1.89-3.72,1.48-4.72-.88a30.59,30.59,0,0,1-1.18-7.14c-2.18,1.18-3.9,4.54-5.25,6.49a4,4,0,0,0-.3,1.47,1.89,1.89,0,0,1-3,1.48,2.6,2.6,0,0,1-1.35-2.19C82.51,26.14,84,11.74,86,7.14c1-2.3,4.37-1.77,3.54.88-1.59,5.08-2.42,16-2.36,21A41.23,41.23,0,0,1,92,23.6c1.77-1.59,3.66-.94,4.19,1.42.29,1.29.29,2.71.47,4.13.24,2.18.24,4.78,2,2.12C99.8,29.8,100.86,28.32,102,26.79Z"/><path class="cls-2" d="M111.54,26.55c.88-.77,2.36.06,1.65,1.3a5.45,5.45,0,0,1-.71,1.06c-1.53,1.65-3,3.42-4.54,5.08a6.15,6.15,0,0,1-1.6,1.12c-2.24,1.18-4.36.17-4.78-2.3a15.37,15.37,0,0,1,1.3-8A1.64,1.64,0,0,1,105,23.72a1.67,1.67,0,0,1,1.18,2c-.06,1.24-.42,3.25-.59,4.49-.12.59-.12,1.47-.24,2.54C106.11,33.4,109.59,28.26,111.54,26.55Zm-4.31-5.19a2,2,0,0,1-1.12.94,2.25,2.25,0,0,1-2-2,1.26,1.26,0,0,1,1.36-1.07C106.29,19.29,107.47,20.71,107.23,21.36Z"/><path class="cls-2" d="M124.22,25.37c.36,2.18-.23,7.32.89,7.55a1.45,1.45,0,0,0,.82-.53c1.89-1.89,4.49-5.84,5-6.31.71-.71,1.53.59,1.42,1.3-.3,1.89-4.61,6.9-6.61,7.73A2.67,2.67,0,0,1,122,33.22a23.89,23.89,0,0,1-.59-4.13c-.06-.71-.06-1.42-.12-2.42-2.6,2.36-3.25,5.31-5.49,7.73a2.78,2.78,0,0,1-4.19-.36,7.49,7.49,0,0,1-.65-3.48,27.77,27.77,0,0,1,1.24-8.73,6.59,6.59,0,0,1,.36-.88c.47-1.13,1.3-1.6,2.12-1.24a1.67,1.67,0,0,1,1.06,2.3c-1.12,3.6-1.71,7.84-.94,8.91.94.71,3.42-5.67,5.43-6.91C121.86,22.83,123.87,23.31,124.22,25.37Z"/><path class="cls-2" d="M129.35,32.16c-.59-4.13,2.19-9.92,5.9-11.86a6.81,6.81,0,0,1,3.07-.71,3,3,0,0,1,3,2.95,2.55,2.55,0,0,1-.76,1.47,1.1,1.1,0,0,1-1.54-.53,3.94,3.94,0,0,1-.47-.65c-2.95.48-7.08,7.79-5.19,9.5,2.12-.41,4.36-2.89,5.42-4.72A3.06,3.06,0,0,1,140,26.43a2,2,0,0,1,3,1.95c0,1.59-.11,3.19-.23,4.78a69.3,69.3,0,0,1-4.37,16.58,6.88,6.88,0,0,1-1.24,2.12A4.94,4.94,0,0,1,135.25,53a2,2,0,0,1-2.24-.65c-.59-.76-.35-1.47-.06-2.3a113.8,113.8,0,0,0,5.43-18.41C134.9,34.4,130.3,36.94,129.35,32.16Z"/><path class="cls-2" d="M168,26c.71-1.24,1.77-3.19,3.3-2.83.95.35,1.07,1.35,1.18,2.24s.18,1.83.3,2.71c.23,2.25,1.59,4.31,3.36-.53.59-1.35,1.06-2.53,1.77-3.89,2-3.37,3.6-.59,3,1.06-.82,2.24-1.77,4.6-2.77,6.9a5,5,0,0,1-1,1.3c-2.12,2.48-4.72,2.13-6.19-.76a27.26,27.26,0,0,1-1.3-3.54A24.25,24.25,0,0,1,167,32.33c-1.41,1.6-3,3.78-5.19,2.54a3.59,3.59,0,0,1-1.59-3.3,23.58,23.58,0,0,1,2.07-9.27,2.94,2.94,0,0,1,1-1.24,1.67,1.67,0,0,1,2.54,1.66,5.37,5.37,0,0,1-.42,1.77c-.71,1.41-2.65,8.91.53,4.72C166.64,28.2,167.29,27.08,168,26Z"/><path class="cls-2" d="M190.89,26.55c.89-.77,2.36.06,1.65,1.3a5,5,0,0,1-.71,1.06c-1.53,1.65-3,3.42-4.54,5.08a6.1,6.1,0,0,1-1.59,1.12c-2.25,1.18-4.37.17-4.78-2.3a15.17,15.17,0,0,1,1.3-8,1.63,1.63,0,0,1,2.12-1.12,1.67,1.67,0,0,1,1.18,2c-.06,1.24-.41,3.25-.59,4.49-.12.59-.12,1.47-.24,2.54C185.46,33.4,188.94,28.26,190.89,26.55Zm-4.31-5.19a2,2,0,0,1-1.12.94,2.26,2.26,0,0,1-2-2,1.26,1.26,0,0,1,1.36-1.07C185.64,19.29,186.82,20.71,186.58,21.36Z"/><path class="cls-2" d="M203.22,12a8.69,8.69,0,0,1,1.71-.36,1.1,1.1,0,0,1,1.3.89,1.17,1.17,0,0,1-.77,1.41c-.82.24-1.65.47-2.42.65-1.59.36-3.77.89-5.42,1.18a1.54,1.54,0,0,0-1.42,1.48A74,74,0,0,0,195.08,36a5.13,5.13,0,0,0,.88,2.72c1,1.23.65,2.77-1.06,2.83a3.14,3.14,0,0,1-3.3-2.07,14.6,14.6,0,0,1-1-4.13c-.53-4.72.06-9.32.53-14,.18-1.12.3-2.36.48-3.66-.59.12-1,.18-1.48.29-.88.3-1.83.65-2.77,1-1.48.59-2.3.59-2.54-.18s.18-1.24,1.83-1.89a23,23,0,0,1,3.84-1.47,2.85,2.85,0,0,0,2.3-2.48c.41-1.65,1.53-5.13,3.77-4.37.95.36.89,1.36.71,2.72-.06.65-.18,1.24-.29,2.06C199,13,201.27,12.39,203.22,12Z"/><path class="cls-2" d="M217.62,26.79c.29-.36.53-.65.76-.95.48-.47,1-.71,1.54-.35a1,1,0,0,1,.23,1.53A36.13,36.13,0,0,1,218,30.27a35.47,35.47,0,0,1-3.24,3.95C213,36.11,211,35.7,210,33.34a30.59,30.59,0,0,1-1.18-7.14c-2.19,1.18-3.9,4.54-5.26,6.49a4.23,4.23,0,0,0-.29,1.47c-.3,1.65-1.59,2.3-3,1.48a2.61,2.61,0,0,1-1.36-2.19c-.77-7.31.71-21.71,2.72-26.31,1-2.3,4.36-1.77,3.54.88-1.6,5.08-2.42,16-2.36,21a41.23,41.23,0,0,1,4.78-5.37c1.77-1.59,3.65-.94,4.19,1.42.29,1.29.29,2.71.47,4.13.23,2.18.23,4.78,1.95,2.12C215.43,29.8,216.5,28.32,217.62,26.79Z"/><path class="cls-2" d="M243.1,22.36a2.16,2.16,0,0,1,1.71-1.65c1.36-.36,1.89,1.06,2.07,2.6.94,7-2.07,20.77-7.43,26.37a5,5,0,0,1-3.55,1.83,1.8,1.8,0,0,1-1.29-3.24c3.3-2.6,6.43-11.51,6.6-15.88-1.82,2.72-5.6,4.19-7,1.65-1.24-2.18-.82-6.84,0-9a1.69,1.69,0,0,1,1.95-1.3c.77.12,1.24.77,1.24,1.83,0,1.53-.06,3.07-.06,4.6,0,4.48,2.48,1.77,3.42-.24A50.22,50.22,0,0,0,243.1,22.36Z"/><path class="cls-2" d="M265,26.49c.42-.12.83-.35,1.12-.29a1.53,1.53,0,0,1,1.07.94,1.16,1.16,0,0,1-.3,1.18,4.23,4.23,0,0,1-1.65.95,18.85,18.85,0,0,1-3.6.64,2,2,0,0,0-1.95,1.24,7.45,7.45,0,0,1-5,3.66c-3.72.95-6.44-2.18-5.61-6.31.59-2.83,1.77-5,4.25-6.2a4.3,4.3,0,0,0,1.24-1.06c1.35-1.59,3.13-1.77,4.6-.24A6.79,6.79,0,0,1,261,25.37c0,.41.06.94.12,1.59A7.73,7.73,0,0,0,265,26.49Zm-12.27,3.19c-.12,1.24.35,1.83,1.42,1.71a3.69,3.69,0,0,0,3-2c-1.35-.59-2.53-1.12-3.12-3.18A6.16,6.16,0,0,0,252.72,29.68Zm5.43-3.9c-.18-1.65-.18-1.65-1.18-2.47C256.67,25.13,256.79,25.37,258.15,25.78Z"/><path class="cls-2" d="M272.9,30.68a10,10,0,0,1-4,3.19,2.94,2.94,0,0,1-2.72,0c-2.71-1.65-.71-7.91.53-9.38,1.42-1.72,4.49.05,3.07,1.77a12.28,12.28,0,0,0-1.53,4.95C269,32.16,273,27,274.49,25a9,9,0,0,1,.95-1.24c.94-.89,3.42-.53,3.54.71s-2,9.61.88,6.72c1.36-1.36,2.54-2.77,3.78-4.25,1.77-2.06,3.48-.59,1.77,1.3-2.54,3.19-5.25,6.91-7.73,6.73-2.13-.18-3.13-2.48-3-6.55A25.89,25.89,0,0,1,272.9,30.68Z"/></g></g></g></g></svg>