<svg xmlns="http://www.w3.org/2000/svg" viewBox="0 0 910.4 602.2"><defs><style>.cls-1{fill:#fbd338;}.cls-2,.cls-4{fill:#61be5f;}.cls-2{stroke:#61be5f;stroke-width:2px;}.cls-2,.cls-5{stroke-miterlimit:10;}.cls-3,.cls-5{fill:#1974d4;}.cls-5{stroke:#1974d4;}</style></defs><title>study_normal</title><g id="Layer_2" data-name="Layer 2"><g id="_1" data-name="1"><path class="cls-1" d="M510,23.25c.42,1,.81,1.89,1.17,2.84.26.7.49,1.53.73,2.42a19.83,19.83,0,0,0,2.25,5.77A7.55,7.55,0,0,0,515,35.4a4.55,4.55,0,0,0,.86.77A6.71,6.71,0,0,0,520,37.62a6.4,6.4,0,0,0,3.85-1.25c3.66-2.74,2.62-7.8,2.18-10a46,46,0,0,0-3.29-10.55l-.15-.31c-1.17-2.45-2.77-5.81-5.8-7.24A6.9,6.9,0,0,0,511.57,8a6.06,6.06,0,0,0-3.44,3.21,7.62,7.62,0,0,0-.62,3.57c0,.1,0,.19,0,.28a4.39,4.39,0,0,0,.63,3.18A42.92,42.92,0,0,0,510,23.25Z"/><path class="cls-1" d="M281.46,65.45a48.16,48.16,0,0,0,.76-5A22.55,22.55,0,0,0,284.55,59c2.89-2.08,5.37-7.12,4.35-10.76a5.37,5.37,0,0,0-1.72-2.7l.89-.51c.63-.36,1.34-.77,2.09-1.25a8.19,8.19,0,0,0,4.19-5.88c.48-3.31-1.18-6.57-4.58-8.47a8.51,8.51,0,0,0-3-1,9.12,9.12,0,0,0-1.46-.11c-10.4,0-13.05,10.59-15,18.34-.22.86-.43,1.69-.64,2.48l-.63.76-1,.46-.38.16-.25.14-.43.22-.74.35-2.7,1.23c-.47.22-.52.35-1.11.66l-.72.72c-1.43,2.18-.35,5.25.16,7.25a6.18,6.18,0,0,0,3.83,4.2c-1.22,7.54-.61,11.94,1.91,14.12a5.4,5.4,0,0,0,3.64,1.31,8.63,8.63,0,0,0,2.79-.51c5.08-1.76,6.23-8.39,7-12.77C281.22,66.74,281.34,66.05,281.46,65.45Z"/><path class="cls-1" d="M309.66,132.55a6,6,0,0,0-4.22-5.05,7.19,7.19,0,0,0-4.18-.2c-1.81-1.86-3.8-2.85-5.73-2.75a6.16,6.16,0,0,0-5,3.23,11.87,11.87,0,0,0-1.74,5,5.7,5.7,0,0,0-1.23,1.12,6.41,6.41,0,0,0-2.4,3,6.81,6.81,0,0,0,2.45,8.08,8,8,0,0,0,3.29,1.35q.13.52.27,1c.07.29.15.59.22.91.58,2.43,1.36,5.76,4,7.44a6.44,6.44,0,0,0,3.42,1,6.94,6.94,0,0,0,5.25-2.41c2.32-2.67,2.7-7.07,1.11-13.08C307.55,139.22,310,135.82,309.66,132.55Z"/><path class="cls-1" d="M345.09,24.13a4.64,4.64,0,0,0,.55-1l.68-1c2-3,4.43-6.69,4-10.94a12.88,12.88,0,0,0-1.23-4.24c-.06-.18-.12-.37-.19-.55A9.73,9.73,0,0,0,343.14.82a12.78,12.78,0,0,0-10,.42,11,11,0,0,0-5.61,7.17,10.66,10.66,0,0,0,1.42,8.74,9.88,9.88,0,0,0,1.45,1.63,1.36,1.36,0,0,1-.3.16,1.43,1.43,0,0,1-.43-.31,5,5,0,0,1-.64-.78,5.72,5.72,0,0,0-4.6-2.77,5.43,5.43,0,0,0-5.21,2.64c-1.8,3.1-.51,8,.94,10.27,3,4.82,6.77,5.92,9.38,6h.3C336,34,341.86,28.71,345.09,24.13Z"/><path class="cls-1" d="M385.55,24.4c0,3,.54,6.21,2.71,8.12a5.93,5.93,0,0,0,4,1.47,8,8,0,0,0,1.34-.12c2.78-.45,6.28-2.62,7.72-10.17,5.36-2.16,5.25-6.25,4.92-8a6.57,6.57,0,0,0-3.18-4.47,9.46,9.46,0,0,0-2.93-6.3,7.13,7.13,0,0,0-6-1.58c-4,.62-6.55,3.52-7.65,8.64-4.1,1.93-4.76,4.78-4.79,6.36A6.19,6.19,0,0,0,385.55,24.4Z"/><path class="cls-1" d="M416.1,26.34c-7.31,3-7.63,14.74-7.82,21.76,0,.6,0,1.16,0,1.66l0,.58c-.12,2.61-.3,6.56,2.94,8.78a6.1,6.1,0,0,0,3.47,1.05,7.23,7.23,0,0,0,5.3-2.4c2.35-2.59,2.8-6.35,3.17-9.38q.1-.84.21-1.62c.15-1,.4-2.08.66-3.22a28.36,28.36,0,0,0,1-6.95c.52-3.2-.09-7.48-2.69-9.6A5.79,5.79,0,0,0,416.1,26.34Z"/><path class="cls-1" d="M447.36,92.41a16.28,16.28,0,0,0,10.29-3.64h0c2.16-1.81,4.27-5,4.1-8.14a6.21,6.21,0,0,0-4.29-5.47,8.13,8.13,0,0,0,.44-1.78c0-.12,0-.25,0-.4a9,9,0,0,0-1.13-6.77,8.3,8.3,0,0,0-5.52-3.62c-3.57-.67-7,.49-9.94,3.37-4.23,4.14-6.84,11.59-6,17a10.76,10.76,0,0,0,7.11,8.67A14.2,14.2,0,0,0,447.36,92.41Z"/><path class="cls-1" d="M376,113.52a12.2,12.2,0,0,0,7.49,0,8.93,8.93,0,0,0,6.8,3.59h.48a7.79,7.79,0,0,0,7.34-6.66,7.06,7.06,0,0,0-1.26-4.88l-.32-.51a2.7,2.7,0,0,1-.67-2.21c0-.56.05-1.14.1-1.74.2-2.72.48-6.45-2.37-9.16a6.74,6.74,0,0,0-9.4-.21,8.4,8.4,0,0,0-1.7,2.25,8,8,0,0,0-7.24-3.83,6.54,6.54,0,0,0-4.6,2.28c-2.09,2.45-2.27,6.2-2.05,8.91C369.09,107.73,371.71,112.06,376,113.52Z"/><path class="cls-1" d="M383.54,173.3l0-.08c2.7-2.71,3.59-5.78,2.51-8.78a8,8,0,0,0-3.92-4.73c0-.38,0-.67,0-.88.28-.06.69-.11,1-.16a8.48,8.48,0,0,0,4.07-1.35,8.17,8.17,0,0,0,3.4-6.57,7.83,7.83,0,0,0-3.28-6.42h0c-4.46-3.23-10.73-1.83-14.36,1.13-5.91,4.81-5,14.6-4.61,18.78,0,.24.05.48.07.73-3.45,2.93-5.08,6.17-4.63,9.23a6.19,6.19,0,0,0,2.68,4.54,6.37,6.37,0,0,0,4,.87,26.38,26.38,0,0,0,1.24,3.56c1.13,2.56,3.61,5.35,6.61,5.8a5.68,5.68,0,0,0,5.33-2.16C386.93,182.88,385,177.34,383.54,173.3Z"/><path class="cls-1" d="M360.22,206.76a18.23,18.23,0,0,0-.79-2.62c-.56-4.23-4.79-8.48-8.41-9.75a11.67,11.67,0,0,0-9.19.48c-5.61,2.78-8.21,9.19-9.06,11.81-1.54,4.7-1,9.65,1.28,12.93a9.69,9.69,0,0,0,8.1,4,15.22,15.22,0,0,0,9-3,11.51,11.51,0,0,0,2.64,3.22,8.07,8.07,0,0,0,5,1.72,7.3,7.3,0,0,0,1.14-.09,6.26,6.26,0,0,0,4.33-2.76,6.66,6.66,0,0,0,.42-.75c2.63-4.16-1-9.38-2.23-11.11A15.73,15.73,0,0,1,360.22,206.76Z"/><path class="cls-1" d="M415,241.83a5.33,5.33,0,0,0-1.44,0,11.83,11.83,0,0,0,3.06-5.38,6,6,0,0,0,.3-1.22,8.2,8.2,0,0,0-1.68-6.59,9.12,9.12,0,0,0-6.69-2.89,15.4,15.4,0,0,0-12.63,4.51c-5.17,5.38-6.2,14.44-2.34,20.63a12,12,0,0,0,10.61,5.52,19.1,19.1,0,0,0,2.57-.19,13.7,13.7,0,0,0,7.72-1.58c3.61-1.55,5.5-4.48,5.2-8A5.1,5.1,0,0,0,415,241.83Z"/><path class="cls-1" d="M476.37,261.24a4.76,4.76,0,0,0-3.78-.38,8.38,8.38,0,0,0-5.92-4,7.27,7.27,0,0,0-5.61,1.41c-1.84,1.47-3,3.86-3.5,7.29a25.43,25.43,0,0,0-4.45,2.94,6.93,6.93,0,0,0-.85.86,3.44,3.44,0,0,0-.34.33,5,5,0,0,0-.66,6,6.73,6.73,0,0,0,.69,1.69,8,8,0,0,0,1,1.59s1.64,2.15,2.62,3.53a2.06,2.06,0,0,0,.86.68l6.68,2.93a7.87,7.87,0,0,0,3.45.26,4.71,4.71,0,0,0,2.21-.14c3.6-1.14,4.2-4.82,4.49-6.58.1-.6.19-1.22.26-1.83a23,23,0,0,0,.44-3.21,12.83,12.83,0,0,0,4.39-3.39c2.31-2.82,2.43-6.24.3-8.5A5.67,5.67,0,0,0,476.37,261.24Z"/><path class="cls-1" d="M467.44,212.71c-.05-2.7-.33-7.23-4.71-8.79-2.93-1-6,.39-7.84,2.6a6.32,6.32,0,0,0-6.3-2,8.66,8.66,0,0,0-6.1,5.4,15.68,15.68,0,0,0,1.11,13.15,10.94,10.94,0,0,0,9.66,5,12.81,12.81,0,0,0,5.52-1.66l.3-.16a9,9,0,0,0,5.27,1.94,6.23,6.23,0,0,0,.74,0,6.46,6.46,0,0,0,4.86-3.33c1.93-3.19.21-6.12-.43-7.23A24.91,24.91,0,0,1,467.44,212.71Z"/><path class="cls-1" d="M506,193.87a8.1,8.1,0,0,0-3.43-6.57,7.13,7.13,0,0,0-6.61-1,8.84,8.84,0,0,0-6.13,9.15,7.82,7.82,0,0,0,3.55,5.76c-2.82,2.87-2.77,8.43-2.31,13.64.2,2.28.51,5.72,3.56,7.94a6.35,6.35,0,0,0,3.76,1.3,6,6,0,0,0,1.26-.14,6.5,6.5,0,0,0,4.22-3.44,20.14,20.14,0,0,0,1.93-9.73V209.5c0-2.25.06-5.05-1.24-7.38a8,8,0,0,0-1.47-1.89A9,9,0,0,0,506,193.87Z"/><path class="cls-1" d="M529.8,214a12.77,12.77,0,0,0-4.48,1.87c-1.72-3.3-3.87-6.29-6.81-7.22a6.4,6.4,0,0,0-5.27.69,7,7,0,0,0-3.34,4.43c-1.32,5.21,2.87,12.14,5.37,16.28.34.55.63,1,.86,1.44l.43.74c1.89,3.33,4.25,7.47,8.17,9.61a8.25,8.25,0,0,0,3.91,1,7,7,0,0,0,3.05-.68,7.13,7.13,0,0,0,1.52-.74c2.81-1.8,5.28-5.29,7.33-8.47,2.42-3.78,4.1-9.62,1.51-14.69C540.61,215.42,537.31,212.38,529.8,214Z"/><path class="cls-1" d="M601,257.61a9.86,9.86,0,0,1-1.21-2h0a21.22,21.22,0,0,1-.71-2.51,17.47,17.47,0,0,0-1.88-5.11,10.88,10.88,0,0,0-1.27-1.68,5.34,5.34,0,0,0-3-2.49,10,10,0,0,0-7.42.74,17,17,0,0,0-9.86,9.36,12.78,12.78,0,0,0-.2,10,8.92,8.92,0,0,0,5.28,5,11,11,0,0,0,8.95-.75,14.71,14.71,0,0,0,3.2,1.6,9.27,9.27,0,0,0,3,.51,7.86,7.86,0,0,0,5.28-1.91,6.65,6.65,0,0,0,1.91-6.67A11.39,11.39,0,0,0,601,257.61Z"/><path class="cls-1" d="M571.6,216.48a8.32,8.32,0,0,0,3.48.85,5.31,5.31,0,0,0,3.65-1.39c4.61-4.31,1.24-17,.58-18.77s-2.23-4.9-5.08-5.85a5.51,5.51,0,0,0-4.85.72,7.61,7.61,0,0,0-3,3.77c-1.64,3.56-1,8-.35,11S567.68,214.68,571.6,216.48Z"/><path class="cls-1" d="M526,136c-6-2.39-11.48-.15-14.05,5.71-2.3,5.26-1.34,10.17.09,14.48-3.77,3.29-3.16,6.74-2.38,8.63.69,1.65,2.47,4.16,6.86,4a9.79,9.79,0,0,0,4.24,4.29,8.57,8.57,0,0,0,3.62.8,8.08,8.08,0,0,0,3.84-.94,6.1,6.1,0,0,0,3.2-4.67,16.3,16.3,0,0,0-.31-5.48c1.9-1.54,4.75-4.42,4.48-7.69-.1-1.19-.74-3.37-3.86-4.7a6.89,6.89,0,0,0-1.19-.39,6.09,6.09,0,0,0,1.74-2.1,6.88,6.88,0,0,0,.29-5.7C531.37,139,528.27,136.86,526,136Z"/><path class="cls-1" d="M445.93,159.87a7.35,7.35,0,0,0,5.33-2.06h0c.18-.17.36-.35.52-.53a6.49,6.49,0,0,0,3.4,2.51,7.66,7.66,0,0,0,2.22.35,6.32,6.32,0,0,0,3.68-1.18c2.88-2,4-6.25,4.16-9.25v-.13c.17-4.36.46-11.67-3.6-15.27a8.64,8.64,0,0,0-7.35-1.84,7.39,7.39,0,0,0-2.46,1.17c-2.79-2.7-6.1-3.08-9.19-.95-4,2.73-3.22,7-2.69,10.05q.1.54.18,1.08l-.14.58c-1,4.14-2.31,9.29,1.08,13.09A6.92,6.92,0,0,0,445.93,159.87Z"/><path class="cls-1" d="M546.27,82.79c-4.16-.39-7.93,2-10.6,6.75l-.18.29a14.19,14.19,0,0,0-1.51,2.7,8.92,8.92,0,0,0-.62,4.22,8.48,8.48,0,0,0,.15,1.83,11.74,11.74,0,0,0,2.8,6.42,11.38,11.38,0,0,0,8.68,3.77c.36,0,.73,0,1.11,0,4.4-.36,6.68-3.29,8.5-6.4a15.54,15.54,0,0,0,.74-1.47,11.86,11.86,0,0,0,.53-1.35l.11-.37a3.52,3.52,0,0,0,.13-.43c0-.06,0-.13,0-.21A13.64,13.64,0,0,0,554.5,87.4,10.9,10.9,0,0,0,546.27,82.79Zm-.18,13.07v0Zm-1,1.8a1.49,1.49,0,0,1-.7-1.11l.82.89.35.37h-.09A2.05,2.05,0,0,1,545.08,97.66Zm.54.13.46-1.9v0c.35.42.27,1-.16,1.63a1.47,1.47,0,0,1-.23.26Z"/><path class="cls-1" d="M498.8,93.18c4.14-1.66,7.79-6.36,9-10l.48-.82.53-.91c.53-.89,1.11-1.74,1.72-2.65.79-1.18,1.61-2.4,2.34-3.69,1.37-2.44,2.7-7.17.76-10.24a5.69,5.69,0,0,0-5.56-2.53c-4.6.3-7.41,5-9.47,8.45-.51.85-1,1.66-1.4,2.22l-1.12,1.53c-2.83,3.83-6.36,8.59-6.59,13.92A5,5,0,0,0,492,92.9a7.41,7.41,0,0,0,3.6.94A8.49,8.49,0,0,0,498.8,93.18Z"/><path class="cls-1" d="M572.73,46.75a8.78,8.78,0,0,1,.71,1.21,7.86,7.86,0,0,1-.61.94c-.21.3-.41.58-.56.83-1.54,2.52-2.13,6.45-.28,9.09a5.47,5.47,0,0,0,4.65,2.28,8.52,8.52,0,0,0,1.63-.17c4.16-.86,6.61-5.12,8.59-8.55.52-.69,1-1.42,1.47-2.1s1-1.38,1.53-2.09,1.2-1.56,1.76-2.41c4-5.56,2.43-8.84.38-10.62-2.28-2-5.38-1.93-8.55.09l-.19.06c-1,.32-1.51.46-1.83.3-.07,0-.27-.23-.41-.36a5.62,5.62,0,0,0-2.62-1.57,6.55,6.55,0,0,0-7.26,3.4c-1.66,3.19-.06,6.57.71,8.19A12.83,12.83,0,0,0,572.73,46.75Z"/><path class="cls-1" d="M618.75,131.25a6,6,0,0,0-3.86-3.74,5.69,5.69,0,0,0-2.72,0,9.37,9.37,0,0,0,1.27-7.62c-1.63-6.28-8.06-8-13.72-6.91-6,1.16-10.85,7.76-12,13.47-.43,2.1-1.22,7.29.47,10.78a11.67,11.67,0,0,0,6.51,7.1,17.86,17.86,0,0,0,7.29,1.44,23.54,23.54,0,0,0,9.47-2C616.56,141.41,621,136.54,618.75,131.25Z"/><path class="cls-1" d="M659,103.6a10.55,10.55,0,0,0,2.71-.69c1.12-.41,1.26-.41,1.6-.24a5,5,0,0,0,2.4.53,4.21,4.21,0,0,0,.48.12,6.28,6.28,0,0,0,6.89-2.48c1.07-1.5,2-4.07.5-7.81a8.17,8.17,0,0,0-1.34-2.16l-.44-.56a4.52,4.52,0,0,1-.62-1.52,13.53,13.53,0,0,0-.66-1.89,6.33,6.33,0,0,0-7.39-3.62,6.07,6.07,0,0,0-1.62.76,6.9,6.9,0,0,0-3.7-3.77,7.26,7.26,0,0,0-6.61.31,10.52,10.52,0,0,0-4.87,7.59c-.9,6.6,1.45,11.63,6.61,14.14l.18.08a8.58,8.58,0,0,0,4.75,1.26C658.29,103.65,658.67,103.63,659,103.6Z"/><path class="cls-1" d="M644.31,159.5a7.1,7.1,0,0,0-6-.17h0a14.52,14.52,0,0,0-4.26,2.9,16.77,16.77,0,0,0-1.4,1.61l-.78,1a5.56,5.56,0,0,0-7-3.37,6.33,6.33,0,0,0-4.34,7.36,4.91,4.91,0,0,0,.06,1c.65,3.9,3,9,6.92,11.59a12.21,12.21,0,0,0,2,1.53,5.07,5.07,0,0,0,3.08.69,4.2,4.2,0,0,0,.93.1h0a6,6,0,0,0,2.41-.57,7.18,7.18,0,0,0,.84-.39l3.13-1.38-.51-.64a23.06,23.06,0,0,0,4.41-5.56l.52-.82c1.78-2.81,4-6.3,3.14-10.44A6.34,6.34,0,0,0,644.31,159.5Z"/><path class="cls-1" d="M675.45,172.89a10,10,0,0,0-1.88,1.4l-.29.24a5.49,5.49,0,0,0-3.2-1.76,6,6,0,0,0-1.64,0A6,6,0,0,0,662,171a4.83,4.83,0,0,0-4.4,4.88,25.91,25.91,0,0,1-.73,4.53c-.91,4.21-1.94,9,.63,12.35a6.25,6.25,0,0,0,5,2.54,7.21,7.21,0,0,0,3.12-.75,6,6,0,0,0,2.14-1.85,5,5,0,0,0,6.54-.61,8.66,8.66,0,0,0,2.35,1.89,5.27,5.27,0,0,0,5.91.16A2.91,2.91,0,0,0,683,194c2.7-1.45,4.52-4.52,5-8.43s-.43-9-3.53-11.85C682,171.5,678.65,171.2,675.45,172.89Z"/><path class="cls-1" d="M723.17,182.49a5.69,5.69,0,0,0-5.38-.78c-3.69,1.38-4.24,5.63-4.56,8.18,0,.33-.08.65-.13.94a37.13,37.13,0,0,0-.28,11.19c.73,5.25,3.35,6.63,5.06,7a5,5,0,0,0,3.89-.28,5.27,5.27,0,0,0,1.89-1.55c1.89-1.85,2.51-4.53,2.92-6.33l0-.2C727.86,195.22,729.93,186.2,723.17,182.49Z"/><path class="cls-2" d="M298.06,90.71c-1.46-1.09-4-2-7.68-.29a14.22,14.22,0,0,0-3.76,3.25,29.52,29.52,0,0,1-2.17,2.16c-.47-.56-1-1.11-1.5-1.67a6.25,6.25,0,0,0-1.84-1.87,6.62,6.62,0,0,0-5.67-.57,6.1,6.1,0,0,0-5.33-.44,5.45,5.45,0,0,0-2.66,2.33,4.59,4.59,0,0,0-.76,1.23,4.74,4.74,0,0,0,.4,4.81l.12.23a13.89,13.89,0,0,0,1.85,4.46c.17.46.35.91.53,1.31a9,9,0,0,0,.78,1.52,8.38,8.38,0,0,0,4.28,3.7,7.21,7.21,0,0,0,4.72.1c.34-.08.69-.17,1.09-.23l.5-.07.39.19a5.13,5.13,0,0,1,.78.57,8.07,8.07,0,0,0,2.23,1.4,7.59,7.59,0,0,0,6.71-.64c5.47-3.21,8.55-12.53,9.12-16.28A5.13,5.13,0,0,0,298.06,90.71Z"/><path class="cls-2" d="M324.43,74.4a6.11,6.11,0,0,0,3.94-2.62h0c1.29-2,1.5-4.67.59-7.61-.24-.74-.45-1.57-.67-2.44-.8-3.18-1.76-7-4.56-9.35l.29-1.79a9.22,9.22,0,0,0,.4-2,9.62,9.62,0,0,0-1.31-5.91,6.54,6.54,0,0,0-1.3-1.75,6.24,6.24,0,0,0-8-.78c-3.3,2.19-5,7-3.69,10.5a8.17,8.17,0,0,0,1.81,2.91l.4.38a7.2,7.2,0,0,0,1,.73,8.37,8.37,0,0,0,.68,5.67,34,34,0,0,0,2,6.44c.16.37.3.78.44,1.21.64,1.83,1.43,4.1,3.4,5.44a5.94,5.94,0,0,0,3.4,1A6.31,6.31,0,0,0,324.43,74.4Z"/><path class="cls-2" d="M366.05,137a7.1,7.1,0,0,0,.13-6.13h0c-1.13-2.69-4.55-5.86-8.17-5.34l-.13-.08-.43-.58a9.14,9.14,0,0,0-1.76-1.8,8.45,8.45,0,0,0-1.37-1.11,8.15,8.15,0,0,0-5.59-1.18,13.32,13.32,0,0,0-12,5.8c-3.48,5.27-4.43,13.11.68,17.24a11.38,11.38,0,0,0,7.2,2.59,11.1,11.1,0,0,0,1.28-.07,13.33,13.33,0,0,0,8.85-5.12,3.55,3.55,0,0,0,.23-.31,11.3,11.3,0,0,0,5.2.15A8.37,8.37,0,0,0,366.05,137Z"/><path class="cls-2" d="M409.55,98.91c.13,3.55.9,9.87,4.64,12a5.36,5.36,0,0,0,2.7.72,7.25,7.25,0,0,0,3.66-1.09c3.67-2.11,3.95-6.67,4.09-8.87.09-1.51.12-3.06.09-4.63A7.78,7.78,0,0,0,428,94.74a6.87,6.87,0,0,0,1.29-5.62v-.05a6.6,6.6,0,0,0-2.93-5.17,5.47,5.47,0,0,0-1.19-.62,5.57,5.57,0,0,0-1.2-.59c-2.41-6.23-6.79-5.83-8.66-5.33-3.4.91-5.45,3.52-6.11,7.78a12.24,12.24,0,0,0-3,2.12c-2.57,2.49-3.15,5.82-1.46,8.48A7.54,7.54,0,0,0,409.55,98.91Z"/><path class="cls-2" d="M460.21,104.33c-1.65-4.49-6.5-7.64-11.9-7.68h-.1c-7.48,0-12.92,7.18-13.69,13.87A11.72,11.72,0,0,0,438.23,121a12.32,12.32,0,0,0,8.28,3,15.27,15.27,0,0,0,3.57-.43,14.41,14.41,0,0,0,9.41-6.48,14.67,14.67,0,0,0,1.2-11.57A4.51,4.51,0,0,0,460.21,104.33Zm-12.42,5.77a1.63,1.63,0,0,1-.33.05v0a.4.4,0,0,1,.17,0Z"/><path class="cls-2" d="M500.91,155.55a7.33,7.33,0,0,0-7.41-2.72,13.77,13.77,0,0,0-2.87,1,1,1,0,0,1-.31-.05l-.29-.3a5.53,5.53,0,0,0-2.81-1.81,5.74,5.74,0,0,0-1.21-.14,7.55,7.55,0,0,0-7.82,2.55c-2.87,3.65-.91,7.3.38,9.72.21.4.43.8.62,1.2s.32.73.47,1.09.35.85.57,1.3c.29,1.1.35,1.87-.5,3.76a27.07,27.07,0,0,1-1.7,3.07c-.51.85-1,1.72-1.51,2.65-1.39,2.69-2.37,6.87-.57,9.77a6.06,6.06,0,0,0,5.47,2.75h.15c4.29-.06,6.64-3.25,7.9-5,1-1.44,2-2.92,2.87-4.32a60.81,60.81,0,0,0,8.35-12.66C503.23,162.66,503.3,158.66,500.91,155.55Z"/><path class="cls-2" d="M760.05,173.24a7.32,7.32,0,0,0-7.4-2.71,13.7,13.7,0,0,0-2.88,1,1.46,1.46,0,0,1-.31,0l-.28-.3a5.51,5.51,0,0,0-2.81-1.81,5.24,5.24,0,0,0-1.22-.14,7.55,7.55,0,0,0-7.82,2.55c-2.86,3.64-.91,7.29.38,9.71.22.41.43.81.63,1.21s.32.72.47,1.08.35.86.56,1.3c.29,1.11.35,1.88-.49,3.77a30.81,30.81,0,0,1-1.7,3.07c-.52.84-1,1.72-1.52,2.64-1.39,2.7-2.36,6.88-.56,9.78a6,6,0,0,0,5.46,2.74h.15c4.3-.07,6.64-3.26,7.9-5,1.06-1.45,2-2.93,2.87-4.33a60.28,60.28,0,0,0,8.35-12.66C762.37,180.35,762.45,176.36,760.05,173.24Z"/><path class="cls-2" d="M419,191.32l.53,0a7.26,7.26,0,0,0,.93-.06l.23,0h.06a6.38,6.38,0,0,0,4.06-2.49c2.17-2.85,2.08-7.1,1.34-9.87l-.2-.79c-.14-.54-.28-1.11-.45-1.69s-.09-.87-.13-1.28a5.22,5.22,0,0,0-.37-1.57,9.24,9.24,0,0,0-2.67-4.85,9.86,9.86,0,0,0,2.86-4.46,7.6,7.6,0,0,0-.62-5.9c-2.39-4.34-8.14-7.36-12.88-4.92a9.71,9.71,0,0,0-4.91,6.26,7.94,7.94,0,0,0,1.18,6.59,9.07,9.07,0,0,0,1.15,1.31,10.31,10.31,0,0,0,3.53,2.73,13.63,13.63,0,0,0-1.85,6.54c-.11,2.33-.06,8.1,2.6,11.47a8,8,0,0,0,4.93,2.92A5.12,5.12,0,0,0,419,191.32Z"/><path class="cls-2" d="M380.92,234.78a8.81,8.81,0,0,0,2.55-6.07,7.37,7.37,0,0,0-3.57-6,8.46,8.46,0,0,0-7.77-.81h0A9.63,9.63,0,0,0,367,228a7,7,0,0,0,.88,6.09,8.19,8.19,0,0,0,.53.67,8.35,8.35,0,0,0-1.27,3.14,4.9,4.9,0,0,0-.44,1.9,20.6,20.6,0,0,1-.49,3.26,22.67,22.67,0,0,0-.59,4.61c0,.44,0,.92,0,1.42-.11,2.25-.24,5,1.3,7.28a5.69,5.69,0,0,0,4.74,2.62,6.32,6.32,0,0,0,3.09-.85c3-1.7,3.9-5,4.55-7.34l.07-.23c.09-.34.2-.71.31-1.11,1.19-4.14,2.92-10.2.8-14.29l0,0C380.64,235,380.78,234.91,380.92,234.78Z"/><path class="cls-2" d="M449.46,233.09h0a9.6,9.6,0,0,0-8.12-.22c-3.76,1.69-6.58,5.85-8.89,13.07l-.05.12c-.16.37-.35.77-.55,1.17s-.39.79-.58,1.2a4.75,4.75,0,0,0-.51,1.24,10.4,10.4,0,0,0-.49,1.64c-.14.31-.29.61-.45.92s-.35.7-.51,1.07c-.43.13-.9.25-1.39.37-2.42.62-5.43,1.39-7.11,4.18a6.61,6.61,0,0,0-.47,6.38,9.11,9.11,0,0,0,4.84,4.32,12.22,12.22,0,0,0,.23,4.29,7.23,7.23,0,0,0,5,5.38,7,7,0,0,0,2,.28,7.45,7.45,0,0,0,5.21-2.19c2.62-2.58,3.68-6.51,4.57-10.07l.63-.18c2.31-.65,6.6-1.87,7.29-7.1a8.07,8.07,0,0,0-1.93-6.72,21.67,21.67,0,0,1,2.27-2.15,7.6,7.6,0,0,0,5-3.71,7.74,7.74,0,0,0,.67-6.42A12.15,12.15,0,0,0,449.46,233.09Z"/><path class="cls-2" d="M534.94,261.6c-.45-.14-.87-.28-1.26-.43a3.45,3.45,0,0,0-.2-.32c-.16-.26-.33-.53-.41-.7s-.11-.29-.16-.43a9.44,9.44,0,0,0-.48-1.13,5.2,5.2,0,0,0-1-1.5,5.47,5.47,0,0,0-3.37-2.29,8.26,8.26,0,0,0-3.29-1,25.76,25.76,0,0,0-3.25-.31l-1.31-.07a9.68,9.68,0,0,0-7.13,2.06,9.07,9.07,0,0,0-2.88,2.9,14.7,14.7,0,0,0-2.12,7.2,4.79,4.79,0,0,0,.21,1.61,11.45,11.45,0,0,0,1.91,8.16,8.63,8.63,0,0,0,6,3.28l.31,0a8,8,0,0,0,1.41.17h.39a9.93,9.93,0,0,0,6-2.09,13.76,13.76,0,0,0,2.64-2.16,8.42,8.42,0,0,0,6.38,1.37c4.66-.67,7.64-3.86,7.42-7.95C540.52,263.41,537,262.28,534.94,261.6Z"/><path class="cls-1" d="M784.83,149.2c-.44-.14-.87-.28-1.25-.44a3.45,3.45,0,0,1-.2-.32,4.71,4.71,0,0,1-.41-.69c-.06-.15-.12-.29-.17-.44a8.53,8.53,0,0,0-.47-1.12,5.07,5.07,0,0,0-1-1.51A5.47,5.47,0,0,0,778,142.4a8.07,8.07,0,0,0-3.28-1,25.67,25.67,0,0,0-3.25-.3c-.45,0-.9,0-1.32-.08A9.74,9.74,0,0,0,763,143a9.1,9.1,0,0,0-2.88,2.91,14.7,14.7,0,0,0-2.13,7.2,5.33,5.33,0,0,0,.21,1.6,11.38,11.38,0,0,0,1.92,8.16,8.62,8.62,0,0,0,6,3.29l.31,0a9.19,9.19,0,0,0,1.42.18h.38a9.93,9.93,0,0,0,6-2.09,14.14,14.14,0,0,0,2.65-2.16,8.41,8.41,0,0,0,6.38,1.36c4.65-.67,7.63-3.86,7.41-7.94C790.42,151,786.92,149.88,784.83,149.2Z"/><path class="cls-2" d="M552.83,166.13a6.54,6.54,0,0,0-5.73-2.25A8.11,8.11,0,0,0,541,168a12.13,12.13,0,0,0-1.18,3.15c-1.15,2.45-2.16,5-3.13,7.42l-.79,2c-.5,1.26-1.07,2.55-1.68,3.92-1.72,3.9-3.51,7.94-4.21,12.05-.38,2.23-.1,5.34,1.85,7.36a6,6,0,0,0,5.23,1.68,8.59,8.59,0,0,0,4.08-1.67A4.63,4.63,0,0,0,542.3,206a5.54,5.54,0,0,0,4.06,2.64,4.73,4.73,0,0,0,.65,0,6.47,6.47,0,0,0,4.77-2.33,10.89,10.89,0,0,0,2.05-3.45c0-.09.09-.19.13-.28,4.25-10.29,2.59-22.8.93-31.38A8.2,8.2,0,0,0,552.83,166.13Z"/><path class="cls-2" d="M523.92,99.52h0a7.29,7.29,0,0,0-1.25-.4c-1.8-2.86-4.53-4-7.53-3-2.09.67-4.66,2.43-5.57,7-.71.39-1.39.8-2,1.21a5.16,5.16,0,0,0-1.61,1.68,7.08,7.08,0,0,0-2.26,6,7.59,7.59,0,0,0,5.57,6.51c.24.06.49.11.73.15,0,.16,0,.32,0,.49-.17,2.82-.37,6.33,1.7,9a6.9,6.9,0,0,0,4.86,2.77l.46,0a5.93,5.93,0,0,0,4.11-1.68c3.75-3.57,3.8-9.94,3.21-15.5a9.93,9.93,0,0,0,4.18-8.43A6.88,6.88,0,0,0,523.92,99.52Z"/><path class="cls-2" d="M534.77,70.13l.15-.12a6.47,6.47,0,0,0,.43,1.07,6.35,6.35,0,0,0,5.71,3.44,6.76,6.76,0,0,0,2.2-.36c3.28-1.1,4.33-4.14,4.83-5.61,1.55-4.5,2.62-13.7-1.08-19.19a8.73,8.73,0,0,0-4.17-3.4c.48-3,.65-6.55-2-9.2s-5-2.3-6.16-1.89c-5.36,1.83-6.93,12.11-7.1,13.36-.21,1-.41,2-.62,3s-.45,2.3-.69,3.45c-.13.63-.34,1.42-.57,2.25-1,3.64-2.17,8.18-.4,11.62a5.59,5.59,0,0,0,3.81,3A6.82,6.82,0,0,0,534.77,70.13Z"/><path class="cls-2" d="M470.84,44.18a6.35,6.35,0,0,0,4.55-6.24,5.57,5.57,0,0,0,1.29.25A7.11,7.11,0,0,0,484,34.07a6.8,6.8,0,0,0-.18-5.95c-2.18-4.12-8.44-5.86-12.95-6.81-2.51-.53-6.3-1.33-9.51,1.16a7.37,7.37,0,0,0-2.86,4.66,5.79,5.79,0,0,0-4.88,2.49,7.28,7.28,0,0,0-.88,1.52,6.45,6.45,0,0,0-3.25.92A6.68,6.68,0,0,0,447,40.42c1.34,3.53,4.16,8,8.09,9.95a10.58,10.58,0,0,0,4.63,1.12A8.07,8.07,0,0,0,464,50.33a6.89,6.89,0,0,0,3.19-6.12c0-.1,0-.21,0-.32A6.75,6.75,0,0,0,470.84,44.18Z"/><path class="cls-3" d="M720,236.13a6.35,6.35,0,0,0,7.54-1.72,5.38,5.38,0,0,0,.81,1,7.1,7.1,0,0,0,8.26,1.71,6.8,6.8,0,0,0,3.76-4.61c1-4.54-2.53-9.95-5.31-13.63-1.55-2-3.88-5.14-7.95-5.36a7.37,7.37,0,0,0-5.21,1.64,5.8,5.8,0,0,0-5.32-1.32,7.3,7.3,0,0,0-1.66.58,6.38,6.38,0,0,0-3.06-1.44,6.67,6.67,0,0,0-7.42,4.63c-1.3,3.54-2.1,8.77-.41,12.82a10.58,10.58,0,0,0,2.76,3.87,8.1,8.1,0,0,0,4,1.93,6.87,6.87,0,0,0,6.42-2.53l.21-.25A6.77,6.77,0,0,0,720,236.13Z"/><path class="cls-2" d="M610.6,50.6a9.84,9.84,0,0,0-1.91,3.21,12.08,12.08,0,0,0-.63,1.77,25.24,25.24,0,0,0-.25,11,30.58,30.58,0,0,0,.6,3.42,8.06,8.06,0,0,0,5.1,5.89,5.53,5.53,0,0,0,1.59.24,5.86,5.86,0,0,0,4-1.73c3.17-3,3.12-8,3.09-11.71q0-.9,0-1.68a26,26,0,0,0-.17-3.85,7.91,7.91,0,0,0-1.48-5.73,7.08,7.08,0,0,0-1-1.14,6.16,6.16,0,0,0,2-1.65,7.2,7.2,0,0,0,.67-7.81c-2.37-4.39-7.26-6.12-11.38-4A8.17,8.17,0,0,0,606.6,42a7.32,7.32,0,0,0,1,6A8,8,0,0,0,610.6,50.6Z"/><path class="cls-2" d="M621.38,90.07a6.57,6.57,0,0,0-2.92-3.73,5,5,0,0,0-2.56-.65,5.9,5.9,0,0,0-3.43.54c-5.32,2.42-3.32,8.44-2.66,10.41l.35,1.08c1.46,4.53,3.68,11.37,8.5,13.58a7.39,7.39,0,0,0,3.13.68,8.7,8.7,0,0,0,3.42-.73c6.11-2.57,12-12.76,9.49-19.27-1.23-3.15-5.11-5.85-8.92-4.84A9.16,9.16,0,0,0,621.38,90.07Z"/><path class="cls-2" d="M618.65,200.44h0a6.82,6.82,0,0,0-1.93-8.47,8.63,8.63,0,0,0-2.45-1.22,8.68,8.68,0,0,0-1.61-3.72,6.8,6.8,0,0,0-5.11-2.7,8,8,0,0,0-5.24,1.65,11.15,11.15,0,0,0-2.33,2.45l-.52,0a4.26,4.26,0,0,0-1.18.07,7.4,7.4,0,0,0-5.91,2.46c-2.4,2.66-2.4,6.77,0,10a9,9,0,0,0,2.69,2.38c-.57,2.68-1,5.21-1.43,7.7-.08.54-.24,1.22-.4,1.93-.7,3.09-1.66,7.33.68,10.32A6,6,0,0,0,598,225.6a6.47,6.47,0,0,0,.76.05,7.81,7.81,0,0,0,4.77-1.78c2.85-2.24,3.95-6.05,4.82-9.11.18-.6.34-1.18.51-1.71a71.24,71.24,0,0,0,2.05-7.64C615.67,204.77,617.75,202.37,618.65,200.44Z"/><path class="cls-2" d="M626.79,245a33.88,33.88,0,0,0-.93-3.87c-2.62-8.39-7.44-9.05-10.08-8.7a6.31,6.31,0,0,0-4.64,2.9c-3.09,4.83-.65,14,1.88,22.23.27.89.49,1.62.63,2.14.9,3.38,2.51,9.43,8.17,9.43a9.34,9.34,0,0,0,1.45-.12c4.51-.74,9-4.71,10.81-8.13,2.78-5.36,2.49-10.41-.78-13.52A8.9,8.9,0,0,0,626.79,245Z"/><path class="cls-2" d="M692.4,219a11,11,0,0,0,.2-12.4,10.26,10.26,0,0,0-11.16-4.22,5,5,0,0,0-2.59.85c-.49.33-1,.61-1.53.9a11,11,0,0,0-4.24,3.41,21.36,21.36,0,0,0-3.46,7.66,5,5,0,0,0,0,2.14,14.71,14.71,0,0,0,2,8.94,15.29,15.29,0,0,0,13,7.35,13.13,13.13,0,0,0,6.32-1.57h0c2.41-1.19,5.06-3.67,5.54-6.51a5.64,5.64,0,0,0-1.66-5A6.07,6.07,0,0,0,692.4,219Z"/><path class="cls-2" d="M748.27,122.07a12.44,12.44,0,0,0-7.23-7.24,10.82,10.82,0,0,0-5-1c-4.07.1-8,3.2-9.79,7.72-1.62,4.09-1,8.11,1.73,10.77a10.92,10.92,0,0,0,8.74,2.68c-.08.56-.17,1.13-.29,1.71,0,.2-.08.44-.13.69a19.2,19.2,0,0,1-.73,3.06,4,4,0,0,0-1.31-.67,7.06,7.06,0,0,0-6.48,1,6.32,6.32,0,0,0-2.22,5.53,9.5,9.5,0,0,0,7.22,9.06,11.3,11.3,0,0,0,2.82.36,12.25,12.25,0,0,0,10.21-5.49c2.23-3.5,2.7-7.82,3.11-11.63l.22-2C749.64,132,750.25,126.76,748.27,122.07Z"/><path class="cls-2" d="M694.6,131.28A5,5,0,0,0,693,130a10.8,10.8,0,0,1-1.49-1.23,13.4,13.4,0,0,0-4.4-3,8.6,8.6,0,0,0-5.11-.1,7,7,0,0,0,.11-6.45c-1.3-2.5-3.95-3.91-7.26-3.88-3.74.05-5.45,2.75-6.7,4.72a4.73,4.73,0,0,0-.49,1,6.87,6.87,0,0,0-.55,2.33,7,7,0,0,0,5.6,7.08l.07,0a7.18,7.18,0,0,0,4.43-.26,7.11,7.11,0,0,0-.32,3.05c.47,4.24,4.51,7.9,6.87,9.71a23.27,23.27,0,0,0,7.54,3.92,8.36,8.36,0,0,0,4.32.12,5.87,5.87,0,0,0,4-3.64C701.39,139.15,699.51,134.64,694.6,131.28Z"/><path class="cls-2" d="M374.71,29h0a14.19,14.19,0,0,0-7.55.24c-2.18-5-6.24-12.34-12.76-9.83-8.89,3.4-3.37,20.12-2.18,23.44l.16.42c1.78,5,5.76,16.05,12.79,16.05a7.53,7.53,0,0,0,2.18-.34,7,7,0,0,0,4.37-3.61c1.18-2.43.87-5.46.14-8.22.42.53.81,1,1.09,1.42a17.37,17.37,0,0,0,2.41,2.83,8.43,8.43,0,0,0,7,2.12,5.87,5.87,0,0,0,4.6-2.67c1.77-2.66,1.55-6.4.54-8.92C384.82,35.21,380.05,30.37,374.71,29Z"/><path class="cls-3" d="M405,185.57a9.58,9.58,0,0,0-2.56-1.36A10.23,10.23,0,0,0,391,185.43c-4.09,3.26-6.37,7.59-6.42,12.19a8.84,8.84,0,0,0,2.48,6.37,9.21,9.21,0,0,0,4.95,2.56,5.44,5.44,0,0,0-5.08,3.12,6.33,6.33,0,0,0,.49,6.75c2.4,3.36,8,5.11,11.6,5.11a9.53,9.53,0,0,0,1.11-.06A16.16,16.16,0,0,0,414.06,206c.23-7.26-3.92-14.58-7.63-18.78A5.14,5.14,0,0,0,405,185.57Zm-7.21,20.79a3.42,3.42,0,0,1-.18.58,19.57,19.57,0,0,1-2.05-.11l-.94-.11h0A9.24,9.24,0,0,0,397.75,206.36Z"/><path class="cls-3" d="M723.37,157.65a5.63,5.63,0,0,0-4.16-3.72c-2.83-.79-5.24.63-6.68,1.48-.53.32-.93.6-1.2.8l-.64-.19a8.94,8.94,0,0,1-1.45-.7,13.86,13.86,0,0,0-1.89-.94,8.88,8.88,0,0,0-7.9.45,6.61,6.61,0,0,0-3,5.38c-.17,2.95,1.36,4.65,2.59,6,.26.3.54.6.81.94.49.61.56.7-.4,2.78l-.38.85c-.33.73-.86,1.69-1.42,2.7-2.16,3.88-4.83,8.7-3.33,12.95a6,6,0,0,0,5.78,4.26,11.15,11.15,0,0,0,7.82-3.92,51.13,51.13,0,0,0,4.88-7.22,59.87,59.87,0,0,1,3.31-5.18,4.93,4.93,0,0,0,.74-1.44C722.48,165.8,724.48,161.08,723.37,157.65Z"/><path class="cls-3" d="M639.24,132.31a31.17,31.17,0,0,1,1.1,3,27.38,27.38,0,0,1,.74,5,37.3,37.3,0,0,0,.61,4.68c.7,3.32,3.31,6.18,6.21,6.82a6.17,6.17,0,0,0,1.27.14,6.33,6.33,0,0,0,5.06-2.79,7.87,7.87,0,0,0,.82-1.41c2.17,2.11,5.34,3.7,8.32,2.8a5.32,5.32,0,0,0,3.44-2.76,4,4,0,0,0,.28-.46,9,9,0,0,0,.28-7,10.93,10.93,0,0,0-1.93-3.12c-.25-.33-.51-.65-.75-1a15.15,15.15,0,0,1-1.16-2.28,21,21,0,0,0-1.25-2.52,10.12,10.12,0,0,0-6.13-4.79,14.51,14.51,0,0,0-2.82-.59l-.31,0a14.4,14.4,0,0,0-4.87-7c-.2-.14-.38-.27-.57-.38a5.33,5.33,0,0,0-6.12-.68c-2.75,1.27-4.38,4.73-4,8.49A22.45,22.45,0,0,0,639.24,132.31Z"/><path class="cls-3" d="M704.52,130.22a6.53,6.53,0,0,0,5.38,3l.41,0a6.93,6.93,0,0,0,5.64-3.91c2.06-4,1.63-9.19,1.13-13.08,2-2.1,4-5.72,3.36-8.74a5.34,5.34,0,0,0-4.45-4.08l-.1,0c0-.1,0-.19,0-.26.21,0,.43,0,.66,0h0a6.59,6.59,0,0,0,6.33-4,10.31,10.31,0,0,0-2.08-10.64,8.39,8.39,0,0,0-9.31-2.17c-6.72,2.36-10,9.38-9.8,20.88l-.27.18a9.44,9.44,0,0,0-2.49,2.06,8.28,8.28,0,0,0-2.52,6.36,5.73,5.73,0,0,0,2.18,4.15,7.26,7.26,0,0,0,3.42,1.43C702.26,124.34,702.63,127.52,704.52,130.22Z"/><path class="cls-3" d="M656.3,220.07a20.38,20.38,0,0,0-3.69-11.41,6.89,6.89,0,0,0-5.48-2.54,7.58,7.58,0,0,0-1.69.13,14.65,14.65,0,0,0-1.75-3.76c-.21-.31-.44-.63-.7-1a8.25,8.25,0,0,0-.59-.93,5,5,0,0,0-3.46-2.07,6.36,6.36,0,0,0-.78-.2,4.83,4.83,0,0,0-1.38-.16h0c-.21,0-.42,0-.64,0a5,5,0,0,0-4.76,4l0,.15a5.13,5.13,0,0,0,.55,3.16,35.3,35.3,0,0,1,.19,9c-.07.66-.17,1.37-.28,2.09-.47,3.32-1.07,7.46.81,10.79a9,9,0,0,0,5.27,4.39,6.65,6.65,0,0,0,1.64.21,6.4,6.4,0,0,0,3.3-.93,6.74,6.74,0,0,0,2.62-2.93,4.65,4.65,0,0,0,2.83.86,3.51,3.51,0,0,0,.62.08C653.53,229.12,656.12,224.6,656.3,220.07Zm-22.46-17.43Z"/><path class="cls-3" d="M667.92,236.13a13.37,13.37,0,0,0-1.52.85c-.3.17-.7.42-.77.45a1.3,1.3,0,0,1-.25-.11,6.2,6.2,0,0,1-1.12-.88,7.76,7.76,0,0,0-3.71-2.15,7.11,7.11,0,0,0-6.41,1.41,5.25,5.25,0,0,0-.52,7.85,14.17,14.17,0,0,1-.35,3.79,18.15,18.15,0,0,0-.37,3c0,3.9,2.71,7.95,7.15,8h0c3.9,0,6.79-3.12,7.86-4.46.25-.32.48-.63.7-.93a5.06,5.06,0,0,1,2.11-2l.81-.34a11.59,11.59,0,0,0,4.07-2.44c2.38-2.38,4-6.48,2.07-9.84S671.25,234.61,667.92,236.13Z"/><path class="cls-3" d="M570.89,228.29a7.87,7.87,0,0,0-3.3.1,7.11,7.11,0,0,0-3.88,1.11,5.35,5.35,0,0,0-2.78-1.13,5,5,0,0,0-1.56.18,5.07,5.07,0,0,0-.59-.4c-2-1.07-6-3.28-9.7.39a5,5,0,0,0-1.63,2.42l0,.11a4.76,4.76,0,0,0,.36,3.8c-.09.38-.2.81-.29,1.17-.46,1.83-.75,3-.83,3.63-.19,1.5-.55,4.3,1.53,6.52a7.45,7.45,0,0,0,6.84,2,6,6,0,0,0,3.1-1.76,6,6,0,0,0,3.28.39,8.44,8.44,0,0,0,2.26,3,6.85,6.85,0,0,0,4.38,1.82,5.2,5.2,0,0,0,2.09-.45c5.49-2.39,6.21-14,6.24-14.45C576.74,230.38,573.09,228.72,570.89,228.29Z"/><path class="cls-3" d="M602.73,159.71a4.78,4.78,0,0,0-1-.68l-1-.86c-.1-.28-.19-.54-.26-.76-.17-.49-.31-.86-.37-1a21.49,21.49,0,0,0-2.91-4.62c-2.47-2.93-6.35-3.89-10.37-2.57-6.16,2-11.08,9.22-11,16a8.92,8.92,0,0,0,6.23,8.11,8.25,8.25,0,0,0,2.71.44,15.66,15.66,0,0,0,4.77-.95,8.89,8.89,0,0,1,4.1-.69c1.66.3,6.72,1.2,10-2.64a6.67,6.67,0,0,0,1.73-4.91A7.29,7.29,0,0,0,602.73,159.71Z"/><path class="cls-3" d="M562.56,118.45c-4,.19-8,3.56-8.57,7.36a6.58,6.58,0,0,0,3.25,7.34,5.67,5.67,0,0,0-1.3,2.37,14.34,14.34,0,0,0-.72,2.23l-.13.49a33.83,33.83,0,0,0-1,8.25c-.09,2.71-.21,6.81,2.42,8.94a5.42,5.42,0,0,0,3.49,1.16,8.08,8.08,0,0,0,2-.27c6.19-1.54,6.52-8.8,6.7-12.7v-.37c0-.27,0-.54,0-.82a11.8,11.8,0,0,0-.84-6.31c0-.09,0-.18,0-.27a5,5,0,0,0-1.54-2.54h0a7.47,7.47,0,0,0,3.16-3.37,5.43,5.43,0,0,0,.5-1.52,7,7,0,0,0,.36-1.38,7.29,7.29,0,0,0-1.83-6A7.49,7.49,0,0,0,562.56,118.45Z"/><path class="cls-3" d="M581.38,104.24a5.79,5.79,0,0,0,3.09-2.44,6.86,6.86,0,0,0,1.85.71,4.62,4.62,0,0,0,3,.27,5.41,5.41,0,0,0,3.17-2.21,8.62,8.62,0,0,0,1.8-3.73c.75-3.33.33-9.67-2.95-12.69a6.53,6.53,0,0,0-6.61-1.31,11.34,11.34,0,0,0-2.85,1.37,9.06,9.06,0,0,0-6.1-.94,5.84,5.84,0,0,0-.92.28,6.64,6.64,0,0,0-2.1-1.55,7.18,7.18,0,0,0-8.67,2,5,5,0,0,0-.83,5.32c-.48,5.09-.52,10.6,2.15,13.94a6.52,6.52,0,0,0,5.16,2.62l.63,0a7.79,7.79,0,0,0,5-2.7A6.49,6.49,0,0,0,581.38,104.24Z"/><path class="cls-3" d="M507.9,32.57l-.15-.35c-.25-1.06-.52-2.11-.78-3.17-.37-1.45-.72-2.83-1-4.23a4.63,4.63,0,0,0-2.13-3.05,5.07,5.07,0,0,0-3.5-.61,5.84,5.84,0,0,0-2.55.25,6.3,6.3,0,0,0-2.88,1.45c-4,3.44-1.59,10.39-.28,14.13l.25.72c1.46,4.24,3.89,11.34,9.56,12.58a5.42,5.42,0,0,0,1.19.13,4.79,4.79,0,0,0,3.64-1.56,7.16,7.16,0,0,0,1-1.39,5.35,5.35,0,0,0,1.56-3,4.88,4.88,0,0,0-.53-3.12A58.77,58.77,0,0,0,507.9,32.57Z"/><path class="cls-3" d="M484.32,147.39c6.94,0,10.89-7.91,12.14-12.73.39-1.48,2.22-9,1-15.18.39-5.43-3.22-12-8.88-12.94-6.52-1.09-11.87,4.21-13.78,10-1.34,4.07-1.08,7.81.73,10.55,1.16,1.75,3.5,3.92,8.1,4.31h.08a2.78,2.78,0,0,1-.44,1l-.11.1c-.17,0-.51-.11-.75-.17a7.55,7.55,0,0,0-2.64-.36,6.44,6.44,0,0,0-5.19,10.35,13.34,13.34,0,0,0,9,5Zm.85-27.26Z"/><path class="cls-3" d="M501.24,232.61a5.66,5.66,0,0,0-3.37-4.05c-2.78-1.27-5.6-.05-6.53.35-1.91.83-2,.78-3.12,0a7.53,7.53,0,0,0-6.73-1.15,6,6,0,0,0-3.69,4.14,12,12,0,0,0,.69,7.07,12.24,12.24,0,0,0,1.82,2.84,6.56,6.56,0,0,1,1.16,1.77c.17.76-.65,2-1.44,3.27-1.26,1.95-2.82,4.38-2.22,7.33a5.74,5.74,0,0,0,3.57,4.32,6.83,6.83,0,0,0,2.43.43,8.07,8.07,0,0,0,4.68-1.53c2.71-2,4.38-5.3,5.85-8.23.62-1.23,1.2-2.4,1.8-3.33.38-.6.8-1.21,1.23-1.83,2-2.88,4.26-6.15,4.05-10.27A5.56,5.56,0,0,0,501.24,232.61Z"/><path class="cls-3" d="M462.3,174.58h0a6,6,0,0,0-4.46.27,9,9,0,0,0-3,1.28,8.37,8.37,0,0,1-1.06-.58,6.89,6.89,0,0,0-6.25-1.05,6.9,6.9,0,0,0-3.44-2.29,6.77,6.77,0,0,0-5.4.69,4.74,4.74,0,0,0-3,3.3c-.06.11-.11.21-.16.32a5,5,0,0,0,.15,4.57c-.19.64-.47,1.34-.76,2.06-.87,2.13-1.85,4.55-1.19,7.28a7.56,7.56,0,0,0,10.37,5.06,8.72,8.72,0,0,0,1.82-1.09l5,.47a8.35,8.35,0,0,0,2.06-.54,5.56,5.56,0,0,0,1.42-.93,6.92,6.92,0,0,0,1.14.95,4.86,4.86,0,0,0,3.34,1.66,5.19,5.19,0,0,0,4-1.37,8,8,0,0,0,2.66-2.95c1.79-3.29,3.32-8.56,1.71-12.56A7.74,7.74,0,0,0,462.3,174.58Z"/><path class="cls-3" d="M421.29,118.75c-2.86-1.4-5.14-.08-6.51.73a11.27,11.27,0,0,0-3.35-2.86,7.29,7.29,0,0,0-10.72,5.61,9,9,0,0,0,1.54,6.17c.2.34.41.7.61,1.09,1,1.87.65,2.7-.68,5.57l-.09.2c-1.29,2.79-4,8.58,1,12a6.39,6.39,0,0,0,3.67,1.19c3,0,5.82-2.11,7.74-4.84.89-1.27,1.9-2.53,3-3.86a44,44,0,0,0,6-9C425.1,127.17,425.87,121,421.29,118.75Z"/><path class="cls-3" d="M348.54,162.48a7.17,7.17,0,0,0-3.88-.45l-.68.05c-2.29.11-2.39,0-4.1-1.56l-.53-.5-.07-.07a7.62,7.62,0,0,0-6.16-4.38A6.49,6.49,0,0,0,326.8,159c-1.87,3.28-1,6.74-.32,9.27l.06.21c.66,2.55.91,3.73-.07,5.19a11.73,11.73,0,0,1-1.69,1.84c-.45.44-.91.87-1.33,1.34a55.56,55.56,0,0,0-5.43,7.56c-.6,1-1.2,1.9-1.8,2.8-1.22,1.82-3.07,4.58-2.55,7.89.57,3.64,2.4,4.93,3.83,5.37a4.89,4.89,0,0,0,1.49.22c2.9,0,6.45-2.32,11-7.15q1.26-1.34,2.52-2.7c4.45-4.78,9.05-9.73,14.32-13.39,2.49-1.74,6.06-5.78,5.69-9.81A6.25,6.25,0,0,0,348.54,162.48Z"/><path class="cls-3" d="M320.19,123h0c1.05,0,4.57-.41,5.87-5.56A45.86,45.86,0,0,0,327,104c-.09-1.84-.24-4.84-1.89-6.84-.73-1.65-2.72-5.3-6.06-5.61-1.13-.1-3.31.14-5.12,3-1.69,2.64-1.7,5.8-1.7,8.33,0,.49,0,1,0,1.42l0,1a38.32,38.32,0,0,0,.72,10.82C313.89,120.06,317,123,320.19,123Z"/><path class="cls-3" d="M389.39,80.3a13.22,13.22,0,0,0,9.49-8.8c.8-2.5,1.06-6.22-.86-8.51A5.39,5.39,0,0,0,393,61.22a7.61,7.61,0,0,0-4.26,2.35c-.22.21-.45.42-.69.62s-.27.22-.37.29a10.7,10.7,0,0,0-2-1.44,7,7,0,0,0-6.2-.13l-.26.11-.14.09a7.12,7.12,0,0,0-1.26-.69,7.63,7.63,0,0,0-5.31-.61,6.5,6.5,0,0,0-4.6,3.38c-1.15,2.25-1.07,5.37.21,8.36.55,1.25,2.62,5.47,6.58,7a7.61,7.61,0,0,0,2.8.54,7.83,7.83,0,0,0,3.18-.69,9,9,0,0,0,1.8-1.06,1.38,1.38,0,0,1,.22.1A10,10,0,0,0,389.39,80.3Z"/><path class="cls-3" d="M362.25,75.2a6.78,6.78,0,0,0-4.39-4.68,10.17,10.17,0,0,0-5.8-.37c-2.55-3-5.14-4.7-7.69-5a7.36,7.36,0,0,0-5.61,1.68,7.56,7.56,0,0,0-2.24,3c-2.62,3-2.25,7.87-.86,12-2.5,3.19-3.49,6.09-2.93,8.64a6.52,6.52,0,0,0,4.59,5c1.6,1,3.7,1.09,6.27.35a15.09,15.09,0,0,0,7,5.36,11.16,11.16,0,0,0,3.42.56,7.87,7.87,0,0,0,5-1.7c2.26-1.82,3.36-4.88,3-8.39a31.21,31.21,0,0,0-2.16-7.5C361.64,81.83,363.11,78.4,362.25,75.2Z"/><path class="cls-3" d="M480.62,82.84a11.47,11.47,0,0,0,3.68-3.92c.28-.43.56-.87.89-1.3h0a16.08,16.08,0,0,1,3-2.76,29,29,0,0,0,2.7-2.25,17.62,17.62,0,0,0,4.26-6.39,13.27,13.27,0,0,0,1.43-7.15,15.18,15.18,0,0,0-9.42-12.21,14,14,0,0,0-14.42,1.49,16.31,16.31,0,0,0-6.1,14,12.58,12.58,0,0,0,4.09,8.31,11.44,11.44,0,0,0-2.3,5.94,6.79,6.79,0,0,0,3.16,6.55,7.77,7.77,0,0,0,4.05,1.08A9.54,9.54,0,0,0,480.62,82.84Z"/><path class="cls-4" d="M910,401.44a2,2,0,0,0-.06-1.17l-.06-.16a2,2,0,0,0-.09-2.45c-1.65-2.27-4.06-1.54-6.61-1.6-4-.09-7.45-1.44-11.19-2.8a49.77,49.77,0,0,0-8.83-2.3c-4.4-1.87-10.49-2.39-15.18-2.51-8.61-.21-16,2.74-24.42,3.83-3.95.52-7.92-.18-11.87,0-4.11.15-6.08-.49-9.65-2.56a2.4,2.4,0,0,0-3.47,1.18,2.88,2.88,0,0,0-.3.39,113.44,113.44,0,0,0-15.14,4.79c-5.68,2.14-10.44,5.54-16.37,7.21-1.56.45-3.13.89-4.69,1.32a2.52,2.52,0,0,0-2-.46c-7.77,1.47-15.38,3.36-23,5.24a30.11,30.11,0,0,0-3.12.76,2.64,2.64,0,0,0-1,.62c-4,.55-8,.64-12,1.79-4.3,1.24-8.66,1.6-13,2.44-9.68,1.85-16.67,5.82-21.81,14.42S703.7,447,708.22,455a124.06,124.06,0,0,1,7.15,16.12c.9,2.33,1.39,4.78,2.29,7.1,1,2.54,2.82,4.85,3.51,7.48a2.28,2.28,0,0,0,1.47,1.64c1.55,2.09,2.68,5.4,3.65,7.62a83.28,83.28,0,0,0,4.33,9.22c3.19,5.35,5,10.9,7.09,16.74,3.67,10.35,8,21.92,8.17,33.1a2.08,2.08,0,0,0,.6,2.6l.15.13a2.68,2.68,0,0,0,1.42.63l.1,0a15.73,15.73,0,0,0,3.36.12h1.42a4.74,4.74,0,0,1,.55,0c.17.45.37.89.55,1.33a9.41,9.41,0,0,1,.78,3,2.43,2.43,0,0,0,1.11,2,2.22,2.22,0,0,0,1.93.91c3.06-.07,5.53-1.63,8.52-2a44.6,44.6,0,0,0,23.17-9.21,2,2,0,0,0,.73-2.31,31.34,31.34,0,0,0-3.22-14.66c-2.89-5.61-4.15-11.12-5.17-17.37-1.62-9.92-4.93-19.19-9-28.29a2.32,2.32,0,0,0-.15-1.1c-2.06-5.48-2.82-11.33-4.59-16.9-.45-1.43-1-2.82-1.5-4.18-.68-1.74-2.06-3.18-2.71-4.81-1.76-4.44,3.27-3.48,6.15-3.84,3.09-.39,6.15-1.15,9.18-1.84a38.13,38.13,0,0,0,7.24-2.23c2-.92,4.08-2.24,6.23-3,.63-.15,1.25-.33,1.93-.54a2.64,2.64,0,0,0,1.06-.59,49.58,49.58,0,0,1,13.54-1.48,137.48,137.48,0,0,1,14.2,1c5.55.86,10.87,2.62,16.41,3.53a89.19,89.19,0,0,0,14.7.92,2.41,2.41,0,0,0,1.48-.56l4.2.15c4.15.64,8.39.67,12.58.91,8.16.47,18.48-2.5,24.54-8.2,3-2.84,4.47-7.29,5.77-11.1,1.48-4.32,2.94-8.71,4.54-13a41.65,41.65,0,0,0,2.5-13.69C910.34,407.72,910.64,404.31,910,401.44ZM718.17,434.15l.1-.17-.06.13Zm21.68,2.09-.18-.2,1.66-.65Zm-22.69-1.18c-.13.14-.26.29-.38.44,0-.12.09-.23.13-.35A1.06,1.06,0,0,0,717.16,435.06Zm45.62,118.79-.09-.33a3.88,3.88,0,0,0,.76.12h.29Zm-32.32-73,.34.63,0,.06Zm-8.53-6.48-.09.1c-.17-.42-.32-.85-.46-1.27C721.56,473.55,721.74,473.94,721.93,474.33Zm26.43,62.26a57.52,57.52,0,0,1,1.32,6.36c-.55-2.86-1.27-5.72-2.09-8.55A17.81,17.81,0,0,1,748.36,536.59Zm11,22.75c.41,0,.82-.06,1.22-.1-.39.12-.78.23-1.16.32Z"/><path class="cls-3" d="M727.11,583.51c-.63-1-1.23-2.5-2.38-3a2.65,2.65,0,0,0-3.16.76,2,2,0,0,0-.41.34c-1.43,1.58-.73,3,.09,4.51a5.87,5.87,0,0,0,.43,1.09l.15.22a16.58,16.58,0,0,1,.89,5,2.57,2.57,0,0,0,2.5,2.5c3.95.37,4.61-3.39,3.69-6.43A21.18,21.18,0,0,0,727.11,583.51Z"/><path class="cls-3" d="M743.71,579a2.6,2.6,0,0,0,1.1-.64,4.24,4.24,0,0,0,.31-.3l.2-.12a2.71,2.71,0,0,0,.6-.57,2.6,2.6,0,0,0,.59-1.67,6,6,0,0,0-1.23-2.89c-1-1.52-2.16-3.38-4.16-3.45a2.44,2.44,0,0,0-2.14,1.26,2.3,2.3,0,0,0-.63,1.64,3,3,0,0,0,.42,1.53c-.26-.46.16.3.21.4s.23.47.34.71.29.81.49,1.19a3.25,3.25,0,0,0,.3.51c.06.08.08.11.1.11a3.51,3.51,0,0,0,1.46,2.07A2.64,2.64,0,0,0,743.71,579Z"/><path class="cls-3" d="M751.05,589.08c-.27-.44-.46-.92-.72-1.37a16.37,16.37,0,0,0-2.09-3.21,2.49,2.49,0,0,0-.4-.34A2.52,2.52,0,0,0,744.4,583a8.6,8.6,0,0,0-2.36,2.19c-1,1.47-.25,2.53.59,3.75.67,1,1.08,2.15,1.77,3.14s1.49,2.45,2.52,2.92c2.62,1.19,6.37-1.48,5.19-4.39A11.08,11.08,0,0,0,751.05,589.08Z"/><path class="cls-3" d="M775.24,575.77a39.87,39.87,0,0,0-4-7.79,2.36,2.36,0,0,0-2.41-2.4,13,13,0,0,0-3.22.38,2.55,2.55,0,0,0-1.83,2.41c-.14,2.18,1.83,3.28,2.86,5a54.07,54.07,0,0,1,3.41,7.75c1.38,3.35,2.3,10,7.52,7.07a2.59,2.59,0,0,0,1.15-2.82C778.28,582.25,776.44,578.62,775.24,575.77Z"/><path class="cls-3" d="M770.32,335.58a2.14,2.14,0,0,0-.19-2.19c-.18-.31-.22-.36-.13-.14l-.25-.6c-.09-.21-.2-.41-.28-.62a23.13,23.13,0,0,0-1-2.24c-.56-1-1.18-2.32-2.28-2.84a2.91,2.91,0,0,0-2-.19c-4.91,0-9.83.78-14.76.48-5.54-.33-10.82-1.23-16.41-1.23-11.57,0-23.66-.37-35.06,1.59a2,2,0,0,0-1.8,2.15l-.32.43-.37.54c-.21.23-.43.45-.63.69-.69.82-1.43,1.58-2.18,2.35a8.06,8.06,0,0,0-.9.62,2.31,2.31,0,0,0-.57,2.54,2.62,2.62,0,0,0,3.15,1.87c5.33-1.59,11.75-.16,17.24-.41,6.71-.3,13.34-1.24,20.07-1.37,5.59-.11,11.12.48,16.73.26a127.91,127.91,0,0,1,19.56.93A2.12,2.12,0,0,0,770.32,335.58Z"/><path class="cls-4" d="M59.74,136.32a2.63,2.63,0,0,0,.58-.92,2.3,2.3,0,0,0,.25-.63,2.18,2.18,0,0,0,.42-.33,2.52,2.52,0,0,0,0-3.54c-.54-.46-1.18-1-1.69-1.47.12.1-.15-.27-.23-.36a6.45,6.45,0,0,0-.63-.65,23.87,23.87,0,0,0-2.8-2,2.6,2.6,0,0,0-4.16.07c-3,.9-5.65,3.26-8.18,4.91s-5.74,3.83-6.95,6.8a3.14,3.14,0,0,0-.44,2.08,2.82,2.82,0,0,0,1,1.67,1.77,1.77,0,0,0,.27.53c.78,1,1.6,1.94,2.41,2.86.3.34,1,.83,1.11,1s.63.83,1.05,1.27a2.28,2.28,0,0,0,1.38.69,2.13,2.13,0,0,0,2.7.12c2.45-1.63,4.57-3.84,6.93-5.61A60.17,60.17,0,0,0,59.74,136.32Z"/><path class="cls-4" d="M168.56,108a2.69,2.69,0,0,0,.65,1.38s.1.09.15.14a2.23,2.23,0,0,0,3.24.23,2.17,2.17,0,0,0,1-1.53c1.07-1.25,3.13-2.53,4.41-3.64.85-.73,1.67-1.48,2.53-2.19a11.17,11.17,0,0,1,2.3-1.81A2.57,2.57,0,0,0,184,96.45a2.53,2.53,0,0,0-.27-1.22c-1.62-3.34-3.82-6.47-5.43-9.9-1.87-4-7.63-11-5.28-15.12a.18.18,0,0,0,0-.07l.12-.24a2.5,2.5,0,0,0-3.2-3.48,2.69,2.69,0,0,0-.79,0c-2.93.66-4.94,4.06-6.51,6.38a9.48,9.48,0,0,0-1.08,2.07c-.05.14-.59,1.75-.24,1.06a12,12,0,0,0-1.74,4.61,3.45,3.45,0,0,0,0,.45,4.07,4.07,0,0,0-.38,1.26c-.51,4,2.49,9.39,4,13.06C164.92,99.47,167.18,103.76,168.56,108Zm.56-20.56,0,.07a.32.32,0,0,0-.09,0l-.09-.36C169,87.26,169.08,87.35,169.12,87.43ZM167.55,75a1.57,1.57,0,0,0-.21-.17l.13-.2C167.5,74.71,167.52,74.83,167.55,75Z"/><path class="cls-4" d="M216.25,107.85c.3.82.72,1.61,1,2.43a2.51,2.51,0,0,0,4.91-.66c.08-2.75,1.08-5.77.71-8.52-.28-2-3-2.22-4.18-1.1a14.9,14.9,0,0,0-1.8,2.47,11.48,11.48,0,0,0-1.53,2.76A2.1,2.1,0,0,0,216.25,107.85Z"/><path class="cls-4" d="M178.9,266.34a78.59,78.59,0,0,1,13.55-.66,2.33,2.33,0,0,0,2.41-2.43,2.42,2.42,0,0,0-.22-3.09c-3-3.27-2.76-7.76-3.33-11.91-.53-3.78-1.49-8.42-.84-12.22a2.48,2.48,0,0,0-.57-2.11,2.43,2.43,0,0,0-1.8-2.22,1.45,1.45,0,0,1-.45-.22l-.21-.16-.5-.39c-.19-.14-.39-.27-.59-.39-.36-.21-.71-.44-1.07-.66l-.12-.06a3.27,3.27,0,0,0-.44-.47c-1.22-7-.34-14.71,0-21.66.33-6.26.13-14.81,3.19-20.43a2.35,2.35,0,0,0,0-2.45,2.33,2.33,0,0,0,1.42-2.15c.21-5.84-.55-11.94-.82-17.78-.34-7-.75-14-.82-21.09a2.41,2.41,0,0,0,.72-2.37c-.65-2.92,0-6.59,0-9.57.09-2.8.42-5.63.47-8.46.08-5.5-.84-11.06-4.29-15.49a2,2,0,0,0-1.72-.87,2.49,2.49,0,0,0-3,1c-1.47,2.17-5,4.33-7.23,5.84-4.84,3.35-8.42-4.07-10-7.75-.39-.94-.76-1.87-1.12-2.81A2.32,2.32,0,0,0,162,101c-.88-2.36-2-4.68-2.78-7.06-.7-2.09-.88-4.35-1.38-6.49a2.15,2.15,0,0,0-1.3-1.61,2.69,2.69,0,0,0-3-2c-5.29.82-8.43,6.31-12.94,8.63-4.77,2.45-9.68,4.16-14.33,6.85a2.19,2.19,0,0,0-1.14.46c-2.77,2.06-5.65,3.41-8.29,5.72s-4.08,5-5.81,8.21c-3.61,6.73-6.53,13.76-10,20.53a71.75,71.75,0,0,1-5.41,9.24c-3.47,4.76-6.48,8-12.86,7.05-4-.62-6.57-2.12-9.62-4.81-2-1.72-3.74-3.86-5.83-5.43a2.63,2.63,0,0,0-3.05-2.07c-3.62.66-6.73,4.85-9.3,7.24-2.17,2-4.31,5.24-7,6.6a2.11,2.11,0,0,0-1.21,2.4,1.83,1.83,0,0,0-.14.35,18.84,18.84,0,0,0,.25,10.75c1.32,3.66,5.35,5.68,8.1,8.1,2.91,2.54,5.85,4.87,9,7.12,3.55,2.54,6.44,5.65,10.24,8,7.92,4.83,14.67,11.24,23.55,14.48,3.8,1.39,7,.65,10.62-.7a46.46,46.46,0,0,0,7.82-3.75l1.4-.39c1.81-.51,2.16-2.08,3.77-.28.61.69.51,1.15.79,1.93,2.19,6.06,1,14.21.74,20.54a85.69,85.69,0,0,1-4.44,23.68,52,52,0,0,1-4.06,8.89c-1.21,2.18-2,3.51-1,6,1.92,4.76,7.86,6.22,12.45,6.71,6.58.7,13.32,1.5,19.93,1.74,8.14.31,16.21.78,24.34.06C173,267.36,176,266.82,178.9,266.34Zm-17-36.22c0,1.72,0,3.43-.06,5.15,0-1.85,0-3.69,0-5.54,0-1.43,0-2.86,0-4.28C161.91,227,161.93,228.56,161.94,230.12Zm12.42-58.42,0,.31-.09-.27ZM173.47,156v.24l-.15-.43,0,0A1.74,1.74,0,0,0,173.47,156Zm-25.9-51.54c0,.14.08.27.13.41-.24-.1-.48-.19-.73-.27Zm-7,130.4c-.13-.88-.23-1.75-.29-2.62C140.39,233.14,140.49,234,140.59,234.89Zm-6.7,19.6.09.16-.14,0S133.88,254.54,133.89,254.49ZM142,100.82c-1.29.39-2.59.82-3.88,1.29,1.35-.53,2.72-1,4.09-1.44Zm46.9,159.67a.83.83,0,0,1,.07.13h-.22Zm-4.43-76.94a2.25,2.25,0,0,0,.08.24,1.13,1.13,0,0,0-.21.12ZM146.51,94.13l-.14,0,.44-.38ZM118.92,258.36a6.33,6.33,0,0,0,1.18,1A3.68,3.68,0,0,1,118.92,258.36Z"/><path class="cls-4" d="M207.65,109.49h0Z"/><path class="cls-4" d="M207.42,109.58h0C207,109.6,207.23,109.63,207.42,109.58Z"/><path class="cls-4" d="M204.24,125c0,3.9-.4,10.91,2.43,14.37a2.28,2.28,0,0,0,2.31,1.8c6.27,0,12.94,1.56,19.15,2.45,3.52.5,6.74,1.6,10.3,1.71s7.51-.49,10.86.39a2.29,2.29,0,0,0,2.47-.78,2.41,2.41,0,0,0,.87-1.85c-.06-8.66-1.35-17.48-6.08-24.9-4-6.2-11.66-7.64-16.52-12.75,0-.08,0-.17-.07-.25-.93-3.07-5.76-1.76-4.82,1.33,1,3.43-3.5,15.9-7.85,10.47-2.08-2.59-2.58-7.15-6.23-7.88a2.86,2.86,0,0,0-1.11-.31,3.87,3.87,0,0,0-2.13.63l-.17.09c.14-.07.43-.16.13,0l-.15.06,0,0,0,0-.2.08h.12a2.54,2.54,0,0,0-2.5,2.5,3.44,3.44,0,0,0,.09.56C202.83,116.21,204.25,120.6,204.24,125Z"/><path class="cls-4" d="M214.42,259.59c-1.37,1.41,0,4.61,2.59,4.22a46.15,46.15,0,0,0,9.29-2.61c2.49-1,5.06-2.18,6-4.82,1-2.86.62-6.21-.24-9.07a22.57,22.57,0,0,0-1.8-4.56,2.64,2.64,0,0,0-2.92-3.61,16.63,16.63,0,0,1-3.39.71c-1.44,0-2.83-.2-4.27-.32-2.66-.23-3.09,3.17-1.35,4.49.52,2.56,1.18,5.47.47,8C218,254.89,215.46,256.82,214.42,259.59Z"/><path class="cls-4" d="M271.39,196.29a2.13,2.13,0,0,0-.95-.5l-.13,0a2.66,2.66,0,0,0-3,3.44c.27,6.3,1.36,12.39-3.59,17.41-3.71,3.75-11.81,8.36-17.31,7.17a2.88,2.88,0,0,0-.61-.1h-.11a2.34,2.34,0,0,0-1,.19,3.23,3.23,0,0,0-2.14,1l-.23.3s-.49.46-.54.5A5.34,5.34,0,0,0,240,228.4a2.68,2.68,0,0,0,1.21,2.87c2.18,2.35,7.54,3.41,10,3.5,7.46.25,13.26-4.73,18.09-9.9,4.25-4.57,8.58-9.93,8.47-16.51C277.69,204.62,275.57,197.43,271.39,196.29Z"/><path class="cls-1" d="M142.5,588.25c-3.45-9.19-3.26-18.66-2.89-28.28a2.26,2.26,0,0,0-.19-.94c.53-2-1.45-4.33-3.55-2.9-5.6,3.83-14.26-.45-20-2.88a2.34,2.34,0,0,0-2.38-.48l-.31,0h-.1a2.51,2.51,0,0,0-1.75,1.75,6.18,6.18,0,0,0-.11,2.14,2.7,2.7,0,0,0,1,1.95c-1.48,5.6-3.19,11.48-3.68,17.16-.45,5.13-.67,12.84,4,16.24,9.19,6.76,20.16,6.36,28.93-.44a2.13,2.13,0,0,0,.84-1.27A2,2,0,0,0,142.5,588.25Z"/><path class="cls-1" d="M241.48,564.63c-1.89-.66.14-.08-1.89-.36a47.45,47.45,0,0,0-5.06,0,43.81,43.81,0,0,1-17.33-4.57c-4.23-2.18-5.77-6.87-8.22-10.63-1.5-2.29-5.3-7.71-8.74-8.37a2.32,2.32,0,0,0-2.9-.37c-3.58,2.07-7.41,4.5-11.45,5.59a3.08,3.08,0,0,0-.72.07c-.51.12-1,.26-1.55.4a64.22,64.22,0,0,1-9.61,0,2.5,2.5,0,0,0-4.2,1.41A16.54,16.54,0,0,0,163,559.57c-.28,2.17-.47,4.44-.62,6.62-.13,1.82-.68,4.09-.26,5.89a2.18,2.18,0,0,0,2.25,1.78c1.19.95,3,1.26,4.71,1.76,4.17,1.22,8.7,1.78,13,2.58,9.14,1.71,18.43.21,27.59,2,8,1.58,15.87,2.75,23.76,0,4.81-1.67,9.84-6.86,9.65-12.43A2.55,2.55,0,0,0,241.48,564.63Zm-40.32-5.16.09-.06.12.14Z"/><path class="cls-3" d="M220.87,296.32a152.1,152.1,0,0,0,.31-15.55c-.12-2.81.28-7.7-1.17-10.78a2.45,2.45,0,0,0-2.32-3.16c-8.22-.53-16.64,1-24.77,2-2.55.32-5.09.65-7.62,1-.85.05-1.71.09-2.56.16a34.58,34.58,0,0,0-4.57.88,34.14,34.14,0,0,0-4.19.64l-.33,0a2.17,2.17,0,0,0-1.49-.36,211.57,211.57,0,0,1-25.41.73c-3.79-.14-7.49-.95-11.25-1.3-4-.38-7.91-1.77-11.93-1.95a2.51,2.51,0,0,0-2.16,3.76l.16.23a1.73,1.73,0,0,0,.17.21,1.21,1.21,0,0,0,0,.18c-2,4.6-2.13,9.67-2.9,14.59-.89,5.68-1.07,11.43-1.72,17.14-1.39,12.22-5,24-2.57,36.45a116.29,116.29,0,0,1,1.77,13.13c-1.32,19.81-2.42,39.65-2.73,59.48a3,3,0,0,0,0,.44c-.75,6.76-1.32,13.51-1.9,20.29-.73,8.49-2.87,16.64-5.09,24.83a106.3,106.3,0,0,0-3.21,24.09,49.19,49.19,0,0,0,.32,9.63c.64,3.9,2.59,7.73,2.85,11.61a2.55,2.55,0,0,0,.35,1.14,31.4,31.4,0,0,1,.24,3.16c0,4.31.13,8.57.29,12.87.23,6.15-2.11,12.48-.73,18.56a2,2,0,0,0,.41.81,15.74,15.74,0,0,0,.15,1.66,2.45,2.45,0,0,0-.91,2.5l.05.24a2.56,2.56,0,0,0,2.41,1.84l.27,0a2.3,2.3,0,0,0,2.69.16l0,0a13.37,13.37,0,0,1,5.18,1.15c2.74,1.3,5,2.69,8,3.38a26.4,26.4,0,0,0,7.73.6c2.84-.18,4.9-1.47,7.57-2.13a2.27,2.27,0,0,0,1.47-1.13,2.52,2.52,0,0,0,1.86-3.7c-2-3.59-1.22-7-.11-10.62s.8-7.05,1.31-10.83c.86-6.31,3-12.26,3.82-18.61.47-3.75,1.87-7.08,2.46-10.76.54-3.33.15-7,.15-10.36a129.21,129.21,0,0,1,1.75-21.87c2.27-13.68,5.72-27.54,7-41.35a71.54,71.54,0,0,1,5.49-21.93c.16-.38,1.36-4.4,1.86-4.45,2.51-.26.49,4.44.3,5.3-.7,3.16-1.74,6.34-2.29,9.51a2.17,2.17,0,0,0-1,2,28.24,28.24,0,0,0,1.88,8.21,57,57,0,0,0,1.35,11.49,87.37,87.37,0,0,1,1.89,12.67c-.76,9.8-1.7,19.54-2.18,29.37a315.43,315.43,0,0,1-3.09,32,98.13,98.13,0,0,0-1,15.6,75.21,75.21,0,0,0,.29,8.5c.25,2.13,1.31,4.35,1.07,6.51a2.65,2.65,0,0,0,1.58,4,2.09,2.09,0,0,0,1.72,1.71c.22,0,.45.05.67.07h0l.21,0c.52.06,1,.1,1.56.11,4.82.36,9.06.83,14.05.17a2.57,2.57,0,0,0,1.86-1.15c3.65-.07,7.59-.66,9.05-3.87a3.36,3.36,0,0,0,.21-.78,2.64,2.64,0,0,0,.56-.47c1.81-2,2.11-5,2.65-7.62.81-3.84,1.57-7.7,2.37-11.55,1.86-8.9,1.92-17,1.83-26-.07-7-.11-13.74-.86-20.71-.37-3.49-.91-7-1.57-10.45-.46-2.4-1.33-4.87-1.35-7.34,0-1.87.54-3.61.53-5.49a2.38,2.38,0,0,0-.14-.78c.76-12.3,5.26-24.48,7.16-36.58,2.22-14.19,6-28.14,9-42.16a105.41,105.41,0,0,0,2.15-16c.38-6.21,2.89-12,3.18-18.15a122.88,122.88,0,0,0-.07-15.11c-.49-6.75.66-13.44.66-20.21A2.32,2.32,0,0,0,220.87,296.32Zm-9.15,63.44-.15,0c.26-1.73.53-3.47.79-5.2C212.18,356.29,212,358,211.72,359.76ZM108.4,483c0,.36,0,.71.08,1.07l-.12,0c0-.22,0-.45,0-.67S108.39,483.17,108.4,483Zm79.25-194.76a1.36,1.36,0,0,1-.3.39c0-.14,0-.27.06-.38Zm-35.38,90c0-.18.09-.36.13-.55l.34.22Zm23.48-98.2c0-.05,0-.1,0-.15l.85-.05ZM154.64,399.52c0,.05.08.09.11.14-.21.63-.42,1.27-.64,1.92s-.38,1.14-.56,1.71C153.87,402,154.24,400.76,154.64,399.52Zm18.52,133.93a.71.71,0,0,1,0-.14,3.69,3.69,0,0,0,.42.17C173.43,533.48,173.29,533.46,173.16,533.45Zm24.57-49.24c0,.65,0,1.29,0,2,0,.27,0,.54,0,.81,0-.61,0-1.22-.07-1.82C197.72,484.83,197.73,484.52,197.73,484.21ZM215.8,319.77l0,.8h-.1C215.76,320.3,215.78,320,215.8,319.77Zm-.14-46.1,0,.24a2.55,2.55,0,0,0-.87-1.19l.6-.11A5.42,5.42,0,0,1,215.66,273.67Zm-103.9,186.2.17.06c-.43,1.69-.88,3.39-1.34,5.08Q111.12,462.43,111.76,459.87Zm.46,82.23.68.49-.6,0C112.27,542.42,112.24,542.26,112.22,542.1ZM138,545.48c.06.18.12.35.19.52l-.25.07A2.81,2.81,0,0,0,138,545.48Zm1.23-14.55a.18.18,0,0,0-.07,0l.15-.36C139.32,530.66,139.29,530.79,139.26,530.93Z"/><path class="cls-3" d="M255.6,151a16.11,16.11,0,0,0-2-.47c-4.25-1.15-9.45-3.38-13.28-1.74a52.29,52.29,0,0,0-9.35-2c-7.82-.61-15.64-.58-23.34-2.29a2.62,2.62,0,0,0-2.87,3.7c-2.67,2.37-4.59,6.6-5.95,9.38-2.7,5.53-5.14,12.48-5.48,18.62a2.24,2.24,0,0,0,.52,1.62c-.9,2.51-1.77,5-2.56,7.58-4,13-4.37,27.41-4,41a2.94,2.94,0,0,0,.34,1.2,2.45,2.45,0,0,0,2.4,1.93c5.71-.1,11.39,2.89,16.84,4.17,4.34,1,9,1.05,13.4,1.28,3.12.17,8.75,2.81,11.68,1.6s3.63-6.69,5.08-9.28a3,3,0,0,0,.22-.53c2.27-.36,2.93-4.12.23-4.9a20.9,20.9,0,0,1-8.76-5c-3.36-3.41-6.4-8.63-.44-11.52a2.5,2.5,0,0,0,1.24-2.16c.27-4-1.24-7.28,2.88-9.52a2.47,2.47,0,0,0,1.24-2.16c-.29-3.85,8.92-4.9,12-5.44a2.45,2.45,0,0,0,1.64-1.41,2.54,2.54,0,0,0,1.21-1.95c.55-5.4,2.62-11.88,4.44-17,.89-2.53,3.8-7.15,3.61-10.47A2.41,2.41,0,0,0,255.6,151Zm-43.27.29a2.33,2.33,0,0,0-.05-.28c0,.05.06.1.1.15l.07.09Zm-6,12.43-.27.19c.37-1,.77-2,1.2-3,0-.09.09-.17.13-.25C207,161.67,206.69,162.67,206.35,163.69Zm-14.14,59.74a4.57,4.57,0,0,0,.73,1.2c-.23,0-.47,0-.7-.06Z"/><path class="cls-1" d="M36.24,89.31c-3-1.84-5.9-.53-8.79.69-1.94-.69-3.66-2-5.56-2.79-2.12-.85-4.72-1.53-6.92-2.2-5.27-1.61-8.35.34-13,2.48A2.18,2.18,0,0,0,.61,89.1a2.47,2.47,0,0,0-.55,1.34c-.47,4.24,2,8.15,4.68,11.17,1.86,2.06,1.34,3,1.42,5.94a29.33,29.33,0,0,0,1.42,8c1.7,5.36,5.84,7,10.54,9.45,5.09,2.6,9.29,4.63,13.07,9.13,2.08,2.47,5.82-.85,3.75-3.31-3.14-3.73-5.91-6.13-10.37-8S14,118.5,12.28,113.92a21.71,21.71,0,0,1-1-7.5c0-2.11.54-4.48-.67-6.36C8.69,97.1,5,95.47,5,91.53c1.5-.83,3-1.94,4.66-2.23,2.56-.44,4.79,1,7.09,1.8a34.15,34.15,0,0,1,5,1.62,25.87,25.87,0,0,0,4.67,2.21,2.74,2.74,0,0,0,1.09.07,2.49,2.49,0,0,0,1.29-.18c1.54-.62,3.41-1.71,4.85-1,1.14.57,2,2,2.81,3,1.88,2.27,4.44,4.54,5.93,7.1,2.38,4.08,2.83,10,2.32,14.86a2.69,2.69,0,0,0-.18.79l-.07,1c-.2,3.28,4.48,3.42,5,.31,1.26-7.58.13-16.73-5.11-22.69C41.92,95.47,39.41,91.28,36.24,89.31Z"/><path class="cls-1" d="M215.33,243.17a2.76,2.76,0,0,0,0-1.11c.88-1.83-.39-4.5-2.69-3.53-1.81.76-5.68-.56-7.63-.69-2.19-.14-6.08-.1-7.55-2-2-2.54-5.48,1-3.53,3.54a5.34,5.34,0,0,0,.92.92,2.6,2.6,0,0,0-.09.64c-.08,5.29,1.07,10.57,1,15.85a2.28,2.28,0,0,0,2.25,2.4c.63.55,1.34,1,1.93,1.59a34.25,34.25,0,0,0,3.24,2.48,4.83,4.83,0,0,0,.71.72,3.07,3.07,0,0,0,.54.45l.2.12a2.51,2.51,0,0,0,3.42-.9,76,76,0,0,1,6.46-11.06c.72-1,1.42-1.66,1.5-3C216.12,247.41,214.86,245.38,215.33,243.17Zm-7.66.05-.41-.06.45,0Z"/><path class="cls-1" d="M195,163.46c.81-1.16.94-2.9,1.27-4.24a27.55,27.55,0,0,1,1.51-5.19,3.5,3.5,0,0,0,.21-.65c.31-.85.63-1.69,1-2.54,1.13-2.91,3-5.68,3.86-8.65a3.11,3.11,0,0,0,.1-.65,2.37,2.37,0,0,0-.15-2.06c-2.06-3.8-2.32-10.19-2.62-14.37a55.31,55.31,0,0,1,1.11-14.63,2.48,2.48,0,0,0-.5-2.08A2.16,2.16,0,0,0,199.1,107a18,18,0,0,1-3.7-1.71c-1-.5-1.93-1-2.89-1.5-1-1.07-1.89-2.08-3.64-1.66a2.51,2.51,0,0,0-1.83,2.41,9.61,9.61,0,0,0,1.5,3.72l.12.22a5,5,0,0,0,.47,1.55c.11.22.23.42.35.63a2.4,2.4,0,0,0,.09.78l0,.18a2.35,2.35,0,0,0,1,1.37,2.37,2.37,0,0,0,.39.32c1.51,4.11.49,9.55.77,13.69s0,8.3.69,12.33c-.39,6.37-1.39,12.72-1.9,19.09l-.12.28a8.48,8.48,0,0,0-.24,3.21,2.76,2.76,0,0,0,.32,1A2.5,2.5,0,0,0,195,163.46Z"/><path class="cls-1" d="M231.77,19.94A38.44,38.44,0,0,0,208.08,8.49c-7.61-.8-18.65,5.58-22.57,12.11a26.42,26.42,0,0,0-3.59,10.56c-.21,1.66-.59,3.58-.77,5.5a6.68,6.68,0,0,0-7.06,4.69,29.75,29.75,0,0,0-.34,11.32,12.52,12.52,0,0,0,1.43,4.1,9.13,9.13,0,0,0,1,1.69c.09.11.36.44.59.7-.2,1.32-.3,2.13-.58,4.32a32.54,32.54,0,0,0,1.46,13.85c2.25,7.57,7.51,14.54,13,20.06,2.17,2.17,4.21,4.21,7.09,5.41s6.71,2.84,9.92,2.42c8.61-1.13,10.58-9.28,14.22-15.61,4.19-7.3,10.57-12.74,14.78-20,4.41-7.66,7.79-18.16,6.44-27.07A42.6,42.6,0,0,0,231.77,19.94Zm-.11,48.31c-3.26,5.2-8.24,9-11.36,14.22-1.55,2.58-3.12,5.26-4.47,7.94-1.56,3.13-2.21,6.57-5.53,8.39-5.18,2.84-11.41-.29-15.19-4.16-5-5.09-10-10.9-12.28-17.76-2.18-6.48-1.79-12.58-.91-18.28a2.56,2.56,0,0,0-.89-2.4c-.41-.52-.91-.93-1.31-1.49a8.34,8.34,0,0,1-1.1-4.89c0-1.75,0-3.55.08-5.3.05-.79,0-1.84.66-2.39.32-.75.79-.76,1.4,0a5.19,5.19,0,0,0,.88.57,2.36,2.36,0,0,0,.48.75c1.62,2.3,5.49-.12,4.11-2.86-1.06-2.08.41-7.42.77-9.78a20.84,20.84,0,0,1,2.83-7.65c1.61-2.67,4.24-4.22,6.86-5.75,5-2.91,8.67-4.36,14.46-3.09,7.56,1.66,15.07,5.52,19.42,12.23,3.91,6,7.78,11.39,7.85,19A44,44,0,0,1,231.66,68.25Z"/><path class="cls-1" d="M265.85,192.28a20.22,20.22,0,0,0-5.07-4.78,15.4,15.4,0,0,0-3.66-1.56c-1.13-.38-2.66-.39-3.7-.87-2.91-1.32-5.45,3-2.53,4.32,2.09,1,4.46,1.08,6.6,2l.15.06a.93.93,0,0,0,.18.12,12.22,12.22,0,0,1,1.24,1,19.17,19.17,0,0,1,2.37,2.13,2.34,2.34,0,0,0,2.8,1.29l.12,0A2.52,2.52,0,0,0,265.85,192.28Z"/><path class="cls-1" d="M803.56,577.42a43,43,0,0,0-3.32-8.18c-1.6-2.91-3.92-5.25-5.87-7.83s-6.26,0-4.32,2.52c1.82,2.4,4,4.56,5.47,7.2a40.15,40.15,0,0,1,2.93,6.75c-.39-.16-1.24.94-1.93,1.42-1,.74-2.12,1.5-3.13,2.31a35.55,35.55,0,0,1-6.21,4.42c-6.14,3.12-13.26,4.48-19.94,5.84-4.57.92-8.77,3.13-13.28,4.35a31,31,0,0,1-9.7.95c-4.2-.18-8.15-1.64-12.33-1.54-3.21.08-3.23,5.08,0,5,4.59-.11,9.22,1.52,13.93,1.57a33.68,33.68,0,0,0,9.43-1.16c6.17-1.66,11.93-3.9,18.18-5.35,6.51-1.51,13.31-3.28,18.94-7,2.72-1.79,5.08-4.05,7.77-5.9,1.71-1.18,3.36-1.8,3.47-4.1v-.15A2.54,2.54,0,0,0,803.56,577.42Zm-4.91,1.29a1.61,1.61,0,0,0,0-.22.14.14,0,0,1,0,.06C798.67,578.61,798.65,578.65,798.65,578.71Z"/><path class="cls-1" d="M751.05,576.27a2.54,2.54,0,0,0,3.42.89c.14-.08.28-.18.42-.28a3.84,3.84,0,0,0,1-.73c.29-.3.61-.56.89-.87.65-.73,1.22-1.51,1.9-2.21a2.5,2.5,0,0,0-3.53-3.53c-1,1-1.75,2.12-2.75,3.05-.32.17-1,.61-.45.26A2.53,2.53,0,0,0,751.05,576.27Z"/><path class="cls-1" d="M730.9,577.72a8,8,0,0,0,.77-.52c.09-.07.43-.29.6-.45a2.53,2.53,0,0,0,1.61-3A2.56,2.56,0,0,0,730.8,572a4.92,4.92,0,0,0-2.12,1.25l0,0-.37.21a4.35,4.35,0,0,0-1,.86,2.7,2.7,0,0,0-.73,1.76,2.5,2.5,0,0,0,4.27,1.77Z"/><path class="cls-1" d="M744.26,559.71a2.45,2.45,0,0,0-2.07,1.18c.16-.21.23-.16-.05.12l0,0a3.14,3.14,0,0,0-.36,1.18,3.06,3.06,0,0,1,.33-1.15l-.23.2a2.76,2.76,0,0,0-.93,1.52,2.67,2.67,0,0,0,.25,1.92,2.52,2.52,0,0,0,1.49,1.15,2.69,2.69,0,0,0,2.91-1.22l.23-.22a3.5,3.5,0,0,0,1-2.2A2.49,2.49,0,0,0,744.26,559.71Z"/><path class="cls-1" d="M742.19,560.89a.85.85,0,0,0-.1.17l0,0Z"/><path class="cls-1" d="M717.33,594c-3.57-.57-7.78-1.06-11-2.87-.23-.14-.77-.73-1.11-.81a19.82,19.82,0,0,1,1.54-1.34,14.56,14.56,0,0,1,6.7-3.26c3.16-.5,1.82-5.32-1.33-4.82-4.07.64-14.7,6.06-11.64,11.61,2.58,4.67,10.94,5.58,15.49,6.32C719.15,599.35,720.5,594.54,717.33,594Z"/><path class="cls-1" d="M732.94,590.67a2.7,2.7,0,0,0,2,.69h0l.23,0,.27,0a2.71,2.71,0,0,0,.88-.37,2.82,2.82,0,0,0,.39-.29h0a4.27,4.27,0,0,0,1.6-1.44,2.51,2.51,0,0,0-.4-3,2.58,2.58,0,0,0-3-.39,7.65,7.65,0,0,0-2,1.35A2.55,2.55,0,0,0,732.94,590.67Z"/><path class="cls-5" d="M908.54,387.68c-3.24-6.27-3.11-13.46-3.17-20.38-.07-8.35.87-16.61,1.18-24.94.26-7,1.32-14,1.35-21s-.6-14.1-.5-21.18A82.07,82.07,0,0,0,897.06,259a86.65,86.65,0,0,0-13.95-18.19c-1.9-1.95-5.15-6.88-8.61-5.1a2.42,2.42,0,0,0-.78.65,22.94,22.94,0,0,0-4.69,1.91c-3.06,1.41-7.36,3.42-9.65,5.95-3.26,3.63-7.18,6.19-10.84,9.55s-5.92,6.71-10.23,8.76a2,2,0,0,0-.81-.13,2.55,2.55,0,0,0-2.5,2.46h0c-.13.19-.27.37-.38.57a2.72,2.72,0,0,0,3.38,3.93c4.6,0,8.07,0,12.2,2.6A22.59,22.59,0,0,1,859,282.92c2.91,7.06,3.55,17.72.11,24.81-2.81,1.6-6,2.53-8.64,4.48-2.09,1.55-3.87,3.52-6,5.14-2.76,2.16-5.55,4.31-8.34,6.42-2.59,2-5.1,4.81-7.83,6.52a2.24,2.24,0,0,0-1.68,2.63c-3.83,7.35-2,14.71-1.75,22.62.14,4.71.76,9.55-.15,14.21-.86,4.35-3.26,8.35-3.91,12.65a2.55,2.55,0,0,0,.85,2.37,2.66,2.66,0,0,0,2.07,1.23c3.09.11,6.18.85,9.28,1,2.95.17,5.84-.21,8.78-.33,7.08-.28,13.92-1.68,21-2.37,7.39-.72,15.13.86,22.13,3.17,3.94,1.3,7.9,1.94,11.9,2.91,3.23.79,6.14,1.76,9.47,1.19a2.34,2.34,0,0,0,1.06-.45A2.53,2.53,0,0,0,908.54,387.68ZM835.07,264.73c0-.13,0-.09,0,0Zm67.17,32.37c0-.66-.08-1.31-.13-2a2.49,2.49,0,0,0,.15-.28C902.26,295.6,902.25,296.35,902.24,297.1Zm-8.49,30h0c0-.18.07-.37.11-.55,0,.14,0,.27,0,.41S893.76,327,893.75,327.09Zm-7.3-50.7c-.08-.29-.16-.57-.23-.86l.24.52C886.46,276.16,886.45,276.28,886.45,276.39ZM874.19,312c-.07.15-.13.3-.19.45h0l0-.23Zm-20.46,43.11,0,0,0-.07Zm16.17-97.31c0,.19-.07.37-.1.56C869.33,257.93,869.36,257.74,869.9,257.76Zm-40.45,82.49.09-.53c0,.19,0,.36,0,.54Zm72.71-3.88.12-1.42-.06,1.46Zm-36.66-32c.08-.37.17-.74.25-1.12C865.68,303.63,865.59,304,865.5,304.37Zm-36,46.05c0,.95,0,1.9.05,2.85-.1-.95-.2-1.91-.28-2.87ZM845,264.74l-.21,0,.26-.2C845,264.58,845,264.66,845,264.74ZM826.35,381.21h-.07l0-.11A.56.56,0,0,0,826.35,381.21Zm75.88-88.79c-.07-.3-.14-.6-.22-.9,0-1.4-.06-2.8-.12-4.21.14,1.07.25,2.15.3,3.25C902.21,291.18,902.22,291.8,902.23,292.42Z"/><path class="cls-4" d="M731.57,291.76c-2.06,10.21-6.43,20-8.85,30.12a2.53,2.53,0,0,0,1.75,3.08l.13,0a2.63,2.63,0,0,0,3.11-2.44c2.45-9.9,6.67-19.47,8.68-29.46C737,290,732.21,288.6,731.57,291.76Z"/><path class="cls-1" d="M873.83,228.74c-3.91-6-7.27-10.72-9.07-17.79-1.49-5.88-3.06-12-5.86-17.51s-5-10.62-9-15.18c-4.62-5.28-10.22-9.23-16.21-12.84-11-6.62-24.51-5.67-35,1.24C787.6,174,774.56,187.28,774,201.33a2.42,2.42,0,0,0,0,.85,2.6,2.6,0,0,0,.24.83c1.33,3.83,4.38,6,7.65,8,0,0,0,0,0,.07-.1,7.85,2.76,14.46,6.39,21.23-.15.36-.3.72-.43,1.08-2.84,7.87-1.4,15.59-1.28,23.74.11,7.59-2.15,15.51-3.35,23-.92,5.7-1.16,11.41-2,17.08a2.51,2.51,0,0,0-1.22.12c-3.88.18-7.73-.15-11.63.22s-7.34,1.41-11.07,1.9a2.3,2.3,0,0,0-.28.06,2.26,2.26,0,0,0-.45-.1c-.77-.62-1.35-1.46-2.08-2.15a15.26,15.26,0,0,0-4.34-3c-3.67-1.53-7.5-.08-11.19.47a1.93,1.93,0,0,0-1.76,1.58,2.54,2.54,0,0,0-1.14,2.65c.62,3.47-.17,6.56-1.19,9.88-.5,1.63-.71,5.34-2,6.35a2,2,0,0,0-.63,2.54,2.56,2.56,0,0,0,.24,1.15c3.1,6.77,13.12,4.05,18.32,2.31,7.68-2.58,16.08-2.61,24.13-2.56h.26c3.22,0,3.22-5,0-5-6.45,0-13.21-.05-19.6,1-3.63.62-14.46,6.1-18.05,2.74,1.36-2.22,1.65-5.61,2.32-7.86a25.36,25.36,0,0,0,1.23-10.13,22.26,22.26,0,0,1,5.46-.76c2.08.1,3.55,1.27,5,2.74s3.12,3.62,5.19,3.05a2.46,2.46,0,0,0,.54,0c3.73-.49,7.31-1.49,11.07-1.9,4-.42,7.91,0,11.88-.24-1.39,6.38-1.2,13.12-1.57,19.6-.23,4-.08,8-.13,12,0,3.39-.49,6.84,1.39,9.86,3.42,5.5,11.52,6.15,17,3.89,4.18-1.72,7.9-4.16,11.82-6.31,3.27-1.79,7.22-3,10.25-5.15,2.61-1.84.11-6.18-2.53-4.32s-5.94,3-8.72,4.48c-4,2.06-7.71,4.39-11.8,6.24-3.34,1.52-9.25,2.33-11.71-1.36-2-2.95-.71-9.11-.71-12.53,0-14.86,2.44-29.2,4.09-43.87.83-7.47,2.6-14.8,3.74-22.2,1.33-8.76-1.88-17.59.74-26.25a13.22,13.22,0,0,1,7.1-8.61c6.26-2.8,10.56,3.29,11.66,8.46.55,2.61,1.26,7.23,3.23,9.6-.82,1.35-2.15,2.22-3.52,3.67a17.52,17.52,0,0,0-3.9,7.42c-2.14,6.92-2.43,14.81-2.48,22a120.73,120.73,0,0,0,1.61,18.7c.55,3.62,1.58,7.13,2.06,10.75.34,2.66.06,5.46,1.45,7.83,1.63,2.77,5.95.25,4.32-2.53-1-1.65-.62-4.72-.95-6.63-.21-1.2-.47-2.38-.73-3.56,4.62-3.11,7.5-6.83,10.75-11.51,1.66-2.39,3-5,4.63-7.44,1.52-2.26,3.39-4.29,4.45-6.82,1.24-3-3.59-4.26-4.82-1.33-.85,2-2.7,3.8-3.94,5.63-1.53,2.24-2.84,4.63-4.34,6.89a37.68,37.68,0,0,1-7.76,9.16.51.51,0,0,1,0-.13c-.8-6.6-1.8-13.3-1.71-20,.1-6.34.17-14.27,2.45-20.48,3.43.42,7,.25,10.05-1.62,1.67-1,3.2-2.57,5.08-3.23,1.71-.6,3.47-.2,5.22.19,0,.88,0,1.76.12,2.64a2.54,2.54,0,0,0,4.27,1.76l.23-.18a2,2,0,0,0,.43-2.88c-.09-2.56.22-5.13,0-7.69a63.34,63.34,0,0,0-1.84-9.23c-1.3-5.07-2.54-11.07-5.5-15.51,2.86-4.8,4.76-9.27.65-14.45-3.46-4.37-10.4-6.91-15.67-4.88C808.56,204.71,806,211,798.9,211A22,22,0,0,1,787,208.07c-3-1.62-6.77-3.07-8-6.59.29-8.31,6.06-15.19,11.44-21.06,3.93-4.29,8.58-8.83,14-11.23a45.08,45.08,0,0,1,9-3.19c3.38-.67,7,.19,10.34.93,5.66,1.25,9.91,4.47,14.69,7.59,9.6,6.25,15.24,17.5,18.59,28.13,1.72,5.48,2.93,11.15,5.11,16.48,1.8,4.41,4.53,7.9,7.12,11.8a2.6,2.6,0,0,0,2.86,1.52l.19,0A2.51,2.51,0,0,0,873.83,228.74ZM802.5,215.86c5.46-.78,8.06-5.42,12.5-8,3.72-2.14,7.84-.95,10.86,2,3.31,3.29.47,7.7-1.51,10.91h0a2.82,2.82,0,0,0-.35,1.06l0,.19a2,2,0,0,0,1.39,2.22c2.52,3.89,3.55,9,4.71,13.39a51.46,51.46,0,0,1,1.77,9c0,.38,0,.76,0,1.14-2.92-.52-5-1-8.15.73s-5.53,3.69-8.85,4a18.18,18.18,0,0,0,2.93-2.78A12.35,12.35,0,0,0,820,243a2.24,2.24,0,0,0-2.79-2.37c-.14-.28-.28-.55-.39-.83-1.19-3-1-6.41-2.41-9.4-2.39-5.08-8.17-9.17-14-8.3a15,15,0,0,0-9,5.28A37.49,37.49,0,0,1,787,213.9C791.69,216.14,797.46,216.58,802.5,215.86Z"/><path class="cls-1" d="M725.45,295.93h-.09a8.38,8.38,0,0,0-4.82.46,10.84,10.84,0,0,0-6.79,5.78c-2,4.68-1.27,9.94,3.14,12.45a2.35,2.35,0,0,0,.54.45,2.06,2.06,0,0,0,2.29.45c2.29-.85,2.95-3.81,3.71-5.93s1.86-4.23,2.65-6.37a10.61,10.61,0,0,0,1.13-2.23s.09-.23.14-.34l0,0,.25-.59a4.86,4.86,0,0,0,.33-1.6A2.51,2.51,0,0,0,725.45,295.93Zm-6.1,10.14c-.42,1.07-.76,2.21-1.15,3.32-.77-1.21-.59-3.11-.1-4.57a5.26,5.26,0,0,1,2.6-3.05,4.34,4.34,0,0,1,.68-.29C720.79,303,719.94,304.55,719.35,306.07Z"/></g></g></svg>