<svg xmlns="http://www.w3.org/2000/svg" viewBox="0 0 388.71 284.82"><title>text_travel</title><g id="Layer_2" data-name="Layer 2"><g id="_1" data-name="1"><path d="M28.83,53.38C23.39,55,18.22,56.92,13.06,58.82A22.34,22.34,0,0,1,6,59.91c-3.26-.27-6-2.17-6-5.71C0,52,1.63,49.3,3.54,47.67c1.63-1.9,4.08-2.72,6.52-3.53,23.12-7.08,46-15.78,69.09-21.76C109.61,14,140.89,7.42,171.62.62c1.64-.27,3.27-.82,4.9-.55,3.26.28,6,2.45,6,6.26-.27,2.45-1.9,6.26-3.53,7.07-3.81,2.45-7.89,3.27-11.7,4.35C150.41,21.56,133.55,25.1,117,29.18c-13.32,3-26.11,6.52-39.71,9.52,1.91,8.16-1.08,14.41-3,21.21-11.42,37-22,74.25-27.2,113.15-.81,6.25-1.9,12.24,2.45,18.49,3.27,4.63-.27,13.87-5.71,17.41a10,10,0,0,1-15-3.81,32.78,32.78,0,0,1-3.26-12.24c-1.36-14.41.81-28.55,3.26-42.7,4.62-28.56,10.61-57.12,21.22-84,2.72-6.8,5.71-13.33,8.16-20.13a3.84,3.84,0,0,1-.55-1.9C47.87,47.4,38.08,50.12,28.83,53.38Z"/><path d="M109.88,109.41c4.35-3.53,8.43-7.61,13.06-10.06,6.25-3.26,11.42-2.45,15.77,1.9,3.81,4.36,4.08,9.52,1.9,15.78a5.86,5.86,0,0,1-6.52,4.35c-2.45-.27-3.54-2.18-3.27-4.89a11.7,11.7,0,0,0,.27-4.36c-.54-3.53-2.72-4.35-6.52-2.17a32.65,32.65,0,0,0-6.8,5.71c-11.15,11.42-20.4,25.84-20.4,41.07,0,5.44-3.27,10.34-8.43,11.42-4.63,1.09-8.71-1.63-9.25-7.07-1.36-9.79.27-46,9.25-62.28a10.63,10.63,0,0,1,9.79-5.44c3.81.54,6,3,5.44,7.88-.27,4.63-1.09,9.25-1.91,15.51C105.8,113.22,107.7,111.05,109.88,109.41Z"/><path d="M167,151c-3.26,3-6.8,6.53-10.33,8.43-6.53,3.81-12.78,1.09-15-6a17.48,17.48,0,0,1-.82-7.35c2.72-16,9.52-29.92,23.39-39.44,9-6.25,18-7.07,27.48-1.36,5.44,3.27,7.07,5.44,6,12-.82,5.71-2.18,11.42-3,17.41-1.64,10.88-3.54,24.75,8.43,12.78,10.06-11.42,9.52-11.42,19.31-22.3,1.36-1.36,3.26-3.27,4.9-3.81a6.23,6.23,0,0,1,5.71,1.91c1.09.81.54,3.26.27,4.89a6.25,6.25,0,0,1-1.9,2.72c-9,11.15-8.44,10.34-18,21.22a61.83,61.83,0,0,1-10.6,10.06c-18.77,12.51-26.66-4.08-25.84-23.12C173.52,143.68,170.26,147.49,167,151Zm14.42-37c-12.51-1.63-25,13.32-27.47,33.18C161.28,141.78,179,120.57,181.41,114Z"/><path d="M275.51,95c6.8-6.8,15,1.9,9.25,8.16-13.87,15.23-17.95,25.29-26.65,44.06-2.45,4.08-4.63,8.7-7.35,12.24-5.16,7.07-13.87,7.07-18.76-.55-9-12.78-10.34-27.47-9.8-42.7a6.49,6.49,0,0,1,6.26-6c3.54,0,5.71,2.72,6.26,6q1.62,13.07,4.08,25.3c1.36,6.53,3.8,6,7.61-2.72C257.29,118.66,260.55,110,275.51,95Z"/><path d="M310.05,147.22c14.69-4.9,22.85-12,33.73-21.49,9.25-8.7,14.14-.27,8.16,7.35-10.33,13-37.53,31.28-55.21,30.46-16.87-1.63-25.57-14.42-21-30.46a43.46,43.46,0,0,1,9-16.32c7.62-9,27.2-23.39,37.53-12.51,12.52,12.51-16,40.25-31,34.27C289.38,152.66,300.54,150.48,310.05,147.22Zm-12.78-19.58c6.53-1.64,12-5.17,15.5-14.42C304.62,116.76,299.72,121.11,297.27,127.64Z"/><path d="M387.84,129.54c-2.45,5.44-18.5,28-22.58,33.18-3.26,3.54-7.07,6.26-12,5.17-15.78-3-10.34-35.9-9.52-45.69,1.9-24.21,9.79-69.63,17.4-87.31,1.91-4.62,5.72-6.26,9.52-5.44,3.81,1.09,5.72,3.81,5.17,9-5.71,31-11.15,60.93-13.6,90.58-.81,10.88-.27,22.57,6.8,11.42,3.27-5.17,7.62-10.34,8.71-12a32.87,32.87,0,0,1,4.08-5.16C385.39,119.2,390.83,122.74,387.84,129.54Z"/><path d="M20.1,281.6c-1.09,1.46-2.52,1.82-5.69,1.85l-1.59-3.61a23.92,23.92,0,0,0,2.85.31,1.79,1.79,0,0,0,1.77-.79c1.09-1.45,1.82-5.93,1.93-10.08H13.63a26,26,0,0,1-2.69,7.51,18.33,18.33,0,0,1-6.69,6.88l-2.83-2.24a16.26,16.26,0,0,0,6.47-6,18.33,18.33,0,0,0,2.27-6.11H2.49V266.2h8.12a48.2,48.2,0,0,0,.14-5.54l3.3.28c.76.06.78.19.78.36s0,.17-.3.42-.26.28-.26.67a36.18,36.18,0,0,1-.19,3.81h8.79C22.7,275.13,21.19,280.12,20.1,281.6Z"/><path d="M40.73,270.09c-.81,7.45-2.91,10.48-9,14l-2.85-2.77c5.35-2.58,7.53-5,8.37-11.26H27.13v-3.24H37.51a40.92,40.92,0,0,0-.25-6.25l3.75.45c.4.06.84.14.84.42s-.67.64-.78.81-.06.23-.06,1.37c0,.06,0,1.74,0,3.2h8.45v3.24Z"/><path d="M70.78,268.22a29.54,29.54,0,0,1-3.39,6.72c.59.5,1.18,1,2.32,2.15l-2.07,2.41a16.57,16.57,0,0,0-2.15-2A28,28,0,0,1,56.55,284L54,281.38a21.35,21.35,0,0,0,9.19-6,33.66,33.66,0,0,0-4.73-3l1.68-2.12a28.89,28.89,0,0,1,4.9,2.77,15.94,15.94,0,0,0,2.46-5.21H60.45a26.85,26.85,0,0,1-5.18,5.66l-2.55-2a22.94,22.94,0,0,0,7.89-10.92l3.17.95c.19.05.56.19.56.42s-.11.19-.56.39c-.14.06-.14.11-.34.5A22.73,22.73,0,0,1,62.21,265h6.41c.37,0,.93-.45,1.26-.68L72,266.76A2.66,2.66,0,0,0,70.78,268.22Zm.08-4.34a11.06,11.06,0,0,0-2-2.61L70.3,260a12.81,12.81,0,0,1,2.1,2.66Zm3.61-1.12a15.33,15.33,0,0,0-2.21-2.94l1.43-1.15a13.6,13.6,0,0,1,2.3,2.94Z"/><path d="M100.15,284.4H97.83c-.87,0-2-.25-2-1.57v-7.3h-2l1.15.33c.17.06.45.14.45.39s0,.17-.45.62c-.08.08,0,.08-.17.53-1.14,5.27-3.52,6.81-4.45,7.39l-2.83-1.54a9.77,9.77,0,0,0,1.12-.72H82.43v1.73H79.74V273.51l-2.3-1.9a10,10,0,0,0,3.87-3.67H77.89v-2.33h2.49l-2.55-1.14a13.64,13.64,0,0,0,2.8-4.65l2.66.78c.14,0,.34.11.34.31s-.08.2-.28.28a.64.64,0,0,0-.45.5h7.25v2.41H85.93c-.2.76-.26.93-.45,1.51h4.84v2.33h-2.8l1.09.5c.14.09.42.25.42.45s-.14.22-.3.28a.64.64,0,0,0-.48.37,8.35,8.35,0,0,1-.56.69h2.6v2.19h-3.1v1.26h2.32v1.85H87.19v1.37h2.35v1.87H87.19v1.54h3V281a13.13,13.13,0,0,0,2-5.51H91v-14.7h11.23v14.7H98.86v5.12a.56.56,0,0,0,.56.62h.39c.42,0,.84-.17.84-1.66l2.47,1C102.67,284.4,101.38,284.4,100.15,284.4ZM81.59,264.1c-.34.53-.62,1-1,1.51h1.85a13.46,13.46,0,0,0,.44-1.51Zm3,8.32H82.43v1.26h2.21Zm0,3.11H82.43v1.37h2.21Zm0,3.24H82.43v1.54h2.21Zm-.14-10.83a13.86,13.86,0,0,1-1.57,2.29h1.9a6.81,6.81,0,0,0,1.43-2.29Zm14.89-4.54H93.82v1.49h5.57Zm0,3.73H93.82v1.59h5.57Zm0,4H93.82v1.71h5.57Z"/><path d="M126.5,284.21h-5.63c-1.48,0-2.27-.65-2.27-2V272.11h-4.79l2.66.53c.31.06.7.17.7.48s-.22.33-.61.53c-.2,4.26-1.68,8.2-8.07,11.14L105.55,282c6.3-2.19,7.65-4.82,7.65-9.89H106v-3.22h10.14v-8.65l3.47.08c.23,0,.76,0,.76.37,0,.11,0,.22-.23.42s-.28.33-.28.5v7.28H130v3.22h-8V280a1,1,0,0,0,1.09,1.06h2.75c1.09,0,1.23-1.26,1.31-2.82l2.94,1.62C129.35,283.11,129.1,284.21,126.5,284.21Zm-15.15-15.4a26.21,26.21,0,0,0-3.86-5.8l2.91-1.85a27.41,27.41,0,0,1,4.09,5.91Zm16-5.27c-.56.11-.65.25-.81.51a25.25,25.25,0,0,1-2.75,4.81l-3.27-1.65a39.3,39.3,0,0,0,3.33-6l3.3,1.32c.23.08.65.33.65.64S127.65,263.46,127.34,263.54Z"/><path d="M142.37,280.17a4.33,4.33,0,1,1-4.31-4.31A4.35,4.35,0,0,1,142.37,280.17Zm-7.3,0a3,3,0,1,0,3-3A3,3,0,0,0,135.07,280.17Z"/><path d="M169.93,283.79v-1h-8.85v1.37h-3.33v-7.25a50.11,50.11,0,0,1-5.55,2.66l-2.38-2.5a28,28,0,0,0,10.31-5.34,21.73,21.73,0,0,0-3.22-2.92,35.42,35.42,0,0,1-3.5,2.94l-2.58-2.21c4.9-3.33,6.61-5.65,8.62-10l2.64.81c.22.08.84.34.84.62a.31.31,0,0,1-.09.22c-.08.08-.67.2-.73.31s-.44.92-.53,1.09h6.61l1.65,1.82a32,32,0,0,1-6.83,8.76h10.25v10.62ZM160,265.25a16.88,16.88,0,0,1-1.23,1.6,23.6,23.6,0,0,1,3.53,2.85,20.06,20.06,0,0,0,3.14-4.45Zm9.92,10.58h-8.85v4.34h8.85Z"/><path d="M182.58,274.46c-.59,5.35-1.43,7.51-2.29,9.44l-3.31-.53c2.3-3.87,2.75-9.86,2.75-12.72v-5.18h9.63v9Zm19-11c-.16,0-.86-.23-1-.23s-1.49.34-1.77.39-2.94.56-5,.82c.06,1.7.09,3.08.09,3.55h7.95v2.89h-3.08v13.3H195.6v-13.3h-1.79c-.28,4.45-.53,8.87-5.63,13.44l-2.91-1.85c3.64-3,5.4-5.55,5.4-13.55,0-2-.11-3.42-.22-5.18h-12v-2.83h12.12v.81a8.61,8.61,0,0,0,1.24.08,29.25,29.25,0,0,0,8.17-1.84l1.77,2.91a.91.91,0,0,1,.11.36C201.82,263.46,201.73,263.49,201.59,263.49Zm-15.06,4.62h-3.67c0,2,0,2.21-.05,3.69h3.72Z"/><path d="M220.07,280.54a4.34,4.34,0,0,1-4.2,2.15,17.91,17.91,0,0,1-2.4-.16l-.4-3.39a8,8,0,0,0,2.52.45,1.72,1.72,0,0,0,1.68-.7,16.48,16.48,0,0,0,1.71-7c0-1.48-.31-2.37-2.32-2.37a11,11,0,0,0-1.6.13,46.36,46.36,0,0,1-5.79,13.05l-3.2-1.43a29.19,29.19,0,0,0,5.55-10.94,34.81,34.81,0,0,0-4,1.2l-1.12-3.39c2-.16,4.62-.64,5.85-.84a28.73,28.73,0,0,0,.62-5.6l3.42.48c.22,0,.78.19.78.45s-.06.19-.36.39c-.51.31-.56.33-.59.61-.14,1-.34,2-.53,3.06a12.2,12.2,0,0,1,2.21-.23c3.81,0,4.11,3.11,4.11,4.82C222,273.62,221.56,278,220.07,280.54Zm5.07-5.41-1.9-2.88c1.2-.11,1.85-.17,1.85-.84,0-.87-1.57-3.67-3.11-5.43l2.32-1.68c3.67,3.92,4.37,7.22,4.37,8.23C228.67,274.13,226.93,274.8,225.14,275.13Z"/><path d="M237,284l-1.49-3.44a28.42,28.42,0,0,0,3.5.31c5.21,0,7.59-2.72,7.59-5.29,0-1.8-1.43-2.94-3.53-2.94-1.93,0-4.76,1.12-7.64,4.48L233,275.78a54.8,54.8,0,0,1,2.19-10.7l3.22,1.26a35.29,35.29,0,0,0-1.68,6.16,10.8,10.8,0,0,1,6.88-2.83,6.05,6.05,0,0,1,6.22,6.14C249.81,283.7,240.46,283.87,237,284Zm6.24-17.69a26.26,26.26,0,0,0-6.47-3.05l1.21-2.78a33.55,33.55,0,0,1,6.69,2.89Z"/><path d="M264.37,269.76a.67.67,0,0,0-.42.36c0,.17-.39,2.05-.48,2.41A22.75,22.75,0,0,1,256,284.46l-3-2.33a17.71,17.71,0,0,0,7.42-14l3.61.73c.2,0,.65.2.65.5S264.59,269.62,264.37,269.76Zm9.86-.34v-3.64H257.29v3.67H254V263h10V260.1l3.39,0c1.12,0,1.12.28,1.12.45s-.14.37-.48.51-.33.22-.33.36V263h9.91v6.41Zm.19,15.4a17.46,17.46,0,0,1-5.12-6.75,24.59,24.59,0,0,1-1.77-7.36h-1.37v-2.94H271c-.06,6,2.43,11.4,6.83,14.42Z"/><path d="M295.51,272.87a8.5,8.5,0,0,1-.51,1h10.19c0,2.86-.56,7-1.54,8.52-.84,1.31-2.21,1.7-4.45,1.73l-1.12-2.74a17.8,17.8,0,0,1-3.44,2.94l-2.1-1.4a18.49,18.49,0,0,0,6.38-6.72h-1.4a15.19,15.19,0,0,1-2.74,3.67,28.22,28.22,0,0,1-4.4,3.47l-2.18-1.54a17.25,17.25,0,0,0,6.66-5.6h-1.29a20.57,20.57,0,0,1-3.75,3.55l-2.21-1.48a16.44,16.44,0,0,0,2.46-1.85c-1.9.73-5,1.77-5.79,2-1,.25-1.15.28-1.32.48s-.39.45-.53.45a.24.24,0,0,1-.2-.2l-.5-3.14c.9-.16,2.13-.47,3.11-.72v-6.53h-2.72v-2.88h2.72v-5.57l3.25.25c.16,0,.36.11.36.31s-.14.3-.31.44-.36.23-.36.42v4.15h2.91v2.88h-2.91v5.71c1-.28,1.9-.56,2.83-.89v2.32a10.75,10.75,0,0,0,2-3H290V270.6h15.54v2.27Zm-3.45-3.33v-8.83h11.37v8.83Zm8.65-6.47h-5.93v1.17h5.93Zm0,3.16h-5.93v1.2h5.93Zm.84,10a16,16,0,0,1-3.22,4.9,7.53,7.53,0,0,0,1.52.17,1.41,1.41,0,0,0,1.48-.79,10.69,10.69,0,0,0,.9-4.28Z"/><path d="M326.19,282.22a21,21,0,0,0-5.12-2.77c-.11,2.85-.78,4-4.37,4-3.86,0-6.27-1.37-6.27-3.64,0-.81.28-4.06,6.58-3.83l.78,0-.05-2.68c-.51,0-2.05.08-2.86.08-2.57,0-3.86-.92-3.86-2,0-1.37,1.9-2.68,3-3.47l1.6,1.37c-.5.37-.92.68-.92,1s.58.39,1.06.39c.92,0,1.29,0,1.93-.05l-.05-3.5c-3.22.14-4.82.25-7.23.53l0-3c3.19,0,4.7-.05,7.19-.11l-.08-3.72,3.41.33c.54.06.7.14.7.34s-.05.14-.36.39a.9.9,0,0,0-.36.51s0,.56-.06,2c3.58-.17,4.54-.22,7.17-.42l-.11,3c-3.11,0-5.72.06-7.12.08v3.31c2.44-.31,3.48-.48,6-.95v3.05c-1.2.19-2.69.45-6,.7.06,1.4.06,1.68.14,3.33a23.36,23.36,0,0,1,7.08,3.16Zm-9.68-3.67c-1.82,0-2.72.48-2.72,1.2,0,1,1.79,1,2.13,1,1.82,0,1.93-.51,1.9-2.08A7.93,7.93,0,0,0,316.51,278.55Z"/><path d="M344.65,268.5c-2.08,2.07-3.42,4.59-3.42,6.72a4.43,4.43,0,0,0,2,3.64,8.83,8.83,0,0,0,4.92,1.43l-1.09,3.41a12.56,12.56,0,0,1-6.89-3.11,7,7,0,0,1-2.07-5A10.16,10.16,0,0,1,340,270a20.58,20.58,0,0,1,3.69-4.25c-3.75.31-7.87.64-10.67,1l-.47-3.13c6.05.05,14.73-.62,20-2.24v3.24C351.28,264.72,348.2,264.91,344.65,268.5Zm5.85,4.79a12.54,12.54,0,0,0-2.3-2.16l1.15-1.34a12.21,12.21,0,0,1,2.32,2.15Zm2.27-2.55a12.8,12.8,0,0,0-2.33-2.13l1.18-1.34a12.93,12.93,0,0,1,2.32,2.12Z"/><path d="M365.31,280.17a4.33,4.33,0,1,1-4.31-4.31A4.35,4.35,0,0,1,365.31,280.17Zm-7.31,0a3,3,0,1,0,3-3A3,3,0,0,0,358,280.17Z"/></g></g></svg>