<svg xmlns="http://www.w3.org/2000/svg" viewBox="0 0 696.55 320.39"><title>text_hangout</title><g id="Layer_2" data-name="Layer 2"><g id="_1" data-name="1"><path d="M154.29,111c.82-4.63,1.36-8.43,2.18-11.7,3.53-16.59,6.8-32.91,10.6-49,.55-3.8,2.72-6.79,4.63-9.79,2.17-3.26,5.71-4.08,8.7-2.17,3,1.63,3.54,4.89,3.27,8.16-3.27,22-6.26,43.79-9.52,66.09a464.75,464.75,0,0,0-6,72.89c0,6,1.36,12.24,2.45,18.23,1.09,6.25.27,10.06-3.54,12.23-4.07,2.18-9.51,1.36-12-3.53a47.11,47.11,0,0,1-5.44-16.86A143.77,143.77,0,0,1,148.58,167c.82-13.06,2.45-26.39,3.81-39.44-32.91,4.08-64.74,7.61-96.83,11.15-.27,4.62-1.09,8.7-1.09,12.78q0,18.78.82,37.54A34.09,34.09,0,0,0,58,199.37c2.72,6.26,2.17,12.51-2.18,16.59-4.08,4.36-10.61,5.17-14.69.55a27.33,27.33,0,0,1-6.52-12.78,305.26,305.26,0,0,1-3.27-35.36c-.54-8.71,0-17.68,0-27.2a67.51,67.51,0,0,0-7.07-.55c-5.71-.54-11.69-.54-17.13-1.63C2,138.18-.47,134.1.07,129.47c.82-4.89,4.9-7.07,10.61-6.53,6.8.82,13.6,1.09,21.22,1.64.54-5.17.81-9,1.09-13.06,2.44-31.28,6.52-61.74,14.41-91.66A90.69,90.69,0,0,1,52.57,5.45C54.74,1.37,58.28-.81,62.36.28s6.53,5.17,6.53,10.88c-.27,4.08-1.63,8.16-2.18,12.24-3.53,28.83-7.07,57.93-10.33,87-.55,3.54-.55,6.8-.82,12.51C89,119.14,121.38,115.06,154.29,111Z"/><path d="M205.15,156.4c-3.27,3-6.8,6.53-10.34,8.43-6.53,3.81-12.78,1.09-15-6a17.63,17.63,0,0,1-.81-7.35c2.72-16,9.52-29.91,23.39-39.43,9-6.26,17.95-7.08,27.47-1.37,5.44,3.27,7.07,5.45,6,12-.81,5.71-2.17,11.43-3,17.41-1.63,10.88-3.53,24.75,8.43,12.78,10.07-11.42,9.52-11.42,19.31-22.3,1.36-1.36,3.27-3.26,4.9-3.81a6.25,6.25,0,0,1,5.71,1.91c1.09.81.55,3.26.27,4.89a6.12,6.12,0,0,1-1.9,2.72c-9,11.15-8.43,10.34-18,21.22a61.49,61.49,0,0,1-10.61,10.06c-18.77,12.51-26.65-4.08-25.84-23.12C211.68,149.06,208.41,152.86,205.15,156.4Zm14.41-37c-12.51-1.63-25,13.33-27.47,33.18C199.44,147.15,217.12,125.94,219.56,119.41Z"/><path d="M320.47,125.12c1.63,10.06-1.09,33.73,4.08,34.82,1.09,0,2.45-1.09,3.81-2.45,8.7-8.71,20.67-26.93,22.84-29.11,3.27-3.26,7.07,2.72,6.53,6-1.36,8.7-21.21,31.82-30.46,35.63-6.8,2.45-13.87.27-16.87-8.7-1.9-5.72-1.9-12.79-2.72-19-.27-3.27-.27-6.53-.54-11.16-12,10.88-15,24.48-25.29,35.64-6,4.89-15,5.16-19.32-1.64-2.72-4.35-2.72-10.6-3-16,0-13.33,1.36-27.2,5.71-40.26a31.81,31.81,0,0,1,1.64-4.08c2.17-5.17,6-7.34,9.79-5.71,3.53.82,6.8,4.9,4.89,10.61-5.16,16.59-7.88,36.17-4.35,41.07,4.35,3.26,15.78-26.11,25-31.83C309.59,113.43,318.84,115.6,320.47,125.12Z"/><path d="M344.13,156.4c-2.72-19,10.06-45.7,27.2-54.67a31.65,31.65,0,0,1,14.14-3.26c7.62.27,13.87,6.52,13.6,13.6a11.68,11.68,0,0,1-3.54,6.79c-2.44,1.64-5.44.28-7.07-2.44a21.41,21.41,0,0,1-2.17-3c-13.6,2.17-32.64,35.9-23.94,43.79,9.79-1.91,20.13-13.33,25-21.76a13.71,13.71,0,0,1,5.72-5.44c6.8-3.54,13.6,1.08,13.87,9,0,7.35-.55,14.69-1.09,22-3,26.66-10.88,51.68-20.13,76.43a32.76,32.76,0,0,1-5.71,9.79,23.58,23.58,0,0,1-8.7,5.44,9.46,9.46,0,0,1-10.34-3c-2.72-3.54-1.63-6.8-.27-10.61,9.25-23.39,20.13-58.75,25-84.86C369.69,166.74,348.48,178.43,344.13,156.4Z"/><path d="M439.86,79.43c1.91-3.81,1.91-7.07,1.36-11.15C437.14,37,460,9,491.27,5.72c19.58-2.18,35.36,8.7,41.61,28.83a89.94,89.94,0,0,1,3.54,32.91c-2.45,45.69-16.86,86.76-43.79,123.75-6.53,9-14.14,16.87-24.48,22-14.14,6.8-27.74,4.08-37-8.43-11.7-15.77-12.78-33.45-12.24-51.95C419.74,126.75,425.72,102,439.86,79.43Zm9.79,20.94a158.54,158.54,0,0,0-9.24,71.26,69.63,69.63,0,0,0,6.25,20.67c3.54,7.89,9.25,9.25,15.78,4.08a112.08,112.08,0,0,0,18.22-17.68c16.59-21.48,27.2-46.24,34-72.35,4.08-15.23,6.8-30.73,6-46.78-.54-8.7-1.36-17.13-5.16-25.29-5.17-10.34-12.24-15-23.67-13.6-15.23,1.63-30.19,14.41-33.72,29.1-.82,3.26-.82,6.26-1.36,10.06,3.26-.27,5.44-.54,7.88-.54a10.14,10.14,0,0,1,9.8,11.42c-.28,4.9-2.45,6-10.34,4.63-4.08,4.89-4.08,4.89-2.18,9,4.08,7.07,9,13.06,16.05,17.41,4.63,2.18,9,3.26,13.87.82a6,6,0,0,1,3-1.36c3-.82,5.72-.55,7.62,2.72,1.63,2.72.27,5.16-1.9,7.07A22,22,0,0,1,485,116.69a33,33,0,0,1-19.85-7.34c-4.35-3.81-8.43-7.89-13.6-12.52C450.74,98.47,449.93,99.28,449.65,100.37Z"/><path d="M572,149.6c-5.17,6.26-10.88,11.7-18.49,14.69-4.9,2.17-9.25,1.9-12.51,0-12.52-7.62-3.27-36.45,2.44-43.25,6.53-7.89,20.67.27,14.15,8.16-3.27,4.08-6.8,17.14-7.07,22.85,3.26,4.35,21.75-19.59,28.83-28.56a45.46,45.46,0,0,1,4.35-5.71c4.35-4.08,15.77-2.45,16.32,3.26s-9.25,44.33,4.08,31c6.25-6.26,11.69-12.79,17.4-19.59,8.16-9.52,16.05-2.72,8.16,6-11.69,14.69-24.2,31.82-35.63,31-9.79-.81-14.41-11.42-13.87-30.19C576.67,143.89,574.49,147.15,572,149.6Z"/><path d="M682.46,63.65A41,41,0,0,1,690.35,62c3-.27,5.44,1.09,6,4.08.81,3-.82,5.17-3.54,6.53-3.81,1.08-7.62,2.17-11.15,3-7.35,1.63-17.41,4.08-25,5.44-4.08.81-6,2.72-6.53,6.8-5.17,28.56-7.35,57.66-5.17,86.22.54,4.35,1.09,8.7,4.08,12.51,4.62,5.71,3,12.78-4.9,13.06-7.07.54-12.51-3-15.23-9.52a67.09,67.09,0,0,1-4.62-19c-2.45-21.76.27-43,2.45-64.46.81-5.17,1.36-10.88,2.17-16.87-2.72.55-4.62.82-6.8,1.36-4.08,1.36-8.43,3-12.78,4.63-6.8,2.72-10.61,2.72-11.7-.82-1.63-3,.82-5.71,8.44-8.7a107.44,107.44,0,0,1,17.67-6.8c6-1.64,9.25-4.63,10.61-11.43,1.91-7.61,7.07-23.66,17.41-20.12,4.35,1.63,4.08,6.25,3.26,12.51-.27,3-.81,5.71-1.36,9.52C663.15,68,673.49,65.28,682.46,63.65Z"/><path d="M3.1,312.16a80,80,0,0,1,7-4.29l0-3.61a26.8,26.8,0,0,1-4.26.14l-.42-3.16a23.58,23.58,0,0,0,2.75.14c.7,0,1.12,0,1.93-.09,0-3.16,0-3.41-.06-5.23l3.11.42c.78.11.78.31.78.45s-.42.44-.47.53-.2,2.91-.23,3.44a18,18,0,0,0,4.32-1.45v3.19a24.46,24.46,0,0,1-4.37,1.2l0,2.77a15.65,15.65,0,0,1,4.31-.64c4.34,0,6.75,2.88,6.75,6.38s-2.24,6.16-5.24,6.16-3.47-1.93-3.86-4l2.6-1c.34,1.15.56,1.88,1.43,1.88s2.16-1,2.16-3a3.67,3.67,0,0,0-3.89-3.72,12.39,12.39,0,0,0-4.26,1c0,4.45,0,4.95-.06,8.37l-3,1.17c-1.21-1.28-1.91-2-4.46-4.73-.39.37-.44.39-.84.81Zm7-1a25.63,25.63,0,0,0-2.55,1.71,22.61,22.61,0,0,0,2.55,2.63Zm14.39-5A16.24,16.24,0,0,0,19,303l1.82-2.46a20.64,20.64,0,0,1,5.52,3.16Z"/><path d="M41.57,303.87c-2.07,2.07-3.42,4.59-3.42,6.72a4.43,4.43,0,0,0,2,3.64,8.84,8.84,0,0,0,4.93,1.43L44,319.07a12.56,12.56,0,0,1-6.88-3.1,7,7,0,0,1-2.08-5A10.16,10.16,0,0,1,37,305.35a20.58,20.58,0,0,1,3.69-4.25c-3.75.31-7.86.64-10.66,1L29.5,299c6,.05,14.73-.62,20-2.24V300C48.2,300.09,45.12,300.29,41.57,303.87Zm5.85,4.79a12.22,12.22,0,0,0-2.3-2.16l1.15-1.34a12.3,12.3,0,0,1,2.33,2.15Zm2.27-2.55A12.8,12.8,0,0,0,47.36,304l1.18-1.34a12.26,12.26,0,0,1,2.32,2.13Z"/><path d="M67.86,315.91a4.36,4.36,0,0,1-4.2,2.16,18.1,18.1,0,0,1-2.41-.17l-.39-3.39a7.75,7.75,0,0,0,2.52.45,1.72,1.72,0,0,0,1.68-.7,16.62,16.62,0,0,0,1.71-7c0-1.49-.31-2.38-2.33-2.38a9.77,9.77,0,0,0-1.59.14,46.33,46.33,0,0,1-5.8,13l-3.19-1.42a29.46,29.46,0,0,0,5.54-10.95,34.08,34.08,0,0,0-4,1.2l-1.12-3.39c2-.16,4.62-.64,5.85-.84a28.73,28.73,0,0,0,.62-5.6l3.41.48c.23,0,.79.2.79.45s-.06.19-.37.39c-.5.31-.56.34-.59.62-.14,1-.33,2-.53,3.05a13.4,13.4,0,0,1,2.21-.23c3.81,0,4.12,3.11,4.12,4.82C69.82,309,69.34,313.33,67.86,315.91Zm5.07-5.4L71,307.62c1.21-.11,1.85-.17,1.85-.84,0-.87-1.57-3.67-3.11-5.43l2.33-1.68c3.67,3.92,4.37,7.22,4.37,8.23C76.46,309.5,74.72,310.17,72.93,310.51Z"/><path d="M85.33,317.53l-2.69.42c-.75-1.73-2.24-5.06-2.24-11.92a50.71,50.71,0,0,1,1.12-9.94l2.83.81c.09,0,.81.22.81.5,0,.11-.08.17-.44.45-.59.48-1.35,5.18-1.35,9a20.91,20.91,0,0,0,.56,5.29c.39-1,.56-1.43,1.12-2.69l2.1,1.46A26,26,0,0,0,85.33,317.53Zm12.29-12.74c0,.84,0,1.21,0,1.68,0,7.09-2.18,10.45-3.75,12.86l-3.16-1.63A15.52,15.52,0,0,0,93.48,313a14.06,14.06,0,0,0,1-6.14v-1.48a39,39,0,0,1-5.8.42l-.64-3.22c.89.06,1.28.06,1.79.06a35.32,35.32,0,0,0,4.51-.31,49.33,49.33,0,0,0-.82-6.05l3.28.11c.25,0,.73,0,.73.34,0,.11-.17.31-.25.42s-.26.36-.26.5a8.55,8.55,0,0,0,.09.87c0,.11.14,1.76.25,3.16a25.3,25.3,0,0,0,3.81-1.34l.11,3.22A30,30,0,0,1,97.62,304.79Z"/><path d="M113,315.55a4.33,4.33,0,1,1-4.31-4.32A4.36,4.36,0,0,1,113,315.55Zm-7.3,0a3,3,0,1,0,3-3A3,3,0,0,0,105.72,315.55Z"/><path d="M143.46,305.58a29.64,29.64,0,0,1-4.17-1.68v2.32H126.44v-2.35a24.71,24.71,0,0,1-3.92,2.1l-2.58-2.32c4.48-1.82,8.79-4.76,11.28-8.77l3.39.79c.11,0,.53.11.53.39s-.36.42-.56.47c2.1,2.75,5.94,5,10.59,6.11ZM135,320.39l-3.39-1.48a25.9,25.9,0,0,0,5.21-7.26H123.44v-3H139.9l1.63,1.17A41.38,41.38,0,0,1,135,320.39Zm-2.36-21.76a30,30,0,0,1-5.32,4.65h10.84A19.2,19.2,0,0,1,132.62,298.63Z"/><path d="M172.24,319.07c-4,0-7.92-.08-11.9-.14-4.5-.05-5.43-.53-7.42-3L150,318.32c0,.19-.11,1-.53,1-.23,0-.53-.79-.67-1.1l-1-2.35a19.58,19.58,0,0,0,3.92-2.46v-5.24h-3.13v-3h6.24v7.47c0,.28,0,.62.06.95,1.06-2.15,2-4.48,2-11.28,0-2.49-.09-4.28-.14-6.13h15v16.63c0,2.8-3,2.88-4.42,2.94l-1.23-2.72c1.65.09,2.85.14,2.85-1.26V298.72h-9.43c0,1.12-.09,3.5-.09,4.51,0,4.81-.59,8.42-2.07,11.59l-2.41-.87c.62,2.24,2.07,2.49,7,2.49a62.18,62.18,0,0,0,11.71-.89ZM153.4,301.29a34.19,34.19,0,0,0-4.62-3.47l2.07-2.6a41.75,41.75,0,0,1,4.73,3.5Zm9.44,11.32v.84h-2.38v-6.64h7.08v5.8Zm-2.33-6.75v-2.13h2.33v-1.18h-2.08v-2.1h2.08V299l2.91.16c.11,0,.25,0,.25.17s-.45.48-.59.59v.5h2.38v2.1h-2.38v1.18h2.49v2.13Zm4.65,3.05h-2.32v1.57h2.32Z"/><path d="M198.26,318.46a28.75,28.75,0,0,1-7.87-8.07v9.41h-3.47v-9.43a30.49,30.49,0,0,1-8,8.26l-3.14-2.24a25.75,25.75,0,0,0,9.24-8.26h-6v-3.28h8V302H176.61v-3.11h10.31v-3.39l3.19.17c.47,0,.81.14.81.45a.43.43,0,0,1-.25.36c-.25.17-.28.2-.28.28v2.13h10.44V302H190.39v2.88h8v3.28H192a20.8,20.8,0,0,0,9.52,7.89Z"/><path d="M209.48,318l-2.57.42a30.13,30.13,0,0,1-1.07-8.68,53.15,53.15,0,0,1,1.71-13.1l2.72,1.06c.08,0,.67.28.67.56a.26.26,0,0,1-.11.2c-.09,0-.45.19-.53.22a7.71,7.71,0,0,0-.62,1.9,71.62,71.62,0,0,0-1,8.68,27.49,27.49,0,0,0,.14,2.94l1.15-1.68,1.77,1.21A24.4,24.4,0,0,0,209.48,318Zm16.61-1a15.29,15.29,0,0,0-2.94-2.21c-.06,2.16-.62,3.61-4.43,3.61-.81,0-5.51,0-5.51-4,0-2.52,2.21-3.61,4.93-3.61.56,0,1.14.06,1.7.11-.22-3.33-.3-4.51-.36-6.41a30,30,0,0,1-5.07.22l0-2.88a15.06,15.06,0,0,0,2.52.17,23.14,23.14,0,0,0,2.61-.17c.05-2.1.05-2.41.11-5.18l3.14.5c.58.09.67.23.67.4s-.25.28-.53.44a31.53,31.53,0,0,0-.4,3.48,12.47,12.47,0,0,0,3.48-1.15v3a27.19,27.19,0,0,1-3.5.79,66.39,66.39,0,0,0,.39,7.5,22.42,22.42,0,0,1,4.81,2.63ZM218,313.25c-1.31,0-2.21.48-2.21,1.12s.81,1.23,2.47,1.23c1.84,0,1.79-.64,1.73-2.1A10,10,0,0,0,218,313.25Z"/><path d="M238.74,297.29a.73.73,0,0,0-.44.42,24.18,24.18,0,0,1-1.57,3.36c.53.48.53.48.53.7a.83.83,0,0,1-.25.48c-.09.11-.34.36-.34.61v16.63h-3V305.8a2,2,0,0,1-.37.48c-.08.11-.58.67-.7.78l-2.8-1.57a21.21,21.21,0,0,0,3.81-5,19.52,19.52,0,0,0,2.07-5l2.66.93c.56.19.76.33.76.53S238.91,297.21,238.74,297.29Zm3.06,15.46v1.84h-2.92V303h8.66v9.8Zm11.06-12.41v16.44c0,2.24-1.38,2.43-4.9,2.66l-1.35-3.25a12.81,12.81,0,0,0,1.77.2c1.17,0,1.42-.34,1.42-1v-15H239.11v-3h16.15v3Zm-8.21,5.49H241.8v4h2.85Z"/><path d="M271.7,317.23a10.12,10.12,0,0,1-5.57,1.79,6.25,6.25,0,0,1-4.09-1.43c-1.32-1.15-1.76-2.58-1.76-9.3,0-1.7.22-10,.14-11.9l3.72.54c.67.08.92.28.92.44s-.33.45-.78.82a107,107,0,0,0-.78,11.2c0,1.28,0,4,.53,4.95a2.67,2.67,0,0,0,2.46,1.18c1.57,0,5.32-1,8.07-6.36l2.74,2.27A21,21,0,0,1,271.7,317.23Z"/><path d="M297.69,317.73a23.12,23.12,0,0,0-5.8-3.42c.17,2.75-.7,4.37-5.26,4.37-5.1,0-6.64-2-6.64-3.95,0-2.43,2.44-4.36,6.52-4.36a14.77,14.77,0,0,1,2.05.14c-.2-6.5-.17-7.23-.17-12.13v-2l3.36.48c.14,0,.67.11.67.36s0,.14-.36.37c-.17.11-.31.19-.34.42s-.14,2.41-.14,3.39a7.64,7.64,0,0,0,1.18,0,13.91,13.91,0,0,0,5.68-.95v3.25a21.85,21.85,0,0,1-5.09.67c-.56,0-1.32,0-1.88-.08a67.93,67.93,0,0,0,.2,6.83,26,26,0,0,1,7.78,3.72Zm-11.54-4.65c-1.76,0-2.74.65-2.74,1.46,0,1.17,2.07,1.43,3,1.43,2.24,0,2.21-1.4,2.21-2.64A14.82,14.82,0,0,0,286.15,313.08Z"/><path d="M315.63,315.32a15.64,15.64,0,0,1-7.28,4.65l-2.15-2.69a13.24,13.24,0,0,0,7-4.2,8.6,8.6,0,0,0,2-5.35c0-2.46-1.65-3-2.52-3-2.32,0-6.83,2.24-8.87,3.24l-1.29-3.24c2.07-.82,7.42-2.94,11-2.94a5,5,0,0,1,3.73,1.54,6.07,6.07,0,0,1,1.2,4A12.54,12.54,0,0,1,315.63,315.32Zm-1.14-16a74.43,74.43,0,0,1-7.76-.7l-.25-3.44a33.63,33.63,0,0,0,8.4,1Z"/><path d="M326.58,312.05c0-2.92,1.09-3.9,2.83-5.41a3.91,3.91,0,0,0,1.76-3.19,2.74,2.74,0,0,0-2.88-2.88c-2.74,0-2.86,2.43-2.91,3.24h-4.12a7.08,7.08,0,0,1,1.12-4c1.57-2.38,4.4-2.69,5.8-2.69,3.86,0,7,2.18,7,6.05,0,2.43-1.15,3.83-3.11,5.26s-2.07,2.16-2.07,3.22v1.07h-3.39Zm3.7,2.35v3.86H326.5V314.4Z"/></g></g></svg>