<svg xmlns="http://www.w3.org/2000/svg" viewBox="0 0 426.61 298.59"><title>text_study</title><g id="Layer_2" data-name="Layer 2"><g id="_1" data-name="1"><path d="M69,190.35c24.48-4.08,46-15.23,63.1-34.27,4.35-4.62,7.89-10.61,10.61-16.05,5.71-12.51,2.45-22-9.52-27.19a78.33,78.33,0,0,0-25-7.35c-18.5-1.9-37.54-2.17-56-3.81a153.34,153.34,0,0,1-27.2-4.89C20.3,95.7,16,93,11.87,90,2.08,82.65-1.73,72,.72,59.25A50,50,0,0,1,10.78,37.5C36.62,7,68.72-5.75,107.34,2.41a52.08,52.08,0,0,1,16.32,7.34c5.71,4.08,7.89,10.07,6.8,17.41-.27,3.26-1.63,6-4.9,6.53-3.53.81-6-.82-7.07-4.08-1.9-5.44-5.71-7.35-10.61-8.43a72,72,0,0,0-33.18.54A87.7,87.7,0,0,0,29,48.1a55.1,55.1,0,0,0-8.43,13.33C17,69.05,19.22,75.3,26.83,79.38s16.32,5.17,25.3,6c15.23,1.36,31.27,1.9,46.78,3.53a188.42,188.42,0,0,1,28,5.17,69.74,69.74,0,0,1,19.31,9.25c12,8.16,16.05,21.48,12,35.9A66.41,66.41,0,0,1,146,162.07c-21.76,25-48.41,39.43-80.78,43A40.5,40.5,0,0,1,50,203.41c-12.24-3.54-16.59-13.6-10.61-25.3,2.72-6,7.35-11.69,12.24-16.32C63,150.64,77.69,146,92.65,141.94c4.08-.82,7.62,1.36,8.43,4.89,1.09,4.08-1.36,6.53-4.62,7.62a84.64,84.64,0,0,1-11.7,3.81C75,161.52,66,165.87,58.65,173.76c-3.53,3.81-6.8,7.62-7.34,14.42C57.29,192,63.55,191.44,69,190.35Z"/><path d="M228.91,51.91a40.27,40.27,0,0,1,7.89-1.63c3-.27,5.44,1.09,6,4.08.82,3-.81,5.17-3.53,6.53-3.81,1.08-7.62,2.17-11.15,3-7.35,1.63-17.41,4.08-25,5.44-4.08.81-6,2.72-6.52,6.8-5.17,28.56-7.35,57.66-5.17,86.22.54,4.35,1.09,8.7,4.08,12.51,4.62,5.71,3,12.78-4.9,13.05-7.07.55-12.51-3-15.23-9.52a66.94,66.94,0,0,1-4.62-19c-2.45-21.76.27-43,2.44-64.47C174,89.72,174.51,84,175.33,78c-2.72.55-4.62.82-6.8,1.36-4.08,1.36-8.43,3-12.78,4.62-6.8,2.73-10.61,2.73-11.7-.81-1.63-3,.82-5.71,8.43-8.7a107.89,107.89,0,0,1,17.68-6.8c6-1.64,9.25-4.63,10.61-11.43,1.9-7.61,7.07-23.66,17.41-20.12,4.35,1.63,4.08,6.25,3.26,12.51-.27,3-.81,5.71-1.36,9.52C209.6,56.26,219.94,53.54,228.91,51.91Z"/><path d="M242.51,137.86c-5.17,6.25-10.88,11.69-18.5,14.69-4.89,2.17-9.24,1.9-12.51,0C199,144.93,208.24,116.1,214,109.3c6.53-7.89,20.67.27,14.14,8.16-3.26,4.08-6.8,17.13-7.07,22.85,3.26,4.35,21.76-19.59,28.83-28.56A44.75,44.75,0,0,1,254.2,106c4.36-4.08,15.78-2.45,16.32,3.26s-9.24,44.33,4.08,31c6.26-6.26,11.7-12.79,17.41-19.59,8.16-9.52,16.05-2.72,8.16,6-11.7,14.68-24.21,31.82-35.63,31-9.79-.81-14.42-11.42-13.87-30.19C247.13,132.15,245,135.41,242.51,137.86Z"/><path d="M334.16,85.64c5.44-15.23,10.61-31,15.78-46.24.81-1.09,1.36-2.72,2.17-4.08a7.71,7.71,0,0,1,9-4.08,7.23,7.23,0,0,1,6,6.8,38.47,38.47,0,0,1-.27,11.15c-3.81,24.48-7.61,48.69-11.42,73.44-1.63,9.25-2.72,19-4.08,28.83a31.8,31.8,0,0,1-1.09,4.89c-1.36,4.9-4.62,7.35-9.25,7.08-4.35-.28-7.61-3-7.89-7.89-.81-5.44-.27-11.43,0-17.14a60.31,60.31,0,0,0,0-12.24,21.13,21.13,0,0,0-3,3.81c-4.89,6.53-9.52,13.33-14.68,19.58-2.18,2.72-5.72,4.9-9,6.8-7.89,3.81-15.5,0-17.95-8.7a18.63,18.63,0,0,1-.55-4.08c.82-17.68,7.62-32.64,23.4-41.89,4.89-3,11.42-3.26,18.76-5.16C331.17,93.8,332.8,89.72,334.16,85.64Zm-10.61,24.75c-11.69,1.09-22.3,17.68-20.67,32.91C313,135.68,322.74,120.72,323.55,110.39Z"/><path d="M408.41,99.51c1.36-4.35,3.81-6.8,7.89-7.62,6.25-1.63,8.7,4.9,9.52,12,4.35,32.1-9.52,95.74-34.27,121.58-4.63,4.9-10.61,8.7-16.32,8.43-9.25,0-12.51-9.79-6-15,15.23-12,29.64-53,30.46-73.16-8.43,12.51-25.84,19.31-32.37,7.61-5.71-10.06-3.81-31.55,0-41.61,1.63-4.63,5.17-6.8,9-6,3.53.55,5.71,3.54,5.71,8.44,0,7.07-.27,14.14-.27,21.21,0,20.67,11.42,8.16,15.77-1.09C402.43,124,405.69,109.3,408.41,99.51Z"/><path d="M26.7,284.12c-.89,1.71-3.27,1.71-4.34,1.68l-1.51-3.22a13.14,13.14,0,0,0,1.9.14c.79,0,1.15-.23,1.46-1.4a15.34,15.34,0,0,0,.34-3.7h-2.8c-.45,5.41-3.36,7.53-4.4,8.29l-2.21-1.71L13,285a10,10,0,0,0-.58-1.49c-.68.31-3.42,1.46-6,2.3a.8.8,0,0,0-.56.42c-.16.28-.22.31-.33.31s-.28-.12-.37-.42l-.75-2.69L5.67,283,5,274.63l2.46.28c1.12.14,3.92-.48,6.66-1.46l1.77,2.44a.93.93,0,0,1,.22.5.28.28,0,0,1-.25.31c-.14,0-.76-.23-.9-.23s-1.7.31-2,.37c-2.66.45-4,.59-4.67.64l.36,4.59c.87-.3,1.65-.58,2.61-.95a16.64,16.64,0,0,0-1.07-1.76l2.44-1.18a14.66,14.66,0,0,1,2.94,5.18c2-1.09,2.85-3.41,3-5.74H16.51v-2.74H27.85C27.88,277,27.93,281.71,26.7,284.12Zm-3.61,13.77v-.81H9.79v.9H6.65V286.27H26.2v11.62Zm-8.29-9.24h-5v1.82h5Zm0,4.12h-5v2h5Zm8.29-4.12H17.94v1.82h5.15Zm0,4.12H17.94v2h5.15Z"/><path d="M52.71,285.69v-3.36H36.11v3.5h-3v-6.11H47a22.11,22.11,0,0,0,3.42-5.26l2.77.92c.17.06.48.25.48.48a.17.17,0,0,1-.11.17c-.09.08-.7.22-.82.33a22.76,22.76,0,0,1-2.18,3.36h5.26v6Zm-6.55,6v4.23c0,2-1.62,2.43-3.33,2.43H41.07l-1.24-3c.34,0,1.91.16,2.24.16s.68-.42.68-.84v-3H33.09v-2.74h9.66v-1.74l1.34.22a5,5,0,0,0,1.06-1.17H37.68v-2.61H50.36l.79,1.24c-1.26,1.14-3.48,3-5,4.06h9.49v2.74Zm-8.79-12.18A17.06,17.06,0,0,0,35,275.75l2.58-1.57A17.35,17.35,0,0,1,40,277.79Zm6.36-.56a19.12,19.12,0,0,0-2.61-4l2.55-1.51a19,19,0,0,1,2.74,4.11Z"/><path d="M68.81,293.81a4.33,4.33,0,1,1-4.31-4.32A4.36,4.36,0,0,1,68.81,293.81Zm-7.3,0a3,3,0,1,0,3-3A3,3,0,0,0,61.51,293.81Z"/><path d="M98.8,298.29c-3.13-.82-8.06-2.75-10.27-7a9.75,9.75,0,0,1-3.81,4.23,18.59,18.59,0,0,1-6.5,2.6l-2.18-3a15.93,15.93,0,0,0,6.58-1.74c2.49-1.34,3-2.8,3.25-3.39H76.49v-2.71h3.22v-5.88h7.16c0-.56,0-.84,0-2l3,.08c.14,0,.61.06.61.37a.72.72,0,0,1-.22.36,1.14,1.14,0,0,0-.34.59v.56h7.28v5.88h3.31v2.71H91.21a6.94,6.94,0,0,0,3.67,3.62,15.75,15.75,0,0,0,6.13,1.59Zm-4.62-19.66v1.9H90.85v-1.9h-5v1.9H82.51v-1.9h-6V275.8h6v-2.18l3.27.17c.11,0,.67,0,.67.39,0,.11-.14.25-.22.33s-.34.28-.34.45v.84h5v-2.21l3.3.22c.4,0,.59.09.59.31s0,.25-.31.45c-.08.06-.25.2-.25.34v.89h6.3v2.83ZM83,284v3.33h3.44a30.09,30.09,0,0,0,.34-3.33Zm10.86,0H90c0,1.9-.16,2.77-.22,3.33H93.9Z"/><path d="M104.46,281v-2.57h9.1V281Zm5.91,17v-.73H107.9v.73h-2.8v-8.29h8v8.29Zm-4.62-13.27v-2.32h6.66v2.32Zm0,3.64v-2.35h6.69v2.35ZM106,277v-2.57h6.55V277Zm4.37,15.15H107.9v2.52h2.47Zm3.86-4.56v-2.77h2.16c.19-.48.75-2,1.12-3h-2.24v-2.63h3.16c.08-.28.59-1.71.7-2h-4.48v-2.68h13.41v2.68h-5.74c-.22.68-.47,1.35-.7,2h4.57v5.66h2.43v2.77ZM124.56,298v-.81h-6.1V298h-3v-9h12.21V298Zm0-6.38h-6.1v3h6.1Zm-1.48-9.75h-2.35c-.42,1.18-.65,1.85-1.1,3h3.45Z"/><path d="M140.89,293.81a4.33,4.33,0,1,1-4.32-4.32A4.36,4.36,0,0,1,140.89,293.81Zm-7.31,0a3,3,0,1,0,3-3A3,3,0,0,0,133.58,293.81Z"/><path d="M170.57,297.53a19.93,19.93,0,0,1-8.43-5.52v5.88h-3.42v-6.07a22.66,22.66,0,0,1-4.14,3.67,19.74,19.74,0,0,1-4.26,2.32L147.83,295a18.83,18.83,0,0,0,8.23-4.45h-7.53v-2.83h10.19v-1.32h-3.13V275.66h2.52a12.9,12.9,0,0,0,.7-1.76l3.19.25c.11,0,.61.06.61.34a.37.37,0,0,1-.14.25,4.51,4.51,0,0,0-.44.22c-.12.06-.34.59-.4.7h4v10.78h-3.5c.36.06.56.17.56.37s-.36.39-.53.42v.53h10.47v2.83h-8.12c1.71,1.56,3.67,3.05,8.62,4.25ZM151.05,286.3c-.45.2-.53.25-.64.48-.28.47-.28.47-.42.47s-.37-.25-.48-.47l-1.34-2.86a42.88,42.88,0,0,0,6.55-2.55l.47,2.83C153.37,285.18,152.34,285.69,151.05,286.3Zm1.88-5.79a21.22,21.22,0,0,0-4.15-3l1.65-2.58a31.32,31.32,0,0,1,4.51,2.94Zm9.82-2.52h-4.39v2h4.39Zm0,4.17h-4.39v2.1h4.39Zm9.66-4.76a.9.9,0,0,0-.72.28,37.68,37.68,0,0,1-3.34,3l-2.57-1.9a20.32,20.32,0,0,0,4.17-4l2.52,1.82c.17.11.39.3.39.53S172.72,277.37,172.41,277.4ZM171,286.89a31.25,31.25,0,0,0-5-3.36l1.79-2.46a37.62,37.62,0,0,1,5.29,3.36Z"/><path d="M189.13,295.49a10.12,10.12,0,0,1-5.57,1.79,6.25,6.25,0,0,1-4.09-1.43c-1.32-1.15-1.76-2.58-1.76-9.3,0-1.7.22-10,.14-11.9l3.72.54c.67.08.92.28.92.44s-.33.45-.78.82a107,107,0,0,0-.78,11.2c0,1.28,0,4,.53,5a2.67,2.67,0,0,0,2.46,1.18c1.57,0,5.32-1,8.07-6.36l2.74,2.27A21,21,0,0,1,189.13,295.49Z"/><path d="M211.05,276.42c-.33,0-.42.11-1.14.84s-3.31,3.22-6.19,5.91c-1.85,1.73-2,1.87-2,2.4a1.19,1.19,0,0,0,.48,1,57.64,57.64,0,0,1,9.46,9.36l-2.88,2.68a47,47,0,0,0-9.66-10.5,3.25,3.25,0,0,1-1.4-2.46c0-1.23,1-2.27,1.93-3.14a78.1,78.1,0,0,0,9-9.12l2.57,2c.06.06.59.48.59.76S211.7,276.33,211.05,276.42Z"/><path d="M235.75,285.69v-3.36h-16.6v3.5h-3v-6.11H230a22.11,22.11,0,0,0,3.42-5.26l2.77.92c.17.06.47.25.47.48a.16.16,0,0,1-.11.17c-.08.08-.7.22-.81.33a24.52,24.52,0,0,1-2.18,3.36h5.26v6Zm-6.55,6v4.23c0,2-1.63,2.43-3.33,2.43H224.1l-1.23-3c.34,0,1.91.16,2.24.16s.67-.42.67-.84v-3h-9.66v-2.74h9.66v-1.74l1.35.22a5.2,5.2,0,0,0,1.06-1.17h-7.47v-2.61H233.4l.78,1.24c-1.26,1.14-3.47,3-5,4.06h9.49v2.74Zm-8.79-12.18a17.06,17.06,0,0,0-2.41-3.72l2.57-1.57a17,17,0,0,1,2.5,3.61Zm6.35-.56a19.05,19.05,0,0,0-2.6-4l2.55-1.51a19.35,19.35,0,0,1,2.74,4.11Z"/><path d="M244.18,294.39l-1.48-3.24a20.57,20.57,0,0,0,6.77-4.71l1,2.8A31.82,31.82,0,0,1,244.18,294.39Zm9.88,2.27a20,20,0,0,1-3.5-.42l-.42-3.25a9.58,9.58,0,0,0,3.87.9c.7,0,2-.11,2-1.54s-1.26-2.83-2.66-4.31a5.66,5.66,0,0,1-2-3.89,5.23,5.23,0,0,1,1.52-3.34l2.49,1.85a3.05,3.05,0,0,0-.9,1.74c0,.59.37,1,1.93,2.66,2.44,2.66,3.11,4.25,3.11,5.77C259.52,296.27,255.74,296.66,254.06,296.66Zm3-16.38a25.31,25.31,0,0,0-6.16-3.67l1.51-2.07a28.48,28.48,0,0,1,6.41,3.31Zm7.14,12.32a20.59,20.59,0,0,0-5-6.55l1.76-2a23.53,23.53,0,0,1,5.6,6.38Zm-.65-10.3a13,13,0,0,0-2.46-2.27l1.17-1.37a17.24,17.24,0,0,1,2.47,2.27Zm2.19-2.66a15.87,15.87,0,0,0-2.5-2.27l1.18-1.34a13,13,0,0,1,2.46,2.26Z"/><path d="M278.28,293.81a4.33,4.33,0,1,1-4.31-4.32A4.36,4.36,0,0,1,278.28,293.81Zm-7.31,0a3,3,0,1,0,3-3A3,3,0,0,0,271,293.81Z"/></g></g></svg>