<svg xmlns="http://www.w3.org/2000/svg" viewBox="0 0 605.56 291.53"><title>text_interview</title><g id="Layer_2" data-name="Layer 2"><g id="_1" data-name="1"><path d="M59.3,25.38C39.45,41.7,25,63.18,15,88.48c-1.63,3.26-2.45,6.53-.54,10.61,1.9,4.62.27,7.88-4.08,9C5.18,109.69-.26,105.89,0,99.36S1.1,85.49,3.27,79.23C12,55.57,25.58,36,41.9,18.85A153.31,153.31,0,0,1,54.14,8.24a50.25,50.25,0,0,1,8.15-5.71C77-4.54,89,3.62,88.68,21.84c0,13.33-2.45,26.66-4.35,39.71-4.63,26.11-9.8,51.41-14.15,76.7a291.43,291.43,0,0,0-3,31,39.59,39.59,0,0,0,1.63,12.51c2.72,8.7-1.09,19.86-7.88,22.85-7.62,3.26-15.78-1.09-17.68-11.15a155.23,155.23,0,0,1-2.45-31.83,413.69,413.69,0,0,1,15-91.38C59.3,58,62.29,45.51,65.29,33.54c.81-3.81,1.63-7.89,3-14.15C63.93,22.11,61.21,23.47,59.3,25.38Z"/><path d="M152.59,116.77c1.63,10.06-1.09,33.72,4.08,34.81,1.09,0,2.45-1.09,3.81-2.45,8.7-8.7,20.67-26.92,22.85-29.1,3.26-3.26,7.07,2.72,6.52,6-1.36,8.71-21.21,31.83-30.46,35.63-6.8,2.45-13.87.28-16.86-8.7-1.91-5.71-1.91-12.78-2.72-19-.27-3.26-.27-6.53-.55-11.15-12,10.88-15,24.48-25.29,35.63-6,4.9-15,5.17-19.31-1.63-2.72-4.35-2.72-10.61-3-16.05,0-13.33,1.36-27.2,5.71-40.25A31.33,31.33,0,0,1,99,96.37c2.18-5.17,6-7.35,9.79-5.72,3.54.82,6.8,4.9,4.9,10.61-5.17,16.59-7.89,36.18-4.35,41.07,4.35,3.27,15.77-26.11,25-31.82C141.71,105.07,151,107.25,152.59,116.77Z"/><path d="M239.35,55.3a41,41,0,0,1,7.89-1.64c3-.27,5.44,1.09,6,4.08.82,3-.81,5.17-3.53,6.53-3.81,1.09-7.62,2.18-11.15,3-7.35,1.64-17.41,4.08-25,5.44-4.08.82-6,2.72-6.52,6.8-5.17,28.56-7.35,57.67-5.17,86.22.54,4.36,1.09,8.71,4.08,12.51,4.62,5.72,3,12.79-4.9,13.06-7.07.54-12.51-3-15.23-9.52a66.93,66.93,0,0,1-4.62-19c-2.45-21.76.27-43,2.44-64.46.82-5.17,1.36-10.88,2.18-16.86-2.72.54-4.62.81-6.8,1.36-4.08,1.36-8.43,3-12.78,4.62-6.8,2.72-10.61,2.72-11.7-.82-1.63-3,.82-5.71,8.43-8.7a107.89,107.89,0,0,1,17.68-6.8c6-1.63,9.25-4.62,10.61-11.42,1.9-7.62,7.07-23.66,17.41-20.13,4.35,1.63,4.08,6.26,3.26,12.51-.27,3-.81,5.71-1.36,9.52C220,59.65,230.38,56.93,239.35,55.3Z"/><path d="M250.23,144.24c14.69-4.9,22.85-12,33.73-21.49,9.24-8.7,14.14-.27,8.15,7.34-10.33,13.06-37.53,31.28-55.21,30.47C220,158.92,211.33,146.14,216,130.09a43.46,43.46,0,0,1,9-16.32c7.62-9,27.2-23.39,37.54-12.51,12.51,12.51-16.05,40.26-31,34.27C229.56,149.68,240.71,147.5,250.23,144.24Zm-12.78-19.59c6.52-1.63,12-5.16,15.5-14.41C244.79,113.77,239.89,118.13,237.45,124.65Z"/><path d="M313.05,106.43c4.36-3.54,8.44-7.62,13.06-10.06,6.25-3.27,11.42-2.45,15.77,1.9,3.81,4.35,4.08,9.52,1.91,15.78a5.87,5.87,0,0,1-6.53,4.35c-2.45-.27-3.53-2.18-3.26-4.9a11.85,11.85,0,0,0,.27-4.35c-.54-3.54-2.72-4.35-6.53-2.18a33.23,33.23,0,0,0-6.8,5.72c-11.15,11.42-20.4,25.83-20.4,41.07,0,5.44-3.26,10.33-8.43,11.42-4.62,1.09-8.7-1.63-9.25-7.07-1.36-9.79.28-46,9.25-62.29a10.67,10.67,0,0,1,9.79-5.44c3.81.55,6,3,5.44,7.89-.27,4.62-1.09,9.25-1.9,15.5C309,110.24,310.88,108.06,313.05,106.43Z"/><path d="M404.44,92c6.8-6.79,15,1.91,9.25,8.16-13.88,15.24-18,25.3-26.66,44.07-2.45,4.08-4.62,8.7-7.34,12.24-5.17,7.07-13.87,7.07-18.77-.55-9-12.78-10.34-27.47-9.79-42.7a6.47,6.47,0,0,1,6.25-6c3.54,0,5.72,2.72,6.26,6q1.64,13,4.08,25.29c1.36,6.53,3.81,6,7.62-2.72C386.22,115.68,389.48,107,404.44,92Z"/><path d="M449.86,122.21c4.08-3.54,10.88.27,7.62,6a26.12,26.12,0,0,1-3.27,4.9c-7.07,7.61-13.6,15.77-20.94,23.39a27.8,27.8,0,0,1-7.35,5.16c-10.33,5.44-20.12.82-22-10.6-1.9-11.7,1.36-26.39,6-36.72,1.63-4.63,5.71-6.53,9.79-5.17s6,4.35,5.44,9.25c-.27,5.71-1.91,15-2.72,20.67-.55,2.72-.55,6.8-1.09,11.69C424.84,153.76,440.88,130.09,449.86,122.21ZM430,98.27c-.81,1.63-3.26,4.08-5.16,4.35-4.08.27-9.25-5.44-9-9.24a5.75,5.75,0,0,1,6.26-4.9C425.65,88.75,431.09,95.28,430,98.27Z"/><path d="M479.23,144.24c14.69-4.9,22.85-12,33.73-21.49,9.25-8.7,14.14-.27,8.16,7.34-10.34,13.06-37.54,31.28-55.22,30.47C449,158.92,440.34,146.14,445,130.09a43.62,43.62,0,0,1,9-16.32c7.61-9,27.2-23.39,37.53-12.51,12.51,12.51-16.05,40.26-31,34.27C458.56,149.68,469.71,147.5,479.23,144.24Zm-12.78-19.59c6.53-1.63,12-5.16,15.5-14.41C473.79,113.77,468.9,118.13,466.45,124.65Z"/><path d="M545.59,119.76c3.27-5.71,8.16-14.69,15.23-13.06,4.36,1.63,4.9,6.26,5.44,10.34.28,4.08.82,8.43,1.36,12.51,1.09,10.34,7.35,19.85,15.51-2.45,2.72-6.25,4.89-11.69,8.16-17.95,9.24-15.5,16.59-2.72,13.6,4.9-3.81,10.33-8.16,21.21-12.79,31.82a24.3,24.3,0,0,1-4.35,6c-9.79,11.43-21.76,9.79-28.56-3.53-2.45-4.63-3.81-10.07-6-16.32A112.39,112.39,0,0,1,541,148.86c-6.53,7.34-13.6,17.41-23.94,11.7-5.44-3.27-7.34-9-7.34-15.24,0-14.95,3.81-29.37,9.52-42.7a13.58,13.58,0,0,1,4.62-5.71c5.44-3.26,11.7.27,11.7,7.62a25.35,25.35,0,0,1-1.9,8.16c-3.27,6.52-12.24,41.07,2.44,21.75C539.34,129.82,542.33,124.65,545.59,119.76Z"/><path d="M20.65,288.62c-1.09,1.46-2.52,1.82-5.68,1.85l-1.6-3.61a22.68,22.68,0,0,0,2.86.3,1.77,1.77,0,0,0,1.76-.78c1.09-1.46,1.82-5.94,1.93-10.08H14.18a25.9,25.9,0,0,1-2.68,7.5,18.38,18.38,0,0,1-6.7,6.89L2,288.45a16.29,16.29,0,0,0,6.46-6.05,18.07,18.07,0,0,0,2.27-6.1H3v-3.08h8.12a48.39,48.39,0,0,0,.14-5.54l3.3.28c.76.05.79.19.79.36s0,.17-.31.42-.25.28-.25.67a36.77,36.77,0,0,1-.2,3.81h8.79C23.26,282.15,21.74,287.14,20.65,288.62Z"/><path d="M41.29,277.11c-.81,7.45-2.91,10.47-9,14l-2.86-2.77c5.35-2.58,7.53-5,8.37-11.26H27.68v-3.25H38.07a42.16,42.16,0,0,0-.25-6.24l3.75.45c.39.05.84.14.84.42s-.67.64-.79.81,0,.22,0,1.37c0,.06,0,1.74-.06,3.19H50v3.25Z"/><path d="M71.33,275.24A29.12,29.12,0,0,1,67.94,282c.59.5,1.18,1,2.33,2.15l-2.07,2.41a15.34,15.34,0,0,0-2.16-2A28.12,28.12,0,0,1,57.11,291l-2.52-2.63a21.4,21.4,0,0,0,9.18-6,32.24,32.24,0,0,0-4.73-3l1.68-2.13a29.16,29.16,0,0,1,4.9,2.78,15.74,15.74,0,0,0,2.46-5.21H61a26.83,26.83,0,0,1-5.18,5.65l-2.55-2a22.85,22.85,0,0,0,7.9-10.92l3.16,1c.2.05.56.19.56.42s-.11.19-.56.39c-.14.05-.14.11-.33.5A24.82,24.82,0,0,1,62.76,272h6.42a3.23,3.23,0,0,0,1.26-.67l2.12,2.41A2.66,2.66,0,0,0,71.33,275.24Zm.09-4.34a10.9,10.9,0,0,0-2-2.61l1.49-1.23a12.54,12.54,0,0,1,2.1,2.66ZM75,269.78a15.33,15.33,0,0,0-2.21-2.94l1.42-1.15a13.3,13.3,0,0,1,2.3,2.94Z"/><path d="M83.93,289.18l-2.21.87a8.75,8.75,0,0,1-1-2.21,24.41,24.41,0,0,1-1.14-7.37A48.48,48.48,0,0,1,80,275a55.26,55.26,0,0,1,1.17-6.39l2.86,1c.19.08.73.28.73.5a.32.32,0,0,1-.14.25l-.48.2c-.42.25-1.62,5.32-1.62,9.55a15.44,15.44,0,0,0,.39,3.83c.33-.58.5-.86,1.12-2l1.65.9A24.84,24.84,0,0,0,83.93,289.18Zm10-.81c-5.1,0-6.16-1.37-6.25-6.11l3.05-.42c0,2.66.31,3.42,3.14,3.42a22.74,22.74,0,0,0,6.38-.87v3.47A37.4,37.4,0,0,1,94,288.37ZM91.72,274c-.23,0-1.52,0-3-.14v-3.08a25.1,25.1,0,0,0,3.58.3,19.7,19.7,0,0,0,6.64-1.14v3.24A36.87,36.87,0,0,1,91.72,274Z"/><path d="M110.34,288.62a3.11,3.11,0,0,1-2.08-.92c-2-1.91-2.85-5.18-2.85-10.5a27.12,27.12,0,0,1,.84-7.28l3.08.84c.19.05.64.19.64.53s-.33.42-.81.59a28.88,28.88,0,0,0-.53,6.24c0,5.46,1.34,6.47,1.9,6.47,1,0,2.16-3,2.69-4.31l2.32,2.07C114,285.65,112.6,288.62,110.34,288.62Zm14.19-5a26.08,26.08,0,0,0-4.11-11.37l2.88-1.4a23.76,23.76,0,0,1,4.59,11.9Z"/><path d="M140.58,290.44c-3.5,0-5.3-1.76-5.3-3.84a3.93,3.93,0,0,1,4.12-3.72c2.91,0,4.73,2.3,5.52,3.28a5,5,0,0,0,1.84-3.73c0-2.77-2.71-3.67-4.53-3.67a7.62,7.62,0,0,0-3.19.7c-1.74.93-4.2,3.42-5.77,5L130.92,282a55,55,0,0,0,10.36-10.11,25.42,25.42,0,0,1-6.56.7l-.64-3.13c.67,0,2.27.17,3.14.17a32,32,0,0,0,8.48-1.4l1.46,2.26a68.71,68.71,0,0,0-6.22,6,22.39,22.39,0,0,1,2.72-.17,6.17,6.17,0,0,1,6.21,6.19C149.87,287.16,145.5,290.44,140.58,290.44Zm-1.07-5.1a1.24,1.24,0,0,0-1.4,1.18c0,1,1.29,1.26,2.3,1.26a8.19,8.19,0,0,0,1.9-.25C142,286.88,141.11,285.34,139.51,285.34Z"/><path d="M175.86,291c-5.24-3.19-7.12-5.18-9.41-10.16-2,4.81-3.84,6.74-9.3,10.3l-2.71-2.72a18.14,18.14,0,0,0,6-4,15.63,15.63,0,0,0,4.2-11.51c0-.75-.09-4.36-.11-5.54l3.13.11c.31,0,1.26,0,1.26.42a.66.66,0,0,1-.22.45,7.4,7.4,0,0,0-.56.56c-.06.11-.06,2-.06,2.35,0,11.29,5.43,14.39,10.28,17Z"/><path d="M203,285.18a13.52,13.52,0,0,1-6.53,4.92l-2.07-2.88a9.38,9.38,0,0,0,5-3,8.75,8.75,0,0,0,2-5.57,6.61,6.61,0,0,0-2-4.9,7.12,7.12,0,0,0-4.76-1.87,40.07,40.07,0,0,1-3.47,12.46c-.84,1.73-2.13,4.08-3.59,4.08-1,0-5.6-2.52-5.6-7.53A12.08,12.08,0,0,1,194.39,269c5.83,0,10.42,4,10.42,10.19A10.51,10.51,0,0,1,203,285.18ZM188,274.4a9.14,9.14,0,0,0-2.8,6.21c0,2.27,1.29,3.45,1.79,3.45,1.46,0,3.87-7.31,4.43-11.68A8.3,8.3,0,0,0,188,274.4Z"/><path d="M231.21,286.74c-.64,2.78-1.65,4.09-5.6,4.12l-1.43-3.42c1,.09,2,.12,2.19.12,1.23,0,1.65-.48,2.1-2.69.61-3,.59-5.57.53-10.36h-.17a25.21,25.21,0,0,1-9.57,16.63l-2.64-1.9a23,23,0,0,0,6.16-6.44,20,20,0,0,0,3.17-8.29h-1.07a24.14,24.14,0,0,1-6,10.78l-2.41-1.54a18.28,18.28,0,0,0,3.78-4.85,13.28,13.28,0,0,0,1.68-4.39h-.7a13.43,13.43,0,0,1-1.84,3l-2.64-1.34a9,9,0,0,0,1.18-1.68h-1.65v4.31c.67-.22,1.29-.45,2.27-.87l-.06,2.86c-.73.33-1,.45-2.21.89v9.44h-3V282.8c-.84.33-2,.78-2.18.81a4.5,4.5,0,0,0-.73.28c-.19.28-.47.64-.61.64s-.23-.17-.26-.42l-.53-3.33c1.57-.34,2.52-.59,4.31-1.12v-5.15h-1.65c-.31,1.37-.47,2-.73,2.8l-2.77-.87A24.16,24.16,0,0,0,209.6,269l3,.42c.17,0,.34.14.34.28a.47.47,0,0,1-.17.31c-.37.28-.39.28-.45.42s-.17,1.15-.2,1.32h1.12v-4.34l3.25.22c.14,0,.31.06.31.23a.38.38,0,0,1-.22.3c-.14.06-.31.17-.31.31v3.28h2.32v1.45a23.54,23.54,0,0,0,1.79-5.71l3.34.48c.14,0,.25.11.25.22s-.17.28-.31.37a.82.82,0,0,0-.48.61,25,25,0,0,1-.84,2.75h9.72C232.08,276.27,232.05,283.13,231.21,286.74Z"/><path d="M236.59,274.34v-2.58h9.1v2.58Zm5.91,17v-.73H240v.73h-2.8V283h8v8.29ZM237.88,278v-2.33h6.66V278Zm0,3.64v-2.36h6.69v2.36Zm.25-11.26v-2.58h6.55v2.58Zm4.37,15.15H240v2.52h2.47Zm3.86-4.57v-2.77h2.16c.19-.47.75-2,1.12-3H247.4v-2.63h3.16c.08-.28.59-1.71.7-2h-4.48v-2.69h13.41v2.69h-5.74c-.22.67-.47,1.34-.7,2h4.57v5.65h2.43V281Zm10.33,10.34v-.82h-6.1v.84h-3v-9h12.21v8.94Zm0-6.39h-6.1v3h6.1Zm-1.48-9.74h-2.35c-.42,1.17-.65,1.85-1.1,3h3.45Z"/><path d="M273,287.19a4.33,4.33,0,1,1-8.66,0,4.33,4.33,0,0,1,8.66,0Zm-7.31,0a3,3,0,1,0,3-3A3,3,0,0,0,265.71,287.19Z"/></g></g></svg>