<svg xmlns="http://www.w3.org/2000/svg" viewBox="0 0 936.14 605.76"><defs><style>.cls-1{fill:#ee99cd;}.cls-2{fill:#61be5f;}.cls-3{fill:#1974d4;}</style></defs><title>travel_normal</title><g id="Layer_2" data-name="Layer 2"><g id="_1" data-name="1"><path class="cls-1" d="M740.14,95.37c-.39-12-.79-24-.79-36,0-10.1.85-20.46-1.38-30.45-1.54-6.94-2.23-16.49-8.21-22C722.93.63,709.93.24,700.57,0c-13.94-.32-27.12,2.34-40.92,2.86-7.35.27-14.5-1.11-21.83-.68-6,.35-11.7,1.43-17.76,1.4-12.89-.06-25.92-.39-38.81,0-7,.21-13.74,1.82-20.71,2.28-7.53.51-15.08.32-22.62.53-28.37.82-56.66-1.18-85-2.61-32.11-1.62-64.47.47-96.59.52-15.64,0-31.08-.69-46.68-1.27-11-.41-23-1.7-33.74,1.26-11.77,3.24-14.44,13-15.89,22.21-2.06,13.09-1.47,26-2.25,39.17-.84,14.07.72,28,1.14,42.08a158,158,0,0,1-.27,20.41,15.15,15.15,0,0,0,.37,5.44c-.81,7.57-1.63,15.09-1.78,22.78-.23,12.29.84,24.49.84,36.81,0,11.31-.89,22.57-.85,33.84,0,8,.09,17.56,5.54,24.39,5.62,7,13.93,9.51,23.43,10.54a132,132,0,0,0,17.55,1c5-.13,10.07,1.14,15,.77,6.4-.48,12.08-2.77,18.7-2.93,5.57-.13,11.34-.28,16.89,0,5.84.26,10.41,2.74,16,3.12,5.08.34,10.92-.78,16.08-1,11.16-.55,22.29-2.27,33.35-2.78,14.13-.65,27.39,3.3,41.3,3,11.23-.27,22.27-3,33.52-2.22,15.2,1,30.46.7,45.71.7q46.66,0,93.32,0c11.17,0,22.09-1,33.21-1.45,13.38-.56,26.59,2.39,40.13,1.21,8.6-.75,17.82-2.38,23.31-8.49,6.36-7.08,5.77-17.7,6.36-26.19,1.48-21.18,2-42.57,1.94-63.8C738.41,140.41,740.86,117.86,740.14,95.37Zm-7,41.69c.42,19.75-1.69,39.59-1.69,59.38,0,9.28-.24,18.4-1,27.65-1,12.94.69,27.56-17.45,30.84-20.85,3.78-42.49-.89-63.63.87-27.22,2.28-55.62.48-83,.48q-19.12,0-38.25,0c-6.63,0-13.26,0-19.89,0s-13.63-1.26-20.35-1c-10.86.43-22.12,3.25-33,2.18s-20.35-2.63-31.32-2.63c-12.42,0-24.85,2.17-37.31,2.78-3.95.2-8.13.52-12,.47-6.21-.08-10.45-2.45-16.6-2.55-24.8-.41-48.69,4.52-73.37.82C267,253.76,264,242.69,263.4,229.6c-.52-12,.84-24.3.84-36.37,0-11.24-.94-22.43-.84-33.62.06-6.7.57-13.29,1.2-19.88,1.46-2.52.9-5.86.68-6.84.22-2.15.44-4.29.65-6.45a2.1,2.1,0,0,0-.37-1.48,29.53,29.53,0,0,0,.37-3.55c.2-5.64-.8-11.37-.85-17-.1-11.85-2.14-23.54-1.4-35.37.62-9.75.17-19.55,1-29.28.38-4.41.82-8.82,1.53-13.2.81-5,1.35-10,5.8-13.93,4.21-3.7,8.43-3.11,13.82-3.77C296,7.58,305.66,7.93,316,8.54c13.51.81,26.82,1.1,40.37,1.08,25.52,0,51-.61,76.53-.81,25.32-.2,50.53,2.6,75.87,3,12.35.2,24.4,0,36.75-.17,12.61-.17,24.9-2.45,37.39-2.73,11.17-.25,22.4,0,33.58,0,11.93,0,23.21-1.26,35.11-.69,13,.63,25.48-2.42,38.38-2.86,12.32-.43,32.16-1.6,38.14,9.63,1.87,3.52,2.27,8.9,3.27,12.83a62.5,62.5,0,0,1,1.82,13.64c.31,11.28,0,22.59,0,33.87.05,10.42.94,20.81.93,31.24C734.09,116.71,733,126.85,733.17,137.06Z"/><path class="cls-2" d="M270.78,107.79a2.66,2.66,0,0,0,3,2.61h.3l0,0a4.9,4.9,0,0,0,1,.66,13,13,0,0,0,2,1,25.42,25.42,0,0,0,3.51,1.54,3.15,3.15,0,0,0,2.86-.61A2.84,2.84,0,0,0,285,111.9c1.12-1.63,3.89-3.05,5.6-4.28a15.15,15.15,0,0,1,7.45-2.82,3.06,3.06,0,0,0,2.46-1.13c1.8-1.34,1.1-4.51-2-4.69-8.3-.48-14.93-5.71-23.31-6.22-1.65-1.9-5.52-.83-5.49,1.62,0,4.25.94,8.46.94,12.71A2.57,2.57,0,0,0,270.78,107.79Zm17.86-5.93.58.21-.39.2A2.17,2.17,0,0,0,288.64,101.86Z"/><path class="cls-2" d="M294,63.34c1.34.18,2.44,3.21,3.08,4.35a26.09,26.09,0,0,0,3.84,5.92c3.35,3.44,8.67,6.14,13,8.63a3.54,3.54,0,0,0,3.75-.41l.1-.09a2.16,2.16,0,0,0,.28-3.34c0-.1-.06-.19-.1-.3-1.24-2.7,2.58-6.42,4.24-8.43a16.45,16.45,0,0,0,3.25-7.78,2.38,2.38,0,0,0-.42-1.83,2.44,2.44,0,0,0-1.47-1.69c-4.22-2-7.15-2.24-11.26,0-2.94,1.58-5.46,2.37-8.72,1.1-2.21-.86-4.46-2.17-6.83-2.67A3.06,3.06,0,0,0,293,58.92C291.27,60.23,291.19,63,294,63.34Z"/><path class="cls-2" d="M337.59,53.62l0,.11a2.88,2.88,0,0,0,2.16,1.85c3.51.86,7.8,7.5,9.68,10.28,2.94,4.35,6.45,10.89,6.44,15.88,0,3.4,6.18,3.41,6.19,0v0a2.74,2.74,0,0,0,.32-.91c.28-2.15.42-4.29.55-6.44a2.74,2.74,0,0,0,.27-.6c1.9-6.19,3.66-13.16,3-19.65.1-.68.17-1.35.2-2a2.23,2.23,0,0,0-.82-1.84,10.21,10.21,0,0,0-3.57-4.73,32.27,32.27,0,0,1-3-2.83,7.68,7.68,0,0,0-2.28-1.94,3.19,3.19,0,0,0-2-.65c-3.67,0-7,.65-9.74,2.76a29,29,0,0,0-6.36,6.82,2.22,2.22,0,0,0-.42,1.63A2.35,2.35,0,0,0,337.59,53.62Z"/><path class="cls-2" d="M388.25,106.27a3.6,3.6,0,0,0,1.34-.23c2.67-1,5.69-1.61,8.49-2.34,2.28-.59,5.55-.61,7.53-1.79a2.79,2.79,0,0,0,1.52-2.5,2.48,2.48,0,0,0,0-.76c-.48-2.1-3.74-3.84-5.23-5.44A35.43,35.43,0,0,0,398.45,90a31,31,0,0,1-3.09-2.3,2.52,2.52,0,0,0-1.57-.74c-.89-2.63-6.11-2.39-6.05.74a11.32,11.32,0,0,1-.86,2.34c-.43,1.41-.81,2.82-1.16,4.25a39.07,39.07,0,0,0-1.1,9.43C384.62,105.66,386.54,106.49,388.25,106.27Z"/><path class="cls-2" d="M387.59,113.12a2.41,2.41,0,0,0,.45-2.19,3.25,3.25,0,0,0-3.8-1.85,5.13,5.13,0,0,0-.87.26l-.4.14c-.31.1-.63.21-.94.34a3.11,3.11,0,0,0-.44.06,2.81,2.81,0,0,0-1.89,1.36,36.51,36.51,0,0,0-11.11,8.67,31.33,31.33,0,0,1-14.52,9.63l-.43.09a2.48,2.48,0,0,0-1.17,4.49,2.78,2.78,0,0,0,3,.61l.32-.11c7.17-1.57,13.63-3.71,19.49-7.7a40.26,40.26,0,0,0,7.51-6.84C384.42,118.16,387.12,115.61,387.59,113.12Zm-6-3.12h0l-.07,0C381.37,110.14,381.38,110.13,381.61,110Z"/><path class="cls-2" d="M355.71,127.26c2.37-1.2,1.61-3.76-.22-4.65a2.86,2.86,0,0,0-2.94-.59c-.56.17-1.11.37-1.66.56a6.94,6.94,0,0,1-.9-.12,16,16,0,0,1-2.59-.48c-.84-.26-1.55-.73-2.37-1-.53-.19-1.11-.31-1.67-.45a2.59,2.59,0,0,0-1.36-.4,3.51,3.51,0,0,0-3.42,1.09c-4.05,1.81-7.78,4.49-11.56,6.55-4.29,2.35-10.3,4.7-14,8.11a3.64,3.64,0,0,0-2.6.18,2.49,2.49,0,0,0-1.11,3.62,12.45,12.45,0,0,0,2,2.14,2.59,2.59,0,0,0,.83.5,2.86,2.86,0,0,0,3.7-.37c1.12-1.13,4-1.67,5.62-2.09,2-.54,3.94-1,5.89-1.69,2.79-1,6-1.5,8.7-2.55a2.82,2.82,0,0,0,2.11-.46c2.54-1.65,4.57-3.61,7.52-4.77,2-.77,4-1.65,6-2.41A8.25,8.25,0,0,0,355.71,127.26ZM342,126.12a3.83,3.83,0,0,0-.44-.36l.29-.11.68.23Z"/><path class="cls-2" d="M305.15,140.05a2.38,2.38,0,0,0-2-3.29c-2.09-.43-3.66-2-5.35-3a13,13,0,0,1-2.51-1.69c-.6-.61-1-1.38-1.56-2-2.27-2.77-7.64-.13-5.35,2.67.14.16.26.33.39.49a49.12,49.12,0,0,0,2.42,15.06c1.4,4.58,2.57,11.24,6.73,14.69a3.62,3.62,0,0,0,3.75.41l.24-.11.24-.13,1.3.12a8,8,0,0,0,3,.08,2.84,2.84,0,0,0,2.16-1.85l0-.14a2.75,2.75,0,0,0,0-1.07,2.68,2.68,0,0,0,.1-.65C308.85,153.11,306.44,146.45,305.15,140.05Z"/><path class="cls-2" d="M330.88,180.41a22.8,22.8,0,0,1,0-7.28,2.65,2.65,0,0,0,0-.62,3.06,3.06,0,0,0-.35-1.56c-.43-.84-1.26-1.41-1.52-2.11a9.87,9.87,0,0,0-1-1.7,4.05,4.05,0,0,0-.46-.82c-.44-3.1-6.25-3-6.15.28a4,4,0,0,0,.27,1.23,2.4,2.4,0,0,0-.93,1.75c-.23,3.06-2.11,8.53-6.54,9-3.76.4-3.93,5.32-.4,5.3a8.65,8.65,0,0,0,1.67,1.64c1.16.89,2.32,1.9,3.59,2.69a79.11,79.11,0,0,0,7.81,4.23,3.33,3.33,0,0,0,2.92.06c2.14.09,4.42-1.85,3-3.95S331.22,182.85,330.88,180.41Z"/><path class="cls-2" d="M426,131.82l.1-.07a4.76,4.76,0,0,0,.53-.19,5.16,5.16,0,0,0,.7-.37c.26-.16.51-.33.76-.51s.16-.12,0,0c.44-.29.9-.56,1.33-.86a6.21,6.21,0,0,0,.85-.66c.1-.09,1-1,.48-.54a3.58,3.58,0,0,0,1.24-1.75,2.28,2.28,0,0,0,1-2c0-1.67-.18-3.27-.31-4.92a42.26,42.26,0,0,1-.47-5c.12-3.29-5.63-3.39-6.14-.33a1.29,1.29,0,0,0-.09.16c-2,4.26-6.73,6.83-11,9.47-1.84-.58-4.29.21-4.21,2.36,0,.92-.83,2.05-1.36,2.88a10.41,10.41,0,0,1-2.29,2.76,2.16,2.16,0,0,0-.85,2.31,3.23,3.23,0,0,0,3.86,2.65,15.39,15.39,0,0,0,7.17-3c.75-.59,1.49-1.62,2.47-1.93s2.06.14,3.15.33A3.29,3.29,0,0,0,426,131.82Z"/><path class="cls-2" d="M418,189.53a2.39,2.39,0,0,0-.28-.67c.5.83.29.65.27-.22a8.77,8.77,0,0,0-.19-1.53,23.52,23.52,0,0,0-1-3.26c-.55-1.57-1.07-3.93-2.56-5a3.53,3.53,0,0,0-4.57.33l0,0a3.08,3.08,0,0,0-.24.27,1.53,1.53,0,0,0-.18.18c-1.59,2.11-3.15,4.1-4.93,6.1a15.25,15.25,0,0,1-3,3.14,3.15,3.15,0,0,1-2.77,1l-.57-.33c-.06-.08-.12-.14-.21-.24a5.68,5.68,0,0,1-.45-2.86c-.11-1.08-.16-2.17-.29-3.24-.33-2.66-1.48-4.52-2.81-6.8a4.22,4.22,0,0,0,.95-1.69,2.69,2.69,0,0,0-2.16-3.25c-1.5-.36-3.5.43-3.8,1.84l.26-.25a7.92,7.92,0,0,0-.61.69,7.19,7.19,0,0,0-.52.83c-.44.79-.85,1.57-1.34,2.34s-.84,1.44-1.29,2.14a16.57,16.57,0,0,0-1.06,1.4,3.56,3.56,0,0,0-.29.87,2,2,0,0,0-.18,2.87c3,3.83-1.44,12.21-1.52,16.77a14.34,14.34,0,0,0,1,5.66c.75,1.92,3.15,5,2.69,6.91-.42,1.77,1.08,3,2.68,3.25a3.38,3.38,0,0,0,2.65-.13c3.39-1.59,6.8-3.43,10.33-4.79,2.9-1.12,7-1.9,9.43-3.67a2,2,0,0,0,1-2,2.35,2.35,0,0,0,.07-.54c.07-4.85,4.62-9.17,6.17-13.64A2.13,2.13,0,0,0,418,189.53Z"/><path class="cls-2" d="M455.63,197.14a12.41,12.41,0,0,0,3.21-.27A2.89,2.89,0,0,0,461,195l0-.1a2.65,2.65,0,0,0-.74-2.52l-.07-.09a18.48,18.48,0,0,1-.65-4.52c0-1.8.88-3.46,1.1-5.24a2,2,0,0,0-.59-1.76c-2.7-5.84-4.22-13-2.89-19.26,1.17-5.52,9.37-8.59,9.45-14.14,0,0,0,0,0-.07.49-1.51-.6-2.73-2.16-3.26a25.25,25.25,0,0,0-4.5-1.19,9.81,9.81,0,0,0-2.91-.14,6.44,6.44,0,0,0-1.15.2c-.23,0-.22,0,.05-.07a2.94,2.94,0,0,0-4.24,1.22,2.58,2.58,0,0,0-.62,1c-1.33,4.09-4.38,10.16-8.95,12.38a7.56,7.56,0,0,1-6.57-.09c-.72-.46-1.15-1.28-1.85-1.79a10.42,10.42,0,0,0-1.77-1c-.37-.17-3-1-1.1-.26a3.51,3.51,0,0,0-3.6.51,2.69,2.69,0,0,0-1.88,3c.66,3.34,1.89,6.6,2.45,10,.3,1.74-.31,4.11.84,5.65a3.1,3.1,0,0,0,2.7,1.22,2.89,2.89,0,0,0,3.11-1.85c1-3.12,6.51,1.19,8.09,2.24a11.79,11.79,0,0,1,5.29,6.51c1.68,4.52,2.31,9.24,3.71,13.77C452.15,197.2,454.08,197.61,455.63,197.14Zm-4.86-28.29c0,.27,0,.54.07.81l-.38-.33A3,3,0,0,0,450.77,168.85Z"/><path class="cls-2" d="M460.09,111.74c1.76,1.46,1.47,4.08,1.32,6-1.62,2.63,3.36,4.93,5.58,2.32a33.44,33.44,0,0,1,17.46-11.31,36.37,36.37,0,0,0,10.83-4.6c6-4,10.16-9.78,11-16.27.26-1.9-1.6-2.72-3.34-2.47a3.22,3.22,0,0,0-2.1.33c-3.75,1.9-7.45,3.59-10.57,6.29-4,3.45-6.72,6.59-13.24,5.37a4.26,4.26,0,0,0-.7-.07A2.89,2.89,0,0,0,475,96.6c-1.43-.35-3.58.43-3.8,1.84-.27,1.71-2.48,3.82-3.87,5a17.42,17.42,0,0,1-5.42,2.94,2.76,2.76,0,0,0-2.05,2A2.18,2.18,0,0,0,460.09,111.74ZM476,102.58l.46.07-.69.28C475.83,102.81,475.91,102.7,476,102.58Z"/><path class="cls-2" d="M510.49,132.24a26.7,26.7,0,0,0-3.81,1.86c-2.32,1.24-4.62,2.5-6.83,3.87a18.6,18.6,0,0,0-8,9.36,2.49,2.49,0,0,0,.77,2.58,2.84,2.84,0,0,0,4.1,1c2.69-1.64,6.85-1.85,10-1.88a3.11,3.11,0,0,0,.62-.06c1.57.41,3.65-.37,4.08-1.8A84.93,84.93,0,0,1,516.26,134C517.72,131,512.26,129.58,510.49,132.24Z"/><path class="cls-2" d="M509.93,208.84c-1.95-2-4.1-4.28-3.27-7.19a8.71,8.71,0,0,1,1.62-2.53c.13-.16,2.69-2.47,1.09-1.48,3-1.86.45-6-2.56-4.84h-.21c-7.27,1.12-7.74-10.81-10.44-16a1.91,1.91,0,0,0-.17-.62c-.37-2.35-5-3-6.1-.24a3.54,3.54,0,0,0-.14.39,7.21,7.21,0,0,1-3.75,2.34c-1,.17-3.56-.21-4.22-1.13a3.08,3.08,0,0,0-3.38-1.24l-.12,0a2.61,2.61,0,0,0-2,3.5c-1.24,2.64-.91,4.84.34,7.57.45,1,.8,1.3-.1,2.21a4.12,4.12,0,0,1-3.18,1,5.16,5.16,0,0,1-3-1.75c-.81-1.61-2.62-1.66-4-.92-2.3.24-3.43,2.65-2.36,4.11a16.45,16.45,0,0,0,5.65,8.6c1.68,1.29,4.75,2.54,2.26,4.64a4.4,4.4,0,0,1-3.68.91,4.56,4.56,0,0,1-2.11-.57c-.9-.64-1.25-.85-1.1-.66a3.63,3.63,0,0,0-3.71-.45c-1.71.2-3.15,1.38-2.3,3.11a9.13,9.13,0,0,0,2.24,2.82c.69.63,3.66,2.17,3.72,3,.16,2.33-7.94,3.35-9.8,3.38a2.93,2.93,0,0,0-2.65,1.41,2.47,2.47,0,0,0-1,2.7,1,1,0,0,0,0,.12,2.44,2.44,0,0,1,0,.27c0,.08,0,.31-.1.72a1.08,1.08,0,0,0,0,.59,2.84,2.84,0,0,0,2.27,2.55l.11,0a4.12,4.12,0,0,0,1.88-.11h0c7.38-1.59,15.37-1.73,22.93-2.42,11.62-1.05,22.39,1.1,33.86-2.09a3.82,3.82,0,0,0,.65-.25c1.44-.38,2.57-1.52,2-3.12A20.15,20.15,0,0,0,509.93,208.84Z"/><path class="cls-2" d="M563,84.67a9.51,9.51,0,0,0-5.19-1.73,14.16,14.16,0,0,0-6.36.82c-2.13-1.3-5.9.1-4.84,2.73a22,22,0,0,1,1.24,3.64,11,11,0,0,1,.29,2.2,4.54,4.54,0,0,1-.14,1.51,5.92,5.92,0,0,0-.11.61c-1,1.78.62,3.39,2.43,3.68l.28.11.31.12c-.09,0-.14,0,.06.08s.52.3.78.43A2.15,2.15,0,0,0,552,99c.23.19.78.79,1.08,1.08.15.15.28.31.43.45a1.53,1.53,0,0,0,.19.15,1,1,0,0,0,.09.16,3.26,3.26,0,0,0,3.3,1.23,3.54,3.54,0,0,0,1.41,0,12.77,12.77,0,0,0,7.94-5.86A14.25,14.25,0,0,0,567.76,86C567.13,84,564.54,83.74,563,84.67Zm-4.18,8.26a.63.63,0,0,0-.08-.11C558.76,92.84,558.79,92.87,558.78,92.93Z"/><path class="cls-2" d="M585.85,95.85l.74.27h0l.61.3c.39.19.75.41,1.15.59l.22.1a3.44,3.44,0,0,0,3.58,1.33,3.48,3.48,0,0,0,.92-.38,3.57,3.57,0,0,0,.78-.3c3.53-1.88,7.09-3.46,10.73-5.19,2-.94,6.63-2.51,7.57-4.41,1.35-2.73-2.62-5.15-4.64-3.54-2-.82-5.06-.83-7.22-.85a23,23,0,0,0-4.66.38l-.19-.12a3.48,3.48,0,0,0-4.24,1c.25-.47-.61.69-.53.6-.16.19-.27.42-.43.61a12.79,12.79,0,0,1-1.5,1.44c-.51.46-1,1-1.49,1.41-.33.27-.73.48-1,.75l-.29.25a2.54,2.54,0,0,0-1.3,1.58,2.47,2.47,0,0,0-.29,3A3.26,3.26,0,0,0,585.85,95.85Zm.81.3,0,0C586.81,96.18,586.83,96.19,586.66,96.15Z"/><path class="cls-2" d="M614.73,115.06a24.32,24.32,0,0,1-2.52-.43c-1-1.73-4-2.5-5.28-.4l-.14.09c-.42.27-.84.54-1.25.82a25.28,25.28,0,0,0-2.82,2.53,38.16,38.16,0,0,0-3.17,3.6c-1.61,2.07-3.21,5-5.38,7.13-1.11.74-2.21,1.51-3.29,2.29a3,3,0,0,0-.75.54c-.13.1-.27.19-.39.29-3,2.24,1.38,6,4.37,3.74l.27-.21a14.25,14.25,0,0,0,4.17-3,21,21,0,0,1,2.08-1.2c2.37-1.15,5.16-1.62,7.48-2.89,4.23-2.34,8-5.86,11.71-8.79,2.79-2.22-1.06-5.7-4-4a7.53,7.53,0,0,0-.83-.1Z"/><path class="cls-2" d="M673.07,121.77a3.49,3.49,0,0,0,2.78-.71,3,3,0,0,0,1.5-1.07,25.14,25.14,0,0,0,1.7-3.14c.77-1.38,1.57-2.72,2.44-4,1.62-2.5,3.32-5.27,6-7.11a3,3,0,0,0,.52-.46c2-1.79-.79-5.32-4-4-4.55,1.83-7.74,5.09-11.11,8.16-1.09,1-4.36,4.73-6.29,4s0-6.37.13-7.72c.13-2-1.91-2.8-3.68-2.47a3.3,3.3,0,0,0-3.26,1.13c-3.23,4.08-8.11,7-13.09,9.35-4.45,2.14-10.17,4.86-15.54,5.12a3.34,3.34,0,0,0-5-.83c-6.8,5.74-12.25,11.1-21.07,14.64-7.31,2.94-14.39,5.8-20.19,10.72h0c-3.55,1.54-.42,6.1,3.12,4.56,7.23-3.14,14.31-5.71,22.46-6.44a3.19,3.19,0,0,0,2.44-1.34c2.14.09,4.12.18,5.64.17a69.43,69.43,0,0,0,19.26-3c5.72-1.73,10.86-4.48,15.93-7.29C658.63,127.19,666.82,120.81,673.07,121.77ZM663.69,118l.1,0-.12,0S663.68,118.05,663.69,118Zm-3.9-5.88a1.94,1.94,0,0,0,0,.24l-.24-.08Z"/><path class="cls-2" d="M718,107.8c.91.9,1.37,2,2.58,2.65a3.56,3.56,0,0,0,4.11-.75,3.38,3.38,0,0,0,.72-.24,2.45,2.45,0,0,0,1.3-3.19c-.16-1.61-.51-3.23-.63-4.83a2.16,2.16,0,0,0-.25-2.34c-1-2.12-5.05-2-5.85.29a16.35,16.35,0,0,1-3.8,2.27,2.49,2.49,0,0,0-1.11,3.62C715.62,106.26,717.14,106.94,718,107.8Z"/><path class="cls-2" d="M692.68,153.2a8.64,8.64,0,0,0,1.18,1.65,3.5,3.5,0,0,0,4.38,0c1.24-1.13,1.42-2.7,2.28-4.06a11.82,11.82,0,0,1,2.09-2.42c3.44-1.88,7.06-3.6,10.66-5.32a10.48,10.48,0,0,1,3.3.59,9.65,9.65,0,0,1,4,2.78,8.28,8.28,0,0,0,.29,1.29c.91,2.93,5.74,2.13,6-.41a2.26,2.26,0,0,0-.43-3.08l-.09-.08c-.38-3.21.22-6.59-.64-9.72-.52-1.91-2.74-2.24-4.34-1.55a3.54,3.54,0,0,0-1,.36c-2.71,1.54-5.54,3-8.4,4.37a14.32,14.32,0,0,0-4,.74c-3.51,1.19-7.11,3.87-9.77,6.14l-.14.14c-1.37.76-2.7,1.56-4,2.38a3.34,3.34,0,0,0-3.11,2.11C689.28,150.6,690.67,152.69,692.68,153.2Z"/><path class="cls-2" d="M726.88,220.28a2,2,0,0,0,.1-1.89c-1.09-2.62-.87-5.76-1.11-8.5-.19-2.19.45-4.61-.23-6.71a2.88,2.88,0,0,0-2.24-2.7h0l-.23-.05-.23,0c-4.89-1.24-10.05.28-14.94.86a20.87,20.87,0,0,1-10.38-.94c-6.44-2.49-7.7-7.55-12.16-11.62-4-3.62-8.9-4.87-12.18-8.48-.53-.82-1.09-1.61-1.68-2.38-.16-.3-.32-.6-.46-.92-3.08-7,3.69-2.85,8.12-6.33a2.25,2.25,0,0,0,1-1.65,2.49,2.49,0,0,0,1-1.92,4.52,4.52,0,0,0-.73-2.39c-.06-.11-.13-.22-.19-.34.12.25.09.2-.09-.17a3.79,3.79,0,0,1-.32-.81,2.1,2.1,0,0,0-.29-.58c-.37-1.77-3.2-3.21-5.34-1.63-1.2.89-3.78,1.44-5.27,1.91-1.84.58-3.37,1.33-5.37,1.37a3.28,3.28,0,0,0-1.35.27c-2.55.25-4.1,3.54-1.28,4.91-1.23-.6-.52-.35-.17.29a13,13,0,0,1,.9,2.11,14.44,14.44,0,0,1,.79,4.2,2.58,2.58,0,0,0,2.07,2.4c.44.45.87.92,1.28,1.41a19.4,19.4,0,0,0,2.73,3.9,51.82,51.82,0,0,1,4.8,11.58c2,6.73,4.83,11.48,9.08,17.15a2.69,2.69,0,0,0,1.28,1.23,71.75,71.75,0,0,0,21,6.44c5,.79,18.06,4.93,21.77.58a1.72,1.72,0,0,0,.25-.37,1,1,0,0,0,.08-.11Zm-53.51-53c.51-.16,1-.34,1.52-.53l.05.09,0,0A2.74,2.74,0,0,1,673.37,167.24Z"/><path class="cls-2" d="M633.79,198.83c-2.29-3.93.28-9.28-1.18-13.51a11.92,11.92,0,0,0-5.49-7.06c-.5-1.63-3.24-2.93-5.37-1.52-6.12,4.06-1.8,10.38-5.07,15.08-2.7,3.89-8.45,2.81-12.71,1.93a11.45,11.45,0,0,0-9.09,1.65,3,3,0,0,0-.91.86,2.5,2.5,0,0,0-1.58,2.9l0,.11a3.09,3.09,0,0,0,3,1.94c11.06.36,24-1.36,34.74,1.63a2.85,2.85,0,0,0,3.5-1.37A2.27,2.27,0,0,0,633.79,198.83ZM627,195.56c0,.39,0,.77.06,1.15l-.63-.1Q626.7,196.08,627,195.56Z"/><path class="cls-2" d="M329.7,230.11c-2.62-3.14-3.81-7-6.43-10.16a141.53,141.53,0,0,1-9.95-13c-3.8-5.82-8.45-11.56-10.48-18.05-1.18-3.76-2.27-7.69-.22-11.33,1-1.74,4.58-3.68,1.17-3.06a2.41,2.41,0,0,0,2.18-1.91c2.12-1.73.72-5.28-2.75-4.49-4.7,1.07-13.1-.68-17.35-2.65a28.21,28.21,0,0,1-10.31-8.45,3.55,3.55,0,0,0-4.84-.58,2.62,2.62,0,0,0-2.6,2.52c0,13.91,3.26,27.85,3.57,41.85.16,7.54.28,15.16.19,22.7-.05,4.68-1.34,10-.81,14.73a1.84,1.84,0,0,0,.31,1.74,2.49,2.49,0,0,0,2.53,1.43,3.56,3.56,0,0,0,2.49-.57c1.34-.9,9.23-1.3,11.31-1.55,4.52-.54,9-1.39,13.44-2.11,8.77-1.41,17.4-1.88,26.23-2.51,1.22-.08,2.79-.75,3-1.94l0-.13a2.42,2.42,0,0,0-.15-1.32A2.24,2.24,0,0,0,329.7,230.11ZM283,226.86c-.08-.76-.14-1.53-.16-2.32C282.89,225.32,282.93,226.09,283,226.86Zm-8.34-62.3-.19,0c0-.08,0-.16,0-.24Z"/><path class="cls-3" d="M335.15,113.82a3.35,3.35,0,0,0,5.17-1.16l0-.08a2,2,0,0,0-.19-2,2.31,2.31,0,0,0-1.52-1.84c-3.95-1.78-7.27-5.53-10.52-8.12-3.58-2.87-5.67-6.82-7.16-10.84a2.84,2.84,0,0,0-.52-.84,2.38,2.38,0,0,0-2.9-1.84c-2.91.33-6.63-2.66-8.9-4-2.58-1.55-5.08-3.2-7.65-4.77-.73-.45-1.43-.88-2.1-1.33-2.11-3.49-2.92-7.5-6-10.75a8.53,8.53,0,0,0-7.07-2.89c-1.31.13-2.45.78-3.82.64-1.76-.17-3.44-1.49-4.87-2.23A3.1,3.1,0,0,0,273,62.85a2.14,2.14,0,0,0-.54,1.07c-.11.12-.23.24-.32.36a5.45,5.45,0,0,0-.92,1.75h0a2.13,2.13,0,0,0-.51,1.32c0,.25,0,.5,0,.75,0,0,0,.15,0,.34.11,2.16.42,4.37.71,6.5.39,2.72,1.12,6.46.33,9.13a2.33,2.33,0,0,0,0,1.44,2.27,2.27,0,0,0,1.53,2.17c3.41,1.56,6.28,3.3,10.07,4.27,7.17,1.85,13.83,1,20.71,4,6.2,2.7,9.85,7.62,16.12,10.28C325.42,108.45,331,110.1,335.15,113.82Z"/><path class="cls-3" d="M336.72,66.81c8.55,14.59,5.76,33.49,22.82,44.38A2.83,2.83,0,0,0,364,109.1c1.45-.88,2.1-2.59.34-3.8-7.94-5.45-8.77-20.27-12-28-2.46-5.87-6.06-14.17-12.91-17.39a3.29,3.29,0,0,0-4.19,1.07,2.48,2.48,0,0,0-.28,3.82C335.54,65.42,336.13,66.11,336.72,66.81Z"/><path class="cls-3" d="M350.67,119.93a6.53,6.53,0,0,0,4.39,1.12c3,.4,6.83.71,9.67,0,3.06-.72,4.93-3.38,7.35-5,3-2-.84-5.24-3.75-4.16-4.23,1.57-9.52,3.63-14.24,3.7C351.33,114.61,348.1,117.81,350.67,119.93Z"/><path class="cls-3" d="M376.72,78.69c.34,1.55.82,3.07,1.18,4.61a19.91,19.91,0,0,0,3.54,7.27c2.08,2.65,7,.45,5.64-2.19a10.56,10.56,0,0,1,.41-2.95c.38-1.2,1-2.3,1.33-3.53a2.55,2.55,0,0,0-1.73-3s0-.06-.07-.08c-.7-.65-1.31-1.37-1.94-2.07A16.69,16.69,0,0,1,384,75.44c-.08-.1-.86-1.13-.69-.76a3.28,3.28,0,0,0-1.21-1.4,2.94,2.94,0,0,0-1.52-1.41c-3.08-1.4-5.87,1.95-4.11,3.87A28.84,28.84,0,0,0,376.72,78.69Z"/><path class="cls-3" d="M392.48,156.48c-1.43-6.78-.13-11.81,4.87-17.3,4.57-5,10.49-9.05,13.18-15.2,2-4.64,3.37-12.23.55-16.78a2.31,2.31,0,0,0-.14-.19,3.47,3.47,0,0,0-5.29-1.46,20.1,20.1,0,0,1-3.84,1.26,19.59,19.59,0,0,1-4.25,1.06,2.8,2.8,0,0,0-2.94,3.19,2.65,2.65,0,0,0-.15.57c-.2,1.32-2.42,3.51-3.19,4.77a49.55,49.55,0,0,1-4.8,6.21,55.85,55.85,0,0,1-5,5.5c-.94.85-2,1.57-3,2.33L376.35,132l-.27.14a2.9,2.9,0,0,0-2.48,1.52,2.25,2.25,0,0,0-.43,1c-1.84,11.08,11.46,24.38,3.35,34.62a2,2,0,0,0-.18,2.46,2.19,2.19,0,0,0,1.48,2.26c.49.19,1.35.44,1.62.57-.15-.08.25.2.29.22a4.07,4.07,0,0,0,.55.28,3.71,3.71,0,0,0,4.86.63c3.62-2.55,6.87-8,7.82-11.88C393.61,161.15,393,159.11,392.48,156.48Z"/><path class="cls-3" d="M381.79,209.59a2.17,2.17,0,0,0-.2-.59c-5.07-10.4,4.35-21.18-3.2-31.3-1.66-2.22-5.23-1.12-5.76.82a2.08,2.08,0,0,0-.45,3.08c-2.23-3-1.55,1.35-4.05,2.8-3.31,1.92-2.31,1.83-4.65-.8s-3.89-6.45-5.86-9.36c-2.61-3.9-6.42-7.45-8.44-11.61-3.07-6.31-3.11-13.34-2.23-20a1.94,1.94,0,0,0,.75-1.92v-.1a3,3,0,0,0-3.1-2.64c-4.71,0-9.71,1.83-14.18,2.94-4.28,1.07-8.38,1.93-12.15,4h0c-2,.93-2.85,3.5-.26,4.48a6.24,6.24,0,0,0,.8.23c11.76,14.67,24.76,30.79,39.81,43.72a2.54,2.54,0,0,0,.38.61c3.59,4.34,6.58,9,10.37,13.2,3.5,3.9,7.16,7.85,10.2,12,1.78,2.45,6.81.91,5.65-2C384.19,214.5,383,212,381.79,209.59Z"/><path class="cls-3" d="M284,123.14c-2.13-3.81-7.79-10-13.3-10.12-3.84-.1-4,4.82-.38,5.24-1.68.2-3.28,1.44-2.82,3.27.27,1.09,1.3,1.53,2.21,2.13a2.53,2.53,0,0,0,.23.61c1.95,3.74,2.21,8.63,2.65,12.66-2,0-4.08,1.94-2.88,4,.47.81,1,1.63,1.55,2.45-1.49.34-2.61,1.47-1.86,3.05,1.48,3.1,4.9,5.48,7.61,7.8a46.68,46.68,0,0,0,8.48,5.84h0l.1,0a3.11,3.11,0,0,0,3.77-.52c1.7-.49,3-2.07,1.7-3.72C284,146.53,289.55,133,284,123.14Zm-10.91-3.8.2.14c.05.18.1.39.17.65A2.4,2.4,0,0,0,273.12,119.34Z"/><path class="cls-3" d="M309.64,171.89c-2.38,2.78,3,5.31,5.34,2.67a12,12,0,0,0,1-1.29,26.35,26.35,0,0,0,3.65-6.47c.88-2.31,2.51-6,1.47-8.38-.05-.11-.12-.2-.17-.3a2.4,2.4,0,0,0-.5-.94,16.34,16.34,0,0,1-1.34-1.87,10,10,0,0,0-.66-3,2.82,2.82,0,0,0-1.6-1.53,6,6,0,0,1-.36-1.06c-.25-1.41-2.33-2.19-3.81-1.85a2.7,2.7,0,0,0-2.16,3.26,17.41,17.41,0,0,0,1.78,4.11c.22.44.44.87.67,1.3,0,1.82-.28,3.8-.4,5.33C312.3,165.41,312.27,169,309.64,171.89Z"/><path class="cls-3" d="M343,212.6a33.61,33.61,0,0,1-5.5-8.19c-.89-2-1.1-4.31-2.76-5.92a2.89,2.89,0,0,0-2-.84,3.37,3.37,0,0,0-1.64-.39c-6.92,0-14.07-5.5-17.8-10.1a3,3,0,0,0-.25-.25c-1-2.81-6.51-2.67-6.05.52,1,6.54,4.72,12,9.45,17.08,7.8,8.46,15.63,17.17,18.11,28a2.79,2.79,0,0,0,2.16,1.85l.15,0a3.54,3.54,0,0,0,2.33-.4,3.27,3.27,0,0,0,.45,0c2,0,3.95-.4,6-.46,1.74-.06,3.48-.19,5.22-.33a4,4,0,0,0,2.59-1.13,2.17,2.17,0,0,0,1.48-2.95C352.43,222.89,347.59,217.85,343,212.6Z"/><path class="cls-3" d="M437.35,117.6a2.61,2.61,0,0,0,2.44,2.5c1.54.47,3.48.05,4.06-1.68,1.43-4.26,6.19-8.75,10.41-11,4.71-2.51,9.66-4.28,13.15-8.06a2.56,2.56,0,0,0,.67-1.33,2.41,2.41,0,0,0-.05-2.46,4.45,4.45,0,0,0-2.46-1.68c-.4-.16,0,0-.52-.23a11.48,11.48,0,0,0-1.59-.46,17.53,17.53,0,0,0-2.22-.58h0a4.37,4.37,0,0,1-.52-.12,9.05,9.05,0,0,0-1.64-.27,2.89,2.89,0,0,0-1.14.16,2.45,2.45,0,0,0-2.25,1.47c.13-.27.22-.2-.06.16a2.14,2.14,0,0,0-.09.27,1.37,1.37,0,0,1,.07-.24,3.94,3.94,0,0,1-.37.4c-.39.39-.8.76-1.22,1.13a25.2,25.2,0,0,1-3.46,2.66,19.52,19.52,0,0,1-3.51,1.76,28.19,28.19,0,0,1-2.91.65,3.28,3.28,0,0,0-1.21-.21,3,3,0,0,0-2.91,2,.47.47,0,0,0-.09.1c-.1.12-.2.24-.29.37-.36.51,0,0-.35.42L438,104.55a2.79,2.79,0,0,0-.87,1.81,1.06,1.06,0,0,0-.06.19,12.63,12.63,0,0,0-.13,5.64A28.08,28.08,0,0,1,437.35,117.6Z"/><path class="cls-3" d="M455.71,93.86a.68.68,0,0,0-.08.19l0,0A1,1,0,0,1,455.71,93.86Z"/><path class="cls-3" d="M455.74,112.64a2.75,2.75,0,0,0-3.28.59,73.42,73.42,0,0,0-9.17,11.19c-2.79,4.32-7.41,7.09-12.06,9.81a2.6,2.6,0,0,0-1.36,1.87c-1.54,0-3.09.86-3.09,2.56,0,2.49-.12,5-.38,7.53a2,2,0,0,0-.25,1.47,2.71,2.71,0,0,0,3.43,3.78,7.13,7.13,0,0,1,4.41-.1,12.4,12.4,0,0,1,2.08.7,5.6,5.6,0,0,1,1.15.57l.23.13a3.21,3.21,0,0,0,1.88.78,2.77,2.77,0,0,0,2.89-.74c5.4-5.49,9.68-12.68,13.76-18.9,3.84-5.86,3.9-12.82,2.2-19.36A2.53,2.53,0,0,0,455.74,112.64Zm-16.46,34.84-.19-.07.39-.17Zm13.64-26-.22-.05.23-.27C452.93,121.22,452.92,121.32,452.92,121.43Z"/><path class="cls-3" d="M421,183.49a2.63,2.63,0,0,0,1,1.26c.82,1.2,2.76,1.44,4.21.88a4.54,4.54,0,0,0,1.71-1.54,18.24,18.24,0,0,0,1.32-1.47,2.33,2.33,0,0,0,.42-3.08,3,3,0,0,0-1.18-.95c-2.19-3.61-2.29-7.88-2.61-11.89a3,3,0,0,0-.12-.61c.05-.2.1-.39.14-.6.66-3.32-5.29-4.75-6-1.4s-2.28,6.23-1.95,9.82C418.26,177.15,419.8,180.49,421,183.49Z"/><path class="cls-3" d="M456.09,208.14l-.13-.09c.05-.22.08-.49.11-.69,0,0,.07-.26.09-.33a8.3,8.3,0,0,0,.19-1.11,3.38,3.38,0,0,0-.24-1.59c0-2.88-5.26-3.94-6-.81.41-1.66-13.93,3.65-15.16,4-5.29,1.37-10.67,1.7-15.82,3.5-8.46,2.95-17.42,6.16-25.54,9.9a4,4,0,0,0-2.64-.43,5.28,5.28,0,0,0-2.75,1.73c.4-.38-.17.15-.2.18a3.35,3.35,0,0,0-1,1.56,3,3,0,0,0,1.63,3.35,1.4,1.4,0,0,0,.3.15s0,.09,0,.16a2.87,2.87,0,0,0,1.82,1.74,3.2,3.2,0,0,0,2.43.27c15.51-3.92,34.66-3.1,50.66-3.44a3.51,3.51,0,0,0,2.66-1.31,2.21,2.21,0,0,0,1.76-1.83c.44-2.38-.08-4.85.56-7.21.69-2.53,2.4-2.62,5.15-2.6a3.35,3.35,0,0,0,.87-.1c2-.2,3.82-2,2.43-3.87A3.48,3.48,0,0,0,456.09,208.14Zm-9.72,1.39-.13-.1.72-.26C446.76,209.28,446.57,209.41,446.37,209.53Zm2.78-1.14.66-.24a.27.27,0,0,0,0,.09C449.58,208.28,449.37,208.33,449.15,208.39Z"/><path class="cls-3" d="M493.5,124.37c-3,3.1-5.54,6.43-9.2,9A73.52,73.52,0,0,1,472,140.31a2.69,2.69,0,0,0-2.7,1.6c-1,1.38.08,3.34,1.89,3.86a3.25,3.25,0,0,0,2.78.54c4.59-1.48,9.06-4.48,13.07-6.86a29.1,29.1,0,0,0,6.93-5.38c1.76-2,2.82-4.4,4.42-6.49C500.25,125.1,495.77,122.05,493.5,124.37Z"/><path class="cls-3" d="M474,180.14s0-.07-.15-.35a.13.13,0,0,0,0,.06C473.88,180,473.93,180,474,180.14Z"/><path class="cls-3" d="M488.66,149.57a2.15,2.15,0,0,0-.24-1.27c1.5-1.6.44-3.55-1.28-4.17a3.62,3.62,0,0,0-3.62.28c-8.13,5.7-17.92,9.64-20.11,19.36-.82,3.63-.11,6.85,1.15,10.33,1,2.71,1.56,7.25,3.89,9.31a3.23,3.23,0,0,0,5.09-1.2,1.9,1.9,0,0,0,.43-2.07.47.47,0,0,1-.14-.29,2.58,2.58,0,0,0-.24-.37,3.46,3.46,0,0,1,.23.31.89.89,0,0,1,0-.42c.14-.44.19-.94.3-1.38a10.91,10.91,0,0,1,1.71-3.74c1.16-1.64,2.12-1.44,4-.74,1.26.47,1.66,1.32,2.83,1.92a3.14,3.14,0,0,0,4-.84,3.48,3.48,0,0,0,.87-.42c3.19-2.21,3.6-7.38,3.48-10.55C490.91,158.94,488.16,154.21,488.66,149.57Z"/><path class="cls-3" d="M525.47,134.78c3.2-2.13,7.2-2.51,10.71-4.08,2.79-1.25,6-3.19,7.61-5.6a2.37,2.37,0,0,0,1-1.38c.62-2.21,3.9-5.94,6-7.21,2.73-1.69,6.54,1,9.34,1.81a2.73,2.73,0,0,0,3.74-2.26,2.57,2.57,0,0,0-1.24-2.88c-1.5-1-2.27-1.73-2.57-3.21a8.31,8.31,0,0,0-2.65-4.26,15.85,15.85,0,0,0-8.65-4.63c-.12,0-.23,0-.35,0a3.13,3.13,0,0,0-1.2-.59,3.24,3.24,0,0,0-3.66,1.59,22.35,22.35,0,0,1-5.53,4,2.55,2.55,0,0,0-2.55,3.1c-2,2.68-2.94,6.22-4.76,8.86-2,3-4.31,6.31-7.72,8.27a2.44,2.44,0,0,0-1.33,2.79l-.37.73c0,.06-.32.61-.41.81a2.87,2.87,0,0,0-.23.51c.15-.34.16-.38,0-.11a3.36,3.36,0,0,0-.24.67C518.88,133.85,522.69,136.63,525.47,134.78Z"/><path class="cls-3" d="M524.48,176.83c1.49-.56,3.4-1,4.6-2l.17-.12h0a2.23,2.23,0,0,0,.65-.92,1.42,1.42,0,0,0,.07-.22,1.06,1.06,0,0,0,.06-.19,6.09,6.09,0,0,1,1.7-3.3c1-.79,2.24-1.23,3.19-2.07a11.33,11.33,0,0,0,3.38-6.11,2.29,2.29,0,0,0-.49-2.12,2.29,2.29,0,0,0-.82-2.22,3.66,3.66,0,0,0-3.71-.45,5.44,5.44,0,0,1-2.47-.57c-.42-.18-.88-.66-1.27-.8s-.4-.52-.33.06a2.91,2.91,0,0,0-1.16-2,3.26,3.26,0,0,0-3-1.93l-.2,0a2.57,2.57,0,0,0-2.91,1.93h0c-.28.22-.54.47-.82.7-.79.63-1.59,1.22-2.44,1.79a14.16,14.16,0,0,1-4.15,2.12,2.48,2.48,0,0,0-2.14,2.86,34.08,34.08,0,0,1-9.67,14,2.19,2.19,0,0,0-.28,3.31,1.92,1.92,0,0,0,.11.58c.09.33.12.37.09.13,0,.19,0,.37.05.56s0,.56.09.84a4.46,4.46,0,0,0,1.29,2.82c1,1.12,3.29.93,4.37,0a1.93,1.93,0,0,0,.31-.33,74.55,74.55,0,0,1,9.73-4C520.52,178.39,522.48,177.57,524.48,176.83Z"/><path class="cls-3" d="M518.71,213.27c.63,1,.43,2.11.92,3.13a3.18,3.18,0,0,0,2.39,1.68,2.79,2.79,0,0,0,3.2.87c10.12-3.12,20.08-2.91,30.62-3.3,5.08-.2,10.08-.19,15.18-.24,3,0,6.83-.61,10,0a3.72,3.72,0,0,0,2.84,1,2.71,2.71,0,0,0,2.86-3.45l.75-1.1a12.9,12.9,0,0,0,1.52-3,15,15,0,0,0,.7-5.28,2.74,2.74,0,0,0-.06-.51c.75-2.1-2-4.57-4.47-3.13-5.86,3.43-13.83,2.32-20.43,2.4-5.44.07-10.16,2-15.55,1s-11.1-2.54-16.55-3.81c-8.77-2-11-4.51-10.09-12.58.12-1.1.94-1.69.39-2.92a3.33,3.33,0,0,0-4.54-1.58c-2.13.91-4.12,2.42-6.32,3.13a2.69,2.69,0,0,0-2,3.24,2.47,2.47,0,0,0,1.4,2.17,7.68,7.68,0,0,1,3,3.93c.68,2-.07,3.57-1.7,5a5.26,5.26,0,0,0-.49,4.37c1.23,2,2.47,4,3.91,5.86C517,211.17,518,212.17,518.71,213.27Zm12.39-1.48,1,.1-1.08.19A1.37,1.37,0,0,0,531.1,211.79Z"/><path class="cls-3" d="M536.91,137.77c.64,2.06,2.11,3.78,3,5.77a40.74,40.74,0,0,1,1.75,5.2c.6,2,.27,4.43,1.05,6.4s2.75,3,4.35,4.41c2.82,2.41,7.19-1.33,4.37-3.74a5,5,0,0,0-.41-.32,44.11,44.11,0,0,0-1.09-10.67c-.77-3.16-4.65-6.61-4.57-9.67a2.27,2.27,0,0,0-.38-1.33,2.42,2.42,0,0,0-.79-1.44,3.53,3.53,0,0,0-4.38,0l-.44.35-.11.08-.11.06-.57.33a2.63,2.63,0,0,0-1.8,3.1l0,.1a.94.94,0,0,0,.06.15A2.23,2.23,0,0,0,536.91,137.77Z"/><path class="cls-3" d="M556,147.54a2.57,2.57,0,0,0,.07.4,2.46,2.46,0,0,0,.35,1.27c.3.47.62.93,1,1.38s1,1.2,1.22,1.44c-.13-.16.18.26.21.3s.16.28.26.42a5.51,5.51,0,0,0,.46.54c1.12,1.66,4.81,1.88,5.83-.54C567.39,148,578,144,582,139.11s7.49-12.23,12.81-16.81a31.14,31.14,0,0,0,3.79-2.54l.37-.2h0a3.92,3.92,0,0,0,.54-.33l.09-.07c2.7-2.05-.75-5.55-3.75-4.16a20.92,20.92,0,0,0-4.47,2.88c-.49.27-1,.55-1.49.78-1.19.5-3.78,1.46-5.16,1.23-2.45-.41.62-4.83,1.21-6.11a2.17,2.17,0,0,0,.21-1c.36-.42.73-.82,1.06-1.26,2.16-2.87-3.2-5.52-5.34-2.67-5.48,7.28-14.61,11.78-20.07,19.18A28.06,28.06,0,0,0,556,147.54Zm21.9-19.75.3.21-.45.44C577.85,128.23,577.89,128,577.94,127.79Z"/><path class="cls-3" d="M576.06,94.29c2.42-1,4-3.1,6-4.51s5.22-2.18,4.5-5A2.85,2.85,0,0,0,584.44,83a10.92,10.92,0,0,0-5.13.54c-1.44.41-2.53,1.26-3.91,1.69l-.27.1c-1.59-.06-3.24.78-3.23,2.54a18.92,18.92,0,0,1,0,2.13,4,4,0,0,1-.38,1.35C570.77,93.66,573.7,95.27,576.06,94.29Z"/><path class="cls-3" d="M634.87,115.08l.24-.12L635,115l.17-.06c.45-.23.58-.25.41-.16.47-.19.92-.4,1.4-.63,1.42-.65,2.84-1.25,4.24-1.93l4.17-2.06a9.05,9.05,0,0,0,2.87-1.51,2.45,2.45,0,0,0,0-3.74c-.61-.56-1.44-.89-2-1.45a6.16,6.16,0,0,1-1-1.8,4,4,0,0,0-5-1.79c-2,.76-2.88,2.72-3.92,4.22-1.33,1.9-2.28,3.83-4.36,5.24a2,2,0,0,0-1,1.93C629.16,113.35,631.91,116.7,634.87,115.08Zm-3.12-4.57-.15.1C631.49,110.66,631.48,110.66,631.75,110.51Z"/><path class="cls-3" d="M635.11,115l.43-.17-.41.16Z"/><path class="cls-3" d="M590.55,150a2.69,2.69,0,0,0-.93.38c-2.16,0-4.29,1.89-2.77,3.88a19.27,19.27,0,0,1,2.56,3.55c.67,1.46.84,2.27,2.36,3.24a3.55,3.55,0,0,0,3.75-.42c3-2.16,6.11-4.28,8.91-6.61s5.68-4.05,8.5-6.16c2.34-1.75-.14-5.17-3-4.41-3.32.87-6.48,2.39-9.8,3.37C597,147.72,593.78,149.37,590.55,150Z"/><path class="cls-3" d="M668.21,95.44c1.24,1.53,1,3.48.9,5.26a2.18,2.18,0,0,0,.46,1.52,3.09,3.09,0,0,0,4.6,2.67c4.21-2.06,6.06-5.44,11.27-6.83,7.48-2,12.95,1.71,20.23,2,8.16.3,12.76-4.23,19.47-7.1a2.41,2.41,0,0,0,1-3.74c.72-1.61-.17-3.72-2.72-3.55-3.47.23-5.6-3.42-7.76-5C712.18,78,707.8,77,704.06,74.8c-6.32-3.76-9.69-10.19-18.38-7C672.77,72.58,673.2,82.92,668,92.16a2.27,2.27,0,0,0-.22,1.86A2,2,0,0,0,668.21,95.44Z"/><path class="cls-3" d="M724.89,114.61a3.35,3.35,0,0,0-2,.89l-.06-.13c-5.15,4.08-12.29,6.39-18.3,9.38a94.67,94.67,0,0,1-17.23,6.74c-1.89.27-3.62,2-2.43,3.95l.06.09a2.91,2.91,0,0,0,1.47,1.09,3.27,3.27,0,0,0,0,.44,9.06,9.06,0,0,0,.07,1.56c.06.49.14,1,.21,1.47s.11.72.17,1.08.09.51.06.11a2.91,2.91,0,0,0,1.26,2.1c.71,1.89,4.13,2.87,5.64.64,3.08-4.53,10-5.66,14.93-8.12,2.72-1.35,5.6-2.62,8.22-4.08,2.12-1.19,4.64-4,6.93-4.63a3.13,3.13,0,0,0,.83-.34,2.66,2.66,0,0,0,2.16-1.31,7.91,7.91,0,0,0,.81-3.88,17,17,0,0,0,0-1.75,12.55,12.55,0,0,1,.14-1.43A2.7,2.7,0,0,0,725,114.6Z"/><path class="cls-3" d="M637.72,158.48a3.24,3.24,0,0,1-.41-.13c-3.57-1.46-6.71,3.09-3.12,4.57,8.28,3.41,21.11,1.19,29.74-.36a2.33,2.33,0,0,0,2.2-2.56,2.54,2.54,0,0,0-2.08-3.07c-4.63-1.23-10.53-1-15.33-.82A32.38,32.38,0,0,0,637.72,158.48Z"/><path class="cls-3" d="M726.26,185.26c-.08-3,.14-6,0-9-.15-4.55,1-10.36-.4-14.69,0,0,0-.08,0-.12a2,2,0,0,0,.72-2.44c-1.34-3.25-5.82-5.71-8.39-8.33-1.73-1.77-3.31-4-6.39-3.8-3.85.3-4.75,4-6.34,6.43-1.47,2.24-3.46,5-6.57,5.74-3.87.92-5-1.55-6.54-4.09a3,3,0,0,0-4.24-.81,3.13,3.13,0,0,0-2.22,1.63c-1.12,2.3-.58,5.46-.28,7.86.27,2.13,1.35,4.43.14,6.41s-3.85,3.16-6.29,3.59a2.36,2.36,0,0,0-2.21,2,2.15,2.15,0,0,0,0,2.56c1.73,2.58,4.52,3.83,7.43,5.21,5.89,2.78,8.1,7.58,12.78,11.46,7.94,6.59,16.86.84,26,1.79,2.19.22,3.15-1.31,2.9-2.79a2.56,2.56,0,0,0,.54-1.23C727.27,190.22,726.32,187.66,726.26,185.26Z"/><path class="cls-3" d="M637.69,196.33c.26,4.79,2.42,8.1,7.16,10.53a3.57,3.57,0,0,0,2.39.27l.16,0c1.18,0,2.1-.24,3.24-.25,1.37,0,2.71.07,4.08.12h.1c2.18.8,5.33-1.4,4-3.85-3.43-6.21-.14-15.21.42-21.7.39-4.45.16-8.81-2-13a2.41,2.41,0,0,0-1.64-1.3,2.71,2.71,0,0,0-3,.11,19.83,19.83,0,0,1-3.74,1.44,19.62,19.62,0,0,0-4,2.18c-1,.7-2,1.4-3,2.07a32.13,32.13,0,0,1-2.87,2.12c-2.78-1.44-6.36,1.93-3.74,4.16C639.52,183,637.43,191.52,637.69,196.33Zm11.39-18.07,0,.2-.27,0Z"/><path class="cls-3" d="M601.22,169.54a3.5,3.5,0,0,0-3.73.36c-1.54,1.35-2.32,3.21-3.3,4.87a2.56,2.56,0,0,0-.3,1.78,2.3,2.3,0,0,0,2.15,2.82c2.83.51,4,3.86,2,5.61a18.17,18.17,0,0,1-3,2.11,10.48,10.48,0,0,0-3,1.81l-.41.25a2,2,0,0,0-1,2c-.29,2.45,4,4.18,5.75,1.59l.09-.1c.73-.47,1.53-.94,2.33-1.42,3-.69,7.33.58,9.66.65,3.28.09,5.82-.63,7.08-3.37,1.46-3.17-1-6.51.34-9.48.68-1.45,2.38-2.45,3.38-3.73,1.49-1.9,1.39-3.55,1.79-5.81,0-.06,0-.12,0-.18a1.67,1.67,0,0,0,0-.32c0-.07,0-.14,0-.21a1.16,1.16,0,0,0,0-.18c-.31-1.69-2.39-2.65-4-2.37a21.64,21.64,0,0,0-6.63.78C607.29,167.75,604.23,168.53,601.22,169.54Z"/><path class="cls-3" d="M651.51,220.24a3.07,3.07,0,0,0,2.83,2.13c3,.27,5.61,1.27,8.67,1s6-1.48,9-2a29.7,29.7,0,0,1,8.2-.1c4.69,1.15,9.32,2.43,14.11,3.28,2.06.55,4.14,1.06,6.25,1.44,3.88.69,5.54-4.41,1.64-5.1-.57-.1-1.15-.22-1.72-.34A2.88,2.88,0,0,0,699,220c-.93-.12-1.86-.27-2.78-.43-5.36-1.47-10.71-3.29-16.23-3.8-1.53-.36-3.06-.7-4.62-1-5.58-1-13.23-3.83-19.05-3.42a3,3,0,0,0-2.44-.82c-1.66.15-3.09,1.11-3.09,2.65a2.49,2.49,0,0,0,.64,1.57c0,.18,0,.37,0,.55a11.5,11.5,0,0,1-.54,2.63A2.56,2.56,0,0,0,651.51,220.24Zm-.11-5.94h0v0s0,0,0,0A.19.19,0,0,0,651.4,214.3Z"/><path class="cls-3" d="M727.42,228.21a2.42,2.42,0,0,0-2.88-1.81h-.14a3.26,3.26,0,0,0-.47.09h-.09l-.12,0v0c-12,3.79-21.75,1.76-33.57-.53-6.18-1.19-12.07-.3-18,.54a3.72,3.72,0,0,0-1.48,0,40.82,40.82,0,0,1-4.56.72l-.78.06-1.14.09-1,.06c-.7,0-1.4,0-2.1,0h0A62.05,62.05,0,0,0,636,227c-4.63.76-9.27,1.8-13.78,3-1.32.34-6.22,1.91-9.08,2.67a3.21,3.21,0,0,0-1.82-.43c-31.72,1-67.42-3.28-94.72,14-2.23,1.42-1.74,4.16.79,4.78a3.28,3.28,0,0,0,2.79,1.55c7.89.08,15.85-1.72,23.84-1.69,15.43.07,30.7.14,46.1-.62,13.09-.65,26.7-.22,39.81.15,8.75.25,18.61,2.49,27.25,1a3.7,3.7,0,0,0,.75-.21c21.09,0,42.24,0,63.34,0a3.26,3.26,0,0,0,1.87-.52,3.09,3.09,0,0,0,1.88-.46c3-1.8,2.07-6.2,2.26-9a73.41,73.41,0,0,0,.34-12.13A3.12,3.12,0,0,0,727.42,228.21Zm-9.61,8.36a2.3,2.3,0,0,0-.26,0l.26,0ZM593.38,242h.73Z"/><path class="cls-1" d="M291.54,119.28l.74.26h0c1.15.26,3,2.63,3.77,3.35,1.46,1.31,3.21,2.31,4.72,3.57a73.86,73.86,0,0,1,7.11,6.92,4.54,4.54,0,0,0,4.93-.09c3.22-2.61,7.16-4.55,10.86-6.6,2.14-1.19,4.34-2.27,6.52-3.41,1.71-.88,3.85-1.31,5.42-2.3a2.59,2.59,0,0,0,1.32-2.12c.67-1.35.21-3.05-1.94-3.41-3.37-.57-6.73-2.23-9.75-3.58-2.07-.93-4.08-2-6-3.1-1.08-.63-2.08-1.37-3.18-2-.5-.26-2.32-1.56-1.14-.51a3.13,3.13,0,0,0-3.75-.32,32.3,32.3,0,0,0-9.31,2.86c-2.8,1.49-5.41,3.25-8,5a2.86,2.86,0,0,0-.63.55C290.32,114.35,288.48,118.16,291.54,119.28Zm20.52-8,.57.39c-.19-.06-.39-.13-.59-.18l-.5-.1Z"/><path class="cls-1" d="M345.75,110.7a2.3,2.3,0,0,0,.26.52,2.16,2.16,0,0,0,.1.7,3.21,3.21,0,0,0,3.8,1.84c.2-.06.39-.12.59-.2a2.41,2.41,0,0,0,1-.55c.51-.22,0,0,0,0l1-.28c.22-.06,1.55-.52.92-.32,1.56-.49,2.63-1.79,2.16-3.25a2.74,2.74,0,0,0-1-1.32,1.15,1.15,0,0,0-.14-.17,73.91,73.91,0,0,1-14.12-20.26c-2.8-5.63-3.48-11.19-5-17a6.25,6.25,0,0,0,.17-3.85c-1-3.29-7-1.89-6,1.41,0,.11,0,.26,0,.38a2.19,2.19,0,0,0-.54,2.24l.06.23c-.95,2.54-2.93,5.66-3.27,7.44a22.8,22.8,0,0,0,1.55,13.33C330.83,99.72,343.13,102.58,345.75,110.7Z"/><path class="cls-1" d="M371.14,105a2,2,0,0,0,.42,1.41,3.67,3.67,0,0,0,3.1,1.44c.25,0,.26,0,0,0l.67.07.74.07c.4,0,.49,0,.25,0l.14,0,1.08.13a6.79,6.79,0,0,0,.78,0,4.74,4.74,0,0,0,3-1.12,2.26,2.26,0,0,0,.23-.31,3.92,3.92,0,0,0,1.18-.26c4.89-1.92,1.44-9.33-.56-12.07-.83-1.13-2.21-1.93-3.05-3.06-2.66-3.56-2.78-8.25-3.15-12.29-.08-1-.12-1.87-.12-2.79a35.06,35.06,0,0,0,1.4-13.75c-.37-3.35-6.56-3.39-6.19,0a23.3,23.3,0,0,1,.11,3.42,2.56,2.56,0,0,0-.75,1.49c-.29,2.13-.51,4.26-.64,6.4-1.12,3.8-2.68,7.51-3.81,11.57-2.37,8.54-.84,12.48,4.75,19.26A2.73,2.73,0,0,0,371.14,105Z"/><path class="cls-1" d="M418.61,114.9c-.19.22-.38.44-.55.67-2.06,2.92,3.29,5.58,5.35,2.67.79-1.13,2-2,2.81-3.16a29.73,29.73,0,0,0,2.46-4.35c1-2,1.52-3.75,3.34-5.36a23.81,23.81,0,0,1,4.15-2.47l.11-.08a2.67,2.67,0,0,0,1.5-3.06,2.91,2.91,0,0,0-2.88-1.86,2.32,2.32,0,0,0-.37,0,5.23,5.23,0,0,0-.56,0c-2.49.29-5.06,1.54-7.41,2.34-1.23.42-2.41.9-3.6,1.4-.56.23-1.11.46-1.65.72-.09,0-.47.26-.78.44h-.06l-.17,0c-1.47.32-2.79,1.94-2.16,3.25a15.07,15.07,0,0,1,1.38,4.77,7.45,7.45,0,0,1-.84,3.75A1.64,1.64,0,0,0,418.61,114.9Z"/><path class="cls-1" d="M399.75,169a29.61,29.61,0,0,0,.82,3.63c.48,1.63,1.5,3.28,1.46,5a2.19,2.19,0,0,0,.27,1.14,2.25,2.25,0,0,0,.8,2.35,3.49,3.49,0,0,0,4.37,0,32.27,32.27,0,0,1,3.18-3.23c1.17-.92,2.37-1.77,3.49-2.74a2.25,2.25,0,0,0,.88-1.77,2.31,2.31,0,0,0,1.5-1.7c1.15-5,2.06-8.83,4.73-13.44,3.1-5.34.17-11.26,2.25-16.81h0l.17-.17c2.06-2.69-2.58-5.2-4.94-3.1a26.26,26.26,0,0,1-4.52,2.07c-2.77.7-5.31-.4-7.79-1.23a2.65,2.65,0,0,0-3.66,3,2.26,2.26,0,0,0-.41.9,2.74,2.74,0,0,0-.84,1.1c-1.64,4-1.21,7-1.22,11.2S399,163.17,399,167.25A2.28,2.28,0,0,0,399.75,169Zm8.58-23.79c-.08.07-.12.17-.2.25,0-.13,0-.26.05-.39l.25.06Z"/><path class="cls-1" d="M351.68,141.45c-1.95,5,.37,10.72,2.34,15.5,2.83,6.85,9,12.16,10.86,19.25a2.21,2.21,0,0,0,.24.52c-.45,2.34,3.89,4.06,5.86,1.63a26.9,26.9,0,0,0,5.9-17.76c-.47-6.81-6.08-12.33-4.67-19.26a2.33,2.33,0,0,0,.14-.81v-.09a2.31,2.31,0,0,0-1.09-1.91c.62-2.46-3.84-4.31-5.78-1.77.71-.94-.2-.14-1,.14a25.59,25.59,0,0,1-3.6,1c-2.18.4-4.22-.06-6.4,0A2.69,2.69,0,0,0,351.68,141.45Z"/><path class="cls-1" d="M437.21,180.29c0-.1-2.44,3.37-2.85,4-1.61,2.52-3.8,4.52-5.87,6.78a21.18,21.18,0,0,0-3.47,5.13c-1.2,2.41-3,4.5-4.22,6.87-2.38,1.77.53,5.54,3.82,4.16,7.4-3.11,15.67-4.2,23.38-6.51a2.68,2.68,0,0,0,2.11-2.61,1.91,1.91,0,0,0-.42-2.09c-1.38-1.62-2.16-2.34-2.15-4.47,0-1.5.23-3,.2-4.51a9.18,9.18,0,0,0-3.77-7.43,3.21,3.21,0,0,0-.71-.37c0-.12,0-.25-.08-.36C442.06,175.63,436.09,177,437.21,180.29Z"/><path class="cls-1" d="M344.45,183.29c0-.28-.05-.54-.05-.83a2.8,2.8,0,0,0-2.28-2.55l-.13,0c-2.71-.48-4.34,1.87-3.73,3.56.3,8.41,2.34,17.42,7.94,24.47,5.94,7.47,12.75,11.78,15.95,20.67a2.79,2.79,0,0,0,2.14,1.77,4.17,4.17,0,0,0,3.7.34c.79-.3,4-.25,5.65-.33,2.91-.15,5.69-.52,8.63-.52,3.7,0,4-4.54.8-5.2C367.3,213,358,196.52,344.45,183.29ZM367,218.2l-.77-1.11c.34.37.69.72,1,1.08Z"/><path class="cls-1" d="M461.41,139.73c4.55,2.18,9.64-5,11.89-7.54,1.76-2,3.12-4.11,4.74-6.17,1.43-1.84,3.26-3.52,4.58-5.41a2,2,0,0,0,.58-1.79s0-.06,0-.09-.05-.18-.08-.27a2.76,2.76,0,0,0-1.22-1.45l-.13-.08-.28-.14-.32-.13-.14,0-.41-.1-.17,0-.33,0h-.48a2.88,2.88,0,0,0-1.81.82,72.36,72.36,0,0,0-9.38,8.37c-2.43,2.8-5.65,6-6.68,9.42C459.81,135.91,459,138.54,461.41,139.73Z"/><path class="cls-1" d="M480.56,129.3l-.11.1c-2.85,2.39,1.53,6.12,4.37,3.74,6.1-5.13,9.23-12.43,16.64-16.4,1.29-.69,4.3-2.49,6-1.56,3.15,1.69.11,4.92-1,6.44-2.21,3-4.83,5.79-6.84,8.89a2.23,2.23,0,0,0-.39,1.61,2.86,2.86,0,0,0,4.45,2.44c6.93-4.28,15.21-7,20.47-13.06,4.46-5.12,5.84-12,10.21-17,4.08-4.66,13-6.26,12.49-13.73-.19-2.87-2.43-7.93-5.24-9.46-3.41-1.84-8-.76-11.72-2.58a3.21,3.21,0,0,0-2.76-.12,2.6,2.6,0,0,0-2.47,1.35c-.8,1.42-3.25,2.7-4.76,3.5a8.92,8.92,0,0,1-5,.94,2.74,2.74,0,0,0-2.8,1.6,2.26,2.26,0,0,0-.8,1.76c0,9.7-5.5,17.23-15.36,21.46a3.56,3.56,0,0,0-3.2,1c-5.07,5.61-6.88,12.75-11.77,18.39A2.64,2.64,0,0,0,480.56,129.3Z"/><path class="cls-1" d="M510.18,154.21c-2.52-3.45-9.23-1.45-11.51,1.16-1.36,1.55-2.57,3.33-2,5.34.31,1,1,1.79,1.16,2.85a6.88,6.88,0,0,1-.39,2.77c-.44,1.57.68,2.7,2.06,3.12a2.15,2.15,0,0,0,1,1.62,2.94,2.94,0,0,0,2.28.91,3.58,3.58,0,0,0,2.74-1.4c3.08-3.55,4.16-8.83,4-13.17h0A2.15,2.15,0,0,0,510.18,154.21Z"/><path class="cls-1" d="M522.78,150.41c1.73-2,6.38-5.73,9.11-2.86a6.14,6.14,0,0,1,.8,1.06,14.17,14.17,0,0,0,2.06,3.38,3.38,3.38,0,0,0,3.34,1.1c2.57-.33,4.1-3.57,1.24-4.85a11.94,11.94,0,0,1-1.69-4.74c-.32-2.14,0-4.62-1.42-6.53s-4.53-1.32-5.51.28h-.18c-.13,0-.24,0-.36,0a13.94,13.94,0,0,0-4.12,1c-.72.26-1.5.51-2.21.84-1.62-.33-3.57.35-3.9,2l-.08.14c-.17.33-.32.65-.48,1s-.32.84-.49,1.27-.42,1-.59,1.5-.65,1.27.13.42a3,3,0,0,0-.85,2.11,1,1,0,0,0-.14.15C515.09,150.5,520.46,153.14,522.78,150.41Z"/><path class="cls-1" d="M550.4,132.11c1.05,2.54,5,2.18,6,.31a2.48,2.48,0,0,0,.52-.88,13.4,13.4,0,0,1,4.34-6,3,3,0,0,0,1.61-1.22,2.21,2.21,0,0,0,.71-1.66,3,3,0,0,0-3.09-2.65,8.62,8.62,0,0,0-1.14.1l-.28,0a3.16,3.16,0,0,0-1.38-.41,3.51,3.51,0,0,0-4.07.88,19.41,19.41,0,0,0-1.68,1.83,15.12,15.12,0,0,0-1.56,3.37,6.65,6.65,0,0,0-.41,3.35A12.36,12.36,0,0,0,550.4,132.11Z"/><path class="cls-1" d="M544.52,173.36c-2.34-.72-4.63-1.81-7-.38-2.06,1.25-2.29,3.62-1.71,5.53,1,3.19,4.93,9-1.39,8.46a3.39,3.39,0,0,0-2.21-.17c-3.4-1.36-6.32,3-2.91,4.64,7.68,3.62,18.72,7.3,27.45,7.41,5.69.07,11.19-1,16.93-.7,4.53.24,10.3,1.29,14.37-1a2.44,2.44,0,0,0,.84-3.8,2.18,2.18,0,0,0-.41-.82c-.34-.46-1.06-1.11-1-1.63s1.2-1.27,1.71-1.7a13.79,13.79,0,0,1,5.43-2.93c3.73-1.06,2.27-5.76-1.55-5.11a3,3,0,0,0-1-1.08c1.37.9-.23-.61-.43-1.2a3.39,3.39,0,0,1,.59-2.64,18.87,18.87,0,0,0,2.21-5.65c.22-1.49-.86-2.31-2.19-2.48a3.76,3.76,0,0,0-1.26-.28c-1.88-.06-.55-.14-.83-1.36s.12-2.42,0-3.58a14.85,14.85,0,0,0-1.65-5.08,38.49,38.49,0,0,0-7.2-9.2,2.91,2.91,0,0,0-4-.18,3.05,3.05,0,0,0-1.06.86c-2,2.63-4.63,4.64-6.23,7.56-.6,1.1-1.64,3.47-3.55,3.43-1.31,0-3.07-2-3.84-2.77A3,3,0,0,0,558,158a2.93,2.93,0,0,0-1.87,2.43,16.51,16.51,0,0,0-.34,2.4c0,.68.07,1.22-.58,1.65a4.42,4.42,0,0,1-.56.21,1.55,1.55,0,0,0-.23-.2c-.4-.54-1.57-1.09-2.08-1.62a3.5,3.5,0,0,0-4.38,0,2.26,2.26,0,0,0-.75,2.51,2.09,2.09,0,0,0-.32,1.37C547.14,169.2,549.4,174.86,544.52,173.36Zm23.86-3.61c-.06-.05-.14-.09-.21-.14l.34-.08C568.47,169.6,568.42,169.67,568.38,169.75Zm-5.6,23.06.06.32-.27,0Zm13.24.27.15.29-.37,0Zm10.72-9,.12-.11a3.06,3.06,0,0,0,.67-.48l0,.05C587.28,183.66,587,183.86,586.74,184Z"/><path class="cls-1" d="M565.77,107.45a5.81,5.81,0,0,0,.5,1.11,14.33,14.33,0,0,0,.86,1.23c.57.83.65,1.78,1.14,2.65a3.47,3.47,0,0,0,3.68,1.2,3.56,3.56,0,0,0,3.67-1.17c1.88-2.1,4.32-3.57,6.52-5.39a20.56,20.56,0,0,1,3-2.26c1-.55,2.12-.79,2.88-1.59a2.45,2.45,0,0,0,.11-3.41,2.87,2.87,0,0,0-1.52-2.48,6.08,6.08,0,0,0-2.07-.73l-.52-.13a6.62,6.62,0,0,0-4.91-.21,3.66,3.66,0,0,0-1,.84c-.79.49-1.58.92-2.43,1.36a4.33,4.33,0,0,1-2.59.88c-1.66-.19-3.32.34-3.81,1.85a1.7,1.7,0,0,0-.08.51l-.07,0a13.32,13.32,0,0,1-2,1.11c-1.91.64-3.37,3-1.36,4.42Q565.61,106.76,565.77,107.45Z"/><path class="cls-1" d="M596.74,111.94c2-.84,3.3-2,5.71-2.51,3.3-.64,6.43.23,9.6.87a96.16,96.16,0,0,0,12.55,1.87,2.49,2.49,0,0,0,3-2.41c5.06-3.62,8.43-9,12.58-13.26.68-.7,1.48-2,2.45-2.33,3.12-1.2,3.06.74,4.63,2.36a14.63,14.63,0,0,0,2,1.43,4.77,4.77,0,0,0,3.42,2.61c0,.06,0,.1.08.15a2.35,2.35,0,0,0,.38,1.58,3.39,3.39,0,0,0,3.61,1.16h.06a2.79,2.79,0,0,0,1.83-1l.34-.23a3.21,3.21,0,0,0,.51-.46s0,0,0,0l.08,0a2.7,2.7,0,0,0,1.86-1.71,39,39,0,0,1,4.21-8.51c1.74-2.75,1.73-5.93,3.31-8.74a2.41,2.41,0,0,0,.33-1.22c1.06-1.77-.51-3.74-2.75-3.84.09,0,.53.1.18,0s-.76-.31-1.16-.44-.64-.21-1-.3c-1.29-1.28-2.55-2.58-3.92-3.88-1.69-1.6-2.37-2.69-5-2.88-3.61-.25-6.73,2.74-10.12,3.36-3,.54-3.53-1.11-7.18.46-7.45,3.21-13.38,10.17-20.06,14.44s-14.31,7.41-20.92,11.71c-1.56,0-3.15.84-3.2,2.55s-1.23,3.68-1.77,5.45c0,.1,0,.18-.05.27C591.18,110.3,593.81,113.15,596.74,111.94ZM617.9,99.28c1.18-.63,2.35-1.27,3.51-1.93A24.31,24.31,0,0,1,617.9,99.28Z"/><path class="cls-1" d="M719.16,112.07c-.89-1.25-2.57-1.88-3.8-2.81-.76-.58-1.43-1.19-2.13-1.82-.34-.31-.68-.62-1.05-.91l-.45-.33c.24-1.67-1.7-3.42-3.91-3a15.25,15.25,0,0,1-4.16.29c-.08,0-1.34-.14-1.31-.1a13.42,13.42,0,0,0-2-.61c-1.65-.2-3.32.34-3.8,1.84a2.33,2.33,0,0,0,0,1.38,19.39,19.39,0,0,0-7.54,6.72c-2.43,3.92-3.15,8.24-6.53,11.79-2.57.91-3.21,4.52.08,4.91,5.23.62,11.29-2.43,15.91-4.27,6.48-2.57,13.45-5.4,19-9.26a3.05,3.05,0,0,0,.38-.32C719.34,115,720.21,113.56,719.16,112.07Z"/><path class="cls-1" d="M682.65,136.66a3.15,3.15,0,0,0-1-1.22,3,3,0,0,0-2.38-1,32,32,0,0,0-5.54,0l-.32,0a2.19,2.19,0,0,1,0-.64c.79-1.13,2.19-2.12,2.79-3.34a2.57,2.57,0,0,0-.27-3,3.14,3.14,0,0,0-4.43-1.56c-8.26,4.14-14.27,10.47-23.24,13.71a94.11,94.11,0,0,1-12,3.39c-2.6.57-6.83,2.13-10,2.26-1.09-2-5.1-2.41-5.77.28-.75,3-5.45,6.53-8,8.49-1.78,1.36-4.23,3.48-6.81,5.1-1.95.69-3.84,1.46-5.64,2.28a2.13,2.13,0,0,0-2,1.95c-.28,1.66,1.53,3.52,3.74,3.1h.14a17.3,17.3,0,0,0,6.53-2.54c1.76-.6,3.55-1.15,5.21-1.62a50.78,50.78,0,0,1,10.58-1.79l.08,0a3.24,3.24,0,0,0,2.91,0c8-3.93,14.06-6.76,23.43-8.17,5.37-.81,10.74-1.27,16.15-.1,4.62,1,8.7,2.8,13.49,3.27a2.51,2.51,0,0,0,2.68-1.22,3,3,0,0,0,.62-.85c1.41-3,2.47-5.75,2-9C685.11,141.45,683.79,139.37,682.65,136.66Z"/><path class="cls-1" d="M627.71,172.43c1.19,1.7,3.47,1.58,5.3.84,1.45-.59,3-1.07,4.38-1.74.89-.43,1.79-.9,2.72-1.25a11.71,11.71,0,0,0,2.42-.91c2.47-1.6,1.64-4.67-1.56-4.92-1.89-.16-3.69.21-5.62,0a10.14,10.14,0,0,0-4.81.11c-2.11-.36-4.57,1-3.6,3.12C627.62,169.14,626.73,171,627.71,172.43Z"/><path class="cls-1" d="M669.74,187c0-.69,0-1.39-.09-2.1-.3-3.37-6.49-3.4-6.19,0,0,.44.07.87.08,1.31a2.39,2.39,0,0,0,0,1.94c-.11,5.86-1.48,11.37,1.26,17.26l.09.14a2.09,2.09,0,0,0,0,.36,3,3,0,0,0,1.66,2.58,9.1,9.1,0,0,0,1,.39l.68.33a16.67,16.67,0,0,0,5.2,1.22,4.12,4.12,0,0,0,.51,0c2.71.32,5.33-2.55,2.77-4.35C670,201.26,673.09,192.87,669.74,187Z"/><path class="cls-1" d="M639.32,207.7c-4.94-1.72-12.65-2.77-17.91-3.26a60.22,60.22,0,0,0-9.11.26,31.71,31.71,0,0,1-3.66,0,26.86,26.86,0,0,0-3.83-.37c-1.21-.14-2.43-.28-3.69-.39h-.31a3.55,3.55,0,0,0-4.06-.72,2.5,2.5,0,0,0-1.11,3.62,4.62,4.62,0,0,1-.93,4.29,2.14,2.14,0,0,0-.55,3,1.87,1.87,0,0,0,0,.25c-.23,3.48,3.2,4.75,6.23,6.3a13.74,13.74,0,0,1,3.69,2.26c1,1,1,2.2,1.61,3.34a2.48,2.48,0,0,0,2,1.35,3.23,3.23,0,0,0,1.94.63c6.8.18,13.14-2.46,19.54-4.14a43.68,43.68,0,0,1,10.51-1.61c1.35,0,3.2.37,4.56-.08a2.76,2.76,0,0,0,2.64-.83C651.48,216.67,644.59,209.54,639.32,207.7Zm-28.41,15.1.27,0h-.25Zm21.38-5h.65l-.6.12S632.31,217.84,632.29,217.79Z"/><path class="cls-1" d="M600,224.33c-2.42-.54-4.42-2-6.68-2.88a36.49,36.49,0,0,0-10.36-2,85.47,85.47,0,0,0-11.57.17c-26.62-3.19-51.79,4.79-78.14,7.53a3.41,3.41,0,0,0-1.84.73c-5.68.38-11.32,1.19-17.11.93-7.57-.34-14.67-.71-22.26,0-17.6,1.58-35.22,3.8-52.91,4.77a3.83,3.83,0,0,0-.93-.11H398a3.76,3.76,0,0,0-.86.1l-2.46.22-1.54.08a3.45,3.45,0,0,0-.89.15c-2.63.21-5.26.38-7.88.53-21.78.58-43.48,2.86-65.27,3.47a2.92,2.92,0,0,0-2.71,1.59c-12.5,1.21-25,2.44-37.45,3.89h0l-.82.1c-3.51.41-2.57,5.19.82,5.19,19.62,0,39.7,1.29,59.39.24a3.11,3.11,0,0,0,2.08.7c13.13,0,26.18,2,39.34,1.4,14.62-.61,29.29-2.4,44-2.24,12,2.33,25.44,1.35,37.67,2.07,12,.69,25.47,1.43,37.47-.71a3,3,0,0,0,2.25.06c.25-.08.49-.18.74-.27h0c5.62-1.89,10.91-4.65,16.38-6.83a2.17,2.17,0,0,0,1.59-2c7.25-2.76,14.71-4.92,22.31-7.13a3.67,3.67,0,0,0,3.33.38c8.44-3.06,16.66-6,26-5.8,8.2.16,16.35,1,24.57,1.08a3.31,3.31,0,0,0,1.84-.5h0l.57.14C602.23,230.29,603.86,225.24,600,224.33ZM440.79,235.22v0l.4,0Z"/><path class="cls-2" d="M255.46,550c-2.8-.66-4.39-5-5.65-7.32-1.67-3.06-3.79-5.83-5.69-8.73-3.84-5.89-5.82-12-8-18.59-2-6-3.22-12.17-6-17.88-2-4-3.28-8.53-5-12.72a3,3,0,0,0,0-.6c-.54-5.24-2.64-10.16-3.53-15.33-.63-3.63-.22-7.52-2.67-10.53s-5.64-6.91-8.84-9.34c-4-3-9-5.32-13.44-7.49-9-4.38-16.67-10.94-26.06-14.68-3.5-1.4-7.08-2.59-10.6-4a61.85,61.85,0,0,0-7.29-2.34c-1.62-.4-3.19-.61-4.83-.91l-1.51-.35c-.57-.27-1.14-.53-1.71-.77-7.92-3.36-15.91-6.16-23.52-10.21A22.66,22.66,0,0,1,117,403s0,0,0,0a11.3,11.3,0,0,1-.83-3.08,3.15,3.15,0,0,0-2.08-2.45,2.25,2.25,0,0,0-1.36-.06,6.9,6.9,0,0,0-2,.89,2.59,2.59,0,0,0-.92,3.51c-.48,3.56,1.81,7.54,3.39,10.9a108,108,0,0,0,11.22,18.51,64.89,64.89,0,0,0,6.43,7.79c.53.53,1.09,1,1.65,1.56a2.55,2.55,0,0,0,.35,1.12,51.78,51.78,0,0,1,5.45,12.56,51.06,51.06,0,0,0,3.37,9.47,2.15,2.15,0,0,0,2,1.3c.25.66.5,1.32.75,2a2.72,2.72,0,0,0,1.92,1.69,14.13,14.13,0,0,0,7.43,4.79,32.49,32.49,0,0,0,4.83,2.81c4.16,1.94,7.9,4.63,12.25,6.16a83,83,0,0,0,14.19,3.37c3.07.49,5.59.47,7.38,3,.93,2.71.91,6.22,1.45,8.7a60.08,60.08,0,0,0,3.08,10.1,130.39,130.39,0,0,0,10.57,19.74,79.27,79.27,0,0,0,12.33,14.94c5.09,4.92,9.88,10.45,15.18,15.09a2.64,2.64,0,0,0,3.86-.39c2.3-.27,4.56-1,6.86-1.2,3.08-.34,6,0,9.13-.06a2.49,2.49,0,0,0,2.46-2.85A2.3,2.3,0,0,0,255.46,550ZM218.63,508c-.07-.26-.14-.51-.2-.77.07.26.15.51.23.77Zm-53.12-47.21a12.41,12.41,0,0,1-2.85-2.3l-.21-.25Q164,459.53,165.51,460.77Zm63.08,76.15v0h0Zm-22.8-22.43,0,.15c-.28-.51-.55-1-.82-1.54C205.22,513.57,205.51,514,205.79,514.49Zm37.7,36.24.2.13-.34.07C243.4,550.87,243.44,550.8,243.49,550.73Zm-29.74-90.54a2.5,2.5,0,0,0-.41-.25c-.05-.11-.09-.21-.14-.31Z"/><path class="cls-2" d="M283.74,547.91a2.19,2.19,0,0,0-1.22-1.41c-2.89-1.44-5.36-4.43-7.4-6.84-3-3.6-5.89-6.71-8.08-10.93-4.31-8.29-9.51-15.78-14.39-23.74-4.15-6.76-7.64-13.85-11.76-20.63a65.72,65.72,0,0,1-5.29-11.61c-1.14-3.15-2-7-4-9.68a2.6,2.6,0,0,0-2.2-1.09c-1.3-2.88-6.12-1.56-4.9,1.47,3.19,8,3.28,17.28,5.36,25.59,1.12,4.45,3,8.5,4.5,12.82a105.34,105.34,0,0,0,5.58,14.3c2.28,4.45,4.57,8.74,6.58,13.33A45.78,45.78,0,0,0,253,540.34c4.4,5.31,9.22,13.8,15.72,16.6a2.7,2.7,0,0,0,3-.53,7.24,7.24,0,0,0,4-1.2c1.3-.72,2.64-1.42,3.9-2.17a22.59,22.59,0,0,0,3.63-2.31A2.21,2.21,0,0,0,283.74,547.91ZM271,543c0-.1-.1-.21-.16-.31l.28.31ZM253.82,532.5h0l0-.08Z"/><path class="cls-2" d="M177.85,362.38c7.06-4.29,14.7-7.49,21.47-12.3,2.23-1.58,4.46-3.15,6.68-4.74a2.17,2.17,0,0,0,.89-.12c5.85-2,9.94-6.81,14.91-10.19a2.62,2.62,0,0,0,.81-.89q2.38-1.33,4.8-2.59a6.38,6.38,0,0,0,1.49-2.45l0-.18a2.53,2.53,0,0,0-1.63-2.87c-2.13-1.4-3.08-4.8-4-6.87-1.27-2.77-2.46-5.59-3.79-8.34-2.56-5.33-5.15-11.12-9.37-15.32-3.93-3.92-7.3-8.18-11.29-12-2.78-2.71-6.5-6.65-10.37-7.93a1.9,1.9,0,0,0-1.55-.48h-.12a2.53,2.53,0,0,0-1.58.8l0-.09a129.69,129.69,0,0,1-9.47,9c-1.58,1.3-3.05,2.55-4.5,4-.84.84-1.71,1.65-2.56,2.48l-1.85,1.83-.13.16a4.9,4.9,0,0,0-1.65,3.58c.26,1.22,1.13,1.51,2.1,2a8.58,8.58,0,0,1,3.36,2.53c2.38,2.93,5.83,8.11,2.17,11.62-1.42.71-2.21,2.52-.65,3.75.68.54.29,3.45.22,4.31a11.35,11.35,0,0,1-1.35,4.38c-1.23,2.23-3.65,3.1-6,3.53a2,2,0,0,0-1.61,1.23,2.3,2.3,0,0,0-.49.87c-1.85,5.6-10.42,6.15-15.43,7.64-3.05.91-8.67,2.84-10.29,6-2.48,2.84-3.95,7.39-5.27,10.76-1.53,3.87-2,7.74-2.64,11.76a2.45,2.45,0,0,0,0,.94,2,2,0,0,0,0,1.71c1.06,2.68,2.8,4.91,4.28,7.35,1.32,2.15,2.76,4.65,5.32,5.51a2.36,2.36,0,0,0,.81.13,2.61,2.61,0,0,0,.53.26c2.08.73,4.72-.88,6.55-1.73,3.64-1.69,6.66-4.06,10-6.28C163.37,370.5,170.8,366.67,177.85,362.38Zm-2.43-4.31,1.65-1a2,2,0,0,0,.28-.2c1.26-.62,2.52-1.23,3.8-1.8-.36.19-.72.38-1.1.56C178.5,356.41,177,357.23,175.42,358.07Z"/><path class="cls-2" d="M242,373.91a70.63,70.63,0,0,1-.53-7.35,87.6,87.6,0,0,0-1.58-12.8,85.48,85.48,0,0,0-3.25-13.58,18,18,0,0,0-1.76-4,2.63,2.63,0,0,0-4.29-1.93c-5.71,4.83-12.5,7.54-18.66,11.73-6.74,4.58-12.73,10-19.93,13.89-12.07,6.57-25,11.75-36.81,18.76a2.42,2.42,0,0,0-.37,3.89,2.26,2.26,0,0,0,2.46.8c6.37-1.67,12.95-.93,19.49-1.09,8.2-.2,16.34-.8,24.55-.88,5.95-.05,11.82-1.27,17.66-2.27,6.29-1.09,12.75-2.88,19.07-1.42a.36.36,0,0,0,0,.11c1,2.28,3.76,1.23,4.34-.72A2.61,2.61,0,0,0,242,373.91Zm-10.5-33.58a2.34,2.34,0,0,0-.59-.23l.43-.3Z"/><path class="cls-3" d="M118.66,239.89a14.64,14.64,0,0,0,.69-2c3.13-1.45,6.39-2.3,7.48-6,.93-3.12.89-6.84,1.72-10.09a19.2,19.2,0,0,1,1.53-4.29l.21,1a2.06,2.06,0,0,0,1.79,1.69,2.44,2.44,0,0,0,2.5.06,6.49,6.49,0,0,0,2.61-3.58c.42-1.07.95-2.13,1.35-3.23,6-.7,9.26-5.87,9.14-12.21-.13-7.23-4.24-13.32-8.67-18.6-9.73-11.59-22.84-21.8-38.6-22.66-16.72-.91-33.07,7-39,23.12a151.91,151.91,0,0,0-6.69,25.95,62.25,62.25,0,0,0-.87,12.42c.08,3.63,2,6.7,3.11,10.08,1,2.92,1.64,6.08,4.24,8.05,2.34,1.77,4.7,2.24,6.58,4.74C69,246,69.52,248,70.73,249.59c4.51,5.92,12.52.73,16.41-3.34a18.94,18.94,0,0,0,2.16.15c3.19,6.28,10.21,7.93,17,6,3.19-.9,6.48-3.64,9-6.87a11.65,11.65,0,0,1,.06,2.26c-.56,5.37-4.41,6.63-8.92,7.54-4.71,1-9.11,2.62-14,2.42-3.17-.13-3.16,4.79,0,4.92a38.71,38.71,0,0,0,11.7-1.69c3.84-1.05,8.64-1.15,11.89-3.67C120.81,253.59,121.68,245.1,118.66,239.89Zm-44.45,6c-1.77-2.29-2.54-5-4.82-7.15-1.34-1.22-3.09-1.48-4.46-2.52-2.16-1.63-2.26-3.18-3-5.38-1-3-2.79-6.17-3.13-9.28-.88-7.83,1.36-16.44,3.52-23.91,2.47-8.55,3.92-18.15,11.05-24.2,13.81-11.71,32.63-10.07,47.2-1.11,6.13,3.77,11.09,9.09,15.55,14.69,2.5,3.14,4.51,5.71,5.63,9.64,1.22,4.27,1.78,12.1-4.7,12a2.33,2.33,0,0,0-1.49.48,2.23,2.23,0,0,0-1.33,1.55,7.76,7.76,0,0,1-.36,1.25c-.58-2.38-1.23-4.75-2-7.07-.9-2.69-1.26-6.54-3.24-8.71a2.48,2.48,0,0,0,0-.27l0-.19a2.49,2.49,0,0,0-2.37-1.8c-11.13-.35-20.69,6.34-27.1,14.87-3.49,4.65-5.51,9.75-5.16,15.62.2,3.38.73,6.59.69,10,0,2.4.24,3.28-1.42,5.19s-3.53,2.2-6.09,1.66a2.41,2.41,0,0,0-1.93.37,2.29,2.29,0,0,0-1.12.7C82,244.66,77.09,249.62,74.21,245.89Zm20.33-.38A8,8,0,0,0,97.92,243c3.24-4.23,1.6-12.25,1.07-17-1.48-13.53,12.13-26.39,25.41-27.09a2.24,2.24,0,0,0,.3.32c1,.9,1.37,3.92,1.8,5.21.48,1.44,1,2.86,1.42,4.31.25.85.48,1.69.71,2.54-3,3.09-4.27,6.73-5.22,10.93-.56,2.49-.84,5.06-1.43,7.54-.67,2.82-3,2.91-5.4,4a2.28,2.28,0,0,0-.9.75,2.16,2.16,0,0,0-.89,1.39C113,243.92,100.47,253.22,94.54,245.51Z"/><path class="cls-3" d="M167.31,312.61c.36-2.09,2.6-3.25,2.81-5.6a2.12,2.12,0,0,0-.5-1.65c-.07-.09-.13-.19-.22-.29-3.79-4.17-10.42-5.82-15.78-6.64-6.2-1-13.64-.76-19.58,1.42-4.82,1.77-8.13,6.74-9.79,11.42-2.3,6.5-2.22,13.5-9.45,16.63a2.56,2.56,0,0,0-2.13,3,1.16,1.16,0,0,1,0,.18,2.46,2.46,0,0,0,3,1.72c3.49-1.39,7.72-4.34,9.52-7.67,2.95-5.46,2.52-11.88,6.23-17.07s10.3-5,16.05-5.12c5.21-.08,12.85.9,17.26,4.54a13.31,13.31,0,0,0-2.52,3.42c-1,3.13,2.22,5.41,1.84,8.19s-4.43,2.48-6.26,4.24c-2.08,2-2.47,4-5.32,5.59-3.36,1.83-7,2.07-10.5,3.54a60.24,60.24,0,0,0-10.62,5.9c-4,2.75-7.81,6.7-12.09,8.88-2.82,1.44-.33,5.69,2.48,4.25,5.39-2.75,9.92-7.62,15.13-10.79a51.29,51.29,0,0,1,12.51-5.27,25.53,25.53,0,0,0,9.35-4.73,30.07,30.07,0,0,0,2.26-2.9c1.28-1.47.35-.55,2.09-1.21,2.66-1,4.67-2.49,5.59-5.38C169.75,318,166.83,315.46,167.31,312.61Z"/><path class="cls-1" d="M47.13,244.35c2.52.77,4.45,1.06,6.84,2.53,3.8,2.35,6.39,5.52,9.46,8.7,2.45,2.54,5.24,5.5,8.33,7.26a42.09,42.09,0,0,0,5,2.32c1.22.49,4.22.81,5.12,1.73,2.21,2.27,5.69-1.21,3.48-3.48-.07-.07-.16-.12-.24-.19a1.68,1.68,0,0,0-.3-.4c-.5-1.18-1.33-2.21-1.84-3.4-.29-.69-.48-1.42-.74-2.12a9.3,9.3,0,0,0-.49-1.17l-.2-.31,0,0c-.21-2.12-2.79-2.6-4.12-1.45-3.07-.08-6.91-2.53-9.24-4-2.75-1.77-4.39-4.25-6.75-6.48a37.12,37.12,0,0,0-7.4-5.58,1.81,1.81,0,0,0-1.32-.62,2.54,2.54,0,0,0-2.57.44A10.06,10.06,0,0,0,46,240.24C44.6,241.51,45.45,243.83,47.13,244.35Z"/><path class="cls-1" d="M68.78,340.35a27.91,27.91,0,0,1-4.9-.85c-3-1.25-2.09-3.39-1.17-5.92,1.32-3.62,3.66-6.71,5.05-10.24,1.31-3.33,1.49-7.43,2.22-10.92a53.83,53.83,0,0,0,1.3-11.75c0-8.11-1.5-15.72-3.34-23.61-1.12-4.8-4.57-11.72-9.15-14.18-5.65-3-13.36-1.17-18.87,1.26a45.86,45.86,0,0,0-14.28,9.91c-2.21,2.29-5.68,7.35-2.24,9.51a46.5,46.5,0,0,0-.84,7.24c-.39,6.93-1.17,13.79-1.67,20.74-.47,6.42-.17,12.78-.42,19.2-.3,7.47-1.08,14.81-.22,22.29,1.13,9.75,5,21.88,14,27.16,4,2.37,10.13,4.6,14.89,3.94,5.35-.73,10.43-5,15-7.57,5.33-3,11-4.49,16.44-7,5.87-2.73,11.5-8.4,18.08-9.18a2.69,2.69,0,0,0,2.34-2.83h0l.19-.22a2.57,2.57,0,0,0,.38-3c-1.21-2.1-2.61-4.11-3.7-6.28-1.18-2.38-.65-4.66-1.37-7.1a2.28,2.28,0,0,0-1.82-1.68,2,2,0,0,0-2.06-1,39.3,39.3,0,0,0-8.84,2.05C78.89,341.86,73.81,341.23,68.78,340.35Zm-43.93-.2V340a.41.41,0,0,1,0,.11Zm.34,13.07c-.06-.41-.12-.82-.16-1.23.08.39.17.79.27,1.19Zm7-70.8L32,282.3c.48-.88,1-1.72,1.5-2.53C33.07,280.63,32.64,281.52,32.23,282.42Zm18.64,96.15.06-.09.19,0ZM84.4,349.88l-.2.14-.07-.08Z"/><path class="cls-1" d="M133.57,455.32c-2.06-3.71-3.2-8.28-6.22-11.34s-6.33-5.45-8.68-9.36A115.44,115.44,0,0,1,107,408c-1.21-4.07-2.89-8-4.19-12-.84-2.6-1-6.38-2.39-9a7.22,7.22,0,0,0-.33-3.82,9.55,9.55,0,0,0-.06-1,24,24,0,0,0-1-3.61c-.78-2.74-1.37-6.29-3-8.64s-4.6-.92-6.82-.12a12.27,12.27,0,0,0-2.23,1,2.51,2.51,0,0,0-2.72,1c-2.85.92-5.61,2.43-8.34,3.53-3.69,1.47-7.46,2.44-10.64,4.9-5.6,2.54-11.21,6.5-17.11,7.29-6.7.89-16.27-2.95-20.16-8.31-1.59-2.19-3.39-4.35-4.75-6.68-.83-1.43-1.34-3.65-2.8-4.6-.06-.2-.13-.4-.19-.59-1.7-5.16-4.26-11.31-4-16.76s-.15-10.79-.06-16.23.93-10.81,1.4-16.28,0-11.17.44-16.74c.7-8.81.26-18.38,3.24-26.82h0a2.82,2.82,0,0,0,1.31-1c3.49-4.77,5.93-8.92,11.66-11.44,4.42-1.95,10.31-3.77,15.17-3.89a2.6,2.6,0,0,0,1-.21l1.35.6c4.52,2.11,9.47,3.89,12.59,8s4.25,8.83,5.65,13.62c1.35,4.6,3.76,8.72,4.13,13.48a2.36,2.36,0,0,0,.27,3.27c1.12,7.3,1.74,16.24-1.1,22.94-2.11,5-5.75,9-7.91,13.88a2.58,2.58,0,0,0-.81,3.95,2.44,2.44,0,0,0,2.74,1.31l.25-.05a2.13,2.13,0,0,0,1-.56c6.63-.56,13-3.74,19.56-3.84a2.3,2.3,0,0,0,1.41-.45,2.45,2.45,0,0,0,1.92-1.07c1.67-2.34-1.32-6.78-1.67-9.19-.75-5.11-1.59-10.27-2.1-15.42a168.21,168.21,0,0,1-.73-17,71.58,71.58,0,0,0-2.2-18.33,2.32,2.32,0,0,0-3.52-1.41h0C78,271,73.66,267.71,71,265.61c-3.49-2.79-6.42-6.16-9.79-9.09-5.59-4.86-11.32-9.73-19-10.14a2.1,2.1,0,0,0-1.87.81,3.06,3.06,0,0,0-1.53.25c-5.48,2.42-9.45,7-13,11.68-2.5,3.28-7.41,7.9-7.75,12.39a2.22,2.22,0,0,0-1.83,1.16c-3.21,5.41-3,12.43-3.32,18.47-.41,8.25-2.31,16.32-4,24.37-1.58,7.42-3.2,15.23-4.15,22.74a122.09,122.09,0,0,1-2,12.91,53.5,53.5,0,0,0-1.61,9.49c-2.56,2.85.12,11,.28,13.62C1.8,381.16.58,388.11.51,395c-.06,6.71,2.74,13.31,3.62,20,.85,6.46,3.32,12.79,5,19.1a118.52,118.52,0,0,0,6,17.29c2.52,5.72,8.08,6.88,13.57,8.5,6.74,2,13.75-.57,20.61-.08,3.8.27,6.95-.84,10.73-1.29a48.18,48.18,0,0,1,10.87,0,106.85,106.85,0,0,0,12.4.3,42.55,42.55,0,0,1,12.81,2.44c6,1.93,12.1,6.42,18.61,6.52a45.71,45.71,0,0,0,7.13,2.59c4.41,1.23,9.83,2,13.61,4.74h0a2.54,2.54,0,0,0,1.06.32h0a2.35,2.35,0,0,0,3.59-.62c1.32-2.27-.15-4.31-1.15-6.39C136.91,464.17,135.88,459.47,133.57,455.32ZM5,366.31v0H5ZM9.36,395h0c.23.88.43,1.76.57,2.65C9.72,396.78,9.52,395.9,9.36,395Zm2.69-69.94L12,325l.21-1Zm3.06,82.47s0-.11,0-.16v-.12l.06.16A.61.61,0,0,0,15.11,407.53Zm24,32.12,0-.2,1.21.09Zm10.2,15.44.13,0,0,0Zm-.76-62.25L47,392.6a15.9,15.9,0,0,0,2.67-.27ZM51.48,417h1.91a2.3,2.3,0,0,0,.1.35C52.82,417.23,52.15,417.12,51.48,417Zm2.83,37.7a1.14,1.14,0,0,0,.15-.17l.71,0Zm35.94-69.85c0-.09-.09-.18-.14-.26.2.18.41.35.62.51ZM94.07,387c.3.1.61.18.93.26a2.22,2.22,0,0,0,.1.71A8.62,8.62,0,0,0,94.07,387Zm39.58,81.7,0-.08a1.17,1.17,0,0,0,0,.11Z"/><path class="cls-1" d="M273,581.4a22.91,22.91,0,0,0-1.4-5.76c0-.18-.08-.36-.13-.54a24,24,0,0,0-5.13-9.66,2.47,2.47,0,0,0-1-1.62c-4-2.88-10.09-2-14.69-2-3.94,0-8.74,1.9-12.63,1.29a2.73,2.73,0,0,0-.73-.11h-.08a2.61,2.61,0,0,0-1.85,4.22,4.55,4.55,0,0,0,.93,1h0l.18.16.08.07c1,2.52,1.6,4.88.73,7.56-1.12,3.46-2.45,6.18-2.45,9.88,0,4.9.42,10.44,3.18,14.65a2.39,2.39,0,0,0,1.65,1.1c1.86.7,4.38.62,6.29.93a27.57,27.57,0,0,0,7,.47,1.93,1.93,0,0,0,2.77-.46,11.6,11.6,0,0,1,7.22-3.88c2.84-.49,5.13.81,7.77,1.4,1.45,2.24,5.2-.14,4-2.87C272.66,592.36,273.57,586.53,273,581.4Z"/><path class="cls-1" d="M351.58,585.92a2.54,2.54,0,0,0-.19-1.28c-1.51-3.58-5.36-5.39-9.09-5.37-6.59,0-13.66,1.1-19.87-1.81a31.13,31.13,0,0,1-13.16-11.09c-2.65-4.12-4.58-8.82-7.52-12.74a4,4,0,0,0-.37-.43,2,2,0,0,0-1.77-2c-2.37-.46-4.25.9-6.58,1.1a59.06,59.06,0,0,1-6.76.47,2.59,2.59,0,0,0-.7.08,2.43,2.43,0,0,0-1.64.64,27.51,27.51,0,0,1-2.79,2.5c-1.22.81-2.64,1.18-3.89,1.93-.95.57-1.93,1.11-2.86,1.69-.62.39-1.32,1.1-2.05,1.51a2.48,2.48,0,0,0-2,4.17,2.74,2.74,0,0,0,1.29.82c1.07,2.86,2.94,5.32,4,8.18a41.5,41.5,0,0,1,2.73,12.32c.16,3.69-.33,7.38.63,11,.61,2.3,1.2,5.6,3.17,7.16a2.44,2.44,0,0,0,1,.49l0,0c1.59,1,4.57,0,6.27-.45a37.25,37.25,0,0,1,8-.88,2.43,2.43,0,0,0,.73-.12,2.38,2.38,0,0,0,1.63-1.1,9.92,9.92,0,0,1,2.87-2.65,6.08,6.08,0,0,1,.79-.1,25.27,25.27,0,0,1,4.26,0c2.44.27,6.17,2.87,8.52,2a2.28,2.28,0,0,0,.82-.48c11.41-3,21.2-10.81,32.88-12.8A2.07,2.07,0,0,0,351.58,585.92Zm-53.45-7.66c0-.06,0-.11-.05-.16l.11.12Zm28.58,14.35h0l.08,0Z"/><path class="cls-1" d="M101.34,343.41c.84,2.72,1.82,5.3,2.83,7.95.63,1.62,1.23,3.06,3.22,3.27,1.46.15,3.3-.62,3.71-2.12a1.41,1.41,0,0,0,.42-1.91,22.94,22.94,0,0,1-3-6.91c-.32-1.15-.59-2.3-.81-3.47-.27-1.47.07-3.4-.45-4.75a1.54,1.54,0,0,0-1.82-1c-1.61.35-4.44.1-5.45,1.74a1.47,1.47,0,0,0,.1,1.61C99.78,339.56,100.89,342,101.34,343.41Z"/><path class="cls-1" d="M106.52,359.34a2.1,2.1,0,0,0-2.56,1.14c-2,3.92-3.59,7.32-3.51,11.84,0,2.93.27,7,2.59,9.05A2.39,2.39,0,0,0,105,382a2.85,2.85,0,0,0,.91.27c6.75.77,13.27-.08,20-.17a1.85,1.85,0,0,0,1.27,0c2.6-.17,2.89-3.79.85-4.69a21.88,21.88,0,0,1-1.66-5.11,30.51,30.51,0,0,1-.64-7,4.42,4.42,0,0,0-3-3.39c-3.92,0-7.75-1-11.6-1.47A15.46,15.46,0,0,0,106.52,359.34Z"/><path class="cls-2" d="M883.14,269.79c13-4.68,27-10.18,37.27-19.67h0a2.5,2.5,0,0,0,.72-2.42l0-.07h0a3.25,3.25,0,0,0-.84-2.36l0-.05-.35-.46c-.16-.2-.49-.63-.56-.74s-.22-.43-.34-.63a2.46,2.46,0,0,0-2.5-2.7c-5,.08-11.22,5.54-15.07,8.43-6.63,5-12.68,11-19.56,15.56a3.42,3.42,0,0,0-.45.37C878.83,266.44,880.17,270.86,883.14,269.79Z"/><path class="cls-2" d="M822.13,341.22a2.46,2.46,0,0,0,1.54.49c3.62,0,7.51,1.47,11.1,2A130.13,130.13,0,0,0,851,345.16c7.2.14,15.83.32,21.75-4.51,8.36-6.82,8.07-22.22,10.09-31.86,2.51-12,5.24-20.79,13.62-29.8a2.35,2.35,0,0,0,1-1.57,47,47,0,0,1,12-9.28c4.45-2.31,13.69-5,18.25-.94a2.86,2.86,0,0,0,.41.3c1.06,2.33,5.21.93,4.74-2.05-.24-1.54-1.32-2.89-2-4.25a28.33,28.33,0,0,0-2.19-3.62c-1.19-1.61-3-4.93-5.07-5.37a2.5,2.5,0,0,0-2.63,1l-.11,0c-5.56,2.49-11.15,7-16.53,10.1-6,3.42-12.22,6.05-18.43,9a2.6,2.6,0,0,0-.91.23c-6.85,3.11-17.4-.81-24.74.53-9.18,1.68-13.13,9.25-17.4,16.67-8.82,15.32-13.22,32.53-21.82,48A2.5,2.5,0,0,0,822.13,341.22Z"/><path class="cls-2" d="M936.08,278.53a2.63,2.63,0,0,0-1.12-2c-11.3-16.31-30.47-3.89-39,8.14-9.75,13.8-9.54,32-14.5,47.73a2.86,2.86,0,0,0-.41.84c-4.83,17.28-26.09,17.45-40.81,15.48-10.11-1.34-20.35-5.06-30.55-5.06a2.55,2.55,0,0,0-2.28,3.63,25,25,0,0,0-2.48,6c-.87,3.3-.47,8.07-2.26,11a2.31,2.31,0,0,0,.5,3.1,2.45,2.45,0,0,0,1.24,1c6.65,2.3,12.9,3.18,19.39,6.42,5.42,2.71,11.16,5.1,16.28,8.34a2.61,2.61,0,0,0,.73.6c14.92,8.32,29.07,17.45,46.72,18.62,22.38,1.48,29.69-22.59,34.7-40.21a2.24,2.24,0,0,0,.32-1.66c1-2.89,1.18-6.42,1.55-9.17,1-7.59,3.08-14.92,4.64-22.42C932.17,312.52,936.74,295.34,936.08,278.53Zm-42.06,81c-1,.61-2,1.16-3.09,1.66,1.07-.64,2.12-1.32,3.17-2.06A3.14,3.14,0,0,0,894,359.56Zm22.85-67.16a.71.71,0,0,0-.14-.1l.26-.54ZM890.2,342.7v.06h-.06Z"/><path class="cls-2" d="M883.18,405.48c-1.82-1-4.49-1.06-6.4-1.41a65.13,65.13,0,0,1-18.13-6.47c-8-4.25-15.51-10.28-24-13.65-8.49-5.8-18-10.87-27.42-11.86l-2.09-.33c-1.76-.26-7.24.47-6.68-1.36a2.33,2.33,0,0,0-.09-1.74,3.1,3.1,0,0,0-2.62-2.78c-5-.67-11.52,3.67-15.66,6.22-4.92,3-8.52,7.17-11.94,11.85-4.55,6.22-8.1,13.23-11.82,20-4,7.29-7.24,18-15.21,22a2.32,2.32,0,0,0-1.12,1.11,2.37,2.37,0,0,0-1.68,1.7l0,.17a2.71,2.71,0,0,0,3,3.2,3.32,3.32,0,0,0,.54.25c.75.57,1.53,1.13,2.35,1.67a7.46,7.46,0,0,0,.63.46l1.13.66c5.76,3.56,12.62,6.61,18.38,9.23,9.62,4.38,19.94,7.21,28.9,12.95s16.91,8.76,27.5,8.75c6.55,0,13.33-1.12,19.83-.5a140.78,140.78,0,0,1,18.55,3.1h0a2.34,2.34,0,0,0,.54.09l.14,0a2.17,2.17,0,0,0,2.16-1.21,2.49,2.49,0,0,0,3.14-2.13l.14-.18a4.3,4.3,0,0,0,.36-.51c.36-.51.75-1,1.14-1.46s.8-.93,1.2-1.39a5.43,5.43,0,0,0,.54-.63c.19-.29.58-.44-.07-.25a2.36,2.36,0,0,0,1.74-1.82,2.33,2.33,0,0,0,1.59-2.31c0-8.91,2.35-17,4.68-25.52,1.54-5.62,2.48-17.11,7.57-20.8a2.79,2.79,0,0,0,.47-.36A2.67,2.67,0,0,0,883.18,405.48Zm-91.66,19.39,1.08.36-.4-.05Zm2.41,6.45h0l-.08-.05Zm59.14-16.66a1.63,1.63,0,0,0,.31,0l.41.93ZM815,395.05l-.18,0a2.29,2.29,0,0,0,.22-.62l.14,0A2.91,2.91,0,0,0,815,395.05ZM791.89,382.1a1.09,1.09,0,0,0,.23.09l-1.54.2A12.87,12.87,0,0,1,791.89,382.1Zm2.09-7.43c-.29,0-.42-.12-.39-.37a.19.19,0,0,1,0-.07l0,0A4.45,4.45,0,0,0,794,374.67Zm78.72,33.88-.46-.24.5.11C872.73,408.47,872.71,408.51,872.7,408.55Zm-109.35-5.83-.1.18.09-.2ZM878,409.49h0l0,0Z"/><path class="cls-1" d="M764.22,376.51a2.24,2.24,0,0,0-2-.91h-.12a2.86,2.86,0,0,0-.74.13c-14.13,4.23-29.46.93-43.92.23a158.56,158.56,0,0,0-26.24.48c-9,1.09-19.42,1.32-27.67,5.24a2.47,2.47,0,0,0-1.07,3.13c-7.58,8-14,15-19.3,25.15A133.41,133.41,0,0,1,614,448a2.28,2.28,0,0,0,.11,3.59c-.75,11.39,1.22,23,2.48,34.32,1,8.76,4.4,16.92,5.09,25.7.62,7.92,2.6,17.75.82,25.5a2.66,2.66,0,0,0,2.89,3.2,3.65,3.65,0,0,1,.45.51A11.63,11.63,0,0,1,627,542.5a4.35,4.35,0,0,1,.2,1.91,2.46,2.46,0,0,0,.2,1,2.61,2.61,0,0,0,1.07,2.49c9.19,6.81,24.53,7.68,35,3.56a2.65,2.65,0,0,0,1.55-1.6,2.49,2.49,0,0,0,.32-3.8c-2.19-2.22-1.9-12-1.84-15.05.1-5.33,1.1-10.65,1.13-16,0-8.37-.45-16.56-.15-25,.35-9.55-1.17-18.82-3.16-28.15-1-4.81-6.89-19.57-3.33-24,4.58-2.66,8.84-5.58,13.84-7.46,7.37-2.77,17.38-3.8,25.21-4.88,12.57-1.73,25.14-1.34,37.78-1.05a2.18,2.18,0,0,0,1.13.3,2,2,0,0,0,2.52-.69c5.06-6.46,9.72-12.41,13.57-19.77,4-7.63,6.13-18.35,13.13-23.88C766.9,379.12,765.84,377.18,764.22,376.51ZM633.41,468.15c0-1.09,0-2.18.07-3.26C633.45,466,633.43,467.06,633.41,468.15ZM756.86,382h0l0,0S756.86,382,756.86,382Z"/><path class="cls-1" d="M624.69,429.17c6.65-4.8,11.14-15.39,14.91-21.76,2.45-4.16,5.47-8,8.2-12,3.74-5.48,9.79-10.1,12.58-16.11a2.1,2.1,0,0,0,.15-.42c8-3.81,19.17-4.87,27.87-6.25,7.87-1.26,15.32-.22,23.17-.19,2.42,0,3.66-3.64,1.29-4.78A29.39,29.39,0,0,0,704.2,365a3.58,3.58,0,0,0-.48-.24l-.5-.2-.1,0c-5-1.78-9.25-5.52-13.8-8.15-5.32-3.06-10.1-6.29-15.92-8.49-9.42-3.56-18.11-7.13-28.28-7.52-12.18-.48-18.77,5.72-25.29,15-4.19,5.93-7.8,12.13-12,18.06-2.88,4.1-5.78,8.12-7.2,12.94-2.28,3.76-3.6,8.37-5.4,12.36-2.46,5.43-5.59,10.45-8.35,15.71-4.75,9-8.74,20.7-17.45,26.67a2.5,2.5,0,0,0-1.1,1.66,21.22,21.22,0,0,0-1.76,2.4c-1.19,1.7-2.67,3.16-3.92,4.81-1,1.31-1.7,2.68-2.82,3.92a18.41,18.41,0,0,0-2.31,2.78,2,2,0,0,0-.6,1l0,.15a2.73,2.73,0,0,0,0,.38c-.53,2.24,1.94,3.5,3.65,2.75,6.67.39,12.32,6.87,16.52,11.33,3.82,4.06,6.28,9.72,7.58,15.12a2,2,0,0,0,.25.86c.85,2.47,4.45,1.74,4.88-.56,4-11.33,8.36-24.16,15.66-33.81C611.76,445.44,619,437.91,624.69,429.17Zm25.58-71.27a15.57,15.57,0,0,1,1.53-1.17Zm-72.76,90.54,0,0,.27-.25C577.66,448.24,577.59,448.34,577.51,448.44Zm28.58-31.79.14.07-1.08,1.53C605.47,417.72,605.78,417.18,606.09,416.65Zm-32.15,27.48-.39.38a1.17,1.17,0,0,0,.06-.2l.3-.25Z"/><path class="cls-2" d="M577.12,516.68c1.44-2.75,1.76-6.84,2.28-9.47s.61-5.44,1.18-8.1c.53-2.46,1.91-4.69,2.34-7.15a2.58,2.58,0,0,0-.74-2.35,2.44,2.44,0,0,0-.2-.55c-2.68-5.38-4.8-10.46-8.77-15.1s-9-6.51-13.92-10a2.22,2.22,0,0,0-3.42,1c-2.24.16-4.42.71-6.65.83-1.72.08-3.25.49-4.92.68A2.82,2.82,0,0,0,542,468a2.77,2.77,0,0,0-.53.32c-4.47,3.42-8.6,7.39-13.5,10.22-5.41,3.14-11.63,4.71-17.69,6.16-9.81,2.35-19.65,4.64-29.58,6.39-.48,0-1.38,0-1.68,0a2.68,2.68,0,0,0-2.48,1.89c-4.32,10.28,37.29,17.27,42.74,18.36,7.9,1.58,16.54,1.86,24.24,4,4.61,1.28,7.8,4.44,12.64,5.1,6.2.83,12.83.12,19.08.38C577.65,521,578.28,518.2,577.12,516.68Zm.25-24.13c0-.17-.07-.34-.11-.51l.2.27Zm-.47-1.92c-.06-.22-.1-.43-.16-.64l.18.38A2.28,2.28,0,0,0,576.9,490.63Zm-25.55-19.82,0-.05.18,0Zm-54.93,22.71c-.56.06-1.12.12-1.68.16l1.7-.34A1.1,1.1,0,0,0,496.42,493.52ZM559,515.21a26.27,26.27,0,0,1-2.67-.53C557.23,514.87,558.12,515.05,559,515.21Z"/><path class="cls-2" d="M671.63,569c-1.33-3.22-2.76-7.75-5.1-10.49.64-1.58-.16-3.76-2.27-3.58h-.14a3,3,0,0,0-.54.1v0a35,35,0,0,1-3.79.86,2.15,2.15,0,0,0-2-.19c-.66.23-1.35.44-2.07.65-9.24.52-18.23-2.24-27.48-3.71a2.37,2.37,0,0,0-2.68-.51c-5.82-1-10.6,7.09-13.55,10.84-6.28,8-13.59,12.26-22.11,17.4-2.52,1.52-15.13,4.42-13.8,9.57,1.26,4.92,14.32,4.69,18.29,4.93,10.67.65,21-1.23,31.54-2.55,6.15-.76,12.26-.81,18.35-1.33,4.86-.42,8.61-3,13.71-3.22,6.08-.24,14.14.24,15.61-7.58C674.23,576.74,672.93,572.12,671.63,569Zm-16.29,6.81c.15-.15.29-.32.44-.48l.31-.09.16-.06a11,11,0,0,1-1.18.91Zm7.8-4.61c0-.12,0-.25,0-.38,0,.13.06.25.08.37Z"/><path class="cls-3" d="M798.26,341.73c-5.48-3-9.61-8.49-15.86-9.69-5.39-1-10.11.35-13.7,4.54-7.66,9-11.41,25.57-.21,32.94,2.77,1.82,5.35-2.63,2.59-4.44-8.13-5.35-4-22.29,3.53-26.94,7.76-4.81,15.38,5.39,22,8.54a2.61,2.61,0,0,0,3.87-2.22l0-.27A2.14,2.14,0,0,0,798.26,341.73Z"/><path class="cls-3" d="M918.75,189.67c-2.59-11.88-10.84-23.71-23.2-26.41-10.85-2.37-26.34-5.64-36.56-.09-4.87,2.64-8.19,6.19-8.88,11.73-1,7.84,2.59,12,4.66,18.65a2.79,2.79,0,0,0-.33,1.06,2.5,2.5,0,0,0-.12.7c-.3,10.91,1.88,21.43-5.2,31-1.27,1.71.12,3.37,1.79,3.65a2,2,0,0,0,.66.27c6.63,1.2,7.21,14.49,9.84,19.21a22.29,22.29,0,0,0,8.15,8.42c0,1,0,2,0,3a8.47,8.47,0,0,1-.06,1.94c-2.18,1.77.28,5.64,3,4.14,2.33-1.27,2.4-4.57,2.28-7.39l.62,0h.22c3.31,0,3.31-5.14,0-5.14-9.58.06-10.84-12.45-13.49-18.77-1.39-3.33-3.46-7.59-6.83-9.5,5.07-8.85,4-18.57,4.1-28.48,8,.7,15.45,4.76,17.92,13.05a.05.05,0,0,1,0,0,2.4,2.4,0,0,0,2.35,3.28h.11a2.62,2.62,0,0,0,1.23-.36,19.7,19.7,0,0,1,3.63-1.39c3.53-.69,5,1.88,5.9,4.8.48,1.56,1.22,4.18.47,5.77s-3,2.29-4.58,2.64c-.63.13-2.36.08-2,.46-2.41-2.27-6,1.36-3.64,3.63a6,6,0,0,0,4.93,1.31,22.31,22.31,0,0,0,3.18,4.46,19.81,19.81,0,0,0,2.82,3.24c1.28,1.08,2.81,1.51,4.11,2.51,1.11.85,2.86.16,3.51-.93a2.62,2.62,0,0,0-.92-3.51,17.33,17.33,0,0,0-2.5-1.28,8,8,0,0,1-2.22-2.13,34.26,34.26,0,0,1-2.95-3.82.69.69,0,0,1,.15-.07c4.31-2,5.91-5.62,5.35-10.23-.47-4-2.13-8.79-5.74-10.88-3.2-1.85-5.86-1.27-8.76-.27-3.49-9.51-12.35-14.6-22.05-15.44-1.61-4.86-4.75-9.07-4.77-14.43,0-8.58,7.75-12.32,15.46-12.68,4.84-.22,9.63,1.15,14.42,1.68,5.1.57,10.5.54,15,3.17,10.7,6.22,13.81,18.36,15.59,29.71a49,49,0,0,1-.88,17.1c-1,4.91-4.51,9.38-4.75,14.44-.16,3.31,5,3.3,5.14,0s2.64-7,3.71-10.22a45.12,45.12,0,0,0,1.71-9.8C921.29,203.82,920.4,197.26,918.75,189.67Z"/></g></g></svg>